<svg width="754" height="740" viewBox="0 0 754 740" fill="none" xmlns="http://www.w3.org/2000/svg">
<path fill-rule="evenodd" clip-rule="evenodd" d="M0 487.071V739.886H754V0C722.061 23.49 688.335 40.7362 665.906 41.0979C611.359 41.9908 573.256 77.0626 538.065 109.454C506.945 138.098 478.103 164.646 442.179 163.609C388.716 169.322 371.923 193.184 354.659 217.713C339.362 239.448 323.696 261.708 281.821 272.331C272.419 273.462 263.569 274.478 255.217 275.436C144.8 288.11 121.37 290.8 60.5487 417.104C41.1028 450.933 18.9523 473.333 0 487.071Z" fill="#B5CFA1"/>
<path fill-rule="evenodd" clip-rule="evenodd" d="M0 487.071V739.886H754V0C722.061 23.49 688.335 40.7362 665.906 41.0979C611.359 41.9908 573.256 77.0626 538.065 109.454C506.945 138.098 478.103 164.646 442.179 163.609C388.716 169.322 371.923 193.184 354.659 217.713C339.362 239.448 323.696 261.708 281.821 272.331C272.419 273.462 263.569 274.478 255.217 275.436C144.8 288.11 121.37 290.8 60.5487 417.104C41.1028 450.933 18.9523 473.333 0 487.071Z" fill="url(#paint0_linear)"/>
<defs>
<linearGradient id="paint0_linear" x1="452.4" y1="419.614" x2="214.38" y2="-865.557" gradientUnits="userSpaceOnUse">
<stop stop-color="#468713"/>
<stop offset="1" stop-color="white" stop-opacity="0"/>
</linearGradient>
</defs>
</svg>
