<svg width="14" height="14" viewBox="0 0 14 14" fill="none" xmlns="http://www.w3.org/2000/svg">
<path fill-rule="evenodd" clip-rule="evenodd" d="M1.75 0.25H12.25C13.075 0.25 13.75 0.925 13.75 1.75V12.25C13.75 13.075 13.075 13.75 12.25 13.75H1.75C0.925 13.75 0.25 13.075 0.25 12.25V1.75C0.25 0.925 0.925 0.25 1.75 0.25ZM4.97502 10.2175C5.26752 10.51 5.74002 10.51 6.03252 10.2175L11.7175 4.525C12.01 4.2325 12.01 3.76 11.7175 3.4675C11.425 3.175 10.9525 3.175 10.66 3.4675L5.50002 8.6275L3.34002 6.4675C3.04752 6.175 2.57502 6.175 2.28252 6.4675C2.14208 6.60762 2.06315 6.79786 2.06315 6.99625C2.06315 7.19463 2.14208 7.38487 2.28252 7.525L4.97502 10.2175Z" fill="#416FC8"/>
</svg>
