<?xml version="1.0" encoding="utf-8"?>
<!-- Generator: Adobe Illustrator 17.0.0, SVG Export Plug-In . SVG Version: 6.00 Build 0)  -->
<!DOCTYPE svg PUBLIC "-//W3C//DTD SVG 1.1//EN" "http://www.w3.org/Graphics/SVG/1.1/DTD/svg11.dtd">
<svg version="1.1" id="Слой_1" xmlns="http://www.w3.org/2000/svg" xmlns:xlink="http://www.w3.org/1999/xlink" x="0px" y="0px"
	 width="1183px" height="1183px" viewBox="0 0 1183 1183" enable-background="new 0 0 1183 1183" xml:space="preserve">
<g>
	<g>
		<path fill="#637EA8" d="M591.504,1115.639c-70.737,0-139.365-13.857-203.978-41.186
			c-62.402-26.394-118.442-64.176-166.564-112.298s-85.904-104.162-112.298-166.564C81.335,730.978,67.478,662.35,67.478,591.613
			s13.857-139.365,41.186-203.978c26.394-62.402,64.176-118.442,112.298-166.564s104.162-85.904,166.564-112.298
			c64.613-27.329,133.241-41.186,203.978-41.186s139.365,13.857,203.978,41.186c62.402,26.394,118.442,64.176,166.564,112.298
			s85.904,104.162,112.298,166.564c27.329,64.613,41.186,133.241,41.186,203.978c0,70.737-13.857,139.365-41.186,203.978
			c-26.394,62.402-64.176,118.442-112.298,166.564c-48.122,48.121-104.162,85.904-166.564,112.298
			C730.87,1101.782,662.241,1115.639,591.504,1115.639z M591.504,92.589c-275.163,0-499.025,223.862-499.025,499.025
			s223.862,499.025,499.025,499.025s499.025-223.862,499.025-499.025S866.667,92.589,591.504,92.589z"/>
	</g>
	<g>
		<path fill="#E8A15B" d="M591,160c-6.904,0-12.5-5.596-12.5-12.5v-135C578.5,5.596,584.096,0,591,0s12.5,5.596,12.5,12.5v135
			C603.5,154.404,597.904,160,591,160z"/>
	</g>
	<g>
		<path fill="#E8A15B" d="M591,1183c-6.904,0-12.5-5.597-12.5-12.5v-135c0-6.903,5.596-12.5,12.5-12.5s12.5,5.597,12.5,12.5v135
			C603.5,1177.403,597.904,1183,591,1183z"/>
	</g>
	<g>
		<g>
			<path fill="#E8A15B" d="M1170.5,604.5h-135c-6.904,0-12.5-5.596-12.5-12.5c0-6.904,5.596-12.5,12.5-12.5h135
				c6.904,0,12.5,5.596,12.5,12.5C1183,598.904,1177.404,604.5,1170.5,604.5z"/>
		</g>
		<g>
			<path fill="#E8A15B" d="M147.5,604.5h-135C5.596,604.5,0,598.904,0,592c0-6.904,5.596-12.5,12.5-12.5h135
				c6.904,0,12.5,5.596,12.5,12.5C160,598.904,154.404,604.5,147.5,604.5z"/>
		</g>
	</g>
	<g>
		<g>
			<path fill="#E8A15B" d="M870.391,583.234c-5.885,0-11.128-4.175-12.267-10.17c-0.198-1.037-20.697-105.154-84.683-169.14
				c-63.846-63.846-158.394-76.597-159.341-76.719c-6.848-0.877-11.688-7.139-10.811-13.986c0.877-6.848,7.138-11.689,13.986-10.811
				c4.215,0.54,104.026,14.02,173.844,83.838c69.526,69.526,90.699,177.587,91.567,182.153c1.288,6.782-3.166,13.325-9.948,14.613
				C871.95,583.162,871.164,583.234,870.391,583.234z"/>
		</g>
		<g>
			<path fill="#E8A15B" d="M766.832,579.009c-5.885,0-11.128-4.175-12.267-10.169c-0.109-0.568-11.554-58.442-46.856-93.745
				c-34.965-34.965-87.327-42.193-87.852-42.262c-6.837-0.898-11.666-7.164-10.779-14.003c0.887-6.838,7.138-11.668,13.974-10.792
				c2.48,0.317,61.205,8.25,102.335,49.379c40.838,40.838,53.232,104.085,53.74,106.757c1.288,6.782-3.166,13.325-9.948,14.613
				C768.39,578.937,767.605,579.009,766.832,579.009z"/>
		</g>
		<path fill="#E8A15B" d="M846.95,748.733l-132.64-119.06c-3.291-2.953-7.897-3.949-12.114-2.617
			c-2.66,0.84-12.698,4.866-30.176,21.399c-12.701,12.015-28.713,37.535-37.351,52.079c-20.129-11.146-64.637-37.256-91.477-64.097
			c-26.755-26.754-52.367-70.056-63.332-89.71c14.427-8.544,40.519-24.838,52.707-37.723c16.534-17.478,20.56-27.517,21.4-30.177
			c1.331-4.217,0.336-8.823-2.618-12.114L432.29,334.073c-2.743-3.056-6.814-4.57-10.885-4.05
			c-1.446,0.185-35.752,4.801-66.435,29.348c-17.209,13.767-56.998,51.855-54.78,108.036c1.044,26.43,16.538,72.715,40.437,120.792
			c28.337,57.003,64.897,109.351,102.948,147.402c0.313,0.313,0.639,0.605,0.976,0.878c0.271,0.334,0.561,0.657,0.872,0.968
			c38.05,38.051,90.399,74.612,147.402,102.948c48.076,23.899,94.361,39.394,120.792,40.437c1.515,0.06,3.014,0.089,4.503,0.089
			c53.712-0.002,90.137-38.124,103.533-54.869c24.546-30.683,29.162-64.989,29.347-66.434
			C851.52,755.545,850.006,751.476,846.95,748.733z M802.133,810.433c-11.396,14.244-42.737,47.183-87.529,45.417
			c-42.364-1.672-170.029-54.607-251.503-136.081c-0.313-0.313-0.639-0.604-0.976-0.877c-0.271-0.334-0.562-0.658-0.872-0.969
			c-81.474-81.473-134.409-209.138-136.081-251.502c-1.768-44.792,31.172-76.133,45.417-87.529
			c18.036-14.428,38.001-20.547,47.828-22.85L526.81,476.801c-2.383,3.499-6.261,8.528-12.405,15.023
			c-11.896,12.576-45.003,32.318-56.756,38.864c-1.177,0.655-2.201,1.477-3.071,2.412c-3.943,3.729-5.134,9.745-2.519,14.809
			c1.427,2.765,35.396,68.147,73.455,106.206c38.069,38.068,105.345,72.834,108.19,74.295c0.099,0.051,0.203,0.085,0.303,0.133
			c0.279,0.134,0.56,0.259,0.844,0.371c0.161,0.063,0.322,0.124,0.484,0.18c0.289,0.1,0.579,0.186,0.871,0.264
			c0.155,0.041,0.309,0.087,0.465,0.122c0.338,0.076,0.677,0.133,1.017,0.181c0.108,0.015,0.215,0.039,0.323,0.051
			c0.443,0.05,0.887,0.075,1.33,0.078c0.021,0,0.042,0.004,0.063,0.004c0.333,0,0.664-0.017,0.994-0.044
			c0.081-0.006,0.161-0.017,0.241-0.025c0.29-0.029,0.578-0.068,0.864-0.116c0.088-0.015,0.175-0.028,0.263-0.045
			c0.348-0.067,0.693-0.146,1.033-0.241c0.057-0.016,0.113-0.036,0.169-0.053c0.287-0.085,0.57-0.181,0.851-0.287
			c0.098-0.037,0.195-0.074,0.291-0.113c0.294-0.119,0.585-0.248,0.87-0.389c0.036-0.018,0.073-0.033,0.109-0.051
			c0.311-0.158,0.614-0.334,0.912-0.518c0.091-0.056,0.18-0.115,0.269-0.174c0.234-0.154,0.464-0.315,0.688-0.485
			c0.068-0.052,0.138-0.1,0.206-0.153c0.278-0.219,0.546-0.451,0.806-0.695c0.065-0.061,0.128-0.126,0.192-0.189
			c0.207-0.203,0.408-0.414,0.602-0.634c0.064-0.072,0.129-0.143,0.191-0.217c0.237-0.281,0.466-0.572,0.68-0.877
			c0.031-0.044,0.059-0.092,0.09-0.137c0.183-0.268,0.356-0.546,0.52-0.832c0.029-0.05,0.063-0.095,0.091-0.145
			c6.546-11.753,26.289-44.86,38.865-56.756c6.494-6.144,11.523-10.023,15.022-12.405l120.782,108.412
			C822.739,772.412,816.682,792.247,802.133,810.433z"/>
	</g>
</g>
</svg>
