<?xml version="1.0" encoding="utf-8"?>
<!-- Generator: Adobe Illustrator 17.0.0, SVG Export Plug-In . SVG Version: 6.00 Build 0)  -->
<!DOCTYPE svg PUBLIC "-//W3C//DTD SVG 1.1//EN" "http://www.w3.org/Graphics/SVG/1.1/DTD/svg11.dtd">
<svg version="1.1" id="Слой_1" xmlns="http://www.w3.org/2000/svg" xmlns:xlink="http://www.w3.org/1999/xlink" x="0px" y="0px"
	 width="1309.152px" height="1181.792px" viewBox="0 0 1309.152 1181.792" enable-background="new 0 0 1309.152 1181.792"
	 xml:space="preserve">
<g>
	<g>
		<path fill="#E8A15B" d="M372.109,372.836c-2.375,0-4.775-0.676-6.902-2.088c-1.413-0.938-34.839-23.273-55.341-48.725
			c-8.811-10.938-30.051-41.705-36.968-91.057c-6.413-45.756,2.158-93.451,24.788-137.93c29.156-57.31,83.597-87.115,157.464-86.211
			c54.146,0.667,99.29,17.522,101.185,18.239c6.457,2.443,9.71,9.658,7.267,16.115c-2.442,6.454-9.652,9.706-16.105,7.271l0,0
			c-0.429-0.162-43.448-16.149-93.288-16.634c-64.312-0.633-109.429,23.788-134.242,72.557
			c-20.585,40.46-28.092,81.885-22.312,123.123c4.199,29.958,16.042,59.432,31.679,78.844
			c18.049,22.406,49.393,43.376,49.708,43.585c5.746,3.823,7.309,11.581,3.489,17.328
			C380.123,370.875,376.153,372.836,372.109,372.836z"/>
	</g>
	<g>
		<path fill="#E8A15B" d="M410.909,308.337c-6.604,0-12.123-5.171-12.472-11.842c-0.14-2.664-3.145-65.967,20.405-128.306
			c23.153-61.287,92.271-127.156,160.776-153.218C644.144-9.576,747.289-8.353,821.273,52.343
			c78.878,64.711,121.984,213.064,123.781,219.348c1.897,6.637-1.945,13.557-8.583,15.454s-13.555-1.944-15.454-8.58l0,0
			c-0.419-1.465-42.784-147.156-115.601-206.895C739.13,17.29,646.512,16.272,588.508,38.338
			c-61.483,23.39-125.736,84.309-146.279,138.686c-21.64,57.284-18.856,117.571-18.825,118.173
			c0.351,6.891-4.948,12.768-11.839,13.123C411.345,308.332,411.127,308.337,410.909,308.337z"/>
	</g>
	<g>
		<path fill="#E8A15B" d="M710.547,317.398c-20.478,0-41.168-1.528-61.097-5.236c-90.155-16.773-209.222-154.343-214.247-160.191
			c-4.499-5.236-3.901-13.126,1.334-17.625c5.234-4.499,13.126-3.903,17.626,1.332c1.174,1.366,118.336,136.739,199.858,151.906
			c83.937,15.615,185.824-11.005,211.491-21.937c6.353-2.705,13.693,0.25,16.399,6.602c2.705,6.351-0.251,13.693-6.602,16.398
			C853.005,298.147,783.189,317.398,710.547,317.398z"/>
	</g>
	<g>
		<path fill="#E8A15B" d="M372.43,436.014c-6.903,0-12.5-5.596-12.5-12.5v-77.011c0-21.458,5.821-37.768,17.576-48.751
			c14.103-13.178,30.976-12.961,34.655-12.961h43.492c6.903,0,12.5,5.596,12.5,12.5s-5.597,12.5-12.5,12.5H411.85
			c-0.365,0-0.449-0.132-0.775-0.161c-1.021-0.025-9.788-0.124-16.716,6.523c-6.349,6.091-9.429,16.256-9.429,30.35v77.011
			C384.93,430.418,379.333,436.014,372.43,436.014z"/>
	</g>
	<g>
		<path fill="#E8A15B" d="M410.797,497.68c-5.465,0-20.503-1.243-33.291-13.188c-11.755-10.98-17.577-27.498-17.577-48.956v-78.022
			c0-6.904,5.597-12.5,12.5-12.5c6.903,0,12.5,5.596,12.5,12.5v78.022c0,14.093,3.08,24.325,9.428,30.414
			c6.926,6.643,15.762,6.753,16.783,6.725c0.328-0.029,0.344,0.116,0.71,0.116h43.802c6.903,0,12.5,5.596,12.5,12.5
			s-5.597,12.5-12.5,12.5h-43.491C411.818,497.791,411.359,497.68,410.797,497.68z"/>
	</g>
	<g>
		<path fill="#E8A15B" d="M957.43,436.014c-6.903,0-12.5-5.596-12.5-12.5v-77.011c0-14.078-3.358-24.304-9.708-30.396
			c-6.953-6.671-15.979-6.506-16.998-6.476c-0.326,0.029-0.481,0.161-0.844,0.161h-42.727c-6.903,0-12.5-5.596-12.5-12.5
			s5.597-12.5,12.5-12.5h42.416c3.681,0,20.877-0.219,35.009,12.986c11.754,10.984,17.853,27.286,17.853,48.726v77.011
			C969.93,430.418,964.333,436.014,957.43,436.014z"/>
	</g>
	<g>
		<path fill="#E8A15B" d="M918.435,497.68c-0.563,0-1.023,0.112-1.367,0.112h-43.416c-6.903,0-12.5-5.596-12.5-12.5
			s5.597-12.5,12.5-12.5h43.727c0.364,0,0.45-0.146,0.778-0.116c1.034,0.027,10.113-0.01,17.065-6.678
			c6.349-6.089,9.707-16.384,9.707-30.461v-78.022c0-6.904,5.597-12.5,12.5-12.5s12.5,5.596,12.5,12.5v78.022
			c0,21.44-6.099,37.949-17.854,48.931C939.266,496.435,923.911,497.68,918.435,497.68z"/>
	</g>
	<g>
		<path fill="#E8A15B" d="M411.849,308.345c-5.208,0-10.07-3.281-11.836-8.487c-2.218-6.538,1.284-13.635,7.821-15.853
			c0.421-0.143,42.395-14.396,63.474-22.555c28.229-10.927,52.952-37.924,53.199-38.195c4.64-5.111,12.545-5.493,17.657-0.852
			c5.111,4.641,5.492,12.546,0.852,17.657c-1.168,1.287-29.003,31.666-62.683,44.704c-21.572,8.351-62.725,22.325-64.466,22.915
			C414.535,308.13,413.181,308.345,411.849,308.345z"/>
	</g>
	<g>
		<g>
			<path fill="#E8A15B" d="M665.312,666.791c-0.021,0-0.041,0-0.062,0c-1.602,0-39.614-0.425-72.943-11.535
				c-36.1-12.033-61.675-29.133-97.734-65.192c-39.593-39.593-44.571-145.242-44.77-149.719c-0.008-0.184,0.126-0.396,0.126-0.581
				v-161.25c0-6.904,5.596-12.5,12.5-12.5c6.903,0,12.5,5.596,12.5,12.5v160.967c1,28.045,10.376,105.768,37.459,132.851
				c37.357,37.358,60.472,49.958,87.893,59.098c29.58,9.86,64.771,10.141,65.123,10.143c6.903,0.033,12.455,5.765,12.423,12.669
				C677.794,661.125,672.187,666.791,665.312,666.791z"/>
		</g>
		<g>
			<path fill="#E8A15B" d="M666.01,666.791c-6.878,0-12.468-5.669-12.499-12.554c-0.03-6.904,5.542-12.579,12.445-12.609
				c0.382-0.002,39.082-0.345,68.559-10.17c27.603-9.201,51.015-21.835,88.292-59.112c27.138-27.138,36.122-104.825,38.122-132.885
				V278.514c0-6.904,5.597-12.5,12.5-12.5s12.5,5.596,12.5,12.5v161.25c0,0.2-0.144,0.4-0.153,0.599
				c-0.215,4.476-5.786,110.072-45.36,149.646c-35.533,35.532-62.108,53.296-97.961,65.247
				c-33.331,11.11-74.648,11.535-76.389,11.535C666.048,666.791,666.029,666.791,666.01,666.791z"/>
		</g>
	</g>
	<g>
		<path fill="#E8A15B" d="M796.678,582.791H681.652c-6.903,0-12.5-5.596-12.5-12.5c0-6.904,5.597-12.5,12.5-12.5h115.026
			c72.981,0,82.935-6.142,94.743-24.713c3.537-5.563,4.981-29.223,4.065-46.917c-0.357-6.894,4.943-12.807,11.837-13.165
			c6.883-0.346,12.773,4.925,13.13,11.82c0.551,10.646,1.608,46.676-7.935,61.684C892.543,577.916,868.611,582.791,796.678,582.791z
			"/>
	</g>
	<g>
		<g>
			<path fill="#E8A15B" d="M666.887,533.718c-41.543,0-74.152-34.193-75.52-35.649c-4.728-5.031-4.481-12.942,0.549-17.669
				c5.024-4.721,12.92-4.482,17.649,0.528l0,0c0.264,0.278,26.715,27.79,57.321,27.79c30.771,0,58.485-27.695,58.762-27.974
				c4.844-4.904,12.753-4.97,17.668-0.136c4.914,4.834,4.997,12.724,0.173,17.648C742.072,499.704,708.279,533.718,666.887,533.718z
				"/>
		</g>
		<g>
			<g>
				<path fill="#E8A15B" d="M601.652,373.791h-27c-6.904,0-12.5-5.596-12.5-12.5s5.596-12.5,12.5-12.5h27
					c6.904,0,12.5,5.596,12.5,12.5S608.556,373.791,601.652,373.791z"/>
			</g>
			<g>
				<path fill="#E8A15B" d="M759.652,373.791h-28c-6.904,0-12.5-5.596-12.5-12.5s5.596-12.5,12.5-12.5h28
					c6.904,0,12.5,5.596,12.5,12.5S766.556,373.791,759.652,373.791z"/>
			</g>
		</g>
	</g>
	<g>
		<g>
			<path fill="#E8A15B" d="M298.43,1045.014c-6.903,0-12.5-5.597-12.5-12.5V909.437c0-0.119-0.137-0.237-0.134-0.355
				c0.049-1.708,1.36-42.201,22.149-75.025c24.013-37.915,86.701-74.097,122.623-78.777c47.498-6.187,84.164-14.696,108.809-36.114
				c21.997-19.116,21.346-66.814,19.243-83.579c-0.859-6.85,3.993-13.099,10.842-13.959c6.854-0.859,13.098,3.997,13.957,10.847
				c0.376,3.001,8.802,73.875-27.66,105.561c-32.652,28.376-80.093,36.576-121.996,42.034
				c-29.836,3.886-85.008,36.382-104.629,67.363c-16.604,26.216-18.205,59.772-18.205,62.22v122.861
				C310.93,1039.417,305.333,1045.014,298.43,1045.014z"/>
		</g>
		<g>
			<path fill="#E8A15B" d="M1035.43,1045.014c-6.904,0-12.5-5.597-12.5-12.5V909.557c0-1.541-1.239-35.792-17.917-62.124
				c-19.648-31.023-74.706-63.511-104.271-67.363c-41.995-5.47-89.565-13.681-122.191-42.034
				c-36.433-31.662-28.368-102.502-28.007-105.502c0.827-6.853,7.041-11.737,13.899-10.913c6.85,0.826,11.73,7.045,10.91,13.894l0,0
				c-1.991,16.807-2.359,64.599,19.564,83.651c24.622,21.397,61.375,29.912,108.987,36.114
				c18.449,2.403,42.663,12.403,66.434,27.435c14.417,9.117,40.958,27.911,55.797,51.342c20.841,32.907,21.796,73.497,21.796,75.209
				c0,0.057,0,0.115,0,0.172v123.077C1047.93,1039.417,1042.334,1045.014,1035.43,1045.014z"/>
		</g>
	</g>
	<g>
		<path fill="#E8A15B" d="M677.273,918.187c-13.947,0-26.793-1.023-37.563-2.342c-34.51-4.226-67.5-13.993-90.511-26.798
			c-6.032-3.357-8.202-10.968-4.845-17.001s10.969-8.201,17.001-4.845c40.298,22.424,118.856,35.565,175.504,17.688
			c44.303-13.98,80.811-38.912,108.509-74.103c20.821-26.453,28.589-49.128,28.666-49.354c2.198-6.532,9.273-10.066,15.81-7.885
			c6.537,2.182,10.08,9.229,7.914,15.771c-0.351,1.059-8.855,26.284-32.031,56.019c-21.267,27.286-59.582,63.903-121.344,83.393
			C721.778,915.865,698.281,918.187,677.273,918.187z"/>
	</g>
	<g>
		<path fill="#E8A15B" d="M512.338,861.84c-2.508,0-5.04-0.753-7.239-2.319c-3.618-2.576-35.695-25.726-47.774-44.942
			c-11.129-17.705-24.51-41.208-25.074-42.2c-3.413-6.001-1.316-13.632,4.685-17.045c6.002-3.414,13.633-1.315,17.045,4.685
			c0.136,0.238,13.677,24.023,24.509,41.256c8.013,12.748,32.394,31.669,41.112,37.884c5.621,4.007,6.931,11.812,2.926,17.433
			C520.09,860.014,516.243,861.84,512.338,861.84z"/>
	</g>
</g>
<g>
	<g>
		<g>
			<path fill="#637EA8" d="M107.43,1045.014c-6.904,0-12.5-5.596-12.5-12.5v-697.52c0-22.249,7.603-40.769,22.87-55.047
				c37.386-34.962,107.325-30.696,110.286-30.498c6.888,0.462,12.063,6.42,11.601,13.309c-0.462,6.888-6.425,12.104-13.326,11.635
				c-1.177-0.072-62.242-3.581-91.515,23.85c-10.125,9.487-14.916,21.508-14.916,36.751v697.52
				C119.93,1039.418,114.333,1045.014,107.43,1045.014z"/>
		</g>
		<g>
			<path fill="#637EA8" d="M1202.43,1045.014c-6.903,0-12.5-5.596-12.5-12.5v-697.52c0-15.246-5.06-27.265-15.183-36.743
				c-29.393-27.521-91.04-23.667-91.659-23.626c-0.273,0.018-0.629,0.167-0.903,0.167h-77.533c-6.903,0-12.5-5.596-12.5-12.5
				c0-6.904,5.597-12.5,12.5-12.5h77.143c6.749-1,73.748-3.562,109.981,30.295c15.271,14.27,23.153,32.651,23.153,54.907v697.52
				C1214.93,1039.418,1209.333,1045.014,1202.43,1045.014z"/>
		</g>
		<g>
			<path fill="#637EA8" d="M297.652,413.791h-190c-6.903,0-12.5-5.596-12.5-12.5s5.597-12.5,12.5-12.5h190
				c6.903,0,12.5,5.596,12.5,12.5S304.556,413.791,297.652,413.791z"/>
		</g>
		<g>
			<path fill="#637EA8" d="M1201.652,413.791h-183c-6.904,0-12.5-5.596-12.5-12.5s5.596-12.5,12.5-12.5h183
				c6.904,0,12.5,5.596,12.5,12.5S1208.556,413.791,1201.652,413.791z"/>
		</g>
	</g>
	<g>
		<path fill="#637EA8" d="M1296.652,1045.792h-1284c-6.904,0-12.5-5.596-12.5-12.5s5.596-12.5,12.5-12.5h1284
			c6.904,0,12.5,5.596,12.5,12.5S1303.556,1045.792,1296.652,1045.792z"/>
	</g>
	<g>
		<g>
			<path fill="#637EA8" d="M684.652,1181.792H136.486c-48.536,0-99.079-22.262-120.181-52.742
				c-20.123-29.067-16.171-89.475-15.654-96.26c0.524-6.884,6.526-12.081,13.414-11.549c6.882,0.524,12.036,6.509,11.514,13.391l0,0
				c-1.204,15.998-1.526,61.698,11.28,80.196c16.511,23.849,59.341,41.964,99.626,41.964h548.166c6.904,0,12.5,5.597,12.5,12.5
				S691.556,1181.792,684.652,1181.792z"/>
		</g>
		<g>
			<path fill="#637EA8" d="M1173.236,1181.792H623.652c-6.904,0-12.5-5.597-12.5-12.5s5.596-12.5,12.5-12.5h549.584
				c40.083,0,82.761-18.123,99.272-41.972c12.762-18.435,12.152-65.166,10.932-80.059c-0.563-6.88,4.558-12.95,11.438-13.513
				c6.881-0.572,12.915,4.54,13.479,11.42c0.556,6.788,4.851,67.292-15.294,96.391
				C1271.961,1159.538,1221.567,1181.792,1173.236,1181.792z"/>
		</g>
	</g>
	<g>
		<g>
			<path fill="#637EA8" d="M662.652,1121.792H534.571c-16.935,0-27.145-15.238-29.594-29.268c-0.124-0.71-0.047-1.567-0.047-2.288
				v-56.721c0-6.903,5.597-12.5,12.5-12.5s12.5,5.597,12.5,12.5v55.361c1,3.022,2.602,7.916,4.641,7.916h128.082
				c6.903,0,12.5,5.597,12.5,12.5S669.556,1121.792,662.652,1121.792z"/>
		</g>
		<g>
			<path fill="#637EA8" d="M775.467,1121.792H647.652c-6.903,0-12.5-5.597-12.5-12.5s5.597-12.5,12.5-12.5h127.815
				c1.854,0,3.462-5.004,4.462-7.656v-55.622c0-6.903,5.597-12.5,12.5-12.5s12.5,5.597,12.5,12.5v56.721
				c0,0.562-0.176,1.261-0.252,1.817C802.746,1106.309,792.686,1121.792,775.467,1121.792z"/>
		</g>
	</g>
</g>
</svg>
