<svg width="306" height="85" viewBox="0 0 306 85" fill="none" xmlns="http://www.w3.org/2000/svg">
<path d="M154 85L83 2.84475e-06L225 1.52588e-05L154 85Z" fill="#637EA8"/>
<path d="M235 5.0086e-07L272 44L198 44L235 5.0086e-07Z" fill="#D3D9E7"/>
<path d="M71 5.0086e-07L108 44L34 44L71 5.0086e-07Z" fill="#D3D9E7"/>
<path d="M147.824 41.2245H152.219V28.5795C152.219 28.0895 152.234 27.5745 152.264 27.0345L149.144 29.6445C148.964 29.7845 148.784 29.8745 148.604 29.9145C148.434 29.9445 148.269 29.9445 148.109 29.9145C147.959 29.8845 147.824 29.8345 147.704 29.7645C147.584 29.6845 147.494 29.5995 147.434 29.5095L146.264 27.9045L152.879 22.2795H155.924V41.2245H159.824V43.9995H147.824V41.2245Z" fill="white"/>
</svg>
