<svg width="306" height="85" viewBox="0 0 306 85" fill="none" xmlns="http://www.w3.org/2000/svg">
<path d="M154 85L83 2.84475e-06L225 1.52588e-05L154 85Z" fill="#637EA8"/>
<path d="M235 5.0086e-07L272 44L198 44L235 5.0086e-07Z" fill="#D3D9E7"/>
<path d="M71 5.0086e-07L108 44L34 44L71 5.0086e-07Z" fill="#D3D9E7"/>
<path d="M153.209 22.0695C154.209 22.0695 155.124 22.2195 155.954 22.5195C156.784 22.8095 157.494 23.2245 158.084 23.7645C158.674 24.3045 159.134 24.9545 159.464 25.7145C159.794 26.4745 159.959 27.3195 159.959 28.2495C159.959 29.0495 159.839 29.7895 159.599 30.4695C159.369 31.1495 159.054 31.7995 158.654 32.4195C158.264 33.0395 157.804 33.6395 157.274 34.2195C156.744 34.7995 156.189 35.3895 155.609 35.9895L150.704 40.9845C151.184 40.8445 151.654 40.7395 152.114 40.6695C152.584 40.5895 153.029 40.5495 153.449 40.5495H159.014C159.414 40.5495 159.729 40.6645 159.959 40.8945C160.199 41.1145 160.319 41.4095 160.319 41.7795V43.9995H145.439V42.7695C145.439 42.5195 145.489 42.2595 145.589 41.9895C145.699 41.7095 145.869 41.4595 146.099 41.2395L152.684 34.6395C153.234 34.0795 153.724 33.5445 154.154 33.0345C154.594 32.5245 154.959 32.0195 155.249 31.5195C155.539 31.0195 155.759 30.5145 155.909 30.0045C156.069 29.4845 156.149 28.9395 156.149 28.3695C156.149 27.8495 156.074 27.3945 155.924 27.0045C155.774 26.6045 155.559 26.2695 155.279 25.9995C155.009 25.7295 154.679 25.5295 154.289 25.3995C153.909 25.2595 153.479 25.1895 152.999 25.1895C152.559 25.1895 152.149 25.2545 151.769 25.3845C151.399 25.5045 151.069 25.6795 150.779 25.9095C150.489 26.1295 150.244 26.3895 150.044 26.6895C149.844 26.9895 149.694 27.3195 149.594 27.6795C149.424 28.1395 149.204 28.4445 148.934 28.5945C148.664 28.7445 148.274 28.7795 147.764 28.6995L145.814 28.3545C145.964 27.3145 146.254 26.4045 146.684 25.6245C147.114 24.8345 147.649 24.1795 148.289 23.6595C148.939 23.1295 149.679 22.7345 150.509 22.4745C151.349 22.2045 152.249 22.0695 153.209 22.0695Z" fill="white"/>
</svg>
