<svg width="306" height="85" viewBox="0 0 306 85" fill="none" xmlns="http://www.w3.org/2000/svg">
<path d="M154 85L83 2.84475e-06L225 1.52588e-05L154 85Z" fill="#637EA8"/>
<path d="M235 5.0086e-07L272 44L198 44L235 5.0086e-07Z" fill="#D3D9E7"/>
<path d="M71 5.0086e-07L108 44L34 44L71 5.0086e-07Z" fill="#D3D9E7"/>
<path d="M153.314 22.0695C154.314 22.0695 155.214 22.2145 156.014 22.5045C156.824 22.7845 157.514 23.1795 158.084 23.6895C158.654 24.1895 159.089 24.7795 159.389 25.4595C159.699 26.1395 159.854 26.8745 159.854 27.6645C159.854 28.3545 159.774 28.9645 159.614 29.4945C159.464 30.0145 159.239 30.4695 158.939 30.8595C158.649 31.2495 158.289 31.5795 157.859 31.8495C157.439 32.1195 156.959 32.3445 156.419 32.5245C157.719 32.9345 158.689 33.5595 159.329 34.3995C159.969 35.2395 160.289 36.2945 160.289 37.5645C160.289 38.6445 160.089 39.5995 159.689 40.4295C159.289 41.2595 158.749 41.9595 158.069 42.5295C157.389 43.0895 156.599 43.5145 155.699 43.8045C154.809 44.0945 153.864 44.2395 152.864 44.2395C151.774 44.2395 150.824 44.1145 150.014 43.8645C149.204 43.6145 148.499 43.2445 147.899 42.7545C147.299 42.2645 146.789 41.6645 146.369 40.9545C145.949 40.2445 145.589 39.4245 145.289 38.4945L146.924 37.8195C147.354 37.6395 147.754 37.5945 148.124 37.6845C148.504 37.7645 148.779 37.9645 148.949 38.2845C149.129 38.6345 149.324 38.9795 149.534 39.3195C149.754 39.6595 150.014 39.9645 150.314 40.2345C150.614 40.4945 150.964 40.7095 151.364 40.8795C151.774 41.0395 152.259 41.1195 152.819 41.1195C153.449 41.1195 153.999 41.0195 154.469 40.8195C154.939 40.6095 155.329 40.3395 155.639 40.0095C155.959 39.6795 156.194 39.3145 156.344 38.9145C156.504 38.5045 156.584 38.0945 156.584 37.6845C156.584 37.1645 156.529 36.6945 156.419 36.2745C156.309 35.8445 156.079 35.4795 155.729 35.1795C155.379 34.8795 154.874 34.6445 154.214 34.4745C153.564 34.3045 152.689 34.2195 151.589 34.2195V31.5795C152.499 31.5695 153.254 31.4845 153.854 31.3245C154.454 31.1645 154.929 30.9445 155.279 30.6645C155.639 30.3745 155.889 30.0295 156.029 29.6295C156.169 29.2295 156.239 28.7895 156.239 28.3095C156.239 27.2895 155.954 26.5145 155.384 25.9845C154.814 25.4545 154.054 25.1895 153.104 25.1895C152.664 25.1895 152.259 25.2545 151.889 25.3845C151.519 25.5045 151.184 25.6795 150.884 25.9095C150.594 26.1295 150.349 26.3895 150.149 26.6895C149.949 26.9895 149.799 27.3195 149.699 27.6795C149.529 28.1395 149.304 28.4445 149.024 28.5945C148.754 28.7445 148.369 28.7795 147.869 28.6995L145.919 28.3545C146.069 27.3145 146.359 26.4045 146.789 25.6245C147.219 24.8345 147.754 24.1795 148.394 23.6595C149.044 23.1295 149.784 22.7345 150.614 22.4745C151.454 22.2045 152.354 22.0695 153.314 22.0695Z" fill="white"/>
</svg>
