<svg width="83" height="83" viewBox="0 0 83 83" fill="none" xmlns="http://www.w3.org/2000/svg">
<g clip-path="url(#clip0)">
<path d="M68.2717 16.1895H14.9536C14.5096 16.1895 14.1497 15.8296 14.1497 15.3855C14.1497 14.9414 14.5096 14.5814 14.9536 14.5814H68.2717C68.7158 14.5814 69.0757 14.9414 69.0757 15.3855C69.0757 15.8296 68.7158 16.1895 68.2717 16.1895Z" fill="#637EA8"/>
<path d="M14.9214 16.1574C14.4773 16.1574 14.1174 15.7975 14.1174 15.3534V4.80406C14.1174 4.35996 14.4773 4 14.9214 4C15.3654 4 15.7253 4.35996 15.7253 4.80406V15.3534C15.7253 15.7975 15.3654 16.1574 14.9214 16.1574Z" fill="#637EA8"/>
<path d="M68.3037 16.1574C67.8597 16.1574 67.4998 15.7975 67.4998 15.3534V4.80406C67.4998 4.35996 67.8597 4 68.3037 4C68.7477 4 69.1077 4.35996 69.1077 4.80406V15.3534C69.1077 15.7975 68.7477 16.1574 68.3037 16.1574Z" fill="#637EA8"/>
<path d="M43.0597 80.0017H33.3874C31.5619 80.0017 30.2451 79.4957 29.4737 78.4978C28.5071 77.2473 28.8103 75.7045 28.869 75.4509L30.8898 64.9108C30.9734 64.4747 31.3947 64.189 31.8307 64.2726C32.2668 64.3562 32.5525 64.7775 32.4689 65.2137L30.4447 75.771C30.4414 75.7881 30.4376 75.8052 30.4332 75.822C30.4322 75.8263 30.1987 76.8175 30.753 77.5235C31.3177 78.2426 32.4972 78.3936 33.3873 78.3936H43.0597C43.5037 78.3936 43.8636 78.7536 43.8636 79.1977C43.8636 79.6418 43.5037 80.0017 43.0597 80.0017Z" fill="#3F496A"/>
<path d="M43.0597 80.0017H33.3874C31.5619 80.0017 30.2451 79.4957 29.4737 78.4978C28.5071 77.2473 28.8103 75.7045 28.869 75.4509L30.8898 64.9108C30.9734 64.4747 31.3947 64.189 31.8307 64.2726C32.2668 64.3562 32.5525 64.7775 32.4689 65.2137L30.4447 75.771C30.4414 75.7881 30.4376 75.8052 30.4332 75.822C30.4322 75.8263 30.1987 76.8175 30.753 77.5235C31.3177 78.2426 32.4972 78.3936 33.3873 78.3936H43.0597C43.5037 78.3936 43.8636 78.7536 43.8636 79.1977C43.8636 79.6418 43.5037 80.0017 43.0597 80.0017Z" fill="#637EA8"/>
<path d="M49.6411 80.0001H40.0369C39.5928 80.0001 39.2329 79.6401 39.2329 79.196C39.2329 78.7519 39.5928 78.3919 40.0369 78.3919H49.6411C50.5323 78.3919 51.7141 78.2405 52.2832 77.5192C52.841 76.8121 52.6123 75.8212 52.6099 75.8112C52.6058 75.7951 52.6036 75.7845 52.6004 75.7681L50.5933 65.2108C50.5104 64.7745 50.7968 64.3537 51.2329 64.2707C51.6691 64.1876 52.09 64.4741 52.1729 64.9104L54.177 75.4515C54.2337 75.7013 54.5317 77.2453 53.5604 78.4962C52.7855 79.4941 51.4668 80.0001 49.6411 80.0001Z" fill="#637EA8"/>
<path d="M45.6325 60.1878H37.3357C36.8917 60.1878 36.5317 59.8279 36.5317 59.3838C36.5317 58.9397 36.8917 58.5797 37.3357 58.5797H45.6325C46.0765 58.5797 46.4364 58.9397 46.4364 59.3838C46.4364 59.8279 46.0765 60.1878 45.6325 60.1878Z" fill="#E8A15B"/>
<path d="M14.9214 54.8811C14.4773 54.8811 14.1174 54.5211 14.1174 54.077V20.5637C14.1174 20.1196 14.4773 19.7596 14.9214 19.7596C15.3654 19.7596 15.7253 20.1196 15.7253 20.5637V54.077C15.7253 54.5211 15.3654 54.8811 14.9214 54.8811Z" fill="#3F496A"/>
<path d="M68.3037 54.8811C67.8597 54.8811 67.4998 54.5211 67.4998 54.077V20.5637C67.4998 20.1196 67.8597 19.7596 68.3037 19.7596C68.7477 19.7596 69.1077 20.1196 69.1077 20.5637V54.077C69.1077 54.5211 68.7477 54.8811 68.3037 54.8811Z" fill="#3F496A"/>
<path d="M82.1639 54.849H0.803952C0.359913 54.849 0 54.489 0 54.0449C0 53.6008 0.359913 53.2408 0.803952 53.2408H82.1639C82.6079 53.2408 82.9678 53.6008 82.9678 54.0449C82.9678 54.489 82.6079 54.849 82.1639 54.849Z" fill="#637EA8"/>
<path d="M77.713 65.8498H5.46519C4.02978 65.8498 2.6693 65.2744 1.63439 64.2296C0.601347 63.1869 0.0324707 61.8172 0.0324707 60.3728V9.34959C0.0324707 7.90761 0.606299 6.56161 1.64822 5.55949C2.67149 4.57539 4.02702 4.03345 5.46519 4.03345H77.7131C80.6779 4.03345 83.0004 6.36857 83.0004 9.34959V60.3728C83.0003 63.3928 80.6285 65.8498 77.713 65.8498ZM5.46519 5.64157C3.3562 5.64157 1.64037 7.30495 1.64037 9.34959V60.3728C1.64037 62.47 3.3919 64.2417 5.46519 64.2417H77.7131C79.7419 64.2417 81.3925 62.5061 81.3925 60.3728V9.34959C81.3925 7.23568 79.8107 5.64157 77.7131 5.64157H5.46519Z" fill="#3F496A"/>
<path d="M30.8395 44.3961C30.6338 44.3961 30.428 44.3176 30.271 44.1606L21.3954 35.2837C21.0814 34.9697 21.0814 34.4606 21.3954 34.1466L30.5283 25.0125C30.8423 24.6985 31.3513 24.6985 31.6653 25.0125C31.9793 25.3265 31.9793 25.8356 31.6653 26.1496L23.1009 34.7152L31.408 43.0235C31.722 43.3375 31.722 43.8466 31.408 44.1606C31.251 44.3176 31.0453 44.3961 30.8395 44.3961Z" fill="#E8A15B"/>
<path d="M52.1282 44.3961C51.9225 44.3961 51.7167 44.3176 51.5597 44.1606C51.2457 43.8466 51.2457 43.3375 51.5597 43.0235L60.4353 34.1466C60.7493 33.8326 61.2583 33.8326 61.5723 34.1466C61.8863 34.4606 61.8863 34.9697 61.5723 35.2837L52.6967 44.1606C52.5397 44.3176 52.3339 44.3961 52.1282 44.3961Z" fill="#E8A15B"/>
<path d="M61.0038 35.5192C60.798 35.5192 60.5923 35.4408 60.4353 35.2837L51.3024 26.1496C50.9884 25.8356 50.9884 25.3265 51.3024 25.0125C51.6164 24.6985 52.1254 24.6985 52.4394 25.0125L61.5723 34.1466C61.8863 34.4606 61.8863 34.9697 61.5723 35.2837C61.4153 35.4408 61.2095 35.5192 61.0038 35.5192Z" fill="#E8A15B"/>
<path d="M38.4077 44.5253C38.328 44.5253 38.2469 44.5134 38.1668 44.4883C37.7432 44.3554 37.5075 43.9041 37.6403 43.4804L43.3243 25.3569C43.4571 24.9332 43.9083 24.6973 44.332 24.8303C44.7556 24.9632 44.9913 25.4144 44.8585 25.8381L39.1745 43.9617C39.0668 44.3053 38.7497 44.5253 38.4077 44.5253Z" fill="#637EA8"/>
<path d="M20.6133 10.8507H19.2627C18.8187 10.8507 18.4587 10.4907 18.4587 10.0466C18.4587 9.60252 18.8187 9.24255 19.2627 9.24255H20.6133C21.0574 9.24255 21.4173 9.60252 21.4173 10.0466C21.4173 10.4907 21.0574 10.8507 20.6133 10.8507Z" fill="#E8A15B"/>
<path d="M25.7588 10.8507H24.4082C23.9642 10.8507 23.6042 10.4907 23.6042 10.0466C23.6042 9.60252 23.9642 9.24255 24.4082 9.24255H25.7588C26.2029 9.24255 26.5628 9.60252 26.5628 10.0466C26.5628 10.4907 26.2029 10.8507 25.7588 10.8507Z" fill="#E8A15B"/>
<path d="M30.8397 10.8507H29.489C29.045 10.8507 28.6851 10.4907 28.6851 10.0466C28.6851 9.60252 29.045 9.24255 29.489 9.24255H30.8397C31.2837 9.24255 31.6436 9.60252 31.6436 10.0466C31.6436 10.4907 31.2837 10.8507 30.8397 10.8507Z" fill="#E8A15B"/>
</g>
<defs>
<clipPath id="clip0">
<rect width="83" height="76" fill="white" transform="translate(0 4)"/>
</clipPath>
</defs>
</svg>
