<svg width="57" height="62" viewBox="0 0 57 62" fill="none" xmlns="http://www.w3.org/2000/svg">
<g clip-path="url(#clip0_1321_10887)">
<path d="M51.86 0.949997H5.17996C2.88245 0.949997 1.01996 2.81249 1.01996 5.11V56.79C1.01996 59.0875 2.88245 60.95 5.17996 60.95H51.86C54.1575 60.95 56.02 59.0875 56.02 56.79V5.11C56.02 2.81249 54.1575 0.949997 51.86 0.949997Z" stroke="#3F496A" stroke-width="1.9" stroke-miterlimit="10"/>
<path d="M49.07 10.95H37.09C36.5653 10.95 36.14 11.3753 36.14 11.9C36.14 12.4247 36.5653 12.85 37.09 12.85H49.07C49.5946 12.85 50.02 12.4247 50.02 11.9C50.02 11.3753 49.5946 10.95 49.07 10.95Z" fill="#637EA8"/>
<path d="M49.07 16.28H37.09C36.5653 16.28 36.14 16.7053 36.14 17.23C36.14 17.7547 36.5653 18.18 37.09 18.18H49.07C49.5946 18.18 50.02 17.7547 50.02 17.23C50.02 16.7053 49.5946 16.28 49.07 16.28Z" fill="#637EA8"/>
<path d="M49.07 21.62H37.09C36.5653 21.62 36.14 22.0453 36.14 22.57C36.14 23.0947 36.5653 23.52 37.09 23.52H49.07C49.5946 23.52 50.02 23.0947 50.02 22.57C50.02 22.0453 49.5946 21.62 49.07 21.62Z" fill="#637EA8"/>
<path d="M21.07 39.95H9.08995C8.56528 39.95 8.13995 40.3753 8.13995 40.9C8.13995 41.4247 8.56528 41.85 9.08995 41.85H21.07C21.5946 41.85 22.02 41.4247 22.02 40.9C22.02 40.3753 21.5946 39.95 21.07 39.95Z" fill="#637EA8"/>
<path d="M21.07 45.28H9.08995C8.56528 45.28 8.13995 45.7053 8.13995 46.23C8.13995 46.7547 8.56528 47.18 9.08995 47.18H21.07C21.5946 47.18 22.02 46.7547 22.02 46.23C22.02 45.7053 21.5946 45.28 21.07 45.28Z" fill="#637EA8"/>
<path d="M21.07 50.62H9.08995C8.56528 50.62 8.13995 51.0453 8.13995 51.57C8.13995 52.0947 8.56528 52.52 9.08995 52.52H21.07C21.5946 52.52 22.02 52.0947 22.02 51.57C22.02 51.0453 21.5946 50.62 21.07 50.62Z" fill="#637EA8"/>
<path d="M20.84 9.95H16.2C16.1005 9.95 16.02 10.0306 16.02 10.13V26.77C16.02 26.8694 16.1005 26.95 16.2 26.95H20.84C20.9394 26.95 21.02 26.8694 21.02 26.77V10.13C21.02 10.0306 20.9394 9.95 20.84 9.95Z" stroke="#3F496A" stroke-width="1.9" stroke-miterlimit="10"/>
<path d="M29.84 6.95H25.2C25.1005 6.95 25.02 7.03059 25.02 7.13V26.77C25.02 26.8694 25.1005 26.95 25.2 26.95H29.84C29.9394 26.95 30.02 26.8694 30.02 26.77V7.13C30.02 7.03059 29.9394 6.95 29.84 6.95Z" stroke="#E8A15B" stroke-width="1.9" stroke-miterlimit="10"/>
<path d="M11.84 13.95H7.19996C7.10055 13.95 7.01996 14.0306 7.01996 14.13V26.77C7.01996 26.8694 7.10055 26.95 7.19996 26.95H11.84C11.9394 26.95 12.02 26.8694 12.02 26.77V14.13C12.02 14.0306 11.9394 13.95 11.84 13.95Z" stroke="#637EA8" stroke-width="1.9" stroke-miterlimit="10"/>
<path d="M37.07 44H47.07C47.07 45.9778 46.4835 47.9112 45.3846 49.5557C44.2858 51.2002 42.724 52.4819 40.8968 53.2388C39.0695 53.9957 37.0589 54.1937 35.119 53.8079C33.1792 53.422 31.3974 52.4696 29.9989 51.0711C28.6004 49.6725 27.648 47.8907 27.2621 45.9509C26.8762 44.0111 27.0743 42.0004 27.8312 40.1732C28.588 38.3459 29.8698 36.7841 31.5142 35.6853C33.1587 34.5865 35.0921 34 37.07 34V44Z" stroke="#E8A15B" stroke-width="1.9" stroke-miterlimit="10"/>
<path d="M39.97 41V31C42.6221 31 45.1657 32.0536 47.041 33.9289C48.9164 35.8043 49.97 38.3478 49.97 41V41H39.97Z" stroke="#3F496A" stroke-width="1.9" stroke-miterlimit="10"/>
</g>
<defs>
<clipPath id="clip0_1321_10887">
<rect width="56.9" height="61.9" fill="white" transform="translate(0.0699463)"/>
</clipPath>
</defs>
</svg>
