<svg width="67" height="62" viewBox="0 0 67 62" fill="none" xmlns="http://www.w3.org/2000/svg">
<g clip-path="url(#clip0_1321_10925)">
<path d="M21 14.85H54.1C54.3001 14.7842 54.4743 14.657 54.5978 14.4864C54.7213 14.3158 54.7877 14.1106 54.7877 13.9C54.7877 13.6894 54.7213 13.4842 54.5978 13.3136C54.4743 13.143 54.3001 13.0158 54.1 12.95H21C20.748 12.95 20.5064 13.0501 20.3282 13.2282C20.1501 13.4064 20.05 13.648 20.05 13.9C20.05 14.152 20.1501 14.3936 20.3282 14.5717C20.5064 14.7499 20.748 14.85 21 14.85Z" fill="#3F496A"/>
<path d="M55.08 23.9C55.0679 23.652 54.9639 23.4173 54.7883 23.2417C54.6127 23.0661 54.378 22.9621 54.13 22.95H21C20.748 22.95 20.5064 23.0501 20.3282 23.2282C20.1501 23.4064 20.05 23.648 20.05 23.9C20.05 24.152 20.1501 24.3936 20.3282 24.5717C20.5064 24.7499 20.748 24.85 21 24.85H54.1C54.3533 24.8452 54.5954 24.7445 54.7773 24.5682C54.9592 24.3918 55.0674 24.153 55.08 23.9Z" fill="#3F496A"/>
<path d="M39.9 34.85H54.13C54.382 34.85 54.6236 34.7499 54.8017 34.5717C54.9799 34.3936 55.08 34.152 55.08 33.9C55.08 33.648 54.9799 33.4064 54.8017 33.2282C54.6236 33.0501 54.382 32.95 54.13 32.95H39.87C39.88 33.1232 39.88 33.2968 39.87 33.47L39.9 34.85Z" fill="#3F496A"/>
<path d="M54.13 44.85C54.3819 44.85 54.6236 44.7499 54.8017 44.5717C54.9799 44.3936 55.08 44.152 55.08 43.9C55.08 43.648 54.9799 43.4064 54.8017 43.2282C54.6236 43.0501 54.3819 42.95 54.13 42.95H39.9V44.85H54.13Z" fill="#3F496A"/>
<path d="M60.91 0H14.24C12.8838 -2.5867e-06 11.583 0.538051 10.6231 1.49608C9.66324 2.4541 9.12264 3.75383 9.12 5.11V27H11V5.11C11 4.68592 11.084 4.26604 11.2472 3.87462C11.4104 3.48319 11.6495 3.12799 11.9508 2.82951C12.252 2.53104 12.6094 2.29522 13.0024 2.13568C13.3953 1.97614 13.8159 1.89604 14.24 1.9H60.91C61.7613 1.9 62.5778 2.2382 63.1798 2.84019C63.7818 3.44218 64.12 4.25866 64.12 5.11V56.79C64.12 57.6413 63.7818 58.4578 63.1798 59.0598C62.5778 59.6618 61.7613 60 60.91 60H14.24C13.7846 59.9986 13.3348 59.8997 12.9209 59.7099C12.5069 59.5202 12.1383 59.244 11.84 58.9H9.6C10.0055 59.7915 10.6582 60.5479 11.4806 61.0796C12.303 61.6114 13.2607 61.8961 14.24 61.9H60.91C62.261 61.8921 63.5541 61.3505 64.5075 60.3934C65.4609 59.4362 65.9974 58.141 66 56.79V5.11C65.9974 3.75901 65.4609 2.4638 64.5075 1.50663C63.5541 0.549461 62.261 0.00791346 60.91 0V0Z" fill="#3F496A"/>
<path d="M36.87 33C36.7525 31.6374 36.1288 30.3682 35.1218 29.4427C34.1148 28.5172 32.7977 28.0024 31.43 28H30.9V27.1C30.9 26.9276 30.8315 26.7623 30.7096 26.6404C30.5877 26.5185 30.4224 26.45 30.25 26.45H29.65C29.4776 26.45 29.3123 26.5185 29.1904 26.6404C29.0685 26.7623 29 26.9276 29 27.1V28H7.9V27.1C7.9 26.9276 7.83152 26.7623 7.70962 26.6404C7.58772 26.5185 7.42239 26.45 7.25 26.45H6.65C6.47761 26.45 6.31228 26.5185 6.19038 26.6404C6.06848 26.7623 6 26.9276 6 27.1V28H5.47C4.02008 28.0026 2.6303 28.5798 1.60505 29.605C0.579794 30.6303 0.00264344 32.0201 0 33.47L0 52.47C0.0131641 53.913 0.594956 55.2925 1.61907 56.3091C2.64319 57.3258 4.02697 57.8974 5.47 57.9H31.47C32.9207 57.9 34.312 57.3237 35.3379 56.2979C36.3637 55.272 36.94 53.8807 36.94 52.43V33.43C36.9236 33.2856 36.9002 33.1421 36.87 33ZM35 43V52.48C34.9869 53.4181 34.6049 54.3134 33.9369 54.9721C33.2688 55.6308 32.3682 56.0001 31.43 56H5.43C4.49013 55.9895 3.59233 55.6087 2.93145 54.9403C2.27057 54.272 1.89994 53.3699 1.9 52.43V35.43H35V43ZM35 33.55H1.9C1.88934 33.0745 1.97381 32.6016 2.14844 32.1592C2.32307 31.7168 2.58435 31.3138 2.91692 30.9737C3.24949 30.6337 3.64666 30.3636 4.08509 30.1792C4.52352 29.9948 4.99437 29.8999 5.47 29.9H6C6.02159 30.052 6.09709 30.1912 6.21274 30.2921C6.32839 30.3931 6.47648 30.4491 6.63 30.45H7.23C7.38352 30.4491 7.53161 30.3931 7.64726 30.2921C7.76291 30.1912 7.83841 30.052 7.86 29.9H29C29.0216 30.052 29.0971 30.1912 29.2127 30.2921C29.3284 30.3931 29.4765 30.4491 29.63 30.45H30.23C30.3835 30.4491 30.5316 30.3931 30.6473 30.2921C30.7629 30.1912 30.8384 30.052 30.86 29.9H31.41C32.2842 29.8875 33.1325 30.1962 33.7943 30.7676C34.456 31.339 34.885 32.1333 35 33C35.0103 33.1732 35.0103 33.3468 35 33.52V33.55Z" fill="#637EA8"/>
<path d="M9.59001 37.95H5.31001C4.5589 37.95 3.95001 38.5589 3.95001 39.31V41.59C3.95001 42.3411 4.5589 42.95 5.31001 42.95H9.59001C10.3411 42.95 10.95 42.3411 10.95 41.59V39.31C10.95 38.5589 10.3411 37.95 9.59001 37.95Z" stroke="#E8A15B" stroke-width="1.9" stroke-miterlimit="10"/>
<path d="M20.59 37.95H16.31C15.5589 37.95 14.95 38.5589 14.95 39.31V41.59C14.95 42.3411 15.5589 42.95 16.31 42.95H20.59C21.3411 42.95 21.95 42.3411 21.95 41.59V39.31C21.95 38.5589 21.3411 37.95 20.59 37.95Z" stroke="#E8A15B" stroke-width="1.9" stroke-miterlimit="10"/>
<path d="M31.59 37.95H27.31C26.5589 37.95 25.95 38.5589 25.95 39.31V41.59C25.95 42.3411 26.5589 42.95 27.31 42.95H31.59C32.3411 42.95 32.95 42.3411 32.95 41.59V39.31C32.95 38.5589 32.3411 37.95 31.59 37.95Z" stroke="#E8A15B" stroke-width="1.9" stroke-miterlimit="10"/>
<path d="M9.59001 46.95H5.31001C4.5589 46.95 3.95001 47.5589 3.95001 48.31V50.59C3.95001 51.3411 4.5589 51.95 5.31001 51.95H9.59001C10.3411 51.95 10.95 51.3411 10.95 50.59V48.31C10.95 47.5589 10.3411 46.95 9.59001 46.95Z" stroke="#E8A15B" stroke-width="1.9" stroke-miterlimit="10"/>
<path d="M20.59 46.95H16.31C15.5589 46.95 14.95 47.5589 14.95 48.31V50.59C14.95 51.3411 15.5589 51.95 16.31 51.95H20.59C21.3411 51.95 21.95 51.3411 21.95 50.59V48.31C21.95 47.5589 21.3411 46.95 20.59 46.95Z" stroke="#E8A15B" stroke-width="1.9" stroke-miterlimit="10"/>
<path d="M31.59 46.95H27.31C26.5589 46.95 25.95 47.5589 25.95 48.31V50.59C25.95 51.3411 26.5589 51.95 27.31 51.95H31.59C32.3411 51.95 32.95 51.3411 32.95 50.59V48.31C32.95 47.5589 32.3411 46.95 31.59 46.95Z" stroke="#E8A15B" stroke-width="1.9" stroke-miterlimit="10"/>
</g>
<defs>
<clipPath id="clip0_1321_10925">
<rect width="66.03" height="61.9" fill="white"/>
</clipPath>
</defs>
</svg>
