<svg width="67" height="67" viewBox="0 0 67 67" fill="none" xmlns="http://www.w3.org/2000/svg">
<g clip-path="url(#clip0_1321_11118)">
<path d="M41.73 51.49L41.95 51.34C42.12 51.2191 42.3147 51.1372 42.52 51.1C42.77 51.1 43.04 51.32 43.33 51.77C43.4723 51.9676 43.5618 52.1982 43.59 52.44C43.5932 52.5172 43.5806 52.5943 43.5531 52.6665C43.5256 52.7387 43.4837 52.8045 43.43 52.86C43.3143 52.9732 43.1869 53.0738 43.05 53.16L42.64 53.41C42.3808 53.5424 42.1096 53.6495 41.83 53.73C41.4443 53.8493 41.0436 53.9133 40.64 53.92C40.2519 53.9188 39.8655 53.8684 39.49 53.77C39.0682 53.6566 38.6644 53.485 38.29 53.26C37.8803 53.0286 37.5064 52.7389 37.18 52.4C36.8264 52.0209 36.5512 51.5757 36.37 51.09C36.1547 50.5389 36.0461 49.9518 36.05 49.36C36.0431 48.7778 36.1519 48.2 36.37 47.66C36.5465 47.1892 36.8189 46.7601 37.17 46.4C37.4917 46.0683 37.8627 45.7883 38.27 45.57C38.9906 45.1522 39.8071 44.9283 40.64 44.92C41.026 44.9234 41.4097 44.9806 41.78 45.09C42.0893 45.176 42.3879 45.2967 42.67 45.45L42.95 45.61L43.29 45.83C43.3827 45.8942 43.459 45.9791 43.5128 46.0781C43.5667 46.1771 43.5965 46.2874 43.6 46.4C43.5893 46.6441 43.5018 46.8786 43.35 47.07C43.04 47.5 42.76 47.71 42.51 47.71C42.2864 47.6819 42.0751 47.5918 41.9 47.45C41.5157 47.1482 41.0385 46.9892 40.55 47C39.9953 47.0115 39.459 47.2008 39.02 47.54C38.764 47.7395 38.5584 47.9965 38.42 48.29C38.2617 48.6299 38.1797 49.0002 38.1797 49.375C38.1797 49.7499 38.2617 50.1202 38.42 50.46C38.5589 50.7562 38.7684 51.0137 39.03 51.21C39.4654 51.5475 39.9991 51.7336 40.55 51.74C40.7896 51.7416 41.0283 51.7113 41.26 51.65C41.4233 51.6186 41.5814 51.5647 41.73 51.49Z" fill="#E8A15B"/>
<path d="M53.73 45.34C53.7846 45.4397 53.8218 45.5479 53.84 45.66C53.8521 45.7998 53.8521 45.9403 53.84 46.08V52.74C53.84 53.29 53.69 53.62 53.39 53.74C53.2018 53.796 53.0063 53.823 52.81 53.82C52.6248 53.8256 52.4397 53.8054 52.26 53.76C52.1471 53.7328 52.0414 53.6817 51.95 53.61C51.8675 53.5519 51.8074 53.4672 51.78 53.37C51.7322 53.167 51.712 52.9585 51.72 52.75V48.75C51.52 49 51.23 49.39 50.84 49.93C50.45 50.47 50.21 50.81 50.11 50.93L49.89 51.22C49.8059 51.306 49.7079 51.377 49.6 51.43C49.4486 51.5199 49.2761 51.5682 49.1 51.57C48.9248 51.5712 48.7524 51.5264 48.6 51.44C48.4818 51.3813 48.3765 51.2997 48.29 51.2L48.19 51.07C48.03 50.87 47.71 50.44 47.19 49.79L46.42 48.79V52.79C46.42 52.98 46.42 53.11 46.42 53.21C46.3986 53.3165 46.358 53.4182 46.3 53.51C46.18 53.73 45.87 53.84 45.37 53.84C44.88 53.84 44.57 53.73 44.45 53.51C44.393 53.4151 44.3556 53.3097 44.34 53.2C44.3328 53.0568 44.3328 52.9133 44.34 52.77V46.06C44.3326 45.9201 44.3326 45.7799 44.34 45.64C44.3593 45.5313 44.3965 45.4266 44.45 45.33C44.57 45.12 44.89 45.01 45.39 45.01C45.5797 45.0077 45.7686 45.0347 45.95 45.09C46.0613 45.1187 46.1642 45.1735 46.25 45.25L46.33 45.33L49.05 48.9C50.3833 47.1 51.29 45.9134 51.77 45.34C51.91 45.12 52.23 45.01 52.77 45.01C53.31 45.01 53.62 45.12 53.73 45.34Z" fill="#E8A15B"/>
<path d="M55 52.5601C54.8225 52.3712 54.7133 52.1282 54.69 51.8701C54.69 51.6701 54.86 51.4001 55.21 51.0601C55.3741 50.8849 55.6002 50.7808 55.84 50.7701C56.07 50.7701 56.38 50.9701 56.78 51.3701C56.9136 51.5295 57.0766 51.6619 57.26 51.7601C57.4315 51.8768 57.6326 51.9427 57.84 51.9501C58.58 51.9501 58.95 51.6501 58.95 51.0401C58.9468 50.9433 58.9171 50.8493 58.8642 50.7682C58.8113 50.6871 58.7373 50.622 58.65 50.5801C58.4139 50.4396 58.1521 50.3478 57.88 50.3101C57.541 50.2425 57.2069 50.1523 56.88 50.0401C56.5353 49.9206 56.2009 49.7735 55.88 49.6001C55.5546 49.4093 55.2882 49.1325 55.11 48.8001C54.8999 48.3961 54.7967 47.9452 54.81 47.4901C54.8081 47.145 54.8762 46.8031 55.0103 46.4851C55.1443 46.1671 55.3416 45.8796 55.59 45.6401C55.8778 45.3725 56.2164 45.1656 56.5858 45.0316C56.9551 44.8976 57.3476 44.8393 57.74 44.8601C58.1645 44.8472 58.5887 44.8943 59 45.0001C59.294 45.0763 59.5718 45.205 59.82 45.3801L60.12 45.6101C60.3159 45.7506 60.4487 45.9625 60.49 46.2001C60.4599 46.4418 60.3629 46.6704 60.21 46.8601C59.93 47.2601 59.65 47.4601 59.37 47.4601C59.142 47.4393 58.9241 47.3562 58.74 47.2201L58.6 47.1001C58.5454 47.0409 58.4851 46.9873 58.42 46.9401C58.224 46.8334 58.0029 46.7816 57.78 46.7901C57.5499 46.7812 57.3228 46.8441 57.13 46.9701C57.0475 47.0289 56.9806 47.107 56.9353 47.1977C56.8899 47.2883 56.8675 47.3887 56.87 47.4901C56.8692 47.5981 56.8975 47.7044 56.9521 47.7977C57.0066 47.891 57.0854 47.9678 57.18 48.0201C57.4088 48.1699 57.6687 48.2657 57.94 48.3001C58.277 48.3555 58.6108 48.4289 58.94 48.5201C59.2843 48.6114 59.6192 48.7353 59.94 48.8901C60.2669 49.0525 60.5332 49.3153 60.7 49.6401C60.9258 50.0562 61.0297 50.5275 61 51.0001C61.0065 51.4748 60.9003 51.9444 60.69 52.3701C60.5054 52.7456 60.2219 53.0637 59.87 53.2901C59.2568 53.7076 58.5319 53.9307 57.79 53.9301C57.432 53.9304 57.0756 53.8834 56.73 53.7901C56.4413 53.718 56.165 53.6034 55.91 53.4501C55.5682 53.2591 55.2661 53.0045 55.02 52.7001L55 52.5601Z" fill="#E8A15B"/>
<path d="M37.46 21.88H42.17C42.0624 21.5746 42.005 21.2537 42 20.93C42.005 20.6062 42.0624 20.2854 42.17 19.98H37.46C37.2081 19.98 36.9664 20.0801 36.7883 20.2582C36.6101 20.4364 36.51 20.678 36.51 20.93C36.51 21.1819 36.6101 21.4236 36.7883 21.6017C36.9664 21.7799 37.2081 21.88 37.46 21.88Z" fill="#637EA8"/>
<path d="M47.73 21.88H59.56C59.7601 21.8142 59.9343 21.687 60.0578 21.5164C60.1813 21.3458 60.2478 21.1406 60.2478 20.93C60.2478 20.7194 60.1813 20.5142 60.0578 20.3436C59.9343 20.173 59.7601 20.0457 59.56 19.98H47.73C47.8376 20.2854 47.895 20.6062 47.9 20.93C47.895 21.2537 47.8376 21.5746 47.73 21.88Z" fill="#637EA8"/>
<path d="M47.73 20C47.4603 19.3925 46.9965 18.8918 46.4114 18.5764C45.8263 18.2611 45.1531 18.149 44.4974 18.2577C43.8417 18.3664 43.2406 18.6898 42.7886 19.1771C42.3366 19.6644 42.0592 20.288 42 20.95C42.005 21.2738 42.0624 21.5946 42.17 21.9C42.3643 22.4837 42.7374 22.9913 43.2363 23.3511C43.7353 23.7109 44.3349 23.9045 44.95 23.9045C45.5651 23.9045 46.1647 23.7109 46.6637 23.3511C47.1626 22.9913 47.5357 22.4837 47.73 21.9C47.8376 21.5946 47.895 21.2738 47.9 20.95C47.895 20.6262 47.8376 20.3054 47.73 20ZM45.38 21.9C45.2457 21.964 45.0988 21.9972 44.95 21.9972C44.8012 21.9972 44.6543 21.964 44.52 21.9C44.3326 21.8231 44.173 21.6911 44.0623 21.5214C43.9515 21.3518 43.895 21.1525 43.9 20.95C43.895 20.7475 43.9515 20.5482 44.0623 20.3786C44.173 20.2089 44.3326 20.0769 44.52 20C44.6543 19.936 44.8012 19.9028 44.95 19.9028C45.0988 19.9028 45.2457 19.936 45.38 20C45.5674 20.0769 45.727 20.2089 45.8377 20.3786C45.9485 20.5482 46.005 20.7475 46 20.95C46.001 21.1491 45.9425 21.344 45.8321 21.5097C45.7216 21.6754 45.5642 21.8043 45.38 21.88V21.9Z" fill="#E8A15B"/>
<path d="M59.56 28H57.73C57.8376 28.3054 57.895 28.6262 57.9 28.95C57.895 29.2738 57.8376 29.5946 57.73 29.9H59.56C59.7601 29.8342 59.9343 29.707 60.0578 29.5364C60.1813 29.3658 60.2478 29.1606 60.2478 28.95C60.2478 28.7394 60.1813 28.5342 60.0578 28.3636C59.9343 28.193 59.7601 28.0658 59.56 28Z" fill="#637EA8"/>
<path d="M52.17 28H37.46C37.2599 28.0658 37.0857 28.193 36.9622 28.3636C36.8387 28.5342 36.7722 28.7394 36.7722 28.95C36.7722 29.1606 36.8387 29.3658 36.9622 29.5364C37.0857 29.707 37.2599 29.8342 37.46 29.9H52.17C52.0624 29.5946 52.005 29.2738 52 28.95C52.005 28.6262 52.0624 28.3054 52.17 28Z" fill="#637EA8"/>
<path d="M57.73 28C57.4603 27.3925 56.9965 26.8918 56.4114 26.5764C55.8263 26.2611 55.1531 26.149 54.4974 26.2577C53.8417 26.3664 53.2406 26.6898 52.7886 27.1771C52.3366 27.6644 52.0592 28.288 52 28.95C52.005 29.2738 52.0624 29.5946 52.17 29.9C52.3643 30.4837 52.7374 30.9913 53.2363 31.3511C53.7353 31.7109 54.3349 31.9045 54.95 31.9045C55.5651 31.9045 56.1647 31.7109 56.6637 31.3511C57.1626 30.9913 57.5357 30.4837 57.73 29.9C57.8376 29.5946 57.895 29.2738 57.9 28.95C57.895 28.6262 57.8376 28.3054 57.73 28ZM55 30C54.851 29.9991 54.7041 29.9649 54.57 29.9C54.3826 29.8231 54.223 29.6911 54.1123 29.5214C54.0015 29.3518 53.945 29.1525 53.95 28.95C53.945 28.7475 54.0015 28.5482 54.1123 28.3786C54.223 28.2089 54.3826 28.0769 54.57 28C54.7043 27.936 54.8512 27.9028 55 27.9028C55.1488 27.9028 55.2957 27.936 55.43 28C55.6174 28.0769 55.777 28.2089 55.8877 28.3786C55.9985 28.5482 56.055 28.7475 56.05 28.95C56.055 29.1525 55.9985 29.3518 55.8877 29.5214C55.777 29.6911 55.6174 29.8231 55.43 29.9C55.2959 29.9649 55.149 29.9991 55 30Z" fill="#E8A15B"/>
<path d="M59.56 36H44.73C44.843 36.3213 44.9005 36.6594 44.9 37C44.9005 37.3406 44.843 37.6787 44.73 38H59.56C59.812 38 60.0536 37.8999 60.2318 37.7218C60.4099 37.5436 60.51 37.302 60.51 37.05C60.51 36.798 60.4099 36.5564 60.2318 36.3783C60.0536 36.2001 59.812 36.1 59.56 36.1V36Z" fill="#637EA8"/>
<path d="M39.17 36H37.46C37.2599 36.0658 37.0857 36.193 36.9622 36.3636C36.8387 36.5342 36.7722 36.7394 36.7722 36.95C36.7722 37.1606 36.8387 37.3658 36.9622 37.5364C37.0857 37.707 37.2599 37.8342 37.46 37.9H39.17C39.057 37.5787 38.9995 37.2406 39 36.9C39.0103 36.5931 39.0676 36.2895 39.17 36Z" fill="#637EA8"/>
<path d="M44.73 36C44.4574 35.3907 43.9893 34.8896 43.3999 34.5762C42.8105 34.2628 42.1334 34.155 41.4758 34.2698C40.8182 34.3845 40.2176 34.7154 39.7692 35.2099C39.3208 35.7044 39.0501 36.3343 39 37C38.9995 37.3406 39.057 37.6787 39.17 38C39.3643 38.5837 39.7374 39.0914 40.2363 39.4511C40.7353 39.8109 41.3349 40.0045 41.95 40.0045C42.5652 40.0045 43.1647 39.8109 43.6637 39.4511C44.1626 39.0914 44.5357 38.5837 44.73 38C44.843 37.6787 44.9005 37.3406 44.9 37C44.9005 36.6594 44.843 36.3213 44.73 36ZM42.38 37.9C42.2457 37.964 42.0988 37.9972 41.95 37.9972C41.8012 37.9972 41.6543 37.964 41.52 37.9C41.3242 37.8203 41.1588 37.6805 41.0474 37.5008C40.936 37.3212 40.8844 37.1108 40.9 36.9C40.8844 36.6892 40.936 36.4788 41.0474 36.2992C41.1588 36.1195 41.3242 35.9798 41.52 35.9C41.6543 35.836 41.8012 35.8028 41.95 35.8028C42.0988 35.8028 42.2457 35.836 42.38 35.9C42.5758 35.9798 42.7412 36.1195 42.8526 36.2992C42.964 36.4788 43.0156 36.6892 43 36.9C43.0113 37.1075 42.9577 37.3134 42.8466 37.4891C42.7354 37.6647 42.5724 37.8013 42.38 37.88V37.9Z" fill="#E8A15B"/>
<path d="M62.58 13H36.09V14.9H62.58C62.8978 14.9 63.2125 14.9626 63.5061 15.0842C63.7997 15.2058 64.0665 15.3841 64.2912 15.6088C64.5159 15.8335 64.6942 16.1003 64.8158 16.3939C64.9374 16.6875 65 17.0022 65 17.32V55.58C65 55.8978 64.9374 56.2125 64.8158 56.5061C64.6942 56.7997 64.5159 57.0665 64.2912 57.2912C64.0665 57.5159 63.7997 57.6942 63.5061 57.8158C63.2125 57.9374 62.8978 58 62.58 58H4.32C3.67899 57.9974 3.06498 57.7416 2.61171 57.2883C2.15844 56.835 1.90263 56.221 1.9 55.58V17.32C1.90263 16.679 2.15844 16.065 2.61171 15.6117C3.06498 15.1584 3.67899 14.9026 4.32 14.9H4.44V13H4.32C3.17508 13.0026 2.0778 13.4586 1.26822 14.2682C0.458631 15.0778 0.00264113 16.1751 0 17.32L0 55.58C0.00264113 56.7249 0.458631 57.8222 1.26822 58.6318C2.0778 59.4414 3.17508 59.8974 4.32 59.9H62.58C63.7249 59.8974 64.8222 59.4414 65.6318 58.6318C66.4414 57.8222 66.8974 56.7249 66.9 55.58V17.32C66.8974 16.1751 66.4414 15.0778 65.6318 14.2682C64.8222 13.4586 63.7249 13.0026 62.58 13Z" fill="#3F496A"/>
<path d="M25.12 13C24.8758 11.7225 24.149 10.5881 23.0905 9.83227C22.0321 9.07643 20.7232 8.7572 19.4355 8.94085C18.1479 9.1245 16.9805 9.79692 16.1755 10.8185C15.3705 11.8402 14.9899 13.1325 15.1126 14.4274C15.2352 15.7222 15.8518 16.9201 16.8343 17.7724C17.8168 18.6247 19.0897 19.0659 20.3889 19.0045C21.6881 18.9431 22.9138 18.3837 23.8115 17.4426C24.7092 16.5014 25.21 15.2507 25.21 13.95C25.2104 13.6312 25.1802 13.3131 25.12 13ZM20.26 17C19.4511 17 18.6753 16.6787 18.1033 16.1067C17.5313 15.5347 17.21 14.759 17.21 13.95C17.21 13.1411 17.5313 12.3654 18.1033 11.7934C18.6753 11.2214 19.4511 10.9 20.26 10.9C20.901 10.9033 21.5247 11.1077 22.0433 11.4845C22.5618 11.8613 22.9489 12.3914 23.15 13C23.3634 13.6154 23.3634 14.2847 23.15 14.9C22.9502 15.5095 22.5635 16.0404 22.0446 16.4174C21.5258 16.7944 20.9013 16.9983 20.26 17Z" fill="#E8A15B"/>
<path d="M32.45 11H30.8C30.6129 10.334 30.3617 9.68762 30.05 9.07L31.25 7.88C31.4024 7.7277 31.5233 7.54686 31.6058 7.34783C31.6882 7.14879 31.7307 6.93545 31.7307 6.72C31.7307 6.50455 31.6882 6.29121 31.6058 6.09217C31.5233 5.89314 31.4024 5.7123 31.25 5.56L28.16 2.47C28.0077 2.31761 27.8269 2.19672 27.6278 2.11424C27.4288 2.03176 27.2155 1.98931 27 1.98931C26.7846 1.98931 26.5712 2.03176 26.3722 2.11424C26.1731 2.19672 25.9923 2.31761 25.84 2.47L24.46 3.84L24.09 3.7V1.64C24.0874 1.20585 23.9138 0.790237 23.6068 0.483244C23.2998 0.176251 22.8841 0.00262331 22.45 0L18.08 0C17.645 0 17.2279 0.172785 16.9203 0.480345C16.6128 0.787905 16.44 1.20504 16.44 1.64V3.7C16.08 3.84 15.73 3.99 15.38 4.16L14.69 3.47C14.5377 3.31761 14.3569 3.19672 14.1578 3.11424C13.9588 3.03176 13.7455 2.98931 13.53 2.98931C13.3146 2.98931 13.1012 3.03176 12.9022 3.11424C12.7031 3.19672 12.5223 3.31761 12.37 3.47L9.28 6.56C9.12761 6.7123 9.00672 6.89314 8.92424 7.09217C8.84176 7.29121 8.79931 7.50455 8.79931 7.72C8.79931 7.93545 8.84176 8.14879 8.92424 8.34783C9.00672 8.54686 9.12761 8.7277 9.28 8.88L10.15 9.75C9.98316 10.1572 9.84287 10.5747 9.73 11H8.08C7.64505 11 7.22791 11.1728 6.92035 11.4803C6.61279 11.7879 6.44 12.205 6.44 12.64V16.26C6.44 16.695 6.61279 17.1121 6.92035 17.4197C7.22791 17.7272 7.64505 17.9 8.08 17.9H10.08C10.2003 18.217 10.3372 18.5274 10.49 18.83L9.28 20C9.12761 20.1523 9.00672 20.3331 8.92424 20.5322C8.84176 20.7312 8.79931 20.9445 8.79931 21.16C8.79931 21.3755 8.84176 21.5888 8.92424 21.7878C9.00672 21.9869 9.12761 22.1677 9.28 22.32L12.37 25.41C12.5223 25.5624 12.7031 25.6833 12.9022 25.7658C13.1012 25.8482 13.3146 25.8907 13.53 25.8907C13.7455 25.8907 13.9588 25.8482 14.1578 25.7658C14.3569 25.6833 14.5377 25.5624 14.69 25.41L16.06 24.04L16.44 24.18V26.24C16.44 26.4554 16.4824 26.6686 16.5648 26.8676C16.6473 27.0666 16.7681 27.2474 16.9203 27.3997C17.0726 27.5519 17.2534 27.6727 17.4524 27.7552C17.6514 27.8376 17.8646 27.88 18.08 27.88H22.45C22.8841 27.8774 23.2998 27.7038 23.6068 27.3968C23.9138 27.0898 24.0874 26.6741 24.09 26.24V24.2L24.46 24.06L25.84 25.43C25.9923 25.5824 26.1731 25.7033 26.3722 25.7858C26.5712 25.8682 26.7846 25.9107 27 25.9107C27.2155 25.9107 27.4288 25.8682 27.6278 25.7858C27.8269 25.7033 28.0077 25.5824 28.16 25.43L31.25 22.34C31.4024 22.1877 31.5233 22.0069 31.6058 21.8078C31.6882 21.6088 31.7307 21.3955 31.7307 21.18C31.7307 20.9646 31.6882 20.7512 31.6058 20.5522C31.5233 20.3531 31.4024 20.1723 31.25 20.02L30.05 18.83C30.2028 18.5274 30.3397 18.217 30.46 17.9H32.46C32.8941 17.8974 33.3098 17.7237 33.6168 17.4168C33.9238 17.1098 34.0974 16.6941 34.1 16.26V12.64C34.0974 12.2041 33.9224 11.787 33.6132 11.4797C33.3041 11.1725 32.8859 11 32.45 11ZM32.19 14.9V16H29.07C28.9624 16.4825 28.8118 16.9544 28.62 17.41C28.55 17.58 28.47 17.74 28.39 17.9C28.1814 18.3276 27.9407 18.7388 27.67 19.13L29 20.49L29.7 21.19L27 23.91L26.22 23.13L24.84 21.75C24.57 21.9 24.3 22.05 24.01 22.18C23.6835 22.3239 23.3497 22.4508 23.01 22.56C22.7194 22.6543 22.4355 22.7679 22.16 22.9V26H18.34V22.9C18.0636 22.7701 17.7797 22.6566 17.49 22.56C17.1504 22.4505 16.8166 22.3236 16.49 22.18C16.21 22.05 15.94 21.9 15.67 21.75L14.29 23.13L13.51 23.91L10.79 21.19L11.48 20.49L12.84 19.13C12.5624 18.7413 12.3182 18.3298 12.11 17.9C12.03 17.74 11.95 17.58 11.88 17.41C11.7028 16.9519 11.5623 16.4804 11.46 16H8.34V12.9H11.28C11.3455 12.3338 11.4627 11.7748 11.63 11.23L11.72 11C11.9126 10.4352 12.164 9.89225 12.47 9.38L11.09 8L10.81 7.72L13.53 5L13.72 5.2L15.08 6.55C15.5324 6.2363 16.0108 5.96196 16.51 5.73L16.81 5.6C17.5 5.3 18.34 5 18.34 5V1.9H22.19V5C22.4655 5.13208 22.7494 5.24566 23.04 5.34C23.3797 5.44923 23.7135 5.57606 24.04 5.72C24.33 5.85 24.6 6 24.87 6.15L26.25 4.77L27 4L29.72 6.73L29.02 7.42L27.67 8.77C28.0523 9.30454 28.3711 9.88175 28.62 10.49C28.69 10.66 28.75 10.83 28.81 11C29.0234 11.616 29.1709 12.2529 29.25 12.9H32.19V14.9Z" fill="#E8A15B"/>
<path d="M17 51.95H5.90001C5.37534 51.95 4.95001 52.3753 4.95001 52.9C4.95001 53.4246 5.37534 53.8499 5.90001 53.8499H17C17.5247 53.8499 17.95 53.4246 17.95 52.9C17.95 52.3753 17.5247 51.95 17 51.95Z" fill="#637EA8"/>
<path d="M27 47.95H5.90001C5.37534 47.95 4.95001 48.3753 4.95001 48.9C4.95001 49.4246 5.37534 49.8499 5.90001 49.8499H27C27.5247 49.8499 27.95 49.4246 27.95 48.9C27.95 48.3753 27.5247 47.95 27 47.95Z" fill="#637EA8"/>
<path d="M25.43 32.95H7.47001C6.63054 32.95 5.95001 33.6305 5.95001 34.47V42.43C5.95001 43.2694 6.63054 43.95 7.47001 43.95H25.43C26.2695 43.95 26.95 43.2694 26.95 42.43V34.47C26.95 33.6305 26.2695 32.95 25.43 32.95Z" stroke="#637EA8" stroke-width="1.9" stroke-miterlimit="10"/>
</g>
<defs>
<clipPath id="clip0_1321_11118">
<rect width="66.9" height="59.9" fill="white"/>
</clipPath>
</defs>
</svg>
