<svg width="67" height="67" viewBox="0 0 67 67" fill="none" xmlns="http://www.w3.org/2000/svg">
<g clip-path="url(#clip0_1321_11095)">
<path d="M63.31 39L47.22 21.76L42.11 27.76C41.8998 28.0056 41.6412 28.2051 41.3505 28.3462C41.0597 28.4873 40.7429 28.5669 40.42 28.58C40.0991 28.5893 39.7797 28.5339 39.4808 28.4171C39.1818 28.3003 38.9095 28.1244 38.68 27.9L28 17.22L14 32.22L12.43 30.75L26.32 15.75C26.5206 15.533 26.7632 15.3591 27.0331 15.2388C27.3029 15.1184 27.5945 15.0542 27.89 15.05C28.1863 15.0412 28.4813 15.0935 28.7565 15.2036C29.0318 15.3137 29.2815 15.4793 29.49 15.69L40.16 26.34C40.1769 26.3598 40.1988 26.3748 40.2233 26.3836C40.2479 26.3924 40.2743 26.3946 40.3 26.39C40.3263 26.3909 40.3524 26.3859 40.3766 26.3756C40.4008 26.3652 40.4224 26.3497 40.44 26.33L45.65 20.25C45.8333 20.0356 46.06 19.8623 46.3151 19.7417C46.5701 19.621 46.8479 19.5557 47.13 19.55C47.4143 19.5425 47.6969 19.5957 47.959 19.7061C48.2211 19.8164 48.4567 19.9814 48.65 20.19L64.88 37.5L63.31 39Z" fill="#637EA8"/>
<path d="M41.44 14.33C41.0143 14.33 40.5982 14.2037 40.2445 13.967C39.8907 13.7303 39.6151 13.3939 39.4527 13.0005C39.2903 12.607 39.2483 12.1742 39.332 11.7569C39.4158 11.3396 39.6216 10.9565 39.9233 10.6562C40.2249 10.3559 40.609 10.152 41.0267 10.0701C41.4444 9.9883 41.877 10.0323 42.2697 10.1966C42.6624 10.3608 42.9975 10.638 43.2325 10.9928C43.4675 11.3477 43.592 11.7644 43.59 12.19C43.59 12.4719 43.5343 12.751 43.4261 13.0113C43.318 13.2716 43.1594 13.5079 42.9596 13.7068C42.7599 13.9056 42.5228 14.0631 42.262 14.17C42.0012 14.277 41.7218 14.3313 41.44 14.33Z" fill="#E8A15B"/>
<path d="M59.39 0.999972H17.95C16.4257 1.01316 14.9683 1.62794 13.8952 2.71047C12.822 3.79301 12.2199 5.25564 12.22 6.77997V37.78C13.0769 37.094 13.8049 36.261 14.37 35.32V6.77997C14.3726 5.81805 14.7559 4.89628 15.4361 4.21609C16.1163 3.5359 17.038 3.15261 18 3.14997H59.39C60.3519 3.15261 61.2737 3.5359 61.9539 4.21609C62.634 4.89628 63.0173 5.81805 63.02 6.77997V48.22C63.0173 49.1819 62.634 50.1037 61.9539 50.7839C61.2737 51.464 60.3519 51.8473 59.39 51.85H40.07C40.0224 52.2545 39.8786 52.6417 39.6507 52.9792C39.4228 53.3167 39.1174 53.5947 38.76 53.79C38.81 53.85 38.85 53.93 38.9 54H59.39C60.1532 54.0066 60.9102 53.8619 61.6172 53.5744C62.3243 53.2869 62.9674 52.8622 63.5094 52.3248C64.0514 51.7874 64.4817 51.148 64.7753 50.4435C65.0689 49.739 65.22 48.9832 65.22 48.22V6.77997C65.22 6.01671 65.0689 5.26099 64.7753 4.55645C64.4817 3.85191 64.0514 3.2125 63.5094 2.67512C62.9674 2.13773 62.3243 1.71303 61.6172 1.42551C60.9102 1.138 60.1532 0.993369 59.39 0.999972Z" fill="#3F496A"/>
<path d="M38.07 51.85C38.0802 51.7336 38.0802 51.6164 38.07 51.5C38.1079 50.954 38.0334 50.4061 37.8511 49.8901C37.6688 49.374 37.3825 48.9009 37.01 48.5C36.8755 48.3658 36.7281 48.2452 36.57 48.14C37.2468 47.4114 37.6065 46.4438 37.57 45.45C37.5922 44.923 37.5056 44.3971 37.3156 43.9051C37.1256 43.4131 36.8363 42.9655 36.4657 42.5902C36.0951 42.2149 35.6511 41.9199 35.1615 41.7238C34.6719 41.5276 34.1472 41.4344 33.62 41.45H23.99C25.52 36.63 25.51 33.06 23.94 30.82C23.3887 30.073 22.6679 29.4677 21.8368 29.0539C21.0058 28.6401 20.0883 28.4297 19.16 28.44C18.8071 28.4277 18.4611 28.5403 18.1831 28.758C17.9051 28.9757 17.7127 29.2845 17.64 29.63C17.0182 32.6673 15.8962 35.5803 14.32 38.25C13.7796 39.2227 13.0682 40.0899 12.22 40.81C11.8413 41.1141 11.4112 41.3478 10.95 41.5H4.15997C3.90568 41.4987 3.65363 41.5476 3.41832 41.644C3.183 41.7404 2.96906 41.8824 2.78878 42.0617C2.60851 42.2411 2.46545 42.4543 2.36783 42.6891C2.27021 42.9239 2.21996 43.1757 2.21997 43.43V61C2.21193 61.2598 2.25617 61.5185 2.35006 61.7608C2.44395 62.0032 2.58557 62.2242 2.76652 62.4107C2.94748 62.5973 3.16407 62.7456 3.40344 62.8468C3.64281 62.948 3.90008 63.0001 4.15997 63H11.02V62.87L14.96 65.23C15.2606 65.4139 15.6077 65.5076 15.96 65.5H31.67C32.1972 65.5156 32.7219 65.4224 33.2115 65.2262C33.7011 65.03 34.1451 64.7351 34.5157 64.3598C34.8863 63.9845 35.1756 63.5369 35.3656 63.0449C35.5556 62.5529 35.6422 62.027 35.62 61.5C35.6566 60.7263 35.52 59.9541 35.22 59.24C35.8737 59.128 36.469 58.7946 36.906 58.2957C37.343 57.7968 37.5951 57.1628 37.62 56.5C37.6263 55.9907 37.5486 55.4839 37.39 55C37.3364 54.8205 37.266 54.6464 37.18 54.48C37.1024 54.3113 37.0086 54.1506 36.9 54C36.9 53.93 36.81 53.85 36.76 53.79C37.1174 53.5947 37.4228 53.3167 37.6507 52.9792C37.8786 52.6417 38.0224 52.2545 38.07 51.85ZM9.71997 61H4.11997V43.39H9.71997V61ZM36.11 51.81C35.7 52.46 34.19 52.51 34.17 52.51H30.22V54.41H33.81C34.3237 54.3979 34.8245 54.5719 35.22 54.9C35.5857 55.349 35.7616 55.9232 35.71 56.5C35.71 57.5 33.71 57.5 33.66 57.5H33H32.84H29.67V59.4H32.88C33.12 59.47 33.72 59.81 33.72 61.4C33.7303 61.6697 33.6839 61.9386 33.5839 62.1892C33.4838 62.4399 33.3323 62.6668 33.1391 62.8553C32.946 63.0438 32.7154 63.1896 32.4623 63.2834C32.2093 63.3773 31.9393 63.417 31.67 63.4H15.94L11.62 61V43.26C11.826 43.188 12.0266 43.1011 12.22 43C13.0256 42.598 13.7536 42.0563 14.37 41.4C16.05 39.66 17.99 36.4 19.47 30.4C20.0545 30.4156 20.6279 30.5631 21.1474 30.8315C21.6669 31.0999 22.119 31.4823 22.47 31.95C23.36 33.24 24 35.95 21.95 41.87C21.8894 42.0429 21.8711 42.2278 21.8965 42.4093C21.9218 42.5907 21.9902 42.7635 22.0959 42.9132C22.2015 43.0629 22.3414 43.1852 22.5039 43.2698C22.6664 43.3545 22.8467 43.3991 23.03 43.4H33.66C34.2037 43.4 34.7251 43.616 35.1095 44.0004C35.494 44.3849 35.71 44.9063 35.71 45.45C35.71 45.9937 35.494 46.5151 35.1095 46.8996C34.7251 47.284 34.2037 47.5 33.66 47.5H30.66V49.4H33.66C33.8298 49.4095 34.0001 49.4095 34.17 49.4C34.725 49.3482 35.279 49.509 35.72 49.85C35.9091 50.0778 36.0508 50.3411 36.1367 50.6245C36.2226 50.9078 36.2509 51.2055 36.22 51.5C36.2221 51.6255 36.1835 51.7483 36.11 51.85V51.81Z" fill="#E8A15B"/>
</g>
<defs>
<clipPath id="clip0_1321_11095">
<rect width="62.95" height="64.45" fill="white" transform="translate(2.21997 1)"/>
</clipPath>
</defs>
</svg>
