<svg width="67" height="67" viewBox="0 0 67 67" fill="none" xmlns="http://www.w3.org/2000/svg">
<g clip-path="url(#clip0_1321_11104)">
<path d="M1.07 19.4099H65.7" stroke="#637EA8" stroke-width="1.9" stroke-miterlimit="10"/>
<path d="M62.58 10.95H4.32C2.4588 10.95 0.949997 12.4588 0.949997 14.32V52.58C0.949997 54.4412 2.4588 55.95 4.32 55.95H62.58C64.4412 55.95 65.95 54.4412 65.95 52.58V14.32C65.95 12.4588 64.4412 10.95 62.58 10.95Z" stroke="#3F496A" stroke-width="1.9" stroke-miterlimit="10"/>
<path d="M55.08 28.95H11.82C9.9588 28.95 8.45 30.4588 8.45 32.32V40.58C8.45 42.4411 9.9588 43.95 11.82 43.95H55.08C56.9412 43.95 58.45 42.4411 58.45 40.58V32.32C58.45 30.4588 56.9412 28.95 55.08 28.95Z" stroke="#637EA8" stroke-width="1.9" stroke-miterlimit="10"/>
<path d="M6.65 16.35C7.17467 16.35 7.6 15.9246 7.6 15.4C7.6 14.8753 7.17467 14.45 6.65 14.45C6.12533 14.45 5.7 14.8753 5.7 15.4C5.7 15.9246 6.12533 16.35 6.65 16.35Z" stroke="#E8A15B" stroke-width="1.9" stroke-miterlimit="10"/>
<path d="M11.65 16.35C12.1747 16.35 12.6 15.9246 12.6 15.4C12.6 14.8753 12.1747 14.45 11.65 14.45C11.1253 14.45 10.7 14.8753 10.7 15.4C10.7 15.9246 11.1253 16.35 11.65 16.35Z" stroke="#E8A15B" stroke-width="1.9" stroke-miterlimit="10"/>
<path d="M16.65 16.35C17.1747 16.35 17.6 15.9246 17.6 15.4C17.6 14.8753 17.1747 14.45 16.65 14.45C16.1253 14.45 15.7 14.8753 15.7 15.4C15.7 15.9246 16.1253 16.35 16.65 16.35Z" stroke="#E8A15B" stroke-width="1.9" stroke-miterlimit="10"/>
<path d="M22.34 40.0599C22.1568 39.8738 22.0437 39.63 22.02 39.3699C22.02 39.1699 22.2 38.8999 22.54 38.5599C22.7066 38.3824 22.9367 38.2781 23.18 38.2699C23.4 38.2699 23.71 38.4699 24.11 38.8699C24.2436 39.0294 24.4066 39.1617 24.59 39.2599C24.7615 39.3767 24.9626 39.4426 25.17 39.4499C25.91 39.4499 26.28 39.1499 26.28 38.5399C26.2768 38.4432 26.2471 38.3491 26.1942 38.268C26.1413 38.1869 26.0672 38.1219 25.98 38.0799C25.7468 37.941 25.4886 37.8492 25.22 37.8099C24.8808 37.7434 24.5466 37.6531 24.22 37.5399C23.8753 37.4205 23.5409 37.2733 23.22 37.0999C22.8966 36.9098 22.6333 36.6326 22.46 36.2999C22.2542 35.8987 22.1577 35.4503 22.18 34.9999C22.18 34.6499 22.2529 34.3038 22.3941 33.9836C22.5353 33.6633 22.7416 33.376 23 33.1399C23.2853 32.8717 23.622 32.6643 23.9899 32.5302C24.3578 32.3961 24.749 32.3382 25.14 32.3599C25.5832 32.3545 26.0247 32.4152 26.45 32.5399C26.744 32.6161 27.0218 32.7449 27.27 32.9199L27.58 33.1499C27.77 33.2959 27.9013 33.5053 27.95 33.7399C27.9149 33.9821 27.8147 34.2103 27.66 34.3999C27.3933 34.7999 27.1133 34.9999 26.82 34.9999C26.592 34.9791 26.374 34.8961 26.19 34.7599L26 34.6399C25.8948 34.528 25.7651 34.4417 25.6212 34.388C25.4773 34.3342 25.3229 34.3144 25.17 34.3299C24.9399 34.3211 24.7127 34.384 24.52 34.5099C24.4374 34.5687 24.3706 34.6469 24.3253 34.7376C24.2799 34.8282 24.2575 34.9286 24.26 35.0299C24.2591 35.138 24.2875 35.2443 24.3421 35.3376C24.3966 35.4309 24.4754 35.5077 24.57 35.5599C24.7995 35.7082 25.0591 35.8039 25.33 35.8399C25.667 35.8956 26.0008 35.9691 26.33 36.0599C26.6745 36.1506 27.0094 36.2745 27.33 36.4299C27.659 36.5894 27.9262 36.853 28.09 37.1799C28.3102 37.5804 28.4174 38.0332 28.4 38.4899C28.4121 38.9653 28.3056 39.4361 28.09 39.8599C27.9054 40.2355 27.6219 40.5536 27.27 40.7799C26.6598 41.1962 25.9386 41.4192 25.2 41.4199C24.8387 41.421 24.4789 41.3739 24.13 41.2799C23.8413 41.2079 23.5649 41.0933 23.31 40.9399C22.9682 40.749 22.6661 40.4944 22.42 40.1899L22.34 40.0599Z" fill="#E8A15B"/>
<path d="M31.32 39.17H35H35.41C35.5241 39.1864 35.6332 39.2274 35.73 39.29C35.95 39.4033 36.06 39.7133 36.06 40.22C36.06 40.7266 35.91 41.06 35.61 41.22C35.4076 41.2721 35.1989 41.2957 34.99 41.29H30.26C29.7 41.29 29.37 41.14 29.26 40.83C29.2027 40.632 29.179 40.4258 29.19 40.22V33.56C29.1578 33.261 29.2399 32.9608 29.42 32.72C29.6716 32.5472 29.9763 32.4692 30.28 32.5H35H35.41C35.5224 32.517 35.6309 32.5542 35.73 32.61C35.95 32.73 36.06 33.04 36.06 33.55C36.06 34.06 35.91 34.44 35.61 34.55C35.4094 34.6116 35.1997 34.6387 34.99 34.63H31.32V35.84H33.7C33.8364 35.8275 33.9736 35.8275 34.11 35.84C34.2224 35.857 34.3309 35.8942 34.43 35.95C34.65 36.06 34.76 36.37 34.76 36.89C34.76 37.41 34.6 37.77 34.3 37.89C34.0983 37.9456 33.889 37.9692 33.68 37.96H31.32V39.17Z" fill="#E8A15B"/>
<path d="M41 32.3899C42.1758 32.4005 43.2995 32.877 44.1243 33.715C44.9492 34.553 45.408 35.684 45.4 36.8599C45.4248 38.0621 44.9758 39.2259 44.15 40.0999C43.7656 40.5319 43.292 40.8754 42.762 41.1067C42.232 41.3381 41.6582 41.4517 41.08 41.4399C40.5033 41.4442 39.932 41.3292 39.4019 41.102C38.8719 40.8749 38.3946 40.5405 38 40.1199C37.5834 39.7139 37.252 39.2288 37.0254 38.693C36.7987 38.1572 36.6813 37.5816 36.68 36.9999C36.6593 36.3548 36.7681 35.7122 37 35.1099C37.2102 34.5764 37.5258 34.0907 37.9278 33.6818C38.3299 33.2729 38.8101 32.9491 39.34 32.7299C39.8634 32.5014 40.4289 32.3855 41 32.3899ZM38.8 36.9199C38.7874 37.2405 38.8423 37.5602 38.9612 37.8582C39.08 38.1562 39.2602 38.426 39.49 38.6499C39.6882 38.8596 39.9269 39.0271 40.1915 39.1423C40.4562 39.2574 40.7414 39.3178 41.03 39.3199C41.6089 39.3143 42.1622 39.0807 42.57 38.6699C43.0093 38.1949 43.2532 37.5718 43.2532 36.9249C43.2532 36.278 43.0093 35.6548 42.57 35.1799C42.3711 34.9718 42.1321 34.8061 41.8674 34.6929C41.6028 34.5797 41.3179 34.5214 41.03 34.5214C40.7421 34.5214 40.4572 34.5797 40.1926 34.6929C39.9279 34.8061 39.6889 34.9718 39.49 35.1799C39.2624 35.4075 39.0838 35.6793 38.9651 35.9786C38.8465 36.2778 38.7903 36.5981 38.8 36.9199Z" fill="#E8A15B"/>
</g>
<defs>
<clipPath id="clip0_1321_11104">
<rect width="66.9" height="46.9" fill="white" transform="translate(0 10)"/>
</clipPath>
</defs>
</svg>
