<svg width="58" height="62" viewBox="0 0 58 62" fill="none" xmlns="http://www.w3.org/2000/svg">
<g clip-path="url(#clip0_1321_10906)">
<path d="M52.76 0.949997H6.07997C3.78247 0.949997 1.91997 2.81249 1.91997 5.11V56.79C1.91997 59.0875 3.78247 60.95 6.07997 60.95H52.76C55.0575 60.95 56.92 59.0875 56.92 56.79V5.11C56.92 2.81249 55.0575 0.949997 52.76 0.949997Z" stroke="#3F496A" stroke-width="1.9" stroke-miterlimit="10"/>
<path d="M51.84 20.95H31.74C31.2153 20.95 30.79 21.3753 30.79 21.9C30.79 22.4247 31.2153 22.85 31.74 22.85H51.84C52.3646 22.85 52.79 22.4247 52.79 21.9C52.79 21.3753 52.3646 20.95 51.84 20.95Z" fill="#637EA8"/>
<path d="M51.84 25.95H31.74C31.2153 25.95 30.79 26.3753 30.79 26.9C30.79 27.4247 31.2153 27.85 31.74 27.85H51.84C52.3646 27.85 52.79 27.4247 52.79 26.9C52.79 26.3753 52.3646 25.95 51.84 25.95Z" fill="#637EA8"/>
<path d="M51.84 30.95H31.74C31.2153 30.95 30.79 31.3753 30.79 31.9C30.79 32.4247 31.2153 32.85 31.74 32.85H51.84C52.3646 32.85 52.79 32.4247 52.79 31.9C52.79 31.3753 52.3646 30.95 51.84 30.95Z" fill="#637EA8"/>
<path d="M26.84 39.95H6.73997C6.2153 39.95 5.78997 40.3753 5.78997 40.9C5.78997 41.4247 6.2153 41.85 6.73997 41.85H26.84C27.3646 41.85 27.79 41.4247 27.79 40.9C27.79 40.3753 27.3646 39.95 26.84 39.95Z" fill="#637EA8"/>
<path d="M26.84 44.95H6.73997C6.2153 44.95 5.78997 45.3753 5.78997 45.9C5.78997 46.4247 6.2153 46.85 6.73997 46.85H26.84C27.3646 46.85 27.79 46.4247 27.79 45.9C27.79 45.3753 27.3646 44.95 26.84 44.95Z" fill="#637EA8"/>
<path d="M26.84 49.95H6.73997C6.2153 49.95 5.78997 50.3753 5.78997 50.9C5.78997 51.4247 6.2153 51.85 6.73997 51.85H26.84C27.3646 51.85 27.79 51.4247 27.79 50.9C27.79 50.3753 27.3646 49.95 26.84 49.95Z" fill="#637EA8"/>
<path d="M50.16 5.95H8.41997C7.51975 5.95 6.78997 6.67977 6.78997 7.58V14.32C6.78997 15.2202 7.51975 15.95 8.41997 15.95H50.16C51.0602 15.95 51.79 15.2202 51.79 14.32V7.58C51.79 6.67977 51.0602 5.95 50.16 5.95Z" stroke="#637EA8" stroke-width="1.9" stroke-miterlimit="10"/>
<path d="M25.16 21.95H8.41997C7.51975 21.95 6.78997 22.6798 6.78997 23.58V30.32C6.78997 31.2202 7.51975 31.95 8.41997 31.95H25.16C26.0602 31.95 26.79 31.2202 26.79 30.32V23.58C26.79 22.6798 26.0602 21.95 25.16 21.95Z" stroke="#E8A15B" stroke-width="1.9" stroke-miterlimit="10"/>
<path d="M6.78997 31L10.59 26.37C10.678 26.2584 10.7888 26.1668 10.915 26.1014C11.0412 26.036 11.1799 25.9983 11.3219 25.9907C11.4638 25.9831 11.6058 26.0059 11.7382 26.0575C11.8706 26.1091 11.9906 26.1884 12.09 26.29L14.63 27.89C14.6817 27.9198 14.7403 27.9355 14.8 27.9355C14.8597 27.9355 14.9183 27.9198 14.97 27.89L20.55 24.89C20.7724 24.758 21.0263 24.6883 21.285 24.6883C21.5436 24.6883 21.7975 24.758 22.02 24.89L26.79 27.89" stroke="#E8A15B" stroke-width="1.9" stroke-miterlimit="10"/>
<path d="M50.16 40.95H33.42C32.5197 40.95 31.79 41.6798 31.79 42.58V49.32C31.79 50.2202 32.5197 50.95 33.42 50.95H50.16C51.0602 50.95 51.79 50.2202 51.79 49.32V42.58C51.79 41.6798 51.0602 40.95 50.16 40.95Z" stroke="#E8A15B" stroke-width="1.9" stroke-miterlimit="10"/>
<path d="M31.79 50L35.59 45.37C35.678 45.2584 35.7888 45.1668 35.915 45.1014C36.0412 45.036 36.1799 44.9983 36.3219 44.9907C36.4638 44.9831 36.6057 45.0059 36.7382 45.0575C36.8706 45.1091 36.9906 45.1884 37.09 45.29L39.63 46.89C39.6817 46.9198 39.7403 46.9356 39.8 46.9356C39.8597 46.9356 39.9183 46.9198 39.97 46.89L45.55 43.89C45.7724 43.758 46.0263 43.6883 46.285 43.6883C46.5436 43.6883 46.7975 43.758 47.02 43.89L51.79 46.89" stroke="#E8A15B" stroke-width="1.9" stroke-miterlimit="10"/>
</g>
<defs>
<clipPath id="clip0_1321_10906">
<rect width="56.9" height="61.9" fill="white" transform="translate(0.969971)"/>
</clipPath>
</defs>
</svg>
