<svg width="67" height="67" viewBox="0 0 67 67" fill="none" xmlns="http://www.w3.org/2000/svg">
<g clip-path="url(#clip0_1321_11081)">
<path d="M50.4649 45.8182L44.7513 51.5598C44.3813 51.9317 44.3827 52.5332 44.7546 52.9033C45.1265 53.2734 45.728 53.2719 46.0981 52.9L51.8117 47.1584C52.1818 46.7865 52.1803 46.185 51.8084 45.8149C51.4365 45.4448 50.835 45.4463 50.4649 45.8182Z" fill="#3F496A"/>
<path d="M41.1552 49.2818L44.7702 52.8792C45.1421 53.2493 45.7436 53.2478 46.1137 52.8759C46.4838 52.504 46.4823 51.9025 46.1104 51.5324L42.4954 47.935C42.1235 47.5649 41.522 47.5664 41.1519 47.9383C40.7818 48.3102 40.7833 48.9117 41.1552 49.2818Z" fill="#3F496A"/>
<path d="M50.73 37.85C49.0043 37.1774 47.1464 36.9133 45.3016 37.0785C43.4568 37.2436 41.6753 37.8336 40.0966 38.8021C38.5179 39.7707 37.1848 41.0915 36.2017 42.6612C35.2186 44.2309 34.6122 46.0069 34.43 47.85C34.43 48.21 34.38 48.58 34.38 48.95C34.3647 51.1377 34.9478 53.2878 36.0661 55.1681C37.1844 57.0483 38.7955 58.587 40.7251 59.6179C42.6546 60.6488 44.8293 61.1326 47.0139 61.017C49.1985 60.9013 51.31 60.1907 53.1199 58.9619C54.9299 57.7331 56.3695 56.0329 57.2832 54.0452C58.1968 52.0574 58.5496 49.8577 58.3035 47.6839C58.0575 45.5101 57.2218 43.4449 55.887 41.7117C54.5521 39.9785 52.7689 38.6431 50.73 37.85ZM46.33 59C44.3543 58.9902 42.4259 58.3953 40.788 57.2905C39.1501 56.1857 37.8761 54.6205 37.1269 52.7924C36.3777 50.9642 36.1868 48.9552 36.5783 47.0187C36.9698 45.0822 37.9261 43.305 39.3266 41.9115C40.7271 40.518 42.509 39.5705 44.4474 39.1887C46.3858 38.8069 48.3939 39.0078 50.2183 39.7661C52.0426 40.5244 53.6015 41.8062 54.6981 43.4496C55.7947 45.093 56.38 47.0244 56.38 49C56.3642 51.656 55.2986 54.1979 53.4159 56.0713C51.5332 57.9446 48.986 58.9974 46.33 59Z" fill="#E8A15B"/>
<path d="M63.09 45.54C62.6395 45.0454 62.2714 44.4815 62 43.87C61.8544 43.1763 61.824 42.4635 61.91 41.76C62.1273 40.5038 61.9048 39.2112 61.28 38.1C61.1769 37.9584 61.0596 37.8277 60.93 37.71C60.6355 37.4308 60.2978 37.2012 59.93 37.03C59.6387 36.8893 59.3379 36.769 59.03 36.67C58.7 36.56 58.36 36.47 58.03 36.38C57.3248 36.2591 56.6472 36.0118 56.03 35.65C55.5048 35.1765 55.062 34.6189 54.72 34C54.1444 32.8425 53.1822 31.9228 52 31.4C50.7651 31.1527 49.4826 31.3399 48.37 31.93C47.7165 32.2339 47.0169 32.4266 46.3 32.5C45.5798 32.4268 44.8769 32.2341 44.22 31.93C43.1073 31.3399 41.8249 31.1527 40.59 31.4C39.4302 31.9342 38.4905 32.8527 37.93 34L37.54 34.59C37.2997 34.9665 37.0029 35.3038 36.66 35.59C36.472 35.7151 36.2708 35.819 36.06 35.9C35.6152 36.0663 35.1611 36.2065 34.7 36.32L34.17 36.47C33.2117 36.6643 32.3277 37.1253 31.62 37.8C31.5414 37.8786 31.4679 37.9621 31.4 38.05C30.7751 39.1612 30.5526 40.4538 30.77 41.71C30.8559 42.4135 30.8255 43.1263 30.68 43.82C30.6782 43.8466 30.6782 43.8733 30.68 43.9C30.396 44.4778 30.0325 45.0131 29.6 45.49L29.34 45.8L29.26 45.9C28.7732 46.4628 28.3875 47.1056 28.12 47.8C27.9874 48.1516 27.9197 48.5242 27.92 48.9C28.0661 50.1975 28.6602 51.4035 29.6 52.31C30.0505 52.8101 30.4154 53.3811 30.68 54C30.8257 54.6902 30.8561 55.3998 30.77 56.1C30.5526 57.3561 30.7751 58.6488 31.4 59.76C31.8114 60.3104 32.3643 60.7389 33 61C33.5424 61.2187 34.1007 61.3959 34.67 61.53C35.3731 61.6587 36.0493 61.9055 36.67 62.26C36.9025 62.4435 37.1079 62.659 37.28 62.9C37.5 63.19 37.72 63.52 37.94 63.9C38.5024 65.0636 39.454 65.9939 40.63 66.53C41.8617 66.7749 43.1402 66.5877 44.25 66C44.9069 65.6958 45.6098 65.5032 46.33 65.43C47.0469 65.5034 47.7465 65.696 48.4 66C49.2417 66.3857 50.1463 66.6161 51.07 66.68C51.4092 66.6833 51.7467 66.6327 52.07 66.53C53.246 65.9939 54.1975 65.0636 54.76 63.9C54.99 63.55 55.2 63.22 55.42 62.9C55.5921 62.659 55.7975 62.4435 56.03 62.26C56.6507 61.9055 57.3269 61.6587 58.03 61.53C58.6589 61.3815 59.2744 61.1808 59.87 60.93C60.4468 60.687 60.9501 60.2975 61.33 59.8C61.9548 58.6888 62.1773 57.3961 61.96 56.14C61.8529 55.4295 61.8664 54.706 62 54C62.2777 53.3818 62.6562 52.8141 63.12 52.32C64.0334 51.4333 64.6186 50.2627 64.78 49C64.6417 47.6836 64.0432 46.4583 63.09 45.54ZM61.62 51.16C61.38 51.46 61.13 51.77 60.9 52.09C60.5855 52.5013 60.339 52.9605 60.17 53.45C59.9363 54.3639 59.8719 55.3129 59.98 56.25C60.1367 57.0678 60.0462 57.9138 59.72 58.68C59.4118 59.0168 59.0122 59.2566 58.57 59.37C58.22 59.49 57.85 59.59 57.46 59.69C56.5465 59.8642 55.6723 60.203 54.88 60.69C54.76 60.78 54.66 60.88 54.56 60.97C54.0044 61.5239 53.5206 62.1454 53.12 62.82C52.59 63.64 52.12 64.41 51.47 64.61C50.6556 64.6799 49.8386 64.5096 49.12 64.12C48.2515 63.7171 47.3155 63.4797 46.36 63.42C45.4011 63.4785 44.4616 63.7159 43.59 64.12C42.8718 64.5107 42.0545 64.6811 41.24 64.61C40.62 64.41 40.12 63.61 39.59 62.82C39.1687 62.1525 38.6647 61.541 38.09 61C37.99 60.91 37.89 60.81 37.77 60.72C36.9777 60.233 36.1035 59.8942 35.19 59.72C34.3542 59.6179 33.5676 59.2698 32.93 58.72C32.6038 57.9538 32.5133 57.1078 32.67 56.29C32.778 55.3529 32.7136 54.4039 32.48 53.49C32.1411 52.6254 31.6386 51.8342 31 51.16C30.3871 50.5777 29.9622 49.8255 29.78 49C29.809 48.6034 29.9475 48.2226 30.18 47.9C30.428 47.4961 30.7019 47.1086 31 46.74C31.21 46.48 31.42 46.22 31.62 45.95C31.6399 45.9144 31.6634 45.8809 31.69 45.85C32.0144 45.4256 32.2708 44.9532 32.45 44.45C32.5052 44.2874 32.5454 44.12 32.57 43.95C32.6833 43.1921 32.7068 42.4234 32.64 41.66C32.48 40.8381 32.5741 39.987 32.91 39.22C33.5439 38.6704 34.3273 38.3222 35.16 38.22C35.56 38.11 35.97 38 36.37 37.86C36.8575 37.7062 37.3193 37.4803 37.74 37.19C37.9968 36.9964 38.2316 36.775 38.44 36.53C38.6009 36.3489 38.7511 36.1585 38.89 35.96C39.1 35.67 39.3 35.37 39.5 35.06C39.59 34.91 39.69 34.77 39.78 34.63C40.0852 34.0233 40.5755 33.5295 41.18 33.22C41.9944 33.15 42.8114 33.3204 43.53 33.71C44.4016 34.1141 45.3411 34.3515 46.3 34.41C47.2555 34.3503 48.1915 34.1129 49.06 33.71C49.7786 33.3204 50.5956 33.15 51.41 33.22C52.04 33.42 52.55 34.22 53.09 35.06C53.5414 35.8717 54.1379 36.5936 54.85 37.19C55.6422 37.677 56.5165 38.0158 57.43 38.19C57.9565 38.313 58.4716 38.4803 58.97 38.69C59.2467 38.8011 59.4933 38.9758 59.69 39.2C60.0379 39.9703 60.1459 40.8275 60 41.66C59.8923 42.5938 59.9567 43.5394 60.19 44.45C60.359 44.9395 60.6055 45.3986 60.92 45.81C61.15 46.13 61.4 46.44 61.64 46.74C62.2768 47.3472 62.71 48.1367 62.88 49C62.6855 49.8298 62.2466 50.5822 61.62 51.16Z" fill="#637EA8"/>
<path d="M54.79 1H8.11C6.75474 1 5.455 1.53837 4.49668 2.49668C3.53837 3.455 3 4.75474 3 6.11L3 57.79C3 59.1453 3.53837 60.445 4.49668 61.4033C5.455 62.3616 6.75474 62.9 8.11 62.9H31.78L29.88 61H8.11C7.25866 61 6.44218 60.6618 5.84019 60.0598C5.2382 59.4578 4.9 58.6413 4.9 57.79V6.11C4.9 5.25866 5.2382 4.44218 5.84019 3.84019C6.44218 3.2382 7.25866 2.9 8.11 2.9H54.79C55.6413 2.9 56.4578 3.2382 57.0598 3.84019C57.6618 4.44218 58 5.25866 58 6.11V33.38C58.33 33.47 58.67 33.56 59 33.67C59.308 33.7691 59.6087 33.8893 59.9 34.03V6.11C59.9 4.75474 59.3616 3.455 58.4033 2.49668C57.445 1.53837 56.1453 1 54.79 1V1Z" fill="#3F496A"/>
<path d="M13.9 17.85H47C47.1519 17.9124 47.3168 17.9365 47.4802 17.92C47.6436 17.9036 47.8004 17.8471 47.9368 17.7557C48.0732 17.6643 48.1849 17.5407 48.2622 17.3958C48.3395 17.2509 48.38 17.0893 48.38 16.925C48.38 16.7608 48.3395 16.5992 48.2622 16.4543C48.1849 16.3094 48.0732 16.1858 47.9368 16.0944C47.8004 16.003 47.6436 15.9465 47.4802 15.9301C47.3168 15.9136 47.1519 15.9377 47 16H13.9C13.6999 16.0658 13.5257 16.1931 13.4022 16.3636C13.2787 16.5342 13.2122 16.7395 13.2122 16.95C13.2122 17.1606 13.2787 17.3659 13.4022 17.5365C13.5257 17.707 13.6999 17.8343 13.9 17.9V17.85Z" fill="#E8A15B"/>
<path d="M13.9 27.18H47C47.252 27.18 47.4936 27.0799 47.6718 26.9018C47.8499 26.7236 47.95 26.482 47.95 26.23C47.95 25.9781 47.8499 25.7364 47.6718 25.5583C47.4936 25.3801 47.252 25.28 47 25.28H13.9C13.6999 25.3458 13.5257 25.473 13.4022 25.6436C13.2787 25.8142 13.2122 26.0194 13.2122 26.23C13.2122 26.4406 13.2787 26.6458 13.4022 26.8164C13.5257 26.987 13.6999 27.1143 13.9 27.18Z" fill="#E8A15B"/>
<path d="M13.9 34.62C13.6481 34.62 13.4064 34.7201 13.2283 34.8982C13.0501 35.0764 12.95 35.318 12.95 35.57C12.95 35.822 13.0501 36.0636 13.2283 36.2417C13.4064 36.4199 13.6481 36.52 13.9 36.52H31.17L31.47 36.43L33.74 34.62H13.9Z" fill="#E8A15B"/>
<path d="M13 44.9C13 45.1652 13.1054 45.4196 13.2929 45.6071C13.4804 45.7946 13.7348 45.9 14 45.9H25.2L27.58 44H13.9C13.6688 44.0222 13.4526 44.1241 13.2883 44.2883C13.1241 44.4526 13.0222 44.6688 13 44.9Z" fill="#E8A15B"/>
</g>
<defs>
<clipPath id="clip0_1321_11081">
<rect width="61.78" height="65.65" fill="white" transform="translate(3 1)"/>
</clipPath>
</defs>
</svg>
