<svg version="1.1" xmlns="http://www.w3.org/2000/svg" xmlns:xlink="http://www.w3.org/1999/xlink" x="0px" y="0px"
	 width="1567.74px" height="353.75px" viewBox="0 0 1567.74 353.75" enable-background="new 0 0 1567.74 353.75"
	 xml:space="preserve">
<g>
	<path fill="#586DA8" d="M428.59,32.134l-5.982,4.451c-3.339-4.173-7.234-7.512-11.824-9.598c-4.591-2.226-9.598-3.339-15.163-3.339
		c-5.982,0-11.546,1.391-16.693,4.312c-5.147,2.921-9.181,6.816-11.963,11.546c-2.782,5.008-4.173,10.433-4.173,16.554
		c0,9.181,3.06,16.832,9.459,22.953c6.26,6.121,14.189,9.32,23.787,9.32c10.572,0,19.475-4.173,26.569-12.52l5.982,4.591
		c-3.756,4.73-8.486,8.486-14.189,11.129c-5.564,2.504-11.824,3.895-18.779,3.895c-13.215,0-23.648-4.451-31.299-13.215
		c-6.399-7.373-9.598-16.415-9.598-26.848c0-11.129,3.895-20.31,11.685-27.821c7.79-7.651,17.388-11.407,29.073-11.407
		c7.094,0,13.493,1.391,19.058,4.173C420.243,23.092,424.973,26.987,428.59,32.134L428.59,32.134z M474.495,18.084L509.69,93.48
		h-8.068l-11.963-24.761h-32.412L445.422,93.48h-8.486l35.751-75.396H474.495z M473.522,34.081l-12.937,27.265h25.735
		L473.522,34.081z M521.235,18.084h7.651v31.577h38.255V18.084h7.651V93.48h-7.651V57.034h-38.255V93.48h-7.651V18.084z
		 M593.154,18.084h7.651v28.239l30.047-28.239h10.294l-36.307,33.803l39.089,41.593h-10.016l-33.108-35.194V93.48h-7.651V18.084z
		 M647.684,25.457v-7.373h41.315v7.373h-16.832V93.48h-7.651V25.457H647.684z M694.007,62.042h28.239v6.26h-28.239V62.042z
		 M734.626,18.084h53.556V93.48h-7.651V25.318h-38.255V93.48h-7.651V18.084z M806.545,18.084h43.262v7.373h-35.751v23.648h35.472
		v7.373h-35.472v29.63h35.472v7.373h-42.984V18.084z M855.371,25.457v-7.373h41.315v7.373h-16.832V93.48h-7.651V25.457H855.371z
		 M907.537,18.084h43.262v7.373h-35.751v23.648h35.472v7.373h-35.472v29.63h35.472v7.373h-42.984V18.084z M963.736,18.084h15.024
		c8.625,0,14.467,0.417,17.528,1.113c4.312,1.113,7.79,3.199,10.572,6.538c2.643,3.339,4.034,7.512,4.034,12.381
		c0,5.147-1.252,9.181-4.034,12.52c-2.643,3.199-6.26,5.425-10.989,6.538c-3.478,0.835-9.738,1.252-19.197,1.252h-5.425V93.48
		h-7.512V18.084z M971.248,25.457v25.596l12.798,0.139c5.147,0,8.903-0.417,11.407-1.391c2.365-0.974,4.173-2.504,5.564-4.591
		c1.391-2.087,2.087-4.451,2.087-7.094c0-2.504-0.695-4.73-2.087-6.955c-1.391-2.087-3.199-3.478-5.425-4.451
		c-2.226-0.835-5.843-1.252-10.99-1.252H971.248z M1025.917,93.48V18.084h37.837v7.373h-30.325v24.205h3.478
		c9.459,0,16.276,0.835,20.449,2.365c4.312,1.669,7.651,4.312,10.155,7.929c2.365,3.617,3.617,7.512,3.617,11.963
		c0,5.703-2.226,10.711-6.538,15.024c-4.312,4.451-10.294,6.538-17.945,6.538H1025.917z M1033.429,57.173v28.934h9.181
		c5.564,0,9.598-0.556,12.102-1.669c2.643-0.974,4.59-2.643,6.121-4.869c1.53-2.226,2.365-4.73,2.365-7.512
		c0-3.478-1.113-6.538-3.199-8.903c-2.226-2.504-4.869-4.034-8.068-4.869c-3.199-0.696-8.068-1.113-14.328-1.113H1033.429z
		 M1080.447,18.223h8.485l22.814,51.331l20.866-51.47h8.207l-28.517,67.745c-2.782,6.399-7.512,9.598-14.328,9.598
		c-2.643,0-5.286-0.556-7.651-1.669c-2.504-1.113-5.564-3.756-9.32-7.929l5.564-4.451c3.756,3.756,6.26,5.843,7.512,6.399
		c1.391,0.417,2.643,0.696,3.895,0.696c1.948,0,3.756-0.556,5.147-1.53c1.53-1.113,3.06-3.756,4.869-8.068L1080.447,18.223z
		 M1153.896,18.084h15.024c8.625,0,14.467,0.417,17.528,1.113c4.312,1.113,7.79,3.199,10.572,6.538
		c2.643,3.339,4.034,7.512,4.034,12.381c0,5.147-1.252,9.181-4.034,12.52c-2.643,3.199-6.26,5.425-10.99,6.538
		c-3.478,0.835-9.737,1.252-19.197,1.252h-5.425V93.48h-7.512V18.084z M1161.408,25.457v25.596l12.798,0.139
		c5.147,0,9.042-0.417,11.407-1.391c2.365-0.974,4.173-2.504,5.564-4.591c1.391-2.087,2.087-4.451,2.087-7.094
		c0-2.504-0.696-4.73-2.087-6.955c-1.391-2.087-3.2-3.478-5.425-4.451c-2.226-0.835-5.843-1.252-10.99-1.252H1161.408z
		 M1223.589,93.48h-7.512V18.084h37.698v7.373h-30.186V93.48z M1334.875,32.134l-5.982,4.451c-3.2-4.173-7.095-7.512-11.824-9.598
		c-4.59-2.226-9.598-3.339-15.023-3.339c-6.121,0-11.685,1.391-16.832,4.312c-5.147,2.921-9.042,6.816-11.824,11.546
		c-2.921,5.008-4.312,10.433-4.312,16.554c0,9.181,3.199,16.832,9.459,22.953c6.399,6.121,14.328,9.32,23.927,9.32
		c10.572,0,19.336-4.173,26.43-12.52l5.982,4.591c-3.756,4.73-8.485,8.486-14.05,11.129c-5.564,2.504-11.963,3.895-18.779,3.895
		c-13.215,0-23.648-4.451-31.299-13.215c-6.399-7.373-9.599-16.415-9.599-26.848c0-11.129,3.895-20.31,11.685-27.821
		c7.651-7.651,17.388-11.407,29.073-11.407c6.955,0,13.354,1.391,19.058,4.173C1326.667,23.092,1331.258,26.987,1334.875,32.134
		L1334.875,32.134z M1350.037,18.084h7.651v28.239l30.186-28.239h10.155l-36.307,33.803l39.089,41.593h-10.016l-33.108-35.194V93.48
		h-7.651V18.084z M1471.339,93.48h-7.79v-57.73l-49.661,57.73h-1.808V18.084h7.651v58.842l49.939-58.842h1.669V93.48z M1549.1,93.48
		h-7.929v-57.73l-49.661,57.73h-1.669V18.084h7.512v58.842l49.939-58.842h1.808V93.48z M1501.247,0h6.816
		c1.113,1.808,2.643,3.199,4.59,4.034c1.948,0.835,4.312,1.252,6.955,1.252c2.782,0,5.008-0.278,6.677-1.113
		c1.669-0.835,3.199-2.226,4.73-4.173h6.538c-0.695,3.06-2.643,5.703-5.703,7.79c-3.06,1.948-7.234,3.06-12.241,3.06
		c-5.008,0-9.181-0.974-12.242-3.06C1504.168,5.703,1502.082,3.199,1501.247,0L1501.247,0z"/>
	<path fill="#586DA8" d="M417.322,217.703h-7.79v-57.59l-49.522,57.59h-1.669v-75.118h7.512v58.564l49.8-58.564h1.669V217.703z
		 M443.335,142.585h7.512v31.438h38.255v-31.438h7.512v75.118h-7.512v-36.307h-38.255v36.307h-7.512V142.585z M592.598,156.496
		l-5.843,4.591c-3.339-4.312-7.234-7.512-11.824-9.738s-9.598-3.339-15.163-3.339c-5.982,0-11.546,1.53-16.554,4.312
		c-5.147,2.921-9.181,6.816-11.963,11.685c-2.782,4.869-4.173,10.294-4.173,16.415c0,9.181,3.06,16.832,9.459,22.953
		c6.26,6.121,14.189,9.181,23.787,9.181c10.433,0,19.336-4.173,26.43-12.381l5.843,4.451c-3.756,4.73-8.346,8.486-14.05,11.129
		c-5.564,2.643-11.824,3.895-18.779,3.895c-13.076,0-23.509-4.451-31.021-13.215c-6.399-7.373-9.598-16.276-9.598-26.709
		c0-10.989,3.895-20.31,11.546-27.821c7.79-7.512,17.388-11.268,29.073-11.268c6.955,0,13.354,1.391,18.919,4.173
		C584.39,147.593,588.981,151.488,592.598,156.496L592.598,156.496z M608.039,149.819v-7.234h41.176v7.234h-16.832v67.884h-7.651
		v-67.884H608.039z M726.836,217.703h-7.79v-57.59l-49.661,57.59h-1.669v-75.118h7.512v58.564l49.94-58.564h1.669V217.703z
		 M745.337,149.819v-7.234h41.315v7.234H769.82v67.884h-7.651v-67.884H745.337z M799.45,142.724h8.485l22.674,51.052l20.866-51.192
		h8.207l-28.517,67.467c-2.643,6.399-7.373,9.598-14.189,9.598c-2.643,0-5.286-0.556-7.651-1.669
		c-2.504-1.113-5.564-3.756-9.32-7.929l5.564-4.451c3.756,3.756,6.26,5.843,7.512,6.399c1.252,0.417,2.504,0.696,3.895,0.696
		c1.947,0,3.617-0.417,5.147-1.53c1.391-1.113,3.06-3.756,4.73-7.929L799.45,142.724z M873.038,149.819v-7.234h41.176v7.234h-16.693
		v67.884h-7.651v-67.884H873.038z M1020.77,217.703h-7.79v-57.59l-49.522,57.59h-1.669v-75.118h7.512v58.564l49.8-58.564h1.669
		V217.703z M1116.893,156.496l-5.982,4.591c-3.199-4.312-7.094-7.512-11.685-9.738c-4.59-2.226-9.598-3.339-15.163-3.339
		c-5.982,0-11.546,1.53-16.693,4.312c-5.008,2.921-9.042,6.816-11.824,11.685c-2.782,4.869-4.173,10.294-4.173,16.415
		c0,9.181,3.06,16.832,9.32,22.953c6.399,6.121,14.328,9.181,23.927,9.181c10.433,0,19.197-4.173,26.291-12.381l5.982,4.451
		c-3.756,4.73-8.486,8.486-14.05,11.129s-11.824,3.895-18.78,3.895c-13.076,0-23.509-4.451-31.16-13.215
		c-6.26-7.373-9.459-16.276-9.459-26.709c0-10.989,3.756-20.31,11.546-27.821c7.651-7.512,17.388-11.268,28.934-11.268
		c7.094,0,13.354,1.391,19.058,4.173C1108.686,147.593,1113.276,151.488,1116.893,156.496L1116.893,156.496z M1139.707,142.585
		h7.651v28.239l30.047-28.239h10.155l-36.168,33.664l38.95,41.454h-10.016l-32.968-35.055v35.055h-7.651V142.585z M1203.557,142.724
		h8.486l22.674,51.052l20.866-51.192h8.207l-28.517,67.467c-2.643,6.399-7.373,9.598-14.189,9.598c-2.643,0-5.286-0.556-7.651-1.669
		c-2.504-1.113-5.564-3.756-9.181-7.929l5.425-4.451c3.756,3.756,6.26,5.843,7.512,6.399c1.252,0.417,2.643,0.696,3.895,0.696
		c1.948,0,3.617-0.417,5.147-1.53c1.391-1.113,3.06-3.756,4.73-7.929L1203.557,142.724z M1354.628,156.496l-5.982,4.591
		c-3.2-4.312-7.095-7.512-11.685-9.738s-9.738-3.339-15.163-3.339c-5.981,0-11.546,1.53-16.693,4.312
		c-5.147,2.921-9.042,6.816-11.824,11.685c-2.782,4.869-4.312,10.294-4.312,16.415c0,9.181,3.199,16.832,9.459,22.953
		c6.26,6.121,14.189,9.181,23.787,9.181c10.572,0,19.336-4.173,26.43-12.381l5.982,4.451c-3.756,4.73-8.486,8.486-14.05,11.129
		c-5.564,2.643-11.824,3.895-18.78,3.895c-13.215,0-23.509-4.451-31.16-13.215c-6.399-7.373-9.598-16.276-9.598-26.709
		c0-10.989,3.895-20.31,11.685-27.821c7.651-7.512,17.388-11.268,28.934-11.268c7.094,0,13.354,1.391,19.058,4.173
		C1346.421,147.593,1351.011,151.488,1354.628,156.496L1354.628,156.496z M1447.413,156.496l-5.982,4.591
		c-3.199-4.312-7.094-7.512-11.685-9.738c-4.59-2.226-9.598-3.339-15.163-3.339c-5.982,0-11.546,1.53-16.693,4.312
		c-5.008,2.921-9.042,6.816-11.824,11.685c-2.782,4.869-4.173,10.294-4.173,16.415c0,9.181,3.06,16.832,9.32,22.953
		c6.399,6.121,14.328,9.181,23.927,9.181c10.433,0,19.336-4.173,26.291-12.381l5.982,4.451c-3.756,4.73-8.346,8.486-14.05,11.129
		c-5.564,2.643-11.824,3.895-18.78,3.895c-13.076,0-23.509-4.451-31.16-13.215c-6.26-7.373-9.459-16.276-9.459-26.709
		c0-10.989,3.756-20.31,11.546-27.821c7.651-7.512,17.388-11.268,28.934-11.268c7.094,0,13.354,1.391,19.058,4.173
		C1439.205,147.593,1443.796,151.488,1447.413,156.496L1447.413,156.496z M1462.714,149.819v-7.234h41.315v7.234h-16.832v67.884
		h-7.651v-67.884H1462.714z M1522.67,142.585h14.884c5.982,0,10.572,0.696,13.772,2.087c3.199,1.391,5.703,3.617,7.512,6.538
		c1.948,2.921,2.782,6.121,2.782,9.738c0,3.339-0.835,6.399-2.365,9.181c-1.669,2.643-4.034,4.869-7.234,6.677
		c3.895,1.252,6.955,2.782,9.042,4.591c2.087,1.808,3.756,4.034,4.869,6.538c1.252,2.504,1.808,5.286,1.808,8.207
		c0,6.121-2.226,11.129-6.677,15.302c-4.313,4.173-10.294,6.26-17.667,6.26h-20.727V142.585z M1530.042,149.958v24.066h4.312
		c5.286,0,9.042-0.556,11.546-1.53c2.365-0.974,4.312-2.504,5.843-4.591c1.391-2.087,2.087-4.451,2.087-6.955
		c0-3.478-1.252-6.121-3.617-8.068c-2.365-1.947-6.26-2.921-11.407-2.921H1530.042z M1530.042,181.535v28.795h9.32
		c5.564,0,9.459-0.556,12.102-1.53c2.504-1.113,4.59-2.782,6.121-5.008c1.53-2.365,2.365-4.869,2.365-7.512
		c0-3.339-1.113-6.26-3.339-8.764c-2.087-2.365-5.147-4.173-8.903-5.008c-2.643-0.696-7.094-0.974-13.354-0.974H1530.042z"/>
	<path fill="#586DA8" d="M417.322,342.482h-7.79v-57.59l-49.522,57.59h-1.669v-75.257h7.512v58.703l49.8-58.703h1.669V342.482z
		 M464.619,267.225h15.024c8.486,0,14.328,0.417,17.249,1.113c4.312,1.113,7.929,3.339,10.572,6.538
		c2.782,3.339,4.173,7.512,4.173,12.381c0,5.008-1.391,9.181-4.034,12.381c-2.643,3.339-6.399,5.564-10.989,6.677
		c-3.478,0.835-9.738,1.113-19.058,1.113h-5.425v35.055h-7.512V267.225z M472.131,274.598v25.596l12.659,0.139
		c5.147,0,8.903-0.556,11.407-1.391c2.365-0.974,4.173-2.504,5.564-4.591c1.391-2.087,2.087-4.451,2.087-7.094
		c0-2.504-0.696-4.73-2.087-6.816s-3.199-3.617-5.425-4.591c-2.226-0.835-5.843-1.252-10.99-1.252H472.131z M526.661,267.225h43.123
		v7.512h-35.612v23.509h35.333v7.373h-35.333v29.491h35.333v7.373h-42.845V267.225z M652.692,281.275l-5.843,4.451
		c-3.339-4.173-7.234-7.373-11.824-9.598c-4.59-2.226-9.598-3.339-15.024-3.339c-6.121,0-11.546,1.391-16.693,4.312
		c-5.147,2.921-9.042,6.816-11.963,11.546c-2.782,4.869-4.173,10.433-4.173,16.415c0,9.181,3.199,16.832,9.459,22.953
		c6.26,6.121,14.189,9.181,23.787,9.181c10.572,0,19.336-4.034,26.43-12.381l5.843,4.591c-3.617,4.73-8.346,8.486-13.911,10.99
		c-5.703,2.643-11.963,3.895-18.78,3.895c-13.215,0-23.648-4.312-31.16-13.076c-6.399-7.373-9.598-16.276-9.598-26.848
		c0-10.989,3.895-20.171,11.546-27.682c7.79-7.512,17.388-11.268,29.073-11.268c6.955,0,13.354,1.391,19.058,4.173
		C644.485,272.372,649.214,276.267,652.692,281.275L652.692,281.275z M660.343,274.598v-7.373h41.315v7.373h-16.832v67.884h-7.651
		v-67.884H660.343z M743.112,267.225l35.055,75.257h-8.068l-11.824-24.761h-32.412l-11.685,24.761h-8.346l35.472-75.257H743.112z
		 M742.138,283.223l-12.798,27.265h25.596L742.138,283.223z M789.991,267.225h14.884c5.982,0,10.572,0.696,13.772,2.226
		c3.199,1.391,5.703,3.478,7.512,6.399c1.948,3.06,2.782,6.26,2.782,9.877c0,3.339-0.696,6.26-2.365,9.042
		c-1.669,2.782-4.034,5.008-7.234,6.677c3.895,1.391,6.955,2.921,9.042,4.73c2.087,1.808,3.756,3.895,4.869,6.399
		c1.252,2.643,1.808,5.286,1.808,8.346c0,5.982-2.226,11.129-6.538,15.302c-4.451,4.173-10.433,6.26-17.806,6.26h-20.727V267.225z
		 M797.364,274.598v24.066h4.312c5.286,0,9.042-0.417,11.546-1.391c2.504-0.974,4.312-2.504,5.843-4.591
		c1.391-2.087,2.087-4.451,2.087-6.955c0-3.478-1.252-6.26-3.617-8.207c-2.365-1.947-6.121-2.921-11.407-2.921H797.364z
		 M797.364,306.315v28.795h9.32c5.564,0,9.598-0.556,12.102-1.669c2.504-0.974,4.591-2.643,6.121-5.008
		c1.53-2.226,2.365-4.73,2.365-7.373c0-3.339-1.113-6.26-3.339-8.764c-2.087-2.504-5.147-4.173-8.903-5.147
		c-2.643-0.556-7.095-0.835-13.354-0.835H797.364z M849.946,267.225h14.884c8.625,0,14.467,0.417,17.388,1.113
		c4.312,1.113,7.79,3.339,10.572,6.538c2.782,3.339,4.034,7.512,4.034,12.381c0,5.008-1.252,9.181-3.895,12.381
		c-2.643,3.339-6.399,5.564-10.989,6.677c-3.478,0.835-9.877,1.113-19.197,1.113h-5.286v35.055h-7.512V267.225z M857.458,274.598
		v25.596l12.659,0.139c5.147,0,8.903-0.556,11.268-1.391c2.504-0.974,4.312-2.504,5.703-4.591c1.391-2.087,2.087-4.451,2.087-7.094
		c0-2.504-0.696-4.73-2.087-6.816c-1.391-2.087-3.199-3.617-5.425-4.591c-2.226-0.835-5.843-1.252-10.989-1.252H857.458z
		 M942.592,267.225l35.055,75.257h-8.068l-11.824-24.761h-32.412l-11.685,24.761h-8.346l35.472-75.257H942.592z M941.757,283.223
		l-12.937,27.265h25.596L941.757,283.223z M1044.975,342.482h-55.643v-75.257h7.512v68.163h34.638v-68.163h7.651v68.163h12.798
		v18.362h-6.955V342.482z M1122.458,342.482h-7.79v-57.59l-49.522,57.59h-1.669v-75.257h7.512v58.703l49.8-58.703h1.669V342.482z
		 M1199.941,342.482h-7.79v-57.59l-49.522,57.59h-1.669v-75.257h7.512v58.703l49.8-58.703h1.669V342.482z"/>
	<path fill-rule="evenodd" clip-rule="evenodd" fill="#586DA8" d="M0,58.286l44.514,29.073c0,0,20.866-22.675,60.79-23.509
		c35.055-0.835,150.236-1.669,177.362-1.808V6.955H0V58.286z M146.48,350.69h15.719l0.417-199.619
		c-1.808-14.189-6.677-20.171-14.884-31.438c46.601,9.32,87.916,5.425,133.682,5.842v-12.241c-19.336,0-50.913,0-62.737-0.139
		c-12.102-0.278-65.38-5.564-71.64-6.677c-6.26-1.113-26.848-6.955-43.541-5.843c-16.554,1.113-25.874,7.094-35.333,17.249
		c-9.32,10.016-14.467,30.047-10.85,45.21c3.617,15.302,15.024,25.318,25.457,29.352c10.433,3.895,22.675,3.895,33.525-1.669
		c10.85-5.425,18.779-15.997,19.475-27.682c0.696-11.685-1.113-17.667-8.764-27.543c-13.911-18.084-46.184-11.963-48.131,11.824
		c-0.417,5.842,1.669,15.858,7.094,20.031c5.425,4.173,10.85,5.008,18.64,3.895c5.147-0.556,15.024-7.512,9.738-19.614
		c-5.425-12.102-21.005-8.346-23.092-4.312c5.286-15.719,27.543-10.155,31.16,3.617c2.365,9.459,1.808,15.858-5.843,23.787
		c-7.651,7.79-19.614,10.572-31.856,4.869c-24.9-11.824-23.926-57.173,10.711-64.963c45.627-10.016,62.598,35.194,48.827,64.963
		c-10.433,22.535-49.661,36.307-80.126,11.685c-16.415-13.354-23.092-43.262-10.294-69.554
		c12.937-26.291,41.593-30.325,51.47-31.716c9.877-1.391,68.997,2.643,68.997,2.643h107.113V77.205l-174.858,0.835
		c0,0-25.874,0.974-42.567,12.937c-32.412,23.509-40.898,71.64-17.11,101.131c14.189,17.528,38.394,23.787,61.346,22.953
		c14.606-0.556,33.108-9.32,38.672-18.64L146.48,350.69z M174.162,350.69h25.457V142.168c0-3.895-3.199-7.094-7.094-7.094h-11.268
		c-3.895,0-7.094,3.199-7.094,7.094V350.69z M215.756,350.69h35.194V144.95c0-5.425-4.451-9.877-9.877-9.877h-15.441
		c-5.425,0-9.877,4.451-9.877,9.877V350.69z M267.364,350.69h14.05V135.073h-4.173c-5.425-0.139-9.877,4.451-9.877,9.877V350.69z"/>
	<rect x="316.469" y="5.425" fill-rule="evenodd" clip-rule="evenodd" fill="#586DA8" width="4.451" height="344.986"/>
</g>
</svg>
