<svg width="36" height="39" viewBox="0 0 36 39" fill="none" xmlns="http://www.w3.org/2000/svg">
<path d="M19.2889 37.3116V28.2929H22.8011L29.8374 16.8135V28.2929H33.1239V10.7079H29.6235L22.5754 22.4155V10.7079H19.2889V1.68996C25.7979 1.68996 31.4807 5.25819 34.532 10.5651L35.9795 9.72008C32.6401 3.90894 26.4159 0 19.2889 0C8.63615 0 0 8.73068 0 19.5C0 30.2701 8.63615 39 19.2889 39C26.4309 39 32.6661 35.0759 36 29.2448L34.5533 28.3998C31.5075 33.7274 25.8129 37.3116 19.2889 37.3116ZM16.0087 28.2833V16.8135L8.96606 28.2833H5.43725V10.7183H8.71823V22.4155L15.7885 10.7183H19.2889V28.2833H16.0087Z" fill="#3F4A6A"/>
</svg>
