<svg width="240" height="55" viewBox="0 0 240 55" fill="none" xmlns="http://www.w3.org/2000/svg">
    <path fill-rule="evenodd" clip-rule="evenodd" d="M32.4821 11.8966C31.1218 11.7787 29.6056 10.5251 27.7869 10.5251C29.7017 11.0733 30.1887 11.8573 31.4623 12.21C33.8831 12.6011 40.7851 13.1502 41.408 15.9718C41.3205 16.589 40.9315 17.0884 40.2028 17.2054C39.5513 17.5781 39.1233 17.5685 38.0246 17.5685C36.5275 17.5685 33.1926 16.6178 31.7344 16.6178C28.8752 16.6178 26.9318 18.0286 22.9835 18.0286C20.8157 18.0286 18.6479 17.0683 16.3926 15.8339C11.4245 17.6567 7.35052 20.4486 4.90027 25.0328C5.71817 18.3228 8.7507 11.6809 13.9519 5.08789C15.3615 5.89107 16.7036 6.42011 17.9478 6.42011C28.5936 5.78281 32.969 6.60607 34.9133 7.48781C38.4327 9.07497 48.4859 12.6116 52.6958 16.0495C52.3839 16.5986 51.8892 16.9513 51.2766 16.9513C50.6641 17.098 50.1191 17.3817 49.4294 17.3817C48.2043 17.373 42.5552 15.4916 41.3404 15.0019C39.3277 12.5138 35.4384 12.2589 32.483 11.8966H32.4821Z" fill="#C20016"/>
    <path fill-rule="evenodd" clip-rule="evenodd" d="M49.1663 35.7797L23.0713 35.5152C23.3001 34.8188 23.3616 34.0777 23.2508 33.3527C23.1401 32.6276 22.8601 31.9394 22.434 31.3446C22.0079 30.7498 21.4479 30.2653 20.7999 29.9311C20.1518 29.5967 19.4343 29.4222 18.7062 29.4216C17.4869 29.4225 16.3177 29.9111 15.4556 30.7799C14.5935 31.6488 14.1088 32.8269 14.1081 34.0555C14.1081 34.4868 14.1662 34.9076 14.2727 35.3092L7.23389 34.0258C6.94689 32.2994 6.77812 30.5551 6.72876 28.8052L6.74782 28.5695H23.9464L24.2288 27.0417L24.7634 30.0292C24.7833 30.147 24.8414 30.2352 24.928 30.3033C25.0099 30.3645 25.1086 30.3986 25.2105 30.4011C25.3124 30.3986 25.4111 30.3645 25.4929 30.3033C25.5759 30.2364 25.6339 30.1432 25.6576 30.0388L26.8532 24.4253L28.2733 31.0087C28.297 31.1131 28.355 31.2064 28.4379 31.2732C28.5159 31.3317 28.6138 31.371 28.7204 31.371C28.822 31.3684 28.9203 31.3342 29.002 31.2732C29.0906 31.2072 29.15 31.1088 29.1674 30.9991L29.7999 27.4232L29.9845 28.5791H60.5321C61.6012 30.45 61.7858 32.2039 61.7858 34.2511L57.7803 35.5449C57.9363 35.0839 58.0229 34.5846 58.0229 34.0651C58.0222 32.8365 57.5376 31.6584 56.6754 30.7895C55.8133 29.9207 54.6442 29.4321 53.4248 29.4312C52.2055 29.4321 51.0363 29.9207 50.1741 30.7895C49.312 31.6584 48.8273 32.8365 48.8267 34.0651C48.8437 34.6518 48.9585 35.2314 49.1663 35.7797Z" fill="#0D68B0"/>
    <path fill-rule="evenodd" clip-rule="evenodd" d="M59.1988 27.8543H30.6154L30.2749 25.7477C30.2579 25.6354 30.199 25.534 30.1103 25.464C30.0292 25.4013 29.93 25.367 29.8278 25.3662C29.7257 25.367 29.6265 25.4013 29.5454 25.464C29.4571 25.5302 29.398 25.6285 29.3807 25.7381L28.7101 29.5392L27.31 23.0737C27.2862 22.9692 27.2278 22.8759 27.1445 22.8091C27.0634 22.7465 26.9643 22.7121 26.862 22.7114C26.7605 22.714 26.6622 22.7481 26.5804 22.8091C26.4975 22.876 26.4395 22.9692 26.4158 23.0737L25.2392 28.5789L24.6942 25.5033C24.6771 25.3937 24.618 25.2953 24.5296 25.2291C24.4479 25.1677 24.3492 25.1332 24.2472 25.1305C24.1454 25.1334 24.0471 25.1678 23.9656 25.2291C23.8769 25.2951 23.8175 25.3936 23.8001 25.5033L23.3625 27.8447H6.8147L6.82423 27.7076C6.87958 26.9901 7.17063 26.3116 7.65138 25.7792C8.13212 25.2469 8.77522 24.8912 9.47893 24.7682C17.6753 23.2989 20.4747 19.792 29.6233 19.792C39.2779 19.792 43.7504 24.9934 46.1513 25.3758C48.2914 25.7084 55.1838 26.0917 59.1997 27.8543H59.1988Z" fill="#C20016"/>
    <path fill-rule="evenodd" clip-rule="evenodd" d="M22.6431 34.0555C22.6437 34.5767 22.5423 35.0928 22.3447 35.5745C22.147 36.056 21.857 36.4937 21.4913 36.8622C21.1257 37.2307 20.6914 37.523 20.2135 37.7223C19.7356 37.9215 19.2234 38.0238 18.7061 38.0234C18.1888 38.024 17.6765 37.9217 17.1985 37.7225C16.7204 37.5233 16.2861 37.2311 15.9204 36.8625C15.5546 36.4939 15.2645 36.0563 15.0668 35.5746C14.8691 35.093 14.7677 34.5768 14.7682 34.0555C14.7677 33.5344 14.869 33.0182 15.0668 32.5366C15.2644 32.055 15.5543 31.6174 15.92 31.2488C16.2857 30.8803 16.72 30.5881 17.1979 30.3887C17.6758 30.1895 18.1881 30.0872 18.7052 30.0876C20.8834 30.0981 22.6431 31.8712 22.6431 34.0555Z" fill="#0D68B0"/>
    <path d="M53.4342 38.0234C54.4786 38.0234 55.4802 37.6054 56.2188 36.8612C56.9572 36.1171 57.3722 35.1078 57.3722 34.0555C57.3722 33.0032 56.9572 31.994 56.2188 31.2498C55.4802 30.5057 54.4786 30.0876 53.4342 30.0876C52.3898 30.0876 51.3882 30.5057 50.6497 31.2498C49.9112 31.994 49.4963 33.0032 49.4963 34.0555C49.4963 35.1078 49.9112 36.1171 50.6497 36.8612C51.3882 37.6054 52.3898 38.0234 53.4342 38.0234Z" fill="#0D68B0"/>
    <path fill-rule="evenodd" clip-rule="evenodd" d="M32.4821 45.7224C31.1218 45.8403 29.6056 47.094 27.7869 47.094C29.7017 46.5457 30.1887 45.7617 31.4623 45.409C33.8831 45.0171 40.7851 44.4688 41.408 41.6472C41.3205 41.0309 40.9315 40.5306 40.2028 40.4136C39.5513 40.0409 39.1233 40.0505 38.0246 40.0505C36.5275 40.0505 33.1926 41.0012 31.7344 41.0012C28.8752 41.0012 26.9318 39.5904 22.9835 39.5904C20.8157 39.5904 18.6479 40.5507 16.3926 41.7851C11.4245 39.9623 7.35052 37.1704 4.90027 32.5862C5.71817 39.2857 8.7507 45.9285 13.9519 52.5311C15.3615 51.7279 16.7036 51.1989 17.9478 51.1989C28.5936 51.8362 32.969 51.0129 34.9133 50.1312C38.4327 48.544 48.4859 45.0074 52.6958 41.5695C52.3839 41.0204 51.8892 40.6677 51.2766 40.6677C50.6641 40.521 50.1191 40.2373 49.4294 40.2373C48.2043 40.246 42.5552 42.1274 41.3404 42.6171C39.3277 45.0965 35.4384 45.3505 32.483 45.7224H32.4821Z" fill="#0D68B0"/>
    <path fill-rule="evenodd" clip-rule="evenodd" d="M1.74174 27.8449C1.92456 19.6552 4.91893 11.4942 10.7335 3.42232L9.17827 2.61914C3.24759 10.9268 0.195169 19.361 0.0106201 27.8449H1.74088H1.74174Z" fill="#C20016"/>
    <path fill-rule="evenodd" clip-rule="evenodd" d="M11.2202 54.8628C4.88924 46.1152 1.71986 37.3563 1.71986 28.6575V28.5702H0V28.6575C0 37.4348 3.07235 46.2322 9.19711 54.9999L10.7333 54.2063C10.8988 54.422 11.0643 54.6472 11.2194 54.8628H11.2202ZM66.4237 22.0156H66.9392C67.0848 22.0156 67.2017 22.1335 67.2017 22.2801V37.9543C67.2018 37.989 67.1951 38.0235 67.182 38.0556C67.1688 38.0878 67.1495 38.117 67.1251 38.1416C67.1007 38.1662 67.0717 38.1856 67.0398 38.1989C67.0079 38.2122 66.9737 38.2189 66.9392 38.2188H66.4237C66.3892 38.2189 66.355 38.2122 66.3231 38.1989C66.2912 38.1856 66.2622 38.1662 66.2378 38.1416C66.2134 38.117 66.1941 38.0878 66.1809 38.0556C66.1677 38.0235 66.1611 37.989 66.1612 37.9543V22.2801C66.1612 22.1335 66.2781 22.0156 66.4237 22.0156Z" fill="#0D68B0"/>
    <path fill-rule="evenodd" clip-rule="evenodd" d="M82.241 37.8078C82.6786 37.8078 82.9992 37.504 83.1161 37.2587L88.0263 27.3447H88.1328V37.2587C88.1328 37.6314 88.3078 37.8078 88.6769 37.8078H90.7486C91.1177 37.8078 91.2927 37.6314 91.2927 37.2587V22.9761C91.2927 22.6034 91.1177 22.427 90.7486 22.427H87.8027C87.3652 22.427 87.1702 22.7116 87.0151 22.9761L81.4734 34.183H81.3755L75.8338 22.9761C75.6779 22.7116 75.4838 22.427 75.0462 22.427H72.1004C71.7313 22.427 71.5563 22.6034 71.5563 22.9761V37.2587C71.5563 37.6314 71.7313 37.8078 72.1004 37.8078H74.1712C74.5411 37.8078 74.7161 37.6314 74.7161 37.2587V27.3447H74.8227L79.7327 37.2587C79.8393 37.5031 80.1703 37.8078 80.6078 37.8078H82.241ZM100.344 28.3635C101.977 28.3635 103.29 29.6573 103.397 30.8918H97.2918C97.3984 29.6573 98.6911 28.3635 100.344 28.3635ZM100.344 38.2487C103.942 38.2487 105.662 36.5149 106.012 34.7313C106.012 34.3987 105.798 34.183 105.468 34.183H103.834C103.504 34.183 103.309 34.3987 103.067 34.7313C102.717 35.2603 101.997 36.0539 100.344 36.0539C98.6235 36.0539 97.2719 34.7121 97.1653 33.1939H106.022C106.392 33.1939 106.567 33.0167 106.567 32.6448V31.9883C106.567 28.5791 104.165 26.1696 100.354 26.1696C96.5328 26.1696 94.1415 28.6088 94.1415 32.2135C94.1415 35.8191 96.5328 38.2487 100.344 38.2487ZM122.151 37.8078C122.521 37.8078 122.696 37.6314 122.696 37.2587V36.0539C122.696 35.682 122.521 35.5056 122.151 35.5056H120.732V27.1596C120.732 26.7868 120.557 26.6096 120.188 26.6096H115.715C112.448 26.6096 110.922 28.1487 110.154 31.2244L109.065 35.5056H107.977C107.607 35.5056 107.432 35.682 107.432 36.0539V37.2587C107.432 37.6314 107.607 37.8078 107.977 37.8078H122.151ZM113.217 31.2148C113.547 29.7839 114.412 28.903 115.725 28.903H117.796V35.4952H112.128L113.217 31.2148Z" fill="#C20016"/>
    <path fill-rule="evenodd" clip-rule="evenodd" d="M178.921 27.8057C178.921 24.7292 176.626 22.4174 171.94 22.4174H164.522C164.153 22.4174 163.978 22.5938 163.978 22.9657V37.2491C163.978 37.621 164.153 37.7973 164.522 37.7973H166.593C166.963 37.7973 167.138 37.621 167.138 37.2491V33.1834H171.931C176.626 33.1939 178.921 30.8813 178.921 27.8057ZM130.115 24.9544H135.462C135.831 24.9544 136.006 24.7789 136.006 24.4061V22.9761C136.006 22.6034 135.831 22.427 135.462 22.427H121.618C121.248 22.427 121.073 22.6034 121.073 22.9761V24.4061C121.073 24.7789 121.248 24.9544 121.618 24.9544H126.964V37.2587C126.964 37.6315 127.139 37.8078 127.509 37.8078H129.58C129.949 37.8078 130.124 37.6315 130.124 37.2587V24.9553H130.115V24.9544ZM142.219 28.3635C143.853 28.3635 145.165 29.6573 145.272 30.8918H139.166C139.273 29.6573 140.557 28.3635 142.219 28.3635ZM142.219 38.2487C145.816 38.2487 147.596 36.5245 147.887 34.7313C147.946 34.4083 147.674 34.183 147.343 34.183H145.709C145.378 34.183 145.175 34.3987 144.941 34.7313C144.581 35.2507 143.872 36.0539 142.219 36.0539C140.498 36.0539 139.147 34.7121 139.04 33.1939H147.897C148.266 33.1939 148.441 33.0167 148.441 32.6448V31.9883C148.441 28.5791 146.04 26.1696 142.229 26.1696C138.408 26.1696 136.016 28.6088 136.016 32.2135C136.016 35.8191 138.399 38.2487 142.219 38.2487ZM158.766 26.6009C158.31 26.6009 158.086 26.8846 157.891 27.1492L155.607 30.2257H155.5L153.215 27.1492C153.02 26.8846 152.797 26.6009 152.34 26.6009H150.162C149.812 26.6009 149.657 26.9143 149.832 27.1492L153.536 31.9787L149.394 37.2491C149.21 37.4848 149.394 37.7973 149.724 37.7973H151.903C152.32 37.7973 152.583 37.4944 152.778 37.2491L155.5 33.8399H155.607L158.329 37.2491C158.524 37.4935 158.786 37.7973 159.204 37.7973H161.382C161.712 37.7973 161.897 37.4839 161.712 37.2491L157.571 31.9787L161.275 27.1492C161.459 26.9134 161.295 26.6009 160.945 26.6009H158.766ZM171.94 24.9544C174.342 24.9544 175.644 26.2971 175.644 27.8153C175.644 29.3343 174.332 30.6761 171.94 30.6761H167.147V24.9553H171.94V24.9544ZM186.66 28.3635C188.293 28.3635 189.606 29.6573 189.713 30.8918H183.607C183.714 29.6573 185.007 28.3635 186.66 28.3635ZM186.66 38.2487C190.258 38.2487 192.036 36.5245 192.328 34.7313C192.377 34.4083 192.114 34.183 191.783 34.183H190.15C189.82 34.183 189.616 34.3987 189.392 34.7313C189.032 35.2507 188.323 36.0539 186.67 36.0539C184.949 36.0539 183.597 34.7121 183.48 33.1939H192.338C192.707 33.1939 192.882 33.0167 192.882 32.6448V31.9883C192.882 28.5791 190.481 26.1696 186.67 26.1696C182.849 26.1696 180.457 28.6088 180.457 32.2135C180.457 35.8191 182.849 38.2487 186.66 38.2487ZM198.22 34.0757V27.1492C198.22 26.7772 198.045 26.6009 197.675 26.6009H195.818C195.449 26.6009 195.274 26.7772 195.274 27.1492V37.2587C195.274 37.6315 195.449 37.8078 195.818 37.8078H197.889C198.22 37.8078 198.512 37.5826 198.764 37.2587L204.112 30.333H204.218V37.2587C204.218 37.6315 204.393 37.8078 204.763 37.8078H206.62C206.989 37.8078 207.164 37.6315 207.164 37.2587V27.1492C207.164 26.7772 206.989 26.6009 206.62 26.6009H204.549C204.218 26.6009 203.927 26.8261 203.674 27.1492L198.375 34.0748H198.22V34.0757ZM201.166 24.7292C203.693 24.7292 205.201 23.1717 205.201 21.32C205.201 21.2621 205.19 21.2046 205.168 21.1511C205.146 21.0975 205.113 21.0488 205.073 21.0077C205.033 20.9668 204.984 20.9343 204.931 20.9122C204.878 20.8902 204.82 20.879 204.763 20.8792H203.451C203.207 20.8792 203.081 21.0756 203.013 21.32C202.78 22.1826 202.187 22.8583 201.156 22.8583C200.135 22.8583 199.542 22.173 199.299 21.32C199.231 21.0756 199.105 20.8792 198.861 20.8792H197.549C197.491 20.879 197.435 20.8902 197.381 20.9122C197.329 20.9343 197.28 20.9668 197.239 21.0077C197.199 21.0488 197.166 21.0975 197.145 21.1511C197.122 21.2046 197.112 21.2621 197.112 21.32C197.131 23.1717 198.628 24.7292 201.166 24.7292ZM215.992 26.16C212.026 26.16 209.556 28.5111 209.556 32.0965C209.556 35.7213 212.065 38.2487 215.992 38.2487C219.502 38.2487 221.369 36.2791 221.66 34.183C221.709 33.8103 221.485 33.6339 221.116 33.6339H219.59C219.259 33.6339 218.977 33.8495 218.822 34.183C218.384 35.1722 217.625 36.0539 215.983 36.0539C213.776 36.0539 212.493 34.5349 212.493 32.0965C212.493 29.6372 213.912 28.3635 215.983 28.3635C217.528 28.3635 218.258 29.2365 218.598 29.9018C218.763 30.2248 219.036 30.4509 219.366 30.4509H220.999C221.369 30.4509 221.602 30.2745 221.544 29.9018C221.262 28.0213 219.483 26.16 215.992 26.16Z" fill="#0D68B0"/>
    <path d="M60.8231 7.24609H58.4838C58.2769 7.24609 58.0786 7.32887 57.9324 7.47622C57.7861 7.62357 57.704 7.82342 57.704 8.03181C57.704 8.24019 57.7861 8.44004 57.9324 8.58739C58.0786 8.73476 58.2769 8.81752 58.4838 8.81752H58.8736V11.1747C58.8736 11.3831 58.9558 11.5829 59.102 11.7303C59.2483 11.8776 59.4466 11.9604 59.6534 11.9604C59.8602 11.9604 60.0586 11.8776 60.2048 11.7303C60.3511 11.5829 60.4332 11.3831 60.4332 11.1747V8.81752H60.8231C61.0299 8.81752 61.2282 8.73476 61.3745 8.58739C61.5207 8.44004 61.6029 8.24019 61.6029 8.03181C61.6029 7.82342 61.5207 7.62357 61.3745 7.47622C61.2282 7.32887 61.0299 7.24609 60.8231 7.24609ZM66.5779 7.30895C66.4359 7.24878 66.2794 7.23234 66.1281 7.2617C65.9769 7.29107 65.8376 7.36493 65.7279 7.47395L64.722 8.49538L63.7161 7.47395C63.6064 7.36493 63.4672 7.29107 63.3159 7.2617C63.1646 7.23234 63.0081 7.24878 62.8661 7.30895C62.7237 7.3679 62.6019 7.46799 62.5158 7.59663C62.4298 7.72527 62.3834 7.87669 62.3827 8.03181V11.1747C62.3827 11.3831 62.4648 11.5829 62.6111 11.7303C62.7573 11.8776 62.9556 11.9604 63.1625 11.9604C63.3693 11.9604 63.5676 11.8776 63.7138 11.7303C63.8601 11.5829 63.9422 11.3831 63.9422 11.1747V9.92538L64.1684 10.1611C64.2409 10.2348 64.3271 10.2932 64.4221 10.3331C64.5172 10.373 64.6191 10.3935 64.722 10.3935C64.8249 10.3935 64.9268 10.373 65.0219 10.3331C65.1169 10.2932 65.2031 10.2348 65.2757 10.1611L65.5018 9.92538V11.1747C65.5018 11.3831 65.5839 11.5829 65.7302 11.7303C65.8764 11.8776 66.0748 11.9604 66.2816 11.9604C66.4884 11.9604 66.6867 11.8776 66.833 11.7303C66.9792 11.5829 67.0614 11.3831 67.0614 11.1747V8.03181C67.0606 7.87669 67.0143 7.72527 66.9283 7.59663C66.8422 7.46799 66.7203 7.3679 66.5779 7.30895ZM62.3827 1.74609C60.8404 1.74609 59.3328 2.20691 58.0505 3.07026C56.7681 3.93362 55.7686 5.16073 55.1784 6.59644C54.5882 8.03214 54.4338 9.61197 54.7346 11.1361C55.0356 12.6602 55.7783 14.0602 56.8687 15.1591C57.9593 16.2579 59.3488 17.0062 60.8614 17.3094C62.374 17.6125 63.9419 17.457 65.3668 16.8623C66.7916 16.2676 68.0095 15.2606 68.8663 13.9684C69.7232 12.6763 70.1805 11.1572 70.1805 9.60324C70.1805 8.57142 69.9788 7.54971 69.5869 6.59644C69.195 5.64317 68.6207 4.777 67.8966 4.0474C67.1724 3.31779 66.3129 2.73904 65.3668 2.34418C64.4207 1.94932 63.4067 1.74609 62.3827 1.74609ZM62.3827 15.889C61.1489 15.889 59.9427 15.5203 58.9169 14.8296C57.891 14.1389 57.0914 13.1572 56.6193 12.0087C56.1471 10.8601 56.0235 9.59625 56.2642 8.37696C56.505 7.15764 57.0991 6.03764 57.9715 5.15856C58.844 4.27949 59.9555 3.68084 61.1657 3.4383C62.3757 3.19576 63.6301 3.32025 64.7699 3.796C65.9099 4.27175 66.8841 5.0774 67.5696 6.11108C68.255 7.14476 68.6209 8.36004 68.6209 9.60324C68.6209 11.2703 67.9637 12.8691 66.7938 14.0479C65.6239 15.2267 64.0372 15.889 62.3827 15.889Z" fill="#0D68B0"/>
    <path d="M230.469 12.0767C229.426 12.0767 228.393 12.2837 227.43 12.6858C226.466 13.088 225.591 13.6774 224.853 14.4205C223.364 15.9213 222.527 17.9569 222.527 20.0792C222.527 22.2017 223.364 24.2372 224.853 25.738C225.591 26.4811 226.466 27.0705 227.43 27.4727C228.393 27.8749 229.426 28.0819 230.469 28.0819C232.576 28.0819 234.596 27.2388 236.086 25.738C237.575 24.2372 238.412 22.2017 238.412 20.0792C238.412 19.0283 238.207 17.9877 237.807 17.0168C237.408 16.0458 236.823 15.1636 236.086 14.4205C235.348 13.6774 234.472 13.088 233.509 12.6858C232.545 12.2837 231.513 12.0767 230.469 12.0767ZM230.469 26.4814C226.967 26.4814 224.116 23.6084 224.116 20.0792C224.116 16.5501 226.967 13.6772 230.469 13.6772C233.972 13.6772 236.823 16.5501 236.823 20.0792C236.823 23.6084 233.972 26.4814 230.469 26.4814ZM230.668 21.0956H229.524V23.6804H228.087V16.6461H230.676C231.494 16.6461 232.129 16.8302 232.582 17.1983C233.027 17.5745 233.249 18.0786 233.249 18.7668C233.249 19.247 233.146 19.6471 232.94 19.9672C232.733 20.2874 232.423 20.5434 232.002 20.7275L233.511 23.6005V23.6804H231.971L230.668 21.0956ZM229.524 19.9273H230.684C231.041 19.9273 231.319 19.8312 231.518 19.6471C231.716 19.4631 231.811 19.207 231.811 18.8789C231.811 18.5508 231.724 18.2947 231.533 18.1027C231.351 17.9106 231.065 17.8225 230.676 17.8225H229.524V19.9273Z" fill="#0D68B0"/>
</svg>
