<svg width="329" height="117" viewBox="0 0 329 117" fill="none" xmlns="http://www.w3.org/2000/svg">
    <g filter="url(#filter0_d_245_1361)">
        <path d="M34.572 36.358L30.333 30.085H32.187C32.319 30.085 32.415 30.106 32.475 30.148C32.541 30.19 32.598 30.253 32.646 30.337L35.94 35.44C35.97 35.368 35.997 35.299 36.021 35.233C36.051 35.161 36.09 35.086 36.138 35.008L39.234 30.364C39.348 30.178 39.489 30.085 39.657 30.085H41.439L37.173 36.286L41.574 43H39.729C39.591 43 39.483 42.964 39.405 42.892C39.327 42.82 39.264 42.739 39.216 42.649L35.832 37.312C35.814 37.378 35.79 37.444 35.76 37.51C35.73 37.576 35.7 37.636 35.67 37.69L32.376 42.649C32.316 42.733 32.247 42.814 32.169 42.892C32.097 42.964 32.001 43 31.881 43H30.153L34.572 36.358ZM45.2072 37.672V43H43.3532V30.085H47.0522C47.8802 30.085 48.5942 30.169 49.1942 30.337C49.7942 30.505 50.2892 30.748 50.6792 31.066C51.0752 31.378 51.3662 31.756 51.5522 32.2C51.7382 32.644 51.8312 33.139 51.8312 33.685C51.8312 34.141 51.7592 34.567 51.6152 34.963C51.4772 35.359 51.2732 35.716 51.0032 36.034C50.7392 36.346 50.4122 36.616 50.0222 36.844C49.6382 37.072 49.2002 37.243 48.7082 37.357C48.9422 37.495 49.1432 37.69 49.3112 37.942L52.9922 43H51.3362C51.0002 43 50.7542 42.868 50.5982 42.604L47.3582 38.077C47.2562 37.933 47.1452 37.831 47.0252 37.771C46.9052 37.705 46.7252 37.672 46.4852 37.672H45.2072ZM45.2072 36.313H46.9892C47.4872 36.313 47.9252 36.253 48.3032 36.133C48.6812 36.013 48.9962 35.842 49.2482 35.62C49.5002 35.398 49.6892 35.137 49.8152 34.837C49.9472 34.531 50.0132 34.192 50.0132 33.82C50.0132 33.07 49.7672 32.503 49.2752 32.119C48.7832 31.735 48.0422 31.543 47.0522 31.543H45.2072V36.313ZM61.0721 38.212C61.2221 38.512 61.3631 38.836 61.4951 39.184C61.5611 39.01 61.6271 38.842 61.6931 38.68C61.7651 38.512 61.8431 38.35 61.9271 38.194L66.2111 30.4C66.2891 30.25 66.3731 30.16 66.4631 30.13C66.5591 30.1 66.6881 30.085 66.8501 30.085H68.2271V43H66.5981V33.712C66.5981 33.58 66.6011 33.439 66.6071 33.289C66.6131 33.139 66.6221 32.986 66.6341 32.83L62.2961 40.768C62.2301 40.906 62.1371 41.011 62.0171 41.083C61.9031 41.155 61.7741 41.191 61.6301 41.191H61.3691C61.0631 41.191 60.8381 41.05 60.6941 40.768L56.2661 32.794C56.2781 32.956 56.2901 33.115 56.3021 33.271C56.3141 33.427 56.3201 33.574 56.3201 33.712V43H54.6911V30.085H56.0681C56.2301 30.085 56.3561 30.1 56.4461 30.13C56.5421 30.16 56.6291 30.25 56.7071 30.4L61.0721 38.212ZM70.939 36.871H75.421V38.32H70.939V36.871ZM84.1613 35.548C84.1133 35.614 84.0623 35.665 84.0083 35.701C83.9603 35.737 83.8913 35.755 83.8013 35.755C83.7053 35.755 83.6033 35.719 83.4953 35.647C83.3873 35.569 83.2553 35.488 83.0993 35.404C82.9433 35.314 82.7513 35.233 82.5233 35.161C82.2953 35.083 82.0163 35.044 81.6863 35.044C81.2483 35.044 80.8613 35.122 80.5253 35.278C80.1893 35.434 79.9073 35.659 79.6793 35.953C79.4573 36.247 79.2893 36.601 79.1753 37.015C79.0613 37.429 79.0043 37.897 79.0043 38.419C79.0043 38.959 79.0643 39.439 79.1843 39.859C79.3103 40.279 79.4843 40.633 79.7063 40.921C79.9343 41.209 80.2073 41.428 80.5253 41.578C80.8493 41.728 81.2093 41.803 81.6053 41.803C81.9893 41.803 82.3043 41.758 82.5503 41.668C82.7963 41.572 83.0003 41.47 83.1623 41.362C83.3243 41.254 83.4593 41.155 83.5673 41.065C83.6813 40.969 83.7953 40.921 83.9093 40.921C84.0533 40.921 84.1613 40.975 84.2333 41.083L84.7193 41.704C84.5093 41.956 84.2753 42.172 84.0173 42.352C83.7593 42.532 83.4833 42.679 83.1893 42.793C82.8953 42.907 82.5893 42.991 82.2713 43.045C81.9533 43.099 81.6293 43.126 81.2993 43.126C80.7293 43.126 80.1983 43.021 79.7063 42.811C79.2143 42.601 78.7853 42.295 78.4193 41.893C78.0593 41.491 77.7743 40.999 77.5643 40.417C77.3603 39.829 77.2583 39.163 77.2583 38.419C77.2583 37.741 77.3513 37.117 77.5373 36.547C77.7293 35.971 78.0083 35.473 78.3743 35.053C78.7403 34.633 79.1903 34.306 79.7243 34.072C80.2643 33.838 80.8823 33.721 81.5783 33.721C82.2323 33.721 82.8053 33.826 83.2973 34.036C83.7953 34.246 84.2333 34.54 84.6113 34.918L84.1613 35.548ZM86.367 43.009V33.874H88.077V39.922C88.077 40.042 88.071 40.174 88.059 40.318C88.047 40.456 88.032 40.594 88.014 40.732C88.122 40.498 88.233 40.291 88.347 40.111C88.353 40.099 88.419 40.006 88.545 39.832C88.677 39.658 88.842 39.436 89.04 39.166C89.244 38.89 89.472 38.578 89.724 38.23C89.982 37.882 90.243 37.528 90.507 37.168C91.131 36.322 91.836 35.365 92.622 34.297C92.688 34.195 92.772 34.099 92.874 34.009C92.982 33.913 93.102 33.865 93.234 33.865H94.269V43H92.559V36.952C92.559 36.832 92.565 36.703 92.577 36.565C92.589 36.421 92.604 36.28 92.622 36.142C92.568 36.262 92.511 36.373 92.451 36.475C92.397 36.577 92.343 36.67 92.289 36.754C92.277 36.766 92.208 36.859 92.082 37.033C91.956 37.207 91.791 37.432 91.587 37.708C91.383 37.984 91.152 38.296 90.894 38.644C90.642 38.992 90.384 39.346 90.12 39.706C89.496 40.552 88.794 41.509 88.014 42.577C87.948 42.679 87.861 42.778 87.753 42.874C87.651 42.964 87.534 43.009 87.402 43.009H86.367ZM103.146 35.548C103.098 35.614 103.047 35.665 102.993 35.701C102.945 35.737 102.876 35.755 102.786 35.755C102.69 35.755 102.588 35.719 102.48 35.647C102.372 35.569 102.24 35.488 102.084 35.404C101.928 35.314 101.736 35.233 101.508 35.161C101.28 35.083 101.001 35.044 100.671 35.044C100.233 35.044 99.8457 35.122 99.5097 35.278C99.1737 35.434 98.8917 35.659 98.6637 35.953C98.4417 36.247 98.2737 36.601 98.1597 37.015C98.0457 37.429 97.9887 37.897 97.9887 38.419C97.9887 38.959 98.0487 39.439 98.1687 39.859C98.2947 40.279 98.4687 40.633 98.6907 40.921C98.9187 41.209 99.1917 41.428 99.5097 41.578C99.8337 41.728 100.194 41.803 100.59 41.803C100.974 41.803 101.289 41.758 101.535 41.668C101.781 41.572 101.985 41.47 102.147 41.362C102.309 41.254 102.444 41.155 102.552 41.065C102.666 40.969 102.78 40.921 102.894 40.921C103.038 40.921 103.146 40.975 103.218 41.083L103.704 41.704C103.494 41.956 103.26 42.172 103.002 42.352C102.744 42.532 102.468 42.679 102.174 42.793C101.88 42.907 101.574 42.991 101.256 43.045C100.938 43.099 100.614 43.126 100.284 43.126C99.7137 43.126 99.1827 43.021 98.6907 42.811C98.1987 42.601 97.7697 42.295 97.4037 41.893C97.0437 41.491 96.7587 40.999 96.5487 40.417C96.3447 39.829 96.2427 39.163 96.2427 38.419C96.2427 37.741 96.3357 37.117 96.5217 36.547C96.7137 35.971 96.9927 35.473 97.3587 35.053C97.7247 34.633 98.1747 34.306 98.7087 34.072C99.2487 33.838 99.8667 33.721 100.563 33.721C101.217 33.721 101.79 33.826 102.282 34.036C102.78 34.246 103.218 34.54 103.596 34.918L103.146 35.548ZM104.352 33.865H112.983V35.161H109.518V43H107.817V35.161H104.352V33.865ZM117.876 33.721C118.428 33.721 118.938 33.814 119.406 34C119.874 34.18 120.279 34.444 120.621 34.792C120.963 35.14 121.23 35.569 121.422 36.079C121.614 36.583 121.71 37.162 121.71 37.816C121.71 38.08 121.68 38.257 121.62 38.347C121.566 38.437 121.461 38.482 121.305 38.482H115.275C115.293 39.04 115.371 39.526 115.509 39.94C115.653 40.354 115.845 40.699 116.085 40.975C116.331 41.245 116.625 41.449 116.967 41.587C117.309 41.719 117.69 41.785 118.11 41.785C118.506 41.785 118.845 41.74 119.127 41.65C119.415 41.56 119.661 41.461 119.865 41.353C120.075 41.245 120.252 41.146 120.396 41.056C120.54 40.966 120.666 40.921 120.774 40.921C120.918 40.921 121.023 40.975 121.089 41.083L121.575 41.704C121.365 41.956 121.122 42.172 120.846 42.352C120.57 42.526 120.273 42.673 119.955 42.793C119.637 42.907 119.307 42.991 118.965 43.045C118.629 43.099 118.296 43.126 117.966 43.126C117.336 43.126 116.751 43.021 116.211 42.811C115.677 42.595 115.215 42.283 114.825 41.875C114.435 41.461 114.129 40.951 113.907 40.345C113.691 39.733 113.583 39.031 113.583 38.239C113.583 37.603 113.682 37.012 113.88 36.466C114.078 35.914 114.36 35.437 114.726 35.035C115.098 34.627 115.548 34.306 116.076 34.072C116.61 33.838 117.21 33.721 117.876 33.721ZM117.903 34.972C117.153 34.972 116.562 35.191 116.13 35.629C115.704 36.061 115.437 36.661 115.329 37.429H120.18C120.18 37.069 120.129 36.739 120.027 36.439C119.925 36.139 119.775 35.881 119.577 35.665C119.385 35.449 119.148 35.281 118.866 35.161C118.584 35.035 118.263 34.972 117.903 34.972ZM128.394 38.815C128.466 38.953 128.535 39.103 128.601 39.265C128.667 39.421 128.727 39.577 128.781 39.733C128.835 39.577 128.895 39.421 128.961 39.265C129.027 39.103 129.096 38.953 129.168 38.815L131.859 34.225C131.943 34.069 132.042 33.967 132.156 33.919C132.27 33.865 132.387 33.838 132.507 33.838H133.884V43H132.345V37.105C132.345 36.931 132.354 36.736 132.372 36.52C132.396 36.298 132.423 36.094 132.453 35.908L129.366 41.362C129.318 41.458 129.252 41.536 129.168 41.596C129.084 41.65 128.988 41.677 128.88 41.677H128.691C128.583 41.677 128.487 41.65 128.403 41.596C128.319 41.536 128.25 41.458 128.196 41.362L125.055 35.89C125.085 36.082 125.112 36.289 125.136 36.511C125.16 36.733 125.172 36.931 125.172 37.105V43H123.633V33.838H125.01C125.13 33.838 125.247 33.865 125.361 33.919C125.481 33.967 125.583 34.069 125.667 34.225L128.394 38.815ZM142.2 43C142.032 43 141.903 42.973 141.813 42.919C141.723 42.865 141.651 42.76 141.597 42.604L141.408 41.785C141.174 42.001 140.943 42.196 140.715 42.37C140.487 42.538 140.247 42.679 139.995 42.793C139.749 42.907 139.485 42.994 139.203 43.054C138.921 43.114 138.606 43.144 138.258 43.144C137.898 43.144 137.562 43.096 137.25 43C136.938 42.898 136.665 42.745 136.431 42.541C136.203 42.337 136.02 42.085 135.882 41.785C135.75 41.479 135.684 41.119 135.684 40.705C135.684 40.345 135.78 40 135.972 39.67C136.17 39.34 136.488 39.046 136.926 38.788C137.37 38.524 137.946 38.308 138.654 38.14C139.368 37.972 140.244 37.876 141.282 37.852V37.168C141.282 36.478 141.132 35.959 140.832 35.611C140.538 35.257 140.103 35.08 139.527 35.08C139.137 35.08 138.81 35.131 138.546 35.233C138.288 35.329 138.063 35.437 137.871 35.557C137.685 35.671 137.52 35.776 137.376 35.872C137.232 35.968 137.088 36.016 136.944 36.016C136.824 36.016 136.722 35.986 136.638 35.926C136.56 35.86 136.491 35.785 136.431 35.701L136.125 35.143C136.635 34.663 137.184 34.303 137.772 34.063C138.366 33.823 139.02 33.703 139.734 33.703C140.25 33.703 140.709 33.787 141.111 33.955C141.513 34.123 141.849 34.36 142.119 34.666C142.395 34.966 142.602 35.329 142.74 35.755C142.884 36.181 142.956 36.652 142.956 37.168V43H142.2ZM138.771 41.947C139.041 41.947 139.29 41.92 139.518 41.866C139.752 41.812 139.968 41.734 140.166 41.632C140.37 41.53 140.562 41.407 140.742 41.263C140.922 41.113 141.102 40.945 141.282 40.759V38.923C140.562 38.947 139.95 39.004 139.446 39.094C138.942 39.184 138.531 39.301 138.213 39.445C137.901 39.589 137.673 39.763 137.529 39.967C137.385 40.165 137.313 40.384 137.313 40.624C137.313 40.858 137.349 41.059 137.421 41.227C137.499 41.395 137.604 41.533 137.736 41.641C137.868 41.743 138.021 41.821 138.195 41.875C138.375 41.923 138.567 41.947 138.771 41.947ZM145.036 41.848C145.036 41.554 145.135 41.305 145.333 41.101C145.537 40.897 145.807 40.795 146.143 40.795C146.329 40.795 146.494 40.831 146.638 40.903C146.782 40.969 146.902 41.062 146.998 41.182C147.1 41.302 147.175 41.443 147.223 41.605C147.271 41.767 147.295 41.938 147.295 42.118C147.295 42.388 147.256 42.673 147.178 42.973C147.1 43.267 146.986 43.558 146.836 43.846C146.686 44.14 146.5 44.425 146.278 44.701C146.062 44.977 145.816 45.229 145.54 45.457L145.252 45.187C145.204 45.139 145.171 45.094 145.153 45.052C145.135 45.016 145.126 44.971 145.126 44.917C145.126 44.833 145.171 44.746 145.261 44.656C145.321 44.59 145.396 44.503 145.486 44.395C145.582 44.287 145.678 44.161 145.774 44.017C145.87 43.873 145.957 43.714 146.035 43.54C146.113 43.372 146.17 43.192 146.206 43H146.125C145.963 43 145.813 42.973 145.675 42.919C145.543 42.859 145.429 42.778 145.333 42.676C145.243 42.568 145.171 42.445 145.117 42.307C145.063 42.163 145.036 42.01 145.036 41.848ZM164.961 43H163.521C163.359 43 163.224 42.961 163.116 42.883C163.014 42.799 162.939 42.691 162.891 42.559L161.73 39.526H155.997L154.836 42.559C154.794 42.673 154.716 42.775 154.602 42.865C154.494 42.955 154.362 43 154.206 43H152.775L157.923 30.085H159.804L164.961 43ZM156.51 38.194H161.217L159.264 33.109C159.198 32.947 159.129 32.761 159.057 32.551C158.991 32.335 158.925 32.101 158.859 31.849C158.793 32.101 158.727 32.335 158.661 32.551C158.595 32.767 158.529 32.956 158.463 33.118L156.51 38.194ZM166.207 33.865H169.6C170.164 33.865 170.647 33.922 171.049 34.036C171.457 34.15 171.79 34.306 172.048 34.504C172.312 34.696 172.504 34.924 172.624 35.188C172.75 35.452 172.813 35.737 172.813 36.043C172.813 36.241 172.786 36.448 172.732 36.664C172.678 36.88 172.582 37.087 172.444 37.285C172.312 37.483 172.129 37.663 171.895 37.825C171.667 37.981 171.379 38.104 171.031 38.194C171.715 38.314 172.246 38.554 172.624 38.914C173.008 39.274 173.2 39.751 173.2 40.345C173.2 40.795 173.11 41.185 172.93 41.515C172.75 41.845 172.504 42.121 172.192 42.343C171.88 42.565 171.514 42.73 171.094 42.838C170.68 42.946 170.236 43 169.762 43H166.207V33.865ZM167.836 38.878V41.803H169.753C170.335 41.803 170.791 41.668 171.121 41.398C171.457 41.128 171.625 40.759 171.625 40.291C171.625 40.087 171.592 39.898 171.526 39.724C171.466 39.55 171.364 39.4 171.22 39.274C171.076 39.148 170.884 39.052 170.644 38.986C170.404 38.914 170.11 38.878 169.762 38.878H167.836ZM167.836 37.789H169.546C169.804 37.789 170.041 37.753 170.257 37.681C170.473 37.609 170.659 37.507 170.815 37.375C170.971 37.243 171.091 37.087 171.175 36.907C171.265 36.721 171.31 36.517 171.31 36.295C171.31 36.133 171.28 35.977 171.22 35.827C171.16 35.671 171.061 35.533 170.923 35.413C170.791 35.287 170.611 35.188 170.383 35.116C170.155 35.044 169.876 35.008 169.546 35.008H167.836V37.789ZM173.979 33.865H182.61V35.161H179.145V43H177.444V35.161H173.979V33.865ZM187.611 33.721C188.283 33.721 188.889 33.832 189.429 34.054C189.969 34.27 190.428 34.582 190.806 34.99C191.184 35.398 191.475 35.893 191.679 36.475C191.883 37.051 191.985 37.699 191.985 38.419C191.985 39.139 191.883 39.79 191.679 40.372C191.475 40.954 191.184 41.449 190.806 41.857C190.428 42.265 189.969 42.58 189.429 42.802C188.889 43.018 188.283 43.126 187.611 43.126C186.939 43.126 186.33 43.018 185.784 42.802C185.244 42.58 184.782 42.265 184.398 41.857C184.02 41.449 183.729 40.954 183.525 40.372C183.321 39.79 183.219 39.139 183.219 38.419C183.219 37.699 183.321 37.051 183.525 36.475C183.729 35.893 184.02 35.398 184.398 34.99C184.782 34.582 185.244 34.27 185.784 34.054C186.33 33.832 186.939 33.721 187.611 33.721ZM187.611 41.794C188.487 41.794 189.141 41.5 189.573 40.912C190.005 40.324 190.221 39.496 190.221 38.428C190.221 37.366 190.005 36.538 189.573 35.944C189.141 35.35 188.487 35.053 187.611 35.053C186.723 35.053 186.06 35.35 185.622 35.944C185.19 36.538 184.974 37.366 184.974 38.428C184.974 39.496 185.19 40.324 185.622 40.912C186.06 41.5 186.723 41.794 187.611 41.794ZM198.724 38.815C198.796 38.953 198.865 39.103 198.931 39.265C198.997 39.421 199.057 39.577 199.111 39.733C199.165 39.577 199.225 39.421 199.291 39.265C199.357 39.103 199.426 38.953 199.498 38.815L202.189 34.225C202.273 34.069 202.372 33.967 202.486 33.919C202.6 33.865 202.717 33.838 202.837 33.838H204.214V43H202.675V37.105C202.675 36.931 202.684 36.736 202.702 36.52C202.726 36.298 202.753 36.094 202.783 35.908L199.696 41.362C199.648 41.458 199.582 41.536 199.498 41.596C199.414 41.65 199.318 41.677 199.21 41.677H199.021C198.913 41.677 198.817 41.65 198.733 41.596C198.649 41.536 198.58 41.458 198.526 41.362L195.385 35.89C195.415 36.082 195.442 36.289 195.466 36.511C195.49 36.733 195.502 36.931 195.502 37.105V43H193.963V33.838H195.34C195.46 33.838 195.577 33.865 195.691 33.919C195.811 33.967 195.913 34.069 195.997 34.225L198.724 38.815ZM212.53 43C212.362 43 212.233 42.973 212.143 42.919C212.053 42.865 211.981 42.76 211.927 42.604L211.738 41.785C211.504 42.001 211.273 42.196 211.045 42.37C210.817 42.538 210.577 42.679 210.325 42.793C210.079 42.907 209.815 42.994 209.533 43.054C209.251 43.114 208.936 43.144 208.588 43.144C208.228 43.144 207.892 43.096 207.58 43C207.268 42.898 206.995 42.745 206.761 42.541C206.533 42.337 206.35 42.085 206.212 41.785C206.08 41.479 206.014 41.119 206.014 40.705C206.014 40.345 206.11 40 206.302 39.67C206.5 39.34 206.818 39.046 207.256 38.788C207.7 38.524 208.276 38.308 208.984 38.14C209.698 37.972 210.574 37.876 211.612 37.852V37.168C211.612 36.478 211.462 35.959 211.162 35.611C210.868 35.257 210.433 35.08 209.857 35.08C209.467 35.08 209.14 35.131 208.876 35.233C208.618 35.329 208.393 35.437 208.201 35.557C208.015 35.671 207.85 35.776 207.706 35.872C207.562 35.968 207.418 36.016 207.274 36.016C207.154 36.016 207.052 35.986 206.968 35.926C206.89 35.86 206.821 35.785 206.761 35.701L206.455 35.143C206.965 34.663 207.514 34.303 208.102 34.063C208.696 33.823 209.35 33.703 210.064 33.703C210.58 33.703 211.039 33.787 211.441 33.955C211.843 34.123 212.179 34.36 212.449 34.666C212.725 34.966 212.932 35.329 213.07 35.755C213.214 36.181 213.286 36.652 213.286 37.168V43H212.53ZM209.101 41.947C209.371 41.947 209.62 41.92 209.848 41.866C210.082 41.812 210.298 41.734 210.496 41.632C210.7 41.53 210.892 41.407 211.072 41.263C211.252 41.113 211.432 40.945 211.612 40.759V38.923C210.892 38.947 210.28 39.004 209.776 39.094C209.272 39.184 208.861 39.301 208.543 39.445C208.231 39.589 208.003 39.763 207.859 39.967C207.715 40.165 207.643 40.384 207.643 40.624C207.643 40.858 207.679 41.059 207.751 41.227C207.829 41.395 207.934 41.533 208.066 41.641C208.198 41.743 208.351 41.821 208.525 41.875C208.705 41.923 208.897 41.947 209.101 41.947ZM214.444 33.865H223.075V35.161H219.61V43H217.909V35.161H214.444V33.865ZM224.566 43.009V33.874H226.276V39.922C226.276 40.042 226.27 40.174 226.258 40.318C226.246 40.456 226.231 40.594 226.213 40.732C226.321 40.498 226.432 40.291 226.546 40.111C226.552 40.099 226.618 40.006 226.744 39.832C226.876 39.658 227.041 39.436 227.239 39.166C227.443 38.89 227.671 38.578 227.923 38.23C228.181 37.882 228.442 37.528 228.706 37.168C229.33 36.322 230.035 35.365 230.821 34.297C230.887 34.195 230.971 34.099 231.073 34.009C231.181 33.913 231.301 33.865 231.433 33.865H232.468V43H230.758V36.952C230.758 36.832 230.764 36.703 230.776 36.565C230.788 36.421 230.803 36.28 230.821 36.142C230.767 36.262 230.71 36.373 230.65 36.475C230.596 36.577 230.542 36.67 230.488 36.754C230.476 36.766 230.407 36.859 230.281 37.033C230.155 37.207 229.99 37.432 229.786 37.708C229.582 37.984 229.351 38.296 229.093 38.644C228.841 38.992 228.583 39.346 228.319 39.706C227.695 40.552 226.993 41.509 226.213 42.577C226.147 42.679 226.06 42.778 225.952 42.874C225.85 42.964 225.733 43.009 225.601 43.009H224.566ZM234.379 34.81C234.721 34.486 235.141 34.225 235.639 34.027C236.137 33.823 236.731 33.721 237.421 33.721C237.979 33.721 238.471 33.79 238.897 33.928C239.323 34.06 239.68 34.237 239.968 34.459C240.256 34.681 240.472 34.939 240.616 35.233C240.766 35.521 240.841 35.818 240.841 36.124C240.841 36.304 240.811 36.493 240.751 36.691C240.697 36.883 240.604 37.072 240.472 37.258C240.346 37.438 240.178 37.606 239.968 37.762C239.758 37.912 239.5 38.038 239.194 38.14C239.764 38.314 240.214 38.593 240.544 38.977C240.874 39.355 241.039 39.823 241.039 40.381C241.039 40.807 240.94 41.191 240.742 41.533C240.55 41.869 240.289 42.157 239.959 42.397C239.635 42.631 239.257 42.811 238.825 42.937C238.399 43.063 237.952 43.126 237.484 43.126C237.196 43.126 236.899 43.099 236.593 43.045C236.287 42.991 235.987 42.907 235.693 42.793C235.405 42.679 235.129 42.532 234.865 42.352C234.607 42.172 234.376 41.956 234.172 41.704L234.658 41.083C234.73 40.975 234.838 40.921 234.982 40.921C235.09 40.921 235.204 40.969 235.324 41.065C235.45 41.155 235.603 41.254 235.783 41.362C235.963 41.47 236.179 41.572 236.431 41.668C236.683 41.758 236.995 41.803 237.367 41.803C237.691 41.803 237.979 41.764 238.231 41.686C238.483 41.608 238.696 41.5 238.87 41.362C239.05 41.218 239.185 41.053 239.275 40.867C239.365 40.675 239.41 40.465 239.41 40.237C239.41 39.799 239.23 39.451 238.87 39.193C238.51 38.929 237.955 38.797 237.205 38.797H236.17V37.654H237.205C237.859 37.654 238.369 37.531 238.735 37.285C239.101 37.039 239.284 36.721 239.284 36.331C239.284 36.157 239.245 35.992 239.167 35.836C239.089 35.68 238.969 35.545 238.807 35.431C238.651 35.311 238.453 35.218 238.213 35.152C237.973 35.08 237.694 35.044 237.376 35.044C237.022 35.044 236.722 35.08 236.476 35.152C236.236 35.218 236.029 35.296 235.855 35.386C235.687 35.47 235.546 35.548 235.432 35.62C235.324 35.686 235.231 35.719 235.153 35.719C235.069 35.719 235 35.704 234.946 35.674C234.898 35.638 234.841 35.569 234.775 35.467L234.379 34.81ZM248.882 43C248.714 43 248.585 42.973 248.495 42.919C248.405 42.865 248.333 42.76 248.279 42.604L248.09 41.785C247.856 42.001 247.625 42.196 247.397 42.37C247.169 42.538 246.929 42.679 246.677 42.793C246.431 42.907 246.167 42.994 245.885 43.054C245.603 43.114 245.288 43.144 244.94 43.144C244.58 43.144 244.244 43.096 243.932 43C243.62 42.898 243.347 42.745 243.113 42.541C242.885 42.337 242.702 42.085 242.564 41.785C242.432 41.479 242.366 41.119 242.366 40.705C242.366 40.345 242.462 40 242.654 39.67C242.852 39.34 243.17 39.046 243.608 38.788C244.052 38.524 244.628 38.308 245.336 38.14C246.05 37.972 246.926 37.876 247.964 37.852V37.168C247.964 36.478 247.814 35.959 247.514 35.611C247.22 35.257 246.785 35.08 246.209 35.08C245.819 35.08 245.492 35.131 245.228 35.233C244.97 35.329 244.745 35.437 244.553 35.557C244.367 35.671 244.202 35.776 244.058 35.872C243.914 35.968 243.77 36.016 243.626 36.016C243.506 36.016 243.404 35.986 243.32 35.926C243.242 35.86 243.173 35.785 243.113 35.701L242.807 35.143C243.317 34.663 243.866 34.303 244.454 34.063C245.048 33.823 245.702 33.703 246.416 33.703C246.932 33.703 247.391 33.787 247.793 33.955C248.195 34.123 248.531 34.36 248.801 34.666C249.077 34.966 249.284 35.329 249.422 35.755C249.566 36.181 249.638 36.652 249.638 37.168V43H248.882ZM245.453 41.947C245.723 41.947 245.972 41.92 246.2 41.866C246.434 41.812 246.65 41.734 246.848 41.632C247.052 41.53 247.244 41.407 247.424 41.263C247.604 41.113 247.784 40.945 247.964 40.759V38.923C247.244 38.947 246.632 39.004 246.128 39.094C245.624 39.184 245.213 39.301 244.895 39.445C244.583 39.589 244.355 39.763 244.211 39.967C244.067 40.165 243.995 40.384 243.995 40.624C243.995 40.858 244.031 41.059 244.103 41.227C244.181 41.395 244.286 41.533 244.418 41.641C244.55 41.743 244.703 41.821 244.877 41.875C245.057 41.923 245.249 41.947 245.453 41.947ZM252.023 33.865H253.733V41.704H257.981V33.865H259.691V41.704H261.365V45.601C261.365 45.763 261.317 45.892 261.221 45.988C261.131 46.084 261.014 46.132 260.87 46.132H259.817V43H252.023V33.865ZM262.957 43.009V33.874H264.667V39.922C264.667 40.042 264.661 40.174 264.649 40.318C264.637 40.456 264.622 40.594 264.604 40.732C264.712 40.498 264.823 40.291 264.937 40.111C264.943 40.099 265.009 40.006 265.135 39.832C265.267 39.658 265.432 39.436 265.63 39.166C265.834 38.89 266.062 38.578 266.314 38.23C266.572 37.882 266.833 37.528 267.097 37.168C267.721 36.322 268.426 35.365 269.212 34.297C269.278 34.195 269.362 34.099 269.464 34.009C269.572 33.913 269.692 33.865 269.824 33.865H270.859V43H269.149V36.952C269.149 36.832 269.155 36.703 269.167 36.565C269.179 36.421 269.194 36.28 269.212 36.142C269.158 36.262 269.101 36.373 269.041 36.475C268.987 36.577 268.933 36.67 268.879 36.754C268.867 36.766 268.798 36.859 268.672 37.033C268.546 37.207 268.381 37.432 268.177 37.708C267.973 37.984 267.742 38.296 267.484 38.644C267.232 38.992 266.974 39.346 266.71 39.706C266.086 40.552 265.384 41.509 264.604 42.577C264.538 42.679 264.451 42.778 264.343 42.874C264.241 42.964 264.124 43.009 263.992 43.009H262.957ZM279.772 43H278.143V39.184H277.495C277.327 39.184 277.186 39.199 277.072 39.229C276.958 39.253 276.859 39.292 276.775 39.346C276.697 39.394 276.628 39.457 276.568 39.535C276.508 39.613 276.445 39.7 276.379 39.796L274.471 42.406C274.363 42.604 274.231 42.754 274.075 42.856C273.919 42.952 273.691 43 273.391 43H272.212L274.804 39.589C275.014 39.223 275.305 38.974 275.677 38.842C275.227 38.782 274.843 38.674 274.525 38.518C274.213 38.362 273.958 38.176 273.76 37.96C273.562 37.744 273.418 37.51 273.328 37.258C273.238 37 273.193 36.739 273.193 36.475C273.193 36.157 273.256 35.842 273.382 35.53C273.508 35.218 273.706 34.939 273.976 34.693C274.252 34.447 274.606 34.249 275.038 34.099C275.476 33.943 276.004 33.865 276.622 33.865H279.772V43ZM274.903 36.565C274.903 37.045 275.077 37.42 275.425 37.69C275.779 37.96 276.256 38.095 276.856 38.095H278.143V35.008H276.667C276.331 35.008 276.049 35.056 275.821 35.152C275.599 35.248 275.419 35.371 275.281 35.521C275.149 35.665 275.053 35.83 274.993 36.016C274.933 36.202 274.903 36.385 274.903 36.565Z" fill="#494949"/>
    </g>
    <g filter="url(#filter1_d_245_1361)">
        <path d="M35.375 71.5H37.075C37.4167 71.5 37.7125 71.4417 37.9625 71.325C38.2125 71.2083 38.4458 70.9917 38.6625 70.675L42.625 64.825C42.7917 64.5583 42.9875 64.3417 43.2125 64.175C43.4375 64.0083 43.7083 63.925 44.025 63.925H46.9L41.9875 71.175C41.7792 71.4917 41.5333 71.7542 41.25 71.9625C40.975 72.1708 40.675 72.3333 40.35 72.45C40.85 72.5917 41.2708 72.8167 41.6125 73.125C41.9625 73.425 42.2958 73.8417 42.6125 74.375L47.35 82H44.3C43.9833 82 43.7167 81.9167 43.5 81.75C43.2917 81.5833 43.0958 81.3375 42.9125 81.0125L39.0625 74.9375C38.9625 74.7625 38.8542 74.6208 38.7375 74.5125C38.6292 74.3958 38.5083 74.3042 38.375 74.2375C38.25 74.1625 38.1042 74.1125 37.9375 74.0875C37.7792 74.0625 37.5958 74.05 37.3875 74.05H35.375V82H32.0125V63.925H35.375V71.5ZM53.6307 68.975C54.5807 68.975 55.4432 69.1292 56.2182 69.4375C57.0015 69.7458 57.6682 70.1833 58.2182 70.75C58.7765 71.3167 59.2057 72.0083 59.5057 72.825C59.8057 73.6417 59.9557 74.5542 59.9557 75.5625C59.9557 76.5792 59.8057 77.4958 59.5057 78.3125C59.2057 79.1292 58.7765 79.825 58.2182 80.4C57.6682 80.975 57.0015 81.4167 56.2182 81.725C55.4432 82.0333 54.5807 82.1875 53.6307 82.1875C52.6723 82.1875 51.8015 82.0333 51.0182 81.725C50.2348 81.4167 49.564 80.975 49.0057 80.4C48.4557 79.825 48.0265 79.1292 47.7182 78.3125C47.4182 77.4958 47.2682 76.5792 47.2682 75.5625C47.2682 74.5542 47.4182 73.6417 47.7182 72.825C48.0265 72.0083 48.4557 71.3167 49.0057 70.75C49.564 70.1833 50.2348 69.7458 51.0182 69.4375C51.8015 69.1292 52.6723 68.975 53.6307 68.975ZM53.6307 79.8125C54.6973 79.8125 55.4848 79.4542 55.9932 78.7375C56.5098 78.0208 56.7682 76.9708 56.7682 75.5875C56.7682 74.2042 56.5098 73.15 55.9932 72.425C55.4848 71.7 54.6973 71.3375 53.6307 71.3375C52.5473 71.3375 51.7432 71.7042 51.2182 72.4375C50.7015 73.1625 50.4432 74.2125 50.4432 75.5875C50.4432 76.9625 50.7015 78.0125 51.2182 78.7375C51.7432 79.4542 52.5473 79.8125 53.6307 79.8125ZM69.0611 75.2375C69.1861 75.4875 69.307 75.7542 69.4236 76.0375C69.5486 76.3125 69.6611 76.5917 69.7611 76.875C69.8611 76.5833 69.9653 76.3 70.0736 76.025C70.1903 75.75 70.3153 75.4875 70.4486 75.2375L73.4486 69.8375C73.5986 69.5542 73.7778 69.3708 73.9861 69.2875C74.1945 69.1958 74.407 69.15 74.6236 69.15H77.1736V82H74.3861V74.85C74.3861 74.5583 74.3986 74.2292 74.4236 73.8625C74.457 73.4958 74.5028 73.1542 74.5611 72.8375L70.7986 79.7625C70.6153 80.1208 70.3236 80.3 69.9236 80.3H69.5986C69.1986 80.3 68.907 80.1208 68.7236 79.7625L64.8986 72.8C64.9486 73.1167 64.9945 73.4667 65.0361 73.85C65.0778 74.225 65.0986 74.5583 65.0986 74.85V82H62.3111V69.15H64.8611C65.0778 69.15 65.2903 69.1958 65.4986 69.2875C65.7153 69.3792 65.8945 69.5625 66.0361 69.8375L69.0611 75.2375ZM91.4061 69.175V82H88.3186V71.4625H83.3186V82H80.2311V69.175H91.4061ZM102.852 82C102.56 82 102.335 81.9583 102.177 81.875C102.019 81.7833 101.894 81.6042 101.802 81.3375L101.527 80.425C101.202 80.7167 100.885 80.975 100.577 81.2C100.269 81.4167 99.9478 81.6 99.6145 81.75C99.2811 81.9 98.9228 82.0125 98.5395 82.0875C98.1645 82.1625 97.7478 82.2 97.2895 82.2C96.7478 82.2 96.2478 82.1292 95.7895 81.9875C95.3311 81.8375 94.9353 81.6167 94.602 81.325C94.2686 81.0333 94.0103 80.6708 93.827 80.2375C93.6436 79.8042 93.552 79.3 93.552 78.725C93.552 78.2417 93.677 77.7667 93.927 77.3C94.1853 76.825 94.6103 76.4 95.202 76.025C95.7936 75.6417 96.5811 75.325 97.5645 75.075C98.5478 74.825 99.7728 74.6833 101.239 74.65V73.9C101.239 73.0417 101.056 72.4083 100.689 72C100.323 71.5833 99.7936 71.375 99.102 71.375C98.602 71.375 98.1853 71.4333 97.852 71.55C97.527 71.6667 97.2395 71.8 96.9895 71.95C96.7395 72.0917 96.5103 72.2208 96.302 72.3375C96.102 72.4542 95.877 72.5125 95.627 72.5125C95.4103 72.5125 95.227 72.4583 95.077 72.35C94.927 72.2333 94.8061 72.1 94.7145 71.95L94.1645 70.9625C95.6395 69.6125 97.4145 68.9375 99.4895 68.9375C100.239 68.9375 100.91 69.0625 101.502 69.3125C102.094 69.5542 102.594 69.8958 103.002 70.3375C103.41 70.7708 103.719 71.2917 103.927 71.9C104.144 72.5083 104.252 73.175 104.252 73.9V82H102.852ZM98.2395 80.075C98.8728 80.075 99.4186 79.9625 99.877 79.7375C100.344 79.5042 100.798 79.1542 101.239 78.6875V76.525C100.339 76.5667 99.5853 76.6458 98.977 76.7625C98.377 76.8708 97.8936 77.0125 97.527 77.1875C97.1603 77.3625 96.8978 77.5667 96.7395 77.8C96.5811 78.0333 96.502 78.2875 96.502 78.5625C96.502 79.1042 96.6603 79.4917 96.977 79.725C97.302 79.9583 97.7228 80.075 98.2395 80.075ZM118.335 69.175V82H115.247V76.325H110.247V82H107.16V69.175H110.247V74.0375H115.247V69.175H118.335ZM121.393 82.0125V69.1875H124.481V76.675C124.481 76.8667 124.468 77.0792 124.443 77.3125C124.426 77.5375 124.401 77.7667 124.368 78C124.551 77.5917 124.735 77.2542 124.918 76.9875C124.926 76.9708 125.006 76.8583 125.156 76.65C125.306 76.4417 125.497 76.1708 125.731 75.8375C125.972 75.5042 126.243 75.1292 126.543 74.7125C126.843 74.2875 127.147 73.8542 127.456 73.4125C128.181 72.3875 129.006 71.2292 129.931 69.9375C130.047 69.7542 130.201 69.5833 130.393 69.425C130.585 69.2583 130.801 69.175 131.043 69.175H132.918V82H129.831V74.5125C129.831 74.3208 129.839 74.1125 129.856 73.8875C129.872 73.6625 129.901 73.4333 129.943 73.2C129.851 73.3917 129.76 73.575 129.668 73.75C129.576 73.9167 129.485 74.0667 129.393 74.2C129.376 74.2167 129.293 74.3333 129.143 74.55C128.993 74.7583 128.797 75.0292 128.556 75.3625C128.322 75.6958 128.056 76.075 127.756 76.5C127.456 76.9167 127.151 77.3417 126.843 77.775C126.118 78.8 125.297 79.9583 124.381 81.25C124.264 81.425 124.11 81.5958 123.918 81.7625C123.735 81.9292 123.522 82.0125 123.281 82.0125H121.393ZM145.593 82H142.656V76.85H142.118C141.868 76.85 141.66 76.875 141.493 76.925C141.335 76.9667 141.198 77.0292 141.081 77.1125C140.973 77.1875 140.877 77.2833 140.793 77.4C140.718 77.5167 140.639 77.6458 140.556 77.7875L138.506 80.9375C138.406 81.1125 138.298 81.2667 138.181 81.4C138.073 81.5333 137.943 81.6458 137.793 81.7375C137.652 81.8208 137.481 81.8875 137.281 81.9375C137.089 81.9792 136.856 82 136.581 82H134.443L137.681 77.475C138.023 76.875 138.498 76.4667 139.106 76.25C138.506 76.1417 137.998 75.975 137.581 75.75C137.164 75.5167 136.827 75.25 136.568 74.95C136.31 74.6417 136.123 74.3125 136.006 73.9625C135.889 73.6125 135.831 73.2667 135.831 72.925C135.831 72.45 135.923 71.9875 136.106 71.5375C136.298 71.0875 136.598 70.6875 137.006 70.3375C137.414 69.9875 137.939 69.7083 138.581 69.5C139.223 69.2833 139.993 69.175 140.893 69.175H145.593V82ZM138.931 73.0625C138.931 73.6542 139.127 74.1167 139.518 74.45C139.918 74.7833 140.452 74.95 141.118 74.95H142.656V71.1875H140.981C140.589 71.1875 140.264 71.2458 140.006 71.3625C139.748 71.4708 139.535 71.6167 139.368 71.8C139.21 71.975 139.098 72.175 139.031 72.4C138.964 72.625 138.931 72.8458 138.931 73.0625ZM164.305 74.5C164.447 74.7667 164.576 75.0458 164.693 75.3375C164.818 75.6208 164.939 75.9083 165.055 76.2C165.172 75.8917 165.293 75.5958 165.418 75.3125C165.543 75.0208 165.676 74.7417 165.818 74.475L171.155 64.4625C171.222 64.3375 171.293 64.2375 171.368 64.1625C171.443 64.0875 171.522 64.0333 171.605 64C171.697 63.9667 171.797 63.9458 171.905 63.9375C172.014 63.9292 172.143 63.925 172.293 63.925H174.83V82H171.868V70.325C171.868 70.1083 171.872 69.8708 171.88 69.6125C171.897 69.3542 171.918 69.0917 171.943 68.825L166.48 79.075C166.222 79.5667 165.826 79.8125 165.293 79.8125H164.818C164.284 79.8125 163.889 79.5667 163.63 79.075L158.105 68.7875C158.13 69.0625 158.151 69.3333 158.168 69.6C158.184 69.8583 158.193 70.1 158.193 70.325V82H155.23V63.925H157.768C157.918 63.925 158.047 63.9292 158.155 63.9375C158.264 63.9458 158.359 63.9667 158.443 64C158.534 64.0333 158.614 64.0875 158.68 64.1625C158.755 64.2375 158.826 64.3375 158.893 64.4625L164.305 74.5ZM183.447 68.975C184.256 68.975 185.002 69.1042 185.685 69.3625C186.368 69.6208 186.956 70 187.447 70.5C187.939 70.9917 188.322 71.6 188.597 72.325C188.881 73.0417 189.022 73.8625 189.022 74.7875C189.022 75.2542 188.972 75.5708 188.872 75.7375C188.772 75.8958 188.581 75.975 188.297 75.975H180.36C180.41 76.6333 180.527 77.2042 180.71 77.6875C180.893 78.1625 181.135 78.5583 181.435 78.875C181.735 79.1833 182.089 79.4167 182.497 79.575C182.914 79.725 183.372 79.8 183.872 79.8C184.372 79.8 184.802 79.7417 185.16 79.625C185.527 79.5083 185.843 79.3792 186.11 79.2375C186.385 79.0958 186.622 78.9667 186.822 78.85C187.031 78.7333 187.231 78.675 187.422 78.675C187.681 78.675 187.872 78.7708 187.997 78.9625L188.885 80.0875C188.543 80.4875 188.16 80.825 187.735 81.1C187.31 81.3667 186.864 81.5833 186.397 81.75C185.939 81.9083 185.468 82.0208 184.985 82.0875C184.51 82.1542 184.047 82.1875 183.597 82.1875C182.706 82.1875 181.877 82.0417 181.11 81.75C180.343 81.45 179.677 81.0125 179.11 80.4375C178.543 79.8542 178.097 79.1375 177.772 78.2875C177.447 77.4292 177.285 76.4375 177.285 75.3125C177.285 74.4375 177.427 73.6167 177.71 72.85C177.993 72.075 178.397 71.4042 178.922 70.8375C179.456 70.2625 180.102 69.8083 180.86 69.475C181.627 69.1417 182.489 68.975 183.447 68.975ZM183.51 71.1875C182.61 71.1875 181.906 71.4417 181.397 71.95C180.889 72.4583 180.564 73.1792 180.422 74.1125H186.247C186.247 73.7125 186.189 73.3375 186.072 72.9875C185.964 72.6292 185.797 72.3167 185.572 72.05C185.347 71.7833 185.06 71.575 184.71 71.425C184.368 71.2667 183.968 71.1875 183.51 71.1875ZM202.889 69.175V79.7125H205.239V85.375C205.239 85.6583 205.156 85.8833 204.989 86.05C204.831 86.2167 204.623 86.3 204.364 86.3H202.439V82H192.839V85.425C192.839 85.6417 192.769 85.8417 192.627 86.025C192.494 86.2083 192.281 86.3 191.989 86.3H190.039V79.8H190.527C190.81 79.7917 191.085 79.7417 191.352 79.65C191.619 79.5583 191.873 79.3792 192.114 79.1125C192.364 78.8458 192.598 78.475 192.814 78C193.031 77.5167 193.227 76.8833 193.402 76.1C193.585 75.3167 193.744 74.3583 193.877 73.225C194.01 72.0917 194.119 70.7417 194.202 69.175H202.889ZM196.727 71.5375C196.644 72.6125 196.539 73.5833 196.414 74.45C196.289 75.3083 196.144 76.075 195.977 76.75C195.81 77.425 195.627 78.0125 195.427 78.5125C195.235 79.0125 195.027 79.4417 194.802 79.8H199.889V71.5375H196.727ZM220.297 63.925V66.6875H214.847V82H211.484V66.6875H206.034V63.925H220.297ZM224.634 68.975C225.442 68.975 226.188 69.1042 226.871 69.3625C227.555 69.6208 228.142 70 228.634 70.5C229.126 70.9917 229.509 71.6 229.784 72.325C230.067 73.0417 230.209 73.8625 230.209 74.7875C230.209 75.2542 230.159 75.5708 230.059 75.7375C229.959 75.8958 229.767 75.975 229.484 75.975H221.546C221.596 76.6333 221.713 77.2042 221.896 77.6875C222.08 78.1625 222.321 78.5583 222.621 78.875C222.921 79.1833 223.276 79.4167 223.684 79.575C224.101 79.725 224.559 79.8 225.059 79.8C225.559 79.8 225.988 79.7417 226.346 79.625C226.713 79.5083 227.03 79.3792 227.296 79.2375C227.571 79.0958 227.809 78.9667 228.009 78.85C228.217 78.7333 228.417 78.675 228.609 78.675C228.867 78.675 229.059 78.7708 229.184 78.9625L230.071 80.0875C229.73 80.4875 229.346 80.825 228.921 81.1C228.496 81.3667 228.051 81.5833 227.584 81.75C227.126 81.9083 226.655 82.0208 226.171 82.0875C225.696 82.1542 225.234 82.1875 224.784 82.1875C223.892 82.1875 223.063 82.0417 222.296 81.75C221.53 81.45 220.863 81.0125 220.296 80.4375C219.73 79.8542 219.284 79.1375 218.959 78.2875C218.634 77.4292 218.471 76.4375 218.471 75.3125C218.471 74.4375 218.613 73.6167 218.896 72.85C219.18 72.075 219.584 71.4042 220.109 70.8375C220.642 70.2625 221.288 69.8083 222.046 69.475C222.813 69.1417 223.676 68.975 224.634 68.975ZM224.696 71.1875C223.796 71.1875 223.092 71.4417 222.584 71.95C222.076 72.4583 221.751 73.1792 221.609 74.1125H227.434C227.434 73.7125 227.376 73.3375 227.259 72.9875C227.151 72.6292 226.984 72.3167 226.759 72.05C226.534 71.7833 226.246 71.575 225.896 71.425C225.555 71.2667 225.155 71.1875 224.696 71.1875ZM235.268 75.3875L231.056 69.175H234.031C234.256 69.175 234.422 69.2083 234.531 69.275C234.639 69.3333 234.735 69.4333 234.818 69.575L237.506 73.8625C237.547 73.7208 237.597 73.5792 237.656 73.4375C237.722 73.2958 237.801 73.1542 237.893 73.0125L240.056 69.6375C240.239 69.3292 240.476 69.175 240.768 69.175H243.606L239.381 75.25L243.781 82H240.806C240.581 82 240.397 81.9417 240.256 81.825C240.122 81.7083 240.01 81.575 239.918 81.425L237.193 76.9625C237.118 77.2625 237.014 77.5125 236.881 77.7125L234.481 81.425C234.389 81.5667 234.276 81.7 234.143 81.825C234.01 81.9417 233.843 82 233.643 82H230.881L235.268 75.3875ZM249.242 75.6375V82H245.88V63.925H251.755C252.963 63.925 254.009 64.0667 254.892 64.35C255.776 64.6333 256.505 65.0292 257.08 65.5375C257.655 66.0458 258.08 66.6542 258.355 67.3625C258.638 68.0708 258.78 68.8458 258.78 69.6875C258.78 70.5625 258.634 71.3667 258.342 72.1C258.051 72.825 257.613 73.45 257.03 73.975C256.446 74.5 255.713 74.9083 254.83 75.2C253.955 75.4917 252.93 75.6375 251.755 75.6375H249.242ZM249.242 73.0125H251.755C252.371 73.0125 252.909 72.9375 253.367 72.7875C253.826 72.6292 254.205 72.4083 254.505 72.125C254.813 71.8333 255.042 71.4833 255.192 71.075C255.342 70.6583 255.417 70.1958 255.417 69.6875C255.417 69.2042 255.342 68.7667 255.192 68.375C255.042 67.9833 254.817 67.65 254.517 67.375C254.217 67.1 253.838 66.8917 253.38 66.75C252.921 66.6 252.38 66.525 251.755 66.525H249.242V73.0125ZM265.747 68.975C266.556 68.975 267.301 69.1042 267.985 69.3625C268.668 69.6208 269.256 70 269.747 70.5C270.239 70.9917 270.622 71.6 270.897 72.325C271.181 73.0417 271.322 73.8625 271.322 74.7875C271.322 75.2542 271.272 75.5708 271.172 75.7375C271.072 75.8958 270.881 75.975 270.597 75.975H262.66C262.71 76.6333 262.826 77.2042 263.01 77.6875C263.193 78.1625 263.435 78.5583 263.735 78.875C264.035 79.1833 264.389 79.4167 264.797 79.575C265.214 79.725 265.672 79.8 266.172 79.8C266.672 79.8 267.101 79.7417 267.46 79.625C267.826 79.5083 268.143 79.3792 268.41 79.2375C268.685 79.0958 268.922 78.9667 269.122 78.85C269.331 78.7333 269.531 78.675 269.722 78.675C269.981 78.675 270.172 78.7708 270.297 78.9625L271.185 80.0875C270.843 80.4875 270.46 80.825 270.035 81.1C269.61 81.3667 269.164 81.5833 268.697 81.75C268.239 81.9083 267.768 82.0208 267.285 82.0875C266.81 82.1542 266.347 82.1875 265.897 82.1875C265.006 82.1875 264.176 82.0417 263.41 81.75C262.643 81.45 261.976 81.0125 261.41 80.4375C260.843 79.8542 260.397 79.1375 260.072 78.2875C259.747 77.4292 259.585 76.4375 259.585 75.3125C259.585 74.4375 259.726 73.6167 260.01 72.85C260.293 72.075 260.697 71.4042 261.222 70.8375C261.756 70.2625 262.401 69.8083 263.16 69.475C263.926 69.1417 264.789 68.975 265.747 68.975ZM265.81 71.1875C264.91 71.1875 264.206 71.4417 263.697 71.95C263.189 72.4583 262.864 73.1792 262.722 74.1125H268.547C268.547 73.7125 268.489 73.3375 268.372 72.9875C268.264 72.6292 268.097 72.3167 267.872 72.05C267.647 71.7833 267.36 71.575 267.01 71.425C266.668 71.2667 266.268 71.1875 265.81 71.1875ZM273.639 82.0125V69.1875H276.727V76.675C276.727 76.8667 276.714 77.0792 276.689 77.3125C276.673 77.5375 276.648 77.7667 276.614 78C276.798 77.5917 276.981 77.2542 277.164 76.9875C277.173 76.9708 277.252 76.8583 277.402 76.65C277.552 76.4417 277.743 76.1708 277.977 75.8375C278.218 75.5042 278.489 75.1292 278.789 74.7125C279.089 74.2875 279.393 73.8542 279.702 73.4125C280.427 72.3875 281.252 71.2292 282.177 69.9375C282.293 69.7542 282.448 69.5833 282.639 69.425C282.831 69.2583 283.048 69.175 283.289 69.175H285.164V82H282.077V74.5125C282.077 74.3208 282.085 74.1125 282.102 73.8875C282.118 73.6625 282.148 73.4333 282.189 73.2C282.098 73.3917 282.006 73.575 281.914 73.75C281.823 73.9167 281.731 74.0667 281.639 74.2C281.623 74.2167 281.539 74.3333 281.389 74.55C281.239 74.7583 281.043 75.0292 280.802 75.3625C280.568 75.6958 280.302 76.075 280.002 76.5C279.702 76.9167 279.398 77.3417 279.089 77.775C278.364 78.8 277.543 79.9583 276.627 81.25C276.51 81.425 276.356 81.5958 276.164 81.7625C275.981 81.9292 275.768 82.0125 275.527 82.0125H273.639ZM279.577 65.925C279.885 65.925 280.143 65.8917 280.352 65.825C280.56 65.7583 280.727 65.65 280.852 65.5C280.977 65.3417 281.064 65.1333 281.114 64.875C281.164 64.6167 281.189 64.3 281.189 63.925H283.014C283.231 63.925 283.389 64.0167 283.489 64.2C283.598 64.375 283.652 64.5708 283.652 64.7875C283.652 65.2125 283.556 65.6 283.364 65.95C283.173 66.2917 282.898 66.5833 282.539 66.825C282.181 67.0583 281.752 67.2417 281.252 67.375C280.752 67.5 280.193 67.5625 279.577 67.5625C278.96 67.5625 278.402 67.5 277.902 67.375C277.402 67.2417 276.973 67.0583 276.614 66.825C276.256 66.5833 275.981 66.2917 275.789 65.95C275.598 65.6 275.502 65.2125 275.502 64.7875C275.502 64.5708 275.552 64.375 275.652 64.2C275.76 64.0167 275.923 63.925 276.139 63.925H277.964C277.964 64.3 277.989 64.6167 278.039 64.875C278.089 65.1333 278.177 65.3417 278.302 65.5C278.427 65.65 278.589 65.7583 278.789 65.825C278.998 65.8917 279.26 65.925 279.577 65.925ZM297.402 71.8875C297.31 72.0042 297.219 72.0958 297.127 72.1625C297.044 72.2292 296.919 72.2625 296.752 72.2625C296.594 72.2625 296.439 72.2167 296.289 72.125C296.139 72.025 295.96 71.9167 295.752 71.8C295.544 71.675 295.294 71.5667 295.002 71.475C294.719 71.375 294.364 71.325 293.939 71.325C293.398 71.325 292.923 71.425 292.514 71.625C292.106 71.8167 291.764 72.0958 291.489 72.4625C291.223 72.8292 291.023 73.275 290.889 73.8C290.756 74.3167 290.689 74.9042 290.689 75.5625C290.689 76.2458 290.76 76.8542 290.902 77.3875C291.052 77.9208 291.264 78.3708 291.539 78.7375C291.814 79.0958 292.148 79.3708 292.539 79.5625C292.931 79.7458 293.373 79.8375 293.864 79.8375C294.356 79.8375 294.752 79.7792 295.052 79.6625C295.36 79.5375 295.619 79.4042 295.827 79.2625C296.035 79.1125 296.214 78.9792 296.364 78.8625C296.523 78.7375 296.698 78.675 296.889 78.675C297.139 78.675 297.327 78.7708 297.452 78.9625L298.339 80.0875C297.998 80.4875 297.627 80.825 297.227 81.1C296.827 81.3667 296.41 81.5833 295.977 81.75C295.552 81.9083 295.11 82.0208 294.652 82.0875C294.202 82.1542 293.752 82.1875 293.302 82.1875C292.51 82.1875 291.764 82.0417 291.064 81.75C290.364 81.45 289.752 81.0167 289.227 80.45C288.702 79.8833 288.285 79.1917 287.977 78.375C287.677 77.55 287.527 76.6125 287.527 75.5625C287.527 74.6208 287.66 73.75 287.927 72.95C288.202 72.1417 288.602 71.4458 289.127 70.8625C289.652 70.2708 290.302 69.8083 291.077 69.475C291.852 69.1417 292.744 68.975 293.752 68.975C294.71 68.975 295.548 69.1292 296.264 69.4375C296.989 69.7458 297.639 70.1875 298.214 70.7625L297.402 71.8875Z" fill="#494949"/>
    </g>
    <defs>
        <filter id="filter0_d_245_1361" x="0.152954" y="0.0849609" width="309.619" height="76.0471" filterUnits="userSpaceOnUse" color-interpolation-filters="sRGB">
            <feFlood flood-opacity="0" result="BackgroundImageFix"/>
            <feColorMatrix in="SourceAlpha" type="matrix" values="0 0 0 0 0 0 0 0 0 0 0 0 0 0 0 0 0 0 127 0" result="hardAlpha"/>
            <feOffset/>
            <feGaussianBlur stdDeviation="15"/>
            <feColorMatrix type="matrix" values="0 0 0 0 1 0 0 0 0 1 0 0 0 0 1 0 0 0 1 0"/>
            <feBlend mode="normal" in2="BackgroundImageFix" result="effect1_dropShadow_245_1361"/>
            <feBlend mode="normal" in="SourceGraphic" in2="effect1_dropShadow_245_1361" result="shape"/>
        </filter>
        <filter id="filter1_d_245_1361" x="2.01245" y="33.925" width="326.327" height="82.375" filterUnits="userSpaceOnUse" color-interpolation-filters="sRGB">
            <feFlood flood-opacity="0" result="BackgroundImageFix"/>
            <feColorMatrix in="SourceAlpha" type="matrix" values="0 0 0 0 0 0 0 0 0 0 0 0 0 0 0 0 0 0 127 0" result="hardAlpha"/>
            <feOffset/>
            <feGaussianBlur stdDeviation="15"/>
            <feColorMatrix type="matrix" values="0 0 0 0 1 0 0 0 0 1 0 0 0 0 1 0 0 0 1 0"/>
            <feBlend mode="normal" in2="BackgroundImageFix" result="effect1_dropShadow_245_1361"/>
            <feBlend mode="normal" in="SourceGraphic" in2="effect1_dropShadow_245_1361" result="shape"/>
        </filter>
    </defs>
</svg>
