<svg width="21" height="20" viewBox="0 0 21 20" fill="none" xmlns="http://www.w3.org/2000/svg">
<path d="M10.3583 7.5L13 10.1333C13 10.0917 13 10.0417 13 10C13 9.33696 12.7366 8.70107 12.2677 8.23223C11.7989 7.76339 11.163 7.5 10.5 7.5C10.45 7.5 10.4083 7.5 10.3583 7.5ZM6.77498 8.16667L8.06665 9.45833C8.02498 9.63333 7.99998 9.80833 7.99998 10C7.99998 10.663 8.26337 11.2989 8.73221 11.7678C9.20105 12.2366 9.83694 12.5 10.5 12.5C10.6833 12.5 10.8666 12.475 11.0416 12.4333L12.3333 13.725C11.775 14 11.1583 14.1667 10.5 14.1667C9.39491 14.1667 8.3351 13.7277 7.5537 12.9463C6.7723 12.1649 6.33331 11.1051 6.33331 10C6.33331 9.34167 6.49998 8.725 6.77498 8.16667ZM2.16665 3.55833L4.06665 5.45833L4.44165 5.83333C3.06665 6.91667 1.98331 8.33333 1.33331 10C2.77498 13.6583 6.33331 16.25 10.5 16.25C11.7916 16.25 13.025 16 14.15 15.55L14.5083 15.9L16.9416 18.3333L18 17.275L3.22498 2.5L2.16665 3.55833ZM10.5 5.83333C11.605 5.83333 12.6649 6.27232 13.4463 7.05372C14.2277 7.83512 14.6666 8.89493 14.6666 10C14.6666 10.5333 14.5583 11.05 14.3666 11.5167L16.8083 13.9583C18.0583 12.9167 19.0583 11.55 19.6666 10C18.225 6.34167 14.6666 3.75 10.5 3.75C9.33331 3.75 8.21665 3.95833 7.16665 4.33333L8.97498 6.125C9.44998 5.94167 9.95831 5.83333 10.5 5.83333Z" fill="#7E95C0"/>
</svg>
