<svg width="20" height="20" viewBox="0 0 20 20" fill="none" xmlns="http://www.w3.org/2000/svg">
<path d="M5.83333 8.3335H10V12.5002H5.83333V8.3335ZM15.8333 15.8335H4.16667V6.66683H15.8333V15.8335ZM15.8333 2.50016H15V0.833496H13.3333V2.50016H6.66667V0.833496H5V2.50016H4.16667C3.24167 2.50016 2.5 3.25016 2.5 4.16683V15.8335C2.5 16.2755 2.67559 16.6994 2.98816 17.012C3.30072 17.3246 3.72464 17.5002 4.16667 17.5002H15.8333C16.2754 17.5002 16.6993 17.3246 17.0118 17.012C17.3244 16.6994 17.5 16.2755 17.5 15.8335V4.16683C17.5 3.7248 17.3244 3.30088 17.0118 2.98832C16.6993 2.67576 16.2754 2.50016 15.8333 2.50016Z" fill="#7E95C0"/>
</svg>
