<svg width="18" height="18" viewBox="0 0 18 18" fill="none" xmlns="http://www.w3.org/2000/svg">
<path d="M8.16699 6.50008H9.83366V4.83342H8.16699V6.50008ZM9.00033 15.6667C5.32533 15.6667 2.33366 12.6751 2.33366 9.00008C2.33366 5.32508 5.32533 2.33341 9.00033 2.33341C12.6753 2.33341 15.667 5.32508 15.667 9.00008C15.667 12.6751 12.6753 15.6667 9.00033 15.6667ZM9.00033 0.666748C7.90598 0.666748 6.82234 0.882296 5.8113 1.30109C4.80025 1.71987 3.88159 2.3337 3.10777 3.10752C1.54497 4.67033 0.666992 6.78994 0.666992 9.00008C0.666992 11.2102 1.54497 13.3298 3.10777 14.8926C3.88159 15.6665 4.80025 16.2803 5.8113 16.6991C6.82234 17.1179 7.90598 17.3334 9.00033 17.3334C11.2105 17.3334 13.3301 16.4554 14.8929 14.8926C16.4557 13.3298 17.3337 11.2102 17.3337 9.00008C17.3337 7.90573 17.1181 6.8221 16.6993 5.81105C16.2805 4.80001 15.6667 3.88135 14.8929 3.10752C14.1191 2.3337 13.2004 1.71987 12.1894 1.30109C11.1783 0.882296 10.0947 0.666748 9.00033 0.666748ZM8.16699 13.1667H9.83366V8.16675H8.16699V13.1667Z" fill="#E78488"/>
</svg>
