<?xml version="1.0" encoding="iso-8859-1"?>
<!-- Generator: Adobe Illustrator 17.0.0, SVG Export Plug-In . SVG Version: 6.00 Build 0)  -->
<!DOCTYPE svg PUBLIC "-//W3C//DTD SVG 1.1//EN" "http://www.w3.org/Graphics/SVG/1.1/DTD/svg11.dtd">
<svg version="1.1" id="&#x421;&#x43B;&#x43E;&#x439;_1"
	 xmlns="http://www.w3.org/2000/svg" xmlns:xlink="http://www.w3.org/1999/xlink" x="0px" y="0px" width="233.956px"
	 height="58.25px" viewBox="0 0 233.956 58.25" style="enable-background:new 0 0 233.956 58.25;" xml:space="preserve">
<g>
	<defs>
		<rect id="SVGID_1_" width="233.956" height="58.25"/>
	</defs>
	<clipPath id="SVGID_2_">
		<use xlink:href="#SVGID_1_"  style="overflow:visible;"/>
	</clipPath>
	<g style="clip-path:url(#SVGID_2_);">
		<defs>
			<rect id="SVGID_3_" width="233.956" height="58.25"/>
		</defs>
		<clipPath id="SVGID_4_">
			<use xlink:href="#SVGID_3_"  style="overflow:visible;"/>
		</clipPath>
		<path style="clip-path:url(#SVGID_4_);fill:#00BA47;" d="M25.25,7.75C11.305,7.75,0,19.055,0,33c0,0.196,0.01,0.389,0.015,0.584
			C0.326,47.258,11.5,58.25,25.25,58.25s24.924-10.992,25.235-24.666C50.49,33.389,50.5,33.196,50.5,33
			C50.5,19.055,39.195,7.75,25.25,7.75 M25.25,55.167c-12.047,0-21.842-9.611-22.152-21.583h2.577
			c0.312,10.555,8.945,19.02,19.575,19.02s19.263-8.465,19.575-19.02h2.577C47.092,45.556,37.297,55.167,25.25,55.167"/>
	</g>
	<g style="clip-path:url(#SVGID_2_);">
		<defs>
			<rect id="SVGID_5_" width="233.956" height="58.25"/>
		</defs>
		<clipPath id="SVGID_6_">
			<use xlink:href="#SVGID_5_"  style="overflow:visible;"/>
		</clipPath>
		<path style="clip-path:url(#SVGID_6_);fill:#FFFFFF;" d="M82.166,23.177c-3.096,0-5.367,1.192-6.916,3.131v-1.766H68.5v30.625
			h6.75v-11.09c1.549,1.939,3.82,3.131,6.916,3.131c6.605,0,11.959-5.379,11.959-12.016C94.125,28.557,88.771,23.177,82.166,23.177
			 M81.486,42c-3.444,0-6.236-3.237-6.236-7.229c0-3.993,2.792-7.229,6.236-7.229c3.445,0,6.237,3.236,6.237,7.229
			C87.723,38.763,84.931,42,81.486,42"/>
		<path style="clip-path:url(#SVGID_6_);fill:#FFFFFF;" d="M141.083,23.167c-1.167,0-4.25,0.208-6.375,1.375
			c-0.475,0.261-0.897,0.665-1.271,1.129v-1.129h-6.75v21.187h6.75V31.737c0.148-0.232,0.295-0.442,0.438-0.612
			c1.083-1.291,2.208-1.875,4.458-2.583S143,28.417,143,28.417v-5.25H141.083z"/>
		<path style="clip-path:url(#SVGID_6_);fill:#FFFFFF;" d="M160.479,0c-1.167,0-4.25,0.208-6.375,1.375
			c-2.125,1.167-3.25,5.125-3.25,5.125v1.333v4.875v0.896h-4.229v4.188c0,0,1.5-0.188,3.094,1.375
			c0.494,0.484,0.85,0.834,1.135,1.161v25.401h6.75v-34V7.833V5.674c2.259-0.679,4.792-0.424,4.792-0.424V0H160.479z"/>
		<path style="clip-path:url(#SVGID_6_);fill:#FFFFFF;" d="M229.165,41.534v-2.159v-3.896V16.104h-6.75V26.88
			c-0.286,0.327-0.641,0.676-1.136,1.161c-1.593,1.563-3.093,1.375-3.093,1.375v4.188h4.229V34.5v4.875v1.333
			c0,0,1.125,3.958,3.25,5.125s5.208,1.375,6.375,1.375h1.917v-5.25C233.957,41.958,231.424,42.213,229.165,41.534"/>
		<path style="clip-path:url(#SVGID_6_);fill:#FFFFFF;" d="M116.358,36.25h6.126c0.033-0.351,0.057-0.704,0.057-1.062
			c0-6.639-5.699-12.021-12.729-12.021c-7.03,0-12.729,5.382-12.729,12.021c0,4.544,2.672,8.498,6.612,10.541
			c1.816,0.942,3.899,1.48,6.117,1.48c2.218,0,4.301-0.538,6.117-1.48c1.55-0.804,2.891-1.913,3.96-3.229
			c0.841-1.035,1.519-2.196,1.972-3.458h-6.662c-1.217,1.791-3.174,2.958-5.387,2.958c-3.224,0-5.915-2.467-6.546-5.75h3.483
			H116.358z M109.813,27.542c2.93,0,5.414,2.04,6.317,4.875h-12.634C104.398,29.582,106.882,27.542,109.813,27.542"/>
		<path style="clip-path:url(#SVGID_6_);fill:#FFFFFF;" d="M184.472,36.25h6.126c0.033-0.351,0.057-0.704,0.057-1.062
			c0-6.639-5.699-12.021-12.729-12.021c-7.03,0-12.729,5.382-12.729,12.021c0,4.544,2.672,8.498,6.612,10.541
			c1.816,0.942,3.899,1.48,6.117,1.48c2.217,0,4.301-0.538,6.117-1.48c1.55-0.804,2.89-1.913,3.96-3.229
			c0.841-1.035,1.519-2.196,1.971-3.458h-6.661c-1.217,1.791-3.174,2.958-5.387,2.958c-3.225,0-5.915-2.467-6.546-5.75h3.483
			H184.472z M177.926,27.542c2.93,0,5.413,2.04,6.317,4.875h-12.635C172.512,29.582,174.996,27.542,177.926,27.542"/>
		<g style="opacity:0.6;clip-path:url(#SVGID_6_);">
			<g>
				<defs>
					<rect id="SVGID_7_" x="193.806" y="35.186" width="0.057" height="1.083"/>
				</defs>
				<clipPath id="SVGID_8_">
					<use xlink:href="#SVGID_7_"  style="overflow:visible;"/>
				</clipPath>
				<path style="clip-path:url(#SVGID_8_);fill:#AF76E2;" d="M193.806,35.188c0,0.365,0.023,0.725,0.058,1.082
					C193.83,35.912,193.806,35.552,193.806,35.188L193.806,35.188"/>
			</g>
		</g>
		<g style="opacity:0.4;clip-path:url(#SVGID_6_);">
			<g>
				<defs>
					<rect id="SVGID_9_" x="194.605" y="39.376" width="11.792" height="7.827"/>
				</defs>
				<clipPath id="SVGID_10_">
					<use xlink:href="#SVGID_9_"  style="overflow:visible;"/>
				</clipPath>
				<path style="clip-path:url(#SVGID_10_);fill:#32AD6A;" d="M194.605,39.376c1.776,4.567,6.353,7.827,11.735,7.827
					c0.019,0,0.038-0.003,0.057-0.003c-2.165-0.022-4.202-0.549-5.979-1.47C197.756,44.349,195.676,42.094,194.605,39.376"/>
			</g>
		</g>
		<path style="clip-path:url(#SVGID_6_);fill:#FFFFFF;" d="M214.188,25.82c-2.125-1.639-4.816-2.627-7.75-2.649
			c-6.984,0.05-12.631,5.408-12.631,12.015c0,0.365,0.023,0.725,0.057,1.083c0.01,0.105,0.021,0.21,0.034,0.315
			c0.033,0.27,0.077,0.537,0.128,0.801c0.02,0.105,0.037,0.211,0.06,0.314c0.063,0.287,0.142,0.567,0.227,0.845
			c0.058,0.191,0.123,0.379,0.191,0.567c0.033,0.088,0.067,0.176,0.101,0.264c1.072,2.718,3.151,4.973,5.814,6.354
			c1.777,0.922,3.813,1.448,5.978,1.47c2.95-0.012,5.656-1.004,7.791-2.651v-5.507h-0.786c-1.362,1.787-3.563,2.953-6.053,2.953
			c-0.142,0-0.282-0.012-0.423-0.02c-0.131,0.008-0.259,0.026-0.39,0.026c-3.225,0-5.915-2.468-6.547-5.75h0.014
			c-0.097-0.46-0.149-0.935-0.149-1.423c0-0.847,0.364-2.411,0.364-2.411c0.904-2.835,3.388-4.875,6.318-4.875
			c0.43,0,0.847,0.057,1.255,0.141c1.998,0.111,3.772,0.979,5.047,2.297h1.35V25.82z"/>
	</g>
</g>
</svg>
