<svg width="71" height="70" viewBox="0 0 71 70" fill="none" xmlns="http://www.w3.org/2000/svg">
<path d="M46.9155 23.2077C46.9155 22.9936 46.8312 22.7918 46.681 22.6409C46.5301 22.4893 46.3283 22.4064 46.1142 22.4064H24.8879C24.6766 22.4064 24.47 22.4921 24.3218 22.6409C24.1703 22.7925 24.0867 22.9936 24.0867 23.2077V51.5094C24.0867 51.7235 24.1709 51.9246 24.3211 52.0762C24.47 52.225 24.6766 52.3107 24.8879 52.3107H46.1142C46.3283 52.3107 46.5301 52.2271 46.6803 52.0762C46.8319 51.9246 46.9155 51.7235 46.9155 51.5094V23.2077ZM45.313 50.3303C45.313 50.5389 45.1437 50.7081 44.9351 50.7081H26.0671C25.8584 50.7081 25.6892 50.5389 25.6892 50.3303V43.2548C25.6892 43.0462 25.8584 42.877 26.0671 42.877H44.9358C45.1444 42.877 45.3136 43.0462 45.3136 43.2548V50.3303H45.313ZM45.313 40.8966C45.313 41.1052 45.1437 41.2745 44.9351 41.2745H26.0671C25.8584 41.2745 25.6892 41.1052 25.6892 40.8966V33.8212C25.6892 33.6125 25.8584 33.4433 26.0671 33.4433H44.9358C45.1444 33.4433 45.3136 33.6125 45.3136 33.8212V40.8966H45.313ZM45.313 31.4622C45.313 31.6709 45.1437 31.8401 44.9351 31.8401H26.0671C25.8584 31.8401 25.6892 31.6709 25.6892 31.4622V24.3868C25.6892 24.1782 25.8584 24.009 26.0671 24.009H44.9358C45.1444 24.009 45.3136 24.1782 45.3136 24.3868V31.4622H45.313Z" fill="#3F496A"/>
<path d="M50.8322 15.7541H55.5473C55.756 15.7541 55.9252 15.9233 55.9252 16.1319V18.4908C55.9252 18.6995 55.756 18.8687 55.5473 18.8687H53.5663V20.4719H64.6038V18.8687H62.6228C62.4141 18.8687 62.2449 18.6995 62.2449 18.4908V16.1319C62.2449 15.9233 62.4141 15.7541 62.6228 15.7541H67.3399C68.182 15.7513 68.9751 15.4217 69.5711 14.8257C70.1671 14.229 70.4967 13.4359 70.4995 12.5932V3.16019C70.4967 2.31815 70.1671 1.52505 69.5711 0.929028C68.9751 0.33233 68.182 0.00271844 67.3393 0H50.8308C49.9881 0.00271844 49.1957 0.33233 48.599 0.928348C48.003 1.52437 47.6734 2.31747 47.6707 3.16087V12.5939C47.6734 13.4359 48.0023 14.229 48.599 14.8257C49.1957 15.4217 49.9881 15.7513 50.8322 15.7541ZM60.6424 18.4908C60.6424 18.6995 60.4732 18.8687 60.2645 18.8687H57.9063C57.6976 18.8687 57.5284 18.6995 57.5284 18.4908V16.1319C57.5284 15.9233 57.6976 15.7541 57.9063 15.7541H60.2645C60.4732 15.7541 60.6424 15.9233 60.6424 16.1319V18.4908ZM49.2739 12.0536V11.4147V9.05649V8.24504V3.16019C49.2739 2.7497 49.4404 2.34873 49.7299 2.05922C50.0228 1.76563 50.4142 1.6032 50.8308 1.6032H67.3406C67.7559 1.6032 68.1473 1.76495 68.4416 2.05922C68.7311 2.34941 68.8976 2.75106 68.8976 3.16019V7.35271V9.05649C68.8976 9.06872 68.8922 9.0796 68.8908 9.09183L68.882 11.3352C68.8881 11.3617 68.8976 11.3869 68.8976 11.4154V12.5945C68.8976 13.0043 68.7311 13.4053 68.4423 13.6955C68.1466 13.9898 67.7559 14.1515 67.3406 14.1515H50.8308C50.4142 14.1515 50.0235 13.9898 49.7292 13.6955C49.4397 13.406 49.2739 13.005 49.2739 12.5945V12.0536Z" fill="#3F496A"/>
<path d="M50.4536 55.0471C50.4536 54.6319 50.6153 54.2404 50.9083 53.9461C51.2032 53.6526 51.5947 53.4908 52.0099 53.4908H66.1614C66.5767 53.4908 66.9681 53.6526 67.2624 53.9455C67.5567 54.2397 67.7184 54.6312 67.7184 55.0471V61.165L69.3216 61.131V55.0471C69.3189 54.2051 68.9886 53.412 68.3926 52.816C67.7966 52.2199 67.0035 51.8903 66.1601 51.8876H52.0106C51.1685 51.8903 50.3754 52.2199 49.7794 52.816C49.1834 53.4126 48.8538 54.2051 48.8511 55.0485V61.5646L50.4543 61.5306V55.0471H50.4536Z" fill="#637EA8"/>
<path d="M69.7778 63.6954L48.3748 63.6995C48.1995 63.7219 48.0344 63.7879 47.9066 63.9149C47.7557 64.0658 47.6721 64.267 47.6721 64.4811V66.84C47.6748 67.682 48.0038 68.4751 48.6005 69.0718C49.1972 69.6685 49.9896 69.9975 50.8337 70.0002H67.3407C68.1841 69.9975 68.9772 69.6679 69.5733 69.0718C70.1693 68.4751 70.4989 67.682 70.5016 66.8386V64.4811C70.5016 64.267 70.418 64.0658 70.2665 63.9143C70.1339 63.7824 69.9613 63.7138 69.7778 63.6954ZM68.8984 66.84C68.8984 67.2552 68.7367 67.6453 68.4431 67.941C68.1481 68.2352 67.7573 68.397 67.3414 68.397H50.8316C50.415 68.397 50.0243 68.2352 49.73 67.941C49.4357 67.6467 49.2746 67.2559 49.2746 66.84V65.6609C49.2746 65.4522 49.4439 65.283 49.6525 65.283H68.5205C68.7292 65.283 68.8984 65.4522 68.8984 65.6609V66.84Z" fill="#E8A15B"/>
<path d="M3.66117 68.3967C3.24457 68.3967 2.85379 68.2349 2.55952 67.9406C2.26593 67.6471 2.10418 67.2563 2.10418 66.8397V52.6888C2.10418 52.2729 2.26593 51.8814 2.5602 51.5879C2.85379 51.2936 3.24457 51.1318 3.66117 51.1318H13.0942C13.5108 51.1318 13.9015 51.2936 14.1958 51.5879C14.4894 51.8814 14.6512 52.2729 14.6512 52.6888V53.3195L16.2544 53.2101V52.6881C16.2516 51.8461 15.922 51.053 15.326 50.457C14.73 49.8616 13.9369 49.5314 13.0928 49.528H3.66117C2.81845 49.5314 2.02534 49.861 1.42932 50.457C0.833306 51.0537 0.503695 51.8468 0.500977 52.6902V66.8397C0.503695 67.6817 0.833306 68.4748 1.42932 69.0715C2.02534 69.6682 2.81845 69.9972 3.66253 69.9999H9.6465C9.31281 69.4997 8.94106 68.939 8.58291 68.3967H3.66117Z" fill="#3F496A"/>
<path d="M17.8116 54.2456H16.9104H16.6332H14.2742H13.7679H13.0958C12.2538 54.2483 11.4613 54.5779 10.8646 55.174C10.2686 55.77 9.939 56.5631 9.93628 57.4065V66.8395C9.93968 67.1969 10.0036 67.551 10.1259 67.8902C10.1476 67.9506 10.1517 68.0145 10.1422 68.0757C10.3101 68.6364 10.5955 69.299 11.0705 69.721C11.1725 69.8121 11.269 69.9059 11.3628 69.9997H17.8116C18.655 69.9969 19.4481 69.6673 20.0441 69.0713C20.6395 68.4746 20.9698 67.6815 20.9732 66.8381V57.4051C20.9698 56.5631 20.6395 55.77 20.0441 55.174C19.4481 54.5779 18.655 54.2483 17.8116 54.2456ZM19.37 66.8395C19.37 67.2561 19.2082 67.6468 18.9139 67.9411C18.6203 68.2347 18.2289 68.3965 17.813 68.3965H13.0958C12.6792 68.3965 12.2884 68.2347 11.9948 67.9404C11.7005 67.6468 11.5395 67.2561 11.5395 66.8395V57.4051C11.5395 56.9892 11.7012 56.5977 11.9955 56.3041C12.2843 56.014 12.686 55.8488 13.0958 55.8488H17.813C18.2282 55.8488 18.6197 56.0106 18.9139 56.3035C19.2089 56.5977 19.37 56.9892 19.37 57.4051V66.8395Z" fill="#E8A15B"/>
<path d="M2.58836 16.2733C3.83136 17.4531 5.46107 18.1069 7.17505 18.113H24.8626H24.8973C26.2701 18.113 27.5851 17.6053 28.6032 16.6831C29.628 15.7541 30.2641 14.4832 30.3919 13.1036C30.5204 11.7253 30.1289 10.3586 29.2909 9.25562C28.4537 8.15261 27.2412 7.4098 25.8793 7.16378C25.7243 7.13591 25.6034 7.01494 25.5748 6.86067C25.4335 6.09883 25.1406 5.38863 24.7036 4.7498C24.2659 4.11097 23.71 3.58087 23.0501 3.17514C22.3902 2.76873 21.6664 2.51048 20.8991 2.40718C20.1379 2.30388 19.3577 2.36369 18.6224 2.57844C18.4783 2.62194 18.3186 2.57233 18.2228 2.45339C17.6057 1.68951 16.8112 1.06223 15.925 0.640193C15.0463 0.221553 14.0656 0 13.0904 0C11.6714 0.00407766 10.3284 0.43563 9.18874 1.24777C8.04835 2.0599 7.20155 3.18805 6.74078 4.51058C6.6932 4.64718 6.57088 4.74436 6.42748 4.76135C4.72369 4.95912 3.17826 5.79028 2.07525 7.10125C0.970883 8.4129 0.416321 10.0779 0.511466 11.7892C0.607291 13.5005 1.34467 15.0935 2.58836 16.2733ZM3.52894 7.87669C4.46 6.90688 5.71253 6.3496 7.05544 6.30883C7.0833 6.31019 7.12 6.31087 7.15194 6.31834C7.18796 6.3265 7.22534 6.33125 7.26408 6.33261C7.26408 6.33261 7.26476 6.33261 7.26544 6.33261C7.46592 6.33261 7.64466 6.27009 7.7867 6.15727C7.93485 6.0397 8.03815 5.8732 8.07757 5.68902C8.27806 4.6832 8.77349 3.76912 9.51087 3.05009C10.2469 2.33106 11.1725 1.85738 12.1872 1.67932C13.1944 1.5033 14.2369 1.63582 15.17 2.06126C16.1079 2.48873 16.884 3.18058 17.4147 4.06271C17.518 4.23873 17.6791 4.36446 17.8701 4.42087C18.0597 4.47728 18.2677 4.45757 18.4423 4.36922C19.037 4.07359 19.7105 3.93291 20.3643 3.96757C21.0262 4.00019 21.6732 4.20271 22.2352 4.55475C22.7973 4.90679 23.2628 5.39951 23.5815 5.98057C23.9003 6.56096 24.0668 7.21882 24.0613 7.88212C24.0613 8.09009 24.147 8.29669 24.2958 8.44552C24.4474 8.59708 24.6492 8.68067 24.8626 8.68067C25.8936 8.68067 26.9021 9.09863 27.6313 9.82785C28.3701 10.5673 28.7778 11.55 28.7778 12.5966C28.7778 13.6432 28.3707 14.6259 27.6313 15.3653C26.9028 16.0945 25.8936 16.5125 24.8626 16.5125H7.17369C5.82602 16.5016 4.56127 15.9736 3.60913 15.0242C2.65768 14.0754 2.12486 12.8127 2.10991 11.4684C2.09496 10.1214 2.59855 8.84717 3.52894 7.87669Z" fill="#637EA8"/>
<path d="M30.4067 27.1232H28.8035V28.7264H30.4067V27.1232Z" fill="#E8A15B"/>
<path d="M36.3022 27.1232H34.699V28.7264H36.3022V27.1232Z" fill="#E8A15B"/>
<path d="M42.1977 27.1232H40.5945V28.7264H42.1977V27.1232Z" fill="#E8A15B"/>
<path d="M30.4067 36.5568H28.8035V38.16H30.4067V36.5568Z" fill="#637EA8"/>
<path d="M36.3022 36.5568H34.699V38.16H36.3022V36.5568Z" fill="#637EA8"/>
<path d="M42.1977 36.5568H40.5945V38.16H42.1977V36.5568Z" fill="#637EA8"/>
<path d="M30.4067 45.9904H28.8035V47.5936H30.4067V45.9904Z" fill="#E8A15B"/>
<path d="M36.3022 45.9904H34.699V47.5936H36.3022V45.9904Z" fill="#E8A15B"/>
<path d="M42.1977 45.9904H40.5945V47.5936H42.1977V45.9904Z" fill="#E8A15B"/>
<path d="M59.8865 23.5852H58.2833V30.2828C58.2833 30.4914 58.1141 30.6606 57.9054 30.6606H50.0281V32.2638H59.0846C59.2986 32.2638 59.4998 32.1802 59.6514 32.0287C59.8002 31.8792 59.8858 31.6726 59.8858 31.4619V23.5852H59.8865Z" fill="#637EA8"/>
<path d="M59.8865 48.7729V38.5373C59.8865 38.3266 59.8009 38.12 59.6514 37.9705C59.5025 37.8216 59.2959 37.736 59.0852 37.736H50.0281V39.3392H57.9054C58.1141 39.3392 58.2833 39.5084 58.2833 39.7171V48.7735H59.8865V48.7729Z" fill="#637EA8"/>
<path d="M20.9717 30.6607H13.0943C12.8857 30.6607 12.7165 30.4915 12.7165 30.2829V21.2264H11.1133V31.462C11.1133 31.6761 11.1969 31.8779 11.3484 32.0288C11.5 32.1803 11.7011 32.2639 11.9152 32.2639H20.9717V30.6607Z" fill="#637EA8"/>
<path d="M11.3484 37.971C11.1976 38.1219 11.1133 38.323 11.1133 38.5371V46.4138H12.7165V39.7162C12.7165 39.5076 12.8857 39.3384 13.0943 39.3384H20.9717V37.7352H11.9152C11.7045 37.7352 11.4986 37.8215 11.3484 37.971Z" fill="#637EA8"/>
<path d="M14.6525 53.8681C14.6525 54.0767 14.4833 54.2459 14.2747 54.2459H16.6336C16.4249 54.2459 16.2557 54.0767 16.2557 53.8681V53.2102L14.6525 53.3196V53.8681Z" fill="#3F496A"/>
<path d="M10.1423 68.0758C10.1335 68.1322 10.1138 68.1873 10.0798 68.2355C10.0091 68.3368 9.89427 68.3966 9.77058 68.3966H8.58398C8.94214 68.9389 9.31389 69.4996 9.64757 69.9998H11.3629C11.2691 69.906 11.1726 69.8116 11.0707 69.7212C10.5956 69.2991 10.3102 68.6365 10.1423 68.0758Z" fill="#3F496A"/>
<path d="M69.6995 63.6795C69.4909 63.6795 69.3217 63.5103 69.3217 63.3016V61.1303L67.7185 61.1649V63.3023C67.7185 63.511 67.5492 63.6802 67.3406 63.6802H50.8315C50.6229 63.6802 50.4536 63.511 50.4536 63.3023V61.5306L48.8504 61.5646V63.3023C48.8504 63.511 48.6812 63.6802 48.4726 63.6802C48.4386 63.6802 48.408 63.6951 48.374 63.6999L69.777 63.6958C69.7512 63.6924 69.7267 63.6795 69.6995 63.6795Z" fill="#637EA8"/>
<path d="M49.6523 11.037H68.5203C68.7004 11.037 68.8445 11.1655 68.8819 11.3347L68.8907 9.09128C68.8723 9.28225 68.7167 9.4338 68.5203 9.4338H49.6523C49.4436 9.4338 49.2744 9.26458 49.2744 9.05594V11.4142C49.2744 11.2062 49.4436 11.037 49.6523 11.037Z" fill="#E8A15B"/>
</svg>
