<svg width="71" height="70" viewBox="0 0 71 70" fill="none" xmlns="http://www.w3.org/2000/svg">
<path d="M64.0793 20.1314C64.0793 19.7128 63.7388 19.3723 63.3202 19.3723C62.9015 19.3723 62.561 19.7128 62.561 20.1314V32.9496L64.0793 33.1249V20.1314Z" fill="#E8A15B"/>
<path d="M69.7419 34.2405H64.6714H64.0801H62.5618H59.8006H58.2823H57.634H52.6212C52.2025 34.2405 51.8621 34.581 51.8621 34.9996V41.7441V42.8002V44.3184V68.4813V69.9995H69.7419C70.1606 69.9995 70.5011 69.659 70.5011 69.2404V34.9996C70.5011 34.581 70.1606 34.2405 69.7419 34.2405ZM68.9828 68.4813H53.381L53.3803 35.7587H68.9828V68.4813Z" fill="#637EA8"/>
<path d="M44.8196 17.1205V5.79822H57.0614L57.0913 4.27997H44.0605C43.6419 4.27997 43.3014 4.62045 43.3014 5.03909V8.56083H31.2206C30.8971 8.63287 30.6532 8.77015 30.5512 8.9618C30.4493 9.15345 30.4703 9.43209 30.6151 9.79093L34.5874 15.7396L30.5886 21.7378C30.4703 22.047 30.4486 22.3257 30.5512 22.5173C30.6532 22.709 30.8978 22.8456 31.2764 22.9244L48.2931 22.9183C48.7118 22.9183 49.0522 22.5778 49.0522 22.1592V18.6388H56.8093L56.8392 17.1205H44.8196ZM47.5333 21.4H32.6397L36.1322 16.1609C36.3034 15.9047 36.3034 15.5744 36.1328 15.3189L32.6397 10.0798H43.3014V17.8803C43.3014 18.299 43.6419 18.6395 44.0605 18.6395H47.5333V21.4Z" fill="#E8A15B"/>
<path d="M11.4322 59.9206C11.0136 59.9206 10.6731 60.2611 10.6731 60.6797C10.6731 61.0984 11.0136 61.4388 11.4322 61.4388H15.9306L16.0407 59.9206H11.4322Z" fill="#3F496A"/>
<path d="M59.799 1.51825H62.5603V15.6276C62.5603 16.0463 62.9008 16.3868 63.3194 16.3868C63.7381 16.3868 64.0785 16.0463 64.0785 15.6276V0.759125C64.0792 0.340485 63.7387 0 63.3201 0H59.0406C58.622 0 58.2815 0.340485 58.2815 0.759125V4.28018H58.2278V5.79843H58.2815V17.1207H58.2278V18.639H58.2815V32.4548L59.7997 32.6301V1.51825H59.799Z" fill="#3F496A"/>
<path d="M36.2604 68.4815V44.3186H41.8095C42.2281 44.3186 42.5686 43.9781 42.5686 43.5595C42.5686 43.1408 42.2281 42.8004 41.8095 42.8004H35.5013C35.0827 42.8004 34.7422 43.1408 34.7422 43.5595V50.2115V51.3607V52.879V68.4815V69.9997H49.4082L49.4646 68.4815H36.2604Z" fill="#3F496A"/>
<path d="M19.1391 68.4819V52.8794H32.9182L33.0426 51.3611H18.38C17.9613 51.3611 17.6208 51.7016 17.6208 52.1203V55.9315V59.9208V70.0001H31.5128L31.6371 68.4819H19.1391Z" fill="#637EA8"/>
<path d="M46.3138 42.8004C45.8952 42.8004 45.5547 43.1408 45.5547 43.5595C45.5547 43.9781 45.8952 44.3186 46.3138 44.3186H50.3609L50.4173 42.8004H46.3138Z" fill="#3F496A"/>
<path d="M2.01923 68.4816V61.4388H6.92737C7.34601 61.4388 7.6865 61.0984 7.6865 60.6797C7.6865 60.2611 7.34601 59.9206 6.92737 59.9206H1.2601C0.841461 59.9206 0.500977 60.2611 0.500977 60.6797V69.2408C0.500977 69.6594 0.841461 69.9999 1.2601 69.9999H15.309L15.4191 68.4816H2.01923Z" fill="#3F496A"/>
<path d="M58.2287 5.79822V4.27997H57.0924L57.0625 5.79822H58.2287Z" fill="#E8A15B"/>
<path d="M56.839 17.1207L56.8091 18.6389H58.2281V17.1207H56.839Z" fill="#E8A15B"/>
<path d="M64.08 34.2407V33.1241L62.561 32.9487V34.2407H64.08Z" fill="#E8A15B"/>
<path d="M59.8005 34.2408V32.6301L58.283 32.4548V34.2408H59.8005Z" fill="#3F496A"/>
<path d="M51.8628 42.8004H50.418L50.3616 44.3186H51.8628V42.8004Z" fill="#3F496A"/>
<path d="M49.4641 68.4818L49.4077 70H51.8625V68.4818H49.4641Z" fill="#3F496A"/>
<path d="M31.6371 68.4818L31.5127 70H34.7408V68.4818H31.6371Z" fill="#637EA8"/>
<path d="M34.7426 52.8794V51.3611H33.0443L32.9199 52.8794H34.7426Z" fill="#637EA8"/>
<path d="M16.0396 59.9206L15.9295 61.4388H17.6204V68.4816H15.4184L15.3083 69.9999H17.6211V59.9206H16.0396Z" fill="#3F496A"/>
</svg>
