<svg width="73" height="70" viewBox="0 0 73 70" fill="none" xmlns="http://www.w3.org/2000/svg">
<path d="M6.09873 24.2682C6.23058 24.29 6.32776 24.4048 6.32776 24.5387V28.7108C6.32776 29.1471 6.68456 29.5012 7.1229 29.5012C7.33562 29.5012 7.53679 29.4183 7.68766 29.2674L12.521 24.4333C12.572 24.3824 12.642 24.3532 12.7147 24.3532H27.5982C27.7273 24.3532 27.8395 24.4442 27.8666 24.5713C28.0631 25.5037 28.5204 26.3519 29.1892 27.0247C30.1073 27.951 31.3293 28.4607 32.63 28.4607H38.9035C39.3398 28.4607 39.6939 28.106 39.6939 27.6697C39.6939 27.2313 39.3391 26.8752 38.9035 26.8752H32.63C31.7513 26.8752 30.9276 26.532 30.3098 25.9108C29.9768 25.5771 29.7165 25.166 29.5568 24.7208C29.5269 24.6372 29.5392 24.5434 29.5908 24.4707C29.6418 24.398 29.7254 24.3545 29.8151 24.3545H30.5572C32.21 24.3545 33.7643 23.7082 34.9346 22.5352C36.1083 21.3649 36.7546 19.81 36.7546 18.1571V10.309C36.7546 10.3076 36.7553 10.307 36.7553 10.3056V8.17435V7.03533V6.19737C36.7553 4.54795 36.109 2.99368 34.9346 1.82C33.7595 0.646309 32.2053 0 30.5559 0H7.1229C5.47417 0 3.91922 0.646309 2.74553 1.82C1.57185 2.993 0.925537 4.54795 0.925537 6.19737V18.1558C0.925537 19.8093 1.57185 21.3635 2.74553 22.5332C3.66369 23.4554 4.82378 24.0555 6.09873 24.2682ZM2.51175 6.19737C2.51175 4.97203 2.99291 3.81533 3.86689 2.94135C4.74087 2.06805 5.89757 1.58621 7.1229 1.58621H30.5559C31.7819 1.58621 32.9379 2.06805 33.8119 2.94135C34.6859 3.81533 35.167 4.97203 35.167 6.19737V18.1558C35.167 19.3811 34.6859 20.5378 33.8119 21.4125C32.9386 22.2851 31.7819 22.7669 30.5559 22.7669H12.271C12.0603 22.7669 11.8618 22.8499 11.7103 23.0014L8.38222 26.3261C8.32989 26.3784 8.25989 26.4063 8.18853 26.4063C8.15319 26.4063 8.11785 26.3988 8.08319 26.3852C7.98057 26.3431 7.91397 26.2432 7.91397 26.1324V23.5621C7.91397 23.1237 7.55853 22.7676 7.1229 22.7676C5.89689 22.7676 4.74087 22.2858 3.86689 21.4125C2.99291 20.5378 2.51175 19.3811 2.51175 18.1558V6.19737Z" fill="#3F496A"/>
<path d="M55.1598 10.0346C56.0317 10.0346 56.854 10.3771 57.4759 10.9983C58.0971 11.6201 58.4396 12.4424 58.4396 13.3137V23.5935C58.4396 24.4654 58.0971 25.2877 57.4759 25.9096C56.854 26.5307 56.0317 26.8733 55.1598 26.8733C54.7208 26.8733 54.3646 27.2301 54.3646 27.6684V30.238C54.3646 30.3488 54.298 30.4487 54.1954 30.4908C54.0921 30.533 53.9752 30.5105 53.8964 30.4317L50.5758 27.1111C50.4249 26.9562 50.2251 26.8726 50.0111 26.8726H43.7376C43.2985 26.8726 42.9424 27.2294 42.9424 27.6677C42.9424 28.104 43.2992 28.4581 43.7376 28.4581H49.5673C49.64 28.4581 49.71 28.4873 49.761 28.5383L54.5984 33.3758C54.8968 33.6755 55.4214 33.6748 55.7198 33.3765C55.8686 33.2276 55.9508 33.0285 55.9508 32.8151V28.6192C55.9508 28.4901 56.0419 28.3779 56.1683 28.3507C57.0872 28.1564 57.9272 27.699 58.5972 27.0289C59.5188 26.108 60.0258 24.8875 60.0258 23.5914V13.3144C60.0258 12.0197 59.5188 10.7984 58.5972 9.87758C57.6764 8.95603 56.4558 8.44904 55.1598 8.44904H38.0513L38.2953 10.0352H55.1598V10.0346Z" fill="#3F496A"/>
<path d="M8.95928 18.5873H18.8401C19.2785 18.5873 19.6353 18.2305 19.6353 17.7922C19.6353 17.3538 19.2785 16.9977 18.8401 16.9977H8.95928C8.52297 16.9977 8.16821 17.3545 8.16821 17.7922C8.16821 18.2312 8.52297 18.5873 8.95928 18.5873Z" fill="#637EA8"/>
<path d="M8.95928 7.35439H28.721C29.1573 7.35439 29.5121 6.99759 29.5121 6.55993C29.5121 6.12294 29.1566 5.76886 28.721 5.76886H8.95928C8.52297 5.76886 8.16821 6.12362 8.16821 6.55993C8.16821 6.99827 8.52297 7.35439 8.95928 7.35439Z" fill="#E8A15B"/>
<path d="M31.3523 45.9353C31.457 46.0555 31.565 46.1718 31.6778 46.2846C32.9154 47.5262 34.5587 48.2099 36.306 48.2099C38.0193 48.2099 39.6333 47.548 40.8668 46.3491C41.7993 45.4004 42.2682 44.4021 42.47 43.8686C42.7263 43.1536 42.8622 42.4115 42.8622 41.6578V32.2608C42.8622 31.8218 42.5054 31.4657 42.067 31.4657H33.7717C32.704 31.4657 31.6955 31.8843 30.9316 32.6441C30.1718 33.4073 29.7532 34.4159 29.7532 35.4842V41.6571C29.7532 42.5284 29.9224 43.3752 30.2568 44.1744C30.2799 44.2301 30.2785 44.2879 30.2656 44.3422C30.4851 44.8241 30.814 45.3623 31.3034 45.9053C31.319 45.9169 31.3394 45.9203 31.3523 45.9353ZM31.3401 35.4842C31.3401 34.8386 31.5936 34.2296 32.0537 33.7689C32.5165 33.3061 33.1268 33.0512 33.7724 33.0512H40.998C41.1489 33.0512 41.2726 33.1742 41.2726 33.3258V36.2746C41.2726 36.4255 41.1496 36.5492 40.998 36.5492H31.6139C31.4631 36.5492 31.3401 36.4261 31.3401 36.2746V35.4842ZM31.3394 38.4092C31.3394 38.2584 31.4624 38.1347 31.6133 38.1347H40.998C41.0707 38.1347 41.1407 38.1639 41.1917 38.2149C41.2427 38.2665 41.2719 38.3358 41.2719 38.4086L41.2712 41.6557C41.2712 42.9755 40.7527 44.2199 39.8114 45.1625C38.8735 46.1031 37.6285 46.6223 36.3046 46.6223C34.9855 46.6223 33.7404 46.1038 32.7985 45.1625C31.8566 44.2206 31.338 42.9755 31.338 41.6557V38.4092H31.3394Z" fill="#637EA8"/>
<path d="M1.49633 46.8809C0.748758 47.7468 0.336914 48.8477 0.336914 49.98V57.1777C0.336914 57.614 0.693709 57.9681 1.13206 57.9681C1.56837 57.9681 1.92312 57.6133 1.92312 57.1777V49.98C1.92312 49.2249 2.19565 48.4909 2.69108 47.9133C2.96157 47.6027 3.29526 47.3539 3.65817 47.1677L2.19089 46.2292C1.94215 46.4229 1.70769 46.6376 1.49633 46.8809Z" fill="#637EA8"/>
<path d="M44.7611 47.4523C45.5148 48.0992 45.9144 48.7782 45.9144 49.4156V52.4963L47.5006 52.5031V49.4163C47.5006 48.3086 46.9087 47.2137 45.788 46.2514C45.2293 45.7702 44.5232 45.323 43.7247 44.9241L42.7297 46.1943C43.5283 46.5667 44.2235 46.9915 44.7611 47.4523Z" fill="#3F496A"/>
<path d="M71.8717 57.9688C72.3087 57.9688 72.6628 57.6141 72.6628 57.1784V49.98C72.6628 48.8614 72.2618 47.7726 71.5346 46.9136C71.5054 46.879 71.4687 46.8538 71.4388 46.8198L70.1516 47.757C70.2101 47.8161 70.2719 47.8705 70.3263 47.9337C70.8108 48.5053 71.0772 49.2311 71.0772 49.9793V57.1771C71.0772 57.6141 71.4334 57.9688 71.8717 57.9688Z" fill="#637EA8"/>
<path d="M57.6734 46.7457L52.2637 53.9101C52.2114 53.9781 52.1305 54.0189 52.0449 54.0189H48.8997H47.7729H45.6382H45.2264C44.2043 54.0189 43.2433 54.4171 42.5188 55.1409C41.7957 55.864 41.3975 56.825 41.3975 57.8478C41.3975 58.4995 41.5538 59.1173 41.8644 59.6861C41.8752 59.7065 41.8752 59.7296 41.8807 59.7521C42.5446 60.9081 44.0004 61.4592 44.767 61.6774H56.3339C56.4848 61.6774 56.6085 61.8004 56.6085 61.952V68.1405C56.6085 68.2119 56.5793 68.2764 56.5344 68.3253V69.9999H71.8712C72.3082 69.9999 72.6623 69.6451 72.6623 69.2095V62.0118C72.6623 61.5755 72.3075 61.2214 71.8712 61.2214C71.4328 61.2214 71.0767 61.5761 71.0767 62.0118V68.1398C71.0767 68.2907 70.9537 68.4144 70.8022 68.4144H58.4679C58.317 68.4144 58.1934 68.2914 58.1934 68.1398V58.8359C58.1934 58.7761 58.2131 58.7184 58.2491 58.6708L61.8598 53.8863C61.9876 53.7178 62.042 53.5098 62.0128 53.2998C61.9842 53.0898 61.8755 52.9043 61.7076 52.7765C61.3671 52.521 60.854 52.5937 60.5985 52.9329L56.8022 57.9559C56.7247 58.0592 56.6418 58.1754 56.5541 58.2991C56.1498 58.8665 55.6462 59.572 55.0801 59.8547C54.6947 60.0504 54.3807 60.0898 54.0008 60.0898H45.2264C44.6277 60.0898 44.0643 59.856 43.6409 59.432C43.2175 59.0092 42.9837 58.4458 42.9837 57.8464C42.9837 57.2525 43.2168 56.6897 43.6402 56.2616C44.0622 55.8395 44.6249 55.6071 45.2264 55.6071H52.5737C52.8183 55.6071 53.0555 55.4882 53.207 55.2884L58.9396 47.6958C59.0911 47.496 59.2766 47.339 59.4758 47.2037L58.3476 46.06C58.0975 46.2591 57.8712 46.4854 57.6734 46.7457Z" fill="#637EA8"/>
<path d="M27.0877 49.4158C27.0877 48.7919 27.4499 48.1544 28.1642 47.521C28.6154 47.1166 29.2013 46.7381 29.8727 46.3935L29.0123 45.0608C28.2797 45.4509 27.63 45.8832 27.1121 46.3439C26.0431 47.2981 25.5015 48.3318 25.5015 49.4158V52.4101L27.0884 52.4169V49.4158H27.0877Z" fill="#3F496A"/>
<path d="M16.3954 61.9513C16.3954 61.8004 16.5184 61.6767 16.6693 61.6767H28.4735C29.007 61.4864 29.4371 61.305 29.707 61.1412C30.5898 60.6063 30.9805 60.223 31.1498 59.9654C31.147 59.9614 31.1423 59.96 31.1403 59.9559C31.0906 59.873 31.0886 59.7697 31.1348 59.6848C31.4427 59.1187 31.6058 58.4832 31.6058 57.8464C31.6058 56.8243 31.2075 55.8633 30.4837 55.1395C29.76 54.4158 28.7983 54.0175 27.7762 54.0175H27.3603H25.2256H24.983H20.9536C20.8679 54.0175 20.7864 53.9767 20.7347 53.9088L15.3244 46.7436C15.1252 46.4806 14.8921 46.2496 14.6346 46.047L13.5214 47.2024C13.7232 47.339 13.9101 47.5 14.0596 47.6971L19.7935 55.2904C19.9457 55.4929 20.1761 55.6085 20.4262 55.6085H27.7775C28.3736 55.6085 28.9363 55.8402 29.3617 56.2609C29.7844 56.6884 30.0162 57.2511 30.0162 57.8478C30.0162 58.4499 29.7837 59.0133 29.3631 59.434C28.9342 59.8581 28.3715 60.0912 27.7775 60.0912H18.9372C18.5552 60.0912 18.2412 60.0185 17.9212 59.8554C17.6153 59.7052 17.3489 59.4836 17.1335 59.2002C16.7937 58.7469 16.4552 58.2956 16.1168 57.8478L12.4048 52.9342C12.1485 52.5944 11.6341 52.5203 11.2963 52.7772C11.1257 52.9057 11.0163 53.0912 10.9871 53.3012C10.9579 53.5105 11.0116 53.7185 11.1393 53.887L14.7548 58.6715C14.7909 58.719 14.8099 58.7775 14.8099 58.8366V68.1398C14.8099 68.2907 14.6869 68.4144 14.536 68.4144H2.19701C2.04613 68.4144 1.92312 68.2914 1.92312 68.1398V62.0118C1.92312 61.5754 1.56769 61.2214 1.13206 61.2214C0.693709 61.2214 0.336914 61.5761 0.336914 62.0118V69.2095C0.336914 69.6451 0.693709 69.9999 1.13206 69.9999H16.3954V68.1398V61.9513Z" fill="#637EA8"/>
<path d="M13.8205 45.319C13.8273 45.2857 13.8382 45.2524 13.8572 45.2232C14.5518 44.1603 14.9181 42.9268 14.9181 41.6573V35.4844C14.9181 34.4133 14.4995 33.4048 13.739 32.6436C12.9758 31.8845 11.9672 31.4665 10.8989 31.4665H5.82764C4.76269 31.4665 3.75483 31.8845 2.99094 32.6443C2.23114 33.4034 1.8125 34.4119 1.8125 35.4844V41.6573C1.8125 42.9968 2.21551 44.2833 2.97803 45.3774C2.9991 45.408 3.01337 45.4427 3.02085 45.4794C3.28929 45.8722 3.77046 46.4458 4.49628 46.948C4.50444 46.9528 4.51327 46.9535 4.52075 46.9589C5.64414 47.7772 6.97414 48.2087 8.36598 48.2087C9.62122 48.2087 10.8221 47.8567 11.8714 47.1859C12.9099 46.4077 13.4936 45.7682 13.8205 45.319ZM3.39939 41.0477V35.4837C3.39939 34.8381 3.65288 34.2291 4.11298 33.7683C4.57648 33.3055 5.18541 33.0507 5.82764 33.0507H10.8996C11.5452 33.0507 12.1555 33.3055 12.6183 33.7683C13.0784 34.2284 13.3319 34.8374 13.3319 35.4837V36.9075C13.3319 37.0441 13.2313 37.1596 13.0967 37.1793C11.4915 37.4056 10.3321 36.4202 10.2172 36.3176C10.0507 36.1708 9.89646 36.1048 9.70142 36.096C9.70074 36.096 9.70006 36.096 9.69938 36.096C9.2386 36.096 8.89404 36.4263 8.87365 36.8483C8.83695 37.6353 8.72278 38.3442 8.53453 38.9531C8.27356 39.7924 7.87802 40.4306 7.35948 40.8485C6.81103 41.2889 6.08657 41.5118 5.20647 41.5118C5.1188 41.5118 5.02774 41.5098 4.93531 41.505C4.52618 41.484 4.08172 41.4194 3.61279 41.3134C3.48774 41.2869 3.39939 41.1754 3.39939 41.0477ZM8.36598 46.6232C7.04686 46.6232 5.80181 46.1046 4.85987 45.1634C4.3522 44.6598 3.95191 44.0366 3.70318 43.3617C3.66988 43.27 3.68687 43.1687 3.74803 43.0926C3.80987 43.0185 3.90842 42.9818 4.0022 42.9954C4.31618 43.045 4.59618 43.0743 4.85919 43.0858C6.30133 43.1633 7.43628 42.8194 8.35103 42.0807C9.12239 41.4609 9.6919 40.5651 10.0446 39.4186C10.1309 39.1427 10.1969 38.8647 10.2567 38.58C10.273 38.4998 10.3246 38.4318 10.3967 38.3931C10.4701 38.355 10.555 38.3516 10.6298 38.3822C11.414 38.7084 12.199 38.8444 13.0342 38.7737C13.1083 38.7676 13.1858 38.7934 13.2429 38.8444C13.2993 38.8967 13.3312 38.9694 13.3312 39.0462V41.6566C13.3312 42.9757 12.8127 44.2208 11.8714 45.1627C10.9302 46.1046 9.68511 46.6232 8.36598 46.6232Z" fill="#E8A15B"/>
<path d="M69.9799 45.5071C69.9846 45.4616 69.9969 45.4167 70.0234 45.378C70.7859 44.277 71.1889 42.9905 71.1889 41.6571V35.4842C71.1889 34.4165 70.7703 33.408 70.0104 32.6434C69.2466 31.8843 68.238 31.4657 67.1704 31.4657H62.0991C61.0314 31.4657 60.0229 31.8843 59.2583 32.6441C58.4992 33.408 58.0806 34.4165 58.0806 35.4842V41.6571C58.0806 42.928 58.4482 44.1628 59.1455 45.2271C59.1605 45.2495 59.1666 45.276 59.1741 45.3012C59.4826 45.7626 60.0011 46.3797 60.8221 46.9696C60.9662 47.0722 61.1109 47.1735 61.2611 47.2646C62.2778 47.8817 63.4311 48.2085 64.6368 48.2085C65.7663 48.2085 66.8516 47.9184 67.8214 47.3713C69.0862 46.5931 69.6978 45.9149 69.9799 45.5071ZM69.2948 43.3609C69.0481 44.0337 68.6492 44.6562 68.1429 45.1632C67.2003 46.1045 65.9559 46.623 64.6361 46.623C63.3142 46.623 62.0685 46.1045 61.1259 45.1632C60.1846 44.2206 59.6654 42.9755 59.6654 41.6571V39.0467C59.6654 38.9699 59.6974 38.8972 59.7544 38.8449C59.8115 38.7932 59.887 38.7681 59.9631 38.7742C60.8004 38.8449 61.5833 38.7103 62.3723 38.3827C62.4498 38.3508 62.5347 38.3562 62.6068 38.3943C62.6788 38.4337 62.7305 38.503 62.7461 38.5839C62.8018 38.8693 62.8711 39.1466 62.9534 39.4205C63.3068 40.567 63.877 41.4627 64.6497 42.0805C65.5651 42.8199 66.7272 43.1577 68.1361 43.0863C68.4038 43.0748 68.6913 43.0449 68.9951 42.9966C69.0909 42.9803 69.1881 43.0177 69.2493 43.0931C69.3111 43.1672 69.3288 43.2698 69.2948 43.3609ZM68.064 41.5062C67.9703 41.511 67.8799 41.513 67.7915 41.513C66.9114 41.513 66.187 41.2894 65.6385 40.849C65.1172 40.4297 64.7231 39.7916 64.4669 38.9536C64.2813 38.3535 64.1665 37.6454 64.1243 36.8502C64.104 36.4261 63.7587 36.0959 63.3374 36.0959V35.826C63.3374 35.826 63.3373 35.826 63.3367 35.826L63.2986 36.0965C63.1015 36.1054 62.9629 36.1665 62.7678 36.331C62.6013 36.4764 61.6873 37.2138 60.3865 37.2138C60.2309 37.2138 60.0684 37.2029 59.9012 37.1798C59.7667 37.1601 59.6661 37.0446 59.6661 36.908V35.4842C59.6661 34.8413 59.921 34.2324 60.3838 33.7689C60.8473 33.3061 61.4562 33.0505 62.0991 33.0505H67.171C67.8133 33.0505 68.4215 33.3061 68.8857 33.7689C69.3478 34.231 69.6034 34.8406 69.6034 35.4842V41.0482C69.6034 41.1766 69.5143 41.2874 69.3893 41.3159C68.9163 41.4206 68.4704 41.4858 68.064 41.5062Z" fill="#E8A15B"/>
<path d="M8.95928 12.9715H28.721C29.1573 12.9715 29.5121 12.6147 29.5121 12.1764C29.5121 11.7401 29.1566 11.386 28.721 11.386H8.95928C8.52297 11.386 8.16821 11.7407 8.16821 12.1764C8.16821 12.6147 8.52297 12.9715 8.95928 12.9715Z" fill="#637EA8"/>
<path d="M36.7542 8.17435V10.3056C36.7562 10.1561 36.8772 10.0344 37.0274 10.0344H38.2941L38.0502 8.44823H37.0274C36.8772 8.44891 36.7542 8.3259 36.7542 8.17435Z" fill="#3F496A"/>
<path d="M3.0214 45.4793C3.02956 45.5181 3.02956 45.5588 3.02004 45.5983C3.00169 45.6744 2.9514 45.7396 2.88208 45.7763C2.6381 45.9054 2.40907 46.0597 2.19092 46.2296L3.6582 47.1682C3.8614 47.0635 4.0714 46.9731 4.29091 46.916C4.36159 46.8977 4.43499 46.9119 4.49684 46.9486C3.77169 46.4451 3.28985 45.8721 3.0214 45.4793Z" fill="#637EA8"/>
<path d="M13.9632 45.6175C13.8932 45.5821 13.8422 45.5189 13.8218 45.4441C13.8109 45.402 13.8116 45.3599 13.8205 45.3184C13.4936 45.7683 12.9098 46.4072 11.8713 47.186C12.0236 47.0888 12.1731 46.9841 12.3192 46.8734C12.3756 46.8312 12.4442 46.8102 12.5156 46.819C12.8799 46.8598 13.221 46.9991 13.5208 47.2016L14.634 46.047C14.4274 45.8852 14.2051 45.7398 13.9632 45.6175Z" fill="#637EA8"/>
<path d="M31.0467 45.8602C31.135 45.8255 31.2288 45.8507 31.3029 45.9057C30.8142 45.3627 30.4846 44.8245 30.2651 44.3426C30.2454 44.4249 30.1931 44.4976 30.1095 44.5329C29.7228 44.696 29.3606 44.8754 29.0112 45.0617L29.8716 46.3944C30.2406 46.2048 30.6267 46.0226 31.0467 45.8602Z" fill="#3F496A"/>
<path d="M40.9379 46.2847C41.0819 46.1413 41.2206 45.9864 41.3524 45.8273C41.4258 45.739 41.5482 45.7057 41.6569 45.7451C42.0341 45.8824 42.3882 46.0346 42.728 46.1937L43.7229 44.9235C43.3539 44.7393 42.9719 44.5619 42.5642 44.4022C42.4235 44.3472 42.3542 44.1881 42.4099 44.0475C42.433 43.9883 42.4493 43.9278 42.4704 43.8687C42.2685 44.4022 41.7996 45.4006 40.8672 46.3493C40.8903 46.3262 40.9154 46.3072 40.9379 46.2847Z" fill="#3F496A"/>
<path d="M60.4845 46.82C60.5552 46.8098 60.6245 46.8322 60.6803 46.8744C60.7265 46.9097 60.7761 46.9369 60.823 46.9702C60.002 46.3803 59.4835 45.7632 59.1749 45.3018C59.1892 45.35 59.1946 45.4003 59.181 45.4499C59.16 45.5254 59.1077 45.5886 59.037 45.6232C58.7889 45.7442 58.5599 45.8923 58.3472 46.0616L59.4753 47.2053C59.5705 47.1408 59.6629 47.0708 59.7682 47.0212C60.0013 46.9145 60.2412 46.8465 60.4845 46.82Z" fill="#637EA8"/>
<path d="M70.1206 45.7764C70.0513 45.7397 70.001 45.6751 69.982 45.599C69.9745 45.5684 69.9765 45.5378 69.9792 45.5072C69.6972 45.915 69.0862 46.5933 67.8208 47.3714C68.0451 47.245 68.2653 47.1091 68.4766 46.9548C68.5439 46.9059 68.6302 46.8909 68.7097 46.9113C69.2623 47.0602 69.7516 47.3558 70.1498 47.7581L71.437 46.8209C71.0537 46.3948 70.616 46.038 70.1206 45.7764Z" fill="#637EA8"/>
<path d="M25.2263 54.0188H27.361C27.2101 54.0188 27.0871 53.8958 27.0871 53.7442V52.4163L25.5002 52.4095V53.7442C25.5002 53.8958 25.3772 54.0188 25.2263 54.0188Z" fill="#3F496A"/>
<path d="M45.912 53.745C45.912 53.8959 45.789 54.0196 45.6375 54.0196H47.7721C47.6212 54.0196 47.4975 53.8966 47.4975 53.745V52.5034L45.9113 52.4966V53.745H45.912Z" fill="#3F496A"/>
<path d="M56.3328 68.4137H16.6687C16.5178 68.4137 16.3948 68.2907 16.3948 68.1392V69.9999H56.5332V68.3247C56.4829 68.3791 56.4129 68.4137 56.3328 68.4137Z" fill="#3F496A"/>
<path d="M41.8583 59.9564C41.8086 60.0393 41.7196 60.0909 41.6231 60.0909H31.3746C31.2828 60.0909 31.1993 60.042 31.149 59.9659C30.9797 60.2235 30.589 60.6061 29.7061 61.1416C29.4363 61.3054 29.0055 61.4869 28.4727 61.6772H44.7656C43.9997 61.4583 42.5433 60.9078 41.8793 59.7518C41.897 59.8205 41.8956 59.8939 41.8583 59.9564Z" fill="#E8A15B"/>
</svg>
