<svg width="108" height="275" viewBox="0 0 108 275" fill="none" xmlns="http://www.w3.org/2000/svg">
<path d="M16.6353 20.7153L16.6365 20.2153L16.6353 20.7153ZM17.1603 261.061L17.1615 260.561L17.1603 261.061ZM86.3001 261.347C86.4958 261.152 86.4966 260.835 86.3018 260.64L83.1275 257.461C82.9327 257.266 82.6161 257.266 82.4204 257.462C82.2247 257.657 82.2239 257.974 82.4187 258.169L85.2403 260.995L82.4052 263.826C82.2094 264.021 82.2087 264.338 82.4035 264.533C82.5983 264.728 82.9148 264.728 83.1106 264.532L86.3001 261.347ZM87.3036 20.1465L16.6365 20.2153L16.6341 21.2153L87.3012 21.1466L87.3036 20.1465ZM0.0973294 36.8188L0.698884 245.164L1.69886 245.158L1.09731 36.8125L0.0973294 36.8188ZM17.1591 261.561L85.9462 261.494L85.9486 260.494L17.1615 260.561L17.1591 261.561ZM0.698884 245.164C0.725097 254.243 8.08057 261.57 17.1591 261.561L17.1615 260.561C8.63318 260.569 1.72349 253.686 1.69886 245.158L0.698884 245.164ZM16.6365 20.2153C7.4899 20.2242 0.0709201 27.672 0.0973294 36.8188L1.09731 36.8125C1.0725 28.2201 8.04184 21.2237 16.6341 21.2153L16.6365 20.2153Z" fill="#637EA8"/>
<rect opacity="0.3" width="40" height="40" rx="20" transform="matrix(4.37114e-08 1 1 -4.37114e-08 68 0)" fill="#E8A15B"/>
<rect width="16" height="16" rx="8" transform="matrix(4.37114e-08 1 1 -4.37114e-08 80 12)" fill="white" stroke="#E8A15B" stroke-width="2"/>
<path d="M73 248L86 261L73 274" stroke="#637EA8" stroke-linecap="round" stroke-linejoin="round"/>
</svg>
