<svg width="73" height="85" viewBox="0 0 73 85" fill="none" xmlns="http://www.w3.org/2000/svg">
<path d="M17.2706 24.4336H7.41284V26.0368H17.2706V24.4336Z" fill="#E8A15B"/>
<path d="M34.9583 24.4336H21.5632V26.0368H34.9583V24.4336Z" fill="#3F496A"/>
<path d="M10.1952 30.3308H7.41284V31.934H10.1952V30.3308Z" fill="#3F496A"/>
<path d="M34.9585 30.3308H14.4873V31.934H34.9585V30.3308Z" fill="#637EA8"/>
<path d="M24.346 36.2264H7.41284V37.8296H24.346V36.2264Z" fill="#637EA8"/>
<path d="M34.9574 36.2264H28.6377V37.8296H34.9574V36.2264Z" fill="#3F496A"/>
<path d="M34.9595 42.1228H7.41284V43.726H34.9595V42.1228Z" fill="#637EA8"/>
<path d="M28.2587 63.3497H20.0055C19.7969 63.3497 19.6277 63.1805 19.6277 62.9718V60.6136C19.627 60.5286 19.6134 60.443 19.5855 60.3615L19.0901 58.8717C18.821 58.0698 18.2834 57.3712 17.5773 56.9043C16.8678 56.4347 16.0284 56.2213 15.1721 56.2838C14.3281 56.3517 13.52 56.7038 12.8968 57.276C12.2729 57.8483 11.8529 58.623 11.7143 59.4589L11.0204 63.648C11.0068 63.7262 10.9701 63.7976 10.9144 63.8533L9.17117 65.5972C9.10049 65.6685 9.00399 65.7079 8.90409 65.7079H8.15991V67.3111H9.39205C9.60272 67.3111 9.80933 67.2255 9.95884 67.076L12.3164 64.7184C12.4353 64.5995 12.5128 64.4486 12.54 64.2821L13.295 59.7172C13.3786 59.2313 13.6233 58.7841 13.9855 58.4545C14.3471 58.1235 14.8153 57.921 15.3026 57.8829C15.8021 57.8483 16.2833 57.9719 16.6931 58.2424C17.1015 58.5122 17.4135 58.9159 17.5705 59.3808L18.0047 60.6781C18.0177 60.7169 18.0245 60.757 18.0245 60.7984V64.151C18.0245 64.365 18.1087 64.5662 18.2589 64.7177C18.4078 64.8666 18.6144 64.9522 18.8257 64.9522H28.2594C28.4687 64.9522 28.6767 64.995 28.8663 65.0752C29.0606 65.1595 29.2319 65.2791 29.3753 65.4313C29.5105 65.5645 29.6234 65.7324 29.7008 65.92C29.779 66.1055 29.8177 66.3046 29.8164 66.5099C29.8164 66.9238 29.6546 67.3139 29.361 67.6095C29.0668 67.9038 28.6753 68.0655 28.2594 68.0655H23.9194V69.668H27.0796C27.4948 69.668 27.8856 69.8298 28.1805 70.1234C28.4748 70.4176 28.6366 70.8091 28.6366 71.225C28.6366 71.6355 28.4701 72.0371 28.1805 72.3267C27.8863 72.6203 27.4955 72.782 27.0796 72.782H23.9194V74.3852H25.9005C26.3164 74.3852 26.7078 74.547 27.0014 74.8412C27.2909 75.1294 27.4574 75.5317 27.4574 75.9422C27.4574 76.3581 27.2957 76.7496 27.0014 77.0432C26.7058 77.3374 26.3157 77.4992 25.9005 77.4992H22.7403V79.1017H24.7213C24.9327 79.1017 25.1373 79.1432 25.3296 79.2267C25.5192 79.3076 25.6905 79.4266 25.8366 79.5795C25.9739 79.7161 26.0867 79.8846 26.1641 80.0715C26.2416 80.2591 26.2804 80.4589 26.2783 80.6621C26.2783 81.0692 26.1118 81.4708 25.8223 81.7603C25.5335 82.0492 25.1318 82.2157 24.7213 82.2157H11.0605C10.9606 82.2157 10.8634 82.1763 10.7934 82.1049L8.7804 80.0919C8.63088 79.9431 8.42428 79.8574 8.2136 79.8574H8.16059V81.7399L10.0051 83.5837C10.1566 83.7346 10.3578 83.8182 10.5718 83.8182H24.7227C25.5674 83.8182 26.3606 83.4893 26.9572 82.8932C27.5539 82.2965 27.8829 81.5028 27.8829 80.6587C27.8802 80.1177 27.7347 79.5829 27.4622 79.1133C27.3596 78.9359 27.416 78.7102 27.59 78.6022C28.2832 78.1734 28.7732 77.5019 28.9709 76.7122C29.168 75.9225 29.0511 75.0995 28.642 74.3961C28.5394 74.2194 28.5958 73.9924 28.7698 73.885C29.4623 73.4562 29.9523 72.7861 30.1501 71.9957C30.3471 71.206 30.2302 70.3837 29.8204 69.6796C29.7185 69.5036 29.7736 69.2786 29.9462 69.1699C30.3961 68.8872 30.7685 68.493 31.0254 68.0281C31.283 67.5646 31.4196 67.0393 31.4209 66.5078C31.4168 65.6672 31.0859 64.8741 30.4905 64.2787C29.8938 63.6841 29.1021 63.3531 28.2587 63.3497Z" fill="#3F496A"/>
<path d="M6.65661 79.4809V67.6889C6.65661 67.6244 6.677 67.5659 6.70622 67.5122V65.506C6.67768 65.453 6.65661 65.3946 6.65661 65.33C6.65661 65.1159 6.57234 64.9148 6.42214 64.7632C6.27059 64.6117 6.07011 64.5287 5.85535 64.5287H1.13885C0.924777 64.5287 0.723612 64.6123 0.572059 64.7632C0.421186 64.9148 0.336914 65.1159 0.336914 65.33V81.8398C0.336914 82.0539 0.421186 82.255 0.572059 82.4066C0.723612 82.5574 0.924777 82.641 1.13885 82.641H5.85535C6.06943 82.641 6.27059 82.5581 6.42146 82.4066C6.57302 82.255 6.65661 82.0539 6.65661 81.8398C6.65661 81.7752 6.677 81.7168 6.70622 81.6631V79.6569C6.67768 79.6039 6.65661 79.5461 6.65661 79.4809ZM5.05341 80.6607C5.05341 80.8693 4.88419 81.0385 4.67555 81.0385H2.3173C2.10866 81.0385 1.93943 80.8693 1.93943 80.6607V66.5098C1.93943 66.3012 2.10866 66.1319 2.3173 66.1319H4.67555C4.88419 66.1319 5.05341 66.3012 5.05341 66.5098V80.6607Z" fill="#E8A15B"/>
<path d="M50.9756 58.6841L47.8398 81.7289L49.4893 81.5094L52.4986 59.3834C52.5244 59.1965 52.6834 59.0572 52.873 59.0572H53.1795C53.3685 59.0572 53.5282 59.1965 53.554 59.3834L56.4369 80.5838L58.0279 80.3718L55.1198 58.9926L50.9756 58.6841Z" fill="#3F496A"/>
<path d="M68.7848 55.2711C67.7797 53.9214 66.3362 52.9149 64.7221 52.4378L62.1736 51.6712C61.1977 51.3831 60.3264 50.7857 59.6835 49.9933C59.1153 50.2529 58.4466 50.556 57.9457 50.7823C57.9043 50.8319 57.854 50.8733 57.7921 50.8971L57.2124 51.1139L53.1572 52.6308C53.1144 52.6465 53.0702 52.6546 53.0247 52.6546C52.9798 52.6546 52.935 52.6465 52.8928 52.6308L48.2586 50.8971C48.2504 50.8937 48.245 50.8863 48.2368 50.8829L46.2734 50.1149C45.8154 50.6885 45.1772 51.2648 44.3929 51.4225C44.3549 51.4673 44.3094 51.5067 44.2516 51.5299L44.1816 51.5584C44.0796 51.5999 43.9825 51.6393 43.8764 51.6712L41.3293 52.4371C39.7138 52.9156 38.271 53.9214 37.2659 55.2711C36.2601 56.6208 35.7096 58.292 35.7136 59.9754V84.1974C35.7136 84.4121 35.7972 84.6133 35.9481 84.7648C36.0976 84.9137 36.3042 84.9993 36.5149 84.9993H47.2045L47.5341 83.2976C47.4668 83.3587 47.3785 83.3961 47.2813 83.3961H43.5903C43.3817 83.3961 43.2125 83.2269 43.2125 83.0182V64.5288H41.6099V83.0189C41.6099 83.2275 41.4407 83.3968 41.2321 83.3968H37.6954C37.4867 83.3968 37.3175 83.2275 37.3175 83.0189V59.976C37.3121 58.6345 37.7525 57.3031 38.5551 56.228C39.3584 55.1522 40.5103 54.353 41.7989 53.9765L43.6474 53.4232C43.8411 53.3628 44.0395 53.4667 44.1102 53.653L46.374 59.7144C46.4209 59.8394 46.5004 59.9523 46.603 60.0406C46.7057 60.1296 46.8294 60.1915 46.9619 60.22C47.0088 60.2275 47.0733 60.2336 47.1386 60.235C47.3472 60.235 47.5491 60.1527 47.7013 60.0019L49.1475 58.5475L49.1529 58.5421L49.927 57.7639C49.9501 57.7408 49.98 57.7286 50.0079 57.7123L51.5227 56.2416C51.5397 56.1811 51.5669 56.1233 51.6138 56.0764L52.7576 54.9327C52.9051 54.7852 53.1436 54.7852 53.2918 54.9327L54.4355 56.0764C54.4709 56.1118 54.4967 56.1539 54.5157 56.1981L56.1128 57.7571C56.1155 57.7598 56.1196 57.7605 56.123 57.7632L58.3515 60.0039C58.501 60.1514 58.7028 60.2343 58.9162 60.2343C58.9767 60.2329 59.0419 60.2268 59.1051 60.2159C59.2207 60.1901 59.3451 60.129 59.4456 60.0399C59.5489 59.9516 59.6284 59.8381 59.6753 59.711L61.9391 53.6509C62.0091 53.4654 62.2089 53.36 62.4019 53.4212L64.2532 53.9758C65.5404 54.3509 66.6916 55.1501 67.4949 56.226C68.2982 57.3004 68.7379 58.6325 68.7325 59.9754V83.0169C68.7325 83.2255 68.5633 83.3947 68.3546 83.3947H64.8186C64.61 83.3947 64.4408 83.2255 64.4408 83.0169V64.5288H62.8376V83.0189C62.8376 83.2275 62.6683 83.3968 62.4597 83.3968H58.7687C58.6349 83.3968 58.5186 83.3247 58.4514 83.218L58.7164 85H69.5351C69.7485 85 69.9497 84.9157 70.1012 84.7648C70.2521 84.614 70.3357 84.4128 70.3357 84.198V59.9767C70.3411 58.2927 69.7907 56.6222 68.7848 55.2711ZM51.17 54.2653L47.8562 57.5675C47.7849 57.6382 47.6877 57.6776 47.5892 57.6776C47.562 57.6776 47.5355 57.6749 47.5083 57.6688C47.3825 57.6409 47.2799 57.5519 47.2344 57.4323L45.5952 53.0338C45.5306 52.8599 45.6013 52.6655 45.7617 52.5737C46.0165 52.4283 46.2639 52.2632 46.497 52.0837C46.6241 51.9866 46.7994 51.9791 46.9333 52.0654C46.966 52.0865 46.9938 52.1109 47.0176 52.1388L51.0361 53.6448C51.1564 53.6897 51.2455 53.793 51.2733 53.9187C51.2998 54.0437 51.2611 54.1749 51.17 54.2653ZM60.4549 53.0332L58.8156 57.4316C58.7708 57.5519 58.6675 57.6409 58.5424 57.6681C58.5152 57.6742 58.4887 57.6769 58.4616 57.6769C58.363 57.6769 58.2665 57.6382 58.1945 57.5668L54.8807 54.2646C54.7903 54.1742 54.7516 54.0431 54.7781 53.9173C54.8059 53.7916 54.8943 53.6883 55.0146 53.6434L59.2248 52.0633C59.3444 52.0185 59.4803 52.0362 59.585 52.115C59.7698 52.2543 59.9723 52.378 60.1694 52.4997L60.2992 52.5792C60.4535 52.675 60.5174 52.8639 60.4549 53.0332Z" fill="#637EA8"/>
<path d="M39.7905 22.8957C40.5428 23.9974 41.4943 24.9196 42.6163 25.6366C42.6319 25.6468 42.6401 25.6651 42.6544 25.6774C43.162 25.954 44.0652 26.4222 44.8896 26.728C45.873 27.0515 46.8958 27.216 47.9308 27.216H60.7571C60.7571 27.216 63.0529 27.0638 63.2642 26.4589C63.2649 26.4555 63.2669 26.4521 63.2683 26.4487C63.2676 26.4372 63.2615 26.427 63.2615 26.4147V22.8774C63.2588 20.774 62.4385 18.7963 60.9515 17.31C59.4645 15.823 57.4882 15.0027 55.3841 15H38.8757C38.6644 15 38.4578 15.0856 38.3096 15.2345C38.1601 15.384 38.0745 15.5906 38.0745 15.8013V16.5835C38.0745 16.5835 38.2016 18.4871 38.2906 19.357C38.5549 20.6292 39.0572 21.8206 39.7905 22.8957ZM39.677 16.9811C39.677 16.7724 39.8462 16.6032 40.0548 16.6032H55.3848C57.0607 16.6032 58.6367 17.2556 59.8213 18.4402C61.0065 19.6254 61.659 21.2014 61.659 22.8774V25.2356C61.659 25.4442 61.4898 25.6135 61.2811 25.6135H47.9438C45.7364 25.6108 43.6615 24.7497 42.1012 23.1893C40.5401 21.6282 39.6797 19.5534 39.677 17.3474V16.9811Z" fill="#637EA8"/>
<path d="M61.6583 37.0285C61.6583 39.3351 60.7605 41.5024 59.1301 43.1328C57.5004 44.7632 55.3325 45.6609 53.0259 45.6609C50.72 45.6609 48.552 44.7632 46.9223 43.1328C45.2919 41.5017 44.3942 39.3344 44.3942 37.0285V27.3556L42.4253 26.7902C42.4212 26.7902 42.4179 26.7922 42.4131 26.7922H41.2346C40.3919 26.7949 39.5988 27.1246 39.0028 27.7206C38.4068 28.3166 38.0772 29.1097 38.0745 29.9531V31.1315C38.0772 31.9736 38.4061 32.7667 39.0028 33.3627C39.5988 33.9587 40.3919 34.289 41.236 34.2917H42.4131C42.6217 34.2917 42.791 34.4609 42.791 34.6696V37.0278C42.7876 38.3803 43.0478 39.6994 43.5637 40.9492C44.0802 42.1997 44.8271 43.3176 45.7819 44.2725C46.2617 44.7394 46.7884 45.1696 47.3437 45.5488C47.4463 45.6195 47.5081 45.7357 47.5081 45.8607V46.7925C47.5081 47.2288 47.4442 47.6644 47.3328 48.0871L48.8408 48.5819C48.9829 48.0695 49.0719 47.5414 49.0875 47.0059C49.0909 46.8849 49.1521 46.7728 49.252 46.7048C49.3519 46.6368 49.4783 46.6192 49.5925 46.6613C50.6969 47.0575 51.8536 47.26 53.0279 47.2641C54.2009 47.2628 55.3556 47.0596 56.46 46.6613C56.5741 46.6205 56.7005 46.6368 56.8004 46.7041C56.9003 46.7721 56.9622 46.8842 56.9656 47.0052C56.988 47.7827 57.16 48.5418 57.4454 49.2588L58.9365 48.7185C58.6877 48.1068 58.5423 47.4537 58.5457 46.7911V45.8492C58.5457 45.7228 58.6089 45.6052 58.7135 45.5352C60.1067 44.6028 61.2607 43.3285 62.0511 41.8504C62.8429 40.3715 63.2615 38.7038 63.2628 37.0278V34.6696C63.2628 34.4609 63.4321 34.2917 63.6407 34.2917H64.8198C65.6619 34.289 66.4543 33.9587 67.051 33.3627C67.6463 32.7667 67.9766 31.9736 67.98 31.1302V29.9524C67.9766 29.1104 67.6463 28.3173 67.051 27.7206C66.455 27.1246 65.6619 26.7949 64.8185 26.7922H63.6407C63.4973 26.7922 63.3763 26.7093 63.3125 26.5911L61.6597 27.9217V37.0285H61.6583ZM42.7903 32.3113C42.7903 32.52 42.6211 32.6892 42.4124 32.6892H41.234C40.8174 32.6892 40.4266 32.5275 40.1323 32.2332C39.8381 31.9396 39.677 31.5481 39.677 31.1322V29.9531C39.677 29.5365 39.8387 29.1457 40.133 28.8521C40.4259 28.5585 40.8174 28.3961 41.234 28.3961H42.4124C42.6211 28.3961 42.7903 28.5653 42.7903 28.774V32.3113ZM63.2622 28.774C63.2622 28.5653 63.4314 28.3961 63.64 28.3961H64.8192C65.2344 28.3961 65.6259 28.5579 65.9201 28.8521C66.2144 29.1457 66.3761 29.5372 66.3761 29.9531V31.1322C66.3761 31.5481 66.2144 31.9396 65.9201 32.2332C65.6259 32.5275 65.2351 32.6892 64.8192 32.6892H63.64C63.4314 32.6892 63.2622 32.52 63.2622 32.3113V28.774Z" fill="#E8A15B"/>
<path d="M31.7997 49.1988C31.5849 49.1988 31.3837 49.2817 31.2336 49.4333C31.0813 49.5848 30.9977 49.7853 30.9977 50.0001V53.9975C30.9977 54.1539 30.9019 54.2938 30.7558 54.3503C30.7116 54.3672 30.6661 54.3747 30.6205 54.3747C30.5159 54.3747 30.4133 54.3312 30.3399 54.2497L26.0237 49.4618C25.9496 49.3796 25.8565 49.3123 25.7545 49.2668C25.6533 49.2219 25.5418 49.1975 25.431 49.1975H4.67711C4.46847 49.1975 4.29925 49.0282 4.29925 48.8196V19.3395C4.29925 19.1308 4.46847 18.9616 4.67711 18.9616H35.9691L35.984 17.3584H3.49731C3.28323 17.3584 3.08206 17.442 2.93051 17.5929C2.77896 17.7451 2.69604 17.9463 2.69604 18.1603V50.0001C2.69604 50.2141 2.77964 50.4153 2.93051 50.5669C3.08206 50.7177 3.28391 50.8007 3.49731 50.8007H24.9003C25.0076 50.8007 25.1096 50.8455 25.1809 50.9257L31.207 57.6124C31.2818 57.6953 31.3722 57.7605 31.4762 57.8068C31.5788 57.8523 31.6882 57.8761 31.801 57.8768H31.8017C31.9023 57.8768 31.9927 57.8584 32.079 57.8231C32.2428 57.7612 32.3712 57.6606 32.4623 57.5281C32.554 57.3956 32.6023 57.24 32.6016 57.0775V51.1792C32.6016 50.9706 32.7708 50.8013 32.9795 50.8013H42.9344L43.9769 49.1988H31.7997Z" fill="#3F496A"/>
<path d="M53.0247 42.5467C55.2824 42.5467 57.0861 41.3519 57.3348 39.7644H55.6671C55.366 40.3781 54.3636 40.9435 53.0247 40.9435C51.6859 40.9435 50.6842 40.3781 50.3831 39.7644H48.7153C48.9647 41.3519 50.7678 42.5467 53.0247 42.5467Z" fill="#3F496A"/>
<path d="M50.0551 34.0568C50.2039 33.9079 50.2895 33.7013 50.2895 33.49V32.3108C50.2895 32.1002 50.2039 31.8929 50.0551 31.7447C49.9035 31.5932 49.7017 31.5096 49.4883 31.5096C49.2769 31.5096 49.0703 31.5952 48.9222 31.744C48.7726 31.8929 48.687 32.1002 48.687 32.3108V33.49C48.687 33.7013 48.7726 33.9079 48.9215 34.0568C49.2212 34.3578 49.7526 34.3578 50.0551 34.0568Z" fill="#3F496A"/>
<path d="M57.13 34.0568C57.2788 33.9079 57.3651 33.7013 57.3651 33.49V32.3108C57.3651 32.1002 57.2795 31.8929 57.13 31.7447C56.9784 31.5932 56.7772 31.5096 56.5632 31.5096C56.3518 31.5096 56.1452 31.5952 55.9971 31.744C55.8475 31.8929 55.7612 32.1002 55.7612 32.3108V33.49C55.7612 33.7013 55.8469 33.9079 55.9964 34.0568C56.2968 34.3578 56.8296 34.3578 57.13 34.0568Z" fill="#3F496A"/>
<path d="M37.8961 18.9615C38.0769 18.9615 38.2319 19.0892 38.2665 19.2659C38.2726 19.2965 38.2828 19.3264 38.2896 19.357C38.2006 18.4871 38.0735 16.5835 38.0735 16.5835V16.9804C38.0735 17.1891 37.9043 17.3583 37.6956 17.3583H35.9844L35.9688 18.9615H37.8961Z" fill="#3F496A"/>
<path d="M46.2734 50.1141L45.044 49.6329L45.4184 49.1979H43.9756L42.9331 50.8005H44.1102C44.2916 50.8005 44.4459 50.9289 44.4813 51.1063C44.5037 51.2225 44.4663 51.336 44.3929 51.4209C45.1765 51.2646 45.8147 50.6876 46.2734 50.1141Z" fill="#3F496A"/>
<path d="M42.7885 26.4146C42.7885 26.6192 42.6254 26.7829 42.4229 26.7897L44.3917 27.3552V27.0867C44.3917 26.9658 44.4494 26.8516 44.548 26.7802C44.6452 26.7096 44.7723 26.6885 44.8871 26.7272C44.0628 26.4214 43.1595 25.9531 42.6519 25.6765C42.7334 25.7479 42.7885 25.8444 42.7885 25.9538V26.4146Z" fill="#637EA8"/>
<path d="M60.7563 27.2166H61.2803C61.489 27.2166 61.6582 27.3858 61.6582 27.5945V27.9227L63.311 26.5921C63.2872 26.5486 63.2729 26.501 63.2682 26.4493C63.2675 26.4527 63.2655 26.4561 63.2641 26.4595C63.0528 27.0644 60.7563 27.2166 60.7563 27.2166Z" fill="#637EA8"/>
<path d="M57.9791 50.3411C58.0403 50.4369 58.0539 50.5552 58.0179 50.6632C58.0029 50.7081 57.9751 50.7468 57.9452 50.7822C58.446 50.5559 59.1148 50.2528 59.6829 49.9932C59.6387 49.9388 59.5864 49.8926 59.545 49.8368C59.2901 49.4943 59.0951 49.1131 58.9347 48.7182L57.4436 49.2585C57.5931 49.6323 57.7637 49.9979 57.9791 50.3411Z" fill="#E8A15B"/>
<path d="M47.0099 48.9838C47.0188 48.9655 47.0242 48.9458 47.033 48.9274C47.0228 48.9478 47.0099 48.9736 46.9963 48.9988C47.0004 48.9927 47.0072 48.99 47.0099 48.9838Z" fill="#3F496A"/>
<path d="M48.0339 50.6631C47.9979 50.5557 48.0115 50.4368 48.072 50.341C48.4165 49.7939 48.6687 49.1992 48.8406 48.5815L47.3326 48.0867C47.2666 48.3361 47.1824 48.5801 47.0798 48.8159L47.0865 48.818C47.0865 48.818 47.0682 48.8587 47.0342 48.9274C47.0254 48.9457 47.0199 48.9654 47.0111 48.9838C47.0084 48.9899 47.0009 48.9926 46.9975 48.9987C46.8759 49.2346 46.6292 49.6702 46.2744 50.1147L48.2378 50.8826C48.1433 50.8384 48.0672 50.7623 48.0339 50.6631Z" fill="#E8A15B"/>
<path d="M46.6689 49.1985H45.4184L45.0439 49.6335L46.2734 50.1146C46.6281 49.6709 46.8748 49.2345 46.9965 48.9987C46.9305 49.119 46.8075 49.1985 46.6689 49.1985Z" fill="#3F496A"/>
<path d="M47.0853 48.8173L47.0785 48.8153C47.0629 48.852 47.0499 48.8901 47.033 48.9268C47.0669 48.8581 47.0853 48.8173 47.0853 48.8173Z" fill="#3F496A"/>
<path d="M50.495 57.8017L50.9082 58.344C50.9693 58.4236 50.9952 58.5241 50.9822 58.624L50.9741 58.6839L55.1183 58.9924L55.0681 58.6234C55.0545 58.5241 55.081 58.4236 55.1415 58.3434L55.554 57.801C55.6199 57.714 55.7205 57.6604 55.8292 57.6529C55.9332 57.6474 56.0365 57.6848 56.1119 57.7575L54.5149 56.1985C54.5658 56.3195 54.5529 56.4622 54.4693 56.5723L53.9154 57.3036C53.8441 57.398 53.7319 57.4531 53.6144 57.4531H52.4352C52.3177 57.4531 52.2062 57.398 52.1342 57.3036L51.5803 56.5723C51.5062 56.4744 51.4919 56.3528 51.5239 56.242L50.009 57.7127C50.075 57.6746 50.1477 57.6495 50.2204 57.6536C50.3285 57.661 50.429 57.7147 50.495 57.8017Z" fill="#3F496A"/>
<path d="M47.8385 81.729L47.5347 83.2982C47.5986 83.2405 47.6434 83.1609 47.6563 83.0699L47.8385 81.729Z" fill="#3F496A"/>
<path d="M58.3948 83.0697C58.4022 83.1248 58.4233 83.173 58.4512 83.2172L58.0271 80.371L58.3948 83.0697Z" fill="#3F496A"/>
<path d="M58.3947 83.0699L58.0277 80.3718L56.4368 80.5839L56.7609 82.9679C56.7759 83.076 56.7433 83.1854 56.6712 83.267C56.5992 83.3499 56.4959 83.3968 56.3865 83.3968H49.6645C49.555 83.3968 49.4517 83.3499 49.3804 83.267C49.309 83.1854 49.2757 83.076 49.2907 82.9679L49.4891 81.5095L47.8397 81.729L47.6576 83.0699C47.6446 83.1609 47.5998 83.2398 47.5359 83.2982L47.2063 85H58.7175L58.4518 83.2174C58.4239 83.1732 58.4022 83.1249 58.3947 83.0699Z" fill="#3F496A"/>
<path d="M7.03431 79.8586C6.89091 79.8586 6.76994 79.7757 6.70605 79.6574V81.6636C6.76994 81.5454 6.89023 81.4625 7.03431 81.4625H7.72547C7.82537 81.4625 7.92188 81.5019 7.99256 81.5732L8.1611 81.7418V79.8593H7.03431V79.8586Z" fill="#3F496A"/>
<path d="M7.03431 67.311H8.1611V65.7078H7.03431C6.89091 65.7078 6.76994 65.6249 6.70605 65.5066V67.5128C6.76994 67.3946 6.89091 67.311 7.03431 67.311Z" fill="#3F496A"/>
<rect x="0.336914" width="34" height="6" fill="white"/>
</svg>
