<svg width="108" height="275" viewBox="0 0 108 275" fill="none" xmlns="http://www.w3.org/2000/svg">
<path d="M91.3645 20.7153L91.3633 20.2153L91.3645 20.7153ZM90.8394 261.061L90.8383 260.561L90.8394 261.061ZM21.6997 261.347C21.5039 261.152 21.5032 260.835 21.698 260.64L24.8723 257.461C25.0671 257.266 25.3836 257.266 25.5794 257.462C25.7751 257.657 25.7759 257.974 25.5811 258.169L22.7594 260.995L25.5946 263.826C25.7903 264.021 25.7911 264.338 25.5963 264.533C25.4015 264.728 25.0849 264.728 24.8892 264.532L21.6997 261.347ZM20.6961 20.1465L91.3633 20.2153L91.3657 21.2153L20.6985 21.1466L20.6961 20.1465ZM107.902 36.8188L107.301 245.164L106.301 245.158L106.902 36.8125L107.902 36.8188ZM90.8406 261.561L22.0535 261.494L22.0512 260.494L90.8383 260.561L90.8406 261.561ZM107.301 245.164C107.275 254.243 99.9192 261.57 90.8406 261.561L90.8383 260.561C99.3666 260.569 106.276 253.686 106.301 245.158L107.301 245.164ZM91.3633 20.2153C100.51 20.2242 107.929 27.672 107.902 36.8188L106.902 36.8125C106.927 28.2201 99.9579 21.2237 91.3657 21.2153L91.3633 20.2153Z" fill="#637EA8"/>
<rect opacity="0.3" x="40" width="40" height="40" rx="20" transform="rotate(90 40 0)" fill="#E8A15B"/>
<rect x="28" y="12" width="16" height="16" rx="8" transform="rotate(90 28 12)" fill="white" stroke="#E8A15B" stroke-width="2"/>
<path d="M35 248L22 261L35 274" stroke="#637EA8" stroke-linecap="round" stroke-linejoin="round"/>
</svg>
