<svg width="71" height="70" viewBox="0 0 71 70" fill="none" xmlns="http://www.w3.org/2000/svg">
<path d="M51.0837 62.6423H62.4249C62.8653 62.6423 63.2234 62.2842 63.2234 61.8438V50.5026C63.2234 50.1785 63.0297 49.889 62.73 49.7653C62.6322 49.7245 62.5296 49.7048 62.4242 49.7048C62.2108 49.7048 62.0103 49.7877 61.8595 49.9379L50.519 61.279C50.2907 61.5081 50.222 61.8499 50.3457 62.1489C50.4701 62.448 50.7596 62.6423 51.0837 62.6423ZM53.4195 60.6368L61.2172 52.8391C61.2845 52.7705 61.3885 52.7501 61.4775 52.7868C61.5666 52.8235 61.625 52.9111 61.625 53.0076V60.8054C61.625 60.9379 61.5183 61.0446 61.3858 61.0446H53.5887C53.4916 61.0446 53.4046 60.9861 53.3679 60.8971C53.3305 60.8081 53.3509 60.7048 53.4195 60.6368Z" fill="#E8A15B"/>
<path d="M47.5452 41.8178C47.9856 41.8178 48.3437 41.4597 48.3437 41.0193C48.3437 40.5789 47.9856 40.2208 47.5452 40.2208H28.3982L28.6789 41.8178H47.5452Z" fill="#E8A15B"/>
<path d="M38.043 15.9079L38.9754 14.3109H10.1162L10.2039 15.9079H38.043Z" fill="#3F496A"/>
<path d="M70.2326 33.1305C69.9369 33.0095 69.5876 33.0795 69.3627 33.3038L67.8173 34.8492L66.2549 36.4116L64.1787 38.4871L63.2578 39.4079L49.3342 53.3316C49.023 53.6428 49.023 54.1498 49.3342 54.4617C49.3526 54.4787 49.3723 54.4977 49.394 54.5154C49.6794 54.7485 50.1205 54.7465 50.4019 54.5161C50.4236 54.4984 50.4447 54.4808 50.463 54.4617L68.7198 36.2043C68.7877 36.1357 68.891 36.1146 68.98 36.152C69.0698 36.1887 69.1275 36.2763 69.1275 36.3728V45.5284C69.1275 45.6609 69.0208 45.7676 68.8883 45.7676H66.9739C66.5335 45.7676 66.1753 46.1258 66.1753 46.5661C66.1753 47.0065 66.5335 47.3647 66.9739 47.3647H68.8883C69.0208 47.3647 69.1275 47.4714 69.1275 47.6039V50.7321C69.1275 50.8646 69.0208 50.9713 68.8883 50.9713H66.9739C66.5335 50.9713 66.1753 51.3295 66.1753 51.7698C66.1753 52.2102 66.5335 52.5684 66.9739 52.5684H68.8883C69.0208 52.5684 69.1275 52.6751 69.1275 52.8076V55.9351C69.1275 56.0676 69.0208 56.1743 68.8883 56.1743H66.9739C66.5335 56.1743 66.1753 56.5325 66.1753 56.9728C66.1753 57.4132 66.5335 57.7714 66.9739 57.7714H68.8883C69.0208 57.7714 69.1275 57.8781 69.1275 58.0106V61.1381C69.1275 61.2706 69.0208 61.3773 68.8883 61.3773H66.9739C66.5335 61.3773 66.1753 61.7355 66.1753 62.1758C66.1753 62.6162 66.5335 62.9744 66.9739 62.9744H68.8883C69.0208 62.9744 69.1275 63.0811 69.1275 63.2136V68.1631C69.1275 68.2956 69.0208 68.4023 68.8883 68.4023H37.1008C37.0036 68.4023 36.9166 68.3439 36.8799 68.2549C36.8425 68.1652 36.8629 68.0625 36.9322 67.9946L47.4143 57.5124C47.7256 57.2012 47.7256 56.6942 47.4143 56.3823C47.379 56.3469 47.3403 56.3163 47.2995 56.2885C46.991 56.0771 46.5506 56.1179 46.2849 56.3829L42.8658 59.8013L42.0788 60.5883L38.7175 63.9496L34.031 68.6361C33.8027 68.8658 33.734 69.2077 33.8584 69.506C33.9828 69.8057 34.2723 70.0001 34.5957 70.0001H69.9281C70.3678 70.0001 70.7259 69.6412 70.7259 69.2009V33.8678C70.7253 33.5444 70.5316 33.2548 70.2326 33.1305Z" fill="#637EA8"/>
<path d="M64.0096 15.9086C64.1422 15.9086 64.2489 16.0153 64.2489 16.1478V36.0485L65.8466 34.9659V15.1094C65.8466 14.669 65.4884 14.3109 65.0481 14.3109H57.2898L55.9387 15.9086H64.0096Z" fill="#3F496A"/>
<path d="M18.8078 40.2208C18.3674 40.2208 18.0093 40.5789 18.0093 41.0193C18.0093 41.4597 18.3674 41.8178 18.8078 41.8178H21.4501L21.1307 40.2208H18.8078Z" fill="#E8A15B"/>
<path d="M39.7681 16.3165L34.0309 22.0537C33.7204 22.3649 33.7204 22.8712 34.0309 23.1832C34.3327 23.4835 34.8587 23.4849 35.1598 23.1832L49.4619 8.88236C49.5013 8.84226 49.5557 8.82799 49.6094 8.82255L50.8775 7.54151C50.8863 7.49665 50.8952 7.44976 50.9298 7.4151L52.8334 5.51087C52.8572 5.48708 52.8918 5.4864 52.9224 5.47485L54.2728 4.11021C54.2843 4.08847 54.2823 4.06128 54.3007 4.04361L56.3571 1.98715C56.8573 1.48628 57.7347 1.48696 58.2355 1.98715L61.4609 5.21116C61.9788 5.72902 61.9788 6.57104 61.4609 7.0889L59.4051 9.14468C59.3677 9.18206 59.3188 9.19293 59.2706 9.20041L57.995 10.4733C57.9882 10.5249 57.9746 10.5759 57.9365 10.6133L56.0323 12.5169C55.9915 12.5576 55.9378 12.5733 55.8841 12.578L54.6282 13.8312C54.6248 13.8869 54.6072 13.942 54.5643 13.9848L33.0795 35.4703C32.9898 35.5614 32.8308 35.5614 32.7411 35.4703L27.9764 30.7056C27.9309 30.6608 27.9064 30.6003 27.9064 30.5364C27.9064 30.4732 27.9309 30.412 27.9764 30.3672L32.1009 26.2427C32.4121 25.9315 32.4121 25.4245 32.1009 25.1125C31.7991 24.8122 31.2738 24.8115 30.9714 25.1132L26.1129 29.971C26.0932 29.9907 26.0749 30.0124 26.0572 30.0335L25.8064 29.9723L26.011 30.0974L25.7527 30.0675L25.9668 30.1742L25.7079 30.1688L25.9328 30.2503L22.5247 39.9026C22.5097 39.9441 22.5009 39.9849 22.4927 40.0257C22.4716 40.1385 22.3724 40.22 22.2576 40.22H26.9264C26.8095 40.22 26.7096 40.1364 26.6906 40.0216C26.6709 39.906 26.7368 39.7939 26.8469 39.7552L33.3982 37.399C33.4309 37.3739 33.4533 37.3542 33.4743 37.3338L54.8301 15.9787C54.8579 15.9502 54.8987 15.9454 54.9361 15.9346L56.8879 13.9352C56.8954 13.925 56.896 13.9114 56.9056 13.9026L57.507 13.3011L62.5897 8.21839C63.1416 7.66588 63.4467 6.93055 63.4467 6.14969C63.4467 5.36883 63.1422 4.63418 62.5897 4.08167L59.365 0.856295C58.8125 0.303781 58.0779 0 57.2963 0C56.5155 0 55.7801 0.303781 55.2276 0.856974L41.8436 14.241C41.8049 14.2804 41.7519 14.2954 41.6989 14.3008L39.832 16.1677C39.8266 16.2234 39.8089 16.2757 39.7681 16.3165ZM31.0917 36.5645L28.1191 37.6138C28.0933 37.6233 28.0661 37.6273 28.0396 37.6273C27.9778 37.6273 27.9159 37.6036 27.8704 37.5574L25.89 35.577C25.8248 35.5124 25.8024 35.4153 25.8329 35.3283L26.8829 32.3557C26.9101 32.2782 26.976 32.2198 27.0562 32.2014C27.1357 32.1844 27.22 32.2082 27.2778 32.266L31.1814 36.1703C31.2398 36.2287 31.2643 36.3116 31.2459 36.3918C31.2269 36.4714 31.1691 36.5366 31.0917 36.5645Z" fill="#637EA8"/>
<path d="M8.12327 60.6577C7.38931 60.6577 6.69068 60.5231 6.04166 60.2859L5.81128 61.8925C6.55 62.127 7.32678 62.254 8.12327 62.254H38.6583C38.8989 61.777 39.1816 61.219 39.4664 60.6577H8.12327Z" fill="#3F496A"/>
<path d="M39.5993 15.9081C39.6965 15.9081 39.7835 15.9666 39.8202 16.0556C39.8358 16.0923 39.8351 16.1304 39.8317 16.1677L41.6986 14.3009C41.6897 14.3016 41.6836 14.3111 41.6748 14.3111H38.9761L38.0437 15.9081H39.5993Z" fill="#3F496A"/>
<path d="M56.8539 14.1634C56.8213 14.0859 56.8403 14.0023 56.8886 13.9357L54.9368 15.9351C54.9592 15.9283 54.9762 15.9093 54.9993 15.9093H55.9392L57.2902 14.3116H57.0748C56.9783 14.3109 56.8906 14.2524 56.8539 14.1634Z" fill="#3F496A"/>
<path d="M54.5639 13.6471C54.6149 13.6981 54.6325 13.7647 54.6278 13.8313L55.8837 12.5781C55.8762 12.5788 55.8708 12.587 55.8633 12.587C55.8021 12.587 55.741 12.5639 55.6941 12.517L50.9301 7.75298C50.8716 7.69454 50.8628 7.61706 50.8777 7.54163L49.6096 8.82267C49.6789 8.81587 49.7496 8.83082 49.7999 8.88247L54.5639 13.6471Z" fill="#E8A15B"/>
<path d="M53.172 5.51014L57.9367 10.2748C57.9822 10.3197 58.0067 10.3801 58.0067 10.444C58.0067 10.4549 57.9958 10.4624 57.9945 10.4732L59.2701 9.20104C59.2571 9.20308 59.2483 9.21531 59.2354 9.21531C59.1742 9.21531 59.1131 9.19221 59.0662 9.14531L54.3008 4.38133C54.2553 4.33647 54.2308 4.27599 54.2308 4.21211C54.2308 4.17337 54.256 4.14347 54.273 4.10949L52.9226 5.47412C53.0089 5.44218 53.1061 5.44286 53.172 5.51014Z" fill="#E8A15B"/>
<path d="M9.46163 15.9078H10.2038L10.1168 14.3108H9.46163C9.36649 14.3108 9.2863 14.2543 9.24756 14.1742V16.0444C9.2863 15.9642 9.36649 15.9078 9.46163 15.9078Z" fill="#3F496A"/>
<path d="M21.4483 41.8178H28.6793L28.3986 40.2208H26.9259H22.257H21.1289L21.4483 41.8178Z" fill="#E8A15B"/>
<path d="M64.2487 38.3185C64.2487 38.3817 64.2242 38.4428 64.1787 38.4877L66.2549 36.4115C66.1869 36.4795 66.0829 36.4998 65.9946 36.4638C65.9049 36.4271 65.8471 36.3395 65.8471 36.243V34.9667L64.2494 36.0493V38.3185H64.2487Z" fill="#3F496A"/>
<path d="M42.0794 60.5877C42.0345 60.6332 41.974 60.6577 41.9101 60.6577H39.467C39.1822 61.219 38.8995 61.777 38.6589 62.2541H39.8346C39.9318 62.2541 40.0188 62.3125 40.0555 62.4015C40.0929 62.4913 40.0725 62.5939 40.0032 62.6618L38.7174 63.9476L42.0794 60.5877Z" fill="#3F496A"/>
<path d="M2.10344 54.8273C2.10887 54.6078 2.12451 54.4046 2.15033 54.2034C2.16324 54.1049 2.17751 54.0097 2.1945 53.9146C2.21489 53.7984 2.23188 53.7148 2.25091 53.6305L2.2679 53.5598C2.28421 53.4912 2.3012 53.4212 2.32023 53.3512L2.35285 53.237C2.36304 53.2017 2.3746 53.1643 2.38615 53.1269C1.64811 54.8857 0.86385 57.6035 2.10208 59.2909C2.31819 59.5702 2.54858 59.8407 2.8041 60.0901C3.66516 60.9301 4.69475 61.5383 5.81201 61.8931L6.04239 60.2865C3.79632 59.4676 2.18363 57.3636 2.10344 54.8273Z" fill="#3F496A"/>
<path d="M9.22227 14.0715V3.80551C9.22227 3.36513 8.86412 3.00698 8.42374 3.00698C4.05528 3.00698 0.500977 6.5606 0.500977 10.9297V55.0072C0.500977 55.0643 0.507773 55.1213 0.520685 55.1784C0.636217 56.6973 1.19281 58.1157 2.10143 59.2907C0.863203 57.6032 1.64678 54.8855 2.3855 53.1267C2.72734 52.3126 3.05627 51.7043 3.16908 51.5038C3.18471 51.4807 3.20238 51.459 3.21801 51.4359C4.14023 50.1005 5.54564 49.1436 7.13794 48.8126C7.24464 48.7916 7.33502 48.7752 7.42609 48.761C7.55249 48.7406 7.63541 48.7304 7.71832 48.7216C7.719 48.7216 7.78628 48.7134 7.78696 48.7134C7.85356 48.7059 7.92152 48.7012 7.98948 48.6964L8.06219 48.6917C8.21103 48.6835 8.31772 48.6808 8.42442 48.6808C8.8648 48.6808 9.22295 48.3226 9.22295 47.8823V40.3584C9.22295 39.918 8.8648 39.5599 8.42442 39.5599C7.98404 39.5599 7.62589 39.918 7.62589 40.3584V46.9104C7.62589 47.0314 7.53618 47.1327 7.41657 47.1483C5.70195 47.3651 4.13683 48.1228 2.89181 49.3373C2.762 49.465 2.63696 49.5976 2.51667 49.7335C2.45007 49.8076 2.34337 49.8341 2.25298 49.798C2.1592 49.7627 2.09871 49.6737 2.09871 49.5745V10.9297C2.09871 7.84165 4.30537 5.22043 7.34522 4.6951C7.41522 4.68151 7.48657 4.70258 7.54026 4.74811C7.59463 4.79365 7.62521 4.86025 7.62521 4.93093V36.2067C7.62521 36.6471 7.98404 37.0053 8.42442 37.0053C8.8648 37.0053 9.22295 36.6471 9.22295 36.2067V16.147C9.22295 16.1096 9.23314 16.0757 9.24809 16.0444V14.1741C9.23246 14.1429 9.22227 14.1089 9.22227 14.0715Z" fill="#637EA8"/>
</svg>
