<svg width="60" height="60" viewBox="0 0 60 60" fill="none" xmlns="http://www.w3.org/2000/svg">
<path d="M30 23.5C25.6 23.5 22 19.9 22 15.5C22 11.1 25.6 7.5 30 7.5C34.4 7.5 38 11.1 38 15.5C38 19.9 34.4 23.5 30 23.5ZM30 9.5C26.7 9.5 24 12.2 24 15.5C24 18.8 26.7 21.5 30 21.5C33.3 21.5 36 18.8 36 15.5C36 12.2 33.3 9.5 30 9.5Z" fill="#E8A15B"/>
<path d="M43 52.5H17C16.5 52.5 16 52.1 16 51.5V36.5C16 30.5 20.9 25.5 27 25.5H33C39 25.5 44 30.4 44 36.5V51.5C44 52 43.5 52.5 43 52.5ZM18 50.5H42V36.5C42 31.5 37.9 27.5 33 27.5H27C22 27.5 18 31.6 18 36.5V50.5Z" fill="#E8A15B"/>
<path d="M11 28.5C7.7 28.5 5 25.8 5 22.5C5 19.2 7.7 16.5 11 16.5C14.3 16.5 17 19.2 17 22.5C17 25.8 14.3 28.5 11 28.5ZM11 18.5C8.8 18.5 7 20.3 7 22.5C7 24.7 8.8 26.5 11 26.5C13.2 26.5 15 24.7 15 22.5C15 20.3 13.2 18.5 11 18.5Z" fill="#637EA8"/>
<path d="M1.99961 38.9001C1.99961 35.4001 4.89961 32.5001 8.39961 32.5001H13.6996C14.0996 32.5001 14.3996 32.5001 14.6996 32.6001C15.1996 32.7001 15.6996 32.4001 15.7996 31.9001C15.8996 31.4001 15.5996 30.8001 14.9996 30.7001C14.5996 30.6001 14.0996 30.6001 13.5996 30.6001H8.39961C3.79961 30.6001 0.0996094 34.3001 0.0996094 38.9001V48.5001C0.0996094 49.0001 0.499609 49.5001 1.09961 49.5001H13.7996C14.2996 49.5001 14.7996 49.1001 14.7996 48.5001C14.7996 48.0001 14.3996 47.5001 13.7996 47.5001H1.99961V38.9001Z" fill="#637EA8"/>
<path d="M49 28.5C45.7 28.5 43 25.8 43 22.5C43 19.2 45.7 16.5 49 16.5C52.3 16.5 55 19.2 55 22.5C55 25.8 52.3 28.5 49 28.5ZM49 18.5C46.8 18.5 45 20.3 45 22.5C45 24.7 46.8 26.5 49 26.5C51.2 26.5 53 24.7 53 22.5C53 20.3 51.2 18.5 49 18.5Z" fill="#3F496A"/>
<path d="M51.599 30.5H46.299C45.999 30.5 45.699 30.5 45.399 30.6C44.799 30.7 44.499 31.2 44.599 31.8C44.699 32.3 45.199 32.6 45.599 32.5C45.799 32.5 45.999 32.5 46.299 32.5H51.599C55.099 32.5 57.999 35.4 57.999 38.9V47.6H46.499C45.999 47.6 45.499 48 45.499 48.6C45.499 49.1 45.899 49.6 46.499 49.6H58.999C59.499 49.6 59.999 49.2 59.999 48.6V39C59.999 34.3 56.199 30.5 51.599 30.5Z" fill="#3F496A"/>
<path d="M28.9284 44.0548C28.731 44.0222 28.55 43.891 28.3689 43.7597L23.3468 38.5725C23.001 38.2113 23.0001 37.603 23.3612 37.2572C23.7223 36.9115 24.3306 36.9105 24.6764 37.2717L29.0894 41.8516L36.5585 34.6723C36.9196 34.3265 37.5279 34.3256 37.8737 34.6867C38.2195 35.0479 38.2204 35.6561 37.8593 36.0019L29.7665 43.8891C29.6353 44.0702 29.323 44.12 29.1094 44.186C29.027 44.0711 28.9284 44.0548 28.9284 44.0548Z" fill="#E8A15B"/>
</svg>
