<svg width="60" height="60" viewBox="0 0 60 60" fill="none" xmlns="http://www.w3.org/2000/svg">
<path d="M25.4992 25.9C25.2992 25.9 24.9992 25.8 24.7992 25.6L2.29922 3.09996C1.99922 2.69996 1.99922 2.09996 2.29922 1.79996C2.59922 1.49996 3.29922 1.39996 3.59922 1.79996L26.0992 24.3C26.4992 24.7 26.4992 25.3 26.0992 25.6C25.9992 25.8 25.6992 25.9 25.4992 25.9Z" fill="#E8A15B"/>
<path d="M3 25.9C2.8 25.9 2.5 25.8 2.3 25.6C1.9 25.2 1.9 24.6 2.3 24.3L24.8 1.8C25.2 1.4 25.8 1.4 26.1 1.8C26.4 2.2 26.5 2.8 26.1 3.1L3.7 25.6C3.5 25.8 3.2 25.9 3 25.9Z" fill="#E8A15B"/>
<path d="M34.5 58.4999C34.3 58.4999 34 58.3999 33.8 58.1999C33.4 57.7999 33.4 57.1999 33.8 56.8999L56.3 34.3999C56.7 33.9999 57.3 33.9999 57.6 34.3999C57.9 34.7999 58 35.3999 57.6 35.6999L35.2 58.1999C35 58.3999 34.7 58.4999 34.5 58.4999Z" fill="#E8A15B"/>
<path d="M57 58.4998C56.8 58.4998 56.5 58.3998 56.3 58.1998L33.8 35.6998C33.4 35.2998 33.4 34.6998 33.8 34.3998C34.2 34.0998 34.8 33.9998 35.1 34.3998L57.6 56.8998C58 57.2998 58 57.8998 57.6 58.1998C57.5 58.3998 57.2 58.4998 57 58.4998Z" fill="#E8A15B"/>
<path d="M25.5 25.8999H3C2.5 25.8999 2 25.4999 2 24.8999V2.3999C2 1.8999 2.4 1.3999 3 1.3999H25.5C26 1.3999 26.5 1.7999 26.5 2.3999V24.8999C26.5 25.4999 26 25.8999 25.5 25.8999ZM4 23.9999H24.6V3.3999H4V23.9999Z" fill="#3F496A"/>
<path d="M57 25.8999H34.5C34 25.8999 33.5 25.4999 33.5 24.8999V2.3999C33.5 1.8999 33.9 1.3999 34.5 1.3999H57C57.5 1.3999 58 1.7999 58 2.3999V24.8999C58 25.4999 57.5 25.8999 57 25.8999ZM35.5 23.9999H56V3.3999H35.5V23.9999Z" fill="#637EA8"/>
<path d="M25.5 58.4999H3C2.5 58.4999 2 58.0999 2 57.4999V35.0999C2 34.5999 2.4 34.0999 3 34.0999H25.5C26 34.0999 26.5 34.4999 26.5 35.0999V57.5999C26.5 58.0999 26 58.4999 25.5 58.4999ZM4 56.5999H24.6V35.9999H4V56.5999Z" fill="#637EA8"/>
<path d="M57 58.4999H34.5C34 58.4999 33.5 58.0999 33.5 57.4999V35.0999C33.5 34.5999 33.9 34.0999 34.5 34.0999H57C57.5 34.0999 58 34.4999 58 35.0999V57.5999C58 58.0999 57.5 58.4999 57 58.4999ZM35.5 56.5999H56V35.9999H35.5V56.5999Z" fill="#3F496A"/>
</svg>
