<svg width="60" height="60" viewBox="0 0 60 60" fill="none" xmlns="http://www.w3.org/2000/svg">
<path d="M31 9.1V2C31 1.5 30.6 1 30 1C29.4 1 29 1.4 29 2V9.1C24.8 9.6 21.5 13.2 21.5 17.5V21C21.5 21.5 21.9 22 22.5 22H37.5C38 22 38.5 21.6 38.5 21V17.5C38.5 13.1 35.2 9.6 31 9.1ZM36.5 20H23.5V17.5C23.5 13.9 26.4 11 30 11C33.6 11 36.5 13.9 36.5 17.5V20Z" fill="#637EA8"/>
<path d="M44 34H16C15.5 34 15 34.4 15 35V39C15 39.5 15.4 40 16 40H27.5V54H25.5C25 54 24.5 54.4 24.5 55V58C24.5 58.5 24.9 59 25.5 59H34.5C35 59 35.5 58.6 35.5 58V55C35.5 54.5 35.1 54 34.5 54H32.5V39.9H44C44.5 39.9 45 39.5 45 38.9V34.9C45 34.4 44.5 34 44 34ZM33.5 57H26.4V55.9H28.4H31.4H33.4V57H33.5ZM30.5 54H29.4V39.9H30.5V54ZM43 38H31.5H28.5H17V35.9H43V38Z" fill="#E8A15B"/>
<path d="M17.7004 58.9C17.6004 58.9 17.6004 58.9 17.7004 58.9L2.30039 58.7C1.80039 58.7 1.40039 58.3 1.40039 57.8V26C1.40039 25.5 1.80039 25 2.40039 25H4.80039C8.40039 25 11.3004 28.4 11.3004 32.5V41.5H12.3004C15.9004 41.5 18.8004 44.9 18.8004 49V58C18.8004 58.3 18.7004 58.5 18.5004 58.7C18.1004 58.8 17.9004 58.9 17.7004 58.9ZM3.30039 56.8L16.7004 57V49.1C16.7004 46 14.7004 43.5 12.1004 43.5H10.2004C9.70039 43.5 9.20039 43.1 9.20039 42.5V32.5C9.20039 29.4 7.20039 26.9 4.60039 26.9H3.30039V56.8Z" fill="#3F496A"/>
<path d="M42.3008 58.9001C42.0008 58.9001 41.8008 58.8001 41.6008 58.6001C41.4008 58.4001 41.3008 58.2001 41.3008 57.9001V49.1001C41.3008 44.9001 44.2008 41.6001 47.8008 41.6001H48.8008V32.6001C48.8008 28.4001 51.7008 25.1001 55.3008 25.1001H57.7008C58.2008 25.1001 58.7008 25.5001 58.7008 26.1001V57.9001C58.7008 58.4001 58.3008 58.8001 57.8008 58.8001L42.3008 58.9001C42.4008 58.9001 42.4008 58.9001 42.3008 58.9001ZM47.9008 43.5001C45.4008 43.5001 43.3008 46.0001 43.3008 49.1001V57.0001L56.7008 56.8001V26.9001H55.3008C52.8008 26.9001 50.7008 29.4001 50.7008 32.5001V42.5001C50.7008 43.0001 50.3008 43.5001 49.7008 43.5001H47.9008Z" fill="#3F496A"/>
</svg>
