<svg width="60" height="60" viewBox="0 0 60 60" fill="none" xmlns="http://www.w3.org/2000/svg">
<path d="M41.0637 13H17.9363C17.4682 13 17 12.6 17 12C17 11.4 17.3745 11 17.9363 11H41.0637C41.5318 11 42 11.4 42 12C42 12.6 41.5318 13 41.0637 13Z" fill="#E8A15B"/>
<path d="M11.1992 14.9001C9.59922 14.9001 8.19922 13.6001 8.19922 11.9001C8.19922 10.2001 9.49922 8.90015 11.1992 8.90015C12.8992 8.90015 14.1992 10.2001 14.1992 11.9001C14.1992 13.6001 12.8992 14.9001 11.1992 14.9001ZM11.1992 10.9001C10.5992 10.9001 10.1992 11.4001 10.1992 11.9001C10.1992 12.4001 10.6992 12.9001 11.1992 12.9001C11.6992 12.9001 12.1992 12.4001 12.1992 11.9001C12.1992 11.4001 11.7992 10.9001 11.1992 10.9001Z" fill="#637EA8"/>
<path d="M41.0637 23H17.9363C17.4682 23 17 22.6 17 22C17 21.4 17.3745 21 17.9363 21H41.0637C41.5318 21 42 21.4 42 22C42 22.6 41.5318 23 41.0637 23Z" fill="#E8A15B"/>
<path d="M11.1992 24.9001C9.59922 24.9001 8.19922 23.6001 8.19922 21.9001C8.19922 20.2001 9.49922 18.9001 11.1992 18.9001C12.8992 18.9001 14.1992 20.2001 14.1992 21.9001C14.1992 23.6001 12.8992 24.9001 11.1992 24.9001ZM11.1992 20.9001C10.5992 20.9001 10.1992 21.4001 10.1992 21.9001C10.1992 22.4001 10.6992 22.9001 11.1992 22.9001C11.6992 22.9001 12.1992 22.4001 12.1992 21.9001C12.1992 21.4001 11.7992 20.9001 11.1992 20.9001Z" fill="#637EA8"/>
<path d="M41.0637 33H17.9363C17.4682 33 17 32.6 17 32C17 31.4 17.3745 31 17.9363 31H41.0637C41.5318 31 42 31.4 42 32C42 32.6 41.5318 33 41.0637 33Z" fill="#E8A15B"/>
<path d="M11.1992 34.9001C9.59922 34.9001 8.19922 33.6001 8.19922 31.9001C8.19922 30.2001 9.49922 28.9001 11.1992 28.9001C12.8992 28.9001 14.1992 30.2001 14.1992 31.9001C14.1992 33.6001 12.8992 34.9001 11.1992 34.9001ZM11.1992 30.9001C10.5992 30.9001 10.1992 31.4001 10.1992 31.9001C10.1992 32.4001 10.6992 32.9001 11.1992 32.9001C11.6992 32.9001 12.1992 32.4001 12.1992 31.9001C12.1992 31.4001 11.7992 30.9001 11.1992 30.9001Z" fill="#637EA8"/>
<path d="M44.2992 48.8C45.0992 47.8 45.6992 46.5 45.6992 45C45.6992 41.7 42.9992 39 39.6992 39C36.3992 39 33.6992 41.7 33.6992 45C33.6992 46.4 34.1992 47.8 35.0992 48.8C32.7992 49.9 31.1992 52.3 31.1992 55V58C31.1992 58.5 31.5992 59 32.1992 59H47.1992C47.6992 59 48.1992 58.6 48.1992 58V55C48.1992 52.3 46.5992 49.9 44.2992 48.8ZM35.6992 45C35.6992 42.8 37.4992 41 39.6992 41C41.8992 41 43.6992 42.8 43.6992 45C43.6992 46.3 43.0992 47.4 42.1992 48.1C41.4992 48.7 40.5992 49 39.6992 49C38.7992 49 37.8992 48.6 37.1992 48.1C36.2992 47.4 35.6992 46.3 35.6992 45ZM46.2992 57.1H33.1992V55.1C33.1992 52.8 34.6992 50.9 36.7992 50.3C37.6992 50.8 38.6992 51.1 39.6992 51.1C40.6992 51.1 41.7992 50.8 42.5992 50.3C44.6992 50.9 46.1992 52.8 46.1992 55.1V57.1H46.2992Z" fill="#3F496A"/>
<path d="M24.1992 55.1002V53.1002C24.1992 50.8002 25.6992 48.9002 27.7992 48.3002C28.6992 48.8002 29.6992 49.1002 30.6992 49.1002C31.3992 49.1002 32.0992 49.0002 32.6992 48.7002C33.1992 48.5002 33.3992 47.9002 33.1992 47.5002C32.9992 47.0002 32.4992 46.8002 31.9992 47.0002C31.5992 47.2002 31.0992 47.3002 30.5992 47.3002C29.5992 47.3002 28.7992 46.9002 28.0992 46.4002C26.9992 45.5002 26.2992 43.9002 26.6992 42.3002C26.9992 40.9002 28.1992 39.7002 29.5992 39.4002C31.1992 39.0002 32.5992 39.6002 33.5992 40.6002C33.8992 41.0002 34.4992 41.0002 34.8992 40.7002C34.8992 40.7002 34.9992 40.7002 34.9992 40.6002C35.3992 40.3002 35.4992 39.7002 35.0992 39.3002C33.8992 37.9002 31.9992 37.1002 29.9992 37.3002C27.3992 37.6002 25.1992 39.6002 24.7992 42.2002C24.4992 44.0002 24.9992 45.7002 26.0992 47.0002C23.7992 48.1002 22.1992 50.5002 22.1992 53.2002V56.2002C22.1992 56.7002 22.5992 57.2002 23.1992 57.2002H29.2992C29.7992 57.2002 30.2992 56.8002 30.2992 56.2002C30.2992 55.7002 29.8992 55.2002 29.2992 55.2002H24.1992V55.1002Z" fill="#E8A15B"/>
<path d="M55.4988 55.1001V53.1001C55.4988 50.8001 53.9988 48.9001 51.8988 48.3001C50.9988 48.7001 49.9988 49.0001 48.8988 49.0001C48.1988 49.0001 47.4988 48.9001 46.8988 48.6001C46.3988 48.4001 46.1988 47.8001 46.3988 47.4001C46.5988 46.9001 47.0988 46.7001 47.5988 46.9001C47.9988 47.1001 48.4988 47.2001 48.9988 47.2001C49.9988 47.2001 50.7988 46.8001 51.4988 46.3001C52.5988 45.4001 53.2988 43.8001 52.8988 42.2001C52.5988 40.8001 51.3988 39.6001 49.9988 39.3001C48.3988 38.9001 46.9988 39.5001 45.9988 40.5001C45.6988 40.9001 45.0988 40.9001 44.6988 40.6001C44.6988 40.6001 44.5988 40.6001 44.5988 40.5001C44.1988 40.2001 44.0988 39.6001 44.4988 39.2001C45.6988 37.8001 47.5988 37.0001 49.5988 37.2001C52.1988 37.5001 54.3988 39.5001 54.7988 42.1001C55.0988 43.9001 54.5988 45.6001 53.4988 46.9001C55.7988 48.0001 57.3988 50.4001 57.3988 53.1001V56.1001C57.3988 56.6001 56.9988 57.1001 56.3988 57.1001H50.2988C49.7988 57.1001 49.2988 56.7001 49.2988 56.1001C49.2988 55.6001 49.6988 55.1001 50.2988 55.1001H55.4988Z" fill="#637EA8"/>
<path d="M5.29961 48.0001C4.79961 48.0001 4.49961 47.6001 4.49961 47.2001V3.80006C4.49961 3.30006 4.89961 3.00006 5.29961 3.00006H45.6996C46.1996 3.00006 46.4996 3.40006 46.4996 3.80006V34.1001C46.4996 34.6001 46.8996 35.1001 47.4996 35.1001C47.9996 35.1001 48.4996 34.7001 48.4996 34.1001V3.80006C48.4996 2.30006 47.2996 1.10006 45.7996 1.10006H5.29961C3.79961 1.00006 2.59961 2.20006 2.59961 3.80006V47.2001C2.59961 48.7001 3.79961 49.9001 5.29961 49.9001H19.4996C19.9996 49.9001 20.4996 49.5001 20.4996 48.9001C20.4996 48.4001 20.0996 47.9001 19.4996 47.9001H5.29961V48.0001Z" fill="#3F496A"/>
</svg>
