<svg width="60" height="60" viewBox="0 0 60 60" fill="none" xmlns="http://www.w3.org/2000/svg">
<path d="M51.3996 53.5H8.59961C8.09961 53.5 7.59961 53.1 7.59961 52.5V3.5C7.59961 3 7.99961 2.5 8.59961 2.5H51.2996C51.7996 2.5 52.2996 2.9 52.2996 3.5V52.5C52.2996 53 51.8996 53.5 51.3996 53.5ZM9.59961 51.5H50.3996V4.5H9.59961V51.5Z" fill="#3F496A"/>
<path d="M46.7992 44.5H13.1992C12.6992 44.5 12.1992 44.0999 12.1992 43.5V8.69995C12.1992 8.19995 12.5992 7.69995 13.1992 7.69995H46.8992C47.3992 7.69995 47.8992 8.09995 47.8992 8.69995V43.5C47.7992 44 47.2992 44.5 46.7992 44.5ZM14.0992 42.5H45.8992V9.69995H14.0992V42.5Z" fill="#E8A15B"/>
<path d="M25.6992 57.5C25.1992 57.5 24.6992 57.1 24.6992 56.5V52.5C24.6992 52 25.0992 51.5 25.6992 51.5C26.2992 51.5 26.6992 51.9 26.6992 52.5V56.5C26.5992 57 26.1992 57.5 25.6992 57.5Z" fill="#3F496A"/>
<path d="M35.2988 57.5C34.7988 57.5 34.2988 57.1 34.2988 56.5V52.5C34.2988 52 34.6988 51.5 35.2988 51.5C35.8988 51.5 36.2988 51.9 36.2988 52.5V56.5C36.2988 57 35.8988 57.5 35.2988 57.5Z" fill="#3F496A"/>
<path d="M21.5 49.5H13.5C13 49.5 12.5 49.1 12.5 48.5C12.5 47.9 12.9 47.5 13.5 47.5H21.5C22 47.5 22.5 47.9 22.5 48.5C22.5 49.1 22 49.5 21.5 49.5Z" fill="#637EA8"/>
<path d="M38.5 49.5H37.5C37 49.5 36.5 49.1 36.5 48.5C36.5 47.9 36.9 47.5 37.5 47.5H38.5C39 47.5 39.5 47.9 39.5 48.5C39.5 49.1 39 49.5 38.5 49.5Z" fill="#E8A15B"/>
<path d="M42.5 49.5H41.5C41 49.5 40.5 49.1 40.5 48.5C40.5 47.9 40.9 47.5 41.5 47.5H42.5C43 47.5 43.5 47.9 43.5 48.5C43.5 49.1 43 49.5 42.5 49.5Z" fill="#E8A15B"/>
<path d="M46.5 49.5H45.5C45 49.5 44.5 49.1 44.5 48.5C44.5 47.9 44.9 47.5 45.5 47.5H46.5C47 47.5 47.5 47.9 47.5 48.5C47.5 49.1 47 49.5 46.5 49.5Z" fill="#E8A15B"/>
<path d="M37.7 15.6001H23.5C23 15.6001 22.5 15.2001 22.5 14.6001C22.5 14.0001 22.9 13.6001 23.5 13.6001H37.7C38.2 13.6001 38.7 14.0001 38.7 14.6001C38.7 15.2001 38.2 15.6001 37.7 15.6001Z" fill="#637EA8"/>
<path d="M41.7 38.6001H37.5C37 38.6001 36.5 38.2001 36.5 37.6001C36.5 37.0001 36.9 36.6001 37.5 36.6001H41.7C42.2 36.6001 42.7 37.0001 42.7 37.6001C42.7 38.2001 42.2 38.6001 41.7 38.6001Z" fill="#637EA8"/>
<path d="M41.7 23.5H27.5C27 23.5 26.5 23.1 26.5 22.5C26.5 21.9 26.9 21.5 27.5 21.5H41.7C42.2 21.5 42.7 21.9 42.7 22.5C42.7 23.1 42.2 23.5 41.7 23.5Z" fill="#3F496A"/>
<path d="M23.5 25.5H18.5C18 25.5 17.5 25.1 17.5 24.5V20.5C17.5 20 17.9 19.5 18.5 19.5H23.5C24 19.5 24.5 19.9 24.5 20.5V24.5C24.5 25.1 24 25.5 23.5 25.5ZM19.5 23.6H22.6V21.5H19.5V23.6Z" fill="#3F496A"/>
<path d="M41.7 32.5H27.5C27 32.5 26.5 32.1 26.5 31.5C26.5 30.9 26.9 30.5 27.5 30.5H41.7C42.2 30.5 42.7 30.9 42.7 31.5C42.7 32.1 42.2 32.5 41.7 32.5Z" fill="#3F496A"/>
<path d="M23.5 34.5H18.5C18 34.5 17.5 34.1 17.5 33.5V29.5C17.5 29 17.9 28.5 18.5 28.5H23.5C24 28.5 24.5 28.9 24.5 29.5V33.5C24.5 34.1 24 34.5 23.5 34.5ZM19.5 32.6H22.6V30.5H19.5V32.6Z" fill="#3F496A"/>
</svg>
