<svg width="60" height="60" viewBox="0 0 60 60" fill="none" xmlns="http://www.w3.org/2000/svg">
<path d="M20.3008 33.5H9.70078C8.40078 33.5 7.30078 32.4 7.30078 31.1V24.1C7.30078 22.8 8.40078 21.7 9.70078 21.7H20.2008C21.5008 21.7 22.6008 22.8 22.6008 24.1V31.1C22.7008 32.4 21.6008 33.5 20.3008 33.5ZM9.70078 23.5C9.40078 23.5 9.20078 23.7 9.20078 24V31C9.20078 31.3 9.40078 31.5 9.70078 31.5H20.2008C20.5008 31.5 20.7008 31.3 20.7008 31V24C20.7008 23.7 20.5008 23.5 20.2008 23.5H9.70078Z" fill="#E8A15B"/>
<path d="M57 40.3H3C2.5 40.3 2 39.9 2 39.3C2 38.7 2.4 38.3 3 38.3H57C57.5 38.3 58 38.7 58 39.3C58 39.9 57.5 40.3 57 40.3Z" fill="#637EA8"/>
<path d="M57 50.2H3C2.5 50.2 2 49.8 2 49.2C2 48.6 2.4 48.2 3 48.2H57C57.5 48.2 58 48.6 58 49.2C58 49.8 57.5 50.2 57 50.2Z" fill="#637EA8"/>
<path d="M54.9996 17.5C54.9996 17.8 55.0996 18 55.2996 18.2C55.7996 18.7 56.0996 19.4 56.0996 20.1V52.8C56.0996 54.3 54.8996 55.5 53.3996 55.5H6.69961C5.19961 55.5 3.99961 54.3 3.99961 52.8V20.2C3.99961 18.7 5.19961 17.5 6.69961 17.5H22.0996C22.5996 17.5 23.0996 17.1 23.0996 16.5C23.0996 16 22.6996 15.5 22.0996 15.5H6.69961C4.09961 15.5 2.09961 17.6 2.09961 20.1V52.8C2.09961 55.3 4.19961 57.4 6.69961 57.4H53.3996C55.9996 57.4 57.9996 55.3 57.9996 52.8V20.2C57.9996 18.9 57.3996 17.7 56.4996 16.9C55.8996 16.3 54.9996 16.7 54.9996 17.5Z" fill="#3F496A"/>
<path d="M39 30.5C31.3 30.5 25 24.2 25 16.5C25 8.8 31.3 2.5 39 2.5C46.7 2.5 53 8.8 53 16.5C53 24.2 46.7 30.5 39 30.5ZM39 4.5C32.4 4.5 27 9.9 27 16.5C27 23.1 32.4 28.5 39 28.5C45.6 28.5 51 23.1 51 16.5C51 9.9 45.6 4.5 39 4.5Z" fill="#637EA8"/>
<path d="M35.0007 15.2001C33.4007 15.1001 32.1007 13.7001 32.2007 12.1001C32.3007 10.5001 33.7007 9.20009 35.3007 9.30009C36.9007 9.40009 38.2007 10.8001 38.1007 12.4001C38.0007 14.0001 36.7007 15.3001 35.0007 15.2001ZM35.2007 11.2001C34.6007 11.2001 34.1007 11.6001 34.1007 12.2001C34.1007 12.8001 34.5007 13.3001 35.1007 13.3001C35.7007 13.3001 36.2007 12.9001 36.2007 12.3001C36.3007 11.8001 35.8007 11.3001 35.2007 11.2001Z" fill="#E8A15B"/>
<path d="M43.6003 23.7001C42.0003 23.6001 40.7003 22.2001 40.8003 20.6001C40.9003 19.0001 42.3003 17.7001 43.9003 17.8001C45.5003 17.9001 46.8003 19.3001 46.7003 20.9001C46.6003 22.5001 45.3003 23.7001 43.6003 23.7001ZM43.8003 19.7001C43.2003 19.7001 42.7003 20.1001 42.7003 20.7001C42.7003 21.3001 43.1003 21.8001 43.7003 21.8001C44.3003 21.8001 44.8003 21.4001 44.8003 20.8001C44.9003 20.2001 44.4003 19.7001 43.8003 19.7001Z" fill="#E8A15B"/>
<path d="M35.2014 23.3C35.0014 23.3 34.7014 23.3 34.5014 23.1C34.1014 22.8 34.0014 22.2 34.3014 21.8L42.8014 9.60002C43.0014 9.20002 43.6014 9.10002 44.0014 9.40002C44.4014 9.70002 44.5014 10.3 44.2014 10.7L35.7014 22.9C35.6014 23.1 35.4014 23.2 35.2014 23.3Z" fill="#E8A15B"/>
</svg>
