<svg width="60" height="60" viewBox="0 0 60 60" fill="none" xmlns="http://www.w3.org/2000/svg">
<path d="M17.8008 55C16.2008 55 14.8008 53.7 14.8008 52C14.8008 50.3 16.1008 49 17.8008 49C19.5008 49 20.8008 50.3 20.8008 52C20.8008 53.7 19.4008 55 17.8008 55ZM17.8008 51C17.2008 51 16.8008 51.5 16.8008 52C16.8008 52.5 17.3008 53 17.8008 53C18.3008 53 18.8008 52.5 18.8008 52C18.8008 51.5 18.3008 51 17.8008 51Z" fill="#E8A15B"/>
<path d="M30.3008 29C28.1008 29 26.3008 27.2 26.3008 25C26.3008 22.8 28.1008 21 30.3008 21C32.5008 21 34.3008 22.8 34.3008 25C34.3008 27.2 32.4008 29 30.3008 29ZM30.3008 23C29.2008 23 28.3008 23.9 28.3008 25C28.3008 26.1 29.2008 27 30.3008 27C31.4008 27 32.3008 26.1 32.3008 25C32.3008 23.9 31.4008 23 30.3008 23Z" fill="#637EA8"/>
<path d="M39.8008 29C37.6008 29 35.8008 27.2 35.8008 25C35.8008 22.8 37.6008 21 39.8008 21C42.0008 21 43.8008 22.8 43.8008 25C43.8008 27.2 41.9008 29 39.8008 29ZM39.8008 23C38.7008 23 37.8008 23.9 37.8008 25C37.8008 26.1 38.7008 27 39.8008 27C40.9008 27 41.8008 26.1 41.8008 25C41.8008 23.9 40.9008 23 39.8008 23Z" fill="#637EA8"/>
<path d="M49.3008 29C47.1008 29 45.3008 27.2 45.3008 25C45.3008 22.8 47.1008 21 49.3008 21C51.5008 21 53.3008 22.8 53.3008 25C53.3008 27.2 51.4008 29 49.3008 29ZM49.3008 23C48.2008 23 47.3008 23.9 47.3008 25C47.3008 26.1 48.2008 27 49.3008 27C50.4008 27 51.3008 26.1 51.3008 25C51.3008 23.9 50.4008 23 49.3008 23Z" fill="#637EA8"/>
<path d="M21.3008 7H14.3008C13.8008 7 13.3008 6.6 13.3008 6C13.3008 5.4 13.7008 5 14.3008 5H21.3008C21.8008 5 22.3008 5.4 22.3008 6C22.3008 6.6 21.8008 7 21.3008 7Z" fill="#637EA8"/>
<path d="M54.4008 12H25.1008C23.5008 12 22.3008 13.3 22.3008 14.8V34.6C22.3008 36.2 23.6008 37.4 25.1008 37.4H26.5008V46C26.5008 46.4 26.7008 46.7 27.1008 46.9C27.2008 46.9 27.3008 47 27.4008 47C27.7008 47 27.9008 46.9 28.1008 46.7L36.2008 37.6H54.2008C55.8008 37.6 57.0008 36.3 57.0008 34.8V14.9C57.2008 13.3 55.9008 12 54.4008 12ZM55.3008 34.7C55.3008 35.2 54.9008 35.6 54.4008 35.6H38.0008H35.9008C35.6008 35.6 35.3008 35.7 35.2008 35.9L33.8008 37.5L28.5008 43.5V37.5V36.6C28.5008 36 28.1008 35.6 27.5008 35.6H26.6008H25.2008C24.7008 35.6 24.3008 35.2 24.3008 34.7V14.9C24.3008 14.4 24.7008 14 25.2008 14H54.4008C54.9008 14 55.3008 14.4 55.3008 14.9V34.7Z" fill="#E8A15B"/>
<path d="M30.8008 54.8C30.8008 55.8 30.0008 56.6 29.0008 56.6H6.50078C5.50078 56.6 4.70078 55.8 4.70078 54.8V5.2C4.70078 4.2 5.50078 3.4 6.50078 3.4H29.0008C30.0008 3.4 30.8008 4.2 30.8008 5.2V9.1C30.8008 9.6 31.2008 10.1 31.8008 10.1C32.3008 10.1 32.8008 9.7 32.8008 9.1V5.2C32.8008 3.2 31.2008 1.5 29.1008 1.5H6.50078C4.50078 1.5 2.80078 3.1 2.80078 5.2V54.8C2.80078 56.8 4.40078 58.5 6.50078 58.5H29.0008C31.0008 58.5 32.7008 56.9 32.7008 54.8V49.9C32.7008 49.4 32.3008 48.9 31.7008 48.9C31.2008 48.9 30.7008 49.3 30.7008 49.9V54.8H30.8008Z" fill="#3F496A"/>
</svg>
