<svg width="60" height="60" viewBox="0 0 60 60" fill="none" xmlns="http://www.w3.org/2000/svg">
<path d="M50.1002 22.5001C49.6002 22.5001 49.3002 22.2001 49.2002 21.7001L46.2002 5.5001H13.7002L10.8002 21.7001C10.7002 22.2001 10.2002 22.6001 9.70019 22.5001C9.20019 22.4001 8.80019 21.9001 8.90019 21.4001L11.9002 4.4001C12.0002 3.9001 12.4002 3.6001 12.8002 3.6001H46.8002C47.3002 3.6001 47.7002 3.9001 47.7002 4.4001L50.8002 21.4001C50.9002 21.9001 50.6002 22.4001 50.0002 22.5001C50.2002 22.4001 50.1002 22.5001 50.1002 22.5001Z" fill="#637EA8"/>
<path d="M43.3998 22.4999H43.2998C42.7998 22.3999 42.3998 21.8999 42.4998 21.3999L45.0998 4.3999C45.1998 3.8999 45.6998 3.4999 46.1998 3.5999C46.6998 3.6999 47.0998 4.1999 46.9998 4.6999L44.3998 21.6999C44.2998 22.0999 43.8998 22.4999 43.3998 22.4999Z" fill="#637EA8"/>
<path d="M39.8004 12.5H17.9004C17.4004 12.5 16.9004 12.1 16.9004 11.5C16.9004 10.9 17.3004 10.5 17.9004 10.5H39.8004C40.3004 10.5 40.8004 10.9 40.8004 11.5C40.8004 12.1 40.4004 12.5 39.8004 12.5Z" fill="#E8A15B"/>
<path d="M35.0992 17.5H20.1992C19.6992 17.5 19.1992 17.1 19.1992 16.5C19.1992 15.9 19.5992 15.5 20.1992 15.5H35.0992C35.5992 15.5 36.0992 15.9 36.0992 16.5C36.0992 17.1 35.5992 17.5 35.0992 17.5Z" fill="#E8A15B"/>
<path d="M57 27.5H3C2.5 27.5 2 27.1 2 26.5V22.5C2 22 2.4 21.5 3 21.5H57C57.5 21.5 58 21.9 58 22.5V26.5C58 27 57.5 27.5 57 27.5ZM4 25.5H56V23.4H4V25.5Z" fill="#3F496A"/>
<path d="M38 55.5H22C21.5 55.5 21 55.1 21 54.5V50.5C21 50 21.4 49.5 22 49.5H38C38.5 49.5 39 49.9 39 50.5V54.5C39 55 38.5 55.5 38 55.5ZM23 53.5H37V51.4H23V53.5Z" fill="#3F496A"/>
<path d="M32 51.5H28C27.5 51.5 27 51.1 27 50.5V26.5C27 26 27.4 25.5 28 25.5H32C32.5 25.5 33 25.9 33 26.5V50.5C33 51 32.5 51.5 32 51.5ZM29 49.5H31V27.5H29V49.5Z" fill="#3F496A"/>
</svg>
