<svg width="60" height="60" viewBox="0 0 60 60" fill="none" xmlns="http://www.w3.org/2000/svg">
    <path d="M46.3969 17C46.3969 16.9 46.3969 16.9 46.3969 16.8C46.3969 16.7 46.3969 16.7 46.3969 16.6C46.3969 16.5 46.2969 16.4 46.2969 16.4C46.2969 16.4 46.2969 16.3 46.1969 16.3L32.8969 3.10005C32.7969 3.00005 32.6969 2.90005 32.5969 2.90005C32.4969 2.90005 32.3969 2.80005 32.1969 2.80005H11.7969C11.2969 2.80005 10.7969 3.20005 10.7969 3.80005V34.6C10.7969 35.1 11.1969 35.6 11.7969 35.6C12.3969 35.6 12.7969 35.2 12.7969 34.6V4.70005H31.1969V17.2C31.1969 17.5 31.2969 17.7 31.4969 17.9C31.6969 18.1 31.8969 18.2 32.1969 18.2L44.4969 18V28.1C44.4969 28.6 44.8969 29.1 45.4969 29.1C46.0969 29.1 46.4969 28.7001 46.4969 28.1V17C46.3969 17 46.3969 17 46.3969 17ZM33.0969 6.10005L43.1969 16.2L33.0969 16.4V6.10005Z" fill="#3F496A"/>
    <path d="M47.2993 57.2H3.39928C3.09928 57.2 2.79928 57 2.59928 56.7999C2.39928 56.5 2.39928 56.2 2.49928 55.9L13.4993 27.7999C13.5993 27.3999 13.9993 27.2 14.3993 27.2H56.6993C56.9993 27.2 57.2993 27.3 57.4993 27.6C57.6993 27.8 57.6993 28.2 57.5993 28.5L48.2993 56.5999C48.0993 56.8999 47.6993 57.2 47.2993 57.2ZM4.79928 55.2999H46.5993L55.2993 29.1H14.9993L4.79928 55.2999Z" fill="#637EA8"/>
    <path d="M3.39844 57.2C2.89844 57.2 2.39844 56.7999 2.39844 56.2L3.39844 14.1C3.39844 13.6 3.79844 13.2 4.39844 13.2H7.39844C7.89844 13.2 8.39844 13.6 8.39844 14.2C8.39844 14.8 7.99844 15.2 7.39844 15.2H5.29844L4.29844 56.4C4.29844 56.8 3.89844 57.2 3.39844 57.2Z" fill="#637EA8"/>
    <path d="M53.3984 29.1001C52.8984 29.1001 52.3984 28.7001 52.3984 28.1001V21.1001H49.3984C48.8984 21.1001 48.3984 20.7001 48.3984 20.1001C48.3984 19.5001 48.7984 19.1001 49.3984 19.1001H53.3984C53.8984 19.1001 54.3984 19.5001 54.3984 20.1001V28.1001C54.2984 28.6001 53.8984 29.1001 53.3984 29.1001Z" fill="#637EA8"/>
    <path d="M26.3 11.5H17C16.5 11.5 16 11.1 16 10.5C16 9.9 16.4 9.5 17 9.5H26.3C26.8 9.5 27.3 9.9 27.3 10.5C27.3 11.1 26.8 11.5 26.3 11.5Z" fill="#E8A15B"/>
    <path d="M26.3 17.5H17C16.5 17.5 16 17.1 16 16.5C16 15.9 16.4 15.5 17 15.5H26.3C26.8 15.5 27.3 15.9 27.3 16.5C27.3 17.1 26.8 17.5 26.3 17.5Z" fill="#E8A15B"/>
    <path d="M38.3984 23.5H16.8984C16.3984 23.5 15.8984 23.1 15.8984 22.5C15.8984 21.9 16.2984 21.5 16.8984 21.5H38.2984C38.7984 21.5 39.2984 21.9 39.2984 22.5C39.2984 23.1 38.8984 23.5 38.3984 23.5Z" fill="#E8A15B"/>
</svg>
