<svg width="60" height="60" viewBox="0 0 60 60" fill="none" xmlns="http://www.w3.org/2000/svg">
    <path d="M57.9016 44.2L46.0016 37.8L44.6016 37L42.7016 38H42.6016L44.0016 38.8L55.4016 45L51.5016 47L49.4016 48L45.5016 50L43.4016 51L39.5016 53L37.4016 54L34.3016 55.6L32.4016 56.6L29.5016 58L3.60156 44L6.70156 42.5L8.80156 41.5L12.0016 39.9L13.9016 39L15.1016 38.4L15.6016 38.2L14.2016 37.5L13.4016 37L13.0016 37.2L1.10156 43.2C0.801562 43.4 0.601562 43.7 0.601562 44C0.601562 44.3 0.801562 44.7 1.10156 44.9L29.1016 59.9C29.4016 60 29.7016 60 30.0016 59.9L58.0016 45.9C58.3016 45.7 58.5016 45.4 58.5016 45.1C58.5016 44.8 58.3016 44.3 57.9016 44.2Z" fill="#3F496A"/>
    <path d="M57.9016 29.2L45.6016 23L45.0016 23.3L43.6016 24.1L45.0016 24.8L19.3016 38.7C19.3016 38.7 19.2016 38.7 19.2016 38.8L17.1016 37.7L15.0016 36.7L13.8016 36.1L26.6016 29.1H26.5016L24.5016 28.1L12.3016 34.8C12.1016 34.9 12.0016 35 11.9016 35.2L8.70156 33.6L21.5016 26.6L19.4016 25.6L6.60156 32.6L3.60156 31L16.5016 24.1L16.0016 23.8L14.4016 23L1.10156 30.2C0.801562 30.4 0.601562 30.7 0.601562 31.1C0.601562 31.5 0.801562 31.8 1.10156 31.9L13.0016 37.8L15.1016 38.8L25.6016 44L27.7016 45L29.2016 45.7C29.3016 45.8 29.5016 45.8 29.6016 45.8C29.8016 45.8 29.9016 45.8 30.0016 45.7L31.5016 44.9L33.6016 43.8L44.0016 38.3L46.1016 37.2L58.0016 30.8C58.3016 30.6 58.5016 30.3 58.5016 29.9C58.5016 29.5 58.2016 29.3 57.9016 29.2ZM21.3016 39.8L47.0016 25.8L50.9016 27.8L25.3016 41.7C25.3016 41.7 25.2016 41.7 25.2016 41.8L21.3016 39.8ZM44.0016 36.2L41.9016 37.3L31.4016 42.9L29.5016 43.9L27.6016 42.9L27.3016 42.7L53.0016 28.7L55.4016 29.9L44.0016 36.2Z" fill="#E8A15B"/>
    <path d="M58.9 14.2L30.9 0.2C30.6 0.1 30.3 0.1 30 0.2L2 15.2C1.7 15.4 1.5 15.7 1.5 16.1C1.5 16.5 1.7 16.8 2 16.9L14 22.8L14.4 23L16 23.8L16.4 24L19.4 25.5L21.5 26.5L24.5 28L26.5 29H26.6L28.6 30L30.1 30.7C30.2 30.8 30.4 30.8 30.5 30.8C30.7 30.8 30.8 30.8 30.9 30.7L32.4 29.9L34.5 28.8L43.6 24L45 23.2L45.6 22.9L47 22.1L58.9 15.7C59.2 15.5 59.4 15.2 59.4 14.8C59.4 14.4 59.2 14.3 58.9 14.2ZM45 21.2L43.6 22L43 22.3L41.5 23L32.4 27.8L30.5 28.8L28.6 28H28.5L26.5 27L23.5 25.5L21.4 24.5L18.4 23L18 22.8L16.4 22L16 21.7L4.6 16L30.5 2.1L56.4 15.1L45 21.2Z" fill="#637EA8"/>
</svg>
