<svg width="60" height="60" viewBox="0 0 60 60" fill="none" xmlns="http://www.w3.org/2000/svg">
    <path d="M30.3008 37C26.5008 37 23.3008 33.9 23.3008 30C23.3008 26.1 26.4008 23 30.3008 23C34.2008 23 37.3008 26.1 37.3008 30C37.3008 33.9 34.1008 37 30.3008 37ZM30.3008 25C27.5008 25 25.3008 27.3 25.3008 30C25.3008 32.7 27.6008 35 30.3008 35C33.0008 35 35.3008 32.7 35.3008 30C35.3008 27.3 33.0008 25 30.3008 25Z" fill="#637EA8"/>
    <path d="M42.5 26.5001H41C40.8 25.8001 40.5 25.2001 40.2 24.6001L41.5 23.3001L42.1 22.7001C42.5 22.3001 42.5 21.7001 42.1 21.3001L41.5 20.7001L39.3 18.5001L38.7 17.9001C38.3 17.5001 37.7 17.5001 37.3 17.9001L36.7 18.5001L35.3 19.9001C34.7 19.6001 34.1 19.4001 33.5 19.2001V17.5001V16.6001C33.5 16.0001 33.1 15.6001 32.5 15.6001H31.6H27.6C27 15.6001 26.6 16.0001 26.6 16.6001V17.5001V19.4001C26 19.6001 25.5 19.8001 25 20.1001L23.9 19.0001L23.3 18.4001C22.9 18.0001 22.3 18.0001 21.9 18.4001L21.2 19.0001L19 21.2001L18.4 21.8001C18 22.2001 18 22.8001 18.4 23.2001L19 23.8001L20.1 24.9001C19.8 25.4001 19.6 25.9001 19.4 26.5001H17.4H16.5C15.9 26.5001 15.5 26.9001 15.5 27.5001V28.4001V31.5001V32.4001C15.5 33.0001 15.9 33.4001 16.5 33.4001H17.4H19.3C19.5 34.0001 19.7 34.5001 20 35.0001L19 36.1001L18.4 36.7001C18 37.1001 18 37.7001 18.4 38.1001L19 38.7001L21.2 40.9001L21.8 41.5001C22.2 41.9001 22.8 41.9001 23.2 41.5001L24.8 39.9001C25.4 40.2001 25.9 40.4001 26.5 40.7001V43.3001C26.5 43.9001 26.9 44.3001 27.5 44.3001H28.4H32.4C33 44.3001 33.4 43.9001 33.4 43.3001V41.0001C34.1 40.8001 34.7 40.5001 35.3 40.2001L37.2 42.1001C37.6 42.5001 38.2 42.5001 38.6 42.1001L42.1 38.6001C42.5 38.2001 42.5 37.6001 42.1 37.2001L40.2 35.3001C40.5 34.7001 40.8 34.0001 41 33.3001H42.4H43.3C43.9 33.3001 44.3 32.9001 44.3 32.3001V31.4001V28.3001V27.4001C44.3 26.8001 43.9 26.4001 43.3 26.4001H42.5V26.5001ZM42.5 31.5001H41.5H40.4C39.9 31.5001 39.5 31.8001 39.4 32.2001C39.3 32.6001 39.2 33.0001 39 33.4001C38.9 33.6001 38.9 33.8001 38.8 33.9001C38.6 34.3001 38.4 34.6001 38.2 35.0001C38 35.4001 38 35.9001 38.4 36.2001L39.2 37.0001L40.1 37.9001L38 40.2001L37 39.2001L36.2 38.4001C35.9 38.1001 35.4 38.0001 35 38.2001C34.6 38.4001 34.3 38.6001 33.9 38.8001C33.7 38.9001 33.6 38.9001 33.4 39.0001C33 39.1001 32.6 39.2001 32.3 39.3001C31.9 39.4001 31.5 39.8001 31.5 40.3001V41.4001V42.6001H28.4V41.3001V40.2001C28.4 39.8001 28.1 39.4001 27.7 39.2001C27.3 39.1001 26.9 39.0001 26.5 38.8001C26.4 38.8001 26.3 38.7001 26.2 38.6001C25.8 38.4001 25.5 38.2001 25.2 38.0001C24.8 37.8001 24.3 37.8001 24 38.1001L23.2 39.0001L22.5 39.7001L20.3 37.5001L21 36.8001L21.8 36.0001C22.1 35.7001 22.2 35.2001 22 34.8001C21.8 34.4001 21.6 34.1001 21.5 33.7001C21.5 33.6001 21.5 33.6001 21.4 33.5001C21.3 33.1001 21.1 32.7001 21 32.3001C20.9 31.9001 20.5 31.6001 20 31.6001H18.9H17.4V28.5001H19H20.1C20.5 28.5001 20.9 28.2001 21.1 27.8001C21.2 27.4001 21.3 27.0001 21.5 26.6001C21.5 26.6001 21.5 26.5001 21.6 26.5001C21.8 26.1001 21.9 25.8001 22.2 25.4001C22.4 25.0001 22.4 24.5001 22 24.2001L21.2 23.4001L20.4 22.6001L22.6 20.4001L23.4 21.2001L24.2 22.0001C24.5 22.3001 25 22.4001 25.4 22.2001C25.7 22.0001 26.1 21.8001 26.5 21.6001C26.6 21.6001 26.6 21.5001 26.7 21.5001C27.1 21.3001 27.5 21.2001 27.9 21.1001C28.3 21.0001 28.6 20.6001 28.6 20.1001V19.0001V17.6001H31.7V18.9001V20.0001C31.7 20.5001 32 20.9001 32.5 21.0001C32.9 21.1001 33.3 21.2001 33.6 21.3001C33.7 21.3001 33.8 21.4001 34 21.4001C34.4 21.6001 34.8 21.7001 35.1 21.9001C35.5 22.1001 36 22.0001 36.3 21.7001L37.1 20.9001L38.2 19.8001L40.4 22.0001L39.4 23.0001L38.6 23.8001C38.3 24.1001 38.2 24.6001 38.5 25.0001C38.7 25.3001 38.9 25.7001 39.1 26.0001C39.2 26.2001 39.2 26.3001 39.3 26.5001C39.5 26.9001 39.6 27.3001 39.7 27.7001C39.8 28.1001 40.2 28.4001 40.7 28.4001H41.8H42.9V31.5001H42.5Z" fill="#E8A15B"/>
    <path d="M53.2988 42.9C53.7988 43.2 54.3988 43 54.6988 42.5C58.2988 35.3 58.5988 27.3 55.8988 20.2C55.6988 19.7 55.0988 19.4 54.5988 19.7C54.1988 19.9 53.9988 20.4 54.0988 20.9C56.4988 27.5 56.2988 35 52.8988 41.6C52.6988 42.1 52.8988 42.7 53.2988 42.9Z" fill="#3F496A"/>
    <path d="M36.8989 54.9001C30.2989 56.8001 23.2989 55.9001 17.2989 52.6001C17.0989 52.5001 16.9989 52.4001 16.7989 52.3001C16.2989 52.0001 15.6989 52.2001 15.4989 52.7001C15.2989 53.2001 15.3989 53.7001 15.8989 54.0001C16.0989 54.1001 16.1989 54.2001 16.3989 54.3001C20.8989 56.8001 25.7989 58.0001 30.7989 57.9001C32.9989 57.8001 35.2989 57.5001 37.4989 56.9001C38.6989 56.6001 39.7989 56.2001 40.8989 55.7001C41.3989 55.5001 41.5989 54.9001 41.3989 54.5001C41.1989 54.0001 40.5989 53.8001 40.0989 54.0001C38.9989 54.2001 37.9989 54.6001 36.8989 54.9001Z" fill="#3F496A"/>
    <path d="M7.399 17.3002C7.499 17.2002 7.599 17.0002 7.599 16.9002C7.899 16.4002 7.699 15.8002 7.199 15.6002C6.799 15.4002 6.199 15.6002 5.999 16.0002C5.899 16.1002 5.799 16.3002 5.699 16.5002C1.399 24.1002 1.099 33.0002 4.199 40.5002C4.399 41.0002 5.099 41.2002 5.599 41.0002C5.999 40.6002 6.199 40.1002 5.999 39.7002C3.199 32.7002 3.399 24.5002 7.399 17.3002Z" fill="#3F496A"/>
    <path d="M23.9989 2.8001C23.3989 2.9001 23.0989 3.5001 23.3989 4.1001C23.5989 4.6001 24.0989 4.8001 24.4989 4.7001C30.4989 3.2001 36.8989 3.8001 42.5989 6.7001C42.9989 6.9001 43.5989 6.8001 43.7989 6.4001C44.0989 5.9001 43.9989 5.3001 43.4989 5.0001C37.3989 1.9001 30.3989 1.2001 23.9989 2.8001Z" fill="#3F496A"/>
    <path d="M57.6001 18H48.5001C47.2001 18 46.1001 16.9 46.1001 15.6V6.4C46.0001 5.1 47.1001 4 48.4001 4H57.5001C58.9001 4 60.0001 5.1 60.0001 6.4V15.5C60.0001 16.9 58.9001 18 57.6001 18ZM48.4001 6C48.2001 6 48.0001 6.2 48.0001 6.4V15.5C48.0001 15.8 48.2001 16 48.5001 16H57.6001C57.9001 16 58.1001 15.8 58.1001 15.5V6.4C58.0001 6.2 57.8001 6 57.6001 6H48.4001Z" fill="#637EA8"/>
    <path d="M54.6016 60.0001H45.5016C44.2016 60.0001 43.1016 58.9001 43.1016 57.6001V48.5001C43.1016 47.2001 44.2016 46.1001 45.5016 46.1001H54.6016C55.9016 46.1001 57.0016 47.2001 57.0016 48.5001V57.6001C57.0016 58.9001 55.9016 60.0001 54.6016 60.0001ZM45.4016 48.0001C45.1016 48.0001 44.9016 48.2001 44.9016 48.5001V57.6001C44.9016 57.9001 45.1016 58.1001 45.4016 58.1001H54.5016C54.8016 58.1001 55.0016 57.9001 55.0016 57.6001V48.5001C55.0016 48.2001 54.8016 48.0001 54.5016 48.0001H45.4016Z" fill="#637EA8"/>
    <path d="M18.6 14H9.4C8.1 14 7 12.9 7 11.6V2.4C7 1.1 8.1 0 9.4 0H18.5C19.9 0 21 1.1 21 2.4V11.5C21 12.9 19.9 14 18.6 14ZM9.4 2C9.2 2 9 2.2 9 2.4V11.5C9 11.8 9.2 12 9.4 12H18.5C18.8 12 19 11.8 19 11.5V2.4C19 2.2 18.8 2 18.6 2H9.4Z" fill="#637EA8"/>
    <path d="M11.6 57H2.4C1.1 57 0 55.9 0 54.6V45.5C0 44.1 1.1 43 2.4 43H11.5C12.8 43 13.9 44.1 13.9 45.4V54.5C14 55.9 12.9 57 11.6 57ZM2.4 45C2.2 45 2 45.2 2 45.4V54.5C2 54.8 2.2 55 2.4 55H11.5C11.8 55 12 54.8 12 54.5V45.4C12 45.1 11.8 44.9 11.5 44.9H2.4V45Z" fill="#637EA8"/>
    <path d="M52 14.9999C51.7 14.9999 51.4 14.7999 51.2 14.5999L49.2 11.5999C48.9 11.1999 49 10.5999 49.5 10.2999C49.9 9.99989 50.5 10.0999 50.8 10.5999L51.9 12.1999L54.2 7.69989C54.4 7.19989 55 6.99989 55.5 7.29989C56 7.49989 56.2 8.09989 55.9 8.59989L52.9 14.5999C52.7 14.6999 52.4 14.8999 52 14.9999C52 14.8999 52 14.9999 52 14.9999Z" fill="#3F496A"/>
    <path d="M13 10.9999C12.7 10.9999 12.4 10.7999 12.2 10.5999L10.2 7.59989C9.9 7.19989 10 6.59989 10.5 6.29989C10.9 5.99989 11.5 6.09989 11.8 6.59989L12.9 8.19989L15.2 3.69989C15.4 3.19989 16 2.99989 16.5 3.29989C17 3.49989 17.2 4.09989 16.9 4.59989L13.9 10.5999C13.7 10.6999 13.4 10.8999 13 10.9999C13 10.8999 13 10.9999 13 10.9999Z" fill="#3F496A"/>
    <path d="M50 56.9999C49.7 56.9999 49.4 56.7999 49.2 56.5999L47.2 53.5999C46.9 53.1999 47 52.5999 47.5 52.2999C47.9 51.9999 48.5 52.0999 48.8 52.5999L49.9 54.1999L52.2 49.6999C52.4 49.1999 53 48.9999 53.5 49.2999C54 49.4999 54.2 50.0999 53.9 50.5999L50.9 56.5999C50.7 56.6999 50.4 56.8999 50 56.9999C50 56.8999 50 56.9999 50 56.9999Z" fill="#3F496A"/>
    <path d="M7 53.9999C6.7 53.9999 6.4 53.7999 6.2 53.5999L4.2 50.5999C3.9 50.1999 4 49.5999 4.5 49.2999C4.9 48.9999 5.5 49.0999 5.8 49.5999L6.9 51.1999L9.2 46.6999C9.4 46.1999 10 45.9999 10.5 46.2999C11 46.4999 11.2 47.0999 10.9 47.5999L7.9 53.5999C7.7 53.6999 7.4 53.8999 7 53.9999C7 53.8999 7 53.9999 7 53.9999Z" fill="#3F496A"/>
</svg>
