<svg width="60" height="60" viewBox="0 0 60 60" fill="none" xmlns="http://www.w3.org/2000/svg">
    <path d="M14.1 27.4H9.7C8.8 27.4 8 26.6 8 25.7V21.2C8 20.3 8.8 19.5 9.7 19.5H14.1C15 19.5 15.8 20.3 15.8 21.2V25.7C15.9 26.7 15.1 27.4 14.1 27.4ZM9.9 25.5H14V21.4H9.9V25.5Z" fill="#3F496A"/>
    <path d="M28.8984 24.5H18.8984C18.3984 24.5 17.8984 24.1 17.8984 23.5C17.8984 22.9 18.2984 22.5 18.8984 22.5H28.8984C29.3984 22.5 29.8984 22.9 29.8984 23.5C29.8984 24.1 29.3984 24.5 28.8984 24.5Z" fill="#E8A15B"/>
    <path d="M14.1 39.9H9.7C8.8 39.9 8 39.1 8 38.2V33.7C8 32.8 8.8 32 9.7 32H14.1C15 32 15.8 32.8 15.8 33.7V38.2C15.9 39.2 15.1 39.9 14.1 39.9ZM9.9 38H14V34H9.9V38Z" fill="#3F496A"/>
    <path d="M24.8 36.0001C24.8 35.5001 24.4 35.1001 23.9 35.1001H23.8H22.8H21H20.9H19C18.5 35.1001 18 35.5001 18 36.1001C18 36.7001 18.4 37.1001 19 37.1001H20.9H21H22.9H23.9H24C24.4 36.9001 24.8 36.5001 24.8 36.0001Z" fill="#E8A15B"/>
    <path d="M14.1 52.4H9.7C8.8 52.4 8 51.6 8 50.7V46.2C8 45.3 8.8 44.5 9.7 44.5H14.1C15 44.5 15.8 45.3 15.8 46.2V50.7C15.9 51.7 15.1 52.4 14.1 52.4ZM9.9 50.5H14V46.4H9.9V50.5Z" fill="#3F496A"/>
    <path d="M28.8984 49.5H18.8984C18.3984 49.5 17.8984 49.1 17.8984 48.5C17.8984 47.9 18.2984 47.5 18.8984 47.5H28.8984C29.3984 47.5 29.8984 47.9 29.8984 48.5C29.8984 49.1 29.3984 49.5 28.8984 49.5Z" fill="#E8A15B"/>
    <path d="M23.4961 10.5C21.8961 10.5 20.4961 9.2 20.4961 7.5C20.4961 5.8 21.7961 4.5 23.4961 4.5C25.1961 4.5 26.4961 5.8 26.4961 7.5C26.4961 9.2 25.0961 10.5 23.4961 10.5ZM23.4961 6.5C22.8961 6.5 22.4961 7 22.4961 7.5C22.4961 8 22.9961 8.5 23.4961 8.5C23.9961 8.5 24.4961 8 24.4961 7.5C24.4961 7 24.0961 6.5 23.4961 6.5Z" fill="#3F496A"/>
    <path d="M33.5977 12.5001C33.3977 11.8001 33.0977 11.2001 32.7977 10.6001C31.9977 9.2001 30.7977 8.1001 29.3977 7.4001C29.2977 4.2001 26.6977 1.6001 23.4977 1.6001C20.2977 1.6001 17.5977 4.2001 17.5977 7.4001C16.1977 8.1001 14.9977 9.2001 14.1977 10.6001C13.8977 11.2001 13.5977 11.8001 13.3977 12.5001C13.1977 13.2001 13.0977 13.8001 13.0977 14.5001C13.0977 15.0001 13.4977 15.5001 14.0977 15.5001H33.0977C33.5977 15.5001 34.0977 15.1001 34.0977 14.5001C33.8977 13.8001 33.7977 13.1001 33.5977 12.5001ZM14.9977 13.5001C15.0977 13.1001 15.1977 12.8001 15.2977 12.4001C15.5977 11.7001 15.8977 11.1001 16.3977 10.5001C16.7977 10.0001 17.2977 9.6001 17.7977 9.3001C18.3977 9.0001 18.9977 8.8001 19.5977 8.6001C19.4977 8.2001 19.3977 7.9001 19.3977 7.5001C19.3977 7.2001 19.3977 7.0001 19.4977 6.7001C19.8977 4.9001 21.4977 3.5001 23.4977 3.5001C25.4977 3.5001 27.0977 4.9001 27.4977 6.7001C27.5977 7.0001 27.5977 7.2001 27.5977 7.5001C27.5977 7.9001 27.4977 8.3001 27.3977 8.6001C27.9977 8.8001 28.5977 9.0001 29.0977 9.3001C29.5977 9.6001 30.0977 10.0001 30.4977 10.5001C30.9977 11.1001 31.3977 11.7001 31.5977 12.4001C31.6977 12.8001 31.7977 13.1001 31.8977 13.5001H14.9977Z" fill="#3F496A"/>
    <path d="M57.2984 31.2C57.2984 31.2 57.1984 31.2 57.2984 31.2C57.2984 31 57.1984 30.9 57.1984 30.8C57.0984 30.7 57.0984 30.6 56.9984 30.6C56.9984 30.6 56.9984 30.6 56.8984 30.5C56.8984 30.5 56.7984 30.5 56.7984 30.4L43.6984 23.3C43.3984 23.2 43.0984 23.1 42.7984 23.3L39.9984 24.7L41.9984 25.8L43.1984 25.2L54.2984 31.2L52.8984 32L53.4984 32.3C53.7984 32.5 53.9984 32.8 53.9984 33.1V33.5L55.3984 32.7V42.3L44.1984 48.7V38.9L47.7984 36.9V35.8L46.7984 35.2L43.2984 37.1L32.2984 30.3L35.5984 28.7L33.5984 27.6L29.8984 29.4C29.8984 29.4 29.7984 29.4 29.7984 29.5C29.7984 29.5 29.6984 29.5 29.6984 29.6C29.5984 29.7 29.4984 29.7 29.4984 29.8C29.3984 29.9 29.3984 30 29.3984 30.1V30.2V30.3V42.5C29.3984 42.8 29.5984 43.1 29.8984 43.3L42.8984 51.1H42.9984H43.0984C43.1984 51.1 43.2984 51.2 43.3984 51.2C43.4984 51.2 43.5984 51.2 43.6984 51.1H43.7984C43.7984 51.1 43.7984 51.1 43.8984 51.1L56.9984 43.6C57.2984 43.4 57.4984 43.1 57.4984 42.8L57.2984 31.2C57.2984 31.3 57.2984 31.2 57.2984 31.2ZM42.1984 48.8L31.0984 42.2V32.2L42.1984 39V48.8Z" fill="#3F496A"/>
    <path d="M53.3984 32.4001L52.7984 32.1L41.9984 25.9L39.9984 24.8L37.8984 25.8L39.8984 26.9L50.8984 33.2001L51.9984 33.8V34.7001V37.9001L49.5984 39V36V35.4001C49.5984 35.1001 49.3984 34.7 49.0984 34.6L48.5984 34.3L37.4984 28L35.4984 26.9L33.3984 27.9L35.3984 29L46.6984 35.5L47.6984 36.1V37.2001V40.6C47.6984 40.9 47.8984 41.2001 48.0984 41.4001C48.2984 41.5001 48.3984 41.6 48.5984 41.6C48.6984 41.6 48.8984 41.6 48.9984 41.5L53.3984 39.5C53.6984 39.3 53.9984 39 53.9984 38.6V33.8V33.4001C53.8984 32.9001 53.6984 32.6001 53.3984 32.4001Z" fill="#E8A15B"/>
    <path d="M42.2992 56.5001H4.59922V12.5001H13.2992C13.4992 11.8001 13.7992 11.2001 14.0992 10.6001H3.69922C3.19922 10.6001 2.69922 11.0001 2.69922 11.6001V57.6001C2.69922 58.1001 3.09922 58.6001 3.69922 58.6001H43.2992C43.7992 58.6001 44.2992 58.2001 44.2992 57.6001V54.5001C44.2992 54.0001 43.8992 53.5001 43.2992 53.5001C42.7992 53.5001 42.2992 53.9001 42.2992 54.5001V56.5001Z" fill="#637EA8"/>
    <path d="M44.2008 11.5C44.2008 11 43.8008 10.5 43.2008 10.5H32.8008C33.1008 11.1 33.4008 11.7 33.6008 12.4H42.3008V20.5C42.3008 21 42.7008 21.5 43.3008 21.5C43.8008 21.5 44.3008 21.1 44.3008 20.5V11.5H44.2008Z" fill="#637EA8"/>
</svg>
