<svg version="1.1" xmlns="http://www.w3.org/2000/svg" xmlns:xlink="http://www.w3.org/1999/xlink" x="0px" y="0px"
	 width="147.251px" height="45.259px" viewBox="-51.776 -96.167 147.251 45.259"
	 enable-background="new -51.776 -96.167 147.251 45.259" xml:space="preserve">
<g>
	<g>
		<path style="fill: #FFFFFF" d="M59.401-50.908v-4.527h2.567v0.474H60.05v1.461h1.61v0.47h-1.61v1.647H62.1v0.475H59.401z"/>
		<path style="fill: #FFFFFF" d="M14.751-50.908v-4.527h1.522c0.584,0,1.032,0.078,1.336,0.251c0.303,0.166,0.539,0.413,0.713,0.734
			c0.17,0.328,0.253,0.713,0.253,1.167c0,0.434-0.077,0.833-0.233,1.191c-0.158,0.359-0.398,0.645-0.722,0.863
			c-0.318,0.214-0.768,0.32-1.343,0.32H14.751z M15.401-51.383h0.828c0.434,0,0.756-0.072,0.972-0.203
			c0.213-0.139,0.385-0.351,0.507-0.648c0.118-0.295,0.181-0.619,0.181-0.978c0-0.326-0.054-0.61-0.156-0.879
			c-0.104-0.261-0.278-0.47-0.509-0.627c-0.238-0.157-0.668-0.241-1.288-0.241h-0.534v3.575H15.401z"/>
		<path style="fill: #FFFFFF" d="M37.079-50.908l1.818-4.527h0.645l1.789,4.527h-0.706l-0.498-1.257h-1.943l-0.501,1.257H37.079z M38.379-52.64h1.563
			l-0.782-1.957L38.379-52.64z"/>
		<path style="fill: #FFFFFF" d="M25.824-50.908v-4.527h0.903l1.271,3.505l1.311-3.505h0.803v4.527h-0.606v-3.69l-1.266,3.386h-0.622l-1.237-3.393v3.697
			H25.824z"/>
		<path style="fill: #FFFFFF" d="M48.323-50.908v-4.527h1.524c0.584,0,1.029,0.078,1.329,0.251c0.303,0.166,0.545,0.413,0.715,0.734
			c0.177,0.328,0.256,0.713,0.256,1.167c0,0.434-0.072,0.833-0.229,1.191c-0.158,0.359-0.401,0.645-0.722,0.863
			c-0.325,0.214-0.775,0.32-1.343,0.32H48.323z M48.977-51.383H49.8c0.439,0,0.758-0.072,0.971-0.203
			c0.21-0.139,0.387-0.351,0.502-0.648c0.124-0.295,0.19-0.619,0.19-0.978c0-0.326-0.054-0.61-0.156-0.879
			c-0.111-0.261-0.283-0.47-0.514-0.627c-0.235-0.157-0.663-0.241-1.29-0.241h-0.527C48.977-54.958,48.977-51.383,48.977-51.383z"/>
		<path style="fill: #FFFFFF" d="M3.737-50.908v-4.527h0.638l2.298,3.499v-3.499h0.561v4.527H6.596l-2.298-3.494v3.494H3.737z"/>
		<path style="fill: #FFFFFF" d="M-7.504-50.908l1.818-4.527h0.643l1.787,4.527h-0.699l-0.498-1.257h-1.947l-0.501,1.257H-7.504z M-6.208-52.64h1.556
			l-0.772-1.957L-6.208-52.64z"/>
		<path style="fill: #FFFFFF" d="M-17.956-50.908v-4.527h0.649v1.904h2.176v-1.904h0.652v4.527h-0.652v-2.136h-2.176v2.136H-17.956z"/>
	</g>
	<g>
		<g>
			<g>
				<path style="fill: #FFFFFF" d="M95.475-96.167v0.353c-0.455-0.049-0.96,0.023-1.515,0.21c-0.559,0.187-0.889,0.461-0.99,0.824
					c-0.104,0.36-0.154,1.212-0.154,2.563v26.603c0,1.449,0.057,2.327,0.179,2.647c0.118,0.326,0.337,0.589,0.679,0.8
					c0.337,0.209,0.943,0.317,1.8,0.317v0.354h-9.251v-0.353c1.161,0,1.884-0.221,2.167-0.669c0.278-0.448,0.423-1.464,0.423-3.046
					v-26.344c0-1.647-0.158-2.728-0.468-3.236c-0.315-0.51-1.019-0.733-2.122-0.669v-0.354H95.475z"/>
			</g>
			<path style="fill: #FFFFFF" d="M82.282-62.388L71.276-79.449c1.907-1.091,3.387-2.43,4.438-4.009c1.057-1.595,1.587-3.272,1.587-5.028
				c0-1.541-0.301-2.84-0.892-3.9c-0.593-1.061-1.483-1.902-2.653-2.522c-1.169-0.62-2.303-0.983-3.418-1.096
				c-1.118-0.107-2.924-0.162-5.419-0.162H55.08v0.353c1.195,0.012,1.909,0.315,2.14,0.903c0.238,0.59,0.353,1.332,0.353,2.223
				v27.554c0,1.294-0.136,2.157-0.41,2.588c-0.272,0.419-0.969,0.659-2.083,0.704v0.346h8.943v-0.346
				c-1.073,0-1.746-0.234-2.029-0.695c-0.276-0.462-0.419-1.223-0.419-2.289v-13.261h2.809l3.009-0.094l10.734,16.686h1.757h2.979
				h1.336v-0.346C83.249-61.841,82.546-62.018,82.282-62.388z M61.575-78.984v-16.265h2.859c3.426,0,5.817,0.952,7.177,2.861
				c1.363,1.905,2.042,3.926,2.042,6.061c0,2.195-0.69,3.969-2.079,5.316c-1.382,1.354-3.508,2.026-6.362,2.026
				C65.212-78.984,61.575-78.984,61.575-78.984z"/>
			<path style="fill: #FFFFFF" d="M52.487-66.245c-0.201,1.337-0.496,2.205-0.867,2.604c-0.385,0.399-0.84,0.663-1.377,0.8
				c-0.541,0.127-1.78,0.199-3.729,0.199h-9.971c-1.315,0-2.305-0.093-2.954-0.277c-0.645-0.174-1.125-0.625-1.427-1.337
				c-0.287-0.713-0.437-1.877-0.437-3.496v-10.712H46.49c0.776,0,1.32,0.079,1.606,0.235c0.292,0.154,0.48,0.461,0.55,0.918H49
				v-3.273h-0.355c-0.014,0.377-0.161,0.663-0.441,0.859c-0.283,0.199-0.946,0.299-2.004,0.299H31.725v-15.563h15.296
				c1.26,0,2.054,0.156,2.37,0.472c0.319,0.313,0.715,1.357,1.185,3.127h0.353v-4.775H25.268v0.396c1.198,0,1.904,0.262,2.122,0.777
				c0.226,0.52,0.333,1.414,0.333,2.683v27.998c0,1.076-0.206,1.745-0.631,2.003c-0.414,0.269-1.023,0.422-1.823,0.467v0.346H52.84
				v-4.75h-0.353V-66.245z"/>
			<path style="fill: #FFFFFF" d="M-4.197-96.167v0.299v0.007c1.393,0.044,2.368,0.333,2.932,0.863h7.797c0.179,0.13,0.299,0.279,0.358,0.444
				c0.102,0.294,0.165,0.916,0.179,1.859l0.003,0.794c0,0,0.981,0.433,0.981,1.144c0,0.711-1.165,0.841-1.165,1.474
				c0,0.632,0.81,0.475,0.81,0.84c0,0.372-1.135,0.554-0.421,1.002c0.715,0.447,1.135,0.554,1.135,0.842
				c0,0.287-1.284,0.814-1.273,1.212c0.007,0.391,1.21,0.339,0.815,0.709c-0.385,0.365-1.651,3.242-1.651,5.354
				c0,2.114,2.237,12.012,2.205,13.195c-0.029,1.122-1.291,1.371-1.447,1.913H7.049c-0.036,0.631-0.095,1.06-0.188,1.262
				c-0.143,0.316-0.419,0.579-0.835,0.789c-0.412,0.209-1.148,0.324-2.205,0.324v0.343h5.515h0.745h5.076v-0.339
				c-1.421,0-2.307-0.227-2.651-0.675c-0.24-0.303-0.391-0.873-0.468-1.699H12.03c-0.167-0.542-1.531-0.787-1.563-1.913
				c-0.032-1.184,2.203-11.082,2.203-13.195c0-2.112-1.264-4.989-1.649-5.354c-0.389-0.37,0.808-0.318,0.817-0.709
				c0.011-0.398-1.275-0.924-1.275-1.212s0.423-0.395,1.134-0.842c0.713-0.448-0.421-0.63-0.421-1.002
				c0-0.364,0.812-0.207,0.812-0.84s-1.171-0.763-1.171-1.474c0-0.711,1.085-1.079,1.085-1.079l0.007-0.858
				c0.068-1.082,0.249-1.825,0.55-2.221c0.023-0.028,0.052-0.053,0.077-0.081h7.6c0.563-0.531,1.542-0.819,2.932-0.863v-0.01v-0.299
				H-4.197z"/>
			<path style="fill: #FFFFFF" d="M-13.167-96.167v0.353c0.735,0,1.343,0.143,1.814,0.434c0.471,0.287,0.708,1.094,0.708,2.411l0.023,24.397
				l-23.041-27.595h-6.367v0.353c2.072-0.095,3.397,0.508,3.962,1.809c0.575,1.303,0.86,2.981,0.86,5.036v23.451
				c0,1.607-0.14,2.618-0.432,3.037c-0.292,0.42-1.032,0.638-2.226,0.638v0.346h6.661v-0.346c-0.939-0.141-1.531-0.285-1.762-0.429
				c-0.24-0.143-0.416-0.406-0.545-0.801c-0.124-0.387-0.186-0.99-0.186-1.805v-25.646l24.531,29.456v-31.569
				c0-1.289,0.199-2.132,0.588-2.531c0.394-0.401,1.103-0.616,2.122-0.645v-0.354H-13.167z"/>
			<g>
				<path style="fill: #FFFFFF" d="M-42.526-96.167v0.353c-0.455-0.049-0.961,0.023-1.517,0.21c-0.557,0.187-0.889,0.461-0.989,0.825
					c-0.102,0.36-0.154,1.212-0.154,2.563v26.603c0,1.449,0.059,2.327,0.177,2.647c0.115,0.326,0.342,0.589,0.683,0.8
					c0.337,0.209,0.937,0.317,1.8,0.317v0.354h-9.251v-0.354c1.16,0,1.882-0.221,2.167-0.669c0.278-0.448,0.421-1.464,0.421-3.046
					v-26.344c0-1.647-0.156-2.728-0.471-3.236c-0.312-0.511-1.021-0.734-2.117-0.67v-0.353H-42.526z"/>
			</g>
		</g>
	</g>
</g>
<rect style="fill: #FFFFFF" x="-51.777" y="-53.563" width="26.715" height="0.521"/>
<rect style="fill: #FFFFFF" x="68.759" y="-53.563" width="26.715" height="0.521"/>
</svg>
