<svg width="22" height="22" viewBox="0 0 22 22" fill="none" xmlns="http://www.w3.org/2000/svg">
    <path d="M15.2103 13.2939C16.2996 11.851 16.7874 10.062 16.5763 8.28493C16.3652 6.50783 15.4706 4.87365 14.0715 3.70932C12.6725 2.545 10.8721 1.93639 9.03069 2.00527C7.18923 2.07415 5.44246 2.81543 4.13986 4.0808C2.83725 5.34618 2.07486 7.04234 2.00523 8.82994C1.93559 10.6175 2.56384 12.3647 3.76428 13.722C4.96472 15.0793 6.64882 15.9465 8.47966 16.1502C10.3105 16.3538 12.1531 15.879 13.6387 14.8205H13.6376C13.6713 14.8642 13.7073 14.9057 13.7478 14.9461L18.0789 19.1504C18.2898 19.3553 18.576 19.4705 18.8744 19.4706C19.1728 19.4707 19.4591 19.3557 19.6702 19.151C19.8812 18.9462 19.9999 18.6684 20 18.3787C20.0001 18.0891 19.8817 17.8112 19.6707 17.6063L15.3396 13.402C15.2994 13.3625 15.2562 13.326 15.2103 13.2928V13.2939ZM15.5005 9.09614C15.5005 9.88487 15.3405 10.6659 15.0295 11.3946C14.7186 12.1233 14.2628 12.7854 13.6883 13.3431C13.1138 13.9008 12.4317 14.3432 11.681 14.6451C10.9303 14.9469 10.1258 15.1023 9.31324 15.1023C8.50071 15.1023 7.69615 14.9469 6.94547 14.6451C6.1948 14.3432 5.51272 13.9008 4.93818 13.3431C4.36364 12.7854 3.90788 12.1233 3.59695 11.3946C3.28601 10.6659 3.12597 9.88487 3.12597 9.09614C3.12597 7.50321 3.77784 5.97553 4.93818 4.84916C6.09851 3.72279 7.67227 3.09 9.31324 3.09C10.9542 3.09 12.528 3.72279 13.6883 4.84916C14.8486 5.97553 15.5005 7.50321 15.5005 9.09614Z" fill="#3F629F"/>
</svg>
