<svg version="1.1"
	 xmlns="http://www.w3.org/2000/svg" xmlns:xlink="http://www.w3.org/1999/xlink" x="0px" y="0px" width="150px" height="143.882px"
	 viewBox="0 0 150 143.882" style="enable-background:new 0 0 150 143.882;" xml:space="preserve">
<g>
	<path style="fill:#f3cc8b;" d="M126.872,48.674C125.162,21.507,102.594,0,74.997,0S24.84,21.504,23.128,48.669
		C0.502,63.748-6.814,94.01,6.971,117.888c13.788,23.882,43.656,32.672,68.027,20.615c24.371,12.06,54.243,3.264,68.029-20.611
		C156.816,94.011,149.496,63.754,126.872,48.674z M75.227,132.137c-22.226,12.832-50.644,5.221-63.476-17.007
		c-6.966-12.068-7.894-25.958-3.74-38.189c-2.43,11.248-0.85,23.401,5.356,34.152c13.269,22.982,42.657,30.859,65.639,17.587
		c2.142-1.236,4.152-2.616,6.027-4.113C82.181,127.452,78.911,130.01,75.227,132.137z M77.687,8.937
		c-26.54,0-48.053,21.513-48.053,48.052c0,2.475,0.189,4.904,0.548,7.277c-1.069-3.912-1.652-8.027-1.652-12.279
		c0-25.665,20.803-46.468,46.467-46.468c13.934,0,26.427,6.142,34.946,15.856C101.415,13.647,90.099,8.937,77.687,8.937z
		 M138.25,115.13c-6.966,12.067-18.534,19.814-31.204,22.334c10.957-3.52,20.692-10.967,26.9-21.715
		c13.267-22.982,5.394-52.372-17.589-65.642c-2.142-1.236-4.343-2.287-6.575-3.162c3.92,1.03,7.776,2.582,11.457,4.708
		C143.467,64.484,151.081,92.905,138.25,115.13z"/>
	<g>
		<path style="fill:#004288;" d="M75.002,31.535c-25.996,0-47.065,21.072-47.065,47.062c0,25.994,21.069,47.063,47.065,47.063
			c25.994,0,47.062-21.069,47.062-47.063C122.064,52.607,100.996,31.535,75.002,31.535z M75.002,120.142
			c-22.948,0-41.546-18.601-41.546-41.544c0-22.942,18.598-41.54,41.546-41.54c22.941,0,41.542,18.598,41.542,41.54
			C116.544,101.541,97.943,120.142,75.002,120.142z"/>
		<circle style="fill:#004288;" cx="75" cy="45.486" r="3.772"/>
		<path style="fill:#004288;" d="M96.633,99.726c0-2.083,1.685-3.771,3.77-3.771c2.085,0,3.771,1.688,3.771,3.771
			c0,2.082-1.685,3.771-3.771,3.771C98.319,103.497,96.633,101.808,96.633,99.726z"/>
		<circle style="fill:#004288;" cx="49.484" cy="99.726" r="3.77"/>
		<g>
			<path style="fill:#004288;" d="M80.675,57.502c-0.219-0.704-0.776-1.26-1.37-1.818c-0.592-0.556-1.723-1.091-2.302-1.485
				c-0.453-0.306-1.163-0.644-1.894-0.524c-1.474,0.248-2.155,1.385-2.715,2.369c-0.5,0.884-0.856,2.034-0.923,3.241
				c-0.147,2.672,0.336,3.824,0.372,4.787c0.038,0.966,0.112,1.671,0.112,1.671c-0.112,0.854-1.113,1.818-1.781,2.523
				c-0.668,0.706-1.115,1.596-0.779,2.301c0.332,0.706,0.702,1.484,1,1.484c0.298,0,0.707-0.296,1.002-0.557
				c0.3-0.258,0.484-1.113,1.485-1.891c1.003-0.779,1.892-1.04,3.341-0.148c1.448,0.89,1.744,1.335,2.004,1.891
				c0.259,0.558,0.369,0.779,0.369,0.779s1.115-0.481,1.489-1.446c0.369-0.964,0.148-1.634-0.747-2.561
				c-0.891-0.927-2.336-2.078-2.632-2.634c-0.297-0.557-0.297-1.522-0.297-2.413c0-0.89,0.035-2.19,0.814-2.413
				c0.779-0.221,1.077,0.223,1.449,0.668c0.372,0.445,1.857,2.449,2.151,2.487c0.3,0.037,0.594,0.074,0.818-0.111
				c0.222-0.186,0.966-0.816,0.966-1.188C82.609,62.145,80.901,58.209,80.675,57.502z M76.485,58.209
				c-0.893,0.222-1.265,1.076-1.634,2.97c-0.373,1.892-0.039,3.563-0.039,3.822c0,0.259,0.074,0.705-0.481,0.705
				c0,0-0.187,0.036-0.298-0.298c-0.111-0.333-0.037-0.446-0.111-1.26c-0.075-0.817-0.187-1.931-0.222-3.267
				c-0.036-1.337,0.028-2.248,0.52-3.118c0.558-0.995,1.743-1.448,2.264-1.337c0.518,0.114,1.186,1.376,1.186,1.485
				C77.671,58.024,77.372,57.987,76.485,58.209z"/>
			<path style="fill:#004288;" d="M75.479,56.856c0.158,0,0.18,0.317,0.363,0.591c0.182,0.273,0.485,0.578,0.046,0.74
				c-0.389,0.146-0.539-0.134-0.618-0.517c-0.049-0.223-0.021-0.399,0.026-0.61C75.333,56.895,75.479,56.856,75.479,56.856z"/>
			<path style="fill:#004288;" d="M74.053,59.497c-0.168,0.005-0.32,0.089-0.331,0.273c-0.015,0.252,0.137,0.48,0.457,0.458
				c0.318-0.025,0.547-0.206,0.5-0.389C74.634,59.656,74.33,59.488,74.053,59.497z"/>
			<path style="fill:#004288;" d="M85.704,72.427c-0.253-0.255-0.761-0.364-1.053-0.291c-0.291,0.072-0.694,0.437-1.491,1.127
				c-0.802,0.691-2.002,1.455-3.639,1.748c-1.488,0.262-2.218,0.181-3.236,0.181c-1.018,0-2.51,0-4.254-0.584
				c-1.749-0.581-2.839-1.093-3.53-1.529c-1.564-0.98-1.822-1.016-2.149-0.98c-0.326,0.037-0.653,0.436-1.128,1.053
				c-0.469,0.62-0.906,0.874-0.469,1.746c0.437,0.874,2.183,3.24,3.673,5.021c1.489,1.782,3.491,3.965,4.619,5.421
				c1.129,1.452,1.964,2.693,2.328,3.202c0.365,0.507,0.69,0.652,1.237,0.583c0.545-0.075,0.981-0.657,1.601-1.605
				c0.618-0.944,2.693-4.144,3.311-5.163c0.619-1.019,1.781-2.619,2.547-3.747c0.765-1.126,1.818-2.982,2.071-3.638
				c0.255-0.653,0.328-1.236,0.328-1.527C86.469,73.152,85.96,72.682,85.704,72.427z M81.993,77.155
				c-0.471,0.473-1.235,1.709-1.998,2.692c-0.765,0.983-1.895,2.729-2.256,3.384c-0.366,0.653-0.619,1.456-1.563,1.309
				c-0.947-0.145-3.093-3.091-4.476-4.33c-1.38-1.237-2.072-2.254-2.329-2.726c-0.255-0.473-0.268-0.918-0.091-0.952
				c0.287-0.06,0.417,0.151,0.783,0.295c0.547,0.22,1.127,0.363,2.002,0.473c1.112,0.14,2.327,0.292,3.927,0.219
				c1.603-0.072,2.56-0.035,3.93-0.329c1.71-0.363,2.109-1.016,2.329-0.798C82.341,76.484,82.468,76.682,81.993,77.155z"/>
			<g>
				<path style="fill:#004288;" d="M71.019,77.578c-0.174,0.112-0.192,0.226-0.029,0.387c0.157,0.161,0.61,0.241,0.61,0.467
					c0,0.225-0.077,0.324-0.305,0.324c-0.226,0-0.324,0.065-0.275,0.225c0.049,0.161,0.179,0.355,0.484,0.274
					c0.312-0.08,0.52-0.289,0.504-0.758c-0.017-0.468-0.26-0.55-0.322-0.727c-0.066-0.177-0.181-0.274-0.357-0.274
					C71.147,77.496,71.019,77.578,71.019,77.578z"/>
				<path style="fill:#004288;" d="M72.618,77.999c0.18,0,0.226,0.126,0.164,0.304c-0.066,0.179-0.164,0.293,0.017,0.373
					c0.175,0.081,0.159,0.081,0.258,0.227c0.099,0.144,0.353,0.161,0.531,0.032c0.18-0.131,0.211-0.307,0.244-0.533
					c0.034-0.225,0.034-0.322,0.195-0.322s0.241,0.064,0.274,0.403c0.032,0.34,0.049,0.646-0.39,0.792
					c-0.324,0.108-0.485,0.274-0.518,0.387c-0.032,0.111-0.109,0.164,0,0.324c0.115,0.161,0.244,0.321,0.229,0.613
					c0,0-0.162,0.5-0.357,0.597c-0.192,0.098-0.308-0.046-0.258-0.193c0.048-0.146,0.131-0.372,0.082-0.55
					c-0.048-0.178-0.229-0.325-0.439-0.34c-0.209-0.015-0.468,0.049-0.517-0.032c-0.048-0.079-0.111-0.208,0-0.338
					c0.112-0.129,0.436-0.372,0.405-0.519c-0.032-0.144-0.226-0.144-0.226-0.531c0-0.39,0.033-0.437,0.095-0.55
					C72.474,78.029,72.618,77.999,72.618,77.999z"/>
				<path style="fill:#004288;" d="M75.297,77.962c0.167,0,0.287,0.073,0.317,0.255c0.031,0.181,0.138,0.407,0.47,0.438
					c0.334,0.032,0.514-0.074,0.592-0.273c0.074-0.195,0.134-0.301,0.299-0.301c0.168,0,0.245,0.212,0.198,0.484
					c-0.045,0.271-0.134,0.484-0.304,0.605c-0.162,0.122-0.467,0.122-0.571,0.199c-0.108,0.076-0.274,0.104-0.259,0.255
					c0.015,0.151,0.092,0.497,0.045,0.757c-0.034,0.202-0.06,0.288-0.242,0.483c-0.182,0.197-0.437,0.26-0.787,0.245
					c-0.348-0.015-0.558-0.107-0.575-0.259c-0.014-0.153,0.062-0.408,0.227-0.408c0.168,0,0.607,0.077,0.79-0.015
					c0.18-0.092,0.225-0.363,0.164-0.499c-0.059-0.135-0.24-0.348-0.467-0.41c-0.226-0.058-0.364-0.058-0.53,0.046
					c-0.166,0.106-0.301,0.061-0.271,0.182c0.027,0.12,0.087,0.287,0.027,0.424c-0.058,0.135-0.088,0.257-0.285,0.227
					c-0.198-0.031-0.078-0.251-0.078-0.485c0-0.127,0.018-0.319,0.095-0.452c0.041-0.081,0.209-0.197,0.405-0.26
					c0.197-0.059,0.393-0.151,0.454-0.287c0.059-0.135,0.134-0.347,0.059-0.648C74.996,77.962,75.297,77.962,75.297,77.962z"/>
				<path style="fill:#004288;" d="M77.871,78.05c0.179,0,0.133,0.137,0.133,0.332c0,0.198,0.121,0.319,0.364,0.304
					c0.245-0.015,0.405-0.031,0.518-0.272c0.105-0.241,0.027-0.423,0.284-0.486c0.257-0.058,0.32,0.214,0.32,0.454
					c0,0.242-0.138,0.242-0.017,0.319c0.121,0.075,0.271,0.031,0.258,0.182c-0.015,0.148-0.185,0.272-0.136,0.394
					c0.046,0.119,0.031,0.211,0.092,0.391c0.058,0.181-0.031,0.319-0.289,0.305c-0.259-0.018-0.389-0.182-0.423-0.381
					c-0.031-0.195,0.017-0.345-0.074-0.345c-0.091,0-0.457,0.073-0.79,0c-0.329-0.079-0.467-0.259-0.467-0.394
					c0-0.137-0.092-0.182-0.076-0.38c0.015-0.195,0.03-0.286,0.105-0.363C77.749,78.035,77.871,78.05,77.871,78.05z"/>
				<path style="fill:#004288;" d="M80.096,77.447c0.24-0.016,0.221,0.044,0.255,0.255c0.031,0.212-0.093,0.198,0.046,0.29
					c0.135,0.089,0.286,0.014,0.333,0.195c0.045,0.181-0.165,0.408-0.512,0.423c-0.349,0.015-0.487-0.014-0.487-0.346
					c0-0.336,0.074-0.441,0.122-0.59C79.896,77.521,80.096,77.447,80.096,77.447z"/>
				<path style="fill:#004288;" d="M78.822,80.228c-0.12,0.016-0.12,0.138-0.151,0.334c-0.029,0.197-0.181,0.255-0.121,0.364
					c0.062,0.105,0.259,0.119,0.41,0.119c0.149,0,0.255-0.166,0.255-0.286c0-0.121-0.078-0.348-0.151-0.439
					C78.991,80.228,78.822,80.228,78.822,80.228z"/>
				<path style="fill:#004288;" d="M73.757,82.164c0.14,0.184,0.215,0.118,0.366,0.045c0.151-0.075,0.33-0.192,0.608-0.172
					c0.281,0.021,0.558,0.117,0.591,0.396c0.032,0.276-0.174,0.246-0.292,0.364c-0.115,0.117-0.278,0.182-0.126,0.395
					c0.147,0.215,0.588,0.119,0.745-0.16c0.161-0.279,0.089-0.353,0.152-0.535c0.066-0.18,0.055-0.299-0.021-0.468
					c-0.073-0.174-0.118-0.333-0.245-0.431c-0.065-0.047-0.255-0.098-0.405-0.126c-0.153-0.031-0.297-0.092-0.443-0.098
					c-0.288-0.009-0.561,0.111-0.727,0.29C73.683,81.96,73.757,82.164,73.757,82.164z"/>
				<path style="fill:#004288;" d="M76.625,80.816c0.162-0.022,0.257-0.277,0.28-0.513c0.02-0.235,0.171-0.374,0.384-0.342
					c0.213,0.033,0.535,0.481,0.535,0.674c0,0.192-0.266,0.268-0.452,0.29c-0.18,0.02-0.437-0.055-0.511-0.087
					c-0.074-0.032-0.115-0.011-0.159,0.107c-0.044,0.118-0.054,0.344,0.113,0.419c0.172,0.074,0.473,0.138,0.851,0.107
					c0.369-0.033,0.694-0.323,0.574-1.22c-0.095-0.718-0.587-0.898-0.91-0.877c-0.32,0.021-0.559,0.126-0.672,0.45
					c0,0-0.161,0.278-0.226,0.458c-0.065,0.182-0.115,0.321-0.032,0.43C76.487,80.816,76.625,80.816,76.625,80.816z"/>
				<path style="fill:#004288;" d="M77.512,81.94c-0.062,0.257-0.04,0.396-0.213,0.376c-0.172-0.022-0.301-0.119-0.438-0.075
					c-0.139,0.041-0.291,0.192-0.28,0.512c0.013,0.32,0.111,0.418,0.291,0.418c0.182,0,0.278-0.053,0.364-0.01
					c0.084,0.041,0.246,0.246,0.084,0.438c-0.16,0.193-0.364,0.193-0.647,0.171c-0.292-0.023-0.261-0.3-0.344-0.419
					c-0.088-0.115-0.313-0.278-0.215-0.651c0.094-0.374,0.159-0.535,0.341-0.705c0.182-0.172,0.318-0.428,0.621-0.408
					C77.372,81.608,77.512,81.94,77.512,81.94z"/>
			</g>
			<g>
				<path style="fill:#004288;" d="M54.621,69.383c0.158,0.172,0.111,0.266,0,0.438c-0.108,0.173-0.295,0.469,0.032,0.704
					c0.329,0.235,0.69,0.064,0.892-0.015c0.203-0.077,0.39,0.032,0.438,0.235c0.045,0.202-0.203,0.423-0.438,0.595
					c-0.234,0.171-0.417,0.198-0.589,0.182c-0.171-0.015-0.444-0.182-0.539-0.15c-0.092,0.03-0.108,0.157-0.092,0.295
					c0,0,0.015,0.893-0.237,1.27c-0.252,0.375-0.502,0.578-1.111,0.578c-0.613,0-0.926-0.172-1.018-0.423
					c-0.095-0.25-0.218-0.172-0.205-0.39c0.018-0.219,0.079-0.345,0.297-0.361c0.219-0.015,0.297,0.047,0.408,0.156
					c0.111,0.109,0.205,0.345,0.531,0.345c0.331,0,0.691-0.14,0.676-0.72c-0.016-0.579-0.189-0.69-0.408-0.816
					c-0.218-0.123-0.313-0.061-0.405,0.095c-0.095,0.157-0.205,0.235-0.377,0.171c-0.171-0.062-0.189-0.423-0.016-0.673
					c0.172-0.251,0.518-0.407,0.781-0.36c0.268,0.047,0.583,0.171,0.583,0.171s-0.049-0.423,0.126-0.719
					c0.171-0.298,0.171-0.361,0.329-0.486C54.432,69.383,54.621,69.383,54.621,69.383z"/>
				<path style="fill:#004288;" d="M59.122,73.992c-0.244,0-0.598,0.065-0.644-0.015c-0.05-0.081-0.019-0.242,0.079-0.355
					c0.097-0.115,0.131-0.243,0.292-0.259c0.161-0.015,0.175-0.015,0.288-0.097c0.111-0.079,0.066-0.321,0.032-0.42
					c-0.032-0.096-0.292-0.144-0.5-0.144c-0.211,0-0.421,0.096-0.484,0.032c-0.065-0.065-0.065-0.275-0.015-0.452
					c0.047-0.178,0.078-0.517,0-0.583c-0.084-0.064-0.261-0.047-0.405-0.159c-0.144-0.115-0.405-0.163-0.486,0.015
					c-0.081,0.177-0.147,0.404-0.097,0.483c0.05,0.082,0.178,0.099,0.322,0.163c0.145,0.065,0.18,0.159,0.117,0.322
					c-0.066,0.163-0.197,0.274-0.374,0.274c-0.176,0-0.371-0.064-0.437-0.144c-0.06-0.081-0.079-0.261-0.176-0.324
					c-0.095-0.064-0.307-0.146-0.339-0.276c-0.032-0.127,0.097-0.289,0.224-0.452c0.134-0.159,0.115-0.37,0-0.403
					c-0.111-0.031-0.256-0.015-0.45,0.226c-0.195,0.241-0.388,0.534-0.342,0.889c0.052,0.356,0.131,0.404,0.342,0.5
					c0.21,0.097,0.241,0.082,0.323,0.228c0.081,0.145,0.261,0.287,0.435,0.274c0.179-0.017,0.224,0.081,0.179,0.161
					c-0.05,0.082-0.29,0.098-0.487,0.064c-0.192-0.033-0.224-0.048-0.256-0.192c-0.031-0.145,0-0.322-0.081-0.372
					c-0.082-0.048-0.324-0.13-0.388,0.016c-0.067,0.145-0.034,0.258-0.131,0.371c-0.094,0.114-0.273,0.064-0.433,0.064
					c-0.163,0-0.276-0.111-0.292-0.275c-0.016-0.16,0.016-0.354,0.081-0.548c0.064-0.193,0.014-0.321-0.128-0.354
					c-0.147-0.034-0.31,0.048-0.421,0.323c-0.113,0.273-0.16,0.436-0.097,0.824c0.065,0.385,0.226,0.499,0.176,0.595
					c-0.047,0.098-0.176,0.082-0.321,0.065c-0.145-0.015-0.227,0.209-0.161,0.371c0.065,0.164,0.176,0.195,0.337,0.245
					c0.163,0.048,0.242-0.015,0.226,0.111c-0.016,0.13-0.016,0.209,0.097,0.259c0.114,0.048,0.181,0.275,0.146,0.387
					c-0.032,0.112,0.113,0.34-0.47,0.322c-0.581-0.015-0.79-0.081-0.966-0.244c-0.179-0.161-0.421-0.499-0.129-0.806
					c0.288-0.307,0.401-0.194,0.514-0.209c0.113-0.018,0.228-0.259,0.195-0.388c-0.032-0.13-0.294-0.211-0.502-0.162
					c-0.208,0.048-0.387,0.097-0.5,0.321c-0.112,0.229-0.225,0.34-0.321,0.34c-0.098,0-0.165-0.048-0.21-0.161
					c-0.051-0.113,0.128-0.257,0.015-0.338c-0.113-0.082-0.322-0.145-0.581-0.145c-0.258,0-0.421,0.179-0.421,0.179
					c-0.081,0.158-0.16,0.353,0.048,0.369c0.211,0.017,0.373-0.034,0.483,0.064c0.114,0.099,0.132,0.225,0.019,0.468
					c-0.112,0.242-0.032,0.403-0.097,0.55c-0.066,0.146-0.437,0.065-0.518,0.305c-0.081,0.244,0.194,0.423,0.47,0.341
					c0.274-0.08,0.322-0.373,0.531-0.437c0.211-0.064,0.453-0.145,0.616,0.033c0.079,0.088,0.137,0.272,0.3,0.38
					c0.161,0.111,0.434,0.144,0.746,0.153c0,0,0.795,0.048,1.099-0.307c0.311-0.357,0.294-0.824,0.212-1.179
					c-0.082-0.354-0.258-0.467-0.324-0.63c-0.064-0.161,0.066-0.21,0.066-0.21s0.307,0,0.484-0.049
					c0.176-0.048,0.404-0.097,0.404-0.097s0.113,0.065,0.063,0.161c-0.049,0.098-0.307,0.388-0.355,0.759
					c-0.048,0.373-0.064,0.663,0.129,0.84c0.195,0.178,0.322,0.047,0.421,0.227c0.097,0.176,0.144,0.258,0.257,0.289
					c0.113,0.031,0.198,0.097,0.068,0.208c-0.131,0.115-0.244,0.194-0.324,0.39c-0.081,0.193-0.063,0.274-0.145,0.274
					c-0.081,0-0.244-0.194-0.436-0.227c-0.194-0.032-0.258-0.081-0.355-0.209c-0.097-0.128-0.292-0.291-0.518-0.161
					c-0.227,0.128-0.357,0.307-0.548,0.437c-0.197,0.127-0.292,0.338-0.258,0.63c0.032,0.291,0.081,0.452,0.242,0.467
					c0.161,0.018,0.258-0.097,0.258-0.227c0-0.127,0.065-0.321,0.176-0.401c0.115-0.082,0.308-0.066,0.552,0.015
					c0.244,0.081,0.338,0.113,0.418,0.307c0.079,0.193,0.129,0.598-0.047,0.776c-0.177,0.177-0.403,0.353-0.808,0.274
					c-0.404-0.082-0.5-0.129-0.515-0.292c-0.018-0.16-0.116-0.257-0.244-0.274c-0.131-0.017-0.258,0.096-0.258,0.339
					c0,0.242,0.032,0.437,0.145,0.566c0.113,0.127,0.211,0.159,0.211,0.159s-0.405-0.047-0.632,0.033
					c-0.224,0.081-0.337,0.211-0.308,0.357c0.034,0.144,0.179,0.24,0.485,0.24c0.308,0,0.468-0.111,0.567,0.082
					c0.097,0.193,0.034,0.244,0.161,0.322c0.129,0.082,0.355,0.065,0.355,0.34c0,0.273-0.048,0.468-0.179,0.645
					c-0.129,0.178-0.192,0.291-0.337,0.324c-0.145,0.031-0.307,0.031-0.307,0.098c0,0,0.258,0.419,0.387,0.419
					c0.127,0,0.484-0.129,0.645-0.47c0.161-0.339,0.099-0.548,0.147-0.676c0.045-0.131,0.21-0.148,0.145-0.437
					c-0.065-0.292-0.084-0.26-0.113-0.39c-0.032-0.127-0.018-0.192-0.115-0.273c-0.097-0.082-0.242-0.162-0.176-0.26
					c0.063-0.094,0.142-0.16,0.404-0.225c0.258-0.065,0.611-0.113,0.774-0.372c0.163-0.257,0.194-0.386,0.21-0.628
					c0.016-0.244-0.016-0.341-0.016-0.341s0.288,0.067,0.579,0.052c0.29-0.019,0.645,0.015,0.792-0.019
					c0.145-0.033,0.307-0.548,0.307-0.548s-0.257-0.03-0.517-0.047c-0.258-0.017-0.451,0-0.551-0.066
					c-0.095-0.065-0.031-0.178,0-0.289c0.034-0.113,0.018-0.242,0.084-0.259c0.065-0.017,0.369,0,0.63,0c0.258,0,0.5,0.049,0.614,0
					c0.111-0.048,0.111-0.306,0.176-0.419c0.066-0.114-0.435-0.13-0.677-0.146c-0.241-0.017-0.452,0.032-0.436-0.048
					c0.016-0.08,0.066-0.096,0.161-0.194c0.097-0.098,0.081-0.16,0.292-0.209c0.208-0.047,0.468-0.356,0.514-0.565
					c0.048-0.209,0.032-0.679,0.032-0.679s0.324,0.017,0.568,0c0.241-0.016,0.531-0.146,0.531-0.339
					C59.364,74.042,59.364,73.992,59.122,73.992z M57.377,75.236c-0.081,0.178-0.305,0.082-0.679,0.05
					c-0.369-0.033-0.387-0.242-0.387-0.39c0-0.145,0.179-0.338,0.294-0.436c0.113-0.095,0.174-0.194,0.239-0.319
					c0.064-0.131,0.147-0.067,0.276-0.067c0,0,0.162,0,0.226,0.049c0.065,0.048,0.049,0.08,0.081,0.242
					c0.034,0.162,0.097,0.145,0.115,0.339C57.557,74.896,57.46,75.059,57.377,75.236z M57.603,73.525
					c-0.194-0.033-0.226-0.018-0.226-0.146c0,0,0.129-0.064,0.323-0.096c0.195-0.032,0.177,0.033,0.242,0.114
					C58.005,73.477,57.799,73.559,57.603,73.525z"/>
				<path style="fill:#004288;" d="M52.654,76.301c-0.315-0.035-0.679,0.122-0.818,0.403c-0.141,0.277-0.158,0.61,0.035,0.626
					c0.191,0.018,0.173-0.26,0.348-0.35c0.173-0.086,0.61-0.12,0.768,0.019c0.155,0.138,0.242,0.612,0.104,0.731
					c-0.141,0.124-0.489,0.034-0.647,0.209c-0.155,0.174-0.121,0.786,0.42,0.698c0.542-0.087,0.504-0.313,0.626-0.452
					c0.124-0.141,0.263-0.438,0.263-0.698c0-0.261-0.034-0.488-0.087-0.681c-0.052-0.191-0.052-0.347-0.26-0.399
					c-0.208-0.054-0.281-0.036-0.437-0.086c-0.157-0.055-0.295-0.055-0.295-0.055L52.654,76.301z"/>
				<path style="fill:#004288;" d="M56.868,79.258c0.129,0.226,0.04,0.394-0.226,0.535c-0.266,0.14-0.421,0.154-0.492,0.352
					c-0.073,0.197,0.042,0.225,0.085,0.381c0.042,0.153-0.057,0.253,0.054,0.337c0.114,0.085,0.369,0.057,0.605,0.042
					c0.24-0.014,0.608-0.295,0.651-0.322c0.041-0.029,0.097,0.59,0.097,0.59s-0.481,0.338-1.026,0.311
					c-0.551-0.028-0.564-0.028-0.634-0.099c-0.073-0.072-0.1-0.168-0.142-0.28c-0.044-0.115-0.281-0.268-0.281-0.551
					c0-0.282,0.124-0.396,0.208-0.55c0.085-0.155,0.142-0.366,0.339-0.548c0.197-0.182,0.227-0.254,0.41-0.254
					C56.698,79.201,56.868,79.258,56.868,79.258z"/>
				<path style="fill:#004288;" d="M56.021,81.653c-0.197,0-0.325,0-0.393,0.225c-0.069,0.225-0.364,0.379-0.379,0.534
					c-0.013,0.154,0.082,0.322,0.266,0.353c0.181,0.027,0.212-0.128,0.421-0.171c0.213-0.042,0.592-0.113,0.747,0.112
					c0.155,0.229,0.099,0.579-0.042,0.677c-0.139,0.1-0.308,0.128-0.521,0.085c-0.212-0.042-0.281-0.127-0.312,0.044
					c-0.026,0.168-0.069,0.239-0.181,0.308c-0.113,0.072-0.281,0.213-0.113,0.394c0.168,0.185,0.324,0.185,0.605,0.014
					c0.282-0.168,0.197-0.226,0.466-0.268c0.264-0.04,0.59-0.266,0.688-0.718c0.1-0.45,0.015-0.83-0.127-0.985
					c-0.141-0.154-0.241-0.154-0.421-0.225c-0.184-0.072-0.311-0.014-0.366-0.154C56.303,81.738,56.021,81.653,56.021,81.653z"/>
				<path style="fill:#004288;" d="M57.728,84.242c-0.013-0.211-0.313-0.325-0.51-0.283c-0.195,0.042-0.367,0.157-0.392,0.298
					c-0.029,0.141-0.254,0.506-0.368,0.69c-0.111,0.184-0.324,0.577-0.169,0.916c0.157,0.338,0.521,0.308,0.708,0.421
					c0.181,0.113,0.068,0.057,0.25,0.24c0.184,0.182,0.437,0.182,0.592,0.082c0.154-0.097,0.465-0.252,0.534-0.59
					c0.071-0.339,0.1-0.394,0.2-0.493c0.097-0.098,0.266-0.31,0.109-0.492c-0.155-0.185-0.394-0.157-0.59-0.142
					c-0.197,0.014-0.365,0.14-0.336,0.367c0.026,0.224,0.265,0.407,0.195,0.563c-0.069,0.155-0.17,0.225-0.324,0.225
					c-0.153,0-0.14-0.084-0.168-0.181c-0.029-0.1-0.115-0.1-0.311-0.171c-0.197-0.069-0.31-0.112-0.31-0.252
					c0-0.142,0.125-0.325,0.184-0.479c0.057-0.155,0.111-0.339,0.253-0.411c0.139-0.067,0.226,0.059,0.339-0.04
					C57.728,84.41,57.728,84.242,57.728,84.242z"/>
				<path style="fill:#004288;" d="M58.915,86.237c0,0,0.061,0.317,0,0.394c-0.063,0.08-0.366,0.017-0.603,0.065
					c-0.237,0.046-0.457,0.239-0.523,0.397c-0.063,0.158-0.127,0.457-0.127,0.805c0,0.349-0.065,0.636,0.064,0.889
					c0.129,0.251,0.554,0.41,0.98,0.41c0.427,0,0.747-0.015,0.998-0.22c0.255-0.205,0.081-0.334,0.238-0.395
					c0.158-0.063,0.334,0.032,0.461-0.079c0.124-0.111-0.365-0.665-0.365-0.665s-0.271,0.047-0.365,0.222
					c-0.095,0.173-0.208,0.332-0.431,0.491c-0.218,0.154-0.438,0.139-0.616,0.154c-0.172,0.018-0.408-0.14-0.44-0.441
					c-0.036-0.302-0.097-0.839,0.076-0.931c0.175-0.095,0.508-0.033,0.59-0.095c0.078-0.066,0-0.208,0.139-0.301
					c0.142-0.098,0.379-0.049,0.411-0.193C59.436,86.6,58.915,86.237,58.915,86.237z"/>
				<path style="fill:#004288;" d="M60.099,89.26c-0.109-0.095-0.476-0.141-0.587,0.061c-0.109,0.208-0.269,0.383-0.348,0.697
					c-0.078,0.319-0.139,0.541-0.045,0.839c0.094,0.302,0.347,0.618,0.92,0.603c0.568-0.015,0.966-0.285,1.042-0.49
					c0.082-0.206,0.176-0.269,0.222-0.398c0.05-0.125,0.097-0.586,0.017-0.759c-0.079-0.174-0.429-0.3-0.633-0.237
					c-0.207,0.062-0.348,0.266-0.284,0.441c0.061,0.175,0.284,0.142,0.379,0.304c0.095,0.157,0.015,0.364-0.126,0.491
					c0,0-0.113,0.126-0.573,0.062c-0.46-0.062-0.618-0.062-0.631-0.302c-0.017-0.235,0.031-0.394,0.221-0.647
					c0.191-0.255,0.349-0.206,0.41-0.317C60.149,89.496,60.099,89.26,60.099,89.26z"/>
				<path style="fill:#004288;" d="M62.03,91.048c0,0-0.191,0.238-0.268,0.586c-0.081,0.348-0.113,0.554-0.126,0.679
					c-0.016,0.128-0.05,0.205-0.145,0.174c-0.092-0.029-0.061-0.144-0.107-0.299c-0.05-0.158-0.287-0.284-0.525-0.332
					c-0.238-0.048-0.568,0-0.696,0.192c-0.126,0.187-0.269,0.378-0.11,0.488c0.157,0.111,0.268-0.111,0.52-0.079
					c0.255,0.029,0.698,0.333,0.729,0.73c0.032,0.397-0.063,0.614-0.381,0.661c-0.316,0.049-0.442,0.019-0.571-0.079
					c-0.122-0.094-0.424-0.204-0.41-0.078c0.018,0.126,0.238,0.632,0.238,0.632l0.236,0.552c0,0,0.19-0.423,0.349-0.455
					c0.157-0.033,0.681-0.097,0.807-0.331c0.128-0.241,0.095-0.477,0.095-0.62c0-0.144-0.063-0.282,0.109-0.282
					c0.176,0,0.397-0.095,0.507,0.079c0.113,0.171,0.129,0.267,0.318,0.3c0.189,0.029,0.174,0.198,0.413,0.248
					c0.237,0.053,0.269,0.226,0.361-0.058c0.099-0.287-0.221-1.016-0.221-1.016s-0.144-0.079-0.444-0.049
					c-0.298,0.034-0.583-0.013-0.648-0.108C62,92.487,61.983,92.284,62,91.982c0.014-0.299,0.111-0.397,0.222-0.538
					C62.333,91.3,62.03,91.048,62.03,91.048z"/>
				<path style="fill:#004288;" d="M62.47,93.847c-0.132-0.035-0.253,0.051-0.335,0.28c-0.087,0.228-0.124,0.592-0.15,0.714
					c-0.022,0.122-0.07,0.182-0.158,0.182c-0.082,0-0.349-0.013-0.349,0.227c0,0.247,0.219,0.28,0.349,0.343
					c0.136,0.056,0.052,0.288,0.197,0.384c0.147,0.1,0.303,0.208,0.303,0.331c0,0.121-0.084,0.253-0.375,0.278
					c-0.291,0.024-0.654-0.061-0.654-0.061l0.084,0.546c0,0,0.424,0.107,0.666,0.046c0.244-0.059,0.365-0.277,0.545-0.408
					c0.181-0.134,0.203-0.331,0.157-0.486c-0.05-0.158-0.231-0.234-0.231-0.378c0-0.145-0.095-0.238,0.088-0.275
					c0.178-0.038,0.831-0.038,0.831-0.038l-0.19-0.554c0,0-0.548,0.022-0.655-0.076c-0.106-0.097-0.169-0.215-0.145-0.374
					c0.022-0.155,0.097-0.288,0.121-0.448C62.593,93.921,62.47,93.847,62.47,93.847z"/>
			</g>
			<g>
				<path style="fill:#004288;" d="M75.535,91.087c-0.144-0.491-0.117-0.519-0.117-0.721c0-0.206-0.726-0.379-1.159-0.261
					c-0.434,0.114-0.611,0.213-0.764,0.329c-0.217,0.169-0.335,0.252-0.598,0.426c-0.262,0.172-0.769,0.475-1.478,1.158
					c-0.876,0.834-2.319,2.75-3.072,5.185c-0.757,2.435-0.871,4.09-0.695,4.638c0.171,0.551,0.494,0.52,0.841,0.637
					c0.347,0.114,1.358,0.144,1.65,0.03c0.291-0.115,0.668-0.61,1.159-1.364c0.495-0.754,1.016-1.505,1.189-1.911
					c0.173-0.405,0.438-0.724,0.523-0.724c0.086,0,0.118,0.837,0.118,1.303c0,0.464-0.202,1.856,0.52,2.523
					c0.724,0.665,1.042,0.984,1.884,0.984c0.839,0,1.679-0.61,1.998-1.189c0.32-0.579,0.578-1.623,0.668-2.318
					c0.087-0.696-0.057-0.84,0.231-0.87c0.289-0.031,0.583,1.13,0.897,1.738c0.319,0.613,0.871,1.537,1.916,1.392
					c1.043-0.146,2.056-1.187,2.375-2.492c0.317-1.303,0-3.219-0.495-4.291c-0.488-1.073-1.302-2.317-1.592-3.012
					c-0.287-0.698-0.899-1.71-1.446-1.944c-0.553-0.229-1.564,0.234-1.422,0.841c0.145,0.607,0.665,1.246,1.273,2.114
					c0.611,0.87,1.308,2.122,1.568,3.247c0.261,1.13,0.087,1.855-0.118,2.609c-0.204,0.753-0.288,0.81-0.462,0.897
					c-0.174,0.087-0.612-0.492-0.956-1.215c-0.348-0.724-1.131-2.38-1.216-3.132c-0.089-0.754-0.119-1.884-0.264-2.433
					c-0.145-0.552-0.493-1.278-0.84-1.305c-0.348-0.027-0.606,0.407-0.784,0.871c-0.172,0.46-0.287,1.418-0.2,2.606
					c0.085,1.191,0.2,2.057,0.057,3.249c-0.144,1.186-0.436,2.201-0.696,2.46c-0.261,0.264-0.435,0.204-0.725,0.204
					c-0.289,0-0.405-0.175-0.522-0.811c-0.114-0.638-0.232-2.084-0.2-3.274c0.026-1.189,0.173-2.637,0.286-3.276
					c0.118-0.637,0-0.553-0.056-0.723c-0.057-0.174-0.378-0.348-0.78-0.348c-0.407,0-0.816,0.058-1.016,0.548
					c-0.202,0.494-0.579,2.145-1.013,3.275c-0.437,1.129-1.246,2.697-1.653,3.304c-0.407,0.608-0.552,0.666-0.695,0.666
					c-0.144,0-0.26-0.492-0.172-1.649c0.085-1.159,0.347-2.637,1.013-3.797c0.666-1.159,1.015-1.739,1.334-2.087
					c0.318-0.347,0.374-0.347,0.695-0.58c0.318-0.231,0.377-0.377,0.638-0.49c0.259-0.121,0.954-0.088,1.3-0.088
					c0.35,0,0.873,0,0.989-0.205C75.562,91.608,75.535,91.087,75.535,91.087z"/>
				<path style="fill:#004288;" d="M70.339,96.664c0.19,0,0.034,0.221,0.171,0.427c0.138,0.205,0.121,0.222,0.328,0.205
					c0.204-0.016,0.446-0.153,0.533,0.052c0.084,0.208-0.329,0.518-0.707,0.552c-0.378,0.037-0.637,0.088-0.67-0.173
					c-0.034-0.26-0.053-0.324,0.032-0.653c0.087-0.327,0.277-0.43,0.277-0.43L70.339,96.664z"/>
				<path style="fill:#004288;" d="M71.489,94.375c-0.153,0.018-0.292,0.053-0.292,0.377c0,0.328-0.155,0.311-0.069,0.534
					c0.087,0.225,0.173,0.171,0.226,0.342c0.048,0.171-0.034,0.275,0.153,0.327c0.191,0.053,0.722,0,0.979-0.222
					c0.26-0.222,0.26-0.86,0.26-0.86s-0.552,0.24-0.791,0.24c-0.242,0-0.258-0.018-0.327-0.188
					C71.56,94.752,71.643,94.359,71.489,94.375z"/>
				<path style="fill:#004288;" d="M75.666,93.568c-0.104,0-0.135,0.052-0.168,0.292c-0.035,0.242-0.208,0.242-0.087,0.448
					c0.12,0.204,0.239,0.48,0.446,0.444c0.206-0.033,0.222-0.135,0.413-0.274c0.188-0.135,0.224-0.307,0.188-0.48
					c-0.034-0.173-0.034-0.208-0.24-0.173c-0.207,0.035-0.311,0.107-0.361-0.034C75.802,93.654,75.666,93.568,75.666,93.568z"/>
				<path style="fill:#004288;" d="M75.289,95.53c-0.14-0.037-0.24,0.033-0.24,0.36c0,0.324-0.019,0.652,0.413,0.652
					c0.427,0,0.771-0.412,0.807-0.62c0.035-0.205,0.018-0.392-0.155-0.392c-0.173,0-0.242-0.019-0.274,0.204
					c-0.038,0.222-0.088,0.275-0.258,0.239c-0.172-0.031-0.172-0.082-0.172-0.202C75.41,95.646,75.289,95.53,75.289,95.53z"/>
				<path style="fill:#004288;" d="M75.357,97.866c-0.138,0-0.239,0.242-0.188,0.499c0.051,0.258,0.137,0.581,0.583,0.546
					c0.448-0.032,0.623-0.187,0.638-0.546c0.018-0.364-0.015-0.344-0.052-0.411c-0.033-0.074-0.154-0.126-0.224-0.106
					c-0.069,0.018-0.087,0.088-0.104,0.274c-0.018,0.192-0.121,0.275-0.275,0.226c-0.153-0.052-0.153-0.122-0.173-0.279
					C75.546,97.918,75.357,97.866,75.357,97.866z"/>
				<path style="fill:#004288;" d="M79.621,93.877c-0.088,0-0.105,0.054-0.171,0.207c-0.072,0.154-0.259,0.173-0.313,0.427
					c-0.051,0.258,0.034,0.292,0.154,0.466c0.124,0.172,0.208,0.447,0.433,0.497c0.224,0.055,0.739-0.292,0.688-0.497
					c-0.053-0.208-0.106-0.189-0.327-0.189c-0.225,0-0.31,0-0.361-0.208c-0.051-0.205,0-0.341,0-0.461
					C79.725,93.997,79.621,93.877,79.621,93.877z"/>
				<path style="fill:#004288;" d="M79.692,96.06c-0.226,0-0.363,0.173-0.241,0.413c0.118,0.24,0.171,0.24,0.224,0.36
					c0,0,0.082,0.258,0.308,0.31c0.225,0.049,0.651,0.034,0.757-0.171c0.1-0.208,0-0.241,0.116-0.308
					c0.122-0.072,0.298-0.313,0.192-0.518c-0.102-0.208-0.257-0.159-0.364-0.138c-0.1,0.016-0.24,0.033-0.24,0.225
					c0,0.188,0,0.308-0.173,0.326c-0.169,0.015-0.251-0.068-0.322-0.211C79.878,96.213,79.692,96.06,79.692,96.06z"/>
				<path style="fill:#004288;" d="M81.289,97.296c-0.122-0.086-0.224-0.139-0.326,0.09c-0.107,0.222-0.14,0.289-0.312,0.307
					c-0.173,0.017-0.46-0.035-0.46,0.173c0,0.204-0.071,0.531,0.375,0.483c0.447-0.052,0.517-0.177,0.6-0.347
					c0.089-0.173,0.208-0.308,0.208-0.445C81.375,97.417,81.289,97.296,81.289,97.296z"/>
			</g>
			<path style="fill:#004288;" d="M65.728,92.063c-0.15-0.328-0.83-0.883-1.154-1.233c-0.327-0.354-1.206-1.307-1.761-2.062
				c-0.552-0.756-1.157-1.41-1.736-2.942c-0.58-1.536-0.904-2.916-1.13-3.947c-0.229-1.031-0.718-2.622-0.655-3.118
				c0.05-0.403,0.226-0.832,0.959-1.684c0.727-0.856,1.353-1.232,1.481-1.484c0.124-0.252,0.25-0.452,0.301-1.132
				c0.052-0.681,0.202-2.916,0.149-3.344c-0.047-0.428-0.047-0.628-0.149-0.804c-0.101-0.175-0.25-0.327-0.25-0.327
				c-0.229-0.202-1.158-0.152-1.661-0.352c-0.502-0.201-2.086-1.031-2.79-1.686c0,0-1.156-1.13-2.87-1.105
				c-1.707,0.025-1.931,0.277-2.11,0.401c-0.176,0.127-0.25,0.227-0.398,0.353c-0.153,0.126-0.884,0.352-1.308,0.854
				c-0.43,0.503-0.581,1.007-1.033,1.634c-0.452,0.628-0.831,1.836-0.905,3.018c-0.074,1.182,0.09,3.878,0.477,4.751
				c0.58,1.309,0.954,1.611,1.536,2.488c0.574,0.881,2.134,2.793,2.964,4.226c0.831,1.432,0.931,1.858,1.862,3.569
				c0.93,1.709,1.458,2.54,2.113,3.947c0.652,1.408,1.053,2.136,1.632,3.646c0.58,1.509,0.933,1.983,1.485,3.644
				c0.551,1.659,0.727,1.937,0.827,2.187c0.102,0.254,0.252,0.352,0.481,0.302c0.226-0.048,1.155-0.302,1.534-0.425
				c0.374-0.127,0.5-0.353,0.652-0.705c0.153-0.352,0.603-1.559,0.779-2.49c0.174-0.93,0.603-2.237,0.705-3.319
				C65.855,93.842,65.833,92.284,65.728,92.063z M62.648,99.019c-0.365,0-0.595-0.665-1.094-1.99
				c-0.495-1.326-1.292-2.747-1.954-4.44c-0.66-1.692-2.15-4.439-2.617-5.367c-0.463-0.929-1.393-3.378-1.955-4.372
				c-0.563-0.994-2.584-3.28-3.078-4.174c-0.498-0.894-0.929-1.856-0.799-3.843c0.134-1.987,0.433-3.08,1.096-4.273
				c0.663-1.193,1.854-1.557,2.683-1.557c0.829,0,1.16,0.564,1.457,0.929c0.298,0.365,0.827,1.06,1.492,1.027
				c0.663-0.034,1.619,0.164,1.887,0.462c0.268,0.301,0.257,0.513,0.171,1.036c-0.082,0.523-0.202,0.829-0.202,0.829
				s0,0,0.104,0.102c0.098,0.101,0.118,0.318,0.027,0.485c-0.332,0.621-0.963,1.36-1.39,2.152c-0.433,0.794-1.026,1.723-1.194,3.049
				c-0.164,1.325,0.168,1.888,0.86,4.67c0.698,2.783,1.26,3.279,2.152,4.805c0.896,1.521,1.691,2.747,2.157,3.313
				c0.463,0.561,0.494,1.325,0.563,1.953c0.065,0.632,0,2.55,0.03,3.511C63.079,98.287,63.014,99.019,62.648,99.019z"/>
			<path style="fill:#004288;" d="M100.252,71.003c-0.642-1.346-1.379-2.403-2.371-2.914c-0.992-0.513-1.504-0.513-1.797-0.609
				c-0.286-0.097-0.669-0.033-1.088,0.032c-0.438,0.067-1.312,0.064-1.825,0.255c-0.511,0.193-0.798,0.16-1.632,0.289
				c-0.832,0.127-1.057,0.127-1.406,0.095c-0.355-0.03-0.421,0.002-0.421,0.002c-0.158,0.161-0.383,0.64-0.671,1.28
				c-0.29,0.641-1.22,2.401-1.22,3.397c0,0.991-0.028,1.665,0.613,2.176c0.638,0.513,1.405,1.153,1.952,2.114
				c0.544,0.962,1.087,1.538,1.027,2.243c-0.066,0.704-0.77,3.618-1.315,4.931c-0.545,1.312-1.378,3.778-2.402,5.636
				c-1.026,1.858-2.402,3.845-2.371,4.197c0.032,0.351-0.16,1.442,0.032,2.371c0.194,0.927,0.417,1.342,0.479,1.917
				c0.066,0.58,0.035,0.964,0.225,1.444c0.193,0.481,0.705,1.12,0.932,1.604c0.222,0.479,0.222,0.734,0.446,0.829
				c0.224,0.099,0.994,0,1.377-0.094c0.386-0.095,0.639-0.324,0.738-0.803c0.097-0.477,0.319-1.408,0.545-2.146
				c0.226-0.734,0.418-1.058,0.513-1.568c0.095-0.515,0.126-1.346,0.288-2.052c0.159-0.704,0.544-1.342,1.12-2.273
				c0.576-0.926,2.209-3.558,3.234-5.123c1.024-1.571,2.02-3.3,3.042-5.094c1.025-1.793,1.409-2.562,1.539-2.914
				c0.125-0.353,0.125-0.643,0.125-0.643s0.385-0.447,0.61-1.056c0.224-0.61,0.74-2.081,0.74-3.393
				C101.31,73.82,100.89,72.346,100.252,71.003z M98.361,79.071c-0.641,1.73-1.824,3.333-2.915,5.19
				c-1.088,1.858-2.883,4.385-3.78,5.701c-0.898,1.311-1.987,3.652-2.306,4.679c-0.32,1.022-0.64,2.397-0.769,3.262
				c-0.126,0.866-0.159,0.963-0.447,0.963c-0.288,0-0.448-0.927-0.644-1.632c-0.188-0.704-0.413-1.153-0.539-1.988
				c-0.132-0.832,0.284-1.249,0.766-1.984c0.481-0.738,1.665-2.659,2.466-4.101c0.8-1.441,1.602-3.714,1.827-4.516
				c0.22-0.8,0.607-2.082,0.766-2.785c0.161-0.706,0.738-2.21,0.836-2.948c0.095-0.734-0.734-2.016-1.412-2.882
				c-0.671-0.865-1.566-1.826-1.885-2.113c-0.325-0.288-0.26-0.351-0.353-0.577c-0.099-0.222,0.384-1.184,0.511-1.858
				c0.13-0.671,0.161-0.767,0.447-0.959c0,0,0.514,0,0.897,0c0.383,0,0.608-0.129,0.96-0.129c0.351,0,0.672,0.129,1.603,0.034
				c0.927-0.098,1.57-0.387,1.795-0.418c0.224-0.032,0.255,0.031,0.446,0.192c0.192,0.161,0.353,0.29,0.927,0.994
				c0.58,0.704,0.898,1.634,1.22,2.689C99.095,74.941,98.999,77.342,98.361,79.071z"/>
			<g>
				<path style="fill:#004288;" d="M91.627,72.552c-0.167,0.114-0.219-0.035-0.368-0.221c-0.151-0.185-0.372-0.501-0.168-0.818
					c0.201-0.313,0.632-0.407,1.039-0.39c0.411,0.019,0.892,0.297,1.04,0.763c0.148,0.464,0.018,1.132-0.242,1.336
					c-0.259,0.204-0.466,0.128-0.52-0.077c-0.054-0.201,0.187-0.294,0.242-0.464c0.055-0.165,0.167-0.425-0.02-0.556
					c-0.186-0.129-0.205-0.075-0.334-0.204c-0.129-0.128-0.313-0.242-0.461-0.128c-0.151,0.111-0.207,0.167-0.129,0.352
					C91.779,72.331,91.627,72.552,91.627,72.552z"/>
				<path style="fill:#004288;" d="M94.615,71.569c-0.314-0.018-0.48,0.074-0.61,0.408c-0.132,0.337-0.073,0.704-0.258,0.724
					c-0.189,0.019-0.357-0.037-0.299-0.388c0.052-0.354,0.168-0.948,0.686-1.246c0.519-0.298,0.72-0.087,0.929-0.018
					c0.392,0.131,0.151,0.389,0.261,0.555c0.109,0.168,0.259,0.15,0.204,0.465c-0.056,0.315-0.204,0.668-0.522,0.781
					c-0.313,0.11-0.352-0.206-0.373-0.318c-0.018-0.111,0.3-0.22,0.373-0.426c0.079-0.204,0.021-0.315-0.073-0.41
					C94.84,71.606,94.615,71.569,94.615,71.569z"/>
				<path style="fill:#004288;" d="M98.739,78.326c-0.078-0.277-0.242-0.351-0.539-0.371c-0.299-0.02-0.149-0.094-0.26-0.26
					c-0.109-0.167-0.335-0.129-0.335-0.24c0-0.113,0.297-0.576,0.242-0.782c-0.057-0.204,0.109-0.258,0.093-0.574
					c-0.019-0.315-0.093-0.483-0.239-0.465c-0.154,0.019-0.241-0.166-0.319-0.24c-0.073-0.075-0.258-0.149-0.334,0.018
					c-0.075,0.168-0.444,0.186-0.684,0.334c-0.247,0.148-0.205,0.297-0.282,0.464c-0.073,0.167-0.257,0.167-0.313,0.056
					c-0.057-0.111,0-0.446-0.132-0.725c-0.127-0.278-0.297-0.352-0.594-0.406c-0.297-0.058-0.388-0.245-0.297-0.393
					c0.094-0.146,0.391-0.61,0.297-0.982c-0.092-0.37-0.388-0.222-0.501-0.37c-0.112-0.15-0.057-0.262-0.127-0.373
					c-0.074-0.111-0.355-0.13-0.355-0.13c-0.221,0.038-0.239,0.224-0.441,0.391c-0.207,0.166-0.355,0.405-0.391,0.853
					c-0.039,0.446,0.391,0.928,0.574,0.777c0.187-0.148,0.092-0.278,0.036-0.444c-0.053-0.167-0.24-0.556,0.055-0.668
					c0.3-0.114,0.279,0.037,0.408,0.131c0.128,0.092,0.332,0.185,0.224,0.427c-0.111,0.241-0.406,0.241-0.353,0.444
					c0.055,0.205,0.187,0.298,0.168,0.354c-0.017,0.054-0.168,0.131-0.098,0.333c0.081,0.205,0.154,0.241,0.504,0.26
					c0.356,0.02,0.427,0.24,0.391,0.464c-0.035,0.224-0.131,0.408-0.652,0.444c-0.517,0.04-0.78-0.332-0.76-0.611
					c0.023-0.277,0.317-0.224,0.391-0.39c0.078-0.167,0.112-0.259-0.018-0.315c-0.129-0.054-0.5-0.093-0.706,0.297
					c-0.204,0.39-0.241,0.947,0.039,1.28c0.274,0.335,0.519,0.484,0.966,0.464c0.444-0.017,0.72-0.277,1-0.426
					c0.279-0.149,0.392-0.185,0.481,0.057c0.094,0.241,0.224,0.52,0.594,0.631c0.369,0.109,0.724,0,0.801,0.241
					c0.072,0.24-0.372,0.24-0.559,0.761c-0.182,0.519-0.128,0.817,0.019,1.096c0.148,0.279,0.275,0.259,0.205,0.518
					c-0.075,0.261-0.114,0.577,0.129,0.577c0.241,0,0.459-0.186,0.428-0.352c-0.037-0.169-0.151,0-0.207-0.169
					c-0.054-0.166-0.165-0.294-0.054-0.353c0.111-0.053,0.523,0.039,0.595-0.22c0.071-0.26,0.053-0.484-0.129-0.428
					c-0.188,0.057-0.559,0.132-0.633-0.074c-0.074-0.205-0.02-0.557,0.167-0.724c0.185-0.167,0.686-0.186,0.74,0.093
					c0.059,0.279-0.092,0.351-0.035,0.519c0.059,0.168,0.37,0.278,0.521,0.057C98.608,78.958,98.813,78.605,98.739,78.326z
					 M97.329,76.599c-0.055,0.187-0.32,0.447-0.579,0.372c-0.259-0.074-0.348-0.39-0.298-0.594c0.059-0.204,0.352-0.297,0.596-0.258
					C97.048,76.119,97.382,76.416,97.329,76.599z"/>
				<path style="fill:#004288;" d="M98.05,73.89c-0.22,0.019-0.504,0.204-0.465,0.481c0.041,0.279,0.205,0.149,0.335,0.354
					c0.129,0.204,0.093,0.334,0.019,0.538c-0.072,0.205-0.149,0.52,0.151,0.408c0.295-0.112,0.371-0.131,0.461-0.297
					c0.092-0.168,0.078-0.224,0.187-0.24c0.111-0.02,0.221,0.314,0.372,0.166c0.146-0.15,0.037-0.54,0.017-0.687
					c-0.017-0.149-0.057-0.594-0.131-0.391c-0.074,0.204-0.127,0.408-0.317,0.428c-0.184,0.019-0.219,0-0.219-0.205
					c0-0.204,0.018-0.278-0.075-0.371C98.29,73.982,98.05,73.89,98.05,73.89z"/>
				<path style="fill:#004288;" d="M92.074,72.96c-0.204-0.184-0.484-0.258-0.666,0.038c-0.187,0.298-0.244,0.613-0.168,0.93
					c0.073,0.314,0.168,0.408,0.482,0.668c0.313,0.259,0.148,0.184,0.387,0.388c0.244,0.205,0.803,0.019,0.783-0.242
					c-0.019-0.258-0.132-0.371-0.371-0.537c-0.246-0.166-0.651-0.297-0.705-0.483c-0.057-0.185-0.021-0.242,0.166-0.314
					C92.166,73.332,92.074,72.96,92.074,72.96z"/>
				<path style="fill:#004288;" d="M96.55,80.387c-0.133-0.075-0.335,0.038-0.448,0.315c-0.112,0.279-0.224,0.613,0.074,0.781
					c0.297,0.167,0.315,0.035,0.501,0.222c0.186,0.185,0.205,0.445,0.205,0.445s0.464-0.483,0.407-0.667
					c-0.054-0.187-0.133-0.411-0.387-0.428c-0.26-0.018-0.369-0.037-0.411-0.205c-0.039-0.167,0.113-0.24,0.133-0.333
					C96.642,80.424,96.55,80.387,96.55,80.387z"/>
				<path style="fill:#004288;" d="M95.693,80.443c-0.165-0.186-0.148-0.224-0.317-0.372c-0.162-0.147-0.371-0.185-0.371-0.185
					c-0.352-0.02-0.779,0.202-1,0.52c-0.221,0.315-0.505,0.964-0.281,1.299c0.228,0.333,0.429,0.613,0.969,0.537
					c0.537-0.074,1.019-0.352,1.054-0.797C95.788,81,95.864,80.628,95.693,80.443z M94.654,81.593
					c-0.353,0.039-0.574-0.205-0.461-0.52c0.108-0.314,0.166-0.351,0.519-0.351c0.352,0,0.535,0.297,0.535,0.518
					C95.247,81.463,95.006,81.556,94.654,81.593z"/>
				<path style="fill:#004288;" d="M96.268,78.16c-0.222-0.131-0.279-0.093-0.352-0.279c-0.071-0.185-0.113-0.298-0.3-0.372
					c-0.182-0.074-0.328-0.092-0.328-0.092c-0.559,0.018-0.673,0.148-0.82,0.39c-0.145,0.242-0.314,0.557-0.371,0.966
					c-0.056,0.408,0.145,0.983,1.039,0.983c0.892,0,1.113-0.39,1.17-0.706C96.364,78.734,96.491,78.288,96.268,78.16z
					 M95.173,79.254c-0.461,0.019-0.593-0.371-0.558-0.761c0.039-0.389,0.244-0.464,0.505-0.464c0,0,0.257,0.038,0.373,0.131
					c0.109,0.093,0.071,0.221,0.165,0.372c0.089,0.148,0.146,0.128,0.146,0.332C95.804,79.068,95.637,79.235,95.173,79.254z"/>
				<path style="fill:#004288;" d="M95.972,82.075c-0.279-0.018-0.557,0.224-0.632,0.446c-0.111,0.333-0.111,0.872,0.153,0.836
					c0.254-0.036,0.198-0.503,0.421-0.538c0.226-0.036,0.202,0.445,0.202,0.501c0,0.055,0.673-0.501,0.673-0.724
					c0-0.224-0.075-0.242-0.318-0.335c-0.239-0.093-0.444-0.186-0.444-0.186H95.972z"/>
				<path style="fill:#004288;" d="M94.596,82.746c-0.238-0.187-0.628-0.207-0.628-0.207c-0.351-0.053-0.871,0.039-0.946,0.447
					c-0.074,0.407-0.392,1.412,0.205,1.484c0.593,0.074,0.966,0.148,1.242,0.02c0.278-0.131,0.372-0.465,0.372-0.856
					C94.84,83.245,94.84,82.931,94.596,82.746z M93.837,83.896c-0.446,0-0.407-0.151-0.427-0.446
					c-0.019-0.297,0.225-0.333,0.464-0.333c0,0,0.079,0.037,0.224,0.147c0.145,0.112,0.226-0.019,0.226,0.259
					C94.323,83.801,94.285,83.896,93.837,83.896z"/>
				<path style="fill:#004288;" d="M93.784,85.883c-0.08-0.446-0.149-0.446-0.318-0.614c-0.169-0.167-0.388-0.239-0.388-0.239
					c-0.318-0.056-0.504-0.077-0.783,0.315c-0.275,0.387-0.5,0.648-0.443,0.982c0.055,0.333,0.313,0.428,0.423,0.614
					c0.112,0.186,0.207,0.352,0.58,0.278c0.371-0.073,0.427-0.129,0.611-0.43C93.653,86.493,93.855,86.326,93.784,85.883z
					 M92.912,86.55c-0.207,0.166-0.187,0-0.468-0.261c-0.278-0.259-0.168-0.185-0.019-0.499c0.149-0.317,0.225-0.186,0.407-0.206
					c0,0,0.246,0.113,0.334,0.334C93.262,86.142,93.113,86.38,92.912,86.55z"/>
				<path style="fill:#004288;" d="M91.982,87.314c-0.278,0-0.371-0.056-0.392,0.162c-0.018,0.226,0.093,0.279,0.262,0.447
					c0.167,0.167,0.296,0.448,0.13,0.574c-0.166,0.129-0.465,0.26-0.501,0.095c-0.038-0.166,0.074-0.298,0.074-0.485
					c0-0.185-0.095-0.298-0.226-0.185c-0.127,0.114-0.294,0.222-0.312,0.593c-0.021,0.372,0.018,0.52,0.204,0.726
					c0.186,0.204,0.889,0.204,1.152-0.148c0.257-0.353,0.128-0.783,0.109-1.078c-0.021-0.297-0.075-0.484-0.187-0.577
					C92.187,87.347,91.982,87.314,91.982,87.314z"/>
				<path style="fill:#004288;" d="M90.921,90.708c0.3-0.038,0.335-0.315,0.318-0.613c-0.018-0.296-0.334-0.501-0.613-0.501
					c-0.278,0-0.35,0.167-0.501,0.407c-0.146,0.244-0.334,0.317-0.352,0.652c-0.019,0.333-0.113,0.705,0.221,0.927
					c0.337,0.221,0.985,0.151,1.171-0.037c0.186-0.186,0.165-0.612,0.165-0.612s-0.221-0.039-0.517-0.018
					c-0.297,0.018-0.537,0.072-0.558-0.111c-0.018-0.186-0.108-0.394,0.075-0.485c0.186-0.093,0.354-0.224,0.373,0.074
					C90.717,90.688,90.921,90.708,90.921,90.708z"/>
				<path style="fill:#004288;" d="M89.53,91.949c-0.294-0.032-0.519,0.059-0.463,0.279c0.053,0.225,0.297,0.206,0.424,0.373
					c0.133,0.168,0.281,0.297,0.168,0.464c-0.109,0.167-0.406,0.353-0.648,0.279c-0.242-0.074-0.279-0.112-0.186-0.261
					c0.092-0.147,0.202-0.202,0.202-0.351c0-0.148-0.111-0.314-0.369-0.187c-0.259,0.129-0.461,0.371-0.461,0.744
					c0,0.37,0.128,0.87,0.537,0.926c0.407,0.06,1.039-0.107,1.245-0.61c0.2-0.503,0.168-0.856,0.052-1.04
					c-0.109-0.186-0.036-0.337-0.185-0.465C89.698,91.969,89.53,91.949,89.53,91.949z"/>
				<path style="fill:#004288;" d="M87.783,94.326c-0.24,0.057-0.386,0.168-0.333,0.373c0.057,0.201,0.149,0.148,0.149,0.299
					c0,0.148-0.036,0.371-0.22,0.48c-0.187,0.113-0.114,0.331,0.353,0.148c0.464-0.185,0.538-0.501,0.538-0.726
					c0-0.219,0.035-0.332-0.113-0.44C88.009,94.346,87.783,94.326,87.783,94.326z"/>
				<path style="fill:#004288;" d="M88.619,95.331c-0.239,0.038-0.387,0.186-0.422,0.426c-0.039,0.239-0.279,0.592,0.091,0.779
					c0.371,0.186,0.763,0.169,0.833-0.131c0.078-0.294,0.318-0.612,0.095-0.686c-0.222-0.073-0.314-0.111-0.371-0.241
					C88.786,95.351,88.619,95.331,88.619,95.331z"/>
				<path style="fill:#004288;" d="M97.774,72.237c-0.129-0.389-0.298-0.574-0.521-0.667c-0.226-0.092-0.411-0.092-0.411-0.092
					c-0.292,0-0.666,0.222-0.833,0.556c-0.162,0.334-0.22,0.633-0.058,0.669c0.166,0.038,0.225-0.129,0.299-0.278
					c0.075-0.148,0.171-0.224,0.3-0.298c0.127-0.075,0.352,0.039,0.459,0.058c0.115,0.018,0.168,0.036,0.187,0.296
					c0.017,0.26,0.186,0.315,0.078,0.388c-0.118,0.077-0.559,0.038-0.724,0.038c-0.169,0-0.41-0.073-0.521,0.148
					c-0.112,0.224-0.484,0.335-0.557,0.557c-0.075,0.222-0.314,1.481,0.797,1.504c0.887,0.02,0.966-0.744,0.966-0.964
					c0-0.223-0.079-0.485,0.225-0.742C97.757,73.146,97.901,72.628,97.774,72.237z M96.25,74.484
					c-0.315-0.019-0.315-0.224-0.352-0.538c-0.034-0.315,0.111-0.465,0.391-0.465c0,0,0.335,0.224,0.372,0.465
					C96.699,74.188,96.567,74.504,96.25,74.484z"/>
			</g>
		</g>
	</g>
</g>
</svg>