<svg width="69" height="69" viewBox="0 0 69 69" fill="none" xmlns="http://www.w3.org/2000/svg">
<path d="M60.976 67.2649H53.861V67.2539H52.227V67.2649H47.299V67.2539H45.664V67.2659H38.549V67.2539H36.915V67.2649H31.987V67.2539H30.351V67.2659H23.236V67.2539H21.603V67.2659H16.675V67.2539H15.039V67.2659H7.924V67.2539H6.289V67.2659H0.817C0.367 67.2659 0 67.6329 0 68.0829C0 68.5329 0.367 68.8999 0.817 68.8999H68.083C68.533 68.8999 68.9 68.5329 68.9 68.0829C68.9 67.6329 68.533 67.2659 68.083 67.2659H62.611V67.2539H60.976V67.2649Z" fill="#3F496A"/>
<path d="M29.8092 6.55588H60.6992C61.1492 6.55588 61.5162 6.18887 61.5162 5.73887C61.5162 5.28887 61.1492 4.92188 60.6992 4.92188H29.8092C29.3592 4.92188 28.9922 5.28887 28.9922 5.73887C28.9922 6.18887 29.3592 6.55588 29.8092 6.55588Z" fill="#E8A15B"/>
<path d="M14.2456 6.31687C14.3976 6.16387 14.4856 5.95387 14.4856 5.73887C14.4856 5.52687 14.3956 5.31088 14.2466 5.16188C14.0926 5.00988 13.8826 4.92188 13.6686 4.92188C13.4536 4.92188 13.2426 5.00987 13.0906 5.16087C12.9386 5.31287 12.8516 5.52287 12.8516 5.73887C12.8516 5.95387 12.9396 6.16488 13.0906 6.31687C13.3956 6.61987 13.9416 6.61987 14.2456 6.31687Z" fill="#637EA8"/>
<path d="M8.77681 6.31687C8.92881 6.16387 9.01681 5.95387 9.01681 5.73887C9.01681 5.52687 8.92681 5.31088 8.77781 5.16188C8.62481 5.00988 8.41481 4.92188 8.19981 4.92188C7.98481 4.92188 7.77381 5.00987 7.62181 5.16087C7.46981 5.31287 7.38281 5.52287 7.38281 5.73887C7.38281 5.95387 7.47081 6.16488 7.62181 6.31687C7.92681 6.61987 8.47281 6.61987 8.77681 6.31687Z" fill="#E8A15B"/>
<path d="M19.7143 6.31687C19.8663 6.16387 19.9543 5.95387 19.9543 5.73887C19.9543 5.52687 19.8643 5.31088 19.7153 5.16188C19.5623 5.00988 19.3523 4.92188 19.1373 4.92188C18.9223 4.92188 18.7113 5.00987 18.5593 5.16087C18.4073 5.31287 18.3203 5.52287 18.3203 5.73887C18.3203 5.95387 18.4083 6.16488 18.5593 6.31687C18.8643 6.61987 19.4103 6.61987 19.7143 6.31687Z" fill="#3F496A"/>
<path d="M52.4646 48.2392C52.7696 48.5452 53.3156 48.5452 53.6196 48.2412C53.7726 48.0882 53.8606 47.8772 53.8606 47.6622C53.8606 47.4472 53.7726 47.2372 53.6216 47.0862C53.4686 46.9322 53.2586 46.8452 53.0436 46.8452C52.8276 46.8452 52.6176 46.9322 52.4676 47.0842C52.3136 47.2372 52.2266 47.4472 52.2266 47.6622C52.2266 47.8782 52.3126 48.0882 52.4646 48.2392Z" fill="#E8A15B"/>
<path d="M44.0884 35.4068C42.8564 34.7268 41.3164 34.6908 40.0584 35.3078L39.7044 35.4818L39.6734 35.4508L38.4384 36.5308L38.4854 36.5778L38.2564 36.9478C37.8314 37.6348 37.6074 38.4268 37.6074 39.2368C37.6074 41.6478 39.5684 43.6088 41.9794 43.6088C44.3904 43.6088 46.3514 41.6478 46.3514 39.2368C46.3514 38.5018 46.1634 37.7728 45.8064 37.1278L45.6074 36.7678L44.4434 35.6038L44.0884 35.4068ZM41.9784 41.9728C40.4684 41.9728 39.2414 40.7448 39.2414 39.2358C39.2414 37.7268 40.4694 36.4988 41.9784 36.4988C43.4874 36.4988 44.7154 37.7268 44.7154 39.2358C44.7154 40.7448 43.4884 41.9728 41.9784 41.9728Z" fill="#E8A15B"/>
<path d="M13.4976 34.1012C12.8546 33.7452 12.1256 33.5562 11.3896 33.5562C8.97858 33.5562 7.01758 35.5172 7.01758 37.9282C7.01758 40.3392 8.97858 42.3002 11.3896 42.3002C13.8006 42.3002 15.7616 40.3392 15.7616 37.9282C15.7616 37.1932 15.5736 36.4632 15.2166 35.8202L15.0486 35.5162L13.8006 34.2692L13.4976 34.1012ZM11.3896 40.6642C9.87958 40.6642 8.65258 39.4362 8.65258 37.9272C8.65258 36.4182 9.88058 35.1902 11.3896 35.1902C12.8986 35.1902 14.1266 36.4182 14.1266 37.9272C14.1266 39.4362 12.8996 40.6642 11.3896 40.6642Z" fill="#E8A15B"/>
<path d="M57.4189 18.585C55.0079 18.585 53.0469 20.546 53.0469 22.957C53.0469 23.885 53.3359 24.771 53.8809 25.521L54.1579 25.901L54.1139 25.945L55.4359 26.935L55.4789 26.892L55.8149 27.025C56.3279 27.228 56.8679 27.332 57.4189 27.332C59.8299 27.332 61.7909 25.371 61.7909 22.96C61.7919 20.549 59.8309 18.585 57.4189 18.585ZM57.4189 25.694C55.9089 25.694 54.6819 24.466 54.6819 22.957C54.6819 21.448 55.9099 20.22 57.4189 20.22C58.9279 20.22 60.1559 21.448 60.1559 22.957C60.1559 24.466 58.9289 25.694 57.4189 25.694Z" fill="#E8A15B"/>
<path d="M29.6513 25.4299L29.8513 25.0679C30.2073 24.4219 30.3963 23.6929 30.3963 22.9579C30.3963 20.5469 28.4353 18.5859 26.0243 18.5859C23.6133 18.5859 21.6523 20.5469 21.6523 22.9579C21.6523 23.7709 21.8793 24.5639 22.3063 25.2549L22.5353 25.6259L22.5133 25.6469L23.6693 26.8029L23.7573 26.7149L24.1113 26.8879C25.3633 27.5029 26.9023 27.4649 28.1333 26.7859L28.4953 26.5859L28.5113 26.6019L29.6673 25.4459L29.6513 25.4299ZM26.0243 25.6939C24.5143 25.6939 23.2873 24.4659 23.2873 22.9569C23.2873 21.4479 24.5153 20.2199 26.0243 20.2199C27.5333 20.2199 28.7613 21.4479 28.7613 22.9569C28.7613 24.4659 27.5343 25.6939 26.0243 25.6939Z" fill="#E8A15B"/>
<path d="M19.3413 18.623C19.4913 18.472 19.5793 18.262 19.5793 18.047C19.5793 17.832 19.4913 17.621 19.3403 17.469C19.1873 17.318 18.9763 17.23 18.7623 17.23C18.5453 17.23 18.3353 17.317 18.1843 17.468C18.0323 17.62 17.9453 17.83 17.9453 18.047C17.9453 18.263 18.0323 18.473 18.1823 18.623C18.4903 18.929 19.0323 18.931 19.3413 18.623Z" fill="#637EA8"/>
<path d="M7.10606 18.864H13.6691C14.1191 18.864 14.4861 18.497 14.4861 18.047C14.4861 17.597 14.1191 17.23 13.6691 17.23H7.10606C6.65606 17.23 6.28906 17.597 6.28906 18.047C6.28906 18.497 6.65606 18.864 7.10606 18.864Z" fill="#637EA8"/>
<path d="M13.6691 25.426C14.1191 25.427 14.4861 25.06 14.4861 24.609C14.4861 24.159 14.1191 23.792 13.6691 23.792H7.10606C6.65606 23.792 6.28906 24.159 6.28906 24.609C6.28906 25.059 6.65606 25.426 7.10606 25.426H13.6691Z" fill="#637EA8"/>
<path d="M53.0436 51.167C52.5936 51.167 52.2266 51.534 52.2266 51.984V64.692V67.255H53.8606V64.692V51.984C53.8606 51.534 53.4936 51.167 53.0436 51.167Z" fill="#637EA8"/>
<path d="M62.6136 57.4909V35.8859C62.6106 35.4359 62.2436 35.0679 61.7936 35.0679H53.0436C52.5936 35.0679 52.2266 35.4349 52.2266 35.8849V42.7889C52.2266 43.2389 52.5936 43.6059 53.0436 43.6059C53.4936 43.6059 53.8606 43.2389 53.8606 42.7889V36.7019H60.9756V64.6919V67.2549H62.6106V64.6919V59.1249H62.6296V57.4909H62.6136Z" fill="#637EA8"/>
<path d="M15.8578 52.2271H7.10777C6.65777 52.2271 6.29077 52.594 6.29077 53.044V57.4901H6.25977V59.125H6.28877V64.6921V67.255H7.92377V64.6921V53.861H15.0388V64.6921V67.255H16.6748V64.6921V53.044C16.6748 52.594 16.3078 52.2271 15.8578 52.2271Z" fill="#E8A15B"/>
<path d="M46.4811 48.6719H37.7311C37.2811 48.6719 36.9141 49.0389 36.9141 49.4889V64.6919V67.2549H38.5481V64.6919V50.3069H45.6631V64.6919V67.2549H47.2981V64.6919V49.4889C47.2981 49.0389 46.9311 48.6719 46.4811 48.6719Z" fill="#E8A15B"/>
<path d="M31.1705 37.1099H22.4205C21.9705 37.1099 21.6035 37.4769 21.6035 37.9269V64.6919V67.2549H23.2365V64.6919V38.7439H30.3515V64.6919V67.2549H31.9875V64.6919V37.9269C31.9875 37.4769 31.6205 37.1099 31.1705 37.1099Z" fill="#637EA8"/>
<path d="M62.614 0H6.286C2.82 0 0 2.82 0 6.286V54.901C0 57.23 1.895 59.125 4.224 59.125H4.677H6.26V57.49H4.677H4.226C2.798 57.49 1.637 56.329 1.637 54.901V11.422L1.708 11.428V9.888L1.634 9.301V6.286C1.634 3.722 3.721 1.635 6.285 1.635H62.613C65.177 1.635 67.264 3.722 67.264 6.286V9.844H67.224V11.479H67.268V54.902C67.268 56.33 66.106 57.491 64.678 57.491H64.214H62.63V59.125H64.213H64.674C67.003 59.125 68.899 57.23 68.899 54.901V6.286C68.9 2.82 66.08 0 62.614 0Z" fill="#3F496A"/>
<path d="M38.5517 34.3288L30.7877 26.5658L29.6677 25.4468L28.5117 26.6028L29.6307 27.7228L37.3167 35.4078L38.4387 36.5298L39.6737 35.4508L38.5517 34.3288Z" fill="#637EA8"/>
<path d="M22.5128 25.647L21.3938 26.767L14.9658 33.194L13.8598 34.301L13.8008 34.269L15.0488 35.516L15.0168 35.458L16.1228 34.351L22.5498 27.923L23.6688 26.804L22.5128 25.647Z" fill="#637EA8"/>
<path d="M54.1124 25.9448L52.9814 27.0758L45.5674 34.4888L44.4504 35.6068L44.4414 35.6018L45.6054 36.7668L45.6044 36.7648L46.7244 35.6458L54.3034 28.0658L55.4354 26.9348L54.1124 25.9448Z" fill="#637EA8"/>
<path d="M65.64 9.84424H3.29103H2.31903L1.71003 9.91024L1.70703 9.88924V11.4282L2.23403 11.4742H3.29103L65.64 11.4792H67.223V9.84424H65.64Z" fill="#637EA8"/>
</svg>
