<svg width="69" height="68" viewBox="0 0 69 68" fill="none" xmlns="http://www.w3.org/2000/svg">
<g clip-path="url(#clip0_1321_11025)">
<path d="M12.42 14.85H45.52C45.6594 14.8826 45.8044 14.8833 45.9441 14.852C46.0838 14.8207 46.2146 14.7583 46.3268 14.6693C46.439 14.5804 46.5296 14.4672 46.5919 14.3383C46.6542 14.2094 46.6865 14.0681 46.6865 13.925C46.6865 13.7818 46.6542 13.6405 46.5919 13.5116C46.5296 13.3827 46.439 13.2696 46.3268 13.1806C46.2146 13.0917 46.0838 13.0292 45.9441 12.9979C45.8044 12.9666 45.6594 12.9673 45.52 13H12.42C12.22 13.0657 12.0458 13.193 11.9223 13.3636C11.7988 13.5342 11.7323 13.7394 11.7323 13.95C11.7323 14.1606 11.7988 14.3658 11.9223 14.5364C12.0458 14.707 12.22 14.8342 12.42 14.9V14.85Z" fill="#637EA8"/>
<path d="M33.11 23H12.42C12.1681 23 11.9264 23.1001 11.7483 23.2782C11.5701 23.4564 11.47 23.698 11.47 23.95C11.47 24.202 11.5701 24.4436 11.7483 24.6218C11.9264 24.7999 12.1681 24.9 12.42 24.9H32.31C32.363 24.2994 32.5734 23.7234 32.92 23.23L33.11 23Z" fill="#637EA8"/>
<path d="M29.59 33H12.42C12.1681 33 11.9264 33.1001 11.7483 33.2782C11.5701 33.4564 11.47 33.698 11.47 33.95C11.47 34.202 11.5701 34.4436 11.7483 34.6217C11.9264 34.7999 12.1681 34.9 12.42 34.9H29.52C29.3496 34.2736 29.3776 33.6098 29.6 33H29.59Z" fill="#637EA8"/>
<path d="M12.42 43C12.2698 42.9506 12.1101 42.9376 11.9539 42.9619C11.7976 42.9863 11.6494 43.0473 11.5214 43.14C11.3933 43.2327 11.289 43.3545 11.2172 43.4953C11.1453 43.6361 11.1078 43.7919 11.1078 43.95C11.1078 44.1081 11.1453 44.264 11.2172 44.4048C11.289 44.5456 11.3933 44.6673 11.5214 44.76C11.6494 44.8527 11.7976 44.9138 11.9539 44.9381C12.1101 44.9624 12.2698 44.9494 12.42 44.9H32.91C32.5299 44.3364 32.312 43.6791 32.28 43H12.42Z" fill="#637EA8"/>
<path d="M5.63002 61C4.77867 61 3.9622 60.6618 3.36021 60.0598C2.75821 59.4578 2.42002 58.6413 2.42002 57.79V6.11C2.42002 5.25866 2.75821 4.44218 3.36021 3.84019C3.9622 3.2382 4.77867 2.9 5.63002 2.9H52.31C53.1614 2.9 53.9778 3.2382 54.5798 3.84019C55.1818 4.44218 55.52 5.25866 55.52 6.11V13.47C56.274 13.751 56.9257 14.2528 57.39 14.91V6.11C57.39 4.75993 56.8558 3.4647 55.904 2.50725C54.9521 1.5498 53.6601 1.00793 52.31 1L5.63002 1C4.27476 1 2.97501 1.53837 2.0167 2.49668C1.05839 3.455 0.52002 4.75474 0.52002 6.11L0.52002 57.79C0.52002 59.1453 1.05839 60.445 2.0167 61.4033C2.97501 62.3616 4.27476 62.9 5.63002 62.9H35.9V61H5.63002Z" fill="#3F496A"/>
<path d="M57.42 24.81C56.8284 24.3245 56.1922 23.8959 55.52 23.53C55.1076 23.3047 54.6837 23.1011 54.25 22.92C51.4227 21.7868 48.2673 21.7868 45.44 22.92H45.39C44.2495 23.3895 43.1873 24.0302 42.24 24.82C39.8015 26.8388 38.2596 29.7394 37.95 32.89C37.95 33.24 37.95 33.6 37.95 33.96C37.95 34.32 37.95 34.52 37.95 34.79C38.1636 37.9117 39.6012 40.8227 41.95 42.89C42.8135 43.6635 43.7876 44.3039 44.84 44.79C46.5167 45.5828 48.3554 45.973 50.2096 45.9296C52.0638 45.8862 53.8822 45.4104 55.52 44.54C56.1915 44.1729 56.8276 43.7444 57.42 43.26C58.7895 42.1441 59.8933 40.7372 60.6514 39.1416C61.4094 37.546 61.8027 35.8016 61.8027 34.035C61.8027 32.2684 61.4094 30.524 60.6514 28.9284C59.8933 27.3328 58.7895 25.9259 57.42 24.81ZM57.42 40.61C56.86 41.2537 56.2218 41.8248 55.52 42.31C53.8518 43.4571 51.8746 44.0708 49.85 44.07C49.385 44.0676 48.9206 44.0342 48.46 43.97C47.3408 43.8223 46.2551 43.4841 45.25 42.97C43.7361 42.1884 42.4456 41.0352 41.4993 39.6184C40.553 38.2017 39.9821 36.5678 39.84 34.87C39.8248 34.5935 39.8248 34.3165 39.84 34.04C39.8276 33.6932 39.8343 33.346 39.86 33C39.9281 32.3555 40.0588 31.7192 40.25 31.1C40.6815 29.7427 41.3944 28.4917 42.3421 27.4285C43.2898 26.3654 44.451 25.514 45.75 24.93C46.6017 24.5459 47.5043 24.2865 48.43 24.16C48.8994 24.0764 49.3738 24.023 49.85 24C51.8725 23.9933 53.8495 24.6 55.52 25.74C56.2218 26.2252 56.86 26.7963 57.42 27.44C59.015 29.2629 59.8942 31.6028 59.8942 34.025C59.8942 36.4472 59.015 38.7871 57.42 40.61Z" fill="#637EA8"/>
<path d="M56.24 32.48C56.184 32.3113 56.0899 32.1577 55.9651 32.0312C55.8402 31.9046 55.688 31.8084 55.52 31.75C55.4514 31.7254 55.3813 31.7054 55.31 31.69L52.25 31.25L50.88 28.48C50.7859 28.2856 50.6388 28.1216 50.4558 28.0069C50.2727 27.8921 50.0611 27.8313 49.845 27.8313C49.629 27.8313 49.4173 27.8921 49.2343 28.0069C49.0512 28.1216 48.9042 28.2856 48.81 28.48L47.44 31.25L44.39 31.69C44.1751 31.7206 43.9731 31.8108 43.8069 31.9505C43.6408 32.0901 43.5171 32.2736 43.45 32.48C43.4198 32.6352 43.4198 32.7948 43.45 32.95C43.476 33.2174 43.5924 33.4678 43.78 33.66L45 34.85L46 35.85L45.48 38.85C45.4311 39.0608 45.4437 39.2813 45.5163 39.4852C45.589 39.689 45.7187 39.8677 45.89 40C46.0643 40.1283 46.2713 40.2048 46.4871 40.2207C46.7029 40.2366 46.9188 40.1913 47.11 40.09L49.85 38.66L52.58 40.09C52.7461 40.1795 52.9314 40.2276 53.12 40.23C53.3655 40.2286 53.604 40.1479 53.8 40C53.975 39.8738 54.1109 39.7009 54.1922 39.5011C54.2736 39.3012 54.2971 39.0826 54.26 38.87L53.73 35.87L55.52 34.08L55.95 33.66C56.1037 33.51 56.2123 33.32 56.2636 33.1115C56.3149 32.9029 56.3067 32.6842 56.24 32.48ZM52.13 34.73C51.9987 34.8579 51.9001 35.0156 51.8426 35.1896C51.7852 35.3637 51.7706 35.5491 51.8 35.73L52.13 37.73L50.38 36.81C50.2156 36.7216 50.0317 36.6754 49.845 36.6754C49.6583 36.6754 49.4745 36.7216 49.31 36.81L47.52 37.7L47.85 35.76C47.8787 35.5962 47.8712 35.428 47.828 35.2673C47.7849 35.1067 47.707 34.9574 47.6 34.83L47.52 34.73L46.11 33.36L47.94 33.09H48.06C48.2456 33.0646 48.4221 32.9938 48.5739 32.8839C48.7256 32.774 48.8479 32.6284 48.93 32.46L49.81 30.69L50.68 32.46C50.7621 32.6284 50.8844 32.774 51.0362 32.8839C51.1879 32.9938 51.3644 33.0646 51.55 33.09L53.55 33.38L52.13 34.73Z" fill="#3F496A"/>
<path d="M59.52 47.33C59.2899 47.516 59.0848 47.7312 58.91 47.97V65.39L55.3 61.93L53.89 60.57L50.82 57.63C50.6904 57.4957 50.535 57.3889 50.3632 57.316C50.1914 57.243 50.0067 57.2054 49.82 57.2054C49.6334 57.2054 49.4486 57.243 49.2768 57.316C49.105 57.3889 48.9497 57.4957 48.82 57.63L45.34 61L43.34 62.9L40.77 65.39V48C40.5952 47.7611 40.3902 47.546 40.16 47.36C39.7631 47.1164 39.3315 46.9343 38.88 46.82V66.34C38.8747 66.6452 38.959 66.9452 39.1226 67.203C39.2861 67.4607 39.5216 67.6648 39.8 67.79C40.0558 67.8987 40.3383 67.9282 40.6111 67.8747C40.8838 67.8212 41.1342 67.6872 41.33 67.49L46.09 62.9L48.09 61L49.84 59.31L51.58 61L53.42 62.77L58.34 67.5C58.6096 67.7568 58.9677 67.9 59.34 67.9C59.5286 67.8982 59.7152 67.8609 59.89 67.79C60.1695 67.6652 60.4064 67.4615 60.5717 67.2039C60.7369 66.9463 60.8232 66.646 60.82 66.34V46.79C60.3613 46.9014 59.9227 47.0836 59.52 47.33Z" fill="#637EA8"/>
<path d="M66.61 30.61C66.1572 30.1171 65.789 29.5529 65.52 28.94C65.3743 28.2464 65.3439 27.5335 65.43 26.83C65.6467 25.5771 65.4241 24.2878 64.8 23.18C64.6997 23.0332 64.5822 22.8989 64.45 22.78C63.8995 22.3086 63.2502 21.9669 62.55 21.78L61.55 21.48C60.8468 21.3573 60.1701 21.1137 59.55 20.76C59.039 20.2923 58.6068 19.7453 58.27 19.14C58.02 18.75 57.75 18.33 57.45 17.95C56.9759 17.2683 56.3014 16.751 55.52 16.47C54.2946 16.2331 53.0251 16.42 51.92 17C51.2666 17.304 50.567 17.4966 49.85 17.57C49.1299 17.4968 48.4269 17.3041 47.77 17C46.6558 16.4147 45.3751 16.2277 44.14 16.47C42.9664 17.0095 42.0159 17.9389 41.45 19.1C41.116 19.7014 40.6871 20.2451 40.18 20.71C39.9943 20.8389 39.7926 20.9431 39.58 21.02C39.1352 21.1863 38.6811 21.3265 38.22 21.44C37.0737 21.6309 36.0053 22.1442 35.14 22.92L34.95 23.15C34.6034 23.6434 34.393 24.2194 34.34 24.82C34.2789 25.4853 34.2789 26.1547 34.34 26.82C34.4262 27.5235 34.3957 28.2364 34.25 28.93C33.972 29.545 33.5935 30.1093 33.13 30.6L32.79 31.01C32.3054 31.5743 31.9199 32.2168 31.65 32.91C31.4276 33.5198 31.3997 34.1836 31.57 34.81C31.901 35.7762 32.4365 36.6596 33.14 37.4C33.6035 37.8906 33.982 38.455 34.26 39.07C34.4057 39.7636 34.4362 40.4765 34.35 41.18C34.31 41.756 34.31 42.334 34.35 42.91C34.382 43.5891 34.5999 44.2463 34.98 44.81C35.3694 45.362 35.9018 45.7976 36.52 46.07C37.0639 46.2874 37.6218 46.4678 38.19 46.61L38.87 46.79C39.3215 46.9043 39.7531 47.0864 40.15 47.33C40.3802 47.516 40.5852 47.7312 40.76 47.97C40.97 48.26 41.19 48.59 41.41 48.97C41.9786 50.1292 42.9283 51.0577 44.1 51.6C45.3559 51.8296 46.6526 51.6177 47.77 51C48.4269 50.6958 49.1299 50.5032 49.85 50.43C50.5683 50.5025 51.2686 50.6987 51.92 51.01C52.7623 51.3927 53.6669 51.6197 54.59 51.68C54.9055 51.6825 55.2193 51.6353 55.52 51.54C56.274 51.259 56.9257 50.7571 57.39 50.1C57.69 49.72 57.96 49.3 58.21 48.91C58.46 48.52 58.65 48.23 58.87 47.91C59.0448 47.6712 59.2499 47.456 59.48 47.27C59.8796 47.0246 60.3148 46.8424 60.77 46.73L61.44 46.55C62.0776 46.4192 62.7031 46.2352 63.31 46C63.8869 45.757 64.3902 45.3675 64.77 44.87C65.3941 43.7622 65.6167 42.4729 65.4 41.22C65.3237 40.5148 65.3643 39.8019 65.52 39.11C65.7981 38.495 66.1766 37.9306 66.64 37.44C67.578 36.5223 68.1653 35.3053 68.3 34C68.1459 32.7085 67.5487 31.5104 66.61 30.61ZM65.14 36.23C64.9 36.53 64.65 36.84 64.42 37.16C64.1078 37.5728 63.8615 38.0316 63.69 38.52C63.4564 39.4339 63.392 40.3829 63.5 41.32C63.6574 42.1378 63.5668 42.984 63.24 43.75C62.9319 44.0868 62.5322 44.3266 62.09 44.44C61.7434 44.56 61.3734 44.67 60.98 44.77H60.8C60.1421 44.9211 59.5044 45.1494 58.9 45.45C58.7232 45.5321 58.5556 45.6326 58.4 45.75C58.2869 45.832 58.1799 45.9223 58.08 46.02C57.842 46.2535 57.6214 46.5042 57.42 46.77C57.14 47.12 56.89 47.49 56.64 47.87C56.3357 48.4271 55.9591 48.9415 55.52 49.4C55.3642 49.5646 55.1726 49.6912 54.96 49.77C54.1444 49.8405 53.3263 49.6664 52.61 49.27C51.7399 48.8716 50.8048 48.6345 49.85 48.57C48.8919 48.6333 47.9532 48.8705 47.08 49.27C46.3625 49.663 45.5454 49.8369 44.73 49.77C44.11 49.57 43.61 48.77 43.08 47.97C42.6795 47.2954 42.1957 46.6739 41.64 46.12C41.5401 46.0223 41.4332 45.932 41.32 45.85C41.1665 45.7348 41.0024 45.6344 40.83 45.55C40.2561 45.2669 39.6524 45.0489 39.03 44.9H38.93H38.74C37.9031 44.8021 37.1153 44.4535 36.48 43.9C36.3363 43.6561 36.2507 43.3823 36.23 43.1C36.1745 42.5581 36.1745 42.0119 36.23 41.47C36.3381 40.5329 36.2737 39.5839 36.04 38.67C35.6994 37.7643 35.1828 36.935 34.52 36.23C34.1448 35.8018 33.8101 35.3398 33.52 34.85C33.3731 34.5972 33.2906 34.3122 33.28 34.02C33.3187 33.6484 33.4608 33.295 33.69 33C33.9522 32.6174 34.236 32.2502 34.54 31.9C34.75 31.64 34.96 31.37 35.16 31.1C35.52 30.6545 35.8007 30.1505 35.99 29.61C36.2237 28.6961 36.2881 27.7471 36.18 26.81C36.1026 26.1857 36.1026 25.5543 36.18 24.93C36.2196 24.7333 36.2978 24.5463 36.41 24.38C37.0412 23.8262 37.826 23.4774 38.66 23.38C39.03 23.28 39.41 23.17 39.78 23.05H39.87C40.3592 22.9003 40.8215 22.6742 41.24 22.38C41.7215 21.9977 42.1283 21.5299 42.44 21C42.65 20.71 42.85 20.41 43.05 20.11C43.59 19.26 44.05 18.46 44.73 18.26C45.5456 18.1895 46.3638 18.3636 47.08 18.76C47.9538 19.1563 48.8925 19.3901 49.85 19.45C50.8042 19.3889 51.7394 19.1551 52.61 18.76C53.3263 18.3636 54.1444 18.1895 54.96 18.26C55.1726 18.3388 55.3642 18.4654 55.52 18.63C55.9326 19.0512 56.2919 19.5213 56.59 20.03C56.5931 20.0566 56.5931 20.0834 56.59 20.11C56.84 20.49 57.09 20.88 57.37 21.25C57.652 21.631 57.989 21.968 58.37 22.25C59.1602 22.7411 60.0353 23.0802 60.95 23.25C61.4765 23.373 61.9917 23.5403 62.49 23.75C62.7695 23.8608 63.0169 24.0396 63.21 24.27C63.5598 25.0398 63.6679 25.8975 63.52 26.73C63.412 27.6671 63.4764 28.6161 63.71 29.53C63.8834 30.0175 64.1295 30.4761 64.44 30.89C64.67 31.21 64.92 31.52 65.16 31.82C65.7857 32.4034 66.2184 33.164 66.4 34C66.2231 34.8566 65.7825 35.6364 65.14 36.23Z" fill="#E8A15B"/>
</g>
<defs>
<clipPath id="clip0_1321_11025">
<rect width="67.78" height="66.9" fill="white" transform="translate(0.52002 1)"/>
</clipPath>
</defs>
</svg>
