<svg width="68" height="68" viewBox="0 0 68 68" fill="none" xmlns="http://www.w3.org/2000/svg">
<g clip-path="url(#clip0_1321_10962)">
<path d="M31 7.37L29.76 5.9L28.88 4.9L28.1 4L27.22 3L25.31 0.820001C25.0863 0.562257 24.8098 0.355635 24.4992 0.214153C24.1886 0.0726699 23.8513 -0.000365171 23.51 1.37288e-06H8.78C8.45675 0.00102023 8.137 0.0670592 7.8398 0.194188C7.54259 0.321317 7.27399 0.506937 7.05 0.740001L0.669999 7.37C0.250248 7.81687 0.0165863 8.40691 0.0165863 9.02C0.0165863 9.63309 0.250248 10.2231 0.669999 10.67L6.87 17.32L8.77 19.37L14.41 25.43C14.6361 25.6699 14.9089 25.861 15.2115 25.9917C15.5142 26.1224 15.8403 26.1899 16.17 26.19C16.5038 26.186 16.8329 26.1117 17.1362 25.9722C17.4394 25.8327 17.7098 25.6309 17.93 25.38L22.81 19.85L24.49 18L31 10.53C31.3826 10.0926 31.5935 9.53115 31.5935 8.95C31.5935 8.36885 31.3826 7.80745 31 7.37ZM21.25 1.9L20.13 2.77C19.9423 2.91908 19.7097 3.00016 19.47 3H12.88C12.6348 3.00487 12.3963 2.91946 12.21 2.76L11.13 1.9H21.25ZM21.79 11H11.35L12.5 5.9L12.73 4.9H19.51L19.88 5.9L21.79 11ZM8.37 2.11L10.86 4.11L10.94 4.17L10.47 6.27L9.47 10.63L8.72 10.36L6.82 9.68L2.55 8.15L8.37 2.11ZM8.74 16.58L6.84 14.58L2.89 10.29L6.89 11.71L8.79 12.39L9.49 12.64L13.78 21.94L8.74 16.58ZM18 19.5L16.21 22.83L11.65 12.9H21.57L18.86 17.9L18 19.5ZM22 18L20.32 19.9L19.58 20.74L20.03 19.9L21 18L23.78 12.84C24.0372 12.7892 24.2885 12.7121 24.53 12.61L28 11.1L22 18ZM23.84 10.86L21.91 5.9L21.3 4.27L21.64 4L24 2.18L25.57 4L27.23 5.9L29.45 8.43L23.84 10.86Z" fill="#E8A15B"/>
<path d="M54.79 18.9C54.7779 18.6519 54.6739 18.4173 54.4983 18.2417C54.3227 18.0661 54.088 17.9621 53.84 17.95H26.49L24.81 19.85H53.81C54.0633 19.8452 54.3054 19.7445 54.4873 19.5681C54.6692 19.3918 54.7774 19.153 54.79 18.9Z" fill="#637EA8"/>
<path d="M20.74 29.85H53.84C54.0401 29.7842 54.2143 29.6569 54.3378 29.4864C54.4613 29.3158 54.5277 29.1105 54.5277 28.9C54.5277 28.6894 54.4613 28.4841 54.3378 28.3135C54.2143 28.143 54.0401 28.0157 53.84 27.95H20.74C20.5399 28.0157 20.3657 28.143 20.2422 28.3135C20.1187 28.4841 20.0522 28.6894 20.0522 28.9C20.0522 29.1105 20.1187 29.3158 20.2422 29.4864C20.3657 29.6569 20.5399 29.7842 20.74 29.85Z" fill="#637EA8"/>
<path d="M20.74 39.8499H53.84C54.092 39.8499 54.3336 39.7499 54.5117 39.5717C54.6899 39.3935 54.79 39.1519 54.79 38.9C54.79 38.648 54.6899 38.4064 54.5117 38.2282C54.3336 38.05 54.092 37.95 53.84 37.95H20.74C20.5399 38.0157 20.3657 38.143 20.2422 38.3135C20.1187 38.4841 20.0522 38.6894 20.0522 38.9C20.0522 39.1106 20.1187 39.3158 20.2422 39.4864C20.3657 39.6569 20.5399 39.7842 20.74 39.8499Z" fill="#637EA8"/>
<path d="M20.74 48C20.6152 48 20.4917 48.0246 20.3764 48.0723C20.2612 48.1201 20.1565 48.19 20.0682 48.2782C19.98 48.3665 19.9101 48.4712 19.8623 48.5865C19.8146 48.7017 19.79 48.8252 19.79 48.95C19.79 49.0748 19.8146 49.1983 19.8623 49.3135C19.9101 49.4288 19.98 49.5335 20.0682 49.6217C20.1565 49.71 20.2612 49.7799 20.3764 49.8277C20.4917 49.8754 20.6152 49.9 20.74 49.9H48.9L50.9 48H20.74Z" fill="#637EA8"/>
<path d="M67.22 43.84L63.71 40.33C63.5788 40.2001 63.4224 40.0984 63.2504 40.0314C63.0784 39.9643 62.8945 39.9332 62.71 39.94C62.3704 39.9417 62.0444 40.0742 61.8 40.31L60.8 41.25L54.8 46.95L52.8 48.85L42.08 59.19C41.9056 59.3638 41.7812 59.5815 41.72 59.82L40.88 63L40.62 64L40.38 64.9L40.25 65.39C40.2201 65.5587 40.2201 65.7313 40.25 65.9C40.2881 66.2024 40.4252 66.4837 40.64 66.7C40.8901 66.9407 41.2229 67.0767 41.57 67.08C41.7023 67.0797 41.8337 67.0594 41.96 67.02L47.36 65.39C47.5745 65.324 47.77 65.2074 47.93 65.05L48.08 64.9L50 63L60.84 52.12L62.74 50.22L67.22 45.74C67.4704 45.4872 67.6108 45.1458 67.6108 44.79C67.6108 44.4342 67.4704 44.0928 67.22 43.84ZM43.75 64.49L42.38 64.9L42.61 64L42.88 63L43.19 61.79L44.37 63L45.37 64L43.75 64.49ZM62.75 47.49L60.85 49.39L47.27 63L47.17 63.11L47.06 63L44.06 60L55.64 48.85L57.64 46.95L60.85 43.88L62.75 42.06L65.48 44.79L62.75 47.49Z" fill="#E8A15B"/>
<path d="M61.84 60.79C61.84 61.6413 61.5018 62.4578 60.8998 63.0598C60.2978 63.6618 59.4813 64 58.63 64H51L49.1 65.9H58.67C60.0253 65.9 61.325 65.3616 62.2833 64.4033C63.2416 63.445 63.78 62.1452 63.78 60.79V51.22L61.88 53.12L61.84 60.79Z" fill="#3F496A"/>
<path d="M38.25 65.3899L38.38 64.8999L38.62 63.9999H12C11.1487 63.9999 10.3322 63.6618 9.73019 63.0598C9.1282 62.4578 8.79 61.6413 8.79 60.7899V22.3699L6.89 20.3199V60.7899C6.89 62.1452 7.42837 63.445 8.38668 64.4033C9.34499 65.3616 10.6447 65.8999 12 65.8999H38.23C38.2067 65.7301 38.2134 65.5575 38.25 65.3899Z" fill="#3F496A"/>
<path d="M63.74 9.11C63.74 7.75474 63.2016 6.455 62.2433 5.49668C61.285 4.53837 59.9853 4 58.63 4H30.22L31.1 5L31.88 5.9H58.63C59.4813 5.9 60.2978 6.2382 60.8998 6.84019C61.5018 7.44218 61.84 8.25865 61.84 9.11V38.29L63.74 36.52V9.11Z" fill="#3F496A"/>
</g>
<defs>
<clipPath id="clip0_1321_10962">
<rect width="67.61" height="67.08" fill="white"/>
</clipPath>
</defs>
</svg>
