<svg width="69" height="69" viewBox="0 0 69 69" fill="none" xmlns="http://www.w3.org/2000/svg">
<path d="M27.136 20.416C26.65 20.416 26.293 20.78 26.293 21.245C26.293 21.702 26.671 22.073 27.136 22.073C27.593 22.073 27.964 21.702 27.964 21.245C27.964 20.788 27.592 20.416 27.136 20.416Z" fill="#637EA8"/>
<path d="M16.8782 61.354C16.3922 61.354 16.0352 61.718 16.0352 62.183C16.0352 62.64 16.4132 63.011 16.8782 63.011C17.3352 63.011 17.7062 62.64 17.7062 62.183C17.7062 61.726 17.3342 61.354 16.8782 61.354Z" fill="black"/>
<path d="M16.8782 63.011C16.4132 63.011 16.0352 62.64 16.0352 62.183C16.0352 61.718 16.3922 61.354 16.8782 61.354C17.3352 61.354 17.7062 61.726 17.7062 62.183C17.7062 62.64 17.3342 63.011 16.8782 63.011Z" fill="#637EA8"/>
<path d="M43.1282 63.011C42.6632 63.011 42.2852 62.64 42.2852 62.183C42.2852 61.718 42.6422 61.354 43.1282 61.354C43.5852 61.354 43.9562 61.726 43.9562 62.183C43.9562 62.64 43.5852 63.011 43.1282 63.011Z" fill="#637EA8"/>
<path d="M19.786 20.416H13.953C13.496 20.416 13.125 20.788 13.125 21.245C13.125 21.702 13.497 22.073 13.953 22.073H19.786C20.243 22.073 20.615 21.702 20.615 21.245C20.615 20.788 20.243 20.416 19.786 20.416Z" fill="#3F496A"/>
<path d="M62.078 0H24.162C20.489 0 17.5 2.988 17.5 6.661V9.578C17.5 10.035 17.872 10.406 18.328 10.406C18.785 10.406 19.157 10.035 19.157 9.578V6.661C19.157 3.901 21.402 1.656 24.162 1.656H62.079C64.839 1.656 67.084 3.901 67.084 6.661V62.078C67.084 64.838 64.839 67.083 62.079 67.083H37.287C36.83 67.083 36.458 67.454 36.458 67.911C36.458 68.368 36.83 68.74 37.287 68.74H62.079C65.752 68.74 68.741 65.752 68.741 62.078V6.661C68.74 2.989 65.751 0 62.078 0Z" fill="black"/>
<path d="M68.74 62.078C68.74 65.752 65.751 68.74 62.078 68.74H37.287C36.83 68.74 36.458 68.368 36.458 67.911C36.458 67.454 36.83 67.083 37.287 67.083H62.079C64.839 67.083 67.084 64.838 67.084 62.078V6.661C67.084 3.901 64.839 1.656 62.079 1.656H24.162C21.402 1.656 19.157 3.901 19.157 6.661V9.578C19.157 10.035 18.785 10.406 18.328 10.406C17.871 10.406 17.5 10.035 17.5 9.578V6.661C17.5 2.988 20.488 0 24.162 0H62.079C65.752 0 68.741 2.988 68.741 6.661V62.078H68.74Z" fill="#3F496A"/>
<path d="M27.078 14.583H6.662C2.988 14.583 0 17.572 0 21.245V62.078C0 65.752 2.988 68.74 6.662 68.74H27.079C30.752 68.74 33.741 65.752 33.741 62.078V21.245C33.74 17.572 30.751 14.583 27.078 14.583ZM32.083 62.078C32.083 64.838 29.838 67.083 27.078 67.083H6.662C3.902 67.083 1.657 64.838 1.657 62.078V57.703C1.657 57.355 1.939 57.073 2.287 57.073H31.454C31.802 57.073 32.084 57.355 32.084 57.703V62.078H32.083ZM32.083 54.786C32.083 55.134 31.801 55.416 31.453 55.416H2.287C1.939 55.416 1.657 55.134 1.657 54.786V21.245C1.657 18.485 3.902 16.24 6.662 16.24H27.079C29.839 16.24 32.084 18.485 32.084 21.245V54.786H32.083Z" fill="#E8A15B"/>
<path d="M62.906 56.245V6.66101C62.906 6.20401 62.534 5.83301 62.077 5.83301H24.161C23.704 5.83301 23.332 6.20401 23.332 6.66101V9.57801C23.332 10.035 23.704 10.406 24.161 10.406C24.618 10.406 24.99 10.035 24.99 9.57801V8.12001C24.99 7.77201 25.272 7.49001 25.62 7.49001H60.62C60.968 7.49001 61.25 7.77201 61.25 8.12001V54.786C61.25 55.134 60.968 55.416 60.62 55.416H38.744C38.287 55.416 37.915 55.788 37.915 56.245C37.915 56.702 38.287 57.073 38.744 57.073H62.077C62.534 57.074 62.906 56.702 62.906 56.245Z" fill="black"/>
<path d="M38.745 57.074C38.288 57.074 37.916 56.703 37.916 56.246C37.916 55.789 38.288 55.417 38.745 55.417H60.62C60.968 55.417 61.25 55.135 61.25 54.787V8.12001C61.25 7.77201 60.968 7.49001 60.62 7.49001H25.62C25.272 7.49001 24.99 7.77201 24.99 8.12001V9.57801C24.99 10.035 24.618 10.406 24.161 10.406C23.704 10.406 23.332 10.035 23.332 9.57801V6.66101C23.332 6.20401 23.704 5.83301 24.161 5.83301H62.078C62.535 5.83301 62.907 6.20401 62.907 6.66101V56.245C62.907 56.702 62.535 57.073 62.078 57.073H38.745V57.074Z" fill="#637EA8"/>
</svg>
