<svg width="68" height="68" viewBox="0 0 68 68" fill="none" xmlns="http://www.w3.org/2000/svg">
<g clip-path="url(#clip0_1321_11057)">
<path d="M22.5047 25.0413H46.1877C46.3928 24.9738 46.5714 24.8432 46.698 24.6682C46.8246 24.4932 46.8928 24.2826 46.8928 24.0665C46.8928 23.8504 46.8246 23.6398 46.698 23.4647C46.5714 23.2897 46.3928 23.1591 46.1877 23.0916H22.5047C22.3768 23.0916 22.2502 23.1169 22.132 23.1658C22.0138 23.2148 21.9065 23.2866 21.816 23.3772C21.7256 23.4677 21.6538 23.5751 21.6049 23.6934C21.5559 23.8117 21.5307 23.9385 21.5307 24.0665C21.5307 24.1945 21.5559 24.3212 21.6049 24.4395C21.6538 24.5578 21.7256 24.6653 21.816 24.7558C21.9065 24.8463 22.0138 24.9181 22.132 24.9671C22.2502 25.0161 22.3768 25.0413 22.5047 25.0413Z" fill="#637EA8"/>
<path d="M22.5047 32.9015H46.1877C46.3156 32.9015 46.4422 32.8762 46.5604 32.8273C46.6786 32.7783 46.7859 32.7065 46.8764 32.6159C46.9668 32.5254 47.0386 32.418 47.0875 32.2997C47.1365 32.1814 47.1617 32.0547 47.1617 31.9266C47.1617 31.7986 47.1365 31.6719 47.0875 31.5536C47.0386 31.4353 46.9668 31.3279 46.8764 31.2373C46.7859 31.1468 46.6786 31.075 46.5604 31.026C46.4422 30.977 46.3156 30.9518 46.1877 30.9518H22.5047C22.3768 30.9518 22.2502 30.977 22.132 31.026C22.0138 31.075 21.9065 31.1468 21.816 31.2373C21.7256 31.3279 21.6538 31.4353 21.6049 31.5536C21.5559 31.6719 21.5307 31.7986 21.5307 31.9266C21.5307 32.0547 21.5559 32.1814 21.6049 32.2997C21.6538 32.418 21.7256 32.5254 21.816 32.6159C21.9065 32.7065 22.0138 32.7783 22.132 32.8273C22.2502 32.8762 22.3768 32.9015 22.5047 32.9015Z" fill="#637EA8"/>
<path d="M32.7571 40.7719H46.2185C46.4768 40.7719 46.7245 40.6691 46.9072 40.4863C47.0898 40.3035 47.1924 40.0556 47.1924 39.797C47.1924 39.5385 47.0898 39.2905 46.9072 39.1077C46.7245 38.9249 46.4768 38.8222 46.2185 38.8222H31.0142C31.6492 39.4216 32.2322 40.0738 32.7571 40.7719Z" fill="#637EA8"/>
<path d="M46.2185 48.6423C46.4768 48.6423 46.7245 48.5396 46.9072 48.3567C47.0898 48.1739 47.1924 47.926 47.1924 47.6674C47.1924 47.4089 47.0898 47.161 46.9072 46.9781C46.7245 46.7953 46.4768 46.6926 46.2185 46.6926H35.392C35.5265 47.3358 35.6189 47.9871 35.6688 48.6423H46.2185Z" fill="#637EA8"/>
<path d="M61.761 3.00001H28.5126C27.235 3.00366 26.0029 3.4754 25.049 4.32613C24.0951 5.17686 23.4855 6.34772 23.3352 7.61759H22.8738C21.5063 7.62256 20.1946 8.16152 19.2181 9.11976C18.2415 10.078 17.6772 11.3799 17.6451 12.7482C16.2779 12.7803 14.9772 13.3452 14.0198 14.3226C13.0624 15.3 12.5239 16.6127 12.5189 17.9815V32.2447C13.1551 32.027 13.8061 31.8555 14.4669 31.7317V17.9918C14.469 17.1392 14.8014 16.3206 15.3941 15.7082C15.9869 15.0959 16.7938 14.7374 17.6451 14.7082H50.9961C51.8671 14.7081 52.7027 15.0538 53.3195 15.6693C53.9364 16.2848 54.2844 17.12 54.2871 17.9918V55.0659C54.2871 55.0659 54.2871 55.1479 54.2871 55.189C54.2554 56.0403 53.8964 56.8464 53.2851 57.4391C52.6738 58.0318 51.8574 58.3653 51.0063 58.37H33.1569C32.687 59.058 32.1661 59.7097 31.5986 60.3196H50.9961C52.3636 60.3147 53.6753 59.7757 54.6518 58.8175C55.6284 57.8592 56.1927 56.5574 56.2248 55.189C57.4913 55.1711 58.7085 54.6944 59.651 53.8474C60.5935 53.0003 61.1974 51.8401 61.3509 50.5817H61.8123C63.2027 50.5789 64.5352 50.0242 65.5174 49.0392C66.4996 48.0543 67.0513 46.7195 67.0513 45.3279V8.24353C67.0513 7.5506 66.9141 6.86454 66.6476 6.225C66.3811 5.58546 65.9907 5.00512 65.4987 4.51754C65.0068 4.02996 64.4232 3.6448 63.7817 3.38432C63.1401 3.12385 62.4533 2.99323 61.761 3.00001ZM59.4132 48.6218V49.9352C59.4137 50.7886 59.0821 51.6086 58.4889 52.2215C57.8956 52.8345 57.0872 53.1922 56.235 53.2188V17.9918C56.235 16.6011 55.6831 15.2674 54.7006 14.284C53.7181 13.3007 52.3855 12.7482 50.9961 12.7482H19.5931C19.6223 11.8961 19.9804 11.0886 20.5923 10.4953C21.2041 9.90207 22.022 9.5694 22.8738 9.56724H56.1222C56.9951 9.56724 57.8322 9.91427 58.4493 10.532C59.0665 11.1497 59.4132 11.9875 59.4132 12.8611V48.6218ZM65.0521 45.3176C65.0521 46.1922 64.7057 47.031 64.0888 47.6504C63.4719 48.2697 62.6348 48.619 61.761 48.6218H61.3612V12.8611C61.3612 11.4704 60.8092 10.1367 59.8267 9.15339C58.8443 8.17003 57.5117 7.61759 56.1222 7.61759H25.2831C25.4301 6.86771 25.8323 6.192 26.4212 5.70555C27.01 5.2191 27.7491 4.95197 28.5126 4.94965H61.761C62.6339 4.94965 63.471 5.29669 64.0881 5.91441C64.7053 6.53213 65.0521 7.36994 65.0521 8.24353V45.3176Z" fill="#3F496A"/>
<path d="M32.5931 48.6423C32.3893 45.7952 31.3793 43.0652 29.6814 40.7719C28.2637 38.8386 26.4113 37.2664 24.274 36.1826C22.1367 35.0987 19.7745 34.5336 17.3785 34.533C16.4152 34.5363 15.4542 34.629 14.5079 34.81C13.8471 34.9339 13.1961 35.1053 12.5599 35.3231C10.3328 36.0453 8.30063 37.2689 6.61968 38.8999C4.93872 40.5309 3.65368 42.5258 2.86328 44.7314C2.07288 46.9371 1.79816 49.2947 2.06022 51.6232C2.32228 53.9516 3.11415 56.189 4.37499 58.1634C5.63583 60.1377 7.33208 61.7965 9.33343 63.0123C11.3348 64.2282 13.588 64.9686 15.9199 65.1769C18.2518 65.3851 20.6003 65.0555 22.7851 64.2135C24.9699 63.3715 26.9327 62.0394 28.5229 60.3196C29.0887 59.7229 29.6096 59.0849 30.0812 58.411C31.7592 55.8958 32.6547 52.9391 32.6546 49.9147C32.6546 49.4529 32.6238 49.0425 32.5931 48.6423ZM27.6309 58.411C27.0338 59.1215 26.3713 59.7743 25.6522 60.3607C24.1421 61.5022 22.4064 62.3087 20.5607 62.7266C18.7149 63.1446 16.8014 63.1643 14.9474 62.7845C13.0935 62.4048 11.3415 61.6342 9.80824 60.5241C8.27494 59.414 6.99541 57.9898 6.05478 56.3463C5.11415 54.7028 4.53399 52.8777 4.35289 50.9923C4.17179 49.107 4.3939 47.2046 5.00446 45.4119C5.61501 43.6191 6.60001 41.977 7.89391 40.5949C9.18781 39.2127 10.761 38.1222 12.5087 37.3959C12.6522 37.3343 12.806 37.2933 12.9495 37.242C13.4423 37.0639 13.9456 36.9165 14.4566 36.8007C16.2407 36.4103 18.0859 36.391 19.8778 36.744C21.6696 37.0971 23.3699 37.8149 24.873 38.853C25.6906 39.4185 26.4436 40.0723 27.1183 40.8026C28.669 42.4713 29.7667 44.5096 30.3068 46.7234C30.4668 47.3642 30.5799 48.0158 30.6451 48.6731C30.6866 49.0822 30.7071 49.4932 30.7066 49.9044C30.7026 53.012 29.6148 56.0206 27.6309 58.411Z" fill="#E8A15B"/>
<path d="M23.3642 45.0365C23.7446 44.6558 23.7446 44.0386 23.3642 43.6579C22.9839 43.2772 22.3672 43.2772 21.9868 43.6579L15.3897 50.2607C15.0094 50.6414 15.0094 51.2587 15.3897 51.6394C15.7701 52.02 16.3868 52.02 16.7671 51.6394L23.3642 45.0365Z" fill="#3F496A"/>
<path d="M16.3021 49.9762C15.7641 49.9762 15.3281 50.4127 15.3281 50.9511C15.3281 51.4895 15.7641 51.9259 16.3021 51.9259H22.556C23.0939 51.9259 23.53 51.4895 23.53 50.9511C23.53 50.4127 23.0939 49.9762 22.556 49.9762H16.3021Z" fill="#3F496A"/>
<path d="M6.73659 48.8475H5.26025C5.13002 48.8475 5.02444 48.9532 5.02444 49.0835V50.5611C5.02444 50.6915 5.13002 50.7972 5.26025 50.7972H6.73659C6.86682 50.7972 6.97239 50.6915 6.97239 50.5611V49.0835C6.97239 48.9532 6.86682 48.8475 6.73659 48.8475Z" fill="#3F496A"/>
<path d="M29.2918 48.8475H27.8155C27.6852 48.8475 27.5797 48.9532 27.5797 49.0835V50.5611C27.5797 50.6915 27.6852 50.7972 27.8155 50.7972H29.2918C29.422 50.7972 29.5276 50.6915 29.5276 50.5611V49.0835C29.5276 48.9532 29.422 48.8475 29.2918 48.8475Z" fill="#3F496A"/>
<path d="M18.0142 60.1349H16.5379C16.4076 60.1349 16.302 60.2406 16.302 60.371V61.8486C16.302 61.9789 16.4076 62.0846 16.5379 62.0846H18.0142C18.1444 62.0846 18.25 61.9789 18.25 61.8486V60.371C18.25 60.2406 18.1444 60.1349 18.0142 60.1349Z" fill="#3F496A"/>
<path d="M18.0142 37.5601H16.5379C16.4076 37.5601 16.302 37.6657 16.302 37.7961V39.2737C16.302 39.404 16.4076 39.5097 16.5379 39.5097H18.0142C18.1444 39.5097 18.25 39.404 18.25 39.2737V37.7961C18.25 37.6657 18.1444 37.5601 18.0142 37.5601Z" fill="#3F496A"/>
</g>
<defs>
<clipPath id="clip0_1321_11057">
<rect width="65" height="62.2143" fill="white" transform="translate(2 3)"/>
</clipPath>
</defs>
</svg>
