<svg width="68" height="68" viewBox="0 0 68 68" fill="none" xmlns="http://www.w3.org/2000/svg">
<g clip-path="url(#clip0_1321_10995)">
<path d="M19.26 15.85H52.39C52.5987 15.8012 52.7847 15.6832 52.9179 15.5153C53.0511 15.3473 53.1235 15.1393 53.1235 14.925C53.1235 14.7107 53.0511 14.5027 52.9179 14.3347C52.7847 14.1668 52.5987 14.0488 52.39 14H19.26C19.0081 14 18.7664 14.1001 18.5883 14.2782C18.4101 14.4564 18.31 14.698 18.31 14.95C18.31 15.202 18.4101 15.4436 18.5883 15.6218C18.7664 15.7999 19.0081 15.9 19.26 15.9V15.85Z" fill="#637EA8"/>
<path d="M53.31 24.9C53.2871 24.6657 53.1823 24.447 53.014 24.2823C52.8458 24.1177 52.6248 24.0177 52.39 24H30.39C31.1125 24.5719 31.7819 25.2078 32.39 25.9H52.39C52.6411 25.8798 52.8754 25.7657 53.046 25.5803C53.2165 25.3949 53.3108 25.1519 53.31 24.9Z" fill="#637EA8"/>
<path d="M36.29 35.85H52.39C52.5734 35.7747 52.7303 35.6465 52.8407 35.4818C52.9511 35.3171 53.0101 35.1233 53.0101 34.925C53.0101 34.7267 52.9511 34.5329 52.8407 34.3682C52.7303 34.2035 52.5734 34.0753 52.39 34H36.16C36.2435 34.6098 36.2869 35.2245 36.29 35.84V35.85Z" fill="#637EA8"/>
<path d="M34.09 45.85H52.39C52.5734 45.7747 52.7303 45.6465 52.8407 45.4818C52.9511 45.3171 53.0101 45.1233 53.0101 44.925C53.0101 44.7267 52.9511 44.5329 52.8407 44.3682C52.7303 44.2035 52.5734 44.0753 52.39 44H33.85C33.64 44.33 33.4 44.65 33.16 45L34.09 45.85Z" fill="#637EA8"/>
<path d="M30.13 34C29.8729 32.3665 29.2809 30.8038 28.3912 29.4099C27.5015 28.0161 26.3334 26.8211 24.96 25.9C23.6925 25.0528 22.2731 24.4586 20.78 24.15C20.48 24.08 20.16 24.04 19.85 24C19.3669 23.9184 18.8794 23.865 18.39 23.84C17.8849 23.8461 17.3807 23.8828 16.88 23.95C16.5032 23.9955 16.1293 24.0623 15.76 24.15C14.1537 24.5 12.6381 25.1812 11.31 26.15C10.6048 26.6727 9.96072 27.2731 9.39002 27.94C8.98382 28.4027 8.61594 28.8977 8.29002 29.42C7.0689 31.322 6.41974 33.5348 6.41974 35.795C6.41974 38.0553 7.0689 40.268 8.29002 42.17C8.61594 42.6924 8.98382 43.1873 9.39002 43.65C9.95931 44.2993 10.5962 44.8859 11.29 45.4C13.2293 46.8393 15.5611 47.6534 17.9748 47.7338C20.3884 47.8142 22.7693 47.1571 24.8 45.85C25.621 45.3251 26.3763 44.7041 27.05 44C29.1147 41.8064 30.2723 38.9124 30.29 35.9V35.84C30.2873 35.2233 30.2337 34.6079 30.13 34ZM28.39 35.85C28.3706 38.1105 27.592 40.2988 26.1792 42.0634C24.7664 43.828 22.8014 45.0666 20.6 45.58C19.8592 45.7532 19.1008 45.8404 18.34 45.84C17.3755 45.8377 16.4161 45.6997 15.49 45.43C13.893 44.9586 12.4391 44.0958 11.26 42.92C10.4994 42.1458 9.86805 41.2544 9.39002 40.28C8.68127 38.8859 8.31185 37.344 8.31185 35.78C8.31185 34.2161 8.68127 32.6742 9.39002 31.28C10.1155 29.8191 11.1872 28.5579 12.5119 27.6062C13.8366 26.6545 15.374 26.0413 16.99 25.82C17.4544 25.762 17.9221 25.7352 18.39 25.74C18.8553 25.7461 19.3196 25.7828 19.78 25.85C22.1656 26.2058 24.3452 27.4036 25.9244 29.2268C27.5036 31.0499 28.3782 33.378 28.39 35.79V35.85Z" fill="#637EA8"/>
<path d="M48.67 61L48.58 60.91L46.67 59L35.76 48.08C35.4287 47.7547 34.9861 47.5675 34.5219 47.5564C34.0577 47.5453 33.6066 47.711 33.26 48.02L31.09 45.85L30.16 44.92C30.4 44.6 30.64 44.28 30.85 43.92C32.4341 41.5149 33.2821 38.6999 33.29 35.82V35.76C33.2835 35.1712 33.2401 34.5834 33.16 34C32.7878 30.9861 31.4998 28.1589 29.47 25.9C28.8366 25.2041 28.1403 24.5681 27.39 24C25.1216 22.2368 22.3907 21.169 19.5279 20.9258C16.6652 20.6827 13.7933 21.2746 11.26 22.63C10.6068 22.9965 9.98178 23.411 9.39002 23.87C9.00786 24.1612 8.64072 24.4716 8.29002 24.8C7.59457 25.4485 6.95869 26.158 6.39002 26.92C4.46257 29.4755 3.41995 32.5892 3.41995 35.79C3.41995 38.9909 4.46257 42.1046 6.39002 44.66C6.956 45.4274 7.59207 46.1404 8.29002 46.79C8.64072 47.1184 9.00786 47.4288 9.39002 47.72C9.98294 48.1895 10.6078 48.6172 11.26 49C13.7654 50.3445 16.6032 50.944 19.4383 50.7278C22.2734 50.5117 24.9874 49.4888 27.26 47.78L30.39 50.85L30.15 51.09C29.8093 51.4329 29.618 51.8966 29.618 52.38C29.618 52.8634 29.8093 53.3272 30.15 53.67L34.5 58L35.5 59L36.4 59.9L37.4 60.9L37.5 61L39.39 62.9L43.06 66.57C43.2293 66.7415 43.431 66.8776 43.6533 66.9705C43.8756 67.0634 44.1141 67.1112 44.355 67.1112C44.596 67.1112 44.8345 67.0634 45.0568 66.9705C45.2791 66.8776 45.4807 66.7415 45.65 66.57L48.65 63.57C48.8369 63.3798 48.9802 63.1512 49.07 62.9C49.1895 62.5779 49.2153 62.2285 49.1446 61.8922C49.0738 61.556 48.9092 61.2467 48.67 61ZM26.67 45.85C24.5352 47.6207 21.8901 48.6622 19.1212 48.8223C16.3522 48.9825 13.6047 48.2528 11.28 46.74C10.6055 46.2988 9.9729 45.7967 9.39002 45.24C8.98581 44.8527 8.60829 44.4384 8.26002 44C8.00002 43.68 7.75002 43.34 7.52002 43C7.08006 42.35 6.70175 41.6604 6.39002 40.94C5.68397 39.3166 5.3196 37.5653 5.3196 35.795C5.3196 34.0247 5.68397 32.2734 6.39002 30.65C6.70907 29.9148 7.09749 29.2116 7.55002 28.55C7.78002 28.21 8.03002 27.87 8.29002 27.55C8.63003 27.1264 8.99749 26.7255 9.39002 26.35C9.9735 25.7899 10.6098 25.2876 11.29 24.85C13.1301 23.6588 15.2431 22.9557 17.43 22.807C19.6169 22.6583 21.8057 23.0689 23.79 24C24.8709 24.4957 25.8799 25.1348 26.79 25.9C29.2154 27.9638 30.7989 30.8461 31.24 34C31.333 34.5923 31.3832 35.1905 31.39 35.79V35.85C31.3877 38.8157 30.3715 41.6914 28.51 44C27.9496 44.6739 27.3269 45.2933 26.65 45.85H26.67ZM28.77 46.5L28.93 46.36L31.93 49.36L31.77 49.52L28.77 46.5ZM46.64 62.9L44.39 65.18L42.09 62.9L40.19 61L40.09 60.9L39.09 59.9L38.19 59L37.19 58L31.57 52.38L34.47 49.48L43.99 59L45.89 60.9L45.99 61L47.26 62.28L46.64 62.9Z" fill="#E8A15B"/>
<path d="M35.5 61H12.5C11.6487 61 10.8322 60.6618 10.2302 60.0598C9.62821 59.4578 9.29001 58.6413 9.29001 57.79V49.79C8.59207 49.1404 7.956 48.4273 7.39001 47.66V57.79C7.38999 59.14 7.92424 60.4353 8.87608 61.3927C9.82791 62.3502 11.12 62.892 12.47 62.9H37.39L36.49 62L35.5 61Z" fill="#3F496A"/>
<path d="M59.15 1H12.47C11.12 1.00793 9.82791 1.5498 8.87608 2.50725C7.92424 3.4647 7.38999 4.75993 7.39001 6.11V23.92C7.95868 23.1579 8.59457 22.4484 9.29001 21.8V6.11C9.28998 5.26383 9.62405 4.45187 10.2196 3.85073C10.8151 3.24959 11.6239 2.90791 12.47 2.9H59.15C59.5741 2.89604 59.9947 2.97614 60.3876 3.13568C60.7806 3.29522 61.138 3.53104 61.4392 3.82951C61.7405 4.12799 61.9796 4.48319 62.1428 4.87462C62.306 5.26604 62.39 5.68592 62.39 6.11V57.79C62.39 58.2141 62.306 58.634 62.1428 59.0254C61.9796 59.4168 61.7405 59.772 61.4392 60.0705C61.138 60.369 60.7806 60.6048 60.3876 60.7643C59.9947 60.9239 59.5741 61.004 59.15 61H49.73L51.63 62.9H59.15C60.5045 62.8974 61.8027 62.3581 62.7604 61.4004C63.7181 60.4427 64.2574 59.1444 64.26 57.79V6.11C64.2574 4.75556 63.7181 3.45734 62.7604 2.4996C61.8027 1.54186 60.5045 1.00264 59.15 1V1Z" fill="#3F496A"/>
</g>
<defs>
<clipPath id="clip0_1321_10995">
<rect width="60.87" height="66.11" fill="white" transform="translate(3.39001 1)"/>
</clipPath>
</defs>
</svg>
