<svg width="70" height="70" viewBox="0 0 70 70" fill="none" xmlns="http://www.w3.org/2000/svg">
<path d="M63.816 0H5.483C2.463 0.004 0.003 2.464 0 5.484V63.817C0.003 66.837 2.463 69.296 5.484 69.3H63.817C66.838 69.296 69.297 66.836 69.3 63.817V5.484C69.297 2.464 66.837 0.004 63.816 0ZM67.667 9.333H67.609V10.967H67.666V63.817C67.666 65.94 65.939 67.667 63.816 67.667H5.483C3.36 67.667 1.632 65.94 1.632 63.817V10.967H1.672V9.333H1.633V5.484C1.633 3.361 3.361 1.633 5.484 1.633H63.817C65.94 1.633 67.667 3.361 67.667 5.484V9.333Z" fill="#3F496A"/>
<path d="M7.46503 4.66699H5.83203V6.30099H7.46503V4.66699Z" fill="#E8A15B"/>
<path d="M12.133 4.66699H10.5V6.30099H12.133V4.66699Z" fill="#E8A15B"/>
<path d="M16.799 4.66699H15.166V6.30099H16.799V4.66699Z" fill="#E8A15B"/>
<path d="M34.649 16.334C21.976 16.334 11.666 26.645 11.666 39.318C11.666 51.99 21.976 62.301 34.649 62.301C47.323 62.301 57.633 51.99 57.633 39.318C57.618 26.659 47.308 16.348 34.649 16.334ZM52.706 27.949L52.683 27.962L53.51 29.37L53.518 29.365L53.584 29.495L53.599 29.521L53.597 29.522L53.685 29.695C55.023 32.338 55.781 35.175 55.939 38.13L55.959 38.498H55.921V40.132H55.961L55.94 40.501C55.309 51.79 45.958 60.647 34.651 60.666C23.343 60.647 13.992 51.791 13.36 40.503L13.339 40.134H13.391V38.5H13.34L13.36 38.132C13.519 35.175 14.277 32.337 15.614 29.697L15.781 29.367L15.798 29.377L16.624 27.97L16.592 27.951L16.796 27.64C18.42 25.166 20.498 23.088 22.971 21.464L23.245 21.285L23.225 21.245L24.725 20.495L24.698 20.449L25.028 20.282C27.671 18.944 30.508 18.186 33.463 18.028L33.589 18.021H33.592L33.832 18.008V18.024L35.467 18.046V18.007L35.835 18.027C38.791 18.185 41.629 18.943 44.27 20.281L44.6 20.448L44.576 20.49L46.087 21.246L46.064 21.292L46.327 21.464C48.8 23.086 50.877 25.163 52.503 27.639L52.706 27.949Z" fill="#637EA8"/>
<path d="M36.2235 36.591L35.9985 36.482C35.5795 36.279 35.1125 36.169 34.6485 36.167C32.8825 36.167 31.4575 37.582 31.4415 39.32C31.4345 40.17 31.7585 40.97 32.3535 41.576C32.9495 42.181 33.7445 42.518 34.5935 42.526L34.6205 42.525C36.3595 42.525 37.7845 41.111 37.7995 39.373C37.8035 38.89 37.6955 38.403 37.4855 37.967L37.3785 37.743L37.4005 37.721L36.2465 36.567L36.2235 36.591ZM34.6495 40.834C33.8125 40.834 33.1335 40.154 33.1335 39.317C33.1335 38.48 33.8135 37.8 34.6495 37.8H34.6535C35.0605 37.8 35.4545 37.97 35.7355 38.267C36.0095 38.535 36.1705 38.922 36.1665 39.32C36.1665 40.154 35.4875 40.834 34.6495 40.834Z" fill="#E8A15B"/>
<path d="M37.8 47.833H31.498V49.468H37.8V47.833Z" fill="#3F496A"/>
<path d="M15.8276 38.5H13.3906V40.135H15.8276H17.9656V38.5H15.8276Z" fill="#E8A15B"/>
<path d="M65.1719 9.33301H4.10888H1.67188V10.967H4.10888H65.1719H67.6089V9.33301H65.1719Z" fill="#637EA8"/>
<path d="M18.7358 29.1882L16.6248 27.9692L15.7988 29.3772L17.9098 30.5952L19.7918 31.6822L20.6078 30.2682L18.7358 29.1882Z" fill="#E8A15B"/>
<path d="M25.9456 22.6101L24.7256 20.4951L23.2246 21.2451L23.2446 21.2851L23.2816 21.2611L24.4826 23.3421L25.5986 25.2761L27.0126 24.4601L25.9456 22.6101Z" fill="#E8A15B"/>
<path d="M53.483 38.499H51.332V40.133H53.483H55.92V38.499H53.483Z" fill="#E8A15B"/>
<path d="M41.9931 30.8198L37.5611 35.2528L36.2461 36.5678L37.4001 37.7208L38.7141 36.4058L43.1451 31.9748L41.9931 30.8198Z" fill="#637EA8"/>
<path d="M53.599 29.5221L53.584 29.4961L53.597 29.5231L53.599 29.5221Z" fill="#E20A95"/>
<path d="M52.6834 27.9619L50.5724 29.1799L48.6914 30.2659L49.5074 31.6799L51.3994 30.5889L53.5104 29.3709L52.6834 27.9619Z" fill="#E8A15B"/>
<path d="M44.5762 20.4902L43.3552 22.6052L42.2852 24.4592L43.6992 25.2752L44.8182 23.3362L46.0162 21.2602L46.0642 21.2912L46.0872 21.2452L44.5762 20.4902Z" fill="#E8A15B"/>
<path d="M33.832 18.0239V20.4619V22.6339H35.467V20.4839V18.0459L33.832 18.0239Z" fill="#E8A15B"/>
</svg>
