<svg version="1.1" xmlns="http://www.w3.org/2000/svg" xmlns:xlink="http://www.w3.org/1999/xlink" x="0px" y="0px"
	 width="300px" height="300px" viewBox="0 0 300 300" enable-background="new 0 0 300 300" xml:space="preserve">
<g>
	<path fill="#F24A41" d="M65.928,271.044l1.056,14.783c-2.64,0.914-5.28,1.677-8.071,2.21s-5.658,0.914-8.524,1.143
		c-0.981,0.076-1.961,0.152-2.866,0.229c-0.981,0-1.886,0-2.791,0c-12.145,0-22.63-3.658-31.456-10.973S0,260.148,0,245.594
		c0-13.716,4.3-24.689,12.824-32.766c8.599-8.153,20.292-12.192,35.152-12.192c2.791,0,5.28,0.152,7.619,0.457
		c2.338,0.229,4.677,0.686,6.864,1.143c0.754,0.229,1.509,0.457,2.263,0.686s1.509,0.457,2.263,0.686l-0.754,14.935
		c-2.716-1.219-5.507-1.981-8.298-2.515c-2.791-0.457-5.733-0.762-8.75-0.762c-8.75,0-16.067,2.591-21.951,7.772
		c-5.884,5.182-8.826,12.649-8.826,22.327c0,9.906,2.64,17.069,7.77,21.565c5.205,4.42,10.862,7.01,17.123,7.696
		c0.83,0.152,1.584,0.152,2.338,0.229c0.83,0,1.584,0.076,2.338,0.076c3.319,0,6.336-0.305,9.052-0.914
		c2.716-0.686,5.054-1.372,7.015-2.21c0.302-0.076,0.679-0.152,0.981-0.305C65.4,271.349,65.626,271.196,65.928,271.044z"/>
	<polygon fill="#F24A41" points="139.551,288.57 122.956,288.57 102.061,226.467 98.138,214.046 97.761,214.046 97.987,227.457 
		97.987,288.57 80.562,288.57 80.562,201.625 110.057,201.625 127.256,252.146 131.103,267.615 131.404,267.615 135.252,252.146 
		152.45,201.625 181.945,201.625 181.945,288.57 164.52,288.57 164.52,227.457 164.746,214.046 164.369,214.046 160.446,226.467 	
		"/>
	<path fill="#F24A41" d="M262.056,271.044l1.056,14.783c-2.565,0.914-5.28,1.677-8.071,2.21c-2.791,0.533-5.658,0.914-8.524,1.143
		c-0.981,0.076-1.961,0.152-2.866,0.229c-0.981,0-1.886,0-2.791,0c-12.145,0-22.63-3.658-31.456-10.973
		s-13.276-18.288-13.276-32.842c0-13.716,4.3-24.689,12.824-32.766c8.599-8.153,20.292-12.192,35.152-12.192
		c2.791,0,5.356,0.152,7.694,0.457c2.338,0.229,4.601,0.686,6.789,1.143c0.754,0.229,1.509,0.457,2.263,0.686
		c0.83,0.229,1.584,0.457,2.263,0.686l-0.679,14.935c-2.791-1.219-5.582-1.981-8.373-2.515c-2.791-0.457-5.733-0.762-8.75-0.762
		c-8.75,0-16.067,2.591-21.951,7.772c-5.884,5.182-8.826,12.649-8.826,22.327c0,9.906,2.64,17.069,7.77,21.565
		c5.205,4.42,10.862,7.01,17.123,7.696c0.83,0.152,1.584,0.152,2.414,0.229c0.754,0,1.509,0.076,2.263,0.076
		c3.319,0,6.336-0.305,9.052-0.914c2.716-0.686,5.054-1.372,7.015-2.21c0.377-0.076,0.679-0.152,0.981-0.305
		C261.528,271.349,261.754,271.196,262.056,271.044z"/>
	<path fill="#3271b8" d="M118.128,55.855C131.555,26.061,160.22,13.64,187.376,0c-48.353,6.782-83.053,22.098-106.814,68.123
		c4.224-1.981,8.373-4.343,12.673-6.096C101.457,58.674,109.453,57.379,118.128,55.855z"/>
	<path fill="#3271b8" d="M79.959,74.066L80.94,77.8c0.603,2.286,1.584,4.648,2.942,6.629c1.735,2.591,3.923,4.877,6.261,7.01
		c3.696,3.353,7.77,6.325,11.843,9.296c6.563,4.724,13.427,8.992,20.065,13.64c5.884,4.115,11.617,8.458,17.425,12.649
		c8.222,6.02,16.671,11.659,24.667,17.983c6.94,5.563,13.653,11.43,20.065,17.678c5.658,5.41,11.24,11.125,16.143,17.297
		c6.487,8.23,11.692,17.526,15.615,27.508c3.168-1.905,6.714-3.429,10.636-4.572c-6.186-24.232-18.029-46.558-37.792-66.599
		c-8.977-8.992-18.708-17.221-28.288-25.603c-6.714-5.867-13.804-11.354-20.744-16.993h142.117
		c-5.431,9.525-10.485,13.106-20.065,18.669c-6.487,3.734-13.503,6.325-20.443,8.992s-14.106,5.029-21.348,7.01
		c-4.752,1.219-9.656,1.753-14.483,2.667c8.298,9.525,13.276,18.288,19.085,29.566l2.942,8.382l6.261-5.029
		c28.363-22.708,54.539-55.245,66.155-89.916H79.959V74.066z"/>
	<path fill="#3271b8" d="M223.358,223.038c-1.081,0.982-1.081,0.982-2.037,1.981c3.093,13.183,4.073,26.822,2.942,39.776
		c-0.302,3.505-0.754,7.087-1.132,10.592c-0.528,4.42-1.132,8.763-1.886,13.183h-48.127c7.317-8.153,19.085-27.889,19.085-27.889
		h-21.649c0.151,5.182-0.226,9.525-1.886,14.554c-1.132,3.429-2.565,6.858-4.375,10.058c-3.319,5.944-7.242,10.058-11.994,14.707
		H226.3c0.528-0.914,1.132-1.753,1.509-2.743c1.886-4.724,2.263-9.982,2.716-15.011c0.453-4.496,0.754-8.992,1.056-13.564
		c1.056-17.297,0.679-33.985-1.81-49.987C227.507,219.837,225.305,221.269,223.358,223.038z"/>
	<path fill="#3271b8" d="M226.602,202.921L226.602,202.921z"/>
</g>
</svg>