<svg
   xmlns:dc="http://purl.org/dc/elements/1.1/"
   xmlns:cc="http://creativecommons.org/ns#"
   xmlns:rdf="http://www.w3.org/1999/02/22-rdf-syntax-ns#"
   xmlns:svg="http://www.w3.org/2000/svg"
   xmlns="http://www.w3.org/2000/svg"
   viewBox="300 150 500 500"
   height="793.70135"
   width="1122.52"
   xml:space="preserve"
   id="svg2"
   version="1.1"><metadata
     id="metadata8"><rdf:RDF><cc:Work
         rdf:about=""><dc:format>image/svg+xml</dc:format><dc:type
           rdf:resource="http://purl.org/dc/dcmitype/StillImage" /></cc:Work></rdf:RDF></metadata><defs
     id="defs6"><linearGradient
       id="linearGradient34"
       spreadMethod="pad"
       gradientTransform="matrix(417.54474,-90.532822,-90.532822,-417.54474,131.92215,230.55087)"
       gradientUnits="userSpaceOnUse"
       y2="0"
       x2="1"
       y1="0"
       x1="0"><stop
         id="stop24"
         offset="0"
         style="stop-opacity:1;stop-color:#5f1217" /><stop
         id="stop26"
         offset="0.46094288"
         style="stop-opacity:1;stop-color:#e4252d" /><stop
         id="stop28"
         offset="0.527586"
         style="stop-opacity:1;stop-color:#e4252d" /><stop
         id="stop30"
         offset="0.64601782"
         style="stop-opacity:1;stop-color:#e4252d" /><stop
         id="stop32"
         offset="1"
         style="stop-opacity:1;stop-color:#5f1217" /></linearGradient><linearGradient
       id="linearGradient56"
       spreadMethod="pad"
       gradientTransform="matrix(417.72543,-90.572006,-90.572006,-417.72543,180.43475,455.1282)"
       gradientUnits="userSpaceOnUse"
       y2="0"
       x2="1"
       y1="0"
       x1="0"><stop
         id="stop50"
         offset="0"
         style="stop-opacity:1;stop-color:#edecec" /><stop
         id="stop52"
         offset="0.527586"
         style="stop-opacity:1;stop-color:#edecec" /><stop
         id="stop54"
         offset="1"
         style="stop-opacity:1;stop-color:#d9d9d9" /></linearGradient><linearGradient
       id="linearGradient82"
       spreadMethod="pad"
       gradientTransform="matrix(417.72287,-90.571449,-90.571449,-417.72287,156.11946,342.99194)"
       gradientUnits="userSpaceOnUse"
       y2="0"
       x2="1"
       y1="0"
       x1="0"><stop
         id="stop72"
         offset="0"
         style="stop-opacity:1;stop-color:#29265b" /><stop
         id="stop74"
         offset="0.46094288"
         style="stop-opacity:1;stop-color:#1e72b8" /><stop
         id="stop76"
         offset="0.527586"
         style="stop-opacity:1;stop-color:#1e72b8" /><stop
         id="stop78"
         offset="0.64601782"
         style="stop-opacity:1;stop-color:#1e72b8" /><stop
         id="stop80"
         offset="1"
         style="stop-opacity:1;stop-color:#29265b" /></linearGradient><clipPath
       id="clipPath92"
       clipPathUnits="userSpaceOnUse"><path
         id="path90"
         d="M 0,595.276 H 841.89 V 0 H 0 Z" /></clipPath></defs><g
     transform="matrix(1.3333333,0,0,-1.3333333,0,793.70133)"
     id="g10"><g
       id="g12"><g
         id="g14"><g
           id="g20"><g
             id="g22"><path
               id="path36"
               style="fill:url(#linearGradient34);stroke:none"
               d="m 351.35,234.853 c -17.527,-6.145 -35.059,-12.291 -52.252,-16.895 v 0 c 26.075,-39.696 71,-65.911 122.042,-65.911 v 0 c 48.406,0 91.304,23.569 117.846,59.861 v 0 c -24.15,35.571 -53.435,47.486 -85.299,47.488 v 0 c -32.34,10e-4 -67.336,-12.271 -102.337,-24.543" /></g></g></g></g><g
       id="g38"><g
         id="g40"><g
           id="g46"><g
             id="g48"><path
               id="path58"
               style="fill:url(#linearGradient56);stroke:none"
               d="m 275.864,311.606 c 31.707,4.589 65.687,19.689 99.674,34.79 v 0 c 64.143,28.499 128.291,56.995 177.111,14.832 v 0 c -23.569,48.89 -73.601,82.631 -131.509,82.631 v 0 c -75.978,0 -138.393,-58.072 -145.276,-132.253" /></g></g></g></g><g
       id="g60"><g
         id="g62"><g
           id="g68"><g
             id="g70"><path
               id="path84"
               style="fill:url(#linearGradient82);stroke:none"
               d="m 375.538,346.396 c -33.982,-15.099 -67.971,-30.198 -99.674,-34.789 v 0 c -0.417,-4.495 -0.631,-9.05 -0.631,-13.654 v 0 c 0,-29.539 8.775,-57.023 23.865,-79.996 v 0 c 17.198,4.605 34.72,10.749 52.252,16.896 v 0 c 69.487,24.364 138.975,48.729 187.637,-22.944 v 0 c 17.643,24.123 28.059,53.869 28.059,86.044 v 0 c 0,22.669 -5.17,44.131 -14.395,63.27 v 0 c -17.817,15.392 -37.676,21.37 -58.832,21.37 v 0 c -36.811,10e-4 -77.545,-18.098 -118.281,-36.197" /></g></g></g></g><g
       id="g86"><g
         clip-path="url(#clipPath92)"
         id="g88"><g
           transform="translate(259.1455,324.1848)"
           id="g94"><path
             id="path96"
             style="fill:#000000;fill-opacity:1;fill-rule:nonzero;stroke:none"
             d="m 0,0 -0.452,-3.154 c -0.228,-1.588 0.125,-2.842 1.917,-3.099 1.724,-0.247 2.505,0.845 2.73,2.409 l 0.455,3.177 z m 7.06,-4.532 c -0.501,-3.493 -2.482,-5.686 -6.044,-5.176 -3.517,0.504 -4.791,3.234 -4.327,6.479 L -2.79,0.4 -8.597,1.233 -8.093,4.749 8.059,2.433 Z" /></g><g
           transform="translate(256.9707,309.5505)"
           id="g98"><path
             id="path100"
             style="fill:#000000;fill-opacity:1;fill-rule:nonzero;stroke:none"
             d="m 0,0 c -3.503,0.144 -5.68,-1.464 -5.816,-4.233 -0.112,-2.703 1.972,-4.463 5.452,-4.606 3.435,-0.142 5.635,1.465 5.746,4.191 C 5.494,-1.946 3.389,-0.14 0,0 m -0.581,-12.454 c -5.084,0.209 -8.385,3.579 -8.189,8.365 0.2,4.831 3.744,7.92 8.851,7.71 5.175,-0.213 8.432,-3.559 8.231,-8.436 -0.196,-4.763 -3.787,-7.849 -8.893,-7.639" /></g><g
           transform="translate(248.4424,286.6408)"
           id="g102"><path
             id="path104"
             style="fill:#000000;fill-opacity:1;fill-rule:nonzero;stroke:none"
             d="m 0,0 c -0.306,4.733 2.9,8.086 8.045,8.418 4.734,0.306 8.701,-2.47 9.023,-7.455 0.252,-3.911 -2.033,-6.929 -5.377,-7.42 l -0.226,3.5 c 1.761,0.48 2.727,1.875 2.603,3.796 C 13.866,3.971 10.975,5.002 8.254,4.826 4.892,4.609 2.85,2.802 3.02,0.172 3.159,-1.978 4.521,-3.177 6.919,-3.319 L 7.147,-6.864 C 3.145,-6.756 0.287,-4.46 0,0" /></g><g
           transform="translate(250.5757,268.7014)"
           id="g106"><path
             id="path108"
             style="fill:#000000;fill-opacity:1;fill-rule:nonzero;stroke:none"
             d="m 0,0 c -0.796,4.677 2.043,8.346 7.127,9.211 4.677,0.797 8.913,-1.552 9.751,-6.478 0.658,-3.863 -1.301,-7.102 -4.576,-7.939 L 11.713,-1.75 C 13.414,-1.088 14.23,0.4 13.907,2.298 13.38,5.393 10.397,6.117 7.709,5.659 4.387,5.095 2.543,3.083 2.986,0.484 3.348,-1.639 4.829,-2.688 7.228,-2.583 L 7.825,-6.085 C 3.832,-6.393 0.75,-4.406 0,0" /></g><g
           transform="translate(256.7148,244.8811)"
           id="g110"><path
             id="path112"
             style="fill:#000000;fill-opacity:1;fill-rule:nonzero;stroke:none"
             d="M 0,0 -0.966,3.441 9.933,6.499 9.914,6.565 -2.643,9.42 -3.732,13.304 11.976,17.709 12.941,14.269 2.065,11.218 2.083,11.151 14.619,8.29 15.708,4.406 Z" /></g><g
           transform="translate(281.27,238.6223)"
           id="g114"><path
             id="path116"
             style="fill:#000000;fill-opacity:1;fill-rule:nonzero;stroke:none"
             d="m 0,0 c -2.192,-0.875 -3.625,0.183 -4.448,2.247 -0.823,2.065 -0.511,3.817 1.682,4.691 L -2.291,5.747 C -3.194,5.165 -3.246,4.059 -2.788,2.909 -2.33,1.759 -1.531,0.992 -0.475,1.19 Z m -18.072,-10.608 -1.324,3.321 10.516,4.191 -0.026,0.064 -12.789,1.513 -1.493,3.747 15.156,6.04 1.324,-3.32 -10.496,-4.182 0.027,-0.065 12.767,-1.521 1.493,-3.747 z" /></g><g
           transform="translate(267.9912,217.5734)"
           id="g118"><path
             id="path120"
             style="fill:#000000;fill-opacity:1;fill-rule:nonzero;stroke:none"
             d="m 0,0 c -2.207,4.199 -0.645,8.565 3.918,10.964 4.2,2.206 8.953,1.288 11.277,-3.134 1.823,-3.469 0.964,-7.155 -1.89,-8.966 L 11.674,1.968 C 13.086,3.124 13.4,4.791 12.505,6.494 11.045,9.272 7.985,9.037 5.572,7.769 2.59,6.202 1.461,3.72 2.688,1.387 3.689,-0.52 5.422,-1.059 7.67,-0.214 L 9.322,-3.358 C 5.623,-4.888 2.078,-3.954 0,0" /></g><g
           transform="translate(286.2681,207.048)"
           id="g122"><path
             id="path124"
             style="fill:#000000;fill-opacity:1;fill-rule:nonzero;stroke:none"
             d="m 0,0 -4.352,-11.291 -2.488,3.74 3.364,8.184 -2.873,0.595 -4.388,-2.92 -1.956,2.938 L 0.893,10.285 2.848,7.347 -2.8,3.588 6.404,2.004 8.905,-1.755 Z" /></g><g
           transform="translate(291.3955,197.0871)"
           id="g126"><path
             id="path128"
             style="fill:#000000;fill-opacity:1;fill-rule:nonzero;stroke:none"
             d="M 0,0 C -2.704,-2.233 -3.249,-4.884 -1.5,-7.036 0.223,-9.121 2.948,-9.038 5.634,-6.82 8.284,-4.63 8.847,-1.965 7.11,0.137 5.388,2.223 2.615,2.16 0,0 m 7.887,-9.655 c -3.922,-3.241 -8.631,-2.94 -11.681,0.754 -3.08,3.727 -2.505,8.394 1.434,11.649 C 1.634,6.047 6.292,5.733 9.401,1.97 12.437,-1.705 11.827,-6.4 7.887,-9.655" /></g><g
           transform="translate(313.5439,180.6525)"
           id="g130"><path
             id="path132"
             style="fill:#000000;fill-opacity:1;fill-rule:nonzero;stroke:none"
             d="m 0,0 -6.171,6.114 -2.5,-2.523 5.666,-5.614 -1.984,-2.003 -5.667,5.614 -2.823,-2.85 6.286,-6.226 -2.114,-2.135 -8.809,8.728 L -6.63,10.7 2.065,2.085 Z" /></g><g
           transform="translate(327.1411,168.1096)"
           id="g134"><path
             id="path136"
             style="fill:#000000;fill-opacity:1;fill-rule:nonzero;stroke:none"
             d="m 0,0 -4.55,-6.154 c 1.897,-1.289 3.938,-0.804 5.232,0.947 C 2.058,-3.346 1.843,-1.478 0,0 m -2.838,2.098 c -1.953,1.33 -3.784,0.973 -5.16,-0.888 -1.294,-1.751 -1.178,-3.83 0.609,-5.267 z m -3.306,-10.41 -1.063,-1.436 -2.838,2.098 1.063,1.437 c -3.277,2.622 -4.236,6.181 -1.798,9.48 2.343,3.17 5.972,3.337 9.481,0.914 L -0.345,5.47 2.493,3.372 1.54,2.083 c 3.345,-2.645 4.249,-6.163 1.906,-9.334 -2.439,-3.298 -6.123,-3.424 -9.59,-1.061" /></g><g
           transform="translate(345.9736,157.6711)"
           id="g138"><path
             id="path140"
             style="fill:#000000;fill-opacity:1;fill-rule:nonzero;stroke:none"
             d="m 0,0 -7.486,4.402 -1.8,-3.061 6.873,-4.042 -1.429,-2.429 -6.874,4.042 -2.033,-3.456 7.625,-4.484 -1.522,-2.588 -10.686,6.285 8.271,14.062 10.548,-6.203 z" /></g><g
           transform="translate(354.5791,138.7785)"
           id="g142"><path
             id="path144"
             style="fill:#000000;fill-opacity:1;fill-rule:nonzero;stroke:none"
             d="m 0,0 -3.243,1.506 5.59,12.035 -3.97,1.844 -3.123,-6.181 c -2.096,-4.131 -4.39,-5.314 -6.925,-4.137 -0.582,0.271 -1.345,0.751 -1.713,1.099 l 1.216,2.62 c 0.192,-0.241 0.612,-0.588 1.028,-0.78 0.872,-0.406 1.782,-0.298 3.274,2.698 l 4.431,8.884 10.309,-4.789 z" /></g><g
           transform="translate(371.4907,132.7355)"
           id="g146"><path
             id="path148"
             style="fill:#000000;fill-opacity:1;fill-rule:nonzero;stroke:none"
             d="m 0,0 -3.383,1.162 3.68,10.711 -0.065,0.023 -9.49,-8.715 -3.817,1.311 5.305,15.438 3.383,-1.161 -3.674,-10.691 0.066,-0.021 9.484,8.692 3.815,-1.311 z" /></g><g
           transform="translate(389.0435,128.4797)"
           id="g150"><path
             id="path152"
             style="fill:#000000;fill-opacity:1;fill-rule:nonzero;stroke:none"
             d="m 0,0 -3.484,0.8 1.573,6.857 -6.5,1.491 -1.573,-6.857 -3.484,0.8 3.648,15.902 3.485,-0.799 -1.374,-5.986 6.501,-1.491 1.373,5.987 3.484,-0.801 z" /></g><g
           transform="translate(397.0771,135.5393)"
           id="g154"><path
             id="path156"
             style="fill:#000000;fill-opacity:1;fill-rule:nonzero;stroke:none"
             d="M 0,0 C -0.414,-3.483 1.022,-5.777 3.773,-6.128 6.458,-6.447 8.375,-4.505 8.786,-1.046 9.192,2.369 7.76,4.687 5.051,5.008 2.365,5.327 0.401,3.368 0,0 m 12.374,-1.541 c -0.6,-5.053 -4.215,-8.086 -8.973,-7.52 -4.802,0.572 -7.609,4.344 -7.005,9.419 0.612,5.145 4.199,8.135 9.047,7.558 4.735,-0.562 7.536,-4.381 6.931,-9.457" /></g><g
           transform="translate(424.7959,125.5666)"
           id="g158"><path
             id="path160"
             style="fill:#000000;fill-opacity:1;fill-rule:nonzero;stroke:none"
             d="m 0,0 -3.575,0.062 0.23,13.266 -4.377,0.075 -0.349,-6.916 c -0.24,-4.626 -1.856,-6.637 -4.651,-6.59 -0.642,0.012 -1.534,0.142 -2.012,0.311 l 0.049,2.888 c 0.274,-0.144 0.798,-0.289 1.256,-0.297 0.963,-0.017 1.75,0.45 1.899,3.794 l 0.447,9.917 11.364,-0.196 z" /></g><g
           transform="translate(431.1787,134.1086)"
           id="g162"><path
             id="path164"
             style="fill:#000000;fill-opacity:1;fill-rule:nonzero;stroke:none"
             d="M 0,0 C 0.305,-3.494 2.178,-5.447 4.943,-5.229 7.638,-4.995 9.118,-2.702 8.815,0.769 8.517,4.194 6.642,6.171 3.924,5.934 1.229,5.698 -0.295,3.38 0,0 m 12.43,1.015 c 0.442,-5.07 -2.479,-8.777 -7.252,-9.193 -4.819,-0.421 -8.335,2.702 -8.781,7.794 -0.449,5.161 2.453,8.821 7.318,9.245 4.75,0.414 8.27,-2.753 8.715,-7.846" /></g><g
           transform="translate(456.4453,142.7258)"
           id="g166"><path
             id="path168"
             style="fill:#000000;fill-opacity:1;fill-rule:nonzero;stroke:none"
             d="m 0,0 -7.661,-1.411 2.403,-13.047 -3.514,-0.648 -2.956,16.044 11.176,2.059 z" /></g><g
           transform="translate(474.8418,134.0539)"
           id="g170"><path
             id="path172"
             style="fill:#000000;fill-opacity:1;fill-rule:nonzero;stroke:none"
             d="M 0,0 -3.438,-0.975 -6.526,9.916 -6.593,9.897 -9.414,-2.669 l -3.88,-1.1 -4.449,15.698 3.438,0.974 3.081,-10.868 0.067,0.019 2.828,12.543 3.88,1.1 z" /></g><g
           transform="translate(473.749,146.3244)"
           id="g174"><path
             id="path176"
             style="fill:#000000;fill-opacity:1;fill-rule:nonzero;stroke:none"
             d="M 0,0 -1.589,4.029 1.737,5.341 3.343,1.27 C 4.065,-0.564 4.987,-0.964 6.692,-0.292 7.608,0.07 9.107,0.957 9.563,1.235 L 7.108,7.46 10.434,8.771 16.42,-6.406 13.096,-7.719 10.624,-1.45 C 9.957,-1.886 8.426,-2.81 7.53,-3.163 4.119,-4.509 1.54,-3.9 0,0" /></g><g
           transform="translate(498.6562,159.0432)"
           id="g178"><path
             id="path180"
             style="fill:#000000;fill-opacity:1;fill-rule:nonzero;stroke:none"
             d="m 0,0 -7.745,-3.931 1.606,-3.167 7.112,3.609 1.275,-2.514 -7.111,-3.608 1.815,-3.577 7.888,4.003 1.358,-2.677 -11.055,-5.61 -7.383,14.55 10.912,5.538 z" /></g><g
           transform="translate(514.1768,152.4357)"
           id="g182"><path
             id="path184"
             style="fill:#000000;fill-opacity:1;fill-rule:nonzero;stroke:none"
             d="m 0,0 c -4,-2.55 -8.483,-1.357 -11.254,2.99 -2.55,4.001 -2.031,8.816 2.182,11.5 3.304,2.107 7.051,1.559 9.093,-1.134 l -2.957,-1.885 c -1.27,1.311 -2.957,1.485 -4.581,0.451 -2.647,-1.688 -2.157,-4.717 -0.691,-7.017 1.811,-2.841 4.379,-3.759 6.602,-2.342 1.816,1.158 2.209,2.929 1.179,5.099 L 2.568,9.571 C 4.402,6.012 3.768,2.401 0,0" /></g><g
           transform="translate(523.1514,171.5178)"
           id="g186"><path
             id="path188"
             style="fill:#000000;fill-opacity:1;fill-rule:nonzero;stroke:none"
             d="m 0,0 11.611,-3.399 -3.519,-2.789 -8.433,2.672 -0.353,-2.912 3.273,-4.13 -2.766,-2.192 -10.132,12.786 2.765,2.192 4.213,-5.316 0.816,9.3 3.537,2.804 z" /></g><g
           transform="translate(532.668,177.4533)"
           id="g190"><path
             id="path192"
             style="fill:#000000;fill-opacity:1;fill-rule:nonzero;stroke:none"
             d="M 0,0 C 2.447,-2.51 5.133,-2.836 7.134,-0.917 9.069,0.972 8.764,3.682 6.333,6.175 3.933,8.636 1.231,8.978 -0.722,7.074 -2.657,5.187 -2.368,2.429 0,0 M 8.973,8.653 C 12.523,5.011 12.609,0.294 9.181,-3.049 5.719,-6.424 1.022,-6.234 -2.545,-2.576 -6.16,1.132 -6.23,5.799 -2.735,9.207 0.677,12.534 5.405,12.311 8.973,8.653" /></g><g
           transform="translate(547.2129,200.885)"
           id="g194"><path
             id="path196"
             style="fill:#000000;fill-opacity:1;fill-rule:nonzero;stroke:none"
             d="m 0,0 -5.584,-6.655 2.722,-2.284 5.128,6.111 2.16,-1.812 -5.128,-6.111 3.073,-2.579 5.689,6.779 2.299,-1.929 -7.97,-9.502 -12.504,10.49 7.867,9.378 z" /></g><g
           transform="translate(558.2148,207.4553)"
           id="g198"><path
             id="path200"
             style="fill:#000000;fill-opacity:1;fill-rule:nonzero;stroke:none"
             d="M 0,0 C 2.973,-1.858 5.659,-1.538 7.149,0.801 8.583,3.094 7.643,5.654 4.689,7.501 1.774,9.323 -0.932,9.015 -2.378,6.703 -3.811,4.41 -2.876,1.798 0,0 m 6.668,10.535 c 4.313,-2.698 5.515,-7.26 2.976,-11.32 -2.564,-4.101 -7.171,-5.03 -11.505,-2.321 -4.391,2.745 -5.567,7.264 -2.98,11.403 2.528,4.041 7.175,4.947 11.509,2.238" /></g><g
           transform="translate(569.8047,226.7678)"
           id="g202"><path
             id="path204"
             style="fill:#000000;fill-opacity:1;fill-rule:nonzero;stroke:none"
             d="m 0,0 -1.66,-3.397 4.22,-2.064 1.67,3.417 C 4.985,-0.5 4.893,0.719 3.328,1.484 1.784,2.239 0.704,1.439 0,0 m -2.321,1.67 c 1.44,2.943 4.029,4.483 7.22,2.924 3.232,-1.58 3.638,-4.509 2.087,-7.679 l -3.352,-6.855 -14.657,7.167 5.314,10.869 2.656,-1.298 -3.755,-7.679 2.615,-1.278 z" /></g><g
           transform="translate(591.4365,249.966)"
           id="g206"><path
             id="path208"
             style="fill:#000000;fill-opacity:1;fill-rule:nonzero;stroke:none"
             d="m 0,0 -3.974,1.347 -6.401,-18.89 -15.46,5.239 1.148,3.388 12.572,-4.262 1.744,5.147 -12.572,4.26 1.148,3.388 12.571,-4.262 1.745,5.146 -12.572,4.262 1.149,3.387 12.571,-4.261 0.581,1.715 6.861,-2.326 z" /></g><g
           transform="translate(578.3154,272.216)"
           id="g210"><path
             id="path212"
             style="fill:#000000;fill-opacity:1;fill-rule:nonzero;stroke:none"
             d="m 0,0 -1.753,-8.505 3.479,-0.716 1.609,7.809 2.76,-0.568 -1.609,-7.81 3.928,-0.809 1.784,8.662 2.94,-0.604 -2.5,-12.142 -15.98,3.291 2.469,11.984 z" /></g><g
           transform="translate(593.1494,280.26)"
           id="g214"><path
             id="path216"
             style="fill:#000000;fill-opacity:1;fill-rule:nonzero;stroke:none"
             d="m 0,0 c -0.498,-4.718 -4.223,-7.482 -9.351,-6.942 -4.717,0.497 -8.162,3.902 -7.638,8.871 0.411,3.897 3.174,6.487 6.552,6.408 L -10.805,4.849 C -12.62,4.672 -13.809,3.46 -14.01,1.546 c -0.329,-3.122 2.347,-4.626 5.059,-4.912 3.35,-0.353 5.669,1.085 5.945,3.706 0.226,2.142 -0.916,3.554 -3.256,4.099 L -5.89,7.973 C -1.962,7.189 0.469,4.444 0,0" /></g><g
           transform="translate(580.5088,302.7844)"
           id="g218"><path
             id="path220"
             style="fill:#000000;fill-opacity:1;fill-rule:nonzero;stroke:none"
             d="m 0,0 -0.079,-4.903 13.267,-0.212 -0.057,-3.597 -13.268,0.212 -0.078,-4.904 -3.046,0.049 0.213,13.404 z" /></g><g
           transform="translate(590.5596,308.6648)"
           id="g222"><path
             id="path224"
             style="fill:#000000;fill-opacity:1;fill-rule:nonzero;stroke:none"
             d="M 0,0 -0.279,3.588 C -0.398,5.12 -0.812,6.581 -2.731,6.432 -4.696,6.28 -4.823,4.66 -4.699,3.061 l 0.265,-3.406 z m -6.856,-0.533 -0.252,3.244 c -0.102,1.303 -0.461,2.678 -2.107,2.55 -1.645,-0.129 -1.817,-1.475 -1.71,-2.846 l 0.253,-3.246 z m -6.911,3.715 c -0.222,2.856 0.807,5.282 3.687,5.506 1.577,0.123 2.834,-0.676 3.532,-1.955 0.349,1.728 1.484,3.104 3.745,3.28 3.177,0.248 5.035,-2.068 5.274,-5.13 l 0.633,-8.136 -16.271,-1.266 z" /></g><g
           transform="translate(583.5596,323.925)"
           id="g226"><path
             id="path228"
             style="fill:#000000;fill-opacity:1;fill-rule:nonzero;stroke:none"
             d="M 0,0 C 3.447,0.636 5.214,2.685 4.733,5.416 4.243,8.075 1.822,9.329 -1.604,8.699 -4.982,8.076 -6.771,6.021 -6.277,3.341 -5.787,0.681 -3.335,-0.614 0,0 M -2.19,12.271 C 2.812,13.192 6.777,10.638 7.645,5.928 8.521,1.174 5.748,-2.622 0.723,-3.548 -4.37,-4.486 -8.285,-1.945 -9.17,2.854 c -0.863,4.688 1.954,8.492 6.98,9.417" /></g><g
           transform="translate(421.8604,207.4885)"
           id="g230"><path
             id="path232"
             style="fill:#000000;fill-opacity:1;fill-rule:nonzero;stroke:none"
             d="M 0,0 -18.604,-8.422 0.074,-16.447 18.51,-8.254 Z" /></g><g
           transform="translate(459.3096,330.3425)"
           id="g234"><path
             id="path236"
             style="fill:#000000;fill-opacity:1;fill-rule:nonzero;stroke:none"
             d="M 0,0 48.53,-44.703 V 57.377 L -0.205,-0.023 Z" /></g><g
           transform="translate(383.8213,330.3166)"
           id="g238"><path
             id="path240"
             style="fill:#000000;fill-opacity:1;fill-rule:nonzero;stroke:none"
             d="m 0,0 0.217,-0.032 -49.286,56.869 1.621,-101.559 z" /></g><g
           transform="translate(452.9639,327.8117)"
           id="g242"><path
             id="path244"
             style="fill:#000000;fill-opacity:1;fill-rule:nonzero;stroke:none"
             d="m 0,0 h -61.453 l -54.111,-50.837 13.177,-54.85 44.925,-19.303 23.815,10.647 v 11.578 l -11.478,8.84 -13.289,35.883 -34.138,15.864 2.901,6.243 36.709,-17.058 13.585,-36.685 9.345,-7.196 7.296,5.538 14.827,39.081 35.956,15.358 2.705,-6.332 -33.262,-14.207 -14.489,-38.19 -9.784,-7.427 v -11.221 l 23.688,-10.509 44.24,19.662 13.748,54.463 z" /></g><g
           transform="translate(262.6431,350.9997)"
           id="g246"><path
             id="path248"
             style="fill:#000000;fill-opacity:1;fill-rule:nonzero;stroke:none"
             d="M 0,0 C 2.046,-0.673 3.166,-2.894 2.492,-4.94 1.812,-7.006 -0.401,-8.106 -2.447,-7.433 -4.493,-6.758 -5.62,-4.56 -4.94,-2.493 -4.267,-0.447 -2.046,0.673 0,0" /></g><g
           transform="translate(266.8818,363.6194)"
           id="g250"><path
             id="path252"
             style="fill:#000000;fill-opacity:1;fill-rule:nonzero;stroke:none"
             d="M 0,0 1.381,2.946 C 2.062,4.398 2.411,5.813 0.66,6.634 -0.972,7.4 -1.858,6.237 -2.475,4.923 L -3.921,1.839 Z m -4.511,6.947 c 1.223,2.608 3.414,4.225 6.26,2.891 C 3.401,9.063 4.302,7.621 4.177,5.956 5.232,7.378 7.011,7.03 8.461,6.496 9.394,6.155 11.362,5.28 12.142,5.595 L 10.628,2.371 C 9.744,2.349 8.331,3.011 7.518,3.295 5.475,4.012 4.498,3.741 3.546,1.712 L 2.249,-1.055 7.8,-3.658 6.354,-6.744 -7.816,-0.097 Z" /></g><g
           transform="translate(281.314,385.382)"
           id="g254"><path
             id="path256"
             style="fill:#000000;fill-opacity:1;fill-rule:nonzero;stroke:none"
             d="m 0,0 c 3.835,-2.281 4.562,-5.144 2.225,-9.075 -2.384,-4.005 -5.284,-4.71 -9.12,-2.427 l -8.049,4.789 1.754,2.946 8.048,-4.788 c 2.06,-1.225 3.58,-1.337 4.952,0.968 1.348,2.268 0.382,3.482 -1.602,4.663 l -8.048,4.789 1.753,2.947 z" /></g><g
           transform="translate(284.186,397.5603)"
           id="g258"><path
             id="path260"
             style="fill:#000000;fill-opacity:1;fill-rule:nonzero;stroke:none"
             d="m 0,0 c -1.304,0.786 -2.556,0.448 -3.63,-1.028 -0.932,-1.279 -0.954,-2.43 -0.049,-3.091 1.102,-0.801 2.174,0.484 4.722,2.49 2.283,1.791 4.201,2.596 6.316,1.057 2.985,-2.174 2.172,-5.606 0.296,-8.182 -2.496,-3.43 -5.624,-4.252 -8.511,-2.205 l 2.005,2.754 c 1.745,-1.189 3.235,-0.56 4.464,1.128 1.061,1.457 1.068,2.81 0.02,3.574 -0.995,0.724 -1.794,0.001 -4.442,-2.068 -2.087,-1.634 -4.038,-3.231 -6.614,-1.355 -2.293,1.668 -2.388,4.675 -0.241,7.624 1.941,2.666 4.714,3.935 7.578,1.932 z" /></g><g
           transform="translate(293.6411,409.0471)"
           id="g262"><path
             id="path264"
             style="fill:#000000;fill-opacity:1;fill-rule:nonzero;stroke:none"
             d="m 0,0 c -1.23,0.895 -2.508,0.666 -3.705,-0.711 -1.038,-1.194 -1.161,-2.34 -0.315,-3.075 1.028,-0.894 2.208,0.294 4.918,2.072 2.429,1.587 4.41,2.224 6.383,0.507 2.787,-2.423 1.68,-5.771 -0.412,-8.176 -2.783,-3.2 -5.969,-3.75 -8.668,-1.461 l 2.236,2.57 c 1.635,-1.334 3.173,-0.837 4.544,0.738 1.182,1.36 1.306,2.708 0.328,3.559 -0.929,0.808 -1.787,0.156 -4.603,-1.676 -2.221,-1.448 -4.302,-2.87 -6.707,-0.779 -2.139,1.861 -1.975,4.863 0.419,7.616 2.164,2.487 5.036,3.514 7.716,1.27 z" /></g><g
           transform="translate(308.27,408.4612)"
           id="g266"><path
             id="path268"
             style="fill:#000000;fill-opacity:1;fill-rule:nonzero;stroke:none"
             d="m 0,0 -2.425,-2.455 -11.134,10.995 2.424,2.455 z" /></g><g
           transform="translate(306.8228,423.3073)"
           id="g270"><path
             id="path272"
             style="fill:#000000;fill-opacity:1;fill-rule:nonzero;stroke:none"
             d="m 0,0 2.309,-5.743 3.105,2.761 z m 13.641,-3.702 -2.695,-2.394 -3.242,1.795 -4.355,-3.87 1.369,-3.46 -2.63,-2.336 -5.958,15.674 2.645,2.351 z" /></g><g
           transform="translate(312.0034,432.8039)"
           id="g274"><path
             id="path276"
             style="fill:#000000;fill-opacity:1;fill-rule:nonzero;stroke:none"
             d="m 0,0 2.821,2.064 11.389,-4.659 -6.191,8.462 2.66,1.947 9.244,-12.63 -2.768,-2.025 -11.438,4.65 6.205,-8.479 -2.679,-1.961 z" /></g><g
           transform="translate(342.7837,449.0964)"
           id="g278"><path
             id="path280"
             style="fill:#000000;fill-opacity:1;fill-rule:nonzero;stroke:none"
             d="m 0,0 -6.656,-3.683 1.756,-3.174 5.79,3.203 1.32,-2.386 -5.792,-3.203 3.107,-5.618 -3.001,-1.66 -7.576,13.699 9.658,5.343 z" /></g><g
           transform="translate(355.9453,455.1657)"
           id="g282"><path
             id="path284"
             style="fill:#000000;fill-opacity:1;fill-rule:nonzero;stroke:none"
             d="m 0,0 -7.6,-3.407 1.394,-3.108 6.977,3.128 1.106,-2.465 -6.978,-3.128 1.574,-3.51 7.739,3.47 1.178,-2.627 -10.848,-4.863 -6.399,14.276 10.706,4.8 z" /></g><g
           transform="translate(373.7104,447.8977)"
           id="g286"><path
             id="path288"
             style="fill:#000000;fill-opacity:1;fill-rule:nonzero;stroke:none"
             d="m 0,0 -10.453,-3.669 -5.183,14.768 3.236,1.135 4.207,-11.988 7.218,2.533 z" /></g><g
           transform="translate(378.7241,449.2522)"
           id="g290"><path
             id="path292"
             style="fill:#000000;fill-opacity:1;fill-rule:nonzero;stroke:none"
             d="m 0,0 -3.317,-0.947 -4.296,15.045 3.318,0.947 z" /></g><g
           transform="translate(378.123,465.3943)"
           id="g294"><path
             id="path296"
             style="fill:#000000;fill-opacity:1;fill-rule:nonzero;stroke:none"
             d="m 0,0 3.419,0.723 8.471,-8.926 -2.169,10.258 3.225,0.682 3.238,-15.312 -3.355,-0.71 -8.517,8.94 2.173,-10.28 -3.247,-0.688 z" /></g><g
           transform="translate(398.8994,461.3737)"
           id="g298"><path
             id="path300"
             style="fill:#000000;fill-opacity:1;fill-rule:nonzero;stroke:none"
             d="m 0,0 c 0.356,-3.344 2.187,-5.182 4.833,-4.922 2.578,0.274 3.956,2.499 3.601,5.82 C 8.085,4.175 6.252,6.036 3.652,5.759 1.074,5.484 -0.344,3.234 0,0 m 11.894,1.199 c 0.517,-4.85 -2.216,-8.456 -6.782,-8.942 -4.612,-0.49 -8.039,2.437 -8.557,7.309 -0.527,4.939 2.189,8.499 6.843,8.994 4.545,0.484 7.977,-2.488 8.496,-7.361" /></g><g
           transform="translate(424.7422,454.9929)"
           id="g302"><path
             id="path304"
             style="fill:#000000;fill-opacity:1;fill-rule:nonzero;stroke:none"
             d="m 0,0 -11.073,-0.182 -0.257,15.644 3.428,0.056 0.209,-12.7 7.645,0.126 z" /></g><g
           transform="translate(429.7285,462.6145)"
           id="g306"><path
             id="path308"
             style="fill:#000000;fill-opacity:1;fill-rule:nonzero;stroke:none"
             d="M 0,0 C -0.253,-3.353 1.217,-5.49 3.865,-5.712 6.451,-5.907 8.206,-3.968 8.457,-0.638 8.705,2.649 7.237,4.809 4.629,5.005 2.044,5.2 0.244,3.243 0,0 M 11.914,-0.964 C 11.548,-5.828 8.21,-8.883 3.631,-8.537 c -4.623,0.348 -7.467,3.846 -7.099,8.732 0.373,4.952 3.686,7.963 8.353,7.612 4.557,-0.343 7.397,-3.884 7.029,-8.771" /></g><g
           transform="translate(456.7471,451.0984)"
           id="g310"><path
             id="path312"
             style="fill:#000000;fill-opacity:1;fill-rule:nonzero;stroke:none"
             d="M 0,0 -2.142,0.387 -2.148,2.196 C -3.601,0.962 -5.17,0.553 -7.16,0.912 c -4.281,0.773 -6.655,4.573 -5.8,9.309 0.857,4.758 4.572,7.527 9.028,6.723 3.503,-0.632 5.777,-3.254 5.603,-6.572 l -3.266,0.59 c -0.031,1.68 -1.096,2.832 -2.891,3.156 -2.574,0.465 -4.486,-1.222 -5.078,-4.51 -0.606,-3.352 0.599,-5.579 3.281,-6.063 2.12,-0.382 3.845,0.759 4.305,2.819 l -3.438,0.62 0.452,2.509 6.467,-1.167 z" /></g><g
           transform="translate(462.4717,449.5383)"
           id="g314"><path
             id="path316"
             style="fill:#000000;fill-opacity:1;fill-rule:nonzero;stroke:none"
             d="m 0,0 -3.344,0.851 3.858,15.162 3.343,-0.85 z" /></g><g
           transform="translate(471.6729,446.383)"
           id="g318"><path
             id="path320"
             style="fill:#000000;fill-opacity:1;fill-rule:nonzero;stroke:none"
             d="m 0,0 c -4.321,1.429 -6.152,5.485 -4.599,10.183 1.429,4.321 5.324,6.854 9.875,5.349 3.57,-1.18 5.434,-4.298 4.669,-7.449 L 6.751,9.139 c 0.204,1.738 -0.689,3.1 -2.442,3.679 C 1.448,13.764 -0.507,11.563 -1.328,9.078 -2.344,6.009 -1.469,3.543 0.933,2.749 2.895,2.101 4.45,2.882 5.439,4.964 L 8.675,3.894 C 7.141,0.372 4.07,-1.346 0,0" /></g><g
           transform="translate(490.5273,452.1692)"
           id="g322"><path
             id="path324"
             style="fill:#000000;fill-opacity:1;fill-rule:nonzero;stroke:none"
             d="m 0,0 -4.261,-4.486 3.801,-1.677 z m 2.307,-13.94 -3.298,1.454 0.284,3.694 -5.33,2.35 -2.575,-2.683 -3.218,1.419 11.773,11.935 3.239,-1.427 z" /></g><g
           transform="translate(503.3975,432.3503)"
           id="g326"><path
             id="path328"
             style="fill:#000000;fill-opacity:1;fill-rule:nonzero;stroke:none"
             d="M 0,0 -9.713,5.325 -2.19,19.045 0.816,17.397 -5.291,6.26 1.415,2.583 Z" /></g><g
           transform="translate(522.9961,432.3503)"
           id="g330"><path
             id="path332"
             style="fill:#000000;fill-opacity:1;fill-rule:nonzero;stroke:none"
             d="m 0,0 c 0.775,1.309 0.428,2.559 -1.054,3.621 -1.286,0.922 -2.437,0.937 -3.091,0.026 -0.794,-1.107 0.499,-2.17 2.524,-4.702 1.808,-2.268 2.627,-4.181 1.103,-6.305 -2.151,-3.001 -5.588,-2.213 -8.177,-0.357 -3.447,2.47 -4.292,5.591 -2.267,8.491 l 2.768,-1.984 c -1.176,-1.752 -0.537,-3.238 1.16,-4.454 1.464,-1.05 2.818,-1.047 3.573,0.007 0.718,1 -0.012,1.793 -2.1,4.425 -1.649,2.074 -3.259,4.014 -1.404,6.603 1.652,2.303 4.655,2.421 7.62,0.296 2.68,-1.92 3.97,-4.684 1.988,-7.561 z" /></g><g
           transform="translate(528.3682,424.2238)"
           id="g334"><path
             id="path336"
             style="fill:#000000;fill-opacity:1;fill-rule:nonzero;stroke:none"
             d="m 0,0 c -2.209,-2.535 -2.312,-5.127 -0.321,-6.891 1.956,-1.704 4.522,-1.2 6.717,1.318 2.165,2.486 2.282,5.094 0.31,6.813 C 4.751,2.944 2.137,2.452 0,0 M 8.97,-7.904 C 5.765,-11.582 1.263,-12.031 -2.2,-9.015 -5.696,-5.968 -5.881,-1.463 -2.661,2.231 0.602,5.976 5.058,6.406 8.588,3.332 12.034,0.328 12.189,-4.209 8.97,-7.904" /></g><g
           transform="translate(538.0957,403.675)"
           id="g338"><path
             id="path340"
             style="fill:#000000;fill-opacity:1;fill-rule:nonzero;stroke:none"
             d="m 0,0 c -3.109,3.321 -2.776,7.757 0.833,11.137 3.32,3.11 7.951,3.471 11.226,-0.026 2.568,-2.744 2.713,-6.372 0.536,-8.772 l -2.298,2.453 c 1.01,1.43 0.877,3.051 -0.385,4.399 C 7.854,11.388 5.084,10.392 3.176,8.603 0.816,6.395 0.405,3.812 2.133,1.967 3.545,0.459 5.284,0.401 7.149,1.755 L 9.478,-0.731 C 6.445,-3.088 2.93,-3.128 0,0" /></g><g
           transform="translate(546.5635,394.4485)"
           id="g342"><path
             id="path344"
             style="fill:#000000;fill-opacity:1;fill-rule:nonzero;stroke:none"
             d="m 0,0 -2.18,2.675 12.128,9.883 2.18,-2.674 z" /></g><g
           transform="translate(565.6172,390.2297)"
           id="g346"><path
             id="path348"
             style="fill:#000000;fill-opacity:1;fill-rule:nonzero;stroke:none"
             d="m 0,0 -4.845,6.774 -2.771,-1.981 4.45,-6.22 -2.199,-1.573 -4.449,6.22 -3.128,-2.237 4.935,-6.9 -2.341,-1.674 -6.918,9.669 12.726,9.104 6.828,-9.545 z" /></g><g
           transform="translate(573.2305,377.4157)"
           id="g350"><path
             id="path352"
             style="fill:#000000;fill-opacity:1;fill-rule:nonzero;stroke:none"
             d="m 0,0 -2.405,4.043 -10.94,-6.508 -1.764,2.966 10.939,6.509 -2.405,4.044 2.513,1.494 6.576,-11.053 z" /></g><g
           transform="translate(571.667,365.4436)"
           id="g354"><path
             id="path356"
             style="fill:#000000;fill-opacity:1;fill-rule:nonzero;stroke:none"
             d="M 0,0 -5.42,-2.624 -6.895,0.422 -1.416,3.074 4.642,12.5 6.346,8.98 2.298,2.968 9.544,2.373 11.201,-1.048 Z" /></g><g
           transform="translate(581.2578,346.1364)"
           id="g358"><path
             id="path360"
             style="fill:#000000;fill-opacity:1;fill-rule:nonzero;stroke:none"
             d="m 0,0 c -2.035,-0.708 -4.272,0.375 -4.979,2.41 -0.715,2.054 0.375,4.271 2.41,4.979 C -0.536,8.096 1.694,7.034 2.409,4.979 3.116,2.945 2.034,0.707 0,0" /></g></g></g></g></svg>
