<svg
        xmlns:dc="http://purl.org/dc/elements/1.1/"
        xmlns:cc="http://creativecommons.org/ns#"
        xmlns:rdf="http://www.w3.org/1999/02/22-rdf-syntax-ns#"
        xmlns:svg="http://www.w3.org/2000/svg"
        xmlns="http://www.w3.org/2000/svg"
        viewBox="400 150 1450 500"
        height="793.70135"
        width="1122.52"
        xml:space="preserve"
        id="svg2"
        version="1.1"><metadata
     id="metadata8"><rdf:RDF><cc:Work
         rdf:about=""><dc:format>image/svg+xml</dc:format><dc:type
        rdf:resource="http://purl.org/dc/dcmitype/StillImage"/></cc:Work></rdf:RDF></metadata>
    <defs
            id="defs6"><linearGradient
       id="linearGradient34"
       spreadMethod="pad"
       gradientTransform="matrix(417.54474,-90.532822,-90.532822,-417.54474,131.92215,230.55087)"
       gradientUnits="userSpaceOnUse"
       y2="0"
       x2="1"
       y1="0"
       x1="0"><stop
         id="stop24"
         offset="0"
         style="stop-opacity:1;stop-color:#5f1217" /><stop
            id="stop26"
            offset="0.46094288"
            style="stop-opacity:1;stop-color:#e4252d"/><stop
            id="stop28"
            offset="0.527586"
            style="stop-opacity:1;stop-color:#e4252d"/><stop
            id="stop30"
            offset="0.64601782"
            style="stop-opacity:1;stop-color:#e4252d"/><stop
            id="stop32"
            offset="1"
            style="stop-opacity:1;stop-color:#5f1217"/></linearGradient>
        <linearGradient
                id="linearGradient56"
                spreadMethod="pad"
                gradientTransform="matrix(417.72543,-90.572006,-90.572006,-417.72543,180.43475,455.1282)"
                gradientUnits="userSpaceOnUse"
                y2="0"
                x2="1"
                y1="0"
                x1="0"><stop
         id="stop50"
         offset="0"
         style="stop-opacity:1;stop-color:#edecec" />
            <stop
                    id="stop52"
                    offset="0.527586"
                    style="stop-opacity:1;stop-color:#edecec"/>
            <stop
                    id="stop54"
                    offset="1"
                    style="stop-opacity:1;stop-color:#d9d9d9"/></linearGradient>
        <linearGradient
                id="linearGradient82"
                spreadMethod="pad"
                gradientTransform="matrix(417.72287,-90.571449,-90.571449,-417.72287,156.11946,342.99194)"
                gradientUnits="userSpaceOnUse"
                y2="0"
                x2="1"
                y1="0"
                x1="0"><stop
         id="stop72"
         offset="0"
         style="stop-opacity:1;stop-color:#29265b" />
            <stop
                    id="stop74"
                    offset="0.46094288"
                    style="stop-opacity:1;stop-color:#1e72b8"/>
            <stop
                    id="stop76"
                    offset="0.527586"
                    style="stop-opacity:1;stop-color:#1e72b8"/>
            <stop
                    id="stop78"
                    offset="0.64601782"
                    style="stop-opacity:1;stop-color:#1e72b8"/>
            <stop
                    id="stop80"
                    offset="1"
                    style="stop-opacity:1;stop-color:#29265b"/></linearGradient>
        <clipPath
                id="clipPath92"
                clipPathUnits="userSpaceOnUse"><path
         id="path90"
         d="M 0,595.276 H 841.89 V 0 H 0 Z" /></clipPath></defs>
    <g
            transform="matrix(1.3333333,0,0,-1.3333333,0,793.70133)"
            id="g10"><g
       id="g12"><g
         id="g14"><g
           id="g20"><g
             id="g22"><path
               id="path36"
               style="fill:url(#linearGradient34);stroke:none"
               d="m 351.35,234.853 c -17.527,-6.145 -35.059,-12.291 -52.252,-16.895 v 0 c 26.075,-39.696 71,-65.911 122.042,-65.911 v 0 c 48.406,0 91.304,23.569 117.846,59.861 v 0 c -24.15,35.571 -53.435,47.486 -85.299,47.488 v 0 c -32.34,10e-4 -67.336,-12.271 -102.337,-24.543" /></g></g></g></g>
        <g
                id="g38"><g
         id="g40"><g
           id="g46"><g
             id="g48"><path
               id="path58"
               style="fill:url(#linearGradient56);stroke:none"
               d="m 275.864,311.606 c 31.707,4.589 65.687,19.689 99.674,34.79 v 0 c 64.143,28.499 128.291,56.995 177.111,14.832 v 0 c -23.569,48.89 -73.601,82.631 -131.509,82.631 v 0 c -75.978,0 -138.393,-58.072 -145.276,-132.253" /></g></g></g></g>
        <g
                id="g60"><g
         id="g62"><g
           id="g68"><g
             id="g70"><path
               id="path84"
               style="fill:url(#linearGradient82);stroke:none"
               d="m 375.538,346.396 c -33.982,-15.099 -67.971,-30.198 -99.674,-34.789 v 0 c -0.417,-4.495 -0.631,-9.05 -0.631,-13.654 v 0 c 0,-29.539 8.775,-57.023 23.865,-79.996 v 0 c 17.198,4.605 34.72,10.749 52.252,16.896 v 0 c 69.487,24.364 138.975,48.729 187.637,-22.944 v 0 c 17.643,24.123 28.059,53.869 28.059,86.044 v 0 c 0,22.669 -5.17,44.131 -14.395,63.27 v 0 c -17.817,15.392 -37.676,21.37 -58.832,21.37 v 0 c -36.811,10e-4 -77.545,-18.098 -118.281,-36.197" /></g></g></g></g>
        <g
                id="g86"><g
         clip-path="url(#clipPath92)"
         id="g88"><g
           transform="translate(259.1455,324.1848)"
           id="g94"><path
             id="path96"
             style="fill:#000000;fill-opacity:1;fill-rule:nonzero;stroke:none"
             d="m 0,0 -0.452,-3.154 c -0.228,-1.588 0.125,-2.842 1.917,-3.099 1.724,-0.247 2.505,0.845 2.73,2.409 l 0.455,3.177 z m 7.06,-4.532 c -0.501,-3.493 -2.482,-5.686 -6.044,-5.176 -3.517,0.504 -4.791,3.234 -4.327,6.479 L -2.79,0.4 -8.597,1.233 -8.093,4.749 8.059,2.433 Z" /></g><g
                transform="translate(256.9707,309.5505)"
                id="g98"><path
             id="path100"
             style="fill:#000000;fill-opacity:1;fill-rule:nonzero;stroke:none"
             d="m 0,0 c -3.503,0.144 -5.68,-1.464 -5.816,-4.233 -0.112,-2.703 1.972,-4.463 5.452,-4.606 3.435,-0.142 5.635,1.465 5.746,4.191 C 5.494,-1.946 3.389,-0.14 0,0 m -0.581,-12.454 c -5.084,0.209 -8.385,3.579 -8.189,8.365 0.2,4.831 3.744,7.92 8.851,7.71 5.175,-0.213 8.432,-3.559 8.231,-8.436 -0.196,-4.763 -3.787,-7.849 -8.893,-7.639" /></g><g
                transform="translate(248.4424,286.6408)"
                id="g102"><path
             id="path104"
             style="fill:#000000;fill-opacity:1;fill-rule:nonzero;stroke:none"
             d="m 0,0 c -0.306,4.733 2.9,8.086 8.045,8.418 4.734,0.306 8.701,-2.47 9.023,-7.455 0.252,-3.911 -2.033,-6.929 -5.377,-7.42 l -0.226,3.5 c 1.761,0.48 2.727,1.875 2.603,3.796 C 13.866,3.971 10.975,5.002 8.254,4.826 4.892,4.609 2.85,2.802 3.02,0.172 3.159,-1.978 4.521,-3.177 6.919,-3.319 L 7.147,-6.864 C 3.145,-6.756 0.287,-4.46 0,0" /></g><g
                transform="translate(250.5757,268.7014)"
                id="g106"><path
             id="path108"
             style="fill:#000000;fill-opacity:1;fill-rule:nonzero;stroke:none"
             d="m 0,0 c -0.796,4.677 2.043,8.346 7.127,9.211 4.677,0.797 8.913,-1.552 9.751,-6.478 0.658,-3.863 -1.301,-7.102 -4.576,-7.939 L 11.713,-1.75 C 13.414,-1.088 14.23,0.4 13.907,2.298 13.38,5.393 10.397,6.117 7.709,5.659 4.387,5.095 2.543,3.083 2.986,0.484 3.348,-1.639 4.829,-2.688 7.228,-2.583 L 7.825,-6.085 C 3.832,-6.393 0.75,-4.406 0,0" /></g><g
                transform="translate(256.7148,244.8811)"
                id="g110"><path
             id="path112"
             style="fill:#000000;fill-opacity:1;fill-rule:nonzero;stroke:none"
             d="M 0,0 -0.966,3.441 9.933,6.499 9.914,6.565 -2.643,9.42 -3.732,13.304 11.976,17.709 12.941,14.269 2.065,11.218 2.083,11.151 14.619,8.29 15.708,4.406 Z" /></g><g
                transform="translate(281.27,238.6223)"
                id="g114"><path
             id="path116"
             style="fill:#000000;fill-opacity:1;fill-rule:nonzero;stroke:none"
             d="m 0,0 c -2.192,-0.875 -3.625,0.183 -4.448,2.247 -0.823,2.065 -0.511,3.817 1.682,4.691 L -2.291,5.747 C -3.194,5.165 -3.246,4.059 -2.788,2.909 -2.33,1.759 -1.531,0.992 -0.475,1.19 Z m -18.072,-10.608 -1.324,3.321 10.516,4.191 -0.026,0.064 -12.789,1.513 -1.493,3.747 15.156,6.04 1.324,-3.32 -10.496,-4.182 0.027,-0.065 12.767,-1.521 1.493,-3.747 z" /></g><g
                transform="translate(267.9912,217.5734)"
                id="g118"><path
             id="path120"
             style="fill:#000000;fill-opacity:1;fill-rule:nonzero;stroke:none"
             d="m 0,0 c -2.207,4.199 -0.645,8.565 3.918,10.964 4.2,2.206 8.953,1.288 11.277,-3.134 1.823,-3.469 0.964,-7.155 -1.89,-8.966 L 11.674,1.968 C 13.086,3.124 13.4,4.791 12.505,6.494 11.045,9.272 7.985,9.037 5.572,7.769 2.59,6.202 1.461,3.72 2.688,1.387 3.689,-0.52 5.422,-1.059 7.67,-0.214 L 9.322,-3.358 C 5.623,-4.888 2.078,-3.954 0,0" /></g><g
                transform="translate(286.2681,207.048)"
                id="g122"><path
             id="path124"
             style="fill:#000000;fill-opacity:1;fill-rule:nonzero;stroke:none"
             d="m 0,0 -4.352,-11.291 -2.488,3.74 3.364,8.184 -2.873,0.595 -4.388,-2.92 -1.956,2.938 L 0.893,10.285 2.848,7.347 -2.8,3.588 6.404,2.004 8.905,-1.755 Z" /></g><g
                transform="translate(291.3955,197.0871)"
                id="g126"><path
             id="path128"
             style="fill:#000000;fill-opacity:1;fill-rule:nonzero;stroke:none"
             d="M 0,0 C -2.704,-2.233 -3.249,-4.884 -1.5,-7.036 0.223,-9.121 2.948,-9.038 5.634,-6.82 8.284,-4.63 8.847,-1.965 7.11,0.137 5.388,2.223 2.615,2.16 0,0 m 7.887,-9.655 c -3.922,-3.241 -8.631,-2.94 -11.681,0.754 -3.08,3.727 -2.505,8.394 1.434,11.649 C 1.634,6.047 6.292,5.733 9.401,1.97 12.437,-1.705 11.827,-6.4 7.887,-9.655" /></g><g
                transform="translate(313.5439,180.6525)"
                id="g130"><path
             id="path132"
             style="fill:#000000;fill-opacity:1;fill-rule:nonzero;stroke:none"
             d="m 0,0 -6.171,6.114 -2.5,-2.523 5.666,-5.614 -1.984,-2.003 -5.667,5.614 -2.823,-2.85 6.286,-6.226 -2.114,-2.135 -8.809,8.728 L -6.63,10.7 2.065,2.085 Z" /></g><g
                transform="translate(327.1411,168.1096)"
                id="g134"><path
             id="path136"
             style="fill:#000000;fill-opacity:1;fill-rule:nonzero;stroke:none"
             d="m 0,0 -4.55,-6.154 c 1.897,-1.289 3.938,-0.804 5.232,0.947 C 2.058,-3.346 1.843,-1.478 0,0 m -2.838,2.098 c -1.953,1.33 -3.784,0.973 -5.16,-0.888 -1.294,-1.751 -1.178,-3.83 0.609,-5.267 z m -3.306,-10.41 -1.063,-1.436 -2.838,2.098 1.063,1.437 c -3.277,2.622 -4.236,6.181 -1.798,9.48 2.343,3.17 5.972,3.337 9.481,0.914 L -0.345,5.47 2.493,3.372 1.54,2.083 c 3.345,-2.645 4.249,-6.163 1.906,-9.334 -2.439,-3.298 -6.123,-3.424 -9.59,-1.061" /></g><g
                transform="translate(345.9736,157.6711)"
                id="g138"><path
             id="path140"
             style="fill:#000000;fill-opacity:1;fill-rule:nonzero;stroke:none"
             d="m 0,0 -7.486,4.402 -1.8,-3.061 6.873,-4.042 -1.429,-2.429 -6.874,4.042 -2.033,-3.456 7.625,-4.484 -1.522,-2.588 -10.686,6.285 8.271,14.062 10.548,-6.203 z" /></g><g
                transform="translate(354.5791,138.7785)"
                id="g142"><path
             id="path144"
             style="fill:#000000;fill-opacity:1;fill-rule:nonzero;stroke:none"
             d="m 0,0 -3.243,1.506 5.59,12.035 -3.97,1.844 -3.123,-6.181 c -2.096,-4.131 -4.39,-5.314 -6.925,-4.137 -0.582,0.271 -1.345,0.751 -1.713,1.099 l 1.216,2.62 c 0.192,-0.241 0.612,-0.588 1.028,-0.78 0.872,-0.406 1.782,-0.298 3.274,2.698 l 4.431,8.884 10.309,-4.789 z" /></g><g
                transform="translate(371.4907,132.7355)"
                id="g146"><path
             id="path148"
             style="fill:#000000;fill-opacity:1;fill-rule:nonzero;stroke:none"
             d="m 0,0 -3.383,1.162 3.68,10.711 -0.065,0.023 -9.49,-8.715 -3.817,1.311 5.305,15.438 3.383,-1.161 -3.674,-10.691 0.066,-0.021 9.484,8.692 3.815,-1.311 z" /></g><g
                transform="translate(389.0435,128.4797)"
                id="g150"><path
             id="path152"
             style="fill:#000000;fill-opacity:1;fill-rule:nonzero;stroke:none"
             d="m 0,0 -3.484,0.8 1.573,6.857 -6.5,1.491 -1.573,-6.857 -3.484,0.8 3.648,15.902 3.485,-0.799 -1.374,-5.986 6.501,-1.491 1.373,5.987 3.484,-0.801 z" /></g><g
                transform="translate(397.0771,135.5393)"
                id="g154"><path
             id="path156"
             style="fill:#000000;fill-opacity:1;fill-rule:nonzero;stroke:none"
             d="M 0,0 C -0.414,-3.483 1.022,-5.777 3.773,-6.128 6.458,-6.447 8.375,-4.505 8.786,-1.046 9.192,2.369 7.76,4.687 5.051,5.008 2.365,5.327 0.401,3.368 0,0 m 12.374,-1.541 c -0.6,-5.053 -4.215,-8.086 -8.973,-7.52 -4.802,0.572 -7.609,4.344 -7.005,9.419 0.612,5.145 4.199,8.135 9.047,7.558 4.735,-0.562 7.536,-4.381 6.931,-9.457" /></g><g
                transform="translate(424.7959,125.5666)"
                id="g158"><path
             id="path160"
             style="fill:#000000;fill-opacity:1;fill-rule:nonzero;stroke:none"
             d="m 0,0 -3.575,0.062 0.23,13.266 -4.377,0.075 -0.349,-6.916 c -0.24,-4.626 -1.856,-6.637 -4.651,-6.59 -0.642,0.012 -1.534,0.142 -2.012,0.311 l 0.049,2.888 c 0.274,-0.144 0.798,-0.289 1.256,-0.297 0.963,-0.017 1.75,0.45 1.899,3.794 l 0.447,9.917 11.364,-0.196 z" /></g><g
                transform="translate(431.1787,134.1086)"
                id="g162"><path
             id="path164"
             style="fill:#000000;fill-opacity:1;fill-rule:nonzero;stroke:none"
             d="M 0,0 C 0.305,-3.494 2.178,-5.447 4.943,-5.229 7.638,-4.995 9.118,-2.702 8.815,0.769 8.517,4.194 6.642,6.171 3.924,5.934 1.229,5.698 -0.295,3.38 0,0 m 12.43,1.015 c 0.442,-5.07 -2.479,-8.777 -7.252,-9.193 -4.819,-0.421 -8.335,2.702 -8.781,7.794 -0.449,5.161 2.453,8.821 7.318,9.245 4.75,0.414 8.27,-2.753 8.715,-7.846" /></g><g
                transform="translate(456.4453,142.7258)"
                id="g166"><path
             id="path168"
             style="fill:#000000;fill-opacity:1;fill-rule:nonzero;stroke:none"
             d="m 0,0 -7.661,-1.411 2.403,-13.047 -3.514,-0.648 -2.956,16.044 11.176,2.059 z" /></g><g
                transform="translate(474.8418,134.0539)"
                id="g170"><path
             id="path172"
             style="fill:#000000;fill-opacity:1;fill-rule:nonzero;stroke:none"
             d="M 0,0 -3.438,-0.975 -6.526,9.916 -6.593,9.897 -9.414,-2.669 l -3.88,-1.1 -4.449,15.698 3.438,0.974 3.081,-10.868 0.067,0.019 2.828,12.543 3.88,1.1 z" /></g><g
                transform="translate(473.749,146.3244)"
                id="g174"><path
             id="path176"
             style="fill:#000000;fill-opacity:1;fill-rule:nonzero;stroke:none"
             d="M 0,0 -1.589,4.029 1.737,5.341 3.343,1.27 C 4.065,-0.564 4.987,-0.964 6.692,-0.292 7.608,0.07 9.107,0.957 9.563,1.235 L 7.108,7.46 10.434,8.771 16.42,-6.406 13.096,-7.719 10.624,-1.45 C 9.957,-1.886 8.426,-2.81 7.53,-3.163 4.119,-4.509 1.54,-3.9 0,0" /></g><g
                transform="translate(498.6562,159.0432)"
                id="g178"><path
             id="path180"
             style="fill:#000000;fill-opacity:1;fill-rule:nonzero;stroke:none"
             d="m 0,0 -7.745,-3.931 1.606,-3.167 7.112,3.609 1.275,-2.514 -7.111,-3.608 1.815,-3.577 7.888,4.003 1.358,-2.677 -11.055,-5.61 -7.383,14.55 10.912,5.538 z" /></g><g
                transform="translate(514.1768,152.4357)"
                id="g182"><path
             id="path184"
             style="fill:#000000;fill-opacity:1;fill-rule:nonzero;stroke:none"
             d="m 0,0 c -4,-2.55 -8.483,-1.357 -11.254,2.99 -2.55,4.001 -2.031,8.816 2.182,11.5 3.304,2.107 7.051,1.559 9.093,-1.134 l -2.957,-1.885 c -1.27,1.311 -2.957,1.485 -4.581,0.451 -2.647,-1.688 -2.157,-4.717 -0.691,-7.017 1.811,-2.841 4.379,-3.759 6.602,-2.342 1.816,1.158 2.209,2.929 1.179,5.099 L 2.568,9.571 C 4.402,6.012 3.768,2.401 0,0" /></g><g
                transform="translate(523.1514,171.5178)"
                id="g186"><path
             id="path188"
             style="fill:#000000;fill-opacity:1;fill-rule:nonzero;stroke:none"
             d="m 0,0 11.611,-3.399 -3.519,-2.789 -8.433,2.672 -0.353,-2.912 3.273,-4.13 -2.766,-2.192 -10.132,12.786 2.765,2.192 4.213,-5.316 0.816,9.3 3.537,2.804 z" /></g><g
                transform="translate(532.668,177.4533)"
                id="g190"><path
             id="path192"
             style="fill:#000000;fill-opacity:1;fill-rule:nonzero;stroke:none"
             d="M 0,0 C 2.447,-2.51 5.133,-2.836 7.134,-0.917 9.069,0.972 8.764,3.682 6.333,6.175 3.933,8.636 1.231,8.978 -0.722,7.074 -2.657,5.187 -2.368,2.429 0,0 M 8.973,8.653 C 12.523,5.011 12.609,0.294 9.181,-3.049 5.719,-6.424 1.022,-6.234 -2.545,-2.576 -6.16,1.132 -6.23,5.799 -2.735,9.207 0.677,12.534 5.405,12.311 8.973,8.653" /></g><g
                transform="translate(547.2129,200.885)"
                id="g194"><path
             id="path196"
             style="fill:#000000;fill-opacity:1;fill-rule:nonzero;stroke:none"
             d="m 0,0 -5.584,-6.655 2.722,-2.284 5.128,6.111 2.16,-1.812 -5.128,-6.111 3.073,-2.579 5.689,6.779 2.299,-1.929 -7.97,-9.502 -12.504,10.49 7.867,9.378 z" /></g><g
                transform="translate(558.2148,207.4553)"
                id="g198"><path
             id="path200"
             style="fill:#000000;fill-opacity:1;fill-rule:nonzero;stroke:none"
             d="M 0,0 C 2.973,-1.858 5.659,-1.538 7.149,0.801 8.583,3.094 7.643,5.654 4.689,7.501 1.774,9.323 -0.932,9.015 -2.378,6.703 -3.811,4.41 -2.876,1.798 0,0 m 6.668,10.535 c 4.313,-2.698 5.515,-7.26 2.976,-11.32 -2.564,-4.101 -7.171,-5.03 -11.505,-2.321 -4.391,2.745 -5.567,7.264 -2.98,11.403 2.528,4.041 7.175,4.947 11.509,2.238" /></g><g
                transform="translate(569.8047,226.7678)"
                id="g202"><path
             id="path204"
             style="fill:#000000;fill-opacity:1;fill-rule:nonzero;stroke:none"
             d="m 0,0 -1.66,-3.397 4.22,-2.064 1.67,3.417 C 4.985,-0.5 4.893,0.719 3.328,1.484 1.784,2.239 0.704,1.439 0,0 m -2.321,1.67 c 1.44,2.943 4.029,4.483 7.22,2.924 3.232,-1.58 3.638,-4.509 2.087,-7.679 l -3.352,-6.855 -14.657,7.167 5.314,10.869 2.656,-1.298 -3.755,-7.679 2.615,-1.278 z" /></g><g
                transform="translate(591.4365,249.966)"
                id="g206"><path
             id="path208"
             style="fill:#000000;fill-opacity:1;fill-rule:nonzero;stroke:none"
             d="m 0,0 -3.974,1.347 -6.401,-18.89 -15.46,5.239 1.148,3.388 12.572,-4.262 1.744,5.147 -12.572,4.26 1.148,3.388 12.571,-4.262 1.745,5.146 -12.572,4.262 1.149,3.387 12.571,-4.261 0.581,1.715 6.861,-2.326 z" /></g><g
                transform="translate(578.3154,272.216)"
                id="g210"><path
             id="path212"
             style="fill:#000000;fill-opacity:1;fill-rule:nonzero;stroke:none"
             d="m 0,0 -1.753,-8.505 3.479,-0.716 1.609,7.809 2.76,-0.568 -1.609,-7.81 3.928,-0.809 1.784,8.662 2.94,-0.604 -2.5,-12.142 -15.98,3.291 2.469,11.984 z" /></g><g
                transform="translate(593.1494,280.26)"
                id="g214"><path
             id="path216"
             style="fill:#000000;fill-opacity:1;fill-rule:nonzero;stroke:none"
             d="m 0,0 c -0.498,-4.718 -4.223,-7.482 -9.351,-6.942 -4.717,0.497 -8.162,3.902 -7.638,8.871 0.411,3.897 3.174,6.487 6.552,6.408 L -10.805,4.849 C -12.62,4.672 -13.809,3.46 -14.01,1.546 c -0.329,-3.122 2.347,-4.626 5.059,-4.912 3.35,-0.353 5.669,1.085 5.945,3.706 0.226,2.142 -0.916,3.554 -3.256,4.099 L -5.89,7.973 C -1.962,7.189 0.469,4.444 0,0" /></g><g
                transform="translate(580.5088,302.7844)"
                id="g218"><path
             id="path220"
             style="fill:#000000;fill-opacity:1;fill-rule:nonzero;stroke:none"
             d="m 0,0 -0.079,-4.903 13.267,-0.212 -0.057,-3.597 -13.268,0.212 -0.078,-4.904 -3.046,0.049 0.213,13.404 z" /></g><g
                transform="translate(590.5596,308.6648)"
                id="g222"><path
             id="path224"
             style="fill:#000000;fill-opacity:1;fill-rule:nonzero;stroke:none"
             d="M 0,0 -0.279,3.588 C -0.398,5.12 -0.812,6.581 -2.731,6.432 -4.696,6.28 -4.823,4.66 -4.699,3.061 l 0.265,-3.406 z m -6.856,-0.533 -0.252,3.244 c -0.102,1.303 -0.461,2.678 -2.107,2.55 -1.645,-0.129 -1.817,-1.475 -1.71,-2.846 l 0.253,-3.246 z m -6.911,3.715 c -0.222,2.856 0.807,5.282 3.687,5.506 1.577,0.123 2.834,-0.676 3.532,-1.955 0.349,1.728 1.484,3.104 3.745,3.28 3.177,0.248 5.035,-2.068 5.274,-5.13 l 0.633,-8.136 -16.271,-1.266 z" /></g><g
                transform="translate(583.5596,323.925)"
                id="g226"><path
             id="path228"
             style="fill:#000000;fill-opacity:1;fill-rule:nonzero;stroke:none"
             d="M 0,0 C 3.447,0.636 5.214,2.685 4.733,5.416 4.243,8.075 1.822,9.329 -1.604,8.699 -4.982,8.076 -6.771,6.021 -6.277,3.341 -5.787,0.681 -3.335,-0.614 0,0 M -2.19,12.271 C 2.812,13.192 6.777,10.638 7.645,5.928 8.521,1.174 5.748,-2.622 0.723,-3.548 -4.37,-4.486 -8.285,-1.945 -9.17,2.854 c -0.863,4.688 1.954,8.492 6.98,9.417" /></g><g
                transform="translate(421.8604,207.4885)"
                id="g230"><path
             id="path232"
             style="fill:#000000;fill-opacity:1;fill-rule:nonzero;stroke:none"
             d="M 0,0 -18.604,-8.422 0.074,-16.447 18.51,-8.254 Z" /></g><g
                transform="translate(459.3096,330.3425)"
                id="g234"><path
             id="path236"
             style="fill:#000000;fill-opacity:1;fill-rule:nonzero;stroke:none"
             d="M 0,0 48.53,-44.703 V 57.377 L -0.205,-0.023 Z" /></g><g
                transform="translate(383.8213,330.3166)"
                id="g238"><path
             id="path240"
             style="fill:#000000;fill-opacity:1;fill-rule:nonzero;stroke:none"
             d="m 0,0 0.217,-0.032 -49.286,56.869 1.621,-101.559 z" /></g><g
                transform="translate(452.9639,327.8117)"
                id="g242"><path
             id="path244"
             style="fill:#000000;fill-opacity:1;fill-rule:nonzero;stroke:none"
             d="m 0,0 h -61.453 l -54.111,-50.837 13.177,-54.85 44.925,-19.303 23.815,10.647 v 11.578 l -11.478,8.84 -13.289,35.883 -34.138,15.864 2.901,6.243 36.709,-17.058 13.585,-36.685 9.345,-7.196 7.296,5.538 14.827,39.081 35.956,15.358 2.705,-6.332 -33.262,-14.207 -14.489,-38.19 -9.784,-7.427 v -11.221 l 23.688,-10.509 44.24,19.662 13.748,54.463 z" /></g><g
                transform="translate(262.6431,350.9997)"
                id="g246"><path
             id="path248"
             style="fill:#000000;fill-opacity:1;fill-rule:nonzero;stroke:none"
             d="M 0,0 C 2.046,-0.673 3.166,-2.894 2.492,-4.94 1.812,-7.006 -0.401,-8.106 -2.447,-7.433 -4.493,-6.758 -5.62,-4.56 -4.94,-2.493 -4.267,-0.447 -2.046,0.673 0,0" /></g><g
                transform="translate(266.8818,363.6194)"
                id="g250"><path
             id="path252"
             style="fill:#000000;fill-opacity:1;fill-rule:nonzero;stroke:none"
             d="M 0,0 1.381,2.946 C 2.062,4.398 2.411,5.813 0.66,6.634 -0.972,7.4 -1.858,6.237 -2.475,4.923 L -3.921,1.839 Z m -4.511,6.947 c 1.223,2.608 3.414,4.225 6.26,2.891 C 3.401,9.063 4.302,7.621 4.177,5.956 5.232,7.378 7.011,7.03 8.461,6.496 9.394,6.155 11.362,5.28 12.142,5.595 L 10.628,2.371 C 9.744,2.349 8.331,3.011 7.518,3.295 5.475,4.012 4.498,3.741 3.546,1.712 L 2.249,-1.055 7.8,-3.658 6.354,-6.744 -7.816,-0.097 Z" /></g><g
                transform="translate(281.314,385.382)"
                id="g254"><path
             id="path256"
             style="fill:#000000;fill-opacity:1;fill-rule:nonzero;stroke:none"
             d="m 0,0 c 3.835,-2.281 4.562,-5.144 2.225,-9.075 -2.384,-4.005 -5.284,-4.71 -9.12,-2.427 l -8.049,4.789 1.754,2.946 8.048,-4.788 c 2.06,-1.225 3.58,-1.337 4.952,0.968 1.348,2.268 0.382,3.482 -1.602,4.663 l -8.048,4.789 1.753,2.947 z" /></g><g
                transform="translate(284.186,397.5603)"
                id="g258"><path
             id="path260"
             style="fill:#000000;fill-opacity:1;fill-rule:nonzero;stroke:none"
             d="m 0,0 c -1.304,0.786 -2.556,0.448 -3.63,-1.028 -0.932,-1.279 -0.954,-2.43 -0.049,-3.091 1.102,-0.801 2.174,0.484 4.722,2.49 2.283,1.791 4.201,2.596 6.316,1.057 2.985,-2.174 2.172,-5.606 0.296,-8.182 -2.496,-3.43 -5.624,-4.252 -8.511,-2.205 l 2.005,2.754 c 1.745,-1.189 3.235,-0.56 4.464,1.128 1.061,1.457 1.068,2.81 0.02,3.574 -0.995,0.724 -1.794,0.001 -4.442,-2.068 -2.087,-1.634 -4.038,-3.231 -6.614,-1.355 -2.293,1.668 -2.388,4.675 -0.241,7.624 1.941,2.666 4.714,3.935 7.578,1.932 z" /></g><g
                transform="translate(293.6411,409.0471)"
                id="g262"><path
             id="path264"
             style="fill:#000000;fill-opacity:1;fill-rule:nonzero;stroke:none"
             d="m 0,0 c -1.23,0.895 -2.508,0.666 -3.705,-0.711 -1.038,-1.194 -1.161,-2.34 -0.315,-3.075 1.028,-0.894 2.208,0.294 4.918,2.072 2.429,1.587 4.41,2.224 6.383,0.507 2.787,-2.423 1.68,-5.771 -0.412,-8.176 -2.783,-3.2 -5.969,-3.75 -8.668,-1.461 l 2.236,2.57 c 1.635,-1.334 3.173,-0.837 4.544,0.738 1.182,1.36 1.306,2.708 0.328,3.559 -0.929,0.808 -1.787,0.156 -4.603,-1.676 -2.221,-1.448 -4.302,-2.87 -6.707,-0.779 -2.139,1.861 -1.975,4.863 0.419,7.616 2.164,2.487 5.036,3.514 7.716,1.27 z" /></g><g
                transform="translate(308.27,408.4612)"
                id="g266"><path
             id="path268"
             style="fill:#000000;fill-opacity:1;fill-rule:nonzero;stroke:none"
             d="m 0,0 -2.425,-2.455 -11.134,10.995 2.424,2.455 z" /></g><g
                transform="translate(306.8228,423.3073)"
                id="g270"><path
             id="path272"
             style="fill:#000000;fill-opacity:1;fill-rule:nonzero;stroke:none"
             d="m 0,0 2.309,-5.743 3.105,2.761 z m 13.641,-3.702 -2.695,-2.394 -3.242,1.795 -4.355,-3.87 1.369,-3.46 -2.63,-2.336 -5.958,15.674 2.645,2.351 z" /></g><g
                transform="translate(312.0034,432.8039)"
                id="g274"><path
             id="path276"
             style="fill:#000000;fill-opacity:1;fill-rule:nonzero;stroke:none"
             d="m 0,0 2.821,2.064 11.389,-4.659 -6.191,8.462 2.66,1.947 9.244,-12.63 -2.768,-2.025 -11.438,4.65 6.205,-8.479 -2.679,-1.961 z" /></g><g
                transform="translate(342.7837,449.0964)"
                id="g278"><path
             id="path280"
             style="fill:#000000;fill-opacity:1;fill-rule:nonzero;stroke:none"
             d="m 0,0 -6.656,-3.683 1.756,-3.174 5.79,3.203 1.32,-2.386 -5.792,-3.203 3.107,-5.618 -3.001,-1.66 -7.576,13.699 9.658,5.343 z" /></g><g
                transform="translate(355.9453,455.1657)"
                id="g282"><path
             id="path284"
             style="fill:#000000;fill-opacity:1;fill-rule:nonzero;stroke:none"
             d="m 0,0 -7.6,-3.407 1.394,-3.108 6.977,3.128 1.106,-2.465 -6.978,-3.128 1.574,-3.51 7.739,3.47 1.178,-2.627 -10.848,-4.863 -6.399,14.276 10.706,4.8 z" /></g><g
                transform="translate(373.7104,447.8977)"
                id="g286"><path
             id="path288"
             style="fill:#000000;fill-opacity:1;fill-rule:nonzero;stroke:none"
             d="m 0,0 -10.453,-3.669 -5.183,14.768 3.236,1.135 4.207,-11.988 7.218,2.533 z" /></g><g
                transform="translate(378.7241,449.2522)"
                id="g290"><path
             id="path292"
             style="fill:#000000;fill-opacity:1;fill-rule:nonzero;stroke:none"
             d="m 0,0 -3.317,-0.947 -4.296,15.045 3.318,0.947 z" /></g><g
                transform="translate(378.123,465.3943)"
                id="g294"><path
             id="path296"
             style="fill:#000000;fill-opacity:1;fill-rule:nonzero;stroke:none"
             d="m 0,0 3.419,0.723 8.471,-8.926 -2.169,10.258 3.225,0.682 3.238,-15.312 -3.355,-0.71 -8.517,8.94 2.173,-10.28 -3.247,-0.688 z" /></g><g
                transform="translate(398.8994,461.3737)"
                id="g298"><path
             id="path300"
             style="fill:#000000;fill-opacity:1;fill-rule:nonzero;stroke:none"
             d="m 0,0 c 0.356,-3.344 2.187,-5.182 4.833,-4.922 2.578,0.274 3.956,2.499 3.601,5.82 C 8.085,4.175 6.252,6.036 3.652,5.759 1.074,5.484 -0.344,3.234 0,0 m 11.894,1.199 c 0.517,-4.85 -2.216,-8.456 -6.782,-8.942 -4.612,-0.49 -8.039,2.437 -8.557,7.309 -0.527,4.939 2.189,8.499 6.843,8.994 4.545,0.484 7.977,-2.488 8.496,-7.361" /></g><g
                transform="translate(424.7422,454.9929)"
                id="g302"><path
             id="path304"
             style="fill:#000000;fill-opacity:1;fill-rule:nonzero;stroke:none"
             d="m 0,0 -11.073,-0.182 -0.257,15.644 3.428,0.056 0.209,-12.7 7.645,0.126 z" /></g><g
                transform="translate(429.7285,462.6145)"
                id="g306"><path
             id="path308"
             style="fill:#000000;fill-opacity:1;fill-rule:nonzero;stroke:none"
             d="M 0,0 C -0.253,-3.353 1.217,-5.49 3.865,-5.712 6.451,-5.907 8.206,-3.968 8.457,-0.638 8.705,2.649 7.237,4.809 4.629,5.005 2.044,5.2 0.244,3.243 0,0 M 11.914,-0.964 C 11.548,-5.828 8.21,-8.883 3.631,-8.537 c -4.623,0.348 -7.467,3.846 -7.099,8.732 0.373,4.952 3.686,7.963 8.353,7.612 4.557,-0.343 7.397,-3.884 7.029,-8.771" /></g><g
                transform="translate(456.7471,451.0984)"
                id="g310"><path
             id="path312"
             style="fill:#000000;fill-opacity:1;fill-rule:nonzero;stroke:none"
             d="M 0,0 -2.142,0.387 -2.148,2.196 C -3.601,0.962 -5.17,0.553 -7.16,0.912 c -4.281,0.773 -6.655,4.573 -5.8,9.309 0.857,4.758 4.572,7.527 9.028,6.723 3.503,-0.632 5.777,-3.254 5.603,-6.572 l -3.266,0.59 c -0.031,1.68 -1.096,2.832 -2.891,3.156 -2.574,0.465 -4.486,-1.222 -5.078,-4.51 -0.606,-3.352 0.599,-5.579 3.281,-6.063 2.12,-0.382 3.845,0.759 4.305,2.819 l -3.438,0.62 0.452,2.509 6.467,-1.167 z" /></g><g
                transform="translate(462.4717,449.5383)"
                id="g314"><path
             id="path316"
             style="fill:#000000;fill-opacity:1;fill-rule:nonzero;stroke:none"
             d="m 0,0 -3.344,0.851 3.858,15.162 3.343,-0.85 z" /></g><g
                transform="translate(471.6729,446.383)"
                id="g318"><path
             id="path320"
             style="fill:#000000;fill-opacity:1;fill-rule:nonzero;stroke:none"
             d="m 0,0 c -4.321,1.429 -6.152,5.485 -4.599,10.183 1.429,4.321 5.324,6.854 9.875,5.349 3.57,-1.18 5.434,-4.298 4.669,-7.449 L 6.751,9.139 c 0.204,1.738 -0.689,3.1 -2.442,3.679 C 1.448,13.764 -0.507,11.563 -1.328,9.078 -2.344,6.009 -1.469,3.543 0.933,2.749 2.895,2.101 4.45,2.882 5.439,4.964 L 8.675,3.894 C 7.141,0.372 4.07,-1.346 0,0" /></g><g
                transform="translate(490.5273,452.1692)"
                id="g322"><path
             id="path324"
             style="fill:#000000;fill-opacity:1;fill-rule:nonzero;stroke:none"
             d="m 0,0 -4.261,-4.486 3.801,-1.677 z m 2.307,-13.94 -3.298,1.454 0.284,3.694 -5.33,2.35 -2.575,-2.683 -3.218,1.419 11.773,11.935 3.239,-1.427 z" /></g><g
                transform="translate(503.3975,432.3503)"
                id="g326"><path
             id="path328"
             style="fill:#000000;fill-opacity:1;fill-rule:nonzero;stroke:none"
             d="M 0,0 -9.713,5.325 -2.19,19.045 0.816,17.397 -5.291,6.26 1.415,2.583 Z" /></g><g
                transform="translate(522.9961,432.3503)"
                id="g330"><path
             id="path332"
             style="fill:#000000;fill-opacity:1;fill-rule:nonzero;stroke:none"
             d="m 0,0 c 0.775,1.309 0.428,2.559 -1.054,3.621 -1.286,0.922 -2.437,0.937 -3.091,0.026 -0.794,-1.107 0.499,-2.17 2.524,-4.702 1.808,-2.268 2.627,-4.181 1.103,-6.305 -2.151,-3.001 -5.588,-2.213 -8.177,-0.357 -3.447,2.47 -4.292,5.591 -2.267,8.491 l 2.768,-1.984 c -1.176,-1.752 -0.537,-3.238 1.16,-4.454 1.464,-1.05 2.818,-1.047 3.573,0.007 0.718,1 -0.012,1.793 -2.1,4.425 -1.649,2.074 -3.259,4.014 -1.404,6.603 1.652,2.303 4.655,2.421 7.62,0.296 2.68,-1.92 3.97,-4.684 1.988,-7.561 z" /></g><g
                transform="translate(528.3682,424.2238)"
                id="g334"><path
             id="path336"
             style="fill:#000000;fill-opacity:1;fill-rule:nonzero;stroke:none"
             d="m 0,0 c -2.209,-2.535 -2.312,-5.127 -0.321,-6.891 1.956,-1.704 4.522,-1.2 6.717,1.318 2.165,2.486 2.282,5.094 0.31,6.813 C 4.751,2.944 2.137,2.452 0,0 M 8.97,-7.904 C 5.765,-11.582 1.263,-12.031 -2.2,-9.015 -5.696,-5.968 -5.881,-1.463 -2.661,2.231 0.602,5.976 5.058,6.406 8.588,3.332 12.034,0.328 12.189,-4.209 8.97,-7.904" /></g><g
                transform="translate(538.0957,403.675)"
                id="g338"><path
             id="path340"
             style="fill:#000000;fill-opacity:1;fill-rule:nonzero;stroke:none"
             d="m 0,0 c -3.109,3.321 -2.776,7.757 0.833,11.137 3.32,3.11 7.951,3.471 11.226,-0.026 2.568,-2.744 2.713,-6.372 0.536,-8.772 l -2.298,2.453 c 1.01,1.43 0.877,3.051 -0.385,4.399 C 7.854,11.388 5.084,10.392 3.176,8.603 0.816,6.395 0.405,3.812 2.133,1.967 3.545,0.459 5.284,0.401 7.149,1.755 L 9.478,-0.731 C 6.445,-3.088 2.93,-3.128 0,0" /></g><g
                transform="translate(546.5635,394.4485)"
                id="g342"><path
             id="path344"
             style="fill:#000000;fill-opacity:1;fill-rule:nonzero;stroke:none"
             d="m 0,0 -2.18,2.675 12.128,9.883 2.18,-2.674 z" /></g><g
                transform="translate(565.6172,390.2297)"
                id="g346"><path
             id="path348"
             style="fill:#000000;fill-opacity:1;fill-rule:nonzero;stroke:none"
             d="m 0,0 -4.845,6.774 -2.771,-1.981 4.45,-6.22 -2.199,-1.573 -4.449,6.22 -3.128,-2.237 4.935,-6.9 -2.341,-1.674 -6.918,9.669 12.726,9.104 6.828,-9.545 z" /></g><g
                transform="translate(573.2305,377.4157)"
                id="g350"><path
             id="path352"
             style="fill:#000000;fill-opacity:1;fill-rule:nonzero;stroke:none"
             d="m 0,0 -2.405,4.043 -10.94,-6.508 -1.764,2.966 10.939,6.509 -2.405,4.044 2.513,1.494 6.576,-11.053 z" /></g><g
                transform="translate(571.667,365.4436)"
                id="g354"><path
             id="path356"
             style="fill:#000000;fill-opacity:1;fill-rule:nonzero;stroke:none"
             d="M 0,0 -5.42,-2.624 -6.895,0.422 -1.416,3.074 4.642,12.5 6.346,8.98 2.298,2.968 9.544,2.373 11.201,-1.048 Z" /></g><g
                transform="translate(581.2578,346.1364)"
                id="g358"><path
             id="path360"
             style="fill:#000000;fill-opacity:1;fill-rule:nonzero;stroke:none"
             d="m 0,0 c -2.035,-0.708 -4.272,0.375 -4.979,2.41 -0.715,2.054 0.375,4.271 2.41,4.979 C -0.536,8.096 1.694,7.034 2.409,4.979 3.116,2.945 2.034,0.707 0,0" /></g></g></g></g>
<g transform="translate(850,235)">
    <path d="M20.1562 58.8438L16.125 82H0.09375L11.9062 13.75L36.4219 13.7969C44.0156 13.7969 49.9844 15.9062 54.3281 20.125C58.7031 24.3438 60.625 29.8125 60.0938 36.5312C59.7188 41.125 58.25 45.1094 55.6875 48.4844C53.125 51.8594 49.7344 54.4375 45.5156 56.2188C41.3281 58 36.625 58.8906 31.4062 58.8906L20.1562 58.8438ZM22.3594 46.1406L32.0156 46.2344C36.0781 46.1406 39.1875 44.8281 41.3438 42.2969C43.5 39.7344 44.3594 36.5938 43.9219 32.875C43.6719 30.9687 42.9375 29.4687 41.7188 28.375C40.5312 27.25 38.9531 26.625 36.9844 26.5L25.7812 26.4531L22.3594 46.1406ZM89.6875 30.3438C94.2188 30.4062 98.1406 31.5469 101.453 33.7656C104.766 35.9531 107.188 39.0156 108.719 42.9531C110.281 46.8906 110.844 51.2656 110.406 56.0781L110.312 57.1094C109.438 64.8906 106.547 71.1719 101.641 75.9531C96.7344 80.7344 90.6719 83.0625 83.4531 82.9375C78.9531 82.875 75.0625 81.7656 71.7812 79.6094C68.5 77.4219 66.0625 74.375 64.4688 70.4688C62.9062 66.5625 62.3438 62.2188 62.7812 57.4375C63.5625 49.125 66.4062 42.5 71.3125 37.5625C76.25 32.625 82.375 30.2187 89.6875 30.3438ZM78.2031 57.4375L78.0625 60.2031C77.625 67.1719 79.75 70.7188 84.4375 70.8438C90.5 71.0312 94.0156 66.1094 94.9844 56.0781L95.1719 51.8125C95.2344 49 94.7031 46.7656 93.5781 45.1094C92.4844 43.4219 90.8594 42.5469 88.7031 42.4844C85.8594 42.3906 83.5156 43.5625 81.6719 46C79.8594 48.4062 78.7031 52.2188 78.2031 57.4375ZM136.625 70.7969C138.844 70.8594 140.578 70.25 141.828 68.9688C143.078 67.6562 143.875 65.9688 144.219 63.9062L158.656 63.8594C158.469 67.5781 157.359 70.9062 155.328 73.8438C153.328 76.7812 150.609 79.0625 147.172 80.6875C143.766 82.2812 140.109 83.0312 136.203 82.9375C129.453 82.8125 124.25 80.3906 120.594 75.6719C116.938 70.9219 115.453 64.7969 116.141 57.2969L116.281 56.1719C116.844 51.0469 118.281 46.5156 120.594 42.5781C122.906 38.6094 125.938 35.5469 129.688 33.3906C133.469 31.2344 137.688 30.2187 142.344 30.3438C148.25 30.4688 152.906 32.3594 156.312 36.0156C159.75 39.6406 161.406 44.5469 161.281 50.7344L146.844 50.6875C147 45.3125 145.078 42.5781 141.078 42.4844C135.641 42.2969 132.516 46.875 131.703 56.2188L131.281 61L131.234 62.7812C131.234 68.0312 133.031 70.7031 136.625 70.7969ZM185.719 70.7969C187.938 70.8594 189.672 70.25 190.922 68.9688C192.172 67.6562 192.969 65.9688 193.312 63.9062L207.75 63.8594C207.562 67.5781 206.453 70.9062 204.422 73.8438C202.422 76.7812 199.703 79.0625 196.266 80.6875C192.859 82.2812 189.203 83.0312 185.297 82.9375C178.547 82.8125 173.344 80.3906 169.688 75.6719C166.031 70.9219 164.547 64.7969 165.234 57.2969L165.375 56.1719C165.938 51.0469 167.375 46.5156 169.688 42.5781C172 38.6094 175.031 35.5469 178.781 33.3906C182.562 31.2344 186.781 30.2187 191.438 30.3438C197.344 30.4688 202 32.3594 205.406 36.0156C208.844 39.6406 210.5 44.5469 210.375 50.7344L195.938 50.6875C196.094 45.3125 194.172 42.5781 190.172 42.4844C184.734 42.2969 181.609 46.875 180.797 56.2188L180.375 61L180.328 62.7812C180.328 68.0312 182.125 70.7031 185.719 70.7969ZM248.406 31.2812H264.203L255.391 82H239.922L244.938 53.4531L226.891 82H211L219.812 31.2812H235.328L230.359 59.7344L248.406 31.2812ZM301.344 31.2812H317.141L308.328 82H292.859L297.875 53.4531L279.828 82H263.938L272.75 31.2812H288.266L283.297 59.7344L301.344 31.2812ZM315.219 9.8125C315.031 14.2812 313.266 17.8437 309.922 20.5C306.609 23.1563 302.5 24.4219 297.594 24.2969C292.938 24.2344 289.141 22.9062 286.203 20.3125C283.297 17.6875 281.812 14.1875 281.75 9.8125L292.156 9.90625C292.094 13.7813 293.906 15.7812 297.594 15.9062C299.562 15.9375 301.156 15.4219 302.375 14.3594C303.625 13.2656 304.422 11.7812 304.766 9.90625L315.219 9.8125ZM340.688 70.7969C342.906 70.8594 344.641 70.25 345.891 68.9688C347.141 67.6562 347.938 65.9688 348.281 63.9062L362.719 63.8594C362.531 67.5781 361.422 70.9062 359.391 73.8438C357.391 76.7812 354.672 79.0625 351.234 80.6875C347.828 82.2812 344.172 83.0312 340.266 82.9375C333.516 82.8125 328.312 80.3906 324.656 75.6719C321 70.9219 319.516 64.7969 320.203 57.2969L320.344 56.1719C320.906 51.0469 322.344 46.5156 324.656 42.5781C326.969 38.6094 330 35.5469 333.75 33.3906C337.531 31.2344 341.75 30.2187 346.406 30.3438C352.312 30.4688 356.969 32.3594 360.375 36.0156C363.812 39.6406 365.469 44.5469 365.344 50.7344L350.906 50.6875C351.062 45.3125 349.141 42.5781 345.141 42.4844C339.703 42.2969 336.578 46.875 335.766 56.2188L335.344 61L335.297 62.7812C335.297 68.0312 337.094 70.7031 340.688 70.7969ZM390.719 64.2812H385.844L382.75 82H367.328L376.094 31.2812H391.562L388.375 49.5156H392.359L403.375 31.2812L423.906 31.3281L404.547 54.7188L404.828 54.6719L415.891 82H395.594L390.719 64.2812ZM447.312 30.3438C451.844 30.4062 455.766 31.5469 459.078 33.7656C462.391 35.9531 464.812 39.0156 466.344 42.9531C467.906 46.8906 468.469 51.2656 468.031 56.0781L467.938 57.1094C467.062 64.8906 464.172 71.1719 459.266 75.9531C454.359 80.7344 448.297 83.0625 441.078 82.9375C436.578 82.875 432.688 81.7656 429.406 79.6094C426.125 77.4219 423.688 74.375 422.094 70.4688C420.531 66.5625 419.969 62.2188 420.406 57.4375C421.188 49.125 424.031 42.5 428.938 37.5625C433.875 32.625 440 30.2187 447.312 30.3438ZM435.828 57.4375L435.688 60.2031C435.25 67.1719 437.375 70.7188 442.062 70.8438C448.125 71.0312 451.641 66.1094 452.609 56.0781L452.797 51.8125C452.859 49 452.328 46.7656 451.203 45.1094C450.109 43.4219 448.484 42.5469 446.328 42.4844C443.484 42.3906 441.141 43.5625 439.297 46C437.484 48.4062 436.328 52.2188 435.828 57.4375ZM495.984 82.9375C491.453 82.9062 487.406 81.8438 483.844 79.75C480.312 77.625 477.641 74.6875 475.828 70.9375C474.016 67.1562 473.297 63 473.672 58.4688L473.812 57.1562C474.656 48.8125 477.547 42.2188 482.484 37.375C487.453 32.5 493.531 30.1562 500.719 30.3438C505.062 30.4062 508.781 31.5156 511.875 33.6719C514.969 35.7969 517.234 38.75 518.672 42.5312C520.109 46.2812 520.578 50.5 520.078 55.1875L519.188 61.6094H489C489.062 64.2656 489.812 66.4219 491.25 68.0781C492.688 69.7344 494.781 70.6094 497.531 70.7031C502 70.8281 506.016 69.1094 509.578 65.5469L516.047 74.125C514.141 76.8438 511.469 78.9844 508.031 80.5469C504.625 82.0781 500.891 82.875 496.828 82.9375H495.984ZM499.734 42.4844C497.547 42.4219 495.641 43.1094 494.016 44.5469C492.422 45.9844 491.031 48.3906 489.844 51.7656H505.266L505.547 50.4062C505.734 49.3125 505.766 48.2812 505.641 47.3125C505.109 44.1875 503.141 42.5781 499.734 42.4844ZM52.5938 132.703L52.875 132.656C58 132.562 62.4688 133.844 66.2812 136.5C70.125 139.156 72.9219 142.844 74.6719 147.562C76.2031 151.75 76.7344 156.203 76.2656 160.922C75.7344 166.359 74 171.281 71.0625 175.688C68.125 180.062 64.3125 183.438 59.625 185.812C54.9688 188.156 49.9219 189.266 44.4844 189.141H43.5938L41.7188 197.812H26.25L28.1719 189.094H27.9375C23 189.188 18.625 188.047 14.8125 185.672C11 183.266 8.15625 179.938 6.28125 175.688C4.40625 171.406 3.71875 166.75 4.21875 161.719C4.75 156.188 6.48438 151.172 9.42188 146.672C12.3906 142.141 16.2344 138.641 20.9531 136.172C25.7031 133.672 30.8125 132.484 36.2812 132.609H37.1719L39.0938 123.938L54.1406 123.891L52.5938 132.703ZM19.3125 167.016C19.6562 169.578 20.6094 171.641 22.1719 173.203C23.7344 174.766 25.7812 175.672 28.3125 175.922L29.6719 176.016L35.5781 145.641C31.7344 145.641 28.4375 146.797 25.6875 149.109C22.9375 151.391 21.0156 154.594 19.9219 158.719C19.1719 161.594 18.9688 164.359 19.3125 167.016ZM51.0938 145.734L45.2812 176.109C48.6875 176.109 51.6562 175.234 54.1875 173.484C56.7188 171.703 58.625 169.203 59.9062 165.984C61.1875 162.766 61.6562 159.281 61.3125 155.531C61.0625 152.719 60.1406 150.453 58.5469 148.734C56.9531 146.984 54.7656 146 51.9844 145.781L51.0938 145.734ZM103.328 195.938C98.7969 195.906 94.75 194.844 91.1875 192.75C87.6562 190.625 84.9844 187.688 83.1719 183.938C81.3594 180.156 80.6406 176 81.0156 171.469L81.1562 170.156C82 161.812 84.8906 155.219 89.8281 150.375C94.7969 145.5 100.875 143.156 108.062 143.344C112.406 143.406 116.125 144.516 119.219 146.672C122.312 148.797 124.578 151.75 126.016 155.531C127.453 159.281 127.922 163.5 127.422 168.188L126.531 174.609H96.3438C96.4062 177.266 97.1562 179.422 98.5938 181.078C100.031 182.734 102.125 183.609 104.875 183.703C109.344 183.828 113.359 182.109 116.922 178.547L123.391 187.125C121.484 189.844 118.812 191.984 115.375 193.547C111.969 195.078 108.234 195.875 104.172 195.938H103.328ZM107.078 155.484C104.891 155.422 102.984 156.109 101.359 157.547C99.7656 158.984 98.375 161.391 97.1875 164.766H112.609L112.891 163.406C113.078 162.312 113.109 161.281 112.984 160.312C112.453 157.188 110.484 155.578 107.078 155.484ZM182.375 144.281L173.562 195H158.141L164.844 156.469H155.797L151.859 174.656C150.172 181.562 147.703 186.656 144.453 189.938C141.234 193.188 137.234 194.875 132.453 195H125.891L127.484 182.953L128.891 182.859C133.078 182.453 136.031 178.812 137.75 171.938L143.422 144.281H182.375ZM219.656 144.281H235.453L226.641 195H211.172L216.188 166.453L198.141 195H182.25L191.062 144.281H206.578L201.609 172.734L219.656 144.281ZM279.391 195H263.922L267.203 176.203H253.891L250.609 195H235.188L244 144.281H259.422L256 164.062H269.312L272.734 144.281H288.203L279.391 195ZM318.031 143.344C322.562 143.406 326.484 144.547 329.797 146.766C333.109 148.953 335.531 152.016 337.062 155.953C338.625 159.891 339.188 164.266 338.75 169.078L338.656 170.109C337.781 177.891 334.891 184.172 329.984 188.953C325.078 193.734 319.016 196.062 311.797 195.938C307.297 195.875 303.406 194.766 300.125 192.609C296.844 190.422 294.406 187.375 292.812 183.469C291.25 179.562 290.688 175.219 291.125 170.438C291.906 162.125 294.75 155.5 299.656 150.562C304.594 145.625 310.719 143.219 318.031 143.344ZM306.547 170.438L306.406 173.203C305.969 180.172 308.094 183.719 312.781 183.844C318.844 184.031 322.359 179.109 323.328 169.078L323.516 164.812C323.578 162 323.047 159.766 321.922 158.109C320.828 156.422 319.203 155.547 317.047 155.484C314.203 155.391 311.859 156.562 310.016 159C308.203 161.406 307.047 165.219 306.547 170.438ZM393.562 144.281L384.75 195H369.328L376.031 156.469H366.984L363.047 174.656C361.359 181.562 358.891 186.656 355.641 189.938C352.422 193.188 348.422 194.875 343.641 195H337.078L338.672 182.953L340.078 182.859C344.266 182.453 347.219 178.812 348.938 171.938L354.609 144.281H393.562ZM423.344 143.344C427.875 143.406 431.797 144.547 435.109 146.766C438.422 148.953 440.844 152.016 442.375 155.953C443.938 159.891 444.5 164.266 444.062 169.078L443.969 170.109C443.094 177.891 440.203 184.172 435.297 188.953C430.391 193.734 424.328 196.062 417.109 195.938C412.609 195.875 408.719 194.766 405.438 192.609C402.156 190.422 399.719 187.375 398.125 183.469C396.562 179.562 396 175.219 396.438 170.438C397.219 162.125 400.062 155.5 404.969 150.562C409.906 145.625 416.031 143.219 423.344 143.344ZM411.859 170.438L411.719 173.203C411.281 180.172 413.406 183.719 418.094 183.844C424.156 184.031 427.672 179.109 428.641 169.078L428.828 164.812C428.891 162 428.359 159.766 427.234 158.109C426.141 156.422 424.516 155.547 422.359 155.484C419.516 155.391 417.172 156.562 415.328 159C413.516 161.406 412.359 165.219 411.859 170.438ZM488 156.469H468.641L461.938 195H446.469L455.281 144.281H490.156L488 156.469ZM523.594 144.281H539.391L530.578 195H515.109L520.125 166.453L502.078 195H486.188L495 144.281H510.516L505.547 172.734L523.594 144.281ZM583.703 195H568.141L571.281 179.672C569.844 179.984 568.453 180.141 567.109 180.141C559.766 180.203 554.141 178.5 550.234 175.031C546.328 171.562 544.703 166.766 545.359 160.641L547.984 144.281H563.406L560.734 160.688C560.547 162.125 560.547 163.312 560.734 164.25C560.984 165.531 561.641 166.469 562.703 167.062C563.766 167.625 565.453 167.938 567.766 168C568.953 168.031 570.562 167.938 572.594 167.719L577 144.281H592.469L583.703 195ZM617.328 195.938C612.797 195.906 608.75 194.844 605.188 192.75C601.656 190.625 598.984 187.688 597.172 183.938C595.359 180.156 594.641 176 595.016 171.469L595.156 170.156C596 161.812 598.891 155.219 603.828 150.375C608.797 145.5 614.875 143.156 622.062 143.344C626.406 143.406 630.125 144.516 633.219 146.672C636.312 148.797 638.578 151.75 640.016 155.531C641.453 159.281 641.922 163.5 641.422 168.188L640.531 174.609H610.344C610.406 177.266 611.156 179.422 612.594 181.078C614.031 182.734 616.125 183.609 618.875 183.703C623.344 183.828 627.359 182.109 630.922 178.547L637.391 187.125C635.484 189.844 632.812 191.984 629.375 193.547C625.969 195.078 622.234 195.875 618.172 195.938H617.328ZM621.078 155.484C618.891 155.422 616.984 156.109 615.359 157.547C613.766 158.984 612.375 161.391 611.188 164.766H626.609L626.891 163.406C627.078 162.312 627.109 161.281 626.984 160.312C626.453 157.188 624.484 155.578 621.078 155.484ZM667.031 183.797C669.25 183.859 670.984 183.25 672.234 181.969C673.484 180.656 674.281 178.969 674.625 176.906L689.062 176.859C688.875 180.578 687.766 183.906 685.734 186.844C683.734 189.781 681.016 192.062 677.578 193.688C674.172 195.281 670.516 196.031 666.609 195.938C659.859 195.812 654.656 193.391 651 188.672C647.344 183.922 645.859 177.797 646.547 170.297L646.688 169.172C647.25 164.047 648.688 159.516 651 155.578C653.312 151.609 656.344 148.547 660.094 146.391C663.875 144.234 668.094 143.219 672.75 143.344C678.656 143.469 683.312 145.359 686.719 149.016C690.156 152.641 691.812 157.547 691.688 163.734L677.25 163.688C677.406 158.312 675.484 155.578 671.484 155.484C666.047 155.297 662.922 159.875 662.109 169.219L661.688 174L661.641 175.781C661.641 181.031 663.438 183.703 667.031 183.797ZM717.062 177.281H712.188L709.094 195H693.672L702.438 144.281H717.906L714.719 162.516H718.703L729.719 144.281L750.25 144.328L730.891 167.719L731.172 167.672L742.234 195H721.938L717.062 177.281ZM773.656 143.344C778.188 143.406 782.109 144.547 785.422 146.766C788.734 148.953 791.156 152.016 792.688 155.953C794.25 159.891 794.812 164.266 794.375 169.078L794.281 170.109C793.406 177.891 790.516 184.172 785.609 188.953C780.703 193.734 774.641 196.062 767.422 195.938C762.922 195.875 759.031 194.766 755.75 192.609C752.469 190.422 750.031 187.375 748.438 183.469C746.875 179.562 746.312 175.219 746.75 170.438C747.531 162.125 750.375 155.5 755.281 150.562C760.219 145.625 766.344 143.219 773.656 143.344ZM762.172 170.438L762.031 173.203C761.594 180.172 763.719 183.719 768.406 183.844C774.469 184.031 777.984 179.109 778.953 169.078L779.141 164.812C779.203 162 778.672 159.766 777.547 158.109C776.453 156.422 774.828 155.547 772.672 155.484C769.828 155.391 767.484 156.562 765.641 159C763.828 161.406 762.672 165.219 762.172 170.438ZM822.328 195.938C817.797 195.906 813.75 194.844 810.188 192.75C806.656 190.625 803.984 187.688 802.172 183.938C800.359 180.156 799.641 176 800.016 171.469L800.156 170.156C801 161.812 803.891 155.219 808.828 150.375C813.797 145.5 819.875 143.156 827.062 143.344C831.406 143.406 835.125 144.516 838.219 146.672C841.312 148.797 843.578 151.75 845.016 155.531C846.453 159.281 846.922 163.5 846.422 168.188L845.531 174.609H815.344C815.406 177.266 816.156 179.422 817.594 181.078C819.031 182.734 821.125 183.609 823.875 183.703C828.344 183.828 832.359 182.109 835.922 178.547L842.391 187.125C840.484 189.844 837.812 191.984 834.375 193.547C830.969 195.078 827.234 195.875 823.172 195.938H822.328ZM826.078 155.484C823.891 155.422 821.984 156.109 820.359 157.547C818.766 158.984 817.375 161.391 816.188 164.766H831.609L831.891 163.406C832.078 162.312 832.109 161.281 831.984 160.312C831.453 157.188 829.484 155.578 826.078 155.484ZM28.2656 307.938C21.1719 307.781 15.4844 305.438 11.2031 300.906C6.92188 296.375 4.5 290.312 3.9375 282.719C3.625 278.969 3.92188 274.562 4.82812 269.5C5.73438 264.406 7.34375 259.719 9.65625 255.438C11.9688 251.156 14.8594 247.594 18.3281 244.75C24.1406 239.969 30.8281 237.656 38.3906 237.812C43.0469 237.906 47.1094 238.984 50.5781 241.047C54.0781 243.078 56.875 246.016 58.9688 249.859C61.0625 253.703 62.2812 258.078 62.625 262.984C62.875 266.453 62.6562 270.406 61.9688 274.844C61.3125 279.25 60.0781 283.469 58.2656 287.5C56.4844 291.5 54.1719 295.031 51.3281 298.094C48.4844 301.156 45.125 303.594 41.25 305.406C37.4062 307.188 33.0781 308.031 28.2656 307.938ZM46.5469 262.844C46.2344 255.031 43.2031 250.969 37.4531 250.656C33.0156 250.438 29.3438 252.203 26.4375 255.953C23.5312 259.672 21.6094 265.172 20.6719 272.453C20.0781 276.953 19.8594 280.438 20.0156 282.906C20.3281 290.844 23.3906 294.922 29.2031 295.141C33.0156 295.328 36.2969 293.969 39.0469 291.062C41.7969 288.125 43.7812 283.875 45 278.312C46.2188 272.719 46.7344 267.562 46.5469 262.844ZM97.6094 259.141C103.766 259.266 108.469 261.547 111.719 265.984C114.969 270.422 116.312 276.078 115.75 282.953C115.031 290.766 112.203 296.938 107.266 301.469C102.328 305.969 96.25 308.156 89.0312 308.031C84.3438 307.906 80.3594 306.688 77.0781 304.375C73.7969 302.062 71.4062 298.859 69.9062 294.766C68.4062 290.672 67.9219 286.156 68.4531 281.219L68.5938 280.234V280.047L69.0625 276.766C70.7812 265.922 73.9062 257.438 78.4375 251.312C82.9688 245.156 88.8594 241.266 96.1094 239.641L99.2969 238.984C103.109 238.172 105.266 236.453 105.766 233.828H118.234C118.078 238.516 116.562 242.234 113.688 244.984C110.812 247.734 105.766 249.766 98.5469 251.078C95.0469 251.703 92.0469 253.094 89.5469 255.25C87.0781 257.375 84.875 260.594 82.9375 264.906C87.4375 260.938 92.3281 259.016 97.6094 259.141ZM93.7656 271.234C90.9219 271.141 88.5938 272.156 86.7812 274.281C85 276.406 83.9062 279.359 83.5 283.141L83.4531 284.125C83.3281 285.438 83.2969 286.766 83.3594 288.109C83.4219 290.484 84.0156 292.359 85.1406 293.734C86.2656 295.109 87.875 295.812 89.9688 295.844C92.8125 295.938 95.1406 294.922 96.9531 292.797C98.7969 290.641 99.9219 287.359 100.328 282.953L100.422 278.969C100.297 276.531 99.6719 274.641 98.5469 273.297C97.4219 271.953 95.8281 271.266 93.7656 271.234ZM142.109 256.281L135.406 294.812H146.844L153.547 256.281H169.016L162.359 294.812H173.75L180.453 256.281H195.875L189.172 294.906H200.422L194.797 322.047H180.266L182.891 307H117.875L126.688 256.281H142.109ZM230.391 307.938C225.859 307.906 221.812 306.844 218.25 304.75C214.719 302.625 212.047 299.688 210.234 295.938C208.422 292.156 207.703 288 208.078 283.469L208.219 282.156C209.062 273.812 211.953 267.219 216.891 262.375C221.859 257.5 227.938 255.156 235.125 255.344C239.469 255.406 243.188 256.516 246.281 258.672C249.375 260.797 251.641 263.75 253.078 267.531C254.516 271.281 254.984 275.5 254.484 280.188L253.594 286.609H223.406C223.469 289.266 224.219 291.422 225.656 293.078C227.094 294.734 229.188 295.609 231.938 295.703C236.406 295.828 240.422 294.109 243.984 290.547L250.453 299.125C248.547 301.844 245.875 303.984 242.438 305.547C239.031 307.078 235.297 307.875 231.234 307.938H230.391ZM234.141 267.484C231.953 267.422 230.047 268.109 228.422 269.547C226.828 270.984 225.438 273.391 224.25 276.766H239.672L239.953 275.406C240.141 274.312 240.172 273.281 240.047 272.312C239.516 269.188 237.547 267.578 234.141 267.484ZM280.094 295.797C282.312 295.859 284.047 295.25 285.297 293.969C286.547 292.656 287.344 290.969 287.688 288.906L302.125 288.859C301.938 292.578 300.828 295.906 298.797 298.844C296.797 301.781 294.078 304.062 290.641 305.688C287.234 307.281 283.578 308.031 279.672 307.938C272.922 307.812 267.719 305.391 264.062 300.672C260.406 295.922 258.922 289.797 259.609 282.297L259.75 281.172C260.312 276.047 261.75 271.516 264.062 267.578C266.375 263.609 269.406 260.547 273.156 258.391C276.938 256.234 281.156 255.219 285.812 255.344C291.719 255.469 296.375 257.359 299.781 261.016C303.219 264.641 304.875 269.547 304.75 275.734L290.312 275.688C290.469 270.312 288.547 267.578 284.547 267.484C279.109 267.297 275.984 271.875 275.172 281.219L274.75 286L274.703 287.781C274.703 293.031 276.5 295.703 280.094 295.797ZM355.578 268.375H340.062L333.359 307H317.844L324.547 268.375H309.266L311.375 256.281H357.688L355.578 268.375ZM356.297 307L365.062 256.281L384.328 256.328C391.109 256.359 396.234 257.562 399.703 259.938C403.203 262.281 404.875 265.672 404.719 270.109C404.625 272.516 403.734 274.641 402.047 276.484C400.359 278.328 397.531 279.953 393.562 281.359C396.75 282.078 399.25 283.391 401.062 285.297C402.875 287.172 403.75 289.453 403.688 292.141C403.625 296.922 401.688 300.594 397.875 303.156C394.062 305.719 388.609 307 381.516 307H356.297ZM375.328 286.328L373.828 294.906H381.984C385.891 294.75 388.156 293.266 388.781 290.453C388.969 289.703 389 289.078 388.875 288.578C388.531 287.203 387.25 286.469 385.031 286.375L375.328 286.328ZM377.016 276.578L382.641 276.625C386.359 276.469 388.469 275.109 388.969 272.547C389.125 271.734 389.141 271.062 389.016 270.531C388.609 269.219 387.25 268.516 384.938 268.422L378.422 268.375L377.016 276.578ZM437.875 255.344C442.406 255.406 446.328 256.547 449.641 258.766C452.953 260.953 455.375 264.016 456.906 267.953C458.469 271.891 459.031 276.266 458.594 281.078L458.5 282.109C457.625 289.891 454.734 296.172 449.828 300.953C444.922 305.734 438.859 308.062 431.641 307.938C427.141 307.875 423.25 306.766 419.969 304.609C416.688 302.422 414.25 299.375 412.656 295.469C411.094 291.562 410.531 287.219 410.969 282.438C411.75 274.125 414.594 267.5 419.5 262.562C424.438 257.625 430.562 255.219 437.875 255.344ZM426.391 282.438L426.25 285.203C425.812 292.172 427.938 295.719 432.625 295.844C438.688 296.031 442.203 291.109 443.172 281.078L443.359 276.812C443.422 274 442.891 271.766 441.766 270.109C440.672 268.422 439.047 267.547 436.891 267.484C434.047 267.391 431.703 268.562 429.859 271C428.047 273.406 426.891 277.219 426.391 282.438Z" fill="black"/>
</g>
</svg>
