<?xml version="1.0" encoding="iso-8859-1"?>
<!-- Generator: Adobe Illustrator 17.0.0, SVG Export Plug-In . SVG Version: 6.00 Build 0)  -->
<!DOCTYPE svg PUBLIC "-//W3C//DTD SVG 1.1//EN" "http://www.w3.org/Graphics/SVG/1.1/DTD/svg11.dtd">
<svg version="1.1" id="Layer_1" xmlns="http://www.w3.org/2000/svg" xmlns:xlink="http://www.w3.org/1999/xlink" x="0px" y="0px"
	 width="447.259px" height="144.419px" viewBox="0 0 447.259 144.419" style="enable-background:new 0 0 447.259 144.419;"
	 xml:space="preserve">
<path style="fill:#4DC6E3;" d="M421.249,116.275v-14.626h16.284v14.626h9.726v-48.98h-35.821l0.016,48.98H421.249z M421.249,91.855
	l-0.064-14.766h16.349v14.766H421.249z M405.211,116.275l-0.053-19.522l-4.829-4.898l4.829-4.896l0.053-19.664H369.35v48.98H405.211
	z M379.148,77.089h16.283v9.87h-16.283V77.089z M379.148,96.753h16.283v9.729h-16.283V96.753z M362.366,116.275v-48.98H326.52v48.98
	H362.366z M336.347,77.089h16.282v29.393h-16.282V77.089z M298.021,116.275V77.089h23.63v-9.794h-33.423v48.98H298.021z
	 M281.231,116.275l-0.017-48.98h-35.797l0.002,48.98H281.231z M255.219,77.089h16.284v29.393h-16.284V77.089z M213.119,116.275
	v-14.626h26.019V67.294h-35.817v48.98H213.119z M213.119,77.089h16.283v14.766h-16.283V77.089z M170.315,116.275l16.284-32.677
	v32.677h9.726v-48.98h-9.726l-16.284,32.607V67.294h-9.793v48.98H170.315z M127.514,116.275V77.089h16.283v39.186h9.726v-48.98
	h-35.804v48.98H127.514z"/>
<path style="fill:#4DC6E3;" d="M442.489,3.066V0h-22.64v3.066l0.025,4.423h22.604L442.489,3.066z M117.701,56.042h31.349
	l0.017-13.195h-8.777v4.356h-13.734v-26.52h13.734v4.423h8.777l0.016-13.262h-31.379L117.701,56.042z M176.694,34.007h-13.738
	l-0.005-13.325h13.743V34.007z M176.694,56.042h8.778V11.843h-31.365l0.011,44.199h8.838V42.847h13.738V56.042z M214.359,56.042
	h8.776V11.843h-8.776v17.742h-13.737V11.843h-8.838v44.199h8.838V38.426h13.737V56.042z M251.394,34.007h-13.736l-0.01-13.325
	h13.746V34.007z M251.394,56.042h8.776V11.843h-31.369l0.015,44.199h8.842V42.847h13.736V56.042z M286.133,20.682h12.574v-8.839
	H264.59v8.839h12.704v35.36h8.839V20.682z M325.703,47.202h-13.734v-26.52h13.734V47.202z M334.462,56.042l0.022-44.199h-31.358
	l0.014,44.199H334.462z M363.367,34.007h-13.733V20.682h13.733V34.007z M372.095,42.847V11.843h-31.302v44.199h8.841V42.847H372.095
	z M400.401,56.042h8.777V11.843h-8.777L386.668,38.5V11.843h-8.839v44.199h8.839l13.733-26.719V56.042z M424.334,11.843h-8.839
	v44.199h8.839l13.733-26.719v26.719h8.777V11.843h-8.777L424.334,38.5V11.843z"/>
<g>
	<polygon style="fill:#00A8DD;" points="411.767,126.957 410.211,126.957 408.423,134.124 407.503,134.124 407.503,126.957 
		405.879,126.957 405.879,144.146 407.503,144.146 407.503,135.622 408.142,135.622 410.353,144.146 412.026,144.146 
		409.715,135.185 	"/>
	<path style="fill:#00A8DD;" d="M154.332,126.957h-1.622c-1.253,0-2.311,1.032-2.311,2.305v12.579c0,1.273,1.058,2.305,2.311,2.305
		h1.622c1.278,0,2.309-1.032,2.309-2.305v-12.579C156.641,127.989,155.61,126.957,154.332,126.957z M155.021,141.841
		c0,0.392-0.32,0.685-0.689,0.685h-1.622c-0.37,0-0.688-0.293-0.688-0.685v-12.579c0-0.369,0.318-0.684,0.688-0.684h1.622
		c0.369,0,0.689,0.315,0.689,0.684V141.841z"/>
	<polygon style="fill:#00A8DD;" points="85.276,141.173 85.105,141.126 85.571,134.766 85.571,126.957 83.946,126.957 
		83.946,144.146 86.162,144.146 89.55,130.172 89.724,130.224 89.257,136.337 89.257,144.146 90.877,144.146 90.877,126.957 
		88.692,126.957 	"/>
	<path style="fill:#00A8DD;" d="M137.103,126.957h-3.883v17.189h3.883c1.279,0,2.312-1.032,2.312-2.305v-4.818
		c0-0.835-0.441-1.793-1.402-2.135c0.961-0.396,1.402-1.524,1.402-2.359v-3.268C139.415,127.989,138.382,126.957,137.103,126.957z
		 M137.792,141.841c0,0.392-0.294,0.685-0.689,0.685h-2.259v-6.904h1.523c0.909,0,1.425,0.127,1.425,1.23V141.841z M137.792,132.455
		c0,0.936-0.294,1.669-1.254,1.669h-1.694v-5.546h2.259c0.395,0,0.689,0.315,0.689,0.684V132.455z"/>
	<polygon style="fill:#00A8DD;" points="103.19,141.173 103.019,141.126 103.486,134.766 103.486,126.957 101.866,126.957 
		101.866,144.146 104.076,144.146 107.466,130.172 107.638,130.224 107.171,136.337 107.171,144.146 108.793,144.146 
		108.793,126.957 106.607,126.957 	"/>
	<polygon style="fill:#00A8DD;" points="71.242,135.159 73.287,126.957 71.734,126.957 69.946,134.124 69.058,134.124 
		69.058,126.957 67.434,126.957 67.434,144.146 69.058,144.146 69.058,135.622 69.693,135.622 71.906,144.146 73.578,144.146 
		71.267,135.182 	"/>
	<path style="fill:#00A8DD;" d="M240.663,125.727h1.573c0.983,0,1.671-0.738,1.671-1.718v-0.197h-1.203v0.268
		c0,0.271-0.223,0.518-0.491,0.518h-1.526c-0.268,0-0.488-0.247-0.488-0.518v-0.268h-1.206v0.197
		C238.992,124.989,239.68,125.727,240.663,125.727z"/>
	<path style="fill:#00A8DD;" d="M104.541,125.727h1.573c0.982,0,1.672-0.738,1.672-1.718v-0.197h-1.204v0.268
		c0,0.271-0.22,0.518-0.493,0.518h-1.522c-0.271,0-0.492-0.247-0.492-0.518v-0.268h-1.207v0.197
		C102.87,124.989,103.561,125.727,104.541,125.727z"/>
	<path style="fill:#00A8DD;" d="M54.139,126.957h-1.057c-1.253,0-2.307,1.032-2.307,2.305v12.579c0,1.273,1.054,2.305,2.307,2.305
		h1.057c1.277,0,2.312-1.032,2.312-2.305v-2.631h-1.622v2.631c0,0.392-0.323,0.685-0.689,0.685h-1.057
		c-0.369,0-0.687-0.293-0.687-0.685v-12.579c0-0.369,0.318-0.684,0.687-0.684h1.057c0.393,0,0.689,0.315,0.689,0.684v1.919h1.622
		v-1.919C56.45,127.989,55.415,126.957,54.139,126.957z"/>
	<path style="fill:#00A8DD;" d="M442.989,125.727h1.573c0.982,0,1.673-0.738,1.673-1.718v-0.197h-1.205v0.268
		c0,0.271-0.222,0.518-0.492,0.518h-1.524c-0.268,0-0.49-0.247-0.49-0.518v-0.268h-1.206v0.197
		C441.317,124.989,442.01,125.727,442.989,125.727z"/>
	<path style="fill:#00A8DD;" d="M3.366,126.957H2.312c-1.255,0-2.312,1.032-2.312,2.305v12.579c0,1.273,1.057,2.305,2.312,2.305
		h1.054c1.281,0,2.312-1.032,2.312-2.305v-2.631H4.054v2.631c0,0.392-0.316,0.685-0.688,0.685H2.312c-0.37,0-0.69-0.293-0.69-0.685
		v-12.579c0-0.369,0.32-0.684,0.69-0.684h1.054c0.395,0,0.688,0.315,0.688,0.684v1.919h1.623v-1.919
		C5.678,127.989,4.648,126.957,3.366,126.957z"/>
	<polygon style="fill:#00A8DD;" points="38.076,135.167 40.122,126.957 38.569,126.957 36.781,134.124 35.881,134.124 
		35.881,126.957 34.258,126.957 34.258,144.146 35.881,144.146 35.881,135.622 36.519,135.622 38.731,144.146 40.401,144.146 
		38.089,135.182 	"/>
	<path style="fill:#00A8DD;" d="M18.506,126.957l-2.336,17.189h1.648l0.712-5.06h2.876l0.736,5.06h1.621l-2.333-17.189H18.506z
		 M18.701,137.589l1.205-9.039h0.126l1.202,9.039H18.701z"/>
	<polygon style="fill:#00A8DD;" points="304.829,141.173 304.657,141.126 305.125,134.766 305.125,126.957 303.5,126.957 
		303.5,144.146 305.713,144.146 309.105,130.172 309.278,130.224 308.811,136.337 308.811,144.146 310.433,144.146 310.433,126.957 
		308.244,126.957 	"/>
	<path style="fill:#00A8DD;" d="M361.183,135.622h-2.286c-0.373,0-0.691-0.317-0.691-0.686v-7.979h-1.618v7.884
		c0,1.273,1.029,2.305,2.31,2.305h2.286v7.001h1.619v-17.189h-1.619V135.622z"/>
	<polygon style="fill:#00A8DD;" points="373.785,144.146 378.456,144.146 378.456,142.525 375.408,142.525 375.408,135.622 
		378.09,135.622 378.09,134.124 375.408,134.124 375.408,128.578 378.479,128.578 378.479,126.957 373.785,126.957 	"/>
	<polygon style="fill:#00A8DD;" points="167.626,144.146 172.297,144.146 172.297,142.525 169.248,142.525 169.248,135.622 
		171.928,135.622 171.928,134.124 169.248,134.124 169.248,128.578 172.321,128.578 172.321,126.957 167.626,126.957 	"/>
	<polygon style="fill:#00A8DD;" points="339.997,141.173 339.825,141.126 340.292,134.766 340.292,126.957 338.667,126.957 
		338.667,144.146 340.881,144.146 344.272,130.172 344.444,130.224 343.977,136.337 343.977,144.146 345.599,144.146 
		345.599,126.957 343.412,126.957 	"/>
	<polygon style="fill:#00A8DD;" points="326.063,134.124 323.039,134.124 323.039,126.957 321.416,126.957 321.416,144.146 
		323.039,144.146 323.039,135.622 326.063,135.622 326.063,144.146 327.683,144.146 327.683,126.957 326.063,126.957 	"/>
	<polygon style="fill:#00A8DD;" points="445.054,126.957 441.639,141.173 441.467,141.126 441.934,134.766 441.934,126.957 
		440.311,126.957 440.311,144.146 442.523,144.146 445.914,130.172 446.086,130.224 445.619,136.337 445.619,144.146 
		447.241,144.146 447.241,126.957 	"/>
	<polygon style="fill:#00A8DD;" points="423.724,141.173 423.55,141.126 424.018,134.766 424.018,126.957 422.398,126.957 
		422.398,144.146 424.606,144.146 428,130.172 428.169,130.224 427.703,136.337 427.703,144.146 429.324,144.146 429.324,126.957 
		427.139,126.957 	"/>
	<path style="fill:#00A8DD;" d="M392.589,126.957h-1.06c-1.253,0-2.309,1.032-2.309,2.305v12.579c0,1.273,1.056,2.305,2.309,2.305
		h1.06c1.274,0,2.307-1.032,2.307-2.305v-2.631h-1.619v2.631c0,0.392-0.319,0.685-0.688,0.685h-1.06
		c-0.369,0-0.688-0.293-0.688-0.685v-12.579c0-0.369,0.318-0.684,0.688-0.684h1.06c0.39,0,0.688,0.315,0.688,0.684v1.919h1.619
		v-1.919C394.895,127.989,393.863,126.957,392.589,126.957z"/>
	<polygon style="fill:#00A8DD;" points="204.954,134.124 201.934,134.124 201.934,126.957 200.313,126.957 200.313,144.146 
		201.934,144.146 201.934,135.622 204.954,135.622 204.954,144.146 206.576,144.146 206.576,126.957 204.954,126.957 	"/>
	<path style="fill:#00A8DD;" d="M286.715,137.813c0,1.225,0,4.985-1.349,4.985v1.621c2.975,0,2.975-4.227,2.975-7.22v-8.622h2.556
		v15.568h1.62v-17.189h-5.802V137.813z"/>
	<polygon style="fill:#00A8DD;" points="187.704,134.124 184.68,134.124 184.68,126.957 183.061,126.957 183.061,144.146 
		184.68,144.146 184.68,135.622 187.704,135.622 187.704,144.146 189.326,144.146 189.326,126.957 187.704,126.957 	"/>
	<path style="fill:#00A8DD;" d="M221.448,132.626h-2.264v-5.67h-1.62v17.189h3.884c1.276,0,2.31-1.032,2.31-2.305v-6.905
		C223.758,133.686,222.796,132.626,221.448,132.626z M222.133,141.841c0,0.365-0.294,0.685-0.685,0.685h-2.264v-8.402h2.264
		c0.391,0,0.685,0.325,0.685,0.694V141.841z"/>
	<polygon style="fill:#00A8DD;" points="273.165,135.172 275.215,126.957 273.656,126.957 271.87,134.124 270.963,134.124 
		270.963,126.957 269.344,126.957 269.344,144.146 270.963,144.146 270.963,135.622 271.602,135.622 273.817,144.146 
		275.486,144.146 273.176,135.182 	"/>
	<polygon style="fill:#00A8DD;" points="239.313,141.173 239.14,141.126 239.604,134.766 239.604,126.957 237.983,126.957 
		237.983,144.146 240.198,144.146 243.587,130.172 243.761,130.224 243.293,136.337 243.293,144.146 244.916,144.146 
		244.916,126.957 242.726,126.957 	"/>
	<rect x="225.377" y="126.957" style="fill:#00A8DD;" width="1.623" height="17.189"/>
</g>
<g>
	<polygon style="fill:#4DC6E3;" points="0.053,12.066 0.053,12.073 28.708,40.749 28.668,12.066 	"/>
	<polygon style="fill:#00A8DD;" points="0.044,12.051 0.044,51.102 20.695,32.715 	"/>
	<polygon style="fill:#E1E319;" points="28.659,12.043 28.699,40.382 28.722,40.733 28.722,40.72 28.751,40.72 59.634,12.043 	"/>
	<polygon style="fill:#87D3E8;" points="59.634,12.043 50.646,20.389 75.776,40.72 75.779,40.72 75.779,12.043 	"/>
	<polygon style="fill:#00A8DD;" points="0.051,93.142 28.643,116.677 28.72,116.677 28.72,77.243 	"/>
	<polygon style="fill:#4DC6E3;" points="75.779,12.043 75.779,40.72 75.807,40.72 104.484,12.046 104.484,12.043 	"/>
	<polygon style="fill:#00A8DD;" points="104.484,51.123 104.484,12.046 83.781,32.746 	"/>
	<polygon style="fill:#00A8DD;" points="75.808,77.151 75.808,116.672 104.483,93.187 	"/>
	<polygon style="fill:#4DC6E3;" points="104.484,116.677 104.484,93.185 75.808,116.672 75.808,116.677 	"/>
	<polygon style="fill:#87D3E8;" points="75.811,77.153 104.483,93.187 102.71,94.638 104.484,93.185 104.484,51.118 	"/>
	<polygon style="fill:#4DC6E3;" points="75.811,77.153 104.483,51.118 104.483,51.114 75.808,51.114 75.808,77.155 75.815,77.155 	
		"/>
	<polygon style="fill:#00B9E1;" points="104.475,51.114 83.781,32.746 87.315,29.213 87.315,29.213 75.807,40.72 75.808,40.72 
		75.808,51.114 	"/>
	<g>
		<polygon style="fill:#29B473;" points="50.646,20.389 28.751,40.72 75.776,40.72 		"/>
	</g>
	<polyline style="fill:#00B9E1;" points="28.72,40.746 28.7,40.726 20.695,32.715 0.044,51.102 0.044,51.114 28.72,51.114 	"/>
	<polygon style="fill:#4DC6E3;" points="0.044,116.677 28.643,116.677 0.044,93.137 	"/>
	<polygon style="fill:#87D3E8;" points="0.044,51.13 0.044,93.137 0.051,93.142 28.72,77.243 28.72,77.237 	"/>
	<polygon style="fill:#4DC6E3;" points="0.044,51.114 0.044,51.13 28.719,77.235 28.72,77.235 28.72,51.114 	"/>
</g>
</svg>
