<svg width="45" height="45" viewBox="0 0 45 45" fill="none" xmlns="http://www.w3.org/2000/svg">
    <circle cx="22.5" cy="22.5" r="22.5" fill="#F4F7FF"/>
    <path d="M14.7611 22.0003L11.3967 25.3691L8 22.0003L11.3955 18.6016L14.7611 22.0003Z" fill="#F0B90B"/>
    <path d="M22.9862 13.7676L28.7806 19.5675L32.1775 16.1699L22.9862 7L13.7949 16.2001L17.1919 19.5977L22.9862 13.7676Z" fill="#F0B90B"/>
    <path d="M34.5756 18.6016L31.21 22.0003L34.6054 25.399L37.9998 22.0003L34.5756 18.6016Z" fill="#F0B90B"/>
    <path d="M22.9862 30.2324L17.1919 24.4023L13.7949 27.8014L22.9862 37L32.1775 27.7999L28.7806 24.4023L22.9862 30.2324Z" fill="#F0B90B"/>
    <path d="M22.9853 25.3701L26.3808 21.9702L22.9853 18.6025L19.5898 22.0001L22.9853 25.3689V25.3701Z" fill="#F0B90B"/>
</svg>
