<svg width="27" height="19" viewBox="0 0 27 19" xmlns="http://www.w3.org/2000/svg">
<path d="M9.0051 0.73961L1.26811 8.43261C0.796046 8.90198 0.796046 9.6632 1.26811 10.1326L9.00529 17.8256C9.47745 18.2951 10.2429 18.2951 10.715 17.8256C10.951 17.591 11.0691 17.2832 11.0691 16.9756C11.0691 16.668 10.951 16.3604 10.715 16.1256L5.04163 10.4846L25.7051 10.4846C26.3727 10.4846 26.9141 9.9464 26.9141 9.28259C26.9141 8.61897 26.3727 8.08056 25.7051 8.08056L5.04153 8.08056L10.7147 2.43957C11.1868 1.97001 11.1868 1.20898 10.7147 0.73961C10.2427 0.270145 9.47726 0.270145 9.0051 0.73961Z"/>
</svg>
