<svg width="17" height="16" viewBox="0 0 17 16" fill="none" xmlns="http://www.w3.org/2000/svg">
<path d="M1.66667 2.33341H4.16667L5.83333 0.666748H10.8333L12.5 2.33341H15C15.442 2.33341 15.866 2.50901 16.1785 2.82157C16.4911 3.13413 16.6667 3.55805 16.6667 4.00008V14.0001C16.6667 14.4421 16.4911 14.866 16.1785 15.1786C15.866 15.4912 15.442 15.6667 15 15.6667H1.66667C1.22464 15.6667 0.800716 15.4912 0.488155 15.1786C0.175595 14.866 0 14.4421 0 14.0001V4.00008C0 3.55805 0.175595 3.13413 0.488155 2.82157C0.800716 2.50901 1.22464 2.33341 1.66667 2.33341ZM8.33333 4.83341C7.22826 4.83341 6.16846 5.2724 5.38706 6.0538C4.60565 6.8352 4.16667 7.89501 4.16667 9.00008C4.16667 10.1051 4.60565 11.165 5.38706 11.9464C6.16846 12.7278 7.22826 13.1667 8.33333 13.1667C9.4384 13.1667 10.4982 12.7278 11.2796 11.9464C12.061 11.165 12.5 10.1051 12.5 9.00008C12.5 7.89501 12.061 6.8352 11.2796 6.0538C10.4982 5.2724 9.4384 4.83341 8.33333 4.83341ZM8.33333 6.50008C8.99638 6.50008 9.63226 6.76347 10.1011 7.23231C10.5699 7.70115 10.8333 8.33704 10.8333 9.00008C10.8333 9.66312 10.5699 10.299 10.1011 10.7678C9.63226 11.2367 8.99638 11.5001 8.33333 11.5001C7.67029 11.5001 7.03441 11.2367 6.56557 10.7678C6.09673 10.299 5.83333 9.66312 5.83333 9.00008C5.83333 8.33704 6.09673 7.70115 6.56557 7.23231C7.03441 6.76347 7.67029 6.50008 8.33333 6.50008Z" fill="white"/>
</svg>
