<svg width="30" height="30" viewBox="0 0 30 30" xmlns="http://www.w3.org/2000/svg">
<path d="M29.5987 21.1484L21.0796 13.7126C22.4423 12.2153 23.2031 10.2703 23.2031 8.20312C23.2031 3.67992 19.5232 0 15 0C10.4768 0 6.79687 3.67992 6.79687 8.20312C6.79687 10.2704 7.55777 12.2155 8.92031 13.7126L0.401308 21.1484C-0.0394931 21.5331 -0.128966 22.1841 0.191718 22.6734L4.64484 29.4703C4.86135 29.8009 5.2299 30 5.625 30H24.375C24.7702 30 25.1387 29.8009 25.3552 29.4703L29.8083 22.6734C30.129 22.1841 30.0395 21.5331 29.5987 21.1484ZM15 2.34375C18.2309 2.34375 20.8594 4.97227 20.8594 8.20312C20.8594 11.4679 18.2123 14.0625 15 14.0625C11.7335 14.0625 9.14062 11.4052 9.14062 8.20312C9.14062 4.97227 11.7691 2.34375 15 2.34375ZM19.9038 15.7973L15 22.3358L10.0962 15.7973L10.7532 15.2238C13.3456 16.8037 16.6638 16.8011 19.2468 15.2238L19.9038 15.7973ZM23.7418 27.6562H6.25822L2.71154 22.2429L8.32558 17.3428L14.0625 24.992C14.2838 25.2871 14.6312 25.4607 15 25.4607C15.3688 25.4607 15.7162 25.2871 15.9375 24.992L21.6744 17.3427L27.2885 22.2428L23.7418 27.6562Z"/>
</svg>
