<svg version="1.1" xmlns="http://www.w3.org/2000/svg" xmlns:xlink="http://www.w3.org/1999/xlink" x="0px" y="0px"
	 width="624.107px" height="444.802px" viewBox="94.286 193.371 624.107 444.802"
	 enable-background="new 94.286 193.371 624.107 444.802" xml:space="preserve">
	<g>
		<path fill="#3F496A" d="M711.796,637.911L97.688,430.856c-2.007-0.678-3.37-2.546-3.401-4.664
			c-0.031-2.119,1.276-4.028,3.263-4.763l614.105-227.745c2.057-0.764,4.374-0.095,5.709,1.649c1.335,1.743,1.375,4.153,0.101,5.941
			L557.272,425.976l160.056,204.112c1.364,1.74,1.424,4.167,0.148,5.972c-0.956,1.351-2.492,2.113-4.083,2.113
			C712.86,638.173,712.321,638.088,711.796,637.911z M114.27,425.893l584.861,197.195L547.096,429.202
			c-1.368-1.743-1.424-4.177-0.14-5.983l152.922-214.502L114.27,425.893z"/>
	</g>
</svg>