<svg version="1.1" xmlns="http://www.w3.org/2000/svg" xmlns:xlink="http://www.w3.org/1999/xlink" x="0px" y="0px"
	 width="1183px" height="1183px" viewBox="0 0 1183 1183" enable-background="new 0 0 1183 1183" xml:space="preserve">
	<g>
		<g>
			<path fill="#2C3C68" d="M591.504,1115.639c-70.737,0-139.365-13.857-203.978-41.186
				c-62.402-26.394-118.442-64.176-166.564-112.298c-48.122-48.122-85.904-104.162-112.298-166.564
				c-27.329-64.613-41.186-133.241-41.186-203.978s13.857-139.365,41.186-203.978c26.394-62.402,64.176-118.442,112.298-166.564
				s104.162-85.904,166.564-112.298c64.613-27.329,133.241-41.186,203.978-41.186s139.365,13.857,203.978,41.186
				c62.402,26.394,118.442,64.176,166.564,112.298s85.904,104.162,112.298,166.564c27.329,64.613,41.186,133.241,41.186,203.978
				s-13.857,139.365-41.186,203.978c-26.394,62.402-64.176,118.442-112.298,166.564c-48.122,48.121-104.162,85.904-166.564,112.298
				C730.87,1101.782,662.241,1115.639,591.504,1115.639z M591.504,92.589c-275.163,0-499.025,223.862-499.025,499.025
				s223.862,499.025,499.025,499.025s499.025-223.862,499.025-499.025S866.667,92.589,591.504,92.589z"/>
		</g>
		<g>
			<path fill="#E8A15B" d="M591,160c-6.904,0-12.5-5.596-12.5-12.5v-135C578.5,5.596,584.096,0,591,0s12.5,5.596,12.5,12.5v135
				C603.5,154.404,597.904,160,591,160z"/>
		</g>
		<g>
			<path fill="#E8A15B" d="M591,1183c-6.904,0-12.5-5.597-12.5-12.5v-135c0-6.903,5.596-12.5,12.5-12.5s12.5,5.597,12.5,12.5v135
				C603.5,1177.403,597.904,1183,591,1183z"/>
		</g>
		<g>
			<g>
				<path fill="#E8A15B" d="M1170.5,604.5h-135c-6.904,0-12.5-5.596-12.5-12.5s5.596-12.5,12.5-12.5h135
					c6.904,0,12.5,5.596,12.5,12.5S1177.404,604.5,1170.5,604.5z"/>
			</g>
			<g>
				<path fill="#E8A15B" d="M147.5,604.5h-135C5.596,604.5,0,598.904,0,592s5.596-12.5,12.5-12.5h135c6.904,0,12.5,5.596,12.5,12.5
					S154.404,604.5,147.5,604.5z"/>
			</g>
		</g>
	</g>
</svg>