<svg version="1.1" xmlns="http://www.w3.org/2000/svg" xmlns:xlink="http://www.w3.org/1999/xlink" x="0px" y="0px"
	 width="290.551px" height="351.323px" viewBox="-798.898 -32.393 290.551 351.323"
	 enable-background="new -798.898 -32.393 290.551 351.323" xml:space="preserve">
<g>
	<path fill="#3F496A" d="M-721.72,318.857c1.795,0,3.514-0.748,4.783-2.017c1.269-1.27,2.017-2.989,2.017-4.784
		c0-1.791-0.748-3.509-2.017-4.783c-1.269-1.269-2.988-2.017-4.783-2.017c-1.791,0-3.514,0.748-4.783,2.017
		c-1.27,1.274-2.017,2.992-2.017,4.783c0,1.795,0.747,3.514,2.017,4.784C-725.234,318.185-723.512,318.857-721.72,318.857
		L-721.72,318.857z"/>
	<path fill="#3F496A" d="M-536.192,299.279c1.719,0,3.36-0.599,4.706-1.868c2.689-2.616,2.766-6.874,0.15-9.563
		c-2.616-2.692-6.874-2.765-9.563-0.226c-2.692,2.616-2.766,6.874-0.226,9.566C-539.777,298.531-537.986,299.279-536.192,299.279
		L-536.192,299.279z"/>
	<path fill="#3F496A" d="M-525.133,279.48c0.97,0.521,2.017,0.747,3.065,0.747c2.462,0,4.856-1.346,6.049-3.736
		c1.722-3.363,0.375-7.399-2.988-9.117c-3.361-1.719-7.395-0.373-9.114,2.988C-529.84,273.725-528.497,277.761-525.133,279.48
		L-525.133,279.48z"/>
	<path fill="#3F496A" d="M-521.324,210.812c3.215-1.945,4.185-6.13,2.244-9.267c-1.945-3.21-6.13-4.184-9.34-2.24
		c-3.215,1.941-4.185,6.125-2.244,9.34c1.274,2.09,3.514,3.21,5.754,3.21C-523.637,211.783-522.444,211.484-521.324,210.812
		L-521.324,210.812z"/>
	<path fill="#3F496A" d="M-522.743,228.445c0.675,3.214,3.514,5.382,6.578,5.382c0.445,0,0.97-0.077,1.419-0.15
		c3.659-0.747,5.977-4.334,5.228-7.997c-0.748-3.659-4.335-5.976-7.994-5.229C-521.174,221.196-523.491,224.786-522.743,228.445
		L-522.743,228.445z"/>
	<g>
		<path fill="#3F496A" d="M-535.221,191.457c2.39-2.911,1.946-7.172-0.97-9.562c-2.915-2.39-7.172-1.941-9.566,0.97
			c-2.389,2.915-1.941,7.173,0.974,9.566c1.27,1.043,2.762,1.493,4.258,1.493C-538.508,193.924-536.567,193.103-535.221,191.457
			L-535.221,191.457z"/>
		<path fill="#3F496A" d="M-798.83,112.258c0.522,3.361,3.437,5.827,6.724,5.827c0.3,0,0.672,0,0.97-0.073
			c3.736-0.526,6.276-3.963,5.754-7.699c-0.522-3.736-3.959-6.275-7.695-5.753C-796.812,105.085-799.355,108.522-798.83,112.258
			L-798.83,112.258z"/>
	</g>
	<path fill="#3F496A" d="M-779.85,59.506c-3.215-1.868-7.399-0.825-9.267,2.39c-1.868,3.214-0.821,7.398,2.389,9.266
		c1.047,0.595,2.244,0.894,3.441,0.894c2.313,0,4.557-1.193,5.826-3.36C-775.52,65.558-776.563,61.374-779.85,59.506L-779.85,59.506
		z"/>
	<path fill="#3F496A" d="M-770.288,159.33c1.795,0,3.663-0.748,4.932-2.167c2.54-2.766,2.39-7.024-0.375-9.563
		c-2.762-2.542-7.024-2.393-9.563,0.373c-2.539,2.766-2.389,7.023,0.373,9.566C-773.576,158.731-771.934,159.33-770.288,159.33
		L-770.288,159.33z"/>
	<path fill="#3F496A" d="M-747.723,159.33c-3.437-1.496-7.399,0.077-8.892,3.514c-1.495,3.436,0.074,7.395,3.51,8.891
		c0.898,0.373,1.795,0.522,2.693,0.522c2.616,0,5.079-1.496,6.203-4.109C-742.717,164.784-744.285,160.825-747.723,159.33
		L-747.723,159.33z"/>
	<g>
		<path fill="#3F496A" d="M-762.816,42.843c-2.39-2.842-6.724-3.214-9.562-0.748c-2.842,2.39-3.215,6.725-0.748,9.563
			c1.342,1.568,3.287,2.393,5.155,2.393c1.569,0,3.065-0.525,4.407-1.646C-760.798,49.94-760.427,45.682-762.816,42.843
			L-762.816,42.843z"/>
		<path fill="#3F496A" d="M-792.926,94.173c0.445,0.077,0.894,0.149,1.269,0.149c3.137,0,6.052-2.24,6.647-5.527
			c0.675-3.663-1.719-7.249-5.378-7.92c-3.663-0.672-7.249,1.719-7.92,5.382C-798.979,89.915-796.589,93.501-792.926,94.173
			L-792.926,94.173z"/>
	</g>
	<path fill="#3F496A" d="M-784.711,140.577c1.047,0,2.168-0.226,3.142-0.748c3.287-1.719,4.557-5.83,2.838-9.118
		c-1.719-3.287-5.83-4.557-9.118-2.838s-4.557,5.826-2.838,9.118C-789.49,139.23-787.173,140.577-784.711,140.577L-784.711,140.577z
		"/>
	<path fill="#3F496A" d="M-508.398,251.609c0.449-3.736-2.163-7.1-5.899-7.549c-3.736-0.449-7.1,2.167-7.549,5.83
		c-0.449,3.736,2.167,7.096,5.826,7.545c0.299,0.077,0.599,0.077,0.898,0.077C-511.758,257.512-508.843,255.045-508.398,251.609
		L-508.398,251.609z"/>
	<path fill="#3F496A" d="M-679.727,164.561c-3.736,0-6.801,2.989-6.801,6.798c0,3.736,3.065,6.8,6.801,6.8s6.797-3.064,6.797-6.8
		C-673.003,167.55-675.991,164.561-679.727,164.561L-679.727,164.561z"/>
	<path fill="#3F496A" d="M-609.342,312.132c0,3.736,2.988,6.798,6.8,6.798c3.736,0,6.798-3.062,6.798-6.798
		c0-3.736-3.062-6.8-6.798-6.8C-606.278,305.332-609.342,308.396-609.342,312.132L-609.342,312.132z"/>
	<path fill="#3F496A" d="M-680.847,312.132c0,3.736,2.988,6.798,6.797,6.798c3.736,0,6.8-3.062,6.8-6.798c0-3.736-3.064-6.8-6.8-6.8
		C-677.786,305.332-680.847,308.396-680.847,312.132L-680.847,312.132z"/>
	<path fill="#3F496A" d="M-608.295,164.561c-3.736,0-6.8,2.989-6.8,6.798c0,3.736,3.064,6.8,6.8,6.8s6.798-3.064,6.798-6.8
		C-601.497,167.55-604.486,164.561-608.295,164.561L-608.295,164.561z"/>
	<path fill="#3F496A" d="M-655.892,164.561c-3.736,0-6.8,2.989-6.8,6.798c0,3.736,2.988,6.8,6.8,6.8c3.736,0,6.801-3.064,6.801-6.8
		C-649.169,167.55-652.156,164.561-655.892,164.561L-655.892,164.561z"/>
	<path fill="#3F496A" d="M-704.609,312.132c0,3.736,2.988,6.798,6.8,6.798c3.736,0,6.798-3.062,6.798-6.798
		c0-3.736-3.062-6.8-6.798-6.8C-701.622,305.332-704.609,308.396-704.609,312.132L-704.609,312.132z"/>
	<path fill="#3F496A" d="M-657.012,312.132c0,3.736,3.061,6.798,6.797,6.798c3.736,0,6.801-3.062,6.801-6.798
		c0-3.736-2.989-6.8-6.801-6.8C-653.951,305.332-657.012,308.396-657.012,312.132L-657.012,312.132z"/>
	<path fill="#3F496A" d="M-633.177,312.132c0,3.736,2.988,6.798,6.8,6.798c3.736,0,6.724-3.062,6.724-6.798
		c0-3.736-2.988-6.8-6.724-6.8C-630.112,305.332-633.177,308.396-633.177,312.132L-633.177,312.132z"/>
	<path fill="#3F496A" d="M-632.057,164.561c-3.736,0-6.8,2.989-6.8,6.798c0,3.736,2.992,6.8,6.8,6.8c3.736,0,6.8-3.064,6.8-6.8
		C-625.333,167.55-628.321,164.561-632.057,164.561L-632.057,164.561z"/>
	<path fill="#3F496A" d="M-710.363,171.286c0,3.736,3.064,6.8,6.8,6.8s6.798-3.064,6.798-6.8s-2.989-6.801-6.798-6.801
		C-707.298,164.561-710.363,167.55-710.363,171.286L-710.363,171.286z"/>
	<path fill="#3F496A" d="M-717.612,30.366c-0.073-3.736-3.21-6.728-6.946-6.578c-3.736,0.077-6.651,3.214-6.574,6.95
		c0.073,3.736,3.21,6.651,6.946,6.574C-720.451,37.163-717.463,34.102-717.612,30.366L-717.612,30.366z"/>
	<path fill="#3F496A" d="M-734.125,170.687c-0.223,3.736,2.542,6.95,6.278,7.25h0.449c3.509,0,6.498-2.693,6.724-6.279
		c0.222-3.736-2.543-6.946-6.279-7.246C-730.688,164.113-733.898,166.951-734.125,170.687L-734.125,170.687z"/>
	<path fill="#3F496A" d="M-741.298,32.678c-1.343-3.509-5.229-5.228-8.742-3.885c-3.509,1.347-5.228,5.232-3.885,8.745
		c1.047,2.689,3.586,4.331,6.352,4.331c0.821,0,1.646-0.146,2.39-0.445C-741.67,40.078-739.952,36.192-741.298,32.678
		L-741.298,32.678z"/>
	<path fill="#3F496A" d="M-554.721,177.787c1.269-3.514-0.526-7.399-4.112-8.669c-3.51-1.269-7.395,0.522-8.665,4.036
		c-1.269,3.509,0.521,7.395,4.108,8.668c0.748,0.295,1.569,0.372,2.317,0.372C-558.308,182.267-555.692,180.549-554.721,177.787
		L-554.721,177.787z"/>
	<path fill="#3F496A" d="M-584.387,164.561c-3.736,0-6.797,2.989-6.797,6.725s2.988,6.8,6.724,6.8h0.073
		c3.736,0,6.724-2.992,6.8-6.728C-577.663,167.623-580.651,164.561-584.387,164.561L-584.387,164.561z"/>
	<path fill="#3F496A" d="M-555.842,312.581c0.97,0,1.868-0.226,2.838-0.599c3.437-1.568,4.933-5.604,3.361-8.967
		c-1.569-3.437-5.527-4.933-8.964-3.364c-3.436,1.573-4.932,5.604-3.363,8.968C-560.851,311.085-558.384,312.581-555.842,312.581
		L-555.842,312.581z"/>
	<path fill="#3F496A" d="M-585.507,312.432c0.299,3.51,3.287,6.198,6.724,6.198h0.598c3.736-0.299,6.502-3.586,6.126-7.322
		c-0.295-3.736-3.587-6.498-7.323-6.126C-583.041,305.404-585.806,308.696-585.507,312.432L-585.507,312.432z"/>
	<path fill="#3F496A" d="M-695.419,35.295c1.269-1.269,1.941-2.988,1.941-4.779c0-1.795-0.744-3.514-1.941-4.783
		c-1.269-1.27-2.988-2.017-4.783-2.017c-1.791,0-3.51,0.747-4.779,2.017c-1.274,1.269-2.017,2.988-2.017,4.783
		c0,1.791,0.743,3.51,2.017,4.779c1.269,1.269,2.988,2.017,4.779,2.017C-698.407,37.239-696.688,36.564-695.419,35.295
		L-695.419,35.295z"/>
</g>
<path fill="#3F496A" d="M-522.253,30.174l-0.127-0.047c0,0-0.001,0-0.001,0l-168.166-62.366c-1.015-0.377-2.158-0.047-2.816,0.813
	s-0.679,2.049-0.05,2.931l43.424,60.911l-43.357,55.291c-0.673,0.858-0.702,2.056-0.073,2.946c0.472,0.667,1.229,1.043,2.014,1.043
	c0.263,0,0.529-0.042,0.788-0.13l168.294-56.743c0.99-0.334,1.662-1.255,1.678-2.3C-520.628,31.478-521.273,30.537-522.253,30.174z
	 M-536.982,29.973h-108.69l-39.065-54.796L-536.982,29.973z M-684.368,84.254l38.697-49.349h107.667L-684.368,84.254z"/>
</svg>