<svg version="1.1" xmlns="http://www.w3.org/2000/svg" xmlns:xlink="http://www.w3.org/1999/xlink" x="0px" y="0px"
	 width="512px" height="270px" viewBox="-49 262 512 270" enable-background="new -49 262 512 270" xml:space="preserve">
<path fill="#B9B9B9" d="M459.177,386.995C454.606,381.897,344.681,262,207,262S-40.606,381.897-45.177,386.995
	c-5.098,5.698-5.098,14.312,0,20.01C-40.606,412.103,69.319,532,207,532s247.606-119.897,252.177-124.995
	C464.274,401.307,464.274,392.693,459.177,386.995z M312,397c0,57.891-47.109,105-105,105s-105-47.109-105-105s47.109-105,105-105
	S312,339.109,312,397z"/>
<path fill="#B9B9B9" d="M222,367c0-15.09,7.491-28.365,18.887-36.53C230.661,325.235,219.255,322,207,322c-41.353,0-75,33.647-75,75
	s33.647,75,75,75c37.024,0,67.668-27.034,73.722-62.358C250.516,419.367,222,396.522,222,367z"/>
</svg>