<svg version="1.1" xmlns="http://www.w3.org/2000/svg" x="0px" y="0px" width="380px" viewBox="0 0 361.719 308.101" enable-background="new 0 0 361.719 308.101"
	 xml:space="preserve">
                <path fill="#F4F4F4" d="M296.2,132.443c0,67.008-54.321,121.329-121.329,121.329S16.42,243.501,16.42,176.491
                    c0-67.007,91.443-165.376,158.451-165.376C241.879,11.114,296.2,65.436,296.2,132.443z"/>
	<path fill="#F4F4F4" d="M278.855,257.147c-45.763,0-82.863-30.728-82.863-68.63c0-37.904,7.016-89.629,52.78-89.629
                    c45.764-0.001,112.946,51.726,112.946,89.629C361.719,226.421,324.619,257.147,278.855,257.147z"/>
	<g>
                    <path fill="#FFFFFF" d="M212.897,26.767c0-3.913-3.173-7.087-7.087-7.087c-1.031,0-2.008,0.226-2.892,0.622
                        c0.405-1.086,0.631-2.263,0.631-3.492c0-5.498-4.458-9.956-9.958-9.956c-3.046,0-5.77,1.369-7.597,3.524
                        c-0.443-5.089-4.711-9.082-9.917-9.082c-5.307,0-9.643,4.153-9.938,9.386c-1.045-0.606-2.254-0.959-3.548-0.959
                        c-3.914,0-7.087,3.173-7.087,7.086c0,1.036,0.228,2.016,0.626,2.902c-0.206-0.018-0.415-0.032-0.626-0.032
                        c-3.913,0-7.087,3.174-7.087,7.087c0,3.532,2.587,6.452,5.968,6.99l-0.004,0.007h0.051c0.351,0.053,0.707,0.089,1.071,0.089
                        c0.366,0,0.721-0.036,1.071-0.089h48.165c0.35,0.053,0.705,0.089,1.07,0.089s0.722-0.036,1.07-0.089h0.053l-0.001-0.008
                        C210.313,33.218,212.897,30.298,212.897,26.767z"/>
		<path fill="#93B9D5" d="M209.029,30.485h-0.052c-0.35,0.053-0.705,0.089-1.07,0.089c-0.366,0-0.722-0.037-1.071-0.089h-48.164
                        c-0.35,0.053-0.706,0.089-1.071,0.089c-0.364,0-0.72-0.037-1.071-0.089h-0.051l0.003-0.008c-3.38-0.538-5.967-3.458-5.967-6.99
                        c0-0.648,0.095-1.274,0.257-1.871c-1.37,1.292-2.229,3.119-2.229,5.15c0,3.532,2.587,6.452,5.967,6.99l-0.003,0.007h0.052
                        c0.35,0.053,0.705,0.089,1.07,0.089s0.722-0.036,1.071-0.089h48.165c0.35,0.053,0.705,0.089,1.069,0.089
                        c0.365,0,0.722-0.036,1.072-0.089h0.052l-0.002-0.008c2.763-0.44,4.993-2.473,5.717-5.129c-1.014,0.956-2.307,1.621-3.747,1.851
                        L209.029,30.485z"/>
		<path fill="#3F496A" d="M205.811,35.15c-0.365,0-0.737-0.028-1.165-0.088H156.67c-0.878,0.124-1.512,0.122-2.407-0.011
                        c-0.028-0.003-0.054-0.008-0.081-0.013l0,0c-4.092-0.651-7.061-4.13-7.061-8.271c0-4.239,3.162-7.753,7.251-8.308
                        c-0.109-0.541-0.164-1.092-0.164-1.649c0-4.623,3.761-8.383,8.383-8.383c0.849,0,1.692,0.131,2.501,0.385
                        C166.21,3.747,170.73,0,176.078,0c5.032,0,9.287,3.233,10.73,7.833c1.936-1.465,4.31-2.276,6.784-2.276
                        c6.206,0,11.254,5.048,11.254,11.253c0,0.553-0.04,1.102-0.12,1.644c0.358-0.047,0.721-0.07,1.085-0.07
                        c4.622,0,8.384,3.761,8.384,8.384c0,4.089-2.895,7.531-6.905,8.243c-0.099,0.029-0.202,0.046-0.308,0.05
                        C206.557,35.121,206.173,35.15,205.811,35.15z M156.576,32.468h48.165c0.063,0,0.127,0.005,0.191,0.014
                        c0.676,0.102,1.082,0.102,1.752,0.001c0.015-0.003,0.03-0.006,0.044-0.008c2.824-0.449,4.872-2.85,4.872-5.708
                        c0-3.192-2.597-5.79-5.789-5.79c-0.814,0-1.608,0.171-2.361,0.508c-0.479,0.215-1.037,0.12-1.419-0.238
                        c-0.381-0.358-0.51-0.91-0.327-1.4c0.363-0.973,0.549-1.995,0.549-3.038c0-4.775-3.884-8.659-8.66-8.659
                        c-2.548,0-4.956,1.118-6.607,3.065c-0.339,0.4-0.884,0.557-1.383,0.398c-0.499-0.158-0.853-0.602-0.898-1.123
                        c-0.386-4.428-4.174-7.897-8.625-7.897c-4.588,0-8.385,3.585-8.644,8.163c-0.025,0.45-0.283,0.854-0.679,1.068
                        c-0.398,0.214-0.876,0.206-1.267-0.02c-0.883-0.513-1.886-0.783-2.897-0.783c-3.192,0-5.789,2.597-5.789,5.789
                        c0,0.817,0.172,1.615,0.511,2.371c0.189,0.42,0.141,0.909-0.126,1.283c-0.267,0.375-0.712,0.583-1.171,0.54
                        c-0.168-0.015-0.339-0.026-0.511-0.026c-3.192,0-5.79,2.597-5.79,5.79c0,2.858,2.05,5.26,4.876,5.709
                        c0.009,0.001,0.017,0.003,0.026,0.004c0.003,0,0.006,0.001,0.009,0.001c0.679,0.102,1.083,0.102,1.757,0
                        C156.447,32.473,156.512,32.468,156.576,32.468z"/>
                </g>
	<g>
                    <path fill="#FFFFFF" d="M100.336,98.644c0-3.913-3.173-7.087-7.087-7.087c-1.031,0-2.009,0.225-2.892,0.622
                        c0.406-1.087,0.631-2.263,0.631-3.493c0-5.498-4.458-9.956-9.958-9.956c-3.045,0-5.77,1.369-7.596,3.524
                        c-0.444-5.089-4.712-9.082-9.917-9.082c-5.307,0-9.643,4.152-9.938,9.386c-1.045-0.606-2.254-0.959-3.548-0.959
                        c-3.914,0-7.087,3.174-7.087,7.086c0,1.036,0.228,2.016,0.626,2.902c-0.207-0.018-0.414-0.032-0.626-0.032
                        c-3.913,0-7.085,3.173-7.085,7.087c0,3.531,2.586,6.451,5.967,6.989l-0.004,0.008h0.052c0.35,0.052,0.706,0.088,1.07,0.088
                        c0.366,0,0.722-0.037,1.072-0.088h48.163c0.351,0.052,0.706,0.088,1.071,0.088c0.366,0,0.721-0.037,1.071-0.088h0.053l-0.002-0.009
                        C97.75,105.095,100.336,102.174,100.336,98.644z"/>
		<path fill="#93B9D5" d="M96.468,102.362h-0.052c-0.35,0.053-0.706,0.089-1.07,0.089c-0.365,0-0.722-0.037-1.072-0.089H46.11
                        c-0.35,0.053-0.705,0.089-1.07,0.089c-0.364,0-0.721-0.037-1.072-0.089h-0.051l0.003-0.008c-3.38-0.538-5.967-3.458-5.967-6.989
                        c0-0.648,0.095-1.274,0.258-1.87c-1.37,1.292-2.229,3.118-2.229,5.15c0,3.531,2.587,6.451,5.967,6.989l-0.003,0.008h0.052
                        c0.35,0.052,0.707,0.088,1.07,0.088c0.365,0,0.722-0.037,1.071-0.088h48.165c0.35,0.052,0.706,0.088,1.071,0.088
                        c0.364,0,0.72-0.037,1.07-0.088h0.052l-0.002-0.009c2.764-0.439,4.995-2.472,5.717-5.129c-1.014,0.956-2.306,1.621-3.746,1.85
                        L96.468,102.362z"/>
		<path fill="#3F496A" d="M93.249,107.026c-0.365,0-0.738-0.027-1.165-0.088H44.109c-0.877,0.125-1.512,0.121-2.407-0.011
                        c-0.028-0.003-0.054-0.007-0.081-0.012l0,0c-4.091-0.651-7.061-4.13-7.061-8.271c0-4.239,3.162-7.753,7.251-8.308
                        c-0.109-0.54-0.164-1.092-0.164-1.65c0-4.623,3.761-8.383,8.383-8.383c0.85,0,1.692,0.131,2.5,0.385
                        c1.118-5.064,5.639-8.812,10.986-8.812c5.032,0,9.288,3.233,10.73,7.833c1.937-1.466,4.31-2.276,6.783-2.276
                        c6.206,0,11.254,5.048,11.254,11.253c0,0.553-0.04,1.102-0.12,1.644c0.358-0.047,0.72-0.07,1.085-0.07
                        c4.623,0,8.383,3.761,8.383,8.384c0,4.089-2.894,7.531-6.903,8.243c-0.1,0.029-0.204,0.046-0.309,0.05
                        C93.996,106.997,93.612,107.026,93.249,107.026z M44.015,104.344h48.163c0.065,0,0.129,0.005,0.192,0.015
                        c0.677,0.102,1.081,0.102,1.752,0.001c0.014-0.003,0.029-0.005,0.045-0.007c2.823-0.45,4.871-2.851,4.871-5.708
                        c0-3.193-2.597-5.79-5.789-5.79c-0.815,0-1.61,0.171-2.362,0.509c-0.477,0.216-1.036,0.12-1.417-0.238s-0.511-0.91-0.328-1.4
                        c0.364-0.973,0.548-1.995,0.548-3.038c0-4.774-3.884-8.659-8.66-8.659c-2.548,0-4.955,1.118-6.607,3.066
                        c-0.338,0.399-0.883,0.557-1.382,0.397c-0.5-0.159-0.854-0.602-0.899-1.124c-0.386-4.428-4.174-7.897-8.625-7.897
                        c-4.588,0-8.385,3.586-8.643,8.163c-0.027,0.45-0.283,0.855-0.68,1.068c-0.397,0.214-0.876,0.206-1.266-0.02
                        c-0.884-0.512-1.887-0.783-2.898-0.783c-3.192,0-5.789,2.597-5.789,5.789c0,0.817,0.172,1.615,0.512,2.37
                        c0.188,0.421,0.141,0.909-0.126,1.284c-0.268,0.375-0.713,0.58-1.172,0.54c-0.168-0.014-0.338-0.026-0.511-0.026
                        c-3.192,0-5.789,2.597-5.789,5.79c0,2.859,2.05,5.259,4.875,5.709c0.009,0.001,0.017,0.003,0.026,0.004
                        c0.003,0,0.006,0.002,0.009,0.002c0.679,0.102,1.083,0.102,1.758,0C43.886,104.349,43.951,104.344,44.015,104.344z"/>
                </g>
	<g>
                    <path fill="#FFFFFF" d="M313.27,82.366c0-3.914-3.173-7.087-7.087-7.087c-1.031,0-2.009,0.226-2.892,0.622
                        c0.406-1.086,0.631-2.263,0.631-3.492c0-5.498-4.458-9.956-9.957-9.956c-3.046,0-5.771,1.369-7.597,3.524
                        c-0.444-5.089-4.712-9.082-9.917-9.082c-5.308,0-9.643,4.153-9.939,9.386c-1.045-0.606-2.254-0.959-3.549-0.959
                        c-3.913,0-7.087,3.173-7.087,7.086c0,1.036,0.228,2.016,0.626,2.902c-0.206-0.019-0.415-0.032-0.627-0.032
                        c-3.911,0-7.085,3.173-7.085,7.087c0,3.532,2.587,6.451,5.967,6.989l-0.003,0.007h0.052c0.351,0.053,0.706,0.089,1.069,0.089
                        c0.367,0,0.723-0.037,1.072-0.089h48.163c0.352,0.053,0.706,0.089,1.071,0.089c0.366,0,0.722-0.037,1.071-0.089h0.052l-0.001-0.008
                        C310.686,88.816,313.27,85.897,313.27,82.366z"/>
		<path fill="#93B9D5" d="M309.403,86.084h-0.053c-0.35,0.052-0.705,0.088-1.07,0.088c-0.366,0-0.722-0.037-1.071-0.088h-48.164
                        c-0.35,0.052-0.705,0.088-1.071,0.088c-0.363,0-0.72-0.037-1.07-0.088h-0.052l0.004-0.008c-3.381-0.537-5.968-3.457-5.968-6.989
                        c0-0.648,0.095-1.274,0.259-1.871c-1.371,1.293-2.23,3.119-2.23,5.15c0,3.532,2.587,6.451,5.968,6.989l-0.004,0.007h0.052
                        c0.35,0.053,0.705,0.089,1.07,0.089s0.722-0.037,1.071-0.089h48.164c0.35,0.053,0.706,0.089,1.07,0.089
                        c0.365,0,0.72-0.037,1.071-0.089h0.052l-0.002-0.008c2.763-0.439,4.993-2.473,5.717-5.129c-1.014,0.956-2.307,1.621-3.747,1.851
                        L309.403,86.084z"/>
		<path fill="#3F496A" d="M306.184,90.749c-0.365,0-0.737-0.029-1.165-0.089h-47.975c-0.878,0.124-1.513,0.121-2.407-0.011
                        c-0.027-0.003-0.054-0.008-0.081-0.013v0.001c-4.091-0.651-7.061-4.13-7.061-8.271c0-4.239,3.162-7.753,7.251-8.308
                        c-0.109-0.541-0.164-1.091-0.164-1.649c0-4.622,3.76-8.383,8.383-8.383c0.849,0,1.692,0.131,2.501,0.385
                        c1.118-5.064,5.638-8.812,10.986-8.812c5.032,0,9.287,3.233,10.729,7.834c1.937-1.466,4.31-2.277,6.785-2.277
                        c6.205,0,11.254,5.048,11.254,11.253c0,0.553-0.041,1.102-0.12,1.644c0.357-0.047,0.72-0.07,1.084-0.07
                        c4.622,0,8.384,3.761,8.384,8.384c0,4.088-2.895,7.531-6.904,8.243c-0.1,0.028-0.203,0.046-0.309,0.05
                        C306.93,90.719,306.546,90.749,306.184,90.749z M256.949,88.066h48.163c0.064,0,0.129,0.005,0.192,0.014
                        c0.676,0.101,1.082,0.101,1.753,0.001c0.014-0.003,0.028-0.006,0.043-0.008c2.824-0.449,4.873-2.849,4.873-5.707
                        c0-3.193-2.598-5.79-5.79-5.79c-0.815,0-1.608,0.171-2.361,0.508c-0.478,0.216-1.037,0.121-1.419-0.237
                        c-0.381-0.358-0.51-0.91-0.326-1.4c0.363-0.973,0.548-1.995,0.548-3.038c0-4.775-3.885-8.659-8.659-8.659
                        c-2.549,0-4.956,1.117-6.608,3.066c-0.338,0.399-0.884,0.557-1.383,0.397c-0.498-0.159-0.853-0.602-0.898-1.124
                        c-0.386-4.428-4.174-7.896-8.624-7.896c-4.589,0-8.386,3.585-8.645,8.162c-0.025,0.45-0.282,0.855-0.679,1.068
                        c-0.398,0.214-0.876,0.206-1.267-0.02c-0.883-0.513-1.886-0.784-2.898-0.784c-3.192,0-5.789,2.597-5.789,5.789
                        c0,0.817,0.172,1.615,0.512,2.371c0.189,0.42,0.141,0.909-0.127,1.284c-0.267,0.375-0.711,0.581-1.171,0.54
                        c-0.168-0.015-0.338-0.026-0.513-0.026c-3.19,0-5.789,2.597-5.789,5.79c0,2.858,2.051,5.259,4.876,5.708
                        c0.008,0.002,0.017,0.003,0.026,0.005c0.003,0,0.006,0.001,0.009,0.001c0.679,0.101,1.084,0.101,1.758,0
                        C256.82,88.071,256.885,88.066,256.949,88.066z"/>
                </g>
	<g>
                    <path fill="#3F496A" d="M122.005,102.178l18.637-44.077h11.182v44.077h4.846v9.319h-4.846v11.834H141.76v-11.834h-19.755V102.178z
                         M141.76,102.178V77.671l-10.344,24.507C131.416,102.178,141.76,102.178,141.76,102.178z"/>
		<path fill="#3F496A" d="M160.489,73.757c0-10.437,5.498-16.4,15.563-16.4c10.063,0,15.562,5.964,15.562,16.4v33.919
                        c0,10.437-5.498,16.401-15.562,16.401s-15.563-5.964-15.563-16.401V73.757z M170.74,108.329c0,4.659,2.05,6.43,5.312,6.43
                        c3.261,0,5.312-1.771,5.312-6.43V73.104c0-4.659-2.051-6.43-5.312-6.43c-3.262,0-5.312,1.771-5.312,6.43V108.329z"/>
		<path fill="#3F496A" d="M195.806,102.178l18.637-44.077h11.183v44.077h4.846v9.319h-4.846v11.834h-10.064v-11.834h-19.755
                        L195.806,102.178L195.806,102.178z M215.561,102.178V77.671l-10.343,24.507C205.218,102.178,215.561,102.178,215.561,102.178z"/>
                </g>
	<g enable-background="new    ">
                    <path fill="#6E7C7D" d="M130.014,133.533c2.239,0,3.196,1.323,3.196,3.481v1.71c0,2.259-1.059,3.439-3.318,3.439h-1.405v5.618
                        h-1.587v-14.249H130.014z M129.892,140.739c1.18,0,1.75-0.55,1.75-1.913v-1.894c0-1.303-0.468-1.954-1.628-1.954h-1.527v5.761
                        H129.892z"/>
		<path fill="#6E7C7D" d="M135.792,144.912l-0.549,2.87h-1.466l2.728-14.249h2.3l2.728,14.249h-1.587l-0.55-2.87H135.792z
                         M135.996,143.547h3.176l-1.608-8.223L135.996,143.547z"/>
		<path fill="#6E7C7D" d="M149.041,136.973v1.222h-1.506v-1.303c0-1.283-0.509-2.057-1.669-2.057c-1.14,0-1.669,0.773-1.669,2.057
                        v7.531c0,1.282,0.529,2.056,1.669,2.056c1.16,0,1.669-0.773,1.669-2.056v-2.85h-1.465v-1.425h2.972v4.192
                        c0,2.158-1.018,3.583-3.216,3.583c-2.178,0-3.196-1.425-3.196-3.583v-7.368c0-2.157,1.018-3.583,3.196-3.583
                        C148.023,133.39,149.041,134.816,149.041,136.973z"/>
		<path fill="#6E7C7D"
			  d="M155.613,139.843v1.425h-3.48v5.068h4.274v1.445h-5.862v-14.249h5.862v1.445h-4.274v4.865H155.613z"/>
		<path fill="#6E7C7D"
			  d="M162.429,147.782h-1.425v-14.249h2.015l3.298,10.3v-10.3h1.404v14.249h-1.649l-3.644-11.521V147.782z"/>
		<path fill="#6E7C7D" d="M169.225,136.973c0-2.178,1.079-3.583,3.257-3.583c2.198,0,3.277,1.405,3.277,3.583v7.368
                        c0,2.158-1.079,3.583-3.277,3.583c-2.178,0-3.257-1.425-3.257-3.583V136.973z M170.792,144.423c0,1.303,0.549,2.056,1.689,2.056
                        c1.16,0,1.689-0.753,1.689-2.056v-7.531c0-1.283-0.529-2.057-1.689-2.057c-1.14,0-1.689,0.773-1.689,2.057V144.423z"/>
		<path fill="#6E7C7D" d="M179.318,147.782v-12.804h-2.625v-1.445h6.819v1.445h-2.626v12.804H179.318z"/>
		<path fill="#6E7C7D"
			  d="M192.607,140.168v1.445h-3.277v6.168h-1.588v-14.249h5.658v1.445h-4.07v5.19H192.607z"/>
		<path fill="#6E7C7D" d="M194.539,136.973c0-2.178,1.078-3.583,3.257-3.583c2.198,0,3.276,1.405,3.276,3.583v7.368
                        c0,2.158-1.078,3.583-3.276,3.583c-2.179,0-3.257-1.425-3.257-3.583V136.973z M196.105,144.423c0,1.303,0.55,2.056,1.69,2.056
                        c1.16,0,1.689-0.753,1.689-2.056v-7.531c0-1.283-0.529-2.057-1.689-2.057c-1.141,0-1.69,0.773-1.69,2.057V144.423z"/>
		<path fill="#6E7C7D" d="M204.083,144.423c0,1.282,0.509,2.056,1.669,2.056c1.14,0,1.648-0.773,1.648-2.056v-10.891h1.486v10.809
                        c0,2.158-0.998,3.604-3.196,3.604c-2.178,0-3.175-1.445-3.175-3.604v-10.809h1.567V144.423z"/>
		<path fill="#6E7C7D"
			  d="M211.855,147.782h-1.425v-14.249h2.016l3.298,10.3v-10.3h1.404v14.249h-1.649l-3.644-11.521V147.782z"/>
		<path fill="#6E7C7D" d="M222.112,133.533c2.219,0,3.236,1.344,3.236,3.542v7.186c0,2.178-1.018,3.521-3.236,3.521h-3.338v-14.249
                        H222.112z M222.092,146.336c1.14,0,1.689-0.712,1.689-2.015v-7.328c0-1.303-0.55-2.016-1.71-2.016h-1.71v11.358H222.092z"/>
                </g>
	<g>
                    <g>
                        <g>
                            <rect x="79.776" y="172.35" fill="#FFFFFF" width="13.726" height="133.932"/>
							<path fill="#637EA8" d="M86.639,154.882c-4.167,0-7.546,3.378-7.546,7.544v9.924h15.092v-9.924
                                C94.185,158.26,90.806,154.882,86.639,154.882z"/>
							<circle fill="#E8A15B" cx="86.638" cy="144.919" r="9.962"/>
							<path opacity="0.5" fill="#FFFFFF" enable-background="new    " d="M84.784,138.081c5.502,0,9.962,4.461,9.962,9.962
                                c0,0.88-0.125,1.729-0.34,2.541c1.265-1.67,2.024-3.744,2.024-6.001c0-5.501-4.459-9.962-9.961-9.962
                                c-4.622,0-8.498,3.153-9.622,7.421C78.664,139.64,81.538,138.081,84.784,138.081z"/>
							<circle fill="#FFFFFF" cx="86.639" cy="144.919" r="3.669"/>
							<path fill="#3F496A" d="M94.185,173.648H79.093c-0.716,0-1.296-0.581-1.296-1.298v-9.924c0-4.874,3.967-8.841,8.842-8.841
                                s8.842,3.967,8.842,8.841v9.924C95.481,173.067,94.9,173.648,94.185,173.648z M80.39,171.054h12.498v-8.628
                                c0-3.444-2.803-6.248-6.249-6.248s-6.249,2.804-6.249,6.248V171.054z"/>
							<path fill="#3F496A" d="M86.639,156.178c-6.209,0-11.259-5.051-11.259-11.259c0-6.208,5.051-11.259,11.259-11.259
                                s11.259,5.05,11.259,11.259C97.898,151.127,92.847,156.178,86.639,156.178z M86.639,136.254c-4.779,0-8.665,3.887-8.665,8.665
                                c0,4.779,3.886,8.666,8.665,8.666c4.778,0,8.665-3.887,8.665-8.666C95.304,140.141,91.416,136.254,86.639,136.254z"/>
							<rect x="79.776" y="218.97" fill="#E8A15B" width="13.726" height="9.501"/>
							<path fill="#3F496A" d="M93.501,308.101H79.776c-0.716,0-1.297-0.581-1.297-1.298V164.792c0-0.716,0.581-1.296,1.297-1.296
                                h13.726c0.717,0,1.296,0.58,1.296,1.296v142.011C94.798,307.52,94.218,308.101,93.501,308.101z M81.072,305.506h11.133V166.09
                                H81.072V305.506z"/>
                        </g>
						<g>
                            <rect x="258.6" y="172.35" fill="#FFFFFF" width="13.726" height="133.932"/>
							<path fill="#637EA8" d="M265.464,154.882c-4.168,0-7.546,3.378-7.546,7.544v9.924h15.091v-9.924
                                C273.009,158.26,269.631,154.882,265.464,154.882z"/>
							<circle fill="#E8A15B" cx="265.463" cy="144.919" r="9.962"/>
							<path opacity="0.5" fill="#FFFFFF" enable-background="new    " d="M263.609,138.081c5.502,0,9.962,4.461,9.962,9.962
                                c0,0.88-0.126,1.729-0.34,2.541c1.265-1.67,2.024-3.744,2.024-6.001c0-5.501-4.46-9.962-9.962-9.962
                                c-4.622,0-8.498,3.153-9.623,7.421C257.49,139.64,260.363,138.081,263.609,138.081z"/>
							<circle fill="#FFFFFF" cx="265.463" cy="144.919" r="3.669"/>
							<path fill="#3F496A" d="M273.009,173.648h-15.091c-0.717,0-1.297-0.581-1.297-1.298v-9.924c0-4.874,3.967-8.841,8.843-8.841
                                c4.875,0,8.842,3.967,8.842,8.841v9.924C274.306,173.067,273.726,173.648,273.009,173.648z M259.215,171.054h12.497v-8.628
                                c0-3.444-2.803-6.248-6.248-6.248c-3.446,0-6.249,2.804-6.249,6.248L259.215,171.054L259.215,171.054z"/>
							<path fill="#3F496A" d="M265.464,156.178c-6.209,0-11.261-5.051-11.261-11.259c0-6.208,5.052-11.259,11.261-11.259
                                c6.207,0,11.259,5.05,11.259,11.259C276.723,151.127,271.671,156.178,265.464,156.178z M265.464,136.254
                                c-4.778,0-8.667,3.887-8.667,8.665c0,4.779,3.889,8.666,8.667,8.666c4.777,0,8.665-3.887,8.665-8.666
                                C274.129,140.141,270.241,136.254,265.464,136.254z"/>
							<rect x="258.6" y="218.97" fill="#E8A15B" width="13.726" height="9.501"/>
							<path fill="#3F496A" d="M272.326,308.101H258.6c-0.716,0-1.297-0.581-1.297-1.298V164.792c0-0.716,0.581-1.296,1.297-1.296
                                h13.727c0.717,0,1.297,0.58,1.297,1.296v142.011C273.623,307.52,273.043,308.101,272.326,308.101z M259.897,305.506h11.132
                                V166.09h-11.132V305.506z"/>
                        </g>
                    </g>
		<rect x="68.096" y="270.596" fill="#FFFFFF" width="215.909" height="19.021"/>
		<rect x="70.605" y="164.793" fill="#FFFFFF" width="210.891" height="53.173"/>
		<g>
                        <polygon fill="#637EA8"
								 points="113.58,164.792 68.096,210.276 68.096,217.965 84.16,217.965 137.332,164.792 		"/>
			<polygon fill="#637EA8"
					 points="68.096,172.776 68.096,196.53 99.832,164.792 76.079,164.792 		"/>
			<polygon fill="#637EA8"
					 points="211.963,164.792 188.211,164.792 135.038,217.965 158.791,217.965 		"/>
			<polygon fill="#637EA8"
					 points="174.463,164.792 150.71,164.792 97.538,217.965 121.291,217.965 		"/>
			<polygon fill="#637EA8"
					 points="249.279,164.792 225.525,164.792 172.353,217.965 196.105,217.965 		"/>
			<polygon fill="#637EA8"
					 points="284.005,204.698 284.005,180.944 246.984,217.965 270.737,217.965 		"/>
			<polygon fill="#637EA8"
					 points="284.005,167.197 284.005,164.792 262.657,164.792 209.484,217.965 233.237,217.965 		"/>
                    </g>
		<rect x="68.096" y="164.793" opacity="0.5" fill="#FFFFFF" enable-background="new    " width="215.909"
			  height="5.513"/>
		<path fill="#3F496A" d="M284.005,219.263H68.096c-0.716,0-1.296-0.582-1.296-1.298v-53.173c0-0.716,0.58-1.296,1.296-1.296h215.909
                        c0.716,0,1.297,0.58,1.297,1.296v53.173C285.302,218.681,284.721,219.263,284.005,219.263z M69.393,216.669h213.315v-50.58H69.393
                        V216.669z"/>
		<g>
                        <polygon fill="#637EA8"
								 points="79.118,270.596 68.096,281.618 68.096,289.618 76.415,289.618 95.436,270.596 		"/>
			<polygon fill="#637EA8"
					 points="123.067,270.596 106.749,270.596 87.728,289.618 104.045,289.618 		"/>
			<polygon fill="#637EA8"
					 points="149.993,270.596 133.675,270.596 114.654,289.618 130.972,289.618 		"/>
			<polygon fill="#637EA8"
					 points="177.622,270.596 161.305,270.596 142.285,289.618 158.602,289.618 		"/>
			<polygon fill="#637EA8"
					 points="206.988,270.596 190.67,270.596 171.649,289.618 187.968,289.618 		"/>
			<polygon fill="#637EA8"
					 points="234.618,270.596 218.3,270.596 199.278,289.618 215.598,289.618 		"/>
			<polygon fill="#637EA8"
					 points="263.193,270.596 246.875,270.596 227.854,289.618 244.173,289.618 		"/>
			<polygon fill="#637EA8"
					 points="284.005,277.414 284.005,270.596 274.505,270.596 255.483,289.618 271.803,289.618 		"/>
                    </g>
		<path fill="#3F496A" d="M284.005,290.914H68.096c-0.716,0-1.296-0.581-1.296-1.296v-19.021c0-0.716,0.58-1.298,1.296-1.298h215.909
                        c0.716,0,1.297,0.582,1.297,1.298v19.021C285.302,290.333,284.721,290.914,284.005,290.914z M69.393,288.32h213.315v-16.428H69.393
                        V288.32z"/>
                </g>
	<path fill="#3F496A" d="M327.075,308.101H25.026c-0.715,0-1.296-0.581-1.296-1.298s0.581-1.297,1.296-1.297h302.049
                    c0.715,0,1.297,0.58,1.297,1.297S327.79,308.101,327.075,308.101z"/>
	<g>
                    <polygon fill="#E8A15B" points="340.826,297.488 323.402,225.501 321.052,225.501 316.715,225.501 314.364,225.501
                        296.938,297.488 286.424,297.488 286.424,306.804 351.341,306.804 351.341,297.488 	"/>
		<polygon fill="#F1F1F2" points="333.153,265.126 304.771,265.126 306.782,256.82 330.981,256.82 	"/>
		<rect x="300.471" y="274.491" fill="#F1F1F2" width="35.26" height="8.306"/>
		<polygon opacity="0.5" fill="#FFFFFF" enable-background="new    " points="335.73,297.488 318.962,225.501 322.867,225.501
                        340.826,297.488 	"/>
		<rect x="285.889" y="297.488" opacity="0.5" fill="#FFFFFF" enable-background="new    " width="64.917"
			  height="4.57"/>
		<path fill="#3F496A" d="M350.806,308.101h-64.917c-0.717,0-1.297-0.581-1.297-1.297v-9.316c0-0.716,0.58-1.298,1.297-1.298h9.494
                        l17.184-70.995c0.143-0.582,0.662-0.991,1.262-0.991h9.039c0.599,0,1.119,0.409,1.26,0.991l17.184,70.995h9.495
                        c0.714,0,1.296,0.582,1.296,1.298v9.316C352.102,307.52,351.52,308.101,350.806,308.101z M287.184,305.506h62.324v-6.722h-9.218
                        c-0.599,0-1.119-0.409-1.26-0.991l-17.185-70.995h-6.997l-17.187,70.995c-0.14,0.582-0.661,0.991-1.26,0.991h-9.218v6.722H287.184z
                        "/>
		<path fill="#3F496A" d="M323.858,298.785h-26.921c-0.716,0-1.296-0.58-1.296-1.297c0-0.716,0.58-1.298,1.296-1.298h26.921
                        c0.717,0,1.297,0.582,1.297,1.298C325.155,298.205,324.575,298.785,323.858,298.785z"/>
		<path fill="#3F496A" d="M346.771,298.785h-15.348c-0.717,0-1.297-0.58-1.297-1.297c0-0.716,0.58-1.298,1.297-1.298h15.348
                        c0.714,0,1.296,0.582,1.296,1.298C348.067,298.205,347.485,298.785,346.771,298.785z"/>
                </g>
	<g>
                    <polygon fill="#E8A15B" points="56.235,297.488 38.811,225.501 36.458,225.501 32.123,225.501 29.771,225.501 12.346,297.488
                        1.832,297.488 1.832,306.804 66.748,306.804 66.748,297.488 	"/>
		<polygon fill="#F1F1F2" points="48.562,265.126 20.18,265.126 22.19,256.82 46.389,256.82 	"/>
		<rect x="15.879" y="274.491" fill="#F1F1F2" width="35.259" height="8.306"/>
		<polygon opacity="0.5" fill="#FFFFFF" enable-background="new    " points="51.138,297.488 34.371,225.501 38.274,225.501
                        56.235,297.488 	"/>
		<rect x="1.296" y="297.488" opacity="0.5" fill="#FFFFFF" enable-background="new    " width="64.916"
			  height="4.57"/>
		<path fill="#3F496A" d="M66.213,308.101H1.296C0.58,308.101,0,307.52,0,306.804v-9.316c0-0.716,0.581-1.298,1.296-1.298h9.494
                        l17.185-70.995c0.141-0.582,0.662-0.991,1.26-0.991h9.039c0.599,0,1.12,0.409,1.261,0.991L56.72,296.19h9.493
                        c0.716,0,1.297,0.582,1.297,1.298v9.316C67.51,307.52,66.929,308.101,66.213,308.101z M2.593,305.506h62.323v-6.722h-9.217
                        c-0.599,0-1.12-0.409-1.26-0.991l-17.185-70.995h-6.998L13.07,297.793c-0.141,0.582-0.661,0.991-1.26,0.991H2.593V305.506z"/>
		<path fill="#3F496A" d="M39.266,298.785h-26.92c-0.716,0-1.297-0.58-1.297-1.297c0-0.716,0.581-1.298,1.297-1.298h26.92
                        c0.717,0,1.297,0.582,1.297,1.298C40.563,298.205,39.983,298.785,39.266,298.785z"/>
		<path fill="#3F496A" d="M62.179,298.785H46.832c-0.716,0-1.297-0.58-1.297-1.297c0-0.716,0.581-1.298,1.297-1.298h15.347
                        c0.716,0,1.297,0.582,1.297,1.298C63.476,298.205,62.895,298.785,62.179,298.785z"/>
                </g>
</svg>