<?xml version="1.0" encoding="utf-8"?>
<!-- Generator: Adobe Illustrator 17.0.0, SVG Export Plug-In . SVG Version: 6.00 Build 0)  -->
<!DOCTYPE svg PUBLIC "-//W3C//DTD SVG 1.1//EN" "http://www.w3.org/Graphics/SVG/1.1/DTD/svg11.dtd">
<svg version="1.1" id="Слой_4" xmlns="http://www.w3.org/2000/svg" xmlns:xlink="http://www.w3.org/1999/xlink" x="0px" y="0px"
	 width="601.668px" height="586.072px" viewBox="0 0 601.668 586.072" enable-background="new 0 0 601.668 586.072"
	 xml:space="preserve">
<g>
	<path fill="none" d="M400.31,117.108c0-8.543-6.949-15.492-15.491-15.492c-4.134,0-8.023,1.612-10.951,4.541
		c-2.93,2.929-4.542,6.818-4.54,10.951c0,8.543,6.949,15.492,15.491,15.492S400.31,125.651,400.31,117.108z"/>
	<path fill="none" d="M302.959,215.979c-8.542,0-15.491,6.949-15.491,15.492s6.949,15.493,15.491,15.493
		c8.543,0,15.493-6.95,15.493-15.493S311.502,215.979,302.959,215.979z"/>
	<rect x="290.186" y="321.041" fill="none" width="25.545" height="68.172"/>
	<rect x="126.468" y="321.041" fill="none" width="25.545" height="68.172"/>
	<rect x="97.364" y="451.125" fill="none" width="329.33" height="0.007"/>
	<rect x="208.328" y="275.461" fill="none" width="25.545" height="113.752"/>
	<path fill="none" d="M563.243,303.446c7.074-26.401,3.444-53.979-10.223-77.653c-18.216-31.549-52.238-51.147-88.791-51.147
		c-17.853,0-35.488,4.733-51.002,13.689c-48.867,28.214-65.67,90.925-37.457,139.792c13.668,23.673,35.735,40.606,62.139,47.682
		c8.741,2.342,17.707,3.528,26.647,3.528c17.786,0,35.424-4.756,51.005-13.752C539.234,351.917,556.168,329.85,563.243,303.446z
		 M464.532,358.076c-7.085,0-14.191-0.942-21.123-2.8c-20.921-5.607-38.405-19.023-49.231-37.778
		c-10.829-18.757-13.706-40.606-8.101-61.525c5.605-20.92,19.022-38.404,37.777-49.232c12.35-7.13,26.379-10.898,40.57-10.898
		c17.776,0,34.696,5.692,48.932,16.464c1.133,0.857,1.864,2.104,2.059,3.511c0.195,1.407-0.17,2.806-1.027,3.939
		c-1.015,1.341-2.562,2.11-4.246,2.11c-1.164,0-2.271-0.373-3.204-1.079c-12.365-9.355-27.066-14.3-42.514-14.3
		c-12.332,0-24.521,3.273-35.249,9.467c-16.271,9.394-27.916,24.587-32.791,42.781c-4.876,18.194-2.388,37.175,7.006,53.444
		c9.408,16.295,24.599,27.951,42.774,32.821c6.017,1.611,12.188,2.429,18.343,2.429c12.246,0,24.387-3.273,35.109-9.465
		c15.398-8.891,26.781-23.132,32.051-40.102c5.238-16.874,3.993-34.935-3.506-50.854c-1.25-2.652-0.108-5.827,2.544-7.077
		c0.717-0.338,1.478-0.509,2.261-0.509c2.052,0,3.943,1.199,4.817,3.055c8.637,18.33,10.071,39.12,4.042,58.542
		c-6.064,19.533-19.166,35.926-36.892,46.157C492.587,354.307,478.616,358.076,464.532,358.076z"/>
	<path fill="none" d="M139.24,215.979c-8.542,0-15.491,6.949-15.491,15.492s6.949,15.493,15.491,15.493s15.491-6.95,15.491-15.493
		S147.782,215.979,139.24,215.979z"/>
	<path fill="none" d="M221.1,169.5c-8.542,0-15.491,6.949-15.491,15.491c0,8.543,6.949,15.493,15.491,15.493
		c4.133,0,8.022-1.612,10.951-4.541c2.929-2.93,4.541-6.819,4.54-10.952C236.591,176.449,229.642,169.5,221.1,169.5z"/>
	<path fill="#E8A15B" d="M157.027,212.354c-4.856-4.521-11.172-7.013-17.783-7.013c-14.408,0-26.131,11.723-26.131,26.132
		c0,14.408,11.723,26.131,26.131,26.131s26.13-11.723,26.13-26.131c0-1.836-0.197-3.685-0.587-5.495l-0.508-2.361l-5.743-9.858
		L157.027,212.354z M139.24,246.964c-8.542,0-15.491-6.95-15.491-15.493s6.949-15.492,15.491-15.492s15.491,6.949,15.491,15.492
		S147.782,246.964,139.24,246.964z"/>
	<path fill="#E8A15B" d="M384.818,143.239c14.408,0,26.13-11.723,26.13-26.131s-11.722-26.131-26.13-26.131
		s-26.13,11.723-26.13,26.131c0,5.705,1.816,11.13,5.251,15.688l1.422,1.886l8.867,6.448l2.455,0.806
		C379.319,142.801,382.056,143.239,384.818,143.239z M369.327,117.108c-0.002-4.133,1.61-8.022,4.54-10.951
		c2.928-2.929,6.817-4.541,10.951-4.541c8.542,0,15.491,6.949,15.491,15.492s-6.949,15.492-15.491,15.492
		S369.327,125.651,369.327,117.108z"/>
	<path fill="#E8A15B" d="M246.09,193.071l0.556-2.584c0.39-1.811,0.587-3.659,0.587-5.495c0-14.408-11.723-26.13-26.131-26.13
		s-26.13,11.722-26.13,26.13c0,1.836,0.197,3.686,0.587,5.495l0.521,2.423l5.679,9.748l1.56,1.453
		c4.857,4.522,11.173,7.014,17.783,7.014c6.609,0,12.926-2.49,17.785-7.013l1.783-1.658l5.455-9.363L246.09,193.071z
		 M232.051,195.943c-2.929,2.929-6.818,4.541-10.951,4.541c-8.542,0-15.491-6.95-15.491-15.493c0-8.542,6.949-15.491,15.491-15.491
		s15.491,6.949,15.491,15.491C236.592,189.124,234.979,193.014,232.051,195.943z"/>
	<path fill="#3F496A" d="M494.43,440.486H21.629c-6.061,0-10.99-4.93-10.99-10.99V61.536c0-6.061,4.93-10.99,10.99-10.99h42.045
		c2.933,0,5.319-2.387,5.319-5.319s-2.387-5.319-5.319-5.319H21.629C9.703,39.907,0,49.61,0,61.536v367.96
		c0,11.926,9.703,21.629,21.629,21.629h65.097v0.007h10.639v-0.007h329.33v0.007h10.639v-0.007h57.097
		c2.933,0,5.319-2.387,5.319-5.319S497.362,440.486,494.43,440.486z"/>
	<path fill="#637EA8" d="M121.148,310.401c-2.933,0-5.319,2.387-5.319,5.319v78.811c0,2.933,2.387,5.319,5.319,5.319h36.184
		c2.934,0,5.32-2.387,5.32-5.319v-78.811c0-2.933-2.387-5.319-5.32-5.319H121.148z M152.013,389.213h-25.545v-68.172h25.545V389.213
		z"/>
	<path fill="#3F496A" d="M203.007,264.822c-2.933,0-5.319,2.387-5.319,5.319v124.391c0,2.933,2.387,5.319,5.319,5.319h36.184
		c2.933,0,5.319-2.387,5.319-5.319V270.142c0-2.933-2.387-5.319-5.319-5.319H203.007z M233.873,389.213h-25.545V275.461h25.545
		V389.213z"/>
	<path fill="#637EA8" d="M284.866,310.401c-2.933,0-5.319,2.387-5.319,5.319v78.811c0,2.933,2.387,5.319,5.319,5.319h36.184
		c2.933,0,5.319-2.387,5.319-5.319v-78.811c0-2.933-2.387-5.319-5.319-5.319H284.866z M315.73,389.213h-25.545v-68.172h25.545
		V389.213z"/>
	<path fill="#3F496A" d="M366.726,363.03c-2.933,0-5.319,2.387-5.319,5.319v26.183c0,2.933,2.387,5.319,5.319,5.319h36.184
		c2.933,0,5.319-2.387,5.319-5.319s-2.387-5.319-5.319-5.319h-30.864V368.35C372.045,365.417,369.658,363.03,366.726,363.03z"/>
	<path fill="#637EA8" d="M506.867,381.659c4.823-1.969,9.539-4.276,14.016-6.861c4.424-2.554,8.78-5.489,12.948-8.724l2.902-2.252
		l9.33-8.715l0.864-0.92c12.578-13.408,21.774-30.002,26.593-47.987c7.811-29.146,3.803-59.59-11.286-85.726
		c-20.106-34.828-57.671-56.464-98.031-56.464c-19.702,0-39.168,5.226-56.293,15.113c-26.09,15.062-44.765,39.429-52.584,68.61
		c-7.819,29.183-3.829,59.622,11.233,85.713c15.089,26.133,39.45,44.826,68.598,52.638c18.017,4.828,36.923,5.162,54.862,0.962
		l0.846-0.198l12.194-3.635L506.867,381.659z M464.557,379.337c-8.94,0-17.906-1.187-26.647-3.528
		c-26.403-7.075-48.471-24.009-62.139-47.682c-28.213-48.867-11.41-111.578,37.457-139.792
		c15.514-8.956,33.149-13.689,51.002-13.689c36.553,0,70.575,19.599,88.791,51.147c13.667,23.674,17.297,51.252,10.223,77.653
		c-7.075,26.403-24.009,48.471-47.682,62.139C499.98,374.581,482.343,379.337,464.557,379.337z"/>
	<path fill="#E8A15B" d="M541.825,301.02c6.029-19.422,4.595-40.212-4.042-58.542c-0.874-1.855-2.766-3.055-4.817-3.055
		c-0.783,0-1.544,0.171-2.261,0.509c-2.652,1.25-3.794,4.425-2.544,7.077c7.499,15.92,8.744,33.98,3.506,50.854
		c-5.27,16.97-16.652,31.211-32.051,40.102c-10.723,6.191-22.863,9.465-35.109,9.465c-6.155,0-12.326-0.817-18.343-2.429
		c-18.176-4.87-33.366-16.526-42.774-32.821c-9.394-16.27-11.882-35.25-7.006-53.444c4.875-18.194,16.521-33.388,32.791-42.781
		c10.728-6.193,22.917-9.467,35.249-9.467c15.447,0,30.148,4.944,42.514,14.3c0.933,0.706,2.04,1.079,3.204,1.079
		c1.685,0,3.231-0.77,4.246-2.11c0.857-1.134,1.223-2.532,1.027-3.939c-0.194-1.407-0.926-2.653-2.059-3.511
		c-14.235-10.771-31.155-16.464-48.932-16.464c-14.191,0-28.221,3.769-40.57,10.898c-18.755,10.828-32.172,28.313-37.777,49.232
		c-5.605,20.919-2.729,42.769,8.101,61.525c10.826,18.755,28.311,32.171,49.231,37.778c6.932,1.857,14.038,2.8,21.123,2.8
		c14.084,0,28.055-3.77,40.401-10.899C522.659,336.945,535.761,320.553,541.825,301.02z"/>
	<path fill="#3F496A" d="M597.601,447.074l-48.316-83.688l-4.187-7.252l0.965-1.028l-9.33,8.715l0.359-0.279l4.213,7.297
		l47.083,81.551c1.729,3.001,2.642,6.396,2.642,9.819c0,7.012-3.769,13.544-9.836,17.047c-2.982,1.722-6.375,2.632-9.81,2.632
		c-7.021,0-13.557-3.766-17.057-9.827l-47.042-81.501l-4.239-7.344l0.012-0.005l-12.194,3.635l1.757-0.411l4.184,7.249
		l48.308,83.694c5.392,9.343,15.469,15.146,26.299,15.145c5.281,0,10.502-1.401,15.098-4.053
		c9.35-5.397,15.158-15.461,15.158-26.263C601.668,456.919,600.262,451.686,597.601,447.074z"/>
	<path fill="#637EA8" d="M426.694,451.132v8v15.222c0,3.331-2.71,6.041-6.041,6.041H103.405c-3.331,0-6.041-2.71-6.041-6.041
		v-15.222v-8H86.726v8v15.222c0,9.022,7.204,16.375,16.159,16.653h318.289c8.955-0.278,16.159-7.632,16.159-16.653v-15.222v-8
		H426.694z"/>
	<path fill="#3F496A" d="M421.174,491.007H102.885c0.174,0.005,0.345,0.026,0.52,0.026h95.166l-44.711,87.293
		c-1.337,2.61-0.301,5.822,2.31,7.159c0.759,0.39,1.571,0.587,2.417,0.587c2.01,0,3.826-1.109,4.74-2.896l47.195-92.144h103.013
		l47.195,92.142c0.915,1.787,2.731,2.897,4.741,2.897c0.843,0,1.657-0.198,2.42-0.588c2.607-1.336,3.644-4.548,2.307-7.158
		l-44.711-87.293h95.166C420.829,491.033,421,491.012,421.174,491.007z"/>
	<g>
		<path fill="#637EA8" d="M289.153,0h-54.248c-10.354,0-18.778,8.423-18.778,18.776v13.15v8h10.641v-8v-13.15
			c-0.001-2.171,0.846-4.214,2.384-5.753c1.538-1.538,3.581-2.385,5.754-2.385h54.248c4.488,0,8.139,3.65,8.139,8.138v13.15v8
			h10.639v-8v-13.15C307.931,8.423,299.507,0,289.153,0z"/>
		<path fill="#3F496A" d="M502.429,39.907l-194.498,0.02h-10.639h-70.524h-10.641L99.35,39.907c-2.933,0-5.319,2.387-5.319,5.319
			s2.387,5.319,5.319,5.319h403.079c6.061,0,10.99,4.93,10.99,10.99v84.803c0,2.933,2.387,5.319,5.319,5.319
			s5.319-2.387,5.319-5.319V61.536C524.058,49.61,514.354,39.907,502.429,39.907z"/>
	</g>
	<polygon fill="#3F496A" points="283.244,214.154 246.124,193.091 240.669,202.454 240.819,202.314 277.945,223.38 283.41,214 	"/>
	<g>
		<path fill="none" d="M302.959,215.979c-8.542,0-15.491,6.949-15.491,15.492s6.949,15.493,15.491,15.493
			c8.543,0,15.493-6.95,15.493-15.493S311.502,215.979,302.959,215.979z"/>
		<path fill="#E8A15B" d="M311.094,206.644c-2.633-0.864-5.369-1.303-8.134-1.303c-6.611,0-12.927,2.491-17.783,7.014L283.41,214
			l-5.464,9.38l0.028,0.016l-0.557,2.584c-0.39,1.807-0.587,3.655-0.587,5.494c0,14.409,11.722,26.132,26.13,26.132
			c14.409,0,26.132-11.723,26.132-26.132c0-5.705-1.816-11.131-5.253-15.689l-1.592-2.111l0.055-0.077l-9.705-6.459L311.094,206.644
			z M302.959,246.964c-8.542,0-15.491-6.95-15.491-15.493s6.949-15.492,15.491-15.492c8.543,0,15.493,6.949,15.493,15.492
			S311.502,246.964,302.959,246.964z"/>
		<polygon fill="#3F496A" points="365.361,134.682 365.531,134.907 313.605,207.469 312.598,207.138 322.302,213.597 
			374.172,141.111 374.229,141.13 		"/>
	</g>
	<polygon fill="#3F496A" points="196.08,192.911 196.114,193.071 158.96,214.154 158.537,213.76 164.28,223.618 164.231,223.395 
		201.386,202.312 201.759,202.659 	"/>
</g>
</svg>
