<svg version="1.1" xmlns="http://www.w3.org/2000/svg" xmlns:xlink="http://www.w3.org/1999/xlink" x="0px" y="0px"
	 width="587.28px" height="583.178px" viewBox="1028.8 129.356 587.28 583.178"
	 enable-background="new 1028.8 129.356 587.28 583.178" xml:space="preserve">
	<g>
		<path fill="#3F496A" d="M1182.816,481.965c4.1,0,7.425,3.324,7.425,7.425c0,4.101-3.324,7.425-7.425,7.425
			c-4.101,0-7.425-3.324-7.425-7.425C1175.392,485.289,1178.716,481.965,1182.816,481.965z M1124.909,489.39
			c0-4.101,3.324-7.425,7.425-7.425c4.1,0,7.425,3.324,7.425,7.425c0,4.101-3.324,7.425-7.425,7.425
			C1128.233,496.815,1124.909,493.49,1124.909,489.39z"/>
		<path fill="#3F496A" d="M1241.039,618.792l-27.644-6.468c-10.3-2.41-17.494-11.482-17.494-22.06v-8.583v-2.178l1.829-1.182
			c20.627-13.331,32.942-35.877,32.942-60.311v-54.643c-0.004-0.066-0.007-0.133-0.009-0.206c-0.017-0.917-0.285-1.794-0.777-2.544
			c-0.888-1.353-2.389-2.162-4.013-2.162c-0.931,0-1.838,0.272-2.623,0.787c-8.292,5.442-26.966,8.453-36.703,8.453
			c-23.944,0-47.163-8.411-67.147-24.325l-0.236-0.188l-0.205-0.221l-21.585-23.268l-2.18-2.35l1.818-2.64
			c4.259-6.182,9.042-11.55,14.217-15.955c20.891-17.776,45.115-18.677,49.759-18.677c0.551,0,0.853,0.013,0.879,0.014
			c17.256,0.892,33.557,8.656,48.467,23.077c13.221,12.789,23.075,30.943,29.287,53.957c0.563,2.087,2.465,3.544,4.625,3.544
			c0.42,0,0.842-0.056,1.255-0.167c2.545-0.687,4.061-3.323,3.372-5.873c-6.67-24.709-17.395-44.341-31.877-58.351
			c-20.704-20.026-41.128-25.06-54.616-25.757c-0.091-0.005-0.613-0.029-1.501-0.029c-4.19,0-19.148,0.588-35.708,8.158l-1.708,0.781
			l-1.692-0.816c-8.717-4.204-18.454-6.425-28.159-6.425c-35.737,0.002-64.812,29.077-64.812,64.813
			c0,16.989,6.526,33.046,18.377,45.213c9.919,10.185,22.557,16.696,36.547,18.83l3.397,0.518v3.436v13.017
			c0,12.683,3.371,25.156,9.748,36.068c6.19,10.593,15.048,19.496,25.616,25.746l1.964,1.161v2.282v6.995
			c0,10.577-7.193,19.648-17.493,22.06l-27.645,6.468c-24.955,5.84-42.384,27.818-42.384,53.447v35.503
			c0,2.642,2.15,4.792,4.792,4.792h236.915c2.642,0,4.792-2.15,4.792-4.792v-35.503
			C1283.423,646.61,1265.993,624.632,1241.039,618.792z M1087.125,475.996v11.156v4.901l-4.801-0.982
			c-25.871-5.289-43.939-27.525-43.939-54.072c0-30.452,24.775-55.227,55.227-55.227c3.787,0,7.648,0.411,11.476,1.221l8.237,1.744
			l-6.555,5.284l-0.135,0.109c-0.539,0.435-1.079,0.869-1.614,1.324c-7.482,6.367-14.124,14.377-19.743,23.809l-0.015,0.03
			l-0.043,0.067l-0.003,0.006l-0.044,0.1l-0.157,0.23c-5.183,8.37-8.818,17.473-10.806,27.056c-1.781,8.59-2.199,17.376-1.24,26.115
			c0.15,1.373,0.886,2.615,2.02,3.407c0.808,0.564,1.758,0.863,2.744,0.863c0.385,0,0.771-0.047,1.146-0.14
			c0.946-0.233,1.945-0.502,3.147-0.845l5.1-1.459V475.996z M1091.428,458.356l-0.35,0.169l-0.376,0.098
			c-0.547,0.143-1.047,0.368-1.489,0.669l-0.318,0.217l-0.354,0.153c-0.096,0.041-0.191,0.085-0.287,0.129
			c-0.197,0.089-0.394,0.178-0.594,0.261l-5.832,2.419l0.304-6.307c0.185-3.842,0.675-7.7,1.457-11.466
			c0.815-3.928,1.99-7.88,3.491-11.747l2.436-6.274l4.347,5.139c3.595,4.25,7.427,8.287,11.39,11.998l3.441,3.222l-3.74,2.87
			c-4.999,3.837-9.064,6.144-10.58,6.958C1093.517,457.327,1092.58,457.801,1091.428,458.356z M1096.704,518.012v-49.128v-2.359
			l2.064-1.142c0.06-0.033,0.121-0.065,0.181-0.096c2.266-1.22,8.173-4.618,14.892-10.21l2.376-1.978l2.513,1.801
			c20.427,14.642,43.877,22.381,67.815,22.381c5.795,0,18.403-1.207,29.383-4.531l5.159-1.562v5.39v41.433
			c0,34.292-27.899,62.19-62.191,62.19C1124.603,580.203,1096.704,552.304,1096.704,518.012z M1273.841,698.95v4h-4h-219.332h-4v-4
			v-26.711c0-21.154,14.386-39.295,34.985-44.116l2.474-0.579l2.808-0.657l1.511,2.456c8.367,13.603,20.296,24.517,34.498,31.561
			c0.672,0.333,1.385,0.502,2.122,0.502c1.837,0,3.484-1.021,4.299-2.664c1.174-2.367,0.204-5.248-2.164-6.423
			c-10.613-5.264-19.978-13.144-27.084-22.79l-3.599-4.885l5.908-1.382l6.871-1.608c14.422-3.374,24.654-16.072,24.882-30.879
			l0.08-5.225l5.023,1.442c6.452,1.853,13.104,2.792,19.771,2.792c7.538,0,15.002-1.186,22.183-3.525l5.239-1.706v5.51v0.201
			c0,15.053,10.237,27.961,24.894,31.391l6.892,1.613l5.885,1.377l-3.568,4.879c-13.98,19.117-36.502,30.531-60.247,30.531
			c-2.642,0-4.792,2.15-4.792,4.792c0,2.642,2.15,4.792,4.792,4.792c29.593,0,56.467-15.059,71.886-40.284l1.508-2.467l2.816,0.659
			l2.471,0.578c20.599,4.82,34.985,22.961,34.985,44.116V698.95z"/>
		<path fill="#3F496A" d="M1132.334,485.965c-1.888,0-3.425,1.536-3.425,3.425s1.536,3.425,3.425,3.425s3.425-1.536,3.425-3.425
			S1134.222,485.965,1132.334,485.965z"/>
		<path fill="#3F496A" d="M1132.334,483.966c-2.991,0-5.425,2.434-5.425,5.425c0,2.99,2.434,5.424,5.425,5.424
			c2.99,0,5.424-2.434,5.424-5.424C1137.758,486.399,1135.325,483.966,1132.334,483.966z M1132.334,492.815
			c-1.888,0-3.425-1.536-3.425-3.425s1.536-3.425,3.425-3.425s3.425,1.536,3.425,3.425S1134.222,492.815,1132.334,492.815z"/>
		<path fill="#3F496A" d="M1182.816,492.815c1.888,0,3.425-1.536,3.425-3.425s-1.536-3.425-3.425-3.425s-3.425,1.536-3.425,3.425
			S1180.928,492.815,1182.816,492.815z"/>
		<path fill="#3F496A" d="M1182.817,494.814c2.99,0,5.424-2.434,5.424-5.424c0-2.991-2.434-5.425-5.424-5.425
			c-2.991,0-5.425,2.434-5.425,5.425C1177.392,492.381,1179.826,494.814,1182.817,494.814z M1182.816,485.965
			c1.888,0,3.425,1.536,3.425,3.425s-1.536,3.425-3.425,3.425s-3.425-1.536-3.425-3.425S1180.928,485.965,1182.816,485.965z"/>
		<path fill="#3F496A" d="M1172.601,537.856c-1.261,0-2.446,0.491-3.338,1.382c-2.854,2.854-6.653,4.425-10.697,4.425
			s-7.844-1.572-10.698-4.426c-0.891-0.891-2.076-1.382-3.337-1.382c-1.26,0-2.445,0.491-3.337,1.383
			c-0.892,0.892-1.383,2.076-1.382,3.337c0,1.261,0.491,2.446,1.383,3.338c4.632,4.631,10.801,7.181,17.371,7.181
			c6.571,0,12.74-2.55,17.37-7.181c0.892-0.892,1.383-2.077,1.383-3.337c0-1.261-0.491-2.446-1.382-3.337
			C1175.046,538.347,1173.861,537.856,1172.601,537.856z"/>
		<path fill="#3F496A" d="M1483.449,537.856c-1.26,0-2.445,0.491-3.336,1.382c-2.854,2.854-6.653,4.425-10.697,4.425
			s-7.843-1.571-10.697-4.424c-0.892-0.892-2.078-1.383-3.339-1.383c-1.26,0-2.446,0.491-3.338,1.383
			c-0.892,0.891-1.382,2.076-1.382,3.337c0,1.261,0.491,2.446,1.382,3.338c4.632,4.631,10.802,7.182,17.372,7.182
			s12.739-2.551,17.372-7.182c1.84-1.84,1.84-4.834,0-6.674C1485.895,538.348,1484.71,537.857,1483.449,537.856z"/>
		<path fill="#3F496A" d="M1586.376,626.039c-0.713-0.388-1.482-0.585-2.285-0.585c-1.76,0-3.375,0.958-4.217,2.501
			c-0.613,1.124-0.751,2.419-0.389,3.646c0.362,1.228,1.18,2.241,2.303,2.853c15.471,8.433,24.707,22.558,24.707,37.785v26.711v4h-4
			h-36.014h-4v-4v-10.413c0-2.642-2.15-4.792-4.792-4.792s-4.792,2.15-4.792,4.792v10.413v4h-4h-158.277h-4v-4v-10.413
			c0-2.642-2.15-4.792-4.792-4.792s-4.792,2.15-4.792,4.792v10.413v4h-4h-36.07h-4v-4v-26.711c0-21.069,17.418-39.195,42.357-44.079
			l33.036-6.468c3.561-0.698,6.975-1.827,10.148-3.355l2.183-1.051l1.943,1.447c13.524,10.076,30.25,15.625,47.098,15.625
			c16.849,0,33.576-5.549,47.098-15.625l1.943-1.448l2.183,1.051c3.177,1.53,6.591,2.658,10.148,3.355l22.416,4.389
			c0.308,0.06,0.623,0.091,0.93,0.091c2.28,0,4.254-1.628,4.693-3.872c0.507-2.592-1.189-5.115-3.782-5.622l-22.417-4.389
			c-12.432-2.434-21.456-11.696-21.456-22.023v-12.911v-1.931l1.512-1.201c17.302-13.743,27.225-34.231,27.225-56.21v-54.64
			c-0.004-0.064-0.007-0.129-0.008-0.2c-0.016-0.924-0.284-1.8-0.776-2.549c-0.89-1.356-2.391-2.164-4.016-2.164
			c-0.931,0-1.837,0.272-2.621,0.786c-8.293,5.443-26.966,8.453-36.703,8.453c-23.942,0-47.161-8.411-67.147-24.324l-0.236-0.188
			l-0.205-0.221l-21.585-23.269l-2.18-2.35l1.819-2.64c4.261-6.184,9.045-11.553,14.219-15.955
			c20.891-17.776,45.114-18.676,49.757-18.676c0.55,0,0.852,0.013,0.878,0.014c17.258,0.892,33.559,8.656,48.469,23.077
			c13.22,12.787,23.073,30.941,29.287,53.958c0.563,2.086,2.465,3.543,4.625,3.543c0.42,0,0.842-0.056,1.255-0.167
			c2.546-0.688,4.061-3.324,3.373-5.875c-6.672-24.71-17.396-44.341-31.877-58.348c-20.703-20.025-41.129-25.06-54.618-25.759
			c-0.093-0.005-0.618-0.029-1.514-0.029c-7.322,0-32.986,1.512-55.844,20.963c-7.438,6.329-14.047,14.282-19.644,23.641
			l-0.025,0.064l-0.141,0.218l-0.006,0.014l-0.069,0.11l-0.024,0.04l-0.007,0.009l-0.068,0.108
			c-5.184,8.352-8.834,17.478-10.83,27.093c-1.782,8.586-2.199,17.372-1.24,26.115c0.15,1.373,0.886,2.615,2.019,3.407
			c0.809,0.564,1.758,0.863,2.744,0.863c0.385,0,0.771-0.047,1.146-0.14c0.946-0.233,1.945-0.502,3.147-0.845l5.1-1.458v5.304v42.015
			c0,22.843,11.084,44.546,29.649,58.056l1.646,1.198v2.036v10.963c0,10.326-9.023,19.588-21.454,22.023l-33.036,6.468
			c-29.497,5.776-50.098,27.769-50.098,53.484v35.503c0,2.642,2.15,4.792,4.792,4.792h283.111c2.642,0,4.792-2.15,4.792-4.792
			v-35.503C1616.079,653.447,1604.975,636.176,1586.376,626.039z M1507.052,613.853c-11.172,7.145-24.077,10.922-37.321,10.922
			c-13.245,0-26.15-3.777-37.32-10.922l-3.67-2.348l2.652-3.457c4.033-5.256,6.165-11.406,6.165-17.785v-1.428v-5.805l5.425,2.068
			c8.16,3.11,16.729,4.687,25.471,4.687c9.667,0,19.051-1.898,27.893-5.642l5.56-2.354v6.038v2.437c0,6.38,2.131,12.53,6.164,17.784
			l2.653,3.457L1507.052,613.853z M1400.982,458.358l-0.348,0.167l-0.374,0.098c-0.545,0.142-1.046,0.367-1.487,0.669l-0.321,0.219
			l-0.357,0.153c-0.097,0.042-0.193,0.086-0.289,0.129c-0.194,0.089-0.389,0.176-0.587,0.258l-5.832,2.418l0.304-6.306
			c0.185-3.842,0.675-7.699,1.456-11.466c0.816-3.933,1.991-7.886,3.491-11.748l2.437-6.271l4.345,5.136
			c3.599,4.254,7.432,8.291,11.391,11.999l3.442,3.223l-3.741,2.87c-4.995,3.832-9.063,6.142-10.579,6.957
			C1403.06,457.335,1402.094,457.824,1400.982,458.358z M1406.262,518.012v-49.129v-2.396l2.112-1.131l0.125-0.065
			c2.261-1.216,8.173-4.615,14.901-10.214l2.376-1.978l2.513,1.801c20.426,14.641,43.876,22.38,67.815,22.38
			c5.795,0,18.403-1.207,29.381-4.531l5.159-1.562v5.391v41.433c0,34.292-27.899,62.19-62.191,62.19
			C1434.161,580.202,1406.262,552.304,1406.262,518.012z"/>
		<path fill="#3F496A" d="M1441.891,485.965c-1.888,0-3.425,1.536-3.425,3.425s1.536,3.425,3.425,3.425s3.425-1.536,3.425-3.425
			S1443.779,485.965,1441.891,485.965z"/>
		<path fill="#3F496A" d="M1441.891,483.966c-2.991,0-5.425,2.434-5.425,5.425c0,2.99,2.434,5.424,5.425,5.424
			c2.99,0,5.424-2.434,5.424-5.424C1447.315,486.399,1444.881,483.966,1441.891,483.966z M1441.891,492.815
			c-1.888,0-3.425-1.536-3.425-3.425s1.536-3.425,3.425-3.425s3.425,1.536,3.425,3.425S1443.779,492.815,1441.891,492.815z"/>
		<path fill="#3F496A" d="M1492.373,485.965c-1.888,0-3.425,1.536-3.425,3.425s1.536,3.425,3.425,3.425s3.425-1.536,3.425-3.425
			S1494.261,485.965,1492.373,485.965z"/>
		<path fill="#3F496A" d="M1492.373,494.814c-2.991,0-5.425-2.434-5.425-5.424c0-2.991,2.434-5.425,5.425-5.425
			c2.99,0,5.424,2.434,5.424,5.425C1497.797,492.381,1495.364,494.814,1492.373,494.814z"/>
		<path fill="#3F496A" d="M1492.373,483.966c-2.991,0-5.425,2.434-5.425,5.425c0,2.99,2.434,5.424,5.425,5.424
			c2.99,0,5.424-2.434,5.424-5.424C1497.797,486.399,1495.364,483.966,1492.373,483.966z M1492.373,492.815
			c-1.888,0-3.425-1.536-3.425-3.425s1.536-3.425,3.425-3.425s3.425,1.536,3.425,3.425S1494.261,492.815,1492.373,492.815z"/>
		<path fill="#3F496A" d="M1361.774,337.197c6.431,0,12.873-0.592,19.148-1.759l1.893-0.352l1.456,1.26
			c13.88,12.007,29.46,16.682,34.579,18.218c5.169,1.551,10.521,2.676,15.91,3.344c0.391,0.049,0.788,0.073,1.182,0.073
			c3.38,0,6.491-1.844,8.12-4.811c1.851-3.372,1.456-7.482-1.007-10.468c-5.954-7.215-10.425-16.611-13.287-27.926l-0.595-2.352
			l1.811-1.615c11.136-9.926,19.824-21.807,25.823-35.311c6.013-13.535,9.008-27.993,8.902-42.972
			c-0.195-27.575-11.116-53.49-30.75-72.972c-19.626-19.473-45.612-30.197-73.172-30.197c-0.234,0-0.474,0-0.708,0.002
			c-27.982,0.19-54.149,11.33-73.69,31.366c-9.509,9.75-16.893,21.01-21.947,33.468l-1.013,2.496h-2.694h-47.103
			c-2.642,0-4.792,2.15-4.792,4.792s2.15,4.792,4.792,4.792h41.685h4.956l-1.046,4.844c-1.192,5.522-1.94,11.2-2.222,16.878
			l-0.189,3.802h-3.806h-42.743c-2.642,0-4.792,2.15-4.792,4.792c0,2.642,2.15,4.792,4.792,4.792h43.282h3.576l0.399,3.553
			c0.629,5.601,1.761,11.276,3.363,16.867l1.462,5.102h-5.307h-43.41c-2.642,0-4.792,2.15-4.792,4.792
			c0,2.642,2.15,4.792,4.792,4.792h50.161h2.494l1.098,2.24c5.008,10.219,11.644,19.529,19.723,27.671
			c2.015,2.031,4.175,4.023,6.604,6.09l4.791,4.077l-5.725,2.609c-11.535,5.257-23.778,8.087-36.388,8.411
			c-0.83,0.022-1.662,0.032-2.492,0.032c-7.224,0-14.425-0.82-21.401-2.439c-0.354-0.082-0.717-0.124-1.08-0.124
			c-1.259,0-2.449,0.484-3.35,1.363c-12.977,12.665-28.786,17.409-33.982,18.968c-1.261,0.379-2.55,0.734-3.834,1.055l-9.328,2.332
			l4.921-8.26c4.875-8.181,8.455-17.957,10.641-29.056c0.346-1.754-0.304-3.539-1.696-4.66
			c-22.592-18.187-35.431-45.233-35.226-74.202c0.365-51.641,42.685-93.654,94.34-93.654c0.222,0,0.448,0,0.67,0.003
			c5.517,0.038,11.056,0.558,16.445,1.547c0.293,0.054,0.589,0.081,0.88,0.081c2.304,0,4.279-1.653,4.696-3.929
			c0.231-1.26-0.042-2.534-0.769-3.587c-0.727-1.053-1.82-1.76-3.078-1.99c-5.941-1.089-12.04-1.663-18.128-1.704l-0.718-0.002
			c-27.558,0-53.544,10.725-73.17,30.199c-19.635,19.483-30.556,45.397-30.751,72.971c-0.106,14.978,2.889,29.436,8.902,42.971
			c5.999,13.505,14.688,25.385,25.824,35.311l1.811,1.615l-0.595,2.352c-2.862,11.316-7.333,20.712-13.288,27.927
			c-2.463,2.985-2.858,7.093-1.007,10.466c1.629,2.968,4.74,4.812,8.12,4.812c0.388,0,0.787-0.025,1.187-0.074
			c5.384-0.667,10.737-1.792,15.904-3.343c5.121-1.536,20.702-6.211,34.581-18.219l1.456-1.259l1.892,0.352
			c6.278,1.167,12.728,1.759,19.172,1.759c0.896,0,1.804-0.012,2.7-0.034c17.02-0.439,33.863-5.173,48.705-13.689l1.992-1.143
			l1.992,1.145c14.815,8.515,31.663,13.248,48.722,13.687C1359.955,337.185,1360.871,337.197,1361.774,337.197z M1311.519,313.005
			l-0.162-0.128c-0.237-0.187-0.484-0.348-0.732-0.478l-0.177-0.092l-0.167-0.11c-5.571-3.663-10.742-7.886-15.37-12.551
			c-8.53-8.597-15.24-18.535-19.942-29.54l-0.029-0.068l-0.027-0.069c-0.031-0.081-0.064-0.162-0.099-0.24l-0.027-0.058l-0.025-0.059
			c-4.623-10.993-7.078-22.626-7.295-34.575c-0.463-25.426,9.049-49.441,26.781-67.622c17.74-18.189,41.493-28.301,66.885-28.474
			l0.651-0.002c51.654,0,93.975,42.013,94.34,93.654c0.205,28.97-12.634,56.016-35.226,74.203c-1.392,1.121-2.042,2.905-1.697,4.658
			c2.187,11.101,5.767,20.878,10.641,29.058l4.922,8.26l-9.328-2.333c-1.287-0.322-2.577-0.677-3.834-1.054
			c-5.192-1.557-20.999-6.298-33.983-18.969c-0.9-0.878-2.089-1.362-3.346-1.362c-0.365,0-0.729,0.042-1.084,0.124
			c-6.98,1.618-14.178,2.439-21.394,2.439c-0.832,0-1.664-0.011-2.497-0.033c-16.859-0.435-33.322-5.438-47.605-14.468
			L1311.519,313.005z"/>
		<path fill="#3F496A" d="M1313.966,204.745h99.495c2.642,0,4.792-2.15,4.792-4.792s-2.15-4.792-4.792-4.792h-99.495
			c-2.642,0-4.792,2.15-4.792,4.792C1309.175,202.595,1311.324,204.745,1313.966,204.745z"/>
		<path fill="#3F496A" d="M1313.966,239.852h99.495c2.642,0,4.792-2.15,4.792-4.792c0-2.642-2.15-4.792-4.792-4.792h-99.495
			c-2.642,0-4.792,2.15-4.792,4.792C1309.175,237.702,1311.324,239.852,1313.966,239.852z"/>
		<path fill="#3F496A" d="M1370.118,270.167c0-2.642-2.15-4.792-4.792-4.792h-51.36c-2.642,0-4.792,2.15-4.792,4.792
			c0.001,2.642,2.15,4.792,4.792,4.792h51.36C1367.969,274.959,1370.118,272.809,1370.118,270.167z"/>
	</g>
</svg>