<svg version="1.1" xmlns="http://www.w3.org/2000/svg" xmlns:xlink="http://www.w3.org/1999/xlink" x="0px" y="0px"
	 width="370.853px" height="512px" viewBox="15.782 141 370.853 512" enable-background="new 15.782 141 370.853 512"
	 xml:space="preserve">
<path fill="#3F496A" d="M201.209,141C98.964,141,15.782,224.182,15.782,326.426c0,126.888,165.939,313.167,173.004,321.035
	c6.636,7.391,18.222,7.378,24.846,0c7.065-7.868,173.004-194.147,173.004-321.035C386.634,224.182,303.452,141,201.209,141z"/>
<path fill="#FFFFFF" d="M202.024,392.486h24.964L277,311.775v80.711h23.362V268.847h-24.88l-50.097,82.314v-82.314h-23.362V392.486z
	 M320.801,399.177c-23.7,41-68.015,68.589-118.777,68.589c-75.718,0-137.099-61.382-137.099-137.099s61.382-137.099,137.099-137.099
	c50.657,0,94.892,27.477,118.627,68.336l-10.287,5.939c-21.683-37.309-62.08-62.397-108.341-62.397v63.476h-24.88l-50.255,82.239
	v-82.239h-23.318v123.497h25.079l50.056-80.644v80.644h23.318v63.476c46.368,0,86.847-25.203,108.493-62.655L320.801,399.177z"/>
</svg>
