<svg version="1.1" xmlns="http://www.w3.org/2000/svg" xmlns:xlink="http://www.w3.org/1999/xlink" x="0px" y="0px"
	 width="587.28px" height="587.279px" viewBox="903.046 127.305 587.28 587.279"
	 enable-background="new 903.046 127.305 587.28 587.279" xml:space="preserve">
	<g>
		<path fill="#3F496A" d="M1330.515,420.945c0-37.598-15.957-73.683-43.779-99.001c-0.89-0.81-2.043-1.257-3.245-1.257
			c-1.376,0-2.642,0.56-3.566,1.576c-0.868,0.954-1.313,2.188-1.252,3.474c0.061,1.286,0.619,2.472,1.571,3.339
			c25.818,23.498,40.625,56.983,40.625,91.87c0,68.475-55.709,124.184-124.184,124.184c-68.475,0-124.184-55.709-124.184-124.185
			c0-68.475,55.709-124.184,124.184-124.184c16.767,0,33.03,3.283,48.336,9.757c0.601,0.254,1.231,0.383,1.874,0.383
			c1.945,0,3.69-1.156,4.447-2.946c0.502-1.187,0.512-2.498,0.028-3.692c-0.484-1.194-1.404-2.127-2.59-2.629
			c-16.504-6.98-34.031-10.519-52.094-10.519c-73.794,0-133.829,60.035-133.829,133.828c0,73.794,60.035,133.829,133.828,133.829
			C1270.479,554.773,1330.515,494.738,1330.515,420.945z"/>
		<g>
			<path fill="#3F496A" d="M1198.549,247.905c-95.415,0-173.04,77.625-173.04,173.04c0,69.702,41.483,132.286,105.683,159.44
				c0.601,0.254,1.232,0.383,1.874,0.383c1.944,0,3.689-1.157,4.446-2.946c1.036-2.449-0.114-5.284-2.563-6.32
				c-60.623-25.642-99.795-84.739-99.795-150.556c0-90.097,73.299-163.396,163.396-163.396c90.095,0,163.393,73.299,163.393,163.396
				s-73.299,163.396-163.396,163.396c-7.483,0-15.006-0.51-22.36-1.517c-0.222-0.03-0.445-0.046-0.666-0.046
				c-2.392,0-4.441,1.793-4.766,4.17c-0.36,2.635,1.49,5.072,4.125,5.432c7.785,1.066,15.748,1.606,23.667,1.606
				c95.415,0,173.04-77.625,173.04-173.04C1371.588,325.531,1293.963,247.905,1198.549,247.905z"/>
		</g>
		<path fill="#3F496A" d="M1473.268,382.362l-35.012-3.169l-3.011-0.273l-0.559-2.972c-2.106-11.195-5.03-22.327-8.691-33.088
			l-0.973-2.859l2.484-1.718l28.89-19.988c8.031-5.556,10.459-16.154,5.65-24.653l-19.615-34.656
			c-3.332-5.887-9.56-9.544-16.251-9.545c-2.682,0-5.304,0.571-7.792,1.697l-32.069,14.503l-2.751,1.244l-1.951-2.304
			c-6.865-8.109-14.324-15.836-22.171-22.966l-2.235-2.03l1.34-2.706l15.62-31.538c4.333-8.75,1.324-19.198-7-24.303l-33.947-20.818
			c-2.988-1.833-6.391-2.801-9.839-2.802c-5.939,0-11.405,2.763-14.996,7.582l-20.994,28.174l-1.805,2.423l-2.824-1.074
			c-13.283-5.052-27.104-8.946-41.08-11.575l-2.972-0.559l-0.273-3.011l-3.169-35.011c-0.88-9.726-8.907-17.059-18.673-17.059
			h-39.823c-9.766,0-17.793,7.333-18.673,17.058l-3.169,35.012l-0.273,3.011l-2.972,0.559c-11.191,2.105-22.323,5.029-33.087,8.691
			l-2.859,0.973l-1.718-2.483l-19.99-28.89c-3.517-5.081-9.263-8.115-15.371-8.115c-3.22,0-6.429,0.853-9.281,2.467l-34.658,19.615
			c-8.498,4.81-11.872,15.146-7.848,24.043l14.504,32.068l1.244,2.751l-2.304,1.951c-8.112,6.867-15.838,14.326-22.964,22.171
			l-2.03,2.235l-2.706-1.34l-31.538-15.62c-2.651-1.313-5.471-1.978-8.379-1.979c-6.524,0-12.478,3.356-15.926,8.979l-20.819,33.947
			c-5.106,8.325-3.051,19.001,4.78,24.835l28.174,20.993l2.423,1.805l-1.074,2.824c-5.051,13.28-8.945,27.102-11.576,41.082
			l-0.559,2.971l-3.011,0.273l-35.011,3.169c-9.725,0.88-17.058,8.907-17.058,18.672v39.822c0,9.765,7.334,17.792,17.06,18.673
			l35.01,3.169l3.011,0.273l0.559,2.971c2.106,11.191,5.031,22.323,8.692,33.089l0.972,2.859l-2.484,1.718l-28.89,19.988
			c-8.031,5.556-10.459,16.154-5.65,24.653l19.615,34.656c3.332,5.887,9.559,9.544,16.251,9.544c2.682,0,5.304-0.571,7.793-1.696
			l32.068-14.504l2.751-1.244l1.951,2.305c6.861,8.105,14.32,15.832,22.171,22.965l2.235,2.03l-1.34,2.706l-15.62,31.538
			c-4.333,8.75-1.324,19.198,7,24.303l33.947,20.817c2.991,1.834,6.394,2.804,9.843,2.804c5.938,0,11.402-2.764,14.992-7.583
			l20.994-28.174l1.805-2.423l2.824,1.074c13.283,5.052,27.105,8.946,41.08,11.575l2.972,0.559l0.273,3.011l3.169,35.011
			c0.88,9.726,8.907,17.059,18.673,17.059h39.823c9.766,0,17.793-7.333,18.673-17.058l3.169-35.011l0.273-3.011l2.972-0.559
			c11.19-2.105,22.322-5.029,33.087-8.691l2.859-0.973l1.719,2.484l19.99,28.89c3.516,5.081,9.262,8.115,15.371,8.115
			c3.22,0,6.43-0.853,9.281-2.467l34.658-19.615c8.498-4.81,11.872-15.147,7.848-24.044l-14.504-32.067l-1.244-2.751l2.304-1.951
			c8.111-6.866,15.837-14.326,22.964-22.171l2.03-2.235l2.706,1.34l31.538,15.62c2.651,1.312,5.47,1.978,8.378,1.978
			c6.524,0,12.478-3.356,15.927-8.978l20.818-33.947c5.105-8.325,3.05-19.002-4.78-24.836l-28.174-20.993l-2.423-1.805l1.074-2.824
			c5.051-13.283,8.946-27.105,11.575-41.081l0.559-2.972l3.011-0.273l35.012-3.169c9.725-0.88,17.058-8.907,17.058-18.673v-39.822
			C1490.326,391.268,1482.992,383.241,1473.268,382.362z M1480.682,440.857v4h-0.914c-1.35,2.783-4.078,4.769-7.371,5.067
			l-41.751,3.779c-2.201,0.199-3.982,1.863-4.329,4.046c-2.828,17.788-7.746,35.247-14.62,51.891
			c-0.843,2.041-0.195,4.388,1.576,5.708l33.596,25.032c3.803,2.834,4.8,8.019,2.319,12.061l-20.818,33.946
			c-1.671,2.725-4.568,4.352-7.747,4.352c-1.394,0-2.796-0.33-4.055-0.954l-37.59-18.618c-0.672-0.333-1.39-0.501-2.137-0.502
			c-1.41,0-2.745,0.613-3.663,1.682c-9.454,11.012-20.011,21.204-31.378,30.295c-1.722,1.378-2.29,3.745-1.382,5.756l17.288,38.222
			c1.955,4.322,0.315,9.34-3.813,11.674l-34.656,19.614c-1.374,0.777-2.928,1.188-4.494,1.188c-2.978,0-5.773-1.47-7.476-3.933
			l-23.834-34.447c-0.901-1.302-2.385-2.08-3.967-2.08c-0.573,0-1.138,0.102-1.68,0.304c-14.293,5.32-29.198,9.235-44.3,11.636
			c-2.183,0.347-3.847,2.127-4.046,4.328l-3.78,41.751c-0.427,4.722-4.325,8.283-9.066,8.283h-39.823
			c-4.743,0-8.641-3.562-9.066-8.285l-3.78-41.749c-0.199-2.201-1.863-3.98-4.047-4.328c-17.796-2.831-35.254-7.75-51.89-14.62
			c-0.588-0.242-1.207-0.366-1.838-0.366c-1.517,0-2.964,0.726-3.869,1.942l-25.035,33.597c-1.713,2.299-4.438,3.672-7.29,3.672
			c-1.679,0-3.328-0.468-4.77-1.353l-33.945-20.816c-4.041-2.481-5.501-7.554-3.4-11.801l18.619-37.593
			c0.979-1.978,0.495-4.362-1.179-5.798c-11.012-9.454-21.205-20.012-30.296-31.379c-0.921-1.151-2.296-1.812-3.771-1.812
			c-0.686,0-1.354,0.144-1.983,0.429l-38.225,17.289c-1.197,0.541-2.462,0.814-3.764,0.814c-3.266,0-6.297-1.773-7.911-4.628
			l-19.612-34.652c-2.335-4.126-1.156-9.272,2.743-11.97l34.448-23.836c1.816-1.256,2.546-3.579,1.776-5.648
			c-5.32-14.294-9.235-29.198-11.636-44.298c-0.347-2.182-2.127-3.846-4.329-4.045l-41.749-3.779
			c-4.723-0.429-8.284-4.327-8.284-9.067v-39.822c0-4.742,3.561-8.64,8.283-9.067l41.75-3.779c2.201-0.199,3.981-1.863,4.329-4.047
			c2.828-17.788,7.748-35.248,14.621-51.891c0.843-2.041,0.194-4.388-1.576-5.708l-33.596-25.033
			c-3.802-2.833-4.799-8.018-2.319-12.059L965,255.505c1.672-2.725,4.569-4.351,7.749-4.351c1.392,0,2.793,0.329,4.051,0.952
			l37.593,18.618c0.672,0.333,1.389,0.502,2.134,0.502c1.411,0,2.747-0.613,3.665-1.683c9.453-11.01,20.01-21.203,31.378-30.294
			c1.722-1.378,2.291-3.745,1.382-5.756l-17.288-38.222c-1.954-4.32-0.315-9.338,3.812-11.673l34.657-19.615
			c1.373-0.777,2.927-1.188,4.493-1.188c2.979,0,5.773,1.47,7.477,3.932l23.834,34.448c0.901,1.302,2.384,2.08,3.967,2.08
			c0.574,0,1.14-0.102,1.682-0.304c14.292-5.32,29.196-9.234,44.298-11.635c2.183-0.347,3.847-2.127,4.046-4.328l3.78-41.752
			c0.427-4.721,4.325-8.282,9.066-8.282h39.823c4.743,0,8.641,3.562,9.066,8.285l3.78,41.749c0.199,2.201,1.863,3.98,4.047,4.328
			c17.796,2.829,35.254,7.748,51.89,14.62c0.587,0.242,1.205,0.365,1.837,0.365c1.518,0,2.965-0.726,3.871-1.942l25.034-33.596
			c1.713-2.3,4.438-3.674,7.29-3.674c1.679,0,3.329,0.468,4.771,1.354l33.945,20.817c4.041,2.481,5.501,7.553,3.399,11.801
			l-18.619,37.592c-0.979,1.977-0.494,4.362,1.18,5.799c11.017,9.461,21.209,20.018,30.296,31.38c0.92,1.151,2.294,1.811,3.77,1.811
			c0.688,0,1.356-0.144,1.986-0.429l38.223-17.287c1.195-0.541,2.462-0.816,3.765-0.816c3.265,0,6.296,1.774,7.909,4.63
			l19.614,34.654c2.335,4.127,1.155,9.272-2.743,11.97l-34.447,23.835c-1.816,1.256-2.546,3.579-1.776,5.648
			c5.322,14.297,9.237,29.201,11.635,44.299c0.347,2.183,2.127,3.846,4.329,4.045l41.75,3.779c4.723,0.427,8.284,4.325,8.284,9.067
			V440.857z"/>
		<path fill="#3F496A" d="M1149.065,382.925c-1.288,0-2.5,0.502-3.411,1.413l-37.123,37.123c-0.91,0.91-1.412,2.122-1.412,3.41
			c0,1.289,0.501,2.5,1.412,3.41l38.593,38.593c0.911,0.911,2.122,1.413,3.41,1.413s2.499-0.502,3.41-1.413
			c1.88-1.881,1.88-4.94,0-6.819l-32.356-32.356l-2.828-2.828l2.829-2.828l30.886-30.885c1.88-1.88,1.88-4.94-0.001-6.821
			C1151.564,383.426,1150.353,382.925,1149.065,382.925z"/>
		<path fill="#3F496A" d="M1244.307,469.39c1.288,0,2.499-0.502,3.41-1.413l37.124-37.124c0.91-0.911,1.412-2.122,1.412-3.411
			c0-1.288-0.501-2.498-1.412-3.408l-38.594-38.595c-0.911-0.911-2.122-1.413-3.409-1.413c-1.288,0-2.5,0.502-3.412,1.414
			c-1.88,1.88-1.88,4.939,0,6.819l32.356,32.356l2.828,2.828l-2.828,2.828l-30.886,30.885c-1.88,1.881-1.88,4.941,0,6.821
			C1241.808,468.888,1243.019,469.39,1244.307,469.39z"/>
		<path fill="#3F496A" d="M1217.3,357.534c-2.097,0-3.94,1.342-4.586,3.34l-41.633,128.696c-0.818,2.53,0.574,5.255,3.104,6.073
			c0.486,0.157,0.987,0.237,1.487,0.237c2.097,0,3.94-1.343,4.586-3.341l41.632-128.695c0.818-2.53-0.574-5.255-3.104-6.073
		C1218.301,357.614,1217.801,357.534,1217.3,357.534z"/>
	</g>
</svg>