<svg version="1.1"
	 xmlns="http://www.w3.org/2000/svg" xmlns:xlink="http://www.w3.org/1999/xlink" x="0px" y="0px" width="1920.005px"
	 height="75.333px" viewBox="0 0 1920.005 75.333" style="enable-background:new 0 0 1920.005 75.333;" xml:space="preserve">
<polygon style="fill:#ffffff;" points="0.005,5.656 23.275,8.708 196.39,31.021 291.531,70.01 434.268,8.672 479.97,60.336
	515.321,28.668 668.996,39.334 686.667,50 711.003,33.667 752.671,64 804.004,39.333 863.005,75.333 959.88,23 1057.338,59.667 
	1149.005,22 1238.005,71.667 1303.005,49.667 1350.338,69 1449.338,24.333 1584.338,49.333 1673.672,5.667 1754.005,40.5 
	1821.38,0.063 1877.627,20.333 1920.005,5.656 1920.005,0 0,0 "/>
</svg>
