<svg version="1.1"
	 xmlns="http://www.w3.org/2000/svg" xmlns:xlink="http://www.w3.org/1999/xlink" x="0px" y="0px" width="75.333px"
	 height="1920.005px" viewBox="922.336 -922.336 75.333 1920.005" style="enable-background:new 922.336 -922.336 75.333 1920.005;"
	 xml:space="preserve">
	<polygon style="fill:#ffffff;" points="927.992,997.664 931.044,974.394 953.357,801.279 992.346,706.138 931.008,563.401
		982.672,517.699 951.004,482.348 961.67,328.673 972.336,311.002 956.003,286.666 986.336,244.998 961.669,193.665 997.669,134.664
		945.336,37.789 982.003,-59.669 944.336,-151.336 994.003,-240.336 972.003,-305.336 991.336,-352.669 946.669,-451.669
		971.669,-586.669 928.003,-676.003 962.836,-756.336 922.399,-823.711 942.669,-879.958 927.992,-922.336 922.336,-922.336
		922.336,997.669 "/>
</svg>