<?xml version="1.0" encoding="iso-8859-1"?>
<!-- Generator: Adobe Illustrator 17.0.0, SVG Export Plug-In . SVG Version: 6.00 Build 0)  -->
<!DOCTYPE svg PUBLIC "-//W3C//DTD SVG 1.1//EN" "http://www.w3.org/Graphics/SVG/1.1/DTD/svg11.dtd">
<svg version="1.1" id="&#x421;&#x43B;&#x43E;&#x439;_1"
	 xmlns="http://www.w3.org/2000/svg" xmlns:xlink="http://www.w3.org/1999/xlink" x="0px" y="0px" width="1280px" height="1100px"
	 viewBox="0 0 1280 1100" style="enable-background:new 0 0 1280 1100;" xml:space="preserve">
<polygon style="fill:#F15A24;" points="890,1100 655,1100 964.945,993.997 "/>
<polygon style="fill:#FBB03B;" points="964.945,993.997 1165,1100 890,1100 "/>
<polygon style="fill:#FBB03B;" points="809.969,1047 655,1100 749.338,879.754 "/>
<polygon style="fill:#FCEE21;" points="749.338,879.754 964.945,993.997 809.969,1047 "/>
<polygon style="fill:#F15A24;" points="964.945,993.997 749.338,879.754 978.599,878.177 "/>
<polygon style="fill:#ED1C24;" points="978.599,878.177 1165,1100 964.945,993.997 "/>
<polygon style="fill:#FBB03B;" points="924.472,813.764 978.599,878.177 749.338,879.754 "/>
<polygon style="fill:#ED1C24;" points="749.338,879.754 827.191,697.996 924.472,813.764 "/>
<polygon style="fill:#ED1C24;" points="1280,864 1280,1100 1171.231,1034.618 "/>
<polygon style="fill:#F15A24;" points="1171.231,1034.618 1047.621,960.315 1280,864 "/>
<polygon style="fill:#FCEE21;" points="1280,1100 1165,1100 1047.621,960.315 "/>
<polygon style="fill:#FBB03B;" points="1063.299,784.556 1280,864 1047.621,960.315 "/>
<polygon style="fill:#FCEE21;" points="978.599,878.176 827.191,697.996 1063.299,784.556 "/>
<polygon style="fill:#F15A24;" points="1063.299,784.556 1047.621,960.315 978.599,878.176 "/>
<polygon style="fill:#FBB03B;" points="993.229,681.525 1063.299,784.55 827.223,697.996 "/>
<polygon style="fill:#ED1C24;" points="827.223,697.996 895.66,538.067 993.229,681.525 "/>
<polygon style="fill:#ED1C24;" points="1208.018,727.933 1280,864 1063.299,784.55 "/>
<polygon style="fill:#F15A24;" points="1063.299,784.55 1129.349,579.226 1208.018,727.933 "/>
<polygon style="fill:#FBB03B;" points="993.229,681.525 895.66,538.067 1129.349,579.226 "/>
<polygon style="fill:#ED1C24;" points="1129.349,579.226 1063.299,784.55 993.229,681.525 "/>
<polygon style="fill:#FCEE21;" points="895.66,538.067 1045.196,420.152 1129.349,579.226 "/>
<polygon style="fill:#FCEE21;" points="1280,542 1280,864 1208.018,727.934 "/>
<polygon style="fill:#FBB03B;" points="1208.018,727.934 1129.349,579.226 1280,542 "/>
<polygon style="fill:#ED1C24;" points="1193.818,431.92 1280,235 1280,542 "/>
<polygon style="fill:#FCEE21;" points="1280,542 1129.349,579.226 1193.818,431.92 "/>
<polygon style="fill:#F15A24;" points="1193.818,431.92 1129.349,579.226 1045.196,420.152 "/>
<polygon style="fill:#FBB03B;" points="1045.196,420.152 1280,235 1193.818,431.92 "/>
<polygon style="fill:#FCEE21;" points="1144.603,341.766 1045.196,420.152 1030.971,221.985 "/>
<polygon style="fill:#F15A24;" points="1030.971,221.985 1280,235 1144.603,341.766 "/>
<polygon style="fill:#FBB03B;" points="1030.971,221.985 1126,0 1216.303,137.8 "/>
<polygon style="fill:#ED1C24;" points="1216.303,137.8 1280,235 1030.971,221.985 "/>
<polygon style="fill:#FCEE21;" points="1216.303,137.8 1126,0 1280,0 "/>
<polygon style="fill:#F15A24;" points="1280,0 1280,235 1216.303,137.8 "/>
<polygon style="fill:#ED1C24;" points="969.112,366.484 1030.971,221.985 1045.196,420.152 "/>
<polygon style="fill:#F15A24;" points="1045.196,420.152 895.66,538.067 969.112,366.484 "/>
<polygon style="fill:#ED1C24;" points="245,1100 0,1100 100.237,1016.047 "/>
<polygon style="fill:#FCEE21;" points="349.438,1065.888 520,1100 245,1100 "/>
<polygon style="fill:#FBB03B;" points="245,1100 100.237,1016.047 349.438,1065.888 "/>
<polygon style="fill:#F15A24;" points="0,1100 0,996 100.237,1016.047 "/>
<polygon style="fill:#ED1C24;" points="749.314,879.734 655,1100 520,1100 "/>
<polygon style="fill:#FBB03B;" points="850.628,251.163 969.044,366.456 1030.93,221.967 "/>
<polygon style="fill:#F15A24;" points="937.329,72.421 1030.93,221.967 850.628,251.163 "/>
<polygon style="fill:#FBB03B;" points="850.628,251.163 892,0 937.329,72.421 "/>
<polygon style="fill:#F15A24;" points="850.628,251.163 768,0 892,0 "/>
<polygon style="fill:#ED1C24;" points="967.36,120.403 892,0 1126,0 "/>
<polygon style="fill:#FCEE21;" points="1126,0 1030.93,221.967 967.36,120.403 "/>
<polygon style="fill:#FBB03B;" points="810.891,130.375 850.628,251.163 695.32,100.338 "/>
<polygon style="fill:#ED1C24;" points="695.32,100.338 768,0 810.891,130.375 "/>
<polygon style="fill:#FBB03B;" points="695.32,100.338 592,0 768,0 "/>
<polygon style="fill:#F15A24;" points="349.439,1065.889 100.221,1016.045 135.399,885.469 "/>
<polygon style="fill:#ED1C24;" points="286.23,835.696 451.417,781.186 349.439,1065.889 "/>
<polygon style="fill:#FCEE21;" points="349.439,1065.889 135.399,885.469 286.23,835.696 "/>
<polygon style="fill:#F15A24;" points="339.54,577.066 451.417,781.186 213.388,595.981 "/>
<polygon style="fill:#FBB03B;" points="213.388,595.981 258.377,428.985 339.54,577.066 "/>
<polygon style="fill:#FCEE21;" points="158.965,797.991 213.388,595.981 286.23,835.696 "/>
<polygon style="fill:#F15A24;" points="286.23,835.696 135.399,885.469 158.965,797.991 "/>
<polygon style="fill:#FBB03B;" points="334.712,690.381 451.417,781.186 286.23,835.696 "/>
<polygon style="fill:#ED1C24;" points="286.23,835.696 213.388,595.981 334.712,690.381 "/>
<polygon style="fill:#FBB03B;" points="182.109,289.836 258.377,428.985 0,322 "/>
<polygon style="fill:#ED1C24;" points="0,322 104.332,147.933 182.109,289.836 "/>
<polygon style="fill:#FCEE21;" points="101.533,452.365 0,322 258.377,428.985 "/>
<polygon style="fill:#ED1C24;" points="258.377,428.985 213.388,595.981 101.533,452.365 "/>
<polygon style="fill:#FCEE21;" points="135.708,496.218 213.388,595.94 0,556 "/>
<polygon style="fill:#FBB03B;" points="0,556 0,322 135.708,496.218 "/>
<polygon style="fill:#FCEE21;" points="93.015,710.016 0,798 0,556 "/>
<polygon style="fill:#F15A24;" points="0,556 213.388,596.154 93.015,710.016 "/>
<polygon style="fill:#FCEE21;" points="100.221,1016.131 0,996 0,798 "/>
<polygon style="fill:#FBB03B;" points="158.998,798 100.221,1016.131 0,798 "/>
<polygon style="fill:#ED1C24;" points="0,798 213.388,596.155 158.998,798 "/>
<polygon style="fill:#F15A24;" points="410.491,190.768 479.469,334.596 351.621,302.526 "/>
<polygon style="fill:#FCEE21;" points="351.621,302.526 353.977,72.931 410.491,190.768 "/>
<polygon style="fill:#ED1C24;" points="254.272,168.191 353.977,72.931 351.621,302.526 "/>
<polygon style="fill:#F15A24;" points="351.621,302.526 163.152,255.249 254.272,168.191 "/>
<polygon style="fill:#FBB03B;" points="305.362,119.379 163.152,255.249 104.332,147.933 "/>
<polygon style="fill:#FCEE21;" points="353.977,72.931 305.362,119.379 193,0 "/>
<polygon style="fill:#FBB03B;" points="193,0 319,0 353.977,72.931 "/>
<polygon style="fill:#ED1C24;" points="141.774,85.465 193,0 305.362,119.379 "/>
<polygon style="fill:#FCEE21;" points="305.362,119.379 104.332,147.933 141.774,85.465 "/>
<polygon style="fill:#F15A24;" points="565.051,117.39 386.487,140.717 592,0 "/>
<polygon style="fill:#FCEE21;" points="592,0 695.278,100.378 565.051,117.39 "/>
<polygon style="fill:#ED1C24;" points="440,0 592,0 386.487,140.717 "/>
<polygon style="fill:#F15A24;" points="386.487,140.717 319,0 440,0 "/>
<polygon style="fill:#FCEE21;" points="651.067,223.807 600.507,364.958 479.469,334.596 "/>
<polygon style="fill:#FBB03B;" points="565.051,117.39 695.278,100.378 651.067,223.807 "/>
<polygon style="fill:#FCEE21;" points="651.067,223.807 386.487,140.717 565.051,117.39 "/>
<polygon style="fill:#ED1C24;" points="535.523,187.521 651.067,223.807 479.469,334.596 "/>
<polygon style="fill:#FBB03B;" points="479.469,334.596 386.487,140.717 535.523,187.521 "/>
<polygon style="fill:#ED1C24;" points="465.564,555.972 451.417,781.186 306.137,516.123 "/>
<polyline style="fill:#FBB03B;" points="306.137,516.123 479.469,334.596 465.564,555.972 "/>
<polygon style="fill:#FCEE21;" points="516.539,599.38 451.417,781.186 465.564,555.972 "/>
<polygon style="fill:#F15A24;" points="551.893,500.678 516.539,599.38 465.564,555.972 "/>
<polygon style="fill:#FCEE21;" points="465.564,555.972 479.469,334.596 551.893,500.678 "/>
<polygon style="fill:#ED1C24;" points="479.469,334.596 600.507,364.958 551.893,500.678 "/>
<polygon style="fill:#ED1C24;" points="351.621,302.526 479.469,334.596 306.137,516.123 "/>
<polygon style="fill:#FCEE21;" points="306.137,516.123 163.152,255.249 351.621,302.526 "/>
<polygon style="fill:#FCEE21;" points="605.603,832.196 451.418,781.185 622.616,727.152 "/>
<polygon style="fill:#ED1C24;" points="622.616,727.152 749.291,879.734 605.603,832.196 "/>
<polygon style="fill:#FBB03B;" points="451.418,781.185 516.539,599.38 622.616,727.152 "/>
<polygon style="fill:#FBB03B;" points="519.988,1100 349.439,1065.889 451.418,781.185 "/>
<polygon style="fill:#FCEE21;" points="650.535,974.598 519.988,1100 605.603,832.196 "/>
<polygon style="fill:#F15A24;" points="605.603,832.196 749.291,879.734 650.535,974.598 "/>
<polygon style="fill:#ED1C24;" points="483.611,930.864 451.418,781.185 605.603,832.196 "/>
<polygon style="fill:#F15A24;" points="605.603,832.196 519.988,1100 483.611,930.864 "/>
<polygon style="fill:#FCEE21;" points="813.041,551.424 895.567,538.077 827.114,697.963 "/>
<polygon style="fill:#F15A24;" points="684.75,652.774 516.539,599.38 813.041,551.424 "/>
<polygon style="fill:#FBB03B;" points="813.041,551.424 827.114,697.963 684.75,652.774 "/>
<polygon style="fill:#F15A24;" points="684.75,652.774 827.114,697.963 749.291,879.734 "/>
<polygon style="fill:#FBB03B;" points="749.291,879.734 622.616,727.152 684.75,652.774 "/>
<polygon style="fill:#ED1C24;" points="622.616,727.152 516.539,599.38 684.75,652.774 "/>
<polygon style="fill:#FCEE21;" points="561.943,472.621 600.508,364.957 618.096,451.753 "/>
<polygon style="fill:#FBB03B;" points="586.658,497.452 516.539,599.38 561.943,472.621 "/>
<polygon style="fill:#ED1C24;" points="561.943,472.621 618.096,451.753 586.658,497.452 "/>
<polygon style="fill:#FBB03B;" points="600.508,364.957 677.59,365.271 618.096,451.753 "/>
<polygon style="fill:#F15A24;" points="650.942,577.642 586.658,497.453 618.096,451.753 "/>
<polygon style="fill:#FCEE21;" points="618.096,451.753 677.59,365.271 650.942,577.642 "/>
<polygon style="fill:#FCEE21;" points="650.942,577.642 516.539,599.38 586.658,497.453 "/>
<polygon style="fill:#FCEE21;" points="761.522,480.62 813.041,551.424 650.942,577.642 "/>
<polygon style="fill:#ED1C24;" points="650.942,577.642 677.59,365.271 761.522,480.62 "/>
<polygon style="fill:#FCEE21;" points="761.522,480.62 677.59,365.271 814.773,474.026 "/>
<polygon style="fill:#ED1C24;" points="814.773,474.026 895.567,538.077 813.041,551.424 "/>
<polygon style="fill:#FBB03B;" points="813.041,551.424 761.522,480.62 814.773,474.026 "/>
<polygon style="fill:#ED1C24;" points="842.995,365.943 969.044,366.456 895.567,538.077 "/>
<polygon style="fill:#FBB03B;" points="814.773,474.026 677.59,365.271 842.995,365.943 "/>
<polygon style="fill:#FCEE21;" points="842.995,365.943 895.567,538.077 814.773,474.026 "/>
<polygon style="fill:#F15A24;" points="677.59,365.271 600.508,364.957 651.067,223.807 "/>
<polygon style="fill:#F15A24;" points="796.069,288.857 969.044,366.456 677.59,365.271 "/>
<polygon style="fill:#FBB03B;" points="677.59,365.271 651.067,223.807 796.069,288.857 "/>
<polygon style="fill:#ED1C24;" points="796.069,288.857 651.067,223.807 812.589,214.395 "/>
<polygon style="fill:#FCEE21;" points="812.589,214.395 969.044,366.456 796.069,288.857 "/>
<polygon style="fill:#FCEE21;" points="651.067,223.807 695.278,100.378 812.589,214.395 "/>
<polygon style="fill:#F15A24;" points="0,0 193,0 141.774,85.465 "/>
<polygon style="fill:#ED1C24;" points="141.774,85.465 104.332,147.933 0,0 "/>
<polygon style="fill:#F15A24;" points="35.313,50.07 104.332,147.933 0,128 "/>
<polygon style="fill:#FBB03B;" points="0,128 0,0 35.313,50.07 "/>
<polygon style="fill:#FCEE21;" points="104.332,147.933 0,322 0,128 "/>
</svg>
