<svg width="60" height="60" viewBox="0 0 60 60" fill="none" xmlns="http://www.w3.org/2000/svg">
    <path d="M30.1969 23.9C29.3969 23.9 28.5969 23.7 27.8969 23.3L12.0969 14.3C11.2969 13.8 10.7969 13 10.7969 12C10.7969 11 11.2969 10.2 12.1969 9.70005L27.9969 0.900049C29.3969 0.100049 31.0969 0.100049 32.4969 0.900049L47.9969 9.70005C48.7969 10.2 49.2969 11 49.2969 12C49.2969 13 48.7969 13.8 47.9969 14.3L32.5969 23.3C31.7969 23.7 30.9969 23.9 30.1969 23.9ZM13.0969 11.4C12.7969 11.6 12.6969 11.9 12.6969 12C12.6969 12.1 12.6969 12.4 13.0969 12.6L28.8969 21.6C29.6969 22.1 30.7969 22.1 31.5969 21.6L46.9969 12.6C47.2969 12.4 47.3969 12.1 47.3969 12C47.3969 11.9 47.3969 11.6 46.9969 11.4L31.4969 2.60005C30.6969 2.10005 29.6969 2.10005 28.8969 2.60005L13.0969 11.4Z" fill="#637EA8"/>
    <path d="M36.3977 29.7001H23.9977C20.1977 29.7001 17.0977 26.6001 17.0977 22.8001V17.0001C17.0977 16.5001 17.4977 16.0001 17.9977 16.0001C18.4977 16.0001 18.8977 16.4001 18.9977 16.9001V22.8001C18.9977 25.5001 21.1977 27.8001 23.9977 27.8001H36.3977C39.0977 27.8001 41.3977 25.6001 41.3977 22.8001V16.4001C41.3977 15.9001 41.7977 15.4001 42.3977 15.4001C42.9977 15.4001 43.3977 15.8001 43.3977 16.4001V22.8001C43.2977 26.6001 40.1977 29.7001 36.3977 29.7001Z" fill="#637EA8"/>
    <path d="M37.1966 38.7002C36.9966 38.7002 36.8966 38.7002 36.6966 38.7002C35.1966 38.5002 34.1966 37.4002 34.1966 36.1002C34.1966 34.2002 35.4966 32.5002 35.9966 31.8002V19.8002L29.3966 12.8002C28.9966 12.4002 29.0966 11.8002 29.3966 11.5002C29.7966 11.1002 30.3966 11.2002 30.6966 11.5002L37.5966 18.8002C37.7966 19.0002 37.8966 19.2002 37.8966 19.5002V31.4002C38.6966 32.0002 41.0966 34.0002 40.4966 36.3002C40.0966 37.9002 38.5966 38.7002 37.1966 38.7002ZM37.2966 33.3002C36.7966 34.0002 36.1966 35.0002 36.1966 36.0002C36.1966 36.6002 36.6966 36.7002 36.9966 36.8002C37.5966 36.9002 38.4966 36.7002 38.6966 35.8002C38.9966 35.0002 38.0966 33.9002 37.2966 33.3002Z" fill="#637EA8"/>
    <path d="M52.6984 45.5H7.39844C6.89844 45.5 6.39844 45.1 6.39844 44.5V18.5C6.39844 18 6.79844 17.5 7.39844 17.5H12.6984C13.1984 17.5 13.6984 17.9 13.6984 18.5C13.6984 19.1 13.2984 19.5 12.6984 19.5H8.29844V43.6H51.6984V19.5H46.4984C45.9984 19.5 45.4984 19.1 45.4984 18.5C45.4984 17.9 45.8984 17.5 46.4984 17.5H52.5984C53.0984 17.5 53.5984 17.9 53.5984 18.5V44.5C53.5984 45.1 53.1984 45.5 52.6984 45.5Z" fill="#E8A15B"/>
    <path d="M26 57C25.5 57 25 56.6235 25 56.0588V49.9412C25 49.4706 25.4 49 26 49C26.6 49 27 49.3765 27 49.9412V56.1529C27 56.6235 26.6 57 26 57Z" fill="#3F496A"/>
    <path d="M33 57C32.5 57 32 56.6235 32 56.0588V49.9412C32 49.4706 32.4 49 33 49C33.6 49 34 49.3765 34 49.9412V56.1529C34 56.6235 33.6 57 33 57Z" fill="#3F496A"/>
    <path d="M42.1984 57.7H17.8984C17.3984 57.7 16.8984 57.3 16.8984 56.7C16.8984 56.1 17.2984 55.7 17.8984 55.7H42.1984C42.6984 55.7 43.1984 56.1 43.1984 56.7C43.1984 57.3 42.6984 57.7 42.1984 57.7Z" fill="#3F496A"/>
    <path d="M56.0984 50.4001H3.89844C3.39844 50.4001 2.89844 50.0001 2.89844 49.4001V14.4001C2.89844 13.9001 3.29844 13.4001 3.89844 13.4001H8.79844C9.29844 13.4001 9.79844 13.8001 9.79844 14.4001C9.79844 15.0001 9.39844 15.4001 8.79844 15.4001H4.89844V48.6001H55.1984V14.6001H51.7984C51.2984 14.6001 50.7984 14.2001 50.7984 13.6001C50.7984 13.0001 51.1984 12.6001 51.7984 12.6001H56.0984C56.5984 12.6001 57.0984 13.0001 57.0984 13.6001V49.4001C57.0984 50.0001 56.6984 50.4001 56.0984 50.4001Z" fill="#3F496A"/>
</svg>
