<svg width="60" height="60" viewBox="0 0 60 60" fill="none" xmlns="http://www.w3.org/2000/svg">
    <path d="M30.1 48.4C25.5 48.4 21.2 47.8 18 46.7C13 45 12 42.7 12 41H13.9C13.9 44.1 20.8 46.5 30.1 46.5C39.4 46.5 46.3 44.1 46.3 41H48.2C48.1 46.1 39.1 48.4 30.1 48.4Z" fill="#3F496A"/>
    <path d="M6.99814 26.7999C6.69814 26.7999 6.29814 26.5999 6.19814 26.2999C5.99814 25.7999 6.09814 25.2999 6.59814 24.9999L19.0981 18.2999C21.7981 16.7999 25.1981 17.0999 27.6981 18.9999L31.0981 21.5999C32.8981 22.9999 35.4981 23.1999 37.4981 22.1999L52.5981 14.4999C53.0981 14.2999 53.5981 14.3999 53.8981 14.8999C54.1981 15.3999 53.9981 15.8999 53.4981 16.1999L38.3981 23.8999C35.6981 25.2999 32.3981 24.9999 29.9981 23.0999L26.5981 20.4999C24.6981 19.0999 22.1981 18.8999 20.0981 19.9999L7.39814 26.6999C7.29814 26.7999 7.19814 26.7999 6.99814 26.7999Z" fill="#E8A15B"/>
    <path d="M53 30H7C6.5 30 6 29.6 6 29V2C6 1.5 6.4 1 7 1H53C53.5 1 54 1.4 54 2V29C54 29.5 53.5 30 53 30ZM8 28H52V3H8V28Z" fill="#3F496A"/>
    <path d="M35 16C32.3 16 30 13.8 30 11C30 8.2 32.2 6 35 6C37.8 6 40 8.2 40 11C40 13.8 37.7 16 35 16ZM35 8C33.3 8 32 9.4 32 11C32 12.6 33.4 14 35 14C36.6 14 38 12.6 38 11C38 9.4 36.7 8 35 8Z" fill="#E8A15B"/>
    <path d="M13 42H7C6.5 42 6 41.6 6 41C6 40.4 6.4 40 7 40H13C13.5 40 14 40.4 14 41C14 41.6 13.5 42 13 42Z" fill="#3F496A"/>
    <path d="M13 59H7C6.5 59 6 58.6 6 58V39C6 36.8 7.8 35 10 35C12.2 35 14 36.8 14 39V58C14 58.5 13.5 59 13 59ZM8 57H12V39C12 37.9 11.1 37 10 37C8.9 37 8 37.9 8 39V57Z" fill="#637EA8"/>
    <path d="M53 42H47C46.5 42 46 41.6 46 41C46 40.4 46.4 40 47 40H53C53.5 40 54 40.4 54 41C54 41.6 53.5 42 53 42Z" fill="#3F496A"/>
    <path d="M53 59H47C46.5 59 46 58.6 46 58V39C46 36.8 47.8 35 50 35C52.2 35 54 36.8 54 39V58C54 58.5 53.5 59 53 59ZM48 57H52V39C52 37.9 51.1 37 50 37C48.9 37 48 37.9 48 39V57Z" fill="#637EA8"/>
</svg>
