<svg width="60" height="60" viewBox="0 0 60 60" fill="none" xmlns="http://www.w3.org/2000/svg">
    <g clip-path="url(#clip0_102_485)">
        <path d="M46 52.8999C44.4 52.8999 43 51.5999 43 49.8999C43 48.1999 44.3 46.8999 46 46.8999C47.7 46.8999 49 48.1999 49 49.8999C49 51.5999 47.7 52.8999 46 52.8999ZM46 48.8999C45.4 48.8999 45 49.3999 45 49.8999C45 50.3999 45.5 50.8999 46 50.8999C46.5 50.8999 47 50.3999 47 49.8999C47 49.3999 46.6 48.8999 46 48.8999Z" fill="#3F496A"/>
        <path d="M59.0016 40.5H38.0016H36.1016H33.1016C32.6016 40.5 32.1016 40.9 32.1016 41.5V43.5V45.4V58.4C32.1016 58.9 32.5016 59.4 33.1016 59.4H59.1016C59.6016 59.4 60.1016 59 60.1016 58.4V41.4C60.0016 41 59.6016 40.5 59.0016 40.5ZM58.1016 57.5H34.0016V45.4V43.5V42.4H35.7016H37.8016H58.1016V57.5Z" fill="#637EA8"/>
        <path d="M23.1008 57.7C22.7008 57.7 22.4008 57.5 22.2008 57.1L19.0008 49.4C18.9008 49.2 18.9008 49 19.0008 48.8L20.7008 42.8C20.8008 42.3 21.4008 42 21.9008 42.1C22.4008 42.2 22.7008 42.8 22.6008 43.3L20.9008 49L23.0008 54.2L24.9008 49.1L23.0008 43.3C22.8008 42.8 23.1008 42.3 23.6008 42.1C24.1008 41.9 24.6008 42.2 24.8008 42.7L26.8008 48.7C26.9008 48.9 26.9008 49.1 26.8008 49.3L24.0008 57.1C23.8008 57.5 23.5008 57.7 23.1008 57.7Z" fill="#E8A15B"/>
        <path d="M23.898 44H21.898C21.498 44 21.198 43.8 21.098 43.5L20.098 41.5C19.898 41 20.098 40.5 20.498 40.2C20.998 40 21.498 40.2 21.798 40.6L22.498 42.1H23.298L23.998 40.6C24.198 40.1 24.798 39.9 25.298 40.2C25.798 40.4 25.998 41 25.698 41.5L24.698 43.5C24.598 43.8 24.198 44 23.898 44Z" fill="#E8A15B"/>
        <path d="M17.8002 43.0001C17.5002 43.0001 17.3002 42.9001 17.1002 42.6001C16.8002 42.2001 16.9002 41.6001 17.3002 41.3001L27.6002 33.2001C28.0002 32.9001 28.6002 33.0001 28.8002 33.4001C29.1002 33.8001 29.0002 34.4001 28.6002 34.7001L18.3002 42.8001C18.2002 42.9001 18.0002 43.0001 17.8002 43.0001Z" fill="#637EA8"/>
        <path d="M27.7002 42.7999C27.5002 42.7999 27.3002 42.6999 27.1002 42.5999L16.3002 34.7999C15.9002 34.4999 15.8002 33.8999 16.1002 33.4999C16.4002 33.0999 17.0002 32.9999 17.4002 33.2999L28.2002 41.0999C28.6002 41.3999 28.7002 41.9999 28.4002 42.3999C28.2002 42.6999 28.0002 42.7999 27.7002 42.7999Z" fill="#637EA8"/>
        <path d="M17.7984 31.9999C17.7984 31.4999 17.2984 31.0999 16.7984 31.0999C16.2984 31.0999 15.8984 31.5999 15.8984 32.0999L17.6984 58.4999C17.6984 58.9999 18.0984 59.3999 18.5984 59.3999C19.0984 59.3999 19.5984 58.8999 19.4984 58.3999L17.7984 31.9999Z" fill="#3F496A"/>
        <path d="M29.8016 32.0999C29.8016 31.5999 29.4016 31.0999 28.9016 31.0999C28.4016 31.0999 27.9016 31.4999 27.9016 31.9999L26.1016 58.3999C26.1016 58.8999 26.5016 59.3999 27.0016 59.3999C27.5016 59.3999 27.9016 58.9999 27.9016 58.4999L29.8016 32.0999Z" fill="#3F496A"/>
        <path d="M5.69969 40.5C6.19969 39.5 10.3997 37.9 14.0997 37C14.5997 36.9 14.8997 36.4 14.7997 35.8C14.6997 35.3 14.1997 35 13.5997 35.1C11.5997 35.6 5.09969 37.4 3.99969 39.6C3.09969 41.3 0.699689 54.3 -0.000310627 58.3C-0.100311 58.9 0.299689 59.4 0.899689 59.4C1.39969 59.4 1.79969 59.1 1.79969 58.6C2.59969 55.2 5.09969 41.7 5.69969 40.5Z" fill="#3F496A"/>
        <path d="M10.1016 47C10.1016 46.5 9.70156 46 9.10156 46C8.50156 46 8.10156 46.4 8.10156 47V58.4C8.10156 58.9 8.50156 59.4 9.10156 59.4C9.60156 59.4 10.1016 59 10.1016 58.4V47Z" fill="#3F496A"/>
        <path d="M30.1996 34.1C29.6996 34 29.1996 34.3 28.9996 34.8C28.8996 35.3 29.1996 35.8 29.6996 36C31.7996 36.5 34.1996 37.3 35.7996 38.1C36.1996 38.3 36.6996 38.1 36.9996 37.8C37.2996 37.3 37.0996 36.6 36.5996 36.4C34.2996 35.2 31.3996 34.4 30.1996 34.1Z" fill="#3F496A"/>
        <path d="M17.9008 55.3001C17.6008 55.3001 17.3008 55.2001 17.2008 54.9001L12.9008 49.4001C12.2008 48.5001 12.3008 47.3001 13.1008 46.6001L14.5008 45.2001C14.6008 45.1001 14.6008 45.0001 14.5008 44.9001L12.8008 43.2001C12.3008 42.7001 12.1008 42.0001 12.2008 41.3001L13.0008 36.4001C13.1008 35.8001 13.4008 35.3001 13.9008 35.0001L16.5008 33.2001C16.9008 32.9001 17.5008 33.0001 17.8008 33.4001C18.1008 33.8001 18.0008 34.4001 17.6008 34.7001L15.0008 36.5001C14.9008 36.5001 14.9008 36.6001 14.9008 36.7001L14.1008 41.6001C14.1008 41.7001 14.1008 41.8001 14.2008 41.8001L15.9008 43.5001C16.7008 44.3001 16.7008 45.7001 15.9008 46.5001L14.3008 48.0001C14.2008 48.1001 14.2008 48.2001 14.3008 48.3001L18.6008 53.8001C18.9008 54.2001 18.9008 54.8001 18.4008 55.1001C18.3008 55.3001 18.1008 55.3001 17.9008 55.3001Z" fill="#3F496A"/>
        <path d="M8.89774 19C8.39774 19 7.99774 18.7 7.99774 18.2C7.89774 17.9 6.59774 10.7 10.7977 5.49995C13.2977 2.39995 17.1977 0.699953 22.3977 0.599953C25.3977 0.499953 26.7977 1.49995 28.0977 2.39995C29.2977 3.19995 30.4977 3.99995 32.9977 4.19995C33.8977 4.29995 34.6977 4.69995 35.3977 5.49995C37.8977 8.59995 37.1977 16.3 37.0977 17.1C36.9977 17.6 36.5977 18 36.0977 17.9C35.5977 17.8 35.1977 17.4 35.2977 16.9C35.4977 14.8 35.6977 8.79995 33.9977 6.69995C33.6977 6.29995 33.2977 6.09995 32.8977 6.09995C29.8977 5.79995 28.3977 4.79995 27.0977 3.99995C25.7977 3.19995 24.7977 2.49995 22.4977 2.59995C17.8977 2.69995 14.4977 4.19995 12.2977 6.79995C8.69774 11.3 9.89774 17.9 9.89774 18C9.99774 18.5 9.69774 19 9.09774 19.1C8.99774 19 8.89774 19 8.89774 19Z" fill="#3F496A"/>
        <path d="M11.3984 22.6C10.2984 22.6 9.39844 21.7 9.39844 20.6C9.39844 19.5 10.2984 18.6 11.3984 18.6V16.7C9.19844 16.7 7.39844 18.5 7.39844 20.7C7.39844 22.9 9.19844 24.7 11.3984 24.7H11.6984C11.5984 23.9 11.4984 23.2 11.3984 22.6Z" fill="#E8A15B"/>
        <path d="M34.3977 16.5999V18.4999C35.4977 18.4999 36.3977 19.3999 36.3977 20.4999C36.3977 21.5999 35.4977 22.4999 34.3977 22.4999H34.2977C34.2977 23.0999 34.1977 23.7999 34.0977 24.3999H34.3977C36.5977 24.3999 38.3977 22.5999 38.3977 20.3999C38.3977 18.1999 36.5977 16.5999 34.3977 16.5999Z" fill="#E8A15B"/>
        <path d="M34.2984 16.5H32.3984C32.3984 16.8 32.3984 17.1 32.3984 17.5V18.5V22C32.3984 22.2 32.3984 22.4 32.3984 22.5C32.3984 23.2 32.2984 23.8 32.0984 24.4C31.4984 26.6 30.1984 28.5 28.2984 29.8C27.6984 30.2 27.0984 30.6 26.3984 30.8C25.2984 31.2 24.0984 31.5 22.8984 31.5C21.2984 31.5 19.6984 31.1 18.3984 30.3C17.5984 30 16.9984 29.6 16.3984 29C15.0984 27.8 14.0984 26.2 13.5984 24.4C13.3984 23.8 13.2984 23.2 13.2984 22.5C13.2984 22.3 13.2984 22.1 13.2984 22V18.5V17.6C13.2984 17.4 13.2984 17 13.4984 16.6H11.4984H11.3984V18.5V22C11.3984 22.2 11.3984 22.4 11.3984 22.5C11.3984 23.1 11.4984 23.8 11.5984 24.4C12.1984 27.3 13.9984 29.8 16.2984 31.4C16.8984 31.8 17.4984 32.2 18.1984 32.4C19.5984 33 21.0984 33.4 22.6984 33.4C23.8984 33.4 25.0984 33.2 26.1984 32.8C26.8984 32.6 27.4984 32.3 28.0984 32C30.9984 30.4 33.0984 27.7 33.7984 24.4C33.8984 23.8 33.9984 23.1 33.9984 22.5C33.9984 22.3 33.9984 22.1 33.9984 22V18.5L34.2984 16.5C34.2984 16.6 34.2984 16.5 34.2984 16.5Z" fill="#E8A15B"/>
        <path d="M15.3977 15.4999C15.9977 15.4999 16.5977 15.5999 17.2977 15.6999C20.0977 15.9999 23.6977 16.4999 27.7977 13.1999C28.4977 14.2999 29.8977 15.4999 32.1977 15.5999C32.2977 15.7999 32.2977 16.0999 32.3977 16.6999H34.2977C34.1977 15.3999 33.9977 14.5999 33.4977 14.0999C33.1977 13.7999 32.8977 13.6999 32.5977 13.6999C29.6977 13.6999 29.0977 11.6999 29.0977 11.3999C28.9977 11.0999 28.7977 10.7999 28.3977 10.6999C28.0977 10.5999 27.6977 10.6999 27.4977 10.8999C23.6977 14.5999 20.2977 14.0999 17.4977 13.7999C16.6977 13.6999 15.9977 13.5999 15.3977 13.5999C13.0977 13.5999 11.8977 15.0999 11.5977 16.5999H13.5977C13.7977 15.9999 14.2977 15.4999 15.3977 15.4999Z" fill="#3F496A"/>
    </g>
    <defs>
        <clipPath id="clip0_102_485">
            <rect width="60" height="60" fill="white"/>
        </clipPath>
    </defs>
</svg>
