<svg width="60" height="60" viewBox="0 0 60 60" fill="none" xmlns="http://www.w3.org/2000/svg">
    <path d="M34.7988 35.0001L29.7988 33.5001C29.2988 33.4001 28.7988 33.6001 28.5988 34.2001C28.4988 34.7001 28.6988 35.2001 29.2988 35.4001L34.2988 36.9001C34.3988 36.9001 34.4988 36.9001 34.5988 36.9001C34.9988 36.9001 35.3988 36.6001 35.4988 36.2001C35.5988 35.7001 35.2988 35.2001 34.7988 35.0001Z" fill="#3F496A"/>
    <path d="M19.9 35C19.7 34.5 19.2 34.2 18.7 34.4L11.7 36.8C8 38 5.5 41.4 5.5 45.3V49.9V51.8H7.4H12.5V58.6C12.5 59.1 12.9 59.5 13.5 59.5C14.1 59.5 14.5 59.1 14.5 58.6V48.7C14.5 48.2 14.1 47.8 13.5 47.8C12.9 47.8 12.5 48.2 12.5 48.7V49.9H7.5V45.3C7.5 42.3 9.4 39.6 12.3 38.6L19.3 36.2C19.8 36 20.1 35.5 19.9 35Z" fill="#3F496A"/>
    <path d="M5.5 58.5C5.5 59 5.9 59.5 6.5 59.5C7.1 59.5 7.5 59.1 7.5 58.5V51.8H5.5V58.5Z" fill="#E8A15B"/>
    <path d="M10.9993 18.9001C10.5993 18.9001 10.1993 18.6001 10.0993 18.1001C9.9993 17.8001 8.6993 10.6001 12.8993 5.4001C15.3993 2.3001 19.2993 0.600099 24.4993 0.500099C27.4993 0.400099 28.8993 1.4001 30.1993 2.3001C31.3993 3.1001 32.5993 3.9001 35.0993 4.1001C35.9993 4.2001 36.7993 4.6001 37.4993 5.4001C39.9993 8.5001 39.2993 16.2001 39.1993 17.0001C39.0993 17.5001 38.6993 17.9001 38.1993 17.8001C37.6993 17.7001 37.2993 17.3001 37.3993 16.8001C37.5993 14.7001 37.7993 8.7001 36.0993 6.6001C35.6993 6.3001 35.3993 6.1001 34.9993 6.0001C31.9993 5.7001 30.4993 4.7001 29.1993 3.9001C27.8993 3.1001 26.8993 2.4001 24.5993 2.5001C19.9993 2.6001 16.5993 4.1001 14.3993 6.7001C10.7993 11.2001 11.9993 17.8001 11.9993 17.9001C12.0993 18.4001 11.7993 18.9001 11.1993 19.0001C11.0993 18.9001 11.0993 18.9001 10.9993 18.9001Z" fill="#637EA8"/>
    <path d="M13.5 22.5001C12.4 22.5001 11.5 21.6001 11.5 20.5001C11.5 19.4001 12.4 18.5001 13.5 18.5001V16.6001C11.3 16.6001 9.5 18.4001 9.5 20.6001C9.5 22.8001 11.3 24.6001 13.5 24.6001H13.8C13.7 23.8001 13.6 23.2001 13.5 22.5001Z" fill="#E8A15B"/>
    <path d="M36.4992 16.5V18.4C37.5992 18.4 38.4992 19.3 38.4992 20.4C38.4992 21.5 37.5992 22.4 36.4992 22.4H36.3992C36.3992 23 36.2992 23.7 36.1992 24.3H36.4992C38.6992 24.3 40.4992 22.5 40.4992 20.3C40.4992 18.1 38.6992 16.5 36.4992 16.5Z" fill="#E8A15B"/>
    <path d="M29.4988 35.5002C29.9988 35.5002 30.4988 35.1002 30.4988 34.5002V32.0002C29.8988 32.3002 29.2988 32.6002 28.5988 32.8002V34.5002C28.4988 35.1002 28.9988 35.5002 29.4988 35.5002Z" fill="#E8A15B"/>
    <path d="M22.8 38.5001C21.5 38.5001 20.4 37.4001 20.4 36.1001V32.4001C19.7 32.1001 19.1 31.8001 18.5 31.4001V36.1001C18.5 38.5001 20.4 40.4001 22.8 40.4001H23.6C24.1 40.4001 24.6 40.0001 24.6 39.4001C24.6 38.9001 24.2 38.4001 23.6 38.4001H22.8V38.5001Z" fill="#E8A15B"/>
    <path d="M36.4016 16.5H34.5016C34.5016 16.8 34.5016 17.1 34.5016 17.5V18.5V22C34.5016 22.2 34.5016 22.4 34.5016 22.5C34.5016 23.2 34.4016 23.8 34.2016 24.4C33.6016 26.6 32.3016 28.5 30.4016 29.8C29.8016 30.2 29.2016 30.6 28.5016 30.8C27.4016 31.2 26.2016 31.5 25.0016 31.5C23.4016 31.5 21.8016 31.1 20.5016 30.3C19.8016 29.9 19.2016 29.5 18.6016 28.9C17.3016 27.7 16.3016 26.1 15.8016 24.3C15.6016 23.7 15.5016 23.1 15.5016 22.4C15.5016 22.2 15.5016 22 15.5016 21.9V18.4V17.5C15.5016 17.3 15.5016 16.9 15.7016 16.5H13.7016H13.6016V18.4V22C13.6016 22.2 13.6016 22.4 13.6016 22.5C13.6016 23.1 13.7016 23.8 13.8016 24.4C14.4016 27.3 16.2016 29.8 18.5016 31.4C19.1016 31.8 19.7016 32.2 20.4016 32.4C21.8016 33 23.3016 33.4 24.9016 33.4C26.1016 33.4 27.3016 33.2 28.4016 32.8C29.1016 32.6 29.7016 32.3 30.3016 32C33.2016 30.4 35.3016 27.7 36.0016 24.4C36.1016 23.8 36.2016 23.1 36.2016 22.5C36.2016 22.3 36.2016 22.1 36.2016 22V18.5L36.4016 16.5Z" fill="#E8A15B"/>
    <path d="M17.4992 15.4C18.0992 15.4 18.6992 15.5 19.3992 15.6C22.1992 15.9 25.7992 16.4 29.8992 13.1C30.5992 14.2 31.9992 15.4 34.2992 15.5C34.3992 15.7 34.3992 16 34.4992 16.6H36.3992C36.2992 15.3 36.0992 14.5 35.5992 14C35.2992 13.7 34.9992 13.6 34.6992 13.6C31.7992 13.6 31.1992 11.6 31.1992 11.3C31.0992 11 30.8992 10.7 30.4992 10.6C30.1992 10.5 29.7992 10.6 29.5992 10.8C25.7992 14.5 22.3992 14 19.5992 13.7C18.7992 13.6 18.0992 13.5 17.4992 13.5C15.1992 13.5 13.9992 15 13.6992 16.5H15.6992C15.8992 15.9 16.3992 15.4 17.4992 15.4Z" fill="#637EA8"/>
    <path d="M40.5 49.3999C38.9 49.3999 37.5 48.0999 37.5 46.3999C37.5 44.6999 38.8 43.3999 40.5 43.3999C42.2 43.3999 43.5 44.6999 43.5 46.3999C43.5 48.0999 42.1 49.3999 40.5 49.3999ZM40.5 45.3999C39.9 45.3999 39.5 45.8999 39.5 46.3999C39.5 46.8999 40 47.3999 40.5 47.3999C41 47.3999 41.5 46.8999 41.5 46.3999C41.5 45.8999 41.1 45.3999 40.5 45.3999Z" fill="#3F496A"/>
    <path d="M53.5016 37.5H32.5016H30.6016H27.6016C27.1016 37.5 26.6016 37.9 26.6016 38.5V40.5V42.4V55.4C26.6016 55.9 27.0016 56.4 27.6016 56.4H53.6016C54.1016 56.4 54.6016 56 54.6016 55.4V38.4C54.5016 38 54.0016 37.5 53.5016 37.5ZM52.5016 54.5H28.5016V42.4V40.5V39.4H30.2016H32.3016H52.6016V54.5H52.5016Z" fill="#637EA8"/>
    <path d="M50.5 59.4H23.5C23.1 59.4 22.7 59.1 22.6 58.8C22.5 58.4 22.6 58 22.9 57.7L26.9 54.7C27.1 54.6 27.3 54.5 27.5 54.5H53.5C53.9 54.5 54.2 54.7 54.4 55.1C54.5 55.5 54.5 55.9 54.2 56.1L51.2 59.1C51 59.3 50.8 59.4 50.5 59.4ZM26.3 57.5H50.1L51.2 56.4H27.8L26.3 57.5Z" fill="#637EA8"/>
</svg>
