<svg width="452" height="70" viewBox="0 0 452 70" fill="none" xmlns="http://www.w3.org/2000/svg">
<g clip-path="url(#clip0)">
<path d="M247.964 61.0897C241.942 61.0897 237.059 56.162 237.059 50.0843C237.059 44.0067 241.942 39.0799 247.964 39.0799C253.987 39.0799 258.87 44.0067 258.87 50.0843C258.87 56.162 253.987 61.0897 247.964 61.0897ZM247.964 30.1687C237.064 30.1687 228.229 39.085 228.229 50.0843C228.229 61.0837 237.064 70 247.964 70C258.864 70 267.7 61.0837 267.7 50.0843C267.7 39.085 258.864 30.1687 247.964 30.1687Z" fill="#D32E16"/>
<path d="M247.964 46.6104C246.063 46.6104 244.522 48.1657 244.522 50.0843C244.522 52.0028 246.063 53.5582 247.964 53.5582C249.866 53.5582 251.407 52.0028 251.407 50.0843C251.407 48.1657 249.866 46.6104 247.964 46.6104Z" fill="#D32E16"/>
<path d="M185.584 31.7843V68.4877H193.844V56.7989H185.584V48.894H193.844V39.6901H185.584V31.7843Z" fill="#F7A727"/>
<path d="M208.774 31.7843H202.865H202.245H185.584H193.843V39.6901H202.245H202.865H208.774C210.592 39.6901 211.899 40.1412 212.808 41.1577C213.66 42.1174 214.001 43.4163 214.001 44.32C214.001 45.167 213.717 46.4658 212.922 47.4255C212.524 47.8206 212.127 48.1029 211.615 48.3853C210.819 48.7244 209.854 48.894 208.661 48.894H202.865H202.245H193.843V56.7989H202.245H202.865H208.661C218.432 56.7989 221.955 49.5145 221.955 44.32C221.955 38.6736 217.864 31.7843 208.774 31.7843Z" fill="#F7A727"/>
<path d="M193.844 48.894H185.584V56.7989H193.844V48.894ZM193.844 31.7843H185.584V39.6901H193.844V31.7843Z" fill="#EE7409"/>
<path d="M147.624 31.7843H139.307V68.4877H147.624V31.7843Z" fill="#F7A727"/>
<path d="M167.722 31.7843H152.992V41.0604H167.722V31.7843ZM176.091 31.7843H176V41.0604H176.091V31.7843Z" fill="#F7A727"/>
<path d="M176.001 41.0604H167.722V68.7287H176.001V41.0604Z" fill="#F7A727"/>
<path d="M176.001 31.7843H167.722V41.0604H176.001V31.7843Z" fill="#EE7409"/>
<path d="M21.0676 59.9355C19.2937 59.9355 17.8557 61.3867 17.8557 63.1771C17.8557 64.9674 19.2937 66.4186 21.0676 66.4186C22.8416 66.4186 24.2804 64.9674 24.2804 63.1771C24.2804 61.3867 22.8416 59.9355 21.0676 59.9355Z" fill="#D32E16"/>
<path d="M72.1462 32.0547H66.237H65.6163H57.2151V39.9597H65.6163H66.237H72.1462C73.9637 39.9597 75.2709 40.4115 76.1797 41.4281C77.032 42.3878 77.3731 43.6866 77.3731 44.5904C77.3731 45.4374 77.0884 46.7362 76.2934 47.6959C75.8958 48.091 75.4983 48.3733 74.987 48.6557C74.1911 48.9948 73.2251 49.1643 72.0325 49.1643H66.237H65.6163H57.2151V57.0693H65.6163H66.237H72.0325C81.8041 57.0693 85.3264 49.7849 85.3264 44.5904C85.3264 38.9431 81.2356 32.0547 72.1462 32.0547Z" fill="#E94E1B"/>
<path d="M57.2151 57.0693H48.955V68.7581H57.2151V57.0693ZM57.2151 39.9597H48.955V49.1635H57.2151V39.9597ZM57.2151 32.0547H48.955C51.3111 32.0547 54.3418 32.0547 57.2151 32.0547Z" fill="#E94E1B"/>
<path d="M57.2151 49.1643H48.955V57.0693H57.2151V49.1643ZM57.2151 32.0547H48.955V39.9597H57.2151V32.0547Z" fill="#E41F14"/>
<path d="M118.159 50.0886L111.332 56.9632L123.348 69.0617L130.176 62.187L118.159 50.0886ZM99.3231 31.124L92.4949 37.9987L104.504 50.0886L111.331 43.2148L99.3231 31.124Z" fill="#F28A07"/>
<path d="M104.504 50.0887L92.4154 62.2595L99.2427 69.1342L111.332 56.9634L104.504 50.0887ZM123.429 31.0347L111.332 43.214L118.16 50.0887L130.257 37.9093L123.429 31.0347Z" fill="#F28A07"/>
<path d="M111.331 43.2156L104.503 50.09L111.331 56.9644L118.159 50.09L111.331 43.2156Z" fill="#E9520E"/>
<path d="M21.0557 32.0547L0 69.0989H1.69529L11.3977 68.7572L21.0557 50.2936L30.7718 68.7572H40.9889L21.0557 32.0547Z" fill="#D32E16"/>
<path d="M358.79 31.7653H347.645L330.564 49.0014V60.2486L336.327 54.4344L330.805 48.7931L336.368 43.2776L341.835 48.8758L358.79 31.7653Z" fill="#E56524"/>
<path d="M330.564 60.2486L322.449 68.4377V68.4678H330.564V60.2486ZM330.564 31.7653H322.449V57.1905L330.564 49.0014V31.7653Z" fill="#E56524"/>
<path d="M330.564 49.0016L322.449 57.1906V68.4378L330.564 60.2497V49.0016Z" fill="#D83117"/>
<path d="M341.834 48.8759L336.326 54.4345L350.051 68.4575H360.956L341.834 48.8759Z" fill="#E56524"/>
<path d="M336.368 43.2777L330.805 48.7933L336.326 54.4337L341.834 48.8759L336.368 43.2777Z" fill="#D83117"/>
<path d="M312.807 31.6173H285.311V38.9835H276.155V31.6173V38.9835H312.807V31.6173Z" fill="#F28A07"/>
<path d="M285.312 31.6173H276.156V38.9835H285.312V31.6173Z" fill="#E9520E"/>
<path d="M312.807 60.9769H285.311V68.5385H276.155V60.9769V68.5385H312.807V60.9769Z" fill="#F28A07"/>
<path d="M285.312 60.9769H276.156V68.5385H285.312V60.9769Z" fill="#E9520E"/>
<path d="M312.807 46.249H285.311V53.8106H276.155V46.249V53.8106H312.807V46.249Z" fill="#F28A07"/>
<path d="M285.312 46.249H276.156V53.8106H285.312V46.249Z" fill="#E9520E"/>
<path d="M403.529 31.6509H389.143V40.723H403.529V31.6509Z" fill="#F28A07"/>
<path d="M381.14 31.6509H366.132V40.723H381.14V31.6509Z" fill="#F28A07"/>
<path d="M380.905 31.6509V68.5522H389.142V40.723H380.905V31.6509Z" fill="#F7A727"/>
<path d="M389.142 31.6509H380.905V40.723H389.142V31.6509Z" fill="#EE7409"/>
<path d="M447.482 20.0181C447.482 8.9611 438.579 0 427.597 0C416.618 0 407.715 8.9611 407.715 20.0181C407.715 31.0751 416.618 40.0379 427.597 40.0379C438.579 40.0379 447.482 31.0751 447.482 20.0181Z" fill="#D32E16"/>
<path d="M427.399 20.7411C427.632 19.66 427.697 18.6048 427.704 17.5331H431.273V23.1408H426.683C427.013 22.2801 427.22 21.576 427.399 20.7411ZM433.768 23.1408V15.0164H425.218V17.4238C425.218 17.9394 425.218 19.3829 424.974 20.5311C424.861 21.0484 424.415 22.4169 423.927 23.1408H422.968L421.664 25.6438H435.009V23.1408H433.768Z" fill="white"/>
<path d="M418.768 29.3958H414.173L417.441 23.1409H422.034L418.768 29.3958Z" fill="white"/>
<path d="M419.926 15.0181H417.44V22.1983H419.926V15.0181Z" fill="white"/>
<path d="M416.503 23.1486H412.471V15.0181H409.988V25.6516H415.196L416.503 23.1486Z" fill="white"/>
<path d="M441.536 20.7961L445.29 13.5969H450.943L447.191 20.7961H441.536Z" fill="white"/>
<path d="M450.167 14.0695L446.908 20.3236H442.312L445.573 14.0695H450.167ZM451.719 13.1244H450.167H445.573H445.006L444.742 13.6296L441.481 19.8846L440.76 21.2686H442.312H446.908H447.476L447.739 20.7625L450.998 14.5076L451.719 13.1244Z" fill="#D32E16"/>
<path d="M443.59 22.1192C443.042 22.8749 442.158 23.3664 441.159 23.3664C439.494 23.3664 438.147 22.0081 438.147 20.334C438.147 18.6608 439.494 17.3017 441.159 17.3017C441.692 17.3017 442.191 17.4454 442.624 17.6924L443.747 15.5389C442.978 15.1145 442.097 14.8744 441.159 14.8744C438.163 14.8744 435.735 17.318 435.735 20.334C435.735 23.3483 438.163 25.7945 441.159 25.7945C442.959 25.7945 444.55 24.9071 445.536 23.5489L443.59 22.1192Z" fill="white"/>
</g>
<defs>
<clipPath id="clip0">
<rect width="451.719" height="70" fill="white"/>
</clipPath>
</defs>
</svg>
