<svg width="60" height="60" viewBox="0 0 60 60" fill="none" xmlns="http://www.w3.org/2000/svg">
    <path d="M37.5 32.8H49.6V55.3H51.5V31.8C51.5 31.3 51.1 30.8 50.5 30.8H36.5C36 30.8 35.5 31.2 35.5 31.8V55.3H37.4V32.8H37.5Z" fill="#637EA8"/>
    <path d="M9.5 38.8H21.6V55.3H23.5V37.8C23.5 37.3 23.1 36.8 22.5 36.8H8.5C8 36.8 7.5 37.2 7.5 37.8V55.3H9.4V38.8H9.5Z" fill="#637EA8"/>
    <path d="M23.5 24.8H35.6V55.3H37.5V23.8C37.5 23.3 37.1 22.8 36.5 22.8H22.5C22 22.8 21.5 23.2 21.5 23.8V55.3H23.4V24.8H23.5Z" fill="#E8A15B"/>
    <path d="M29.9977 3.20005L31.9977 7.30005L36.4977 8.00005L33.1977 11.2L33.9977 15.7L29.9977 13.6L25.9977 15.7L26.7977 11.2L23.4977 8.00005L27.9977 7.30005L29.9977 3.20005ZM29.9977 1.30005C29.2977 1.30005 28.5977 1.70005 28.2977 2.40005L26.6977 5.60005L23.1977 6.00005C22.4977 6.10005 21.8977 6.60005 21.6977 7.30005C21.4977 8.00005 21.6977 8.70005 22.1977 9.20005L24.6977 11.7L24.0977 15.2C23.9977 15.9 24.2977 16.6 24.8977 17.1C25.1977 17.3 25.5977 17.5 25.9977 17.5C26.2977 17.5 26.5977 17.4 26.8977 17.3L29.9977 15.7L33.0977 17.3C33.3977 17.4 33.6977 17.5 33.9977 17.5C34.3977 17.5 34.7977 17.4 35.0977 17.1C35.6977 16.7 35.9977 16 35.8977 15.2L35.2977 11.7L37.7977 9.20005C38.2977 8.70005 38.4977 7.90005 38.2977 7.30005C38.0977 6.60005 37.4977 6.10005 36.7977 6.00005L33.2977 5.50005L31.6977 2.30005C31.3977 1.70005 30.6977 1.30005 29.9977 1.30005Z" fill="#E8A15B"/>
    <path d="M44.1984 10.2H41.8984C41.3984 10.2 40.8984 9.79995 40.8984 9.19995C40.8984 8.59995 41.2984 8.19995 41.8984 8.19995H44.1984C44.6984 8.19995 45.1984 8.59995 45.1984 9.19995C45.1984 9.79995 44.6984 10.2 44.1984 10.2Z" fill="#637EA8"/>
    <path d="M43.7961 16.9C43.5961 16.9 43.3961 16.8 43.2961 16.7L41.3961 15.4C40.9961 15.1 40.8961 14.5 41.0961 14.1C41.3961 13.7 41.9961 13.6 42.3961 13.9L44.2961 15.2C44.6961 15.5 44.7961 16.1 44.5961 16.5C44.3961 16.7 44.0961 16.9 43.7961 16.9Z" fill="#637EA8"/>
    <path d="M41.7967 5.00003C41.4967 5.00003 41.2967 4.90003 41.0967 4.70003C40.7967 4.30003 40.7967 3.70003 41.1967 3.40003L42.9967 1.80003C43.3967 1.50003 43.9967 1.50003 44.2967 1.90003C44.5967 2.30003 44.5967 2.90003 44.1967 3.20003L42.3967 4.70003C42.2967 4.90003 42.0967 5.00003 41.7967 5.00003Z" fill="#637EA8"/>
    <path d="M18.1984 10.2H15.8984C15.3984 10.2 14.8984 9.79995 14.8984 9.19995C14.8984 8.59995 15.2984 8.19995 15.8984 8.19995H18.1984C18.6984 8.19995 19.1984 8.59995 19.1984 9.19995C19.1984 9.79995 18.6984 10.2 18.1984 10.2Z" fill="#637EA8"/>
    <path d="M16.1992 16.9C15.8992 16.9 15.5992 16.8 15.3992 16.5C15.0992 16.1 15.1992 15.5 15.6992 15.2L17.5992 13.9C17.9992 13.6 18.5992 13.7 18.8992 14.1C19.1992 14.5 19.0992 15.1 18.5992 15.4L16.6992 16.7C16.5992 16.8 16.3992 16.9 16.1992 16.9Z" fill="#637EA8"/>
    <path d="M18.2 5.00004C18 5.00004 17.8 4.90004 17.6 4.80004L15.8 3.30004C15.4 3.00004 15.3 2.40004 15.7 2.00004C16 1.50004 16.6 1.40004 17 1.80004L18.8 3.30004C19.2 3.60004 19.3 4.20004 18.9 4.60004C18.7 4.80004 18.4 5.00004 18.2 5.00004Z" fill="#637EA8"/>
    <path d="M58.4 57.8C58.3 55.6 56.6 53.8 54.3 53.8H5.6C3.4 53.8 1.6 55.6 1.5 57.8V57.9001V58.7001C1.5 59.2001 1.9 59.6 2.4 59.6H3.4H56.5H57.5C58 59.6 58.4 59.2001 58.4 58.7001V57.9001C58.5 57.9001 58.4 57.9 58.4 57.8ZM3.5 57.8C3.6 56.7 4.5 55.8 5.6 55.8H54.4C55.6 55.8 56.5 56.7 56.5 57.8H3.5Z" fill="#3F496A"/>
</svg>
