<?xml version="1.0" encoding="utf-8"?>
<!-- Generator: Adobe Illustrator 17.0.0, SVG Export Plug-In . SVG Version: 6.00 Build 0)  -->
<!DOCTYPE svg PUBLIC "-//W3C//DTD SVG 1.1//EN" "http://www.w3.org/Graphics/SVG/1.1/DTD/svg11.dtd">
<svg version="1.1" id="Слой_1" xmlns="http://www.w3.org/2000/svg" xmlns:xlink="http://www.w3.org/1999/xlink" x="0px" y="0px"
	 width="1180.5px" height="1184px" viewBox="0 0 1180.5 1184" enable-background="new 0 0 1180.5 1184" xml:space="preserve">
<g id="_x38__1_">
	<g>
		<path fill="#637EA8" d="M1007.021,1184H64.252c-17.07,0-33.082-6.549-45.085-18.442C7.13,1153.631,0.5,1137.701,0.5,1120.701
			V173.935C0.5,138.681,29.099,110,64.252,110h942.77c35.002,0,63.479,28.681,63.479,63.935V1120.7c0,17-6.569,32.918-18.497,44.825
			C1040.066,1177.439,1024.092,1184,1007.021,1184z M64.252,135C42.884,135,25.5,152.466,25.5,173.935V1120.7
			c0,21.118,17.384,38.299,38.752,38.299h942.77c21.577,0,38.479-16.823,38.479-38.299V173.935
			c0-21.469-17.262-38.935-38.479-38.935H64.252z"/>
	</g>
	<g>
		<path fill="#637EA8" d="M1117.149,1074H1057.5c-6.903,0-12.5-5.597-12.5-12.5s5.597-12.5,12.5-12.5h59.649
			c21.505,0,38.351-16.879,38.351-38.427V63.808c0-21.399-17.204-38.808-38.351-38.808H174.38
			c-21.698,0-39.351,17.416-39.351,38.824c0,6.904-5.597,12.5-12.5,12.5s-12.5-5.596-12.5-12.5C110.029,28.631,138.896,0,174.38,0
			h942.77c34.932,0,63.351,28.624,63.351,63.808v946.765c0,16.999-6.535,32.93-18.402,44.857
			C1150.184,1067.405,1134.221,1074,1117.149,1074z"/>
	</g>
	<g>
		<path fill="#637EA8" d="M123,132.5c-6.903,0-12.5-5.596-12.5-12.5V69c0-6.904,5.597-12.5,12.5-12.5s12.5,5.596,12.5,12.5v51
			C135.5,126.904,129.903,132.5,123,132.5z"/>
	</g>
	<g>
		<path fill="#637EA8" d="M1054.5,291H12.5C5.597,291,0,285.404,0,278.5S5.597,266,12.5,266h1042c6.903,0,12.5,5.596,12.5,12.5
			S1061.403,291,1054.5,291z"/>
	</g>
	<g>
		<path fill="#E8A15B" d="M104.5,214h-27c-6.903,0-12.5-5.596-12.5-12.5S70.597,189,77.5,189h27c6.903,0,12.5,5.596,12.5,12.5
			S111.403,214,104.5,214z"/>
	</g>
	<g>
		<path fill="#E8A15B" d="M185.5,214h-29c-6.903,0-12.5-5.596-12.5-12.5s5.597-12.5,12.5-12.5h29c6.903,0,12.5,5.596,12.5,12.5
			S192.403,214,185.5,214z"/>
	</g>
	<g>
		<path fill="#E8A15B" d="M263.5,214h-26c-6.903,0-12.5-5.596-12.5-12.5s5.597-12.5,12.5-12.5h26c6.903,0,12.5,5.596,12.5,12.5
			S270.403,214,263.5,214z"/>
	</g>
	<g>
		<path fill="#E8A15B" d="M723,793.5c-6.903,0-12.5-5.596-12.5-12.5V375c0-6.904,5.597-12.5,12.5-12.5s12.5,5.596,12.5,12.5v406
			C735.5,787.904,729.903,793.5,723,793.5z"/>
	</g>
	<g>
		<path fill="#E8A15B" d="M842,793.5c-6.903,0-12.5-5.596-12.5-12.5V375c0-6.904,5.597-12.5,12.5-12.5s12.5,5.596,12.5,12.5v406
			C854.5,787.904,848.903,793.5,842,793.5z"/>
	</g>
	<g>
		<path fill="#E8A15B" d="M941,793.5c-6.903,0-12.5-5.596-12.5-12.5V375c0-6.904,5.597-12.5,12.5-12.5s12.5,5.596,12.5,12.5v406
			C953.5,787.904,947.903,793.5,941,793.5z"/>
	</g>
	<g>
		<path fill="#637EA8" d="M754.5,569h-62c-6.903,0-12.5-5.596-12.5-12.5c0-6.904,5.597-12.5,12.5-12.5h62
			c6.903,0,12.5,5.596,12.5,12.5C767,563.404,761.403,569,754.5,569z"/>
	</g>
	<g>
		<path fill="#637EA8" d="M872.5,491h-62c-6.903,0-12.5-5.596-12.5-12.5s5.597-12.5,12.5-12.5h62c6.903,0,12.5,5.596,12.5,12.5
			S879.403,491,872.5,491z"/>
	</g>
	<g>
		<path fill="#637EA8" d="M530.5,1083h-430c-6.903,0-12.5-5.596-12.5-12.5s5.597-12.5,12.5-12.5h430c6.903,0,12.5,5.596,12.5,12.5
			S537.403,1083,530.5,1083z"/>
	</g>
	<g>
		<path fill="#637EA8" d="M531.5,978h-430c-6.903,0-12.5-5.596-12.5-12.5c0-6.904,5.597-12.5,12.5-12.5h430
			c6.903,0,12.5,5.596,12.5,12.5C544,972.404,538.403,978,531.5,978z"/>
	</g>
	<g>
		<path fill="#E8A15B" d="M242,1112.5c-6.903,0-12.5-5.596-12.5-12.5v-61c0-6.904,5.597-12.5,12.5-12.5s12.5,5.596,12.5,12.5v61
			C254.5,1106.904,248.903,1112.5,242,1112.5z"/>
	</g>
	<g>
		<path fill="#E8A15B" d="M366,1007.5c-6.903,0-12.5-5.596-12.5-12.5v-62c0-6.904,5.597-12.5,12.5-12.5s12.5,5.596,12.5,12.5v62
			C378.5,1001.904,372.903,1007.5,366,1007.5z"/>
	</g>
	<g>
		<path fill="#637EA8" d="M970.5,633h-61c-6.903,0-12.5-5.596-12.5-12.5c0-6.904,5.597-12.5,12.5-12.5h61
			c6.903,0,12.5,5.596,12.5,12.5C983,627.404,977.403,633,970.5,633z"/>
	</g>
	<g>
		<path fill="#637EA8" d="M602.452,596.459c-0.178,0-0.356-0.004-0.536-0.011c-6.897-0.291-12.253-6.119-11.962-13.016
			c0.132-3.124,0.196-5.939,0.196-8.609c0-111.132-90.413-201.545-201.545-201.545c-1.841,0-3.853,0.033-6.151,0.102
			c-6.952,0.203-12.662-5.22-12.868-12.12c-0.207-6.9,5.22-12.662,12.12-12.869c2.55-0.076,4.807-0.114,6.899-0.114
			c60.513,0,117.402,23.565,160.191,66.354s66.354,99.679,66.354,160.191c0,3.025-0.071,6.185-0.218,9.663
			C614.648,591.203,609.113,596.458,602.452,596.459z"/>
	</g>
	<g>
		<path fill="#E8A15B" d="M303.635,890.88c-60.513,0-117.403-23.565-160.191-66.354c-42.789-42.789-66.354-99.679-66.354-160.192
			c0-59.309,22.765-115.385,64.1-157.899c41.248-42.424,96.488-66.763,155.545-68.532c6.908-0.221,12.661,5.22,12.868,12.12
			c0.207,6.9-5.22,12.662-12.12,12.869c-109.565,3.282-195.393,91.767-195.393,201.443c0,111.132,90.413,201.545,201.545,201.545
			c108.361,0,196.804-84.747,201.349-192.934c0.29-6.896,6.114-12.256,13.014-11.964c6.897,0.29,12.254,6.116,11.965,13.014
			c-2.456,58.466-27.089,113.044-69.359,153.681C418.207,868.434,362.462,890.88,303.635,890.88z"/>
	</g>
	<g>
		<path fill="#637EA8" d="M296.239,450.29"/>
	</g>
	<g>
		<path fill="#637EA8" d="M603.5,598H382c-6.903,0-12.5-5.596-12.5-12.5V361c0-6.904,5.597-12.5,12.5-12.5s12.5,5.596,12.5,12.5v212
			h209c6.903,0,12.5,5.596,12.5,12.5C616,592.404,610.403,598,603.5,598z"/>
	</g>
	<g>
		<path fill="#E8A15B" d="M517.5,685H297c-6.903,0-12.5-5.596-12.5-12.5V450c0-6.904,5.597-12.5,12.5-12.5s12.5,5.596,12.5,12.5v210
			h208c6.903,0,12.5,5.596,12.5,12.5C530,679.404,524.403,685,517.5,685z"/>
	</g>
	<g>
		<path fill="#E8A15B" d="M154.408,830.191c-3.199,0-6.398-1.22-8.839-3.661c-4.882-4.882-4.882-12.796,0-17.678L290.911,663.51
			c4.881-4.881,12.797-4.881,17.678,0c4.882,4.882,4.882,12.796,0,17.678L163.247,826.53
			C160.807,828.971,157.607,830.191,154.408,830.191z"/>
	</g>
	<g>
		<path fill="#E8A15B" d="M967,1083H597c-6.903,0-12.5-5.597-12.5-12.5v-223c0-6.904,5.597-12.5,12.5-12.5h370
			c6.903,0,12.5,5.596,12.5,12.5v223C979.5,1077.403,973.903,1083,967,1083z M609.5,1058h345V860h-345V1058z"/>
	</g>
	<g>
		<path fill="#E8A15B" d="M596.64,1056.071c-3.428,0-6.843-1.402-9.312-4.156c-4.608-5.14-4.177-13.043,0.963-17.651l106.457-95.444
			c3.915-3.509,9.605-4.196,14.242-1.714l72.868,38.995l93.843-67.053c4.259-3.043,9.962-3.111,14.292-0.169l84.431,57.358
			c5.71,3.879,7.194,11.654,3.315,17.364c-3.879,5.71-11.651,7.196-17.364,3.315l-77.226-52.464l-93.074,66.504
			c-3.869,2.765-8.973,3.094-13.165,0.851l-71.994-38.527l-99.936,89.598C602.594,1055.018,599.611,1056.071,596.64,1056.071z"/>
	</g>
</g>
</svg>
