<?xml version="1.0" encoding="utf-8"?>
<!-- Generator: Adobe Illustrator 17.0.0, SVG Export Plug-In . SVG Version: 6.00 Build 0)  -->
<!DOCTYPE svg PUBLIC "-//W3C//DTD SVG 1.1//EN" "http://www.w3.org/Graphics/SVG/1.1/DTD/svg11.dtd">
<svg version="1.1" id="Слой_1" xmlns="http://www.w3.org/2000/svg" xmlns:xlink="http://www.w3.org/1999/xlink" x="0px" y="0px"
	 width="1290.5px" height="1181px" viewBox="0 0 1290.5 1181" enable-background="new 0 0 1290.5 1181" xml:space="preserve">
<g id="_x35__2_">
	<g id="_x31__1_">
		<g>
			<path fill="#637EA8" d="M1208.292,961H84.969c-22.317,0-43.471-8.945-59.563-25.187C9.346,919.602,0.5,898.309,0.5,875.855
				V82.645c0-22.417,8.922-43.342,25.122-58.921C41.532,8.425,62.608,0,84.969,0h1123.323c46.098,0,82.208,36.302,82.208,82.645
				v793.21C1290.5,922.804,1253.622,961,1208.292,961z M84.969,25C52.178,25,25.5,50.859,25.5,82.645v793.21
				C25.5,908.457,52.733,936,84.969,936h1123.323c31.545,0,57.208-26.981,57.208-60.145V82.645
				c0-32.863-24.594-57.645-57.208-57.645C1208.292,25,84.969,25,84.969,25z"/>
		</g>
		<g>
			<g>
				<path fill="#637EA8" d="M669.5,1181H519.113c-28.383,0-48.855-7.866-60.85-23.38c-15.029-19.439-10.315-43.424-9.403-47.367
					l31.42-163.856c1.3-6.781,7.847-11.223,14.631-9.922c6.779,1.3,11.222,7.85,9.922,14.63l-31.472,164.125
					c-0.051,0.266-0.11,0.531-0.179,0.793c-0.016,0.066-3.646,15.476,4.972,26.451c8.779,11.18,27.119,13.527,40.959,13.527H669.5
					c6.903,0,12.5,5.596,12.5,12.5S676.403,1181,669.5,1181z"/>
			</g>
			<g>
				<path fill="#637EA8" d="M669.5,1181H519.113c-28.383,0-48.855-7.866-60.85-23.38c-15.029-19.439-10.315-43.424-9.403-47.367
					l31.42-163.856c1.3-6.781,7.847-11.223,14.631-9.922c6.779,1.3,11.222,7.85,9.922,14.63l-31.472,164.125
					c-0.051,0.266-0.11,0.531-0.179,0.793c-0.016,0.066-3.646,15.476,4.972,26.451c8.779,11.18,27.119,13.527,40.959,13.527H669.5
					c6.903,0,12.5,5.596,12.5,12.5S676.403,1181,669.5,1181z"/>
			</g>
			<g>
				<path fill="#637EA8" d="M771.829,1181H622.5c-6.903,0-12.5-5.596-12.5-12.5s5.597-12.5,12.5-12.5h149.329
					c13.933,0,32.39-2.379,41.193-13.715c8.572-11.037,5.026-26.167,4.988-26.317c-0.064-0.251-0.12-0.504-0.169-0.758
					l-31.207-164.125c-1.289-6.782,3.163-13.325,9.945-14.615c6.784-1.289,13.326,3.163,14.615,9.945l31.159,163.873
					c0.882,3.884,5.516,27.887-9.588,47.332C820.718,1173.134,800.215,1181,771.829,1181z"/>
			</g>
		</g>
		<g>
			<path fill="#637EA8" d="M1277.5,790H12.5C5.597,790,0,784.404,0,777.5c0-6.904,5.597-12.5,12.5-12.5h1265
				c6.903,0,12.5,5.596,12.5,12.5C1290,784.404,1284.403,790,1277.5,790z"/>
		</g>
		<g>
			<path fill="#637EA8" d="M1193.5,111h-445c-6.903,0-12.5-5.596-12.5-12.5S741.597,86,748.5,86h445c6.903,0,12.5,5.596,12.5,12.5
				S1200.403,111,1193.5,111z"/>
		</g>
		<g>
			<path fill="#E8A15B" d="M709.5,873h-129c-6.903,0-12.5-5.596-12.5-12.5c0-6.904,5.597-12.5,12.5-12.5h129
				c6.903,0,12.5,5.596,12.5,12.5C722,867.404,716.403,873,709.5,873z"/>
		</g>
		<g>
			<path fill="#637EA8" d="M748,440.5c-6.903,0-12.5-5.596-12.5-12.5V99c0-6.904,5.597-12.5,12.5-12.5s12.5,5.596,12.5,12.5v329
				C760.5,434.904,754.903,440.5,748,440.5z"/>
		</g>
		<g>
			<path fill="#637EA8" d="M1194,440.5c-6.903,0-12.5-5.596-12.5-12.5V99c0-6.904,5.597-12.5,12.5-12.5s12.5,5.596,12.5,12.5v329
				C1206.5,434.904,1200.903,440.5,1194,440.5z"/>
		</g>
	</g>
	<g>
		<path fill="#637EA8" d="M1194,440.5c-6.903,0-12.5-5.596-12.5-12.5V99c0-6.904,5.597-12.5,12.5-12.5s12.5,5.596,12.5,12.5v329
			C1206.5,434.904,1200.903,440.5,1194,440.5z"/>
	</g>
	<g>
		<path fill="#637EA8" d="M748,440.5c-6.903,0-12.5-5.596-12.5-12.5V99c0-6.904,5.597-12.5,12.5-12.5s12.5,5.596,12.5,12.5v329
			C760.5,434.904,754.903,440.5,748,440.5z"/>
	</g>
	<g>
		<path fill="#637EA8" d="M1193.5,695h-445c-6.903,0-12.5-5.596-12.5-12.5c0-6.904,5.597-12.5,12.5-12.5h445
			c6.903,0,12.5,5.596,12.5,12.5C1206,689.404,1200.403,695,1193.5,695z"/>
	</g>
	<g>
		<path fill="#637EA8" d="M748,694.5c-6.903,0-12.5-5.596-12.5-12.5V353c0-6.904,5.597-12.5,12.5-12.5s12.5,5.596,12.5,12.5v329
			C760.5,688.904,754.903,694.5,748,694.5z"/>
	</g>
	<g>
		<path fill="#637EA8" d="M1194,693.5c-6.903,0-12.5-5.596-12.5-12.5V352c0-6.904,5.597-12.5,12.5-12.5s12.5,5.596,12.5,12.5v329
			C1206.5,687.904,1200.903,693.5,1194,693.5z"/>
	</g>
	<g>
		<path fill="#E8A15B" d="M979.5,219h-146c-6.903,0-12.5-5.596-12.5-12.5s5.597-12.5,12.5-12.5h146c6.903,0,12.5,5.596,12.5,12.5
			S986.403,219,979.5,219z"/>
	</g>
	<g>
		<path fill="#E8A15B" d="M1105.5,306h-272c-6.903,0-12.5-5.596-12.5-12.5s5.597-12.5,12.5-12.5h272c6.903,0,12.5,5.596,12.5,12.5
			S1112.403,306,1105.5,306z"/>
	</g>
	<g>
		<path fill="#E8A15B" d="M979.5,393h-146c-6.903,0-12.5-5.596-12.5-12.5s5.597-12.5,12.5-12.5h146c6.903,0,12.5,5.596,12.5,12.5
			S986.403,393,979.5,393z"/>
	</g>
	<g>
		<path fill="#E8A15B" d="M1105.5,480h-272c-6.903,0-12.5-5.596-12.5-12.5s5.597-12.5,12.5-12.5h272c6.903,0,12.5,5.596,12.5,12.5
			S1112.403,480,1105.5,480z"/>
	</g>
	<g>
		<path fill="#E8A15B" d="M1105.5,567h-272c-6.903,0-12.5-5.596-12.5-12.5c0-6.904,5.597-12.5,12.5-12.5h272
			c6.903,0,12.5,5.596,12.5,12.5C1118,561.404,1112.403,567,1105.5,567z"/>
	</g>
	<g>
		<path fill="#637EA8" d="M677.271,379c-0.177,0-0.355-0.004-0.534-0.011c-6.897-0.29-12.254-6.117-11.964-13.014
			c0.153-3.636,0.228-6.899,0.228-9.975c0-128.752-104.748-233.5-233.5-233.5c-2.137,0-4.468,0.039-7.125,0.118
			c-0.128,0.004-0.256,0.006-0.382,0.006c-6.73,0-12.284-5.353-12.487-12.126c-0.207-6.9,5.219-12.662,12.119-12.869
			c2.91-0.087,5.486-0.13,7.875-0.13c69.048,0,133.963,26.889,182.787,75.713S690,286.952,690,356c0,3.429-0.082,7.036-0.249,11.025
			C689.468,373.744,683.933,379,677.271,379z"/>
	</g>
	<g>
		<path fill="#E8A15B" d="M346.5,700.5c-69.048,0-133.963-26.889-182.787-75.713C114.889,575.963,88,511.048,88,442
			c0-67.675,25.976-131.661,73.142-180.171c47.066-48.409,110.099-76.18,177.484-78.199c6.896-0.214,12.661,5.22,12.868,12.12
			c0.207,6.9-5.22,12.662-12.12,12.869C212.436,212.421,113,314.935,113,442c0,128.752,104.748,233.5,233.5,233.5
			c125.541,0,228.007-98.184,233.272-223.525c0.29-6.897,6.117-12.252,13.014-11.964c6.897,0.29,12.254,6.116,11.965,13.014
			c-2.803,66.712-30.909,128.989-79.143,175.358C477.233,674.888,413.625,700.5,346.5,700.5z"/>
	</g>
	<g>
		<path fill="#E8A15B" d="M338,196"/>
	</g>
	<g>
		<path fill="#637EA8" d="M678.5,380H424c-6.903,0-12.5-5.596-12.5-12.5V110c0-6.904,5.597-12.5,12.5-12.5s12.5,5.596,12.5,12.5v245
			h242c6.903,0,12.5,5.596,12.5,12.5S685.403,380,678.5,380z"/>
	</g>
	<g>
		<path fill="#E8A15B" d="M591.5,464H338c-6.903,0-12.5-5.596-12.5-12.5V196c0-6.904,5.597-12.5,12.5-12.5s12.5,5.596,12.5,12.5v243
			h241c6.903,0,12.5,5.596,12.5,12.5S598.403,464,591.5,464z"/>
	</g>
</g>
</svg>
