<svg width="60" height="60" viewBox="0 0 60 60" fill="none" xmlns="http://www.w3.org/2000/svg">
    <path d="M30.998 17.0999V10.8999C30.998 10.3999 30.598 9.8999 29.998 9.8999C29.398 9.8999 28.998 10.2999 28.998 10.8999V17.0999C29.298 17.0999 29.598 17.0999 29.998 17.0999C30.398 17.0999 30.598 17.0999 30.998 17.0999Z" fill="#E8A15B"/>
    <path d="M28.998 42.8999V49.0999C28.998 49.5999 29.398 50.0999 29.998 50.0999C30.598 50.0999 30.998 49.6999 30.998 49.0999V42.8999C30.698 42.8999 30.398 42.8999 29.998 42.8999C29.598 42.8999 29.398 42.8999 28.998 42.8999Z" fill="#E8A15B"/>
    <path d="M49.0984 29H42.8984C42.8984 29.3 42.8984 29.6 42.8984 30C42.8984 30.4 42.8984 30.6 42.8984 31H49.0984C49.5984 31 50.0984 30.6 50.0984 30C50.0984 29.4 49.5984 29 49.0984 29Z" fill="#E8A15B"/>
    <path d="M17.0984 29H10.8984C10.3984 29 9.89844 29.4 9.89844 30C9.89844 30.6 10.2984 31 10.8984 31H17.0984C17.0984 30.7 17.0984 30.4 17.0984 30C17.0984 29.6 17.0984 29.4 17.0984 29Z" fill="#E8A15B"/>
    <path d="M42.8984 29C42.3984 22.6 37.2984 17.5 30.8984 17C30.5984 17 30.2984 17 29.8984 17C29.4984 17 29.2984 17 28.8984 17C22.4984 17.5 17.3984 22.6 16.8984 29C16.8984 29.3 16.8984 29.6 16.8984 30C16.8984 30.4 16.8984 30.6 16.8984 31C17.3984 37.4 22.4984 42.5 28.8984 43C29.1984 43 29.4984 43 29.8984 43C30.2984 43 30.4984 43 30.8984 43C37.2984 42.5 42.3984 37.4 42.8984 31C42.8984 30.7 42.8984 30.4 42.8984 30C42.8984 29.6 42.8984 29.4 42.8984 29ZM40.9984 31C40.4984 36.3 36.2984 40.5 30.9984 41C30.6984 41 30.3984 41 29.9984 41C29.5984 41 29.3984 41 28.9984 41C23.6984 40.5 19.4984 36.3 18.9984 31C18.9984 30.7 18.9984 30.4 18.9984 30C18.9984 29.6 18.9984 29.4 18.9984 29C19.4984 23.7 23.6984 19.4 29.0984 18.9C29.3984 18.9 29.6984 18.9 30.0984 18.9C30.4984 18.9 30.6984 18.9 31.0984 18.9C36.3984 19.4 40.6984 23.6 41.1984 29C41.1984 29.3 41.1984 29.6 41.1984 30C41.1984 30.4 40.9984 30.6 40.9984 31Z" fill="#E8A15B"/>
    <path d="M56.2984 56.5H40.3984C39.8984 56.5 39.3984 56.9 39.3984 57.5C39.3984 58 39.7984 58.5 40.3984 58.5H57.1984C57.6984 58.5 58.1984 58.1 58.1984 57.5V40.5C58.1984 40 57.7984 39.5 57.1984 39.5C56.6984 39.5 56.1984 39.9 56.1984 40.5V56.5H56.2984Z" fill="#637EA8"/>
    <path d="M56.2984 3.5V19.8C56.2984 20.3 56.6984 20.8 57.2984 20.8C57.7984 20.8 58.2984 20.4 58.2984 19.8V2.5C58.2984 2 57.8984 1.5 57.2984 1.5H40.3984C39.8984 1.5 39.3984 1.9 39.3984 2.5C39.3984 3 39.7984 3.5 40.3984 3.5H56.2984Z" fill="#637EA8"/>
    <path d="M3.69922 56.5V40.5C3.69922 40 3.29922 39.5 2.69922 39.5C2.19922 39.5 1.69922 39.9 1.69922 40.5V57.5C1.69922 58 2.09922 58.5 2.69922 58.5H19.4992C20.0992 58.5 20.4992 58.1 20.4992 57.5C20.4992 57 20.0992 56.6 19.5992 56.6H3.69922V56.5Z" fill="#637EA8"/>
    <path d="M3.69883 3.5H19.5988C20.0988 3.5 20.5988 3.1 20.5988 2.5C20.5988 2 20.1988 1.5 19.5988 1.5H2.79883C2.29883 1.5 1.79883 1.9 1.79883 2.5V19.7C1.79883 20.2 2.19883 20.7 2.79883 20.7C3.29883 20.7 3.79883 20.3 3.79883 19.7V3.5H3.69883Z" fill="#637EA8"/>
</svg>
