<svg width="60" height="60" viewBox="0 0 60 60" fill="none" xmlns="http://www.w3.org/2000/svg">
    <path d="M7 45C6.5 45 6 44.6 6 44V35C6 34.5 6.4 34 7 34C7.6 34 8 34.4 8 35V44C8 44.5 7.5 45 7 45Z" fill="#637EA8"/>
    <path d="M59 49H30C29.5 49 29 48.6 29 48V30C29 29.5 29.4 29 30 29H59C59.5 29 60 29.4 60 30V48C60 48.5 59.5 49 59 49ZM31 47H58V31H31V47Z" fill="#3F496A"/>
    <path d="M30 49H1C0.5 49 0 48.6 0 48V30C0 29.5 0.4 29 1 29H30C30.5 29 31 29.4 31 30V48C31 48.5 30.5 49 30 49ZM2 47H29V31H2V47Z" fill="#637EA8"/>
    <path d="M45 31H16C15.5 31 15 30.6 15 30V12C15 11.5 15.4 11 16 11H45C45.5 11 46 11.4 46 12V30C46 30.5 45.5 31 45 31ZM17 29H44V13H17V29Z" fill="#E8A15B"/>
    <path d="M22 26C21.5 26 21 25.6 21 25V16C21 15.5 21.4 15 22 15C22.6 15 23 15.4 23 16V25C23 25.5 22.5 26 22 26Z" fill="#E8A15B"/>
    <path d="M27.6992 26C27.1992 26 26.6992 25.6 26.6992 25V16C26.6992 15.5 27.0992 15 27.6992 15C28.2992 15 28.6992 15.4 28.6992 16V25C28.5992 25.5 28.1992 26 27.6992 26Z" fill="#E8A15B"/>
    <path d="M33.3008 26C32.8008 26 32.3008 25.6 32.3008 25V16C32.3008 15.5 32.7008 15 33.3008 15C33.9008 15 34.3008 15.4 34.3008 16V25C34.3008 25.5 33.9008 26 33.3008 26Z" fill="#E8A15B"/>
    <path d="M39 26C38.5 26 38 25.6 38 25V16C38 15.5 38.4 15 39 15C39.6 15 40 15.4 40 16V25C40 25.5 39.5 26 39 26Z" fill="#E8A15B"/>
    <path d="M12.6992 45C12.1992 45 11.6992 44.6 11.6992 44V35C11.6992 34.5 12.0992 34 12.6992 34C13.2992 34 13.6992 34.4 13.6992 35V44C13.5992 44.5 13.1992 45 12.6992 45Z" fill="#637EA8"/>
    <path d="M18.3008 45C17.8008 45 17.3008 44.6 17.3008 44V35C17.3008 34.5 17.7008 34 18.3008 34C18.9008 34 19.3008 34.4 19.3008 35V44C19.3008 44.5 18.9008 45 18.3008 45Z" fill="#637EA8"/>
    <path d="M24 45C23.5 45 23 44.6 23 44V35C23 34.5 23.4 34 24 34C24.6 34 25 34.4 25 35V44C25 44.5 24.5 45 24 45Z" fill="#637EA8"/>
    <path d="M37 45C36.5 45 36 44.6 36 44V35C36 34.5 36.4 34 37 34C37.6 34 38 34.4 38 35V44C38 44.5 37.5 45 37 45Z" fill="#3F496A"/>
    <path d="M42.6992 45C42.1992 45 41.6992 44.6 41.6992 44V35C41.6992 34.5 42.0992 34 42.6992 34C43.2992 34 43.6992 34.4 43.6992 35V44C43.5992 44.5 43.1992 45 42.6992 45Z" fill="#3F496A"/>
    <path d="M48.3008 45C47.8008 45 47.3008 44.6 47.3008 44V35C47.3008 34.5 47.7008 34 48.3008 34C48.9008 34 49.3008 34.4 49.3008 35V44C49.3008 44.5 48.9008 45 48.3008 45Z" fill="#3F496A"/>
    <path d="M54 45C53.5 45 53 44.6 53 44V35C53 34.5 53.4 34 54 34C54.6 34 55 34.4 55 35V44C55 44.5 54.5 45 54 45Z" fill="#3F496A"/>
</svg>
