<svg width="60" height="60" viewBox="0 0 60 60" fill="none" xmlns="http://www.w3.org/2000/svg">
    <path d="M22.4996 41.4L12.5996 51.3C13.0996 51.7 13.5996 52.1 14.0996 52.5L23.0996 43.5L36.3996 56.8C37.0996 56.6 37.7996 56.4 38.4996 56.2L23.7996 41.4C23.3996 41.1 22.7996 41.1 22.4996 41.4Z" fill="#637EA8"/>
    <path d="M16.0004 42.0001C16.0004 41.7001 15.9004 41.5001 15.7004 41.3001L2.50039 28.1001C2.50039 28.7001 2.40039 29.3001 2.40039 30.0001C2.40039 30.3001 2.40039 30.5001 2.40039 30.8001L13.7004 42.0001L8.50039 47.2001C8.90039 47.7001 9.30039 48.2001 9.70039 48.6001L15.7004 42.6001C15.9004 42.5001 16.0004 42.2001 16.0004 42.0001Z" fill="#637EA8"/>
    <path d="M57.1992 25.4002C57.0992 24.6002 56.8992 23.9002 56.6992 23.2002L49.4992 30.4002C49.2992 30.6002 49.1992 30.8002 49.1992 31.1002C49.1992 31.4002 49.2992 31.6002 49.4992 31.8002L56.1992 38.5002C56.3992 37.8002 56.5992 37.1002 56.7992 36.4002L51.4992 31.1002L57.1992 25.4002Z" fill="#637EA8"/>
    <path d="M37.9992 27.0002L27.4992 37.5002C27.0992 37.9002 27.0992 38.5002 27.4992 38.8002L42.9992 54.3002C43.5992 54.0002 44.0992 53.7002 44.6992 53.3002L29.4992 38.1002L38.6992 28.9002L53.6992 44.0002C53.9992 43.4002 54.3992 42.9002 54.5992 42.3002L39.2992 27.0002C38.8992 26.6002 38.2992 26.6002 37.9992 27.0002Z" fill="#3F496A"/>
    <path d="M21.5 36.5001C21.7 36.5001 22 36.4001 22.2 36.2001L29.2 29.2001C29.6 28.8001 29.6 28.2001 29.2 27.9001L10.3 8.90015C9.9 9.40015 9.5 9.90015 9.1 10.4001L27.2 28.5001L21.5 34.2001L5.1 17.7001C4.9 18.4001 4.6 19.1001 4.5 19.7001L20.9 36.1001C21 36.4001 21.3 36.5001 21.5 36.5001Z" fill="#3F496A"/>
    <path d="M29.1996 18.6001C29.3996 18.8001 29.5996 18.9001 29.8996 18.9001C30.1996 18.9001 30.3996 18.8001 30.5996 18.6001L36.7996 12.4001C37.1996 12.0001 37.1996 11.4001 36.7996 11.1001C36.3996 10.7001 35.7996 10.7001 35.4996 11.1001L29.9996 16.6001L18.3996 5.1001C17.7996 5.4001 17.1996 5.7001 16.5996 6.0001L29.1996 18.6001Z" fill="#637EA8"/>
    <path d="M58.7996 23.8001C58.5996 23.1001 58.4996 22.4001 58.2996 21.7001C58.1996 21.3001 58.0996 20.9001 57.8996 20.5001C57.6996 20.0001 56.9996 19.7001 56.4996 20.0001C56.0996 20.2001 55.8996 20.7001 55.9996 21.2001C56.1996 21.9001 56.3996 22.6001 56.5996 23.2001C56.7996 23.9001 56.8996 24.7001 57.0996 25.4001C57.2996 26.9001 57.4996 28.4001 57.4996 30.0001C57.4996 32.2001 57.1996 34.4001 56.6996 36.4001C56.4996 37.1001 56.2996 37.8001 56.0996 38.5001C55.6996 39.8001 55.1996 41.1001 54.5996 42.3001C54.2996 42.9001 53.9996 43.5001 53.6996 44.0001C51.4996 47.8001 48.3996 50.9001 44.6996 53.3001C44.0996 53.6001 43.5996 54.0001 42.9996 54.3001C41.5996 55.0001 40.0996 55.7001 38.5996 56.2001C37.8996 56.4001 37.1996 56.6001 36.4996 56.8001C34.3996 57.3001 32.2996 57.6001 29.9996 57.6001C24.0996 57.6001 18.5996 55.7001 14.0996 52.5001C13.5996 52.1001 13.0996 51.7001 12.5996 51.3001C11.5996 50.5001 10.5996 49.6001 9.69961 48.6001C9.29961 48.1001 8.89961 47.6001 8.49961 47.2001C4.89961 42.7001 2.69961 37.0001 2.49961 30.8001C2.49961 30.5001 2.49961 30.3001 2.49961 30.0001C2.49961 29.4001 2.49961 28.8001 2.59961 28.1001C2.69961 26.2001 2.99961 24.4001 3.49961 22.7001C3.69961 22.0001 3.89961 21.3001 4.09961 20.7001C5.09961 18.0001 6.39961 15.6001 8.09961 13.4001C8.49961 12.9001 8.89961 12.4001 9.29961 11.9001C10.0996 11.0001 10.9996 10.1001 11.8996 9.3001C12.3996 8.9001 12.8996 8.5001 13.3996 8.1001C14.3996 7.3001 15.4996 6.6001 16.5996 6.0001C17.1996 5.7001 17.7996 5.4001 18.3996 5.1001C21.8996 3.4001 25.8996 2.5001 29.9996 2.5001C32.9996 2.5001 35.7996 3.0001 38.4996 3.8001C38.9996 4.0001 39.4996 3.7001 39.6996 3.3001C39.8996 2.8001 39.5996 2.2001 39.0996 2.0001C36.1996 1.1001 33.1996 0.600098 29.9996 0.600098C25.2996 0.600098 20.8996 1.7001 16.9996 3.7001C16.3996 4.0001 15.7996 4.3001 15.2996 4.6001C14.0996 5.2001 12.9996 5.9001 11.9996 6.7001C11.4996 7.1001 10.9996 7.5001 10.4996 7.9001C9.59961 8.7001 8.69961 9.6001 7.89961 10.5001C7.49961 11.0001 7.09961 11.5001 6.69961 12.0001C4.99961 14.2001 3.59961 16.6001 2.59961 19.2001C2.29961 19.9001 2.09961 20.5001 1.89961 21.2001C1.39961 22.9001 0.999609 24.6001 0.799609 26.4001C0.699609 27.2001 0.599609 28.0001 0.599609 28.9001C0.599609 29.3001 0.599609 29.6001 0.599609 30.0001C0.599609 37.0001 3.09961 43.5001 7.19961 48.5001C7.59961 49.0001 7.99961 49.5001 8.39961 49.9001C9.29961 50.9001 10.1996 51.8001 11.2996 52.6001C11.7996 53.0001 12.2996 53.4001 12.7996 53.8001C17.6996 57.3001 23.5996 59.4001 29.9996 59.4001C31.8996 59.4001 33.7996 59.2001 35.5996 58.9001C36.7996 58.7001 37.9996 58.3001 39.1996 58.0001C40.9996 57.4001 42.6996 56.6001 44.3996 55.7001C44.9996 55.4001 45.4996 55.0001 46.0996 54.7001C49.7996 52.3001 52.8996 49.2001 55.0996 45.4001C55.3996 44.8001 55.7996 44.3001 56.0996 43.7001C56.6996 42.5001 57.2996 41.3001 57.6996 40.0001C57.8996 39.3001 58.1996 38.7001 58.2996 38.0001C58.9996 35.5001 59.3996 32.8001 59.3996 30.0001C59.4996 27.9001 59.1996 25.8001 58.7996 23.8001Z" fill="#3F496A"/>
    <path d="M47.9992 13.8002C45.8992 13.8002 44.1992 12.1002 44.1992 10.0002C44.1992 7.9002 45.8992 6.2002 47.9992 6.2002C50.0992 6.2002 51.7992 7.9002 51.7992 10.0002C51.7992 12.1002 50.0992 13.8002 47.9992 13.8002ZM47.9992 8.2002C46.9992 8.2002 46.1992 9.0002 46.1992 10.0002C46.1992 11.0002 46.9992 11.8002 47.9992 11.8002C48.9992 11.8002 49.7992 11.0002 49.7992 10.0002C49.7992 9.0002 48.9992 8.2002 47.9992 8.2002Z" fill="#E8A15B"/>
    <path d="M47.9992 25C47.6992 25 47.3992 24.9 47.2992 24.6C46.4992 23.6 39.6992 14.7 39.6992 10.4C39.5992 5.8 43.3992 2 47.9992 2C52.5992 2 56.3992 5.8 56.3992 10.4C56.3992 14.7 49.5992 23.6 48.7992 24.6C48.5992 24.8 48.2992 25 47.9992 25ZM47.9992 4C44.3992 4 41.4992 6.9 41.4992 10.5C41.4992 13.3 45.5992 19.4 47.9992 22.5C50.2992 19.4 54.4992 13.2 54.4992 10.5C54.4992 6.8 51.5992 4 47.9992 4Z" fill="#E8A15B"/>
</svg>
