<?xml version="1.0" encoding="UTF-8"?>
<!DOCTYPE svg PUBLIC "-//W3C//DTD SVG 1.1//EN" "http://www.w3.org/Graphics/SVG/1.1/DTD/svg11.dtd">
<!-- Creator: CorelDRAW X7 -->
<svg xmlns="http://www.w3.org/2000/svg" xml:space="preserve" width="210mm" height="297mm" version="1.1" style="shape-rendering:geometricPrecision; text-rendering:geometricPrecision; image-rendering:optimizeQuality; fill-rule:evenodd; clip-rule:evenodd"
viewBox="0 0 21000 29700"
 xmlns:xlink="http://www.w3.org/1999/xlink"
 baseProfile="tiny">
 <defs>
  <style type="text/css">
   <![CDATA[
    .str0 {stroke:#20305B;stroke-width:110.82}
    .str2 {stroke:#20305B;stroke-width:42.05}
    .str1 {stroke:#20305B;stroke-width:42.05;stroke-linejoin:round}
    .fil1 {fill:none}
    .fil3 {fill:#17172F}
    .fil2 {fill:#20305B}
    .fil0 {fill:white}
    .fil4 {fill:#20305B;fill-rule:nonzero}
   ]]>
  </style>
 </defs>
 <g id="Слой_x0020_1">
  <metadata id="CorelCorpID_0Corel-Layer"/>
  <g id="Слой_1">
  </g>
  <rect id="rect1297_1_" class="fil0" x="8291" y="21196" width="4389" height="4359"/>
  <polygon id="path1293_1_" class="fil1 str0" points="8291,23383 10478,21196 12665,23383 10478,25570 "/>
  <rect id="rect3571_1_" class="fil1 str1" x="8232" y="21137" width="4492" height="4477"/>
  <rect id="rect3579_6_" class="fil0" x="14142" y="21196" width="4389" height="4359"/>
  <rect id="rect4340_8_" class="fil2 str2" x="14083" y="21137" width="4492" height="4477"/>
  <rect id="rect1299_5_" class="fil0" x="15236" y="22275" width="2187" height="2187"/>
  <rect id="rect3579_5_" class="fil0" x="2602" y="21196" width="4389" height="4359"/>
  <rect id="rect1299_4_" class="fil2" x="3710" y="22275" width="2187" height="2187"/>
  <rect id="rect4340_7_" class="fil1 str1" x="2558" y="21137" width="4492" height="4477"/>
  <path class="fil3" d="M14364 7240c-15,0 -30,-14 -30,-29l-2999 -6679c0,-15 0,-30 0,-44 15,-15 29,-15 44,-15l1847 547c15,0 30,14 30,29l1123 6132c0,0 0,15 0,15 15,30 0,44 -15,44 0,0 0,0 0,0zm-2896 -6664l2807 6295 -1064 -5778 -1743 -517z"/>
  <g id="_2295067164800">
   <line class="fil1" x1="14364" y1="10018" x2="14364" y2= "7240" />
   <path class="fil2" d="M14364 10033c-15,0 -15,-15 -15,-15l0 -2778c0,-14 15,-14 15,-14 15,0 15,14 15,14l0 2778c0,15 -15,15 -15,15z"/>
  </g>
  <g id="_2295067164736">
   <path class="fil2" d="M4966 14200l4655 0c15,0 74,0 88,0l0 -2143 -1462 0 4211 -9146 1906 4270 -1138 -6132 -1847 -532 0 15 -44 -15 -3665 6620 0 -44 0 0 0 2009 -1300 2941 -1404 0c0,14 0,2127 0,2157zm1700 -2143l1004 -2275 0 2275 -1004 0zm1522 -517l0 -4152 3457 -6280 665 1478 -4122 8954z"/>
   <polygon class="fil2" points="8675,14185 6725,14185 4833,17613 4833,18470 5882,18470 5882,17584 9429,17584 9429,18470 10611,18470 10611,17687 8705,14200 "/>
  </g>
  <path class="fil2" d="M14379 15958c295,-15 1921,-1359 1921,-2985 0,-1625 -1641,-2970 -1921,-2970 0,0 -15,0 -15,0 0,0 -15,0 -15,0 -295,0 -1935,1345 -1935,2985 0,1611 1595,2941 1920,2985 -280,0 -443,177 -620,369 -207,222 -562,695 -562,1404 0,30 0,59 0,89l0 88 30 -59c177,-266 620,-561 1167,-561l15 0c532,0 975,295 1153,561l29 59 0 -88c0,-30 0,-59 0,-74 0,-709 -355,-1182 -561,-1404 -163,-221 -355,-384 -606,-399z"/>
  <g id="_2295067161600">
   <g>
    <path class="fil2" d="M2765 27797c103,45 251,104 399,104 162,0 251,-74 251,-178 0,-103 -74,-162 -266,-221 -266,-89 -443,-237 -443,-473 0,-266 221,-488 605,-488 178,0 311,45 414,74l-74 296c-59,-30 -177,-74 -340,-74 -162,0 -236,74 -236,148 0,103 89,147 296,221 280,104 413,251 413,473 0,266 -207,488 -650,488 -177,0 -355,-45 -458,-104l89 -266z"/>
    <polygon class="fil2" points="4981,27502 4390,27502 4390,27886 5040,27886 5040,28181 4021,28181 4021,26586 5011,26586 5011,26881 4390,26881 4390,27206 4981,27206 "/>
    <path class="fil2" d="M5661 27753l-118 414 -370 0 488 -1596 473 0 487 1596 -384 0 -118 -414 -458 0zm414 -266l-104 -340c-29,-89 -59,-207 -74,-310l0 0c-29,88 -44,221 -74,310l-88 340 340 0z"/>
   </g>
   <g>
    <polygon class="fil2" points="7316,26571 8291,26571 8291,26866 7685,26866 7685,27236 8261,27236 8261,27531 7685,27531 7685,28167 7316,28167 "/>
    <polygon class="fil2" points="8926,26571 8926,28167 8572,28167 8572,26571 "/>
    <path class="fil2" d="M9251 27797c104,45 252,104 399,104 163,0 252,-74 252,-178 0,-103 -74,-162 -266,-221 -266,-89 -444,-237 -444,-473 0,-266 222,-488 606,-488 177,0 310,45 414,74l-74 296c-59,-30 -177,-74 -340,-74 -162,0 -236,74 -236,148 0,103 88,147 295,221 281,104 414,251 414,473 0,266 -207,488 -650,488 -177,0 -355,-45 -458,-104l88 -266z"/>
    <polygon class="fil2" points="10877,26571 10877,27177 11468,27177 11468,26571 11822,26571 11822,28167 11468,28167 11468,27502 10877,27502 10877,28167 10522,28167 10522,26571 "/>
   </g>
   <g>
    <path class="fil2" d="M12694 26600c118,-14 266,-29 488,-29 222,0 384,44 487,133 104,74 178,207 178,369 0,163 -59,296 -148,384 -118,119 -310,163 -517,163 -44,0 -89,0 -118,0l0 576 -355 0 0 -1596 -15 0zm355 724c29,0 74,15 118,15 192,0 310,-103 310,-266 0,-148 -103,-236 -280,-236 -74,0 -119,0 -148,15l0 472z"/>
    <path class="fil2" d="M15531 27354c0,517 -310,842 -783,842 -473,0 -753,-354 -753,-812 0,-473 310,-843 783,-843 487,0 753,370 753,813zm-1152 30c0,310 148,531 384,531 236,0 384,-236 384,-546 0,-281 -133,-532 -384,-532 -236,0 -384,236 -384,547z"/>
    <path class="fil2" d="M15768 26600c118,-14 295,-29 473,-29 236,0 398,29 517,118 88,74 147,192 147,340 0,207 -147,340 -280,399l0 0c118,44 177,148 207,295 44,178 103,385 133,444l-370 0c-29,-45 -59,-178 -118,-370 -44,-192 -118,-251 -251,-251l-104 0 0 621 -354 0 0 -1567zm354 680l148 0c177,0 281,-89 281,-236 0,-148 -104,-222 -266,-222 -89,0 -133,0 -163,15l0 443z"/>
    <polygon class="fil2" points="17482,26881 17053,26881 17053,26586 18280,26586 18280,26881 17851,26881 17851,28167 17497,28167 17497,26881 "/>
   </g>
  </g>
  <path class="fil4" d="M2875 20431l191 0 0 -889 302 0 0 -160 -792 0 0 160 299 0 0 889zm2492 -621l-396 0 0 -271 419 0 0 -157 -610 0 0 1049 633 0 0 -157 -442 0 0 -309 396 0 0 -155zm1504 621l189 0 0 -431 97 0c109,3 157,46 188,183 28,131 55,217 70,248l196 0c-20,-41 -48,-162 -82,-293 -25,-101 -70,-174 -146,-202l0 -5c99,-34 191,-126 191,-261 0,-91 -33,-164 -90,-212 -72,-59 -173,-84 -324,-84 -110,0 -216,9 -289,23l0 1034zm189 -903c19,-5 58,-9 119,-9 124,0 204,54 204,168 0,104 -80,173 -209,173l-114 0 0 -332zm2891 903l187 0 -61 -1049 -249 0 -145 420c-40,123 -76,252 -104,366l-5 0c-26,-117 -59,-241 -96,-364l-137 -422 -252 0 -70 1049 179 0 23 -422c8,-143 14,-310 19,-447l3 0c28,131 65,274 106,408l140 448 146 0 154 -454c47,-132 91,-274 125,-402l4 0c-1,142 7,305 13,441l20 428zm1670 -1049l0 1049 192 0 0 -1049 -192 0zm1876 1049l0 -375c0,-173 -3,-312 -11,-447l7 -2c51,119 119,246 186,362l274 462 200 0 0 -1049 -178 0 0 366c0,160 3,295 17,435l-3 0c-48,-113 -110,-235 -179,-351l-271 -450 -219 0 0 1049 177 0zm2707 -297l95 297 207 0 -341 -1049 -244 0 -336 1049 197 0 91 -297 331 0zm-300 -145l81 -259c17,-62 34,-135 50,-196l3 0c15,61 32,133 53,196l82 259 -269 0zm2038 442l622 0 0 -160 -431 0 0 -889 -191 0 0 1049z"/>
  <polygon class="fil2" points="8291,23376 10485,21196 12665,23383 10478,25570 "/>
 </g>
</svg>
