<svg width="60" height="60" viewBox="0 0 60 60" fill="none" xmlns="http://www.w3.org/2000/svg">
    <path d="M10.201 35.2C9.90095 35.2 9.60095 35.1 9.50095 34.8C9.20095 34.4 9.20095 33.8 9.60095 33.5L23.401 22.5C23.801 22.2 24.401 22.2 24.701 22.6C25.001 23 25.001 23.6 24.601 23.9L10.801 35C10.601 35.1 10.401 35.2 10.201 35.2Z" fill="#E8A15B"/>
    <path d="M50.0007 35.2001C49.8007 35.2001 49.6007 35.1001 49.4007 35.0001L35.6007 24.0001C35.2007 23.7001 35.1007 23.1001 35.5007 22.7001C35.8007 22.3001 36.4007 22.2001 36.8007 22.6001L50.6007 33.6001C51.0007 33.9001 51.1007 34.5001 50.7007 34.9001C50.6007 35.0001 50.3007 35.2001 50.0007 35.2001Z" fill="#E8A15B"/>
    <path d="M29.0018 14.4001C26.5018 14.9001 24.6018 17.3001 25.1018 20.1001C25.4018 22.1001 27.0018 23.7001 28.9018 24.1001C32.1018 24.8001 34.9018 22.3001 34.9018 19.3001C34.9018 19.0001 34.9018 18.7001 34.8018 18.4001C34.7018 17.8001 34.1018 17.5001 33.5018 17.7001C33.1018 17.9001 32.8018 18.3001 32.9018 18.7001C33.0018 19.2001 33.0018 19.8001 32.7018 20.5001C32.4018 21.3001 31.6018 22.0001 30.8018 22.3001C28.7018 22.9001 26.9018 21.3001 26.9018 19.4001C26.9018 18.1001 27.8018 16.9001 29.0018 16.5001C29.3018 16.4001 29.6018 16.3001 30.0018 16.3001C30.5018 16.3001 30.9018 15.9001 30.9018 15.4001V14.6001V12.6001H29.0018V14.4001Z" fill="#3F496A"/>
    <path d="M40.6004 0.800049H19.4004C18.9004 0.800049 18.4004 1.20005 18.4004 1.80005V5.50005C18.4004 5.70005 18.5004 6.00005 18.7004 6.20005L24.3004 12.1C24.5004 12.3 24.7004 12.4 25.0004 12.4H29.0004H30.9004H35.1004C35.4004 12.4 35.6004 12.3 35.8004 12.1L41.2004 6.70005C41.4004 6.50005 41.5004 6.30005 41.5004 6.00005V1.80005C41.5004 1.30005 41.1004 0.800049 40.6004 0.800049ZM39.6004 5.60005L34.8004 10.4H31.0004H29.0004H25.4004L20.3004 5.00005V2.70005H39.6004V5.60005Z" fill="#3F496A"/>
    <path d="M56 59.2H4C3.5 59.2 3 58.8 3 58.2V34.2C3 33.7 3.4 33.2 4 33.2H56C56.5 33.2 57 33.6 57 34.2V58.2C57 58.7 56.5 59.2 56 59.2ZM5 57.2999H55V35.2H5V57.2999Z" fill="#637EA8"/>
    <path d="M12 51.0001C11.5 51.0001 11 50.6001 11 50.0001V41.6001C11 41.1001 11.4 40.6001 12 40.6001C12.6 40.6001 13 41.0001 13 41.6001V50.0001C13 50.5001 12.5 51.0001 12 51.0001Z" fill="#637EA8"/>
    <path d="M19.4004 51.0001C18.9004 51.0001 18.4004 50.6001 18.4004 50.0001V41.6001C18.4004 41.1001 18.8004 40.6001 19.4004 40.6001C20.0004 40.6001 20.4004 41.0001 20.4004 41.6001V50.0001C20.4004 50.5001 19.9004 51.0001 19.4004 51.0001Z" fill="#637EA8"/>
    <path d="M26.8008 51.0001C26.3008 51.0001 25.8008 50.6001 25.8008 50.0001V41.6001C25.8008 41.1001 26.2008 40.6001 26.8008 40.6001C27.4008 40.6001 27.8008 41.0001 27.8008 41.6001V50.0001C27.8008 50.5001 27.3008 51.0001 26.8008 51.0001Z" fill="#637EA8"/>
    <path d="M34.1992 51.0001C33.6992 51.0001 33.1992 50.6001 33.1992 50.0001V41.6001C33.1992 41.1001 33.5992 40.6001 34.1992 40.6001C34.7992 40.6001 35.1992 41.0001 35.1992 41.6001V50.0001C35.1992 50.5001 34.6992 51.0001 34.1992 51.0001Z" fill="#637EA8"/>
    <path d="M41.5996 51.0001C41.0996 51.0001 40.5996 50.6001 40.5996 50.0001V41.6001C40.5996 41.1001 40.9996 40.6001 41.5996 40.6001C42.1996 40.6001 42.5996 41.0001 42.5996 41.6001V50.0001C42.4996 50.5001 42.0996 51.0001 41.5996 51.0001Z" fill="#637EA8"/>
    <path d="M49 51.0001C48.5 51.0001 48 50.6001 48 50.0001V41.6001C48 41.1001 48.4 40.6001 49 40.6001C49.6 40.6001 50 41.0001 50 41.6001V50.0001C50 50.5001 49.5 51.0001 49 51.0001Z" fill="#637EA8"/>
</svg>
