<svg width="60" height="60" viewBox="0 0 60 60" fill="none" xmlns="http://www.w3.org/2000/svg">
    <path d="M38 52.5001H11C7.7 52.5001 5 49.8001 5 46.5001C5 43.2001 7.7 40.5001 11 40.5001H30C31.7 40.5001 33 39.1001 33 37.5001C33 35.9001 31.6 34.5001 30 34.5001H14.4C11.8 34.5001 9.7 32.4001 9.7 29.8001C9.7 27.2001 11.8 25.1001 14.4 25.1001H44.3C47 25.1001 49.3 22.9001 49.3 20.1001C49.3 17.3001 47.1 15.1001 44.3 15.1001H28.8C28.3 15.1001 27.8 14.7001 27.8 14.1001C27.8 13.5001 28.2 13.1001 28.8 13.1001H44.3C48.1 13.1001 51.2 16.2001 51.2 20.0001C51.2 23.8001 48.1 26.9001 44.3 26.9001H14.4C12.8 26.9001 11.6 28.2001 11.6 29.7001C11.6 31.2001 12.9 32.5001 14.4 32.5001H30C32.7 32.5001 35 34.7001 35 37.5001C35 40.3001 32.8 42.5001 30 42.5001H11C8.8 42.5001 7 44.3001 7 46.5001C7 48.7001 8.8 50.5001 11 50.5001H38C38.5 50.5001 39 50.9001 39 51.5001C39 52.1001 38.5 52.5001 38 52.5001Z" fill="#637EA8"/>
    <path d="M50 40.5C47.8 40.5 46 38.7 46 36.5C46 34.3 47.8 32.5 50 32.5C52.2 32.5 54 34.3 54 36.5C54 38.7 52.2 40.5 50 40.5ZM50 34.5C48.9 34.5 48 35.4 48 36.5C48 37.6 48.9 38.5 50 38.5C51.1 38.5 52 37.6 52 36.5C52 35.4 51.1 34.5 50 34.5Z" fill="#E8A15B"/>
    <path d="M50 50.5001C49.7 50.5001 49.4 50.4001 49.2 50.1001C48.5 49.0001 42 40.0001 42 36.2001C42 32.0001 45.6 28.6001 50 28.6001C54.4 28.6001 58 32.0001 58 36.2001C58 40.1001 51.6 49.1001 50.8 50.1001C50.6 50.3001 50.3 50.5001 50 50.5001ZM50 30.5001C46.7 30.5001 44 33.1001 44 36.2001C44 38.6001 47.8 44.7001 50 47.9001C52.2 44.7001 56 38.7001 56 36.2001C56 33.0001 53.3 30.5001 50 30.5001Z" fill="#E8A15B"/>
    <path d="M54.4996 49C54.2996 49.5 54.5996 50 55.0996 50.2C56.3996 50.6 56.9996 51.2 56.9996 51.5C56.9996 52.1 54.5996 53.5 49.9996 53.5C45.3996 53.5 42.9996 52.1 42.9996 51.5C42.9996 51.2 43.6996 50.6 44.8996 50.2C45.2996 50 45.5996 49.6 45.4996 49.1C45.3996 48.5 44.7996 48.2 44.2996 48.4C42.3996 49.1 41.0996 50.1 41.0996 51.5C41.0996 54.1 45.5996 55.5 50.0996 55.5C54.5996 55.5 59.0996 54.1 59.0996 51.5C59.0996 50.1 57.7996 49.1 55.8996 48.4C55.1996 48.2 54.6996 48.5 54.4996 49Z" fill="#3F496A"/>
    <path d="M25 19.5H2C1.5 19.5 1 19.1 1 18.5V5.5C1 5 1.4 4.5 2 4.5H25C25.5 4.5 26 4.9 26 5.5V18.5C26 19 25.5 19.5 25 19.5ZM3 17.5H24V6.5H3V17.5Z" fill="#3F496A"/>
</svg>
