<svg width="209" height="41" viewBox="0 0 209 41" fill="none" xmlns="http://www.w3.org/2000/svg">
<g clip-path="url(#clip0)">
<path d="M122.813 34.1919C122.397 34.3493 121.964 34.4697 121.517 34.554C121.068 34.6381 120.583 34.6801 120.058 34.6801C118.616 34.6801 117.292 34.4865 116.091 34.0996C114.888 33.7123 113.853 33.0956 112.984 32.2481C112.115 31.4004 111.44 30.2986 110.959 28.9404C110.479 27.583 110.238 25.9275 110.238 23.975V16.6191C110.238 16.3042 110.371 16.0275 110.639 15.786C110.907 15.5445 111.249 15.4243 111.665 15.4243H116.386C116.549 15.4243 116.721 15.4552 116.902 15.517C117.082 15.5782 117.248 15.6627 117.403 15.7695C117.555 15.8763 117.681 16.0027 117.779 16.1481C117.878 16.2939 117.927 16.4513 117.927 16.6195V24.0594C117.927 24.7664 117.998 25.3748 118.14 25.8858C118.282 26.3967 118.476 26.8202 118.722 27.1568C118.968 27.4934 119.26 27.7401 119.599 27.8976C119.938 28.055 120.304 28.1332 120.697 28.1332C121.44 28.1332 121.974 27.7942 122.296 27.1148C122.618 26.4356 122.791 25.4844 122.813 24.2616V16.6198C122.813 16.3169 122.929 16.0475 123.165 15.8119C123.4 15.5762 123.763 15.4473 124.255 15.4246H128.927C129.091 15.4246 129.263 15.4532 129.443 15.5087C129.624 15.5652 129.792 15.6469 129.952 15.7526C130.11 15.8594 130.241 15.9858 130.346 16.1313C130.448 16.277 130.501 16.4403 130.501 16.6195V39.2257C130.501 40.0225 129.976 40.4208 128.927 40.4208H124.304C123.31 40.4208 122.813 40.0225 122.813 39.2257V34.1919Z" fill="#468713"/>
<path d="M157.763 39.2418C157.763 39.5674 157.645 39.8452 157.411 40.0749C157.176 40.3047 156.796 40.4202 156.271 40.4202H151.796C151.239 40.4202 150.848 40.3192 150.623 40.117C150.4 39.9151 150.288 39.6181 150.288 39.225V28.0819C149.14 30.0234 147.995 31.9507 146.853 33.8639C145.712 35.7768 144.572 37.7101 143.435 39.6625C143.282 39.8982 143.105 40.0836 142.902 40.2183C142.699 40.3526 142.424 40.4202 142.075 40.4202H137.057C136.587 40.4202 136.219 40.3334 135.951 40.1593C135.683 39.985 135.549 39.7021 135.549 39.309V16.6188C135.549 16.2374 135.697 15.9432 135.992 15.7351C136.287 15.5273 136.664 15.4236 137.123 15.4236H141.615C141.986 15.4236 142.306 15.5194 142.574 15.7099C142.843 15.9012 143.015 16.1643 143.09 16.501V26.8698C143.429 26.3086 143.762 25.7563 144.091 25.212C144.418 24.6672 144.751 24.1152 145.091 23.554C145.845 22.3202 146.596 21.0881 147.345 19.8592C148.093 18.6306 148.845 17.3933 149.599 16.1475C149.752 15.8891 149.974 15.704 150.263 15.5921C150.553 15.4801 150.839 15.4236 151.124 15.4236H156.271C156.764 15.4236 157.134 15.5414 157.387 15.7771C157.638 16.0128 157.763 16.2929 157.763 16.6188V39.2418Z" fill="#468713"/>
<path d="M182.994 18.706C183.158 18.8517 183.27 19.0198 183.331 19.211C183.39 19.4023 183.338 19.61 183.175 19.834L178.502 24.244C178.382 24.3677 178.273 24.4325 178.174 24.4377C178.076 24.4436 177.951 24.3846 177.797 24.2609C177.59 24.048 177.371 23.8485 177.141 23.6635C176.912 23.4785 176.656 23.3217 176.371 23.1922C176.087 23.0633 175.77 22.9624 175.42 22.8893C175.07 22.817 174.682 22.7798 174.256 22.7798C173.578 22.7798 172.951 22.9204 172.37 23.2005C171.791 23.4806 171.295 23.8544 170.879 24.3199C170.463 24.7853 170.139 25.3273 169.904 25.9444C169.668 26.5611 169.551 27.2067 169.551 27.88C169.551 28.5087 169.663 29.1313 169.887 29.7484C170.111 30.3654 170.425 30.9157 170.829 31.398C171.234 31.8811 171.723 32.2708 172.297 32.5677C172.871 32.8658 173.502 33.014 174.191 33.014C174.89 33.014 175.557 32.8734 176.19 32.5933C176.824 32.3132 177.382 31.9259 177.862 31.4318C177.994 31.3088 178.111 31.2468 178.216 31.2468C178.318 31.2468 178.431 31.3081 178.551 31.4318L183.223 36.0442C183.388 36.257 183.439 36.4562 183.379 36.6416C183.32 36.8266 183.207 36.9865 183.043 37.1211C181.797 38.4004 180.445 39.3297 178.986 39.907C177.527 40.4852 176.043 40.7739 174.535 40.7739C173.387 40.7739 172.273 40.631 171.19 40.3447C170.108 40.0587 169.094 39.6522 168.149 39.1243C167.203 38.5975 166.34 37.9518 165.559 37.1887C164.777 36.4252 164.106 35.57 163.543 34.6215C162.979 33.674 162.543 32.6353 162.231 31.5076C161.92 30.3799 161.764 29.1823 161.764 27.9137C161.764 26.8253 161.905 25.7507 162.19 24.6903C162.474 23.6297 162.879 22.6223 163.403 21.6686C163.928 20.715 164.561 19.834 165.305 19.0261C166.048 18.2181 166.879 17.5221 167.797 16.9389C168.715 16.3555 169.71 15.8976 170.78 15.5669C171.852 15.2354 172.977 15.0704 174.158 15.0704C175.218 15.0704 176.169 15.1662 177.01 15.3563C177.851 15.5476 178.622 15.8049 179.322 16.1305C180.021 16.4561 180.666 16.8399 181.257 17.2837C181.847 17.7271 182.426 18.2012 182.994 18.706Z" fill="#468713"/>
<path d="M204.913 15.4236C205.11 15.4236 205.28 15.486 205.421 15.6086C205.563 15.7323 205.634 15.9173 205.634 16.164V21.5674C205.634 21.7359 205.569 21.9157 205.437 22.1059C205.307 22.2968 205.131 22.3922 204.913 22.3922H199.536V39.6791C199.536 40.1732 199.273 40.4199 198.748 40.4199H192.388C191.907 40.4199 191.666 40.1732 191.666 39.6791V22.3925H186.338C185.857 22.3925 185.617 22.1173 185.617 21.5677V16.1643C185.617 15.6703 185.857 15.4236 186.338 15.4236H204.913Z" fill="#468713"/>
<path d="M22.2146 38.0367C22.2472 38.0704 22.2802 38.1038 22.2802 38.1714C22.2802 38.2048 22.2476 38.1714 22.2146 38.1376L22.1489 38.1038L22.0507 38.1376C22.0507 38.2048 22.0507 38.3061 22.0181 38.3733L21.9854 38.4071C22.0181 38.3061 22.0837 38.1714 22.0511 38.0704C21.7889 38.4071 20.5436 40.0219 20.2478 40.0219C19.6248 40.0219 20.0839 39.2139 18.2157 39.1805C17.3302 39.1805 17.6583 39.9885 17.0361 39.9885C16.0852 39.9885 13.4628 37.2288 13.4302 36.3199C13.4302 36.2189 13.5941 36.2523 13.6598 36.2523C13.4958 36.1176 13.4958 35.68 13.3976 35.5119C13.201 35.1416 11.5613 32.9196 11.2991 32.7177C11.004 32.5493 10.6762 32.6168 10.3484 32.6168C9.82367 32.6168 9.62715 32.3139 9.49588 32.3139C9.20072 32.3139 8.57776 33.0209 8.57776 33.3913C8.57776 33.8964 9.03682 34.233 9.03682 34.7377C9.03682 35.0409 8.90555 35.3438 8.87293 35.6132C8.80733 36.3202 8.87293 36.9934 8.87293 37.7004C8.87293 38.3064 7.65965 38.2052 7.65965 39.349C7.65965 39.4165 7.627 39.4838 7.56138 39.4838C7.39747 39.4838 7.20059 39.248 6.97106 39.248C6.41372 39.248 6.24983 39.9888 5.69215 39.9888C5.16747 39.9888 4.97092 39.3153 4.41359 39.3153C3.95453 39.3153 3.725 39.8879 3.26594 39.8879C2.80688 39.8879 2.3808 39.248 2.3808 38.8443C2.3808 38.3391 2.64298 37.8341 2.64298 37.2629C2.64298 36.3874 2.02002 36.8587 2.02002 35.9161C2.02002 35.6466 2.05266 35.3776 2.15127 35.1419V35.074C2.2169 35.074 2.11863 35.3435 2.24955 35.3435C2.5447 35.3435 3.00376 34.4346 3.00376 34.1989C3.00376 33.6938 2.11863 33.6938 2.11863 33.3572C2.11863 33.0205 2.61033 33.1887 2.77423 33.1887L3.00376 33.0878C3.03641 33.0539 3.06939 32.9868 3.06939 32.9193C3.06939 32.5827 2.11863 32.4479 2.11863 31.9766C2.11863 31.4044 3.23329 31.2696 2.93847 30.7645C2.90448 30.7314 2.90448 30.6977 2.90448 30.6302C2.90448 30.3945 3.13401 30.226 3.13401 30.0241C3.13401 29.5865 2.60933 29.8222 2.41278 29.8222L2.18325 29.7213C2.1506 29.654 2.1506 29.5865 2.1506 29.5194C2.1506 29.1162 2.77356 28.4758 2.87184 28.0716C2.97011 27.735 2.97011 26.8944 2.97011 26.524C2.97011 26.0189 2.11761 25.3794 2.11761 25.2447L2.15026 25.2109C2.3798 25.2109 2.44542 25.5137 2.60933 25.5137C2.93712 25.5137 2.7076 25.0425 2.7076 24.874C2.7076 24.5036 3.00275 24.167 2.96977 23.7966C2.96977 23.4938 2.74024 23.4262 2.54335 23.4262C2.4121 23.4262 2.28118 23.359 2.28118 23.2243C2.28118 23.0558 2.54335 22.8539 2.60899 22.6858C2.70726 22.4164 3.10069 21.2718 3.10069 21.0372C3.10069 20.633 2.28084 20.4649 2.28084 20.1955C2.28084 19.9261 2.64163 20.027 2.80554 20.027C2.90381 20.027 3.03506 19.9598 3.03506 19.8251C3.03506 19.5557 2.4121 19.5895 2.4121 19.0843C2.4121 18.6812 2.7399 18.3773 2.7399 18.0069C2.7399 17.6366 2.54302 17.3 2.54302 16.9296C2.54302 16.3235 3.16598 16.593 3.49379 16.593C3.98549 16.593 4.28065 15.28 5.26439 15.28C5.92001 15.28 6.05126 16.1555 6.93673 16.2564C7.36314 16.3235 7.42844 17.0305 7.69095 17.3338C8.34656 17.9398 9.29767 18.0408 9.29767 19.2191C9.3303 20.4984 8.11736 20.2626 8.08438 21.4072C8.08438 21.9457 8.44515 22.2827 8.9042 22.5183C9.19937 22.6531 10.5436 22.6531 10.5436 22.855C10.5436 23.1578 9.95325 23.0234 9.95325 23.3263C9.95325 23.3601 10.0189 23.3601 10.0516 23.3601C11.2312 23.3601 11.8541 21.9799 12.5107 21.1381C13.3306 20.0607 12.2812 18.6478 14.3133 18.6478C14.5755 18.6478 14.805 18.4459 14.838 18.1765C14.838 17.9071 14.6741 17.6379 14.6741 17.3014C14.6741 17.2004 14.7398 17.0657 14.7724 16.9985C15.0346 16.7291 15.4609 16.83 15.7888 16.6956C16.2148 16.561 16.9034 15.7192 17.1329 15.7192C17.4281 15.854 17.1656 16.3591 17.4608 16.3591C17.6247 16.3591 18.1494 15.854 18.9362 15.854C19.9526 15.854 20.7068 15.7868 21.2315 16.7629C21.2972 16.8975 21.8218 17.6045 21.8218 17.6718H21.8544C21.7889 17.6718 21.6576 17.4361 21.4937 17.4361C21.2642 17.4361 21.2972 18.345 21.002 18.5134C20.6085 18.7491 19.7234 18.9848 19.6904 19.5571C19.6904 19.8599 19.8543 20.1631 19.8543 20.5335C19.8543 22.2503 18.4445 21.4089 17.6577 22.4188C17.2316 22.9911 17.3625 24.7754 16.6086 24.7754C16.4118 24.7754 16.2808 24.5398 16.0513 24.5398C15.6586 24.5398 15.92 25.112 15.92 25.3477C15.92 25.9199 15.1658 26.1218 15.1658 26.6607C15.1658 27.0311 15.5919 27.0311 15.5919 27.2668C15.5919 27.5025 15.3624 27.7718 15.1328 27.8391C15.4936 29.1183 15.9527 28.4789 16.6083 29.2864C17.0673 29.8587 16.8048 31.0371 17.1986 31.6094C17.7889 32.451 19.0675 33.057 19.5259 34.0663C19.6571 34.369 19.5259 34.7394 19.7881 34.9752C20.3454 35.5812 21.1979 35.0761 21.1979 36.8266C21.1979 37.2308 21.7882 37.8031 22.083 38.0388L22.1486 37.904L22.1813 37.9712C22.2139 37.9378 22.3452 37.7693 22.3778 37.7693C22.3775 37.8348 22.2472 37.9692 22.2146 38.0367ZM22.0833 38.0367V38.0704V38.0367Z" fill="#D86100"/>
<path d="M46.8694 31.1369C46.8694 31.4398 47.0003 31.743 47.0003 32.0796C47.0003 32.719 46.4103 32.5171 46.3774 33.9983C46.3774 34.8738 45.3939 35.042 45.0005 35.6473C44.8363 35.8829 44.9348 36.1858 44.771 36.4214C44.5415 36.6908 44.1806 36.6571 43.9185 36.8256C43.3608 37.1622 43.2955 38.172 42.574 38.2059C41.984 38.2396 41.6888 38.3739 41.2298 38.7443C40.7381 39.1147 40.6724 40.0236 39.8526 40.0236C39.3935 40.0236 39.0657 39.5523 38.6393 39.5523C38.1806 39.5523 37.7868 41 36.5738 41C35.6557 41 35.0334 39.9902 34.082 39.9564C33.3288 39.9564 32.6072 40.5624 31.8533 40.5624C30.8696 40.5959 30.673 39.586 30.0171 39.1823C29.7549 39.0138 29.4268 39.1485 29.1647 39.0138C28.7382 38.8119 28.7712 38.0374 28.2465 38.0374C28.017 38.0374 27.8857 38.3068 27.6235 38.3068C26.8037 38.3068 27.5909 36.7247 26.2794 36.7247C25.7547 36.7247 24.7056 35.547 24.4104 35.1095C24.2466 34.8738 24.2792 34.6043 24.3122 34.3015C24.3122 33.3589 23.2628 32.9213 23.2628 32.1805C23.2628 31.8777 23.3941 31.6082 23.3941 31.3054C23.3941 30.6322 22.6072 30.329 22.6072 29.6568C22.6072 29.3539 22.7384 29.0845 22.7384 28.8151C22.7384 28.4785 22.6072 28.1419 22.6072 27.8052C22.6072 27.1655 23.1645 26.7278 23.0662 26.0884C23.0336 25.819 22.968 25.5499 22.968 25.2468C22.968 24.4725 23.7878 21.3762 24.2466 20.8039C24.3778 20.6354 24.5743 20.5345 24.7056 20.2988C24.8369 20.0969 24.8039 19.8275 24.9352 19.6256C25.132 19.3899 28.8361 17.2362 29.3935 16.8658C30.0491 16.4283 30.9665 15.048 31.6878 15.048C32.1142 15.048 32.3107 15.755 32.8681 15.755C33.491 15.755 33.8518 15.149 34.9339 15.149C35.4585 15.149 35.9176 14.8461 36.4422 14.8461C38.4087 14.8461 37.8847 16.1929 39.3922 16.1929C39.9168 16.1929 40.2777 15.6545 40.7037 15.6545C41.2284 15.6545 41.0645 16.2939 41.3267 16.5633C41.5892 16.8328 41.9826 16.799 42.2778 16.9665C42.7368 17.2359 42.9334 17.8081 43.4251 17.9763C43.6546 18.0438 43.8841 17.9763 44.1467 17.9763C44.8679 17.9763 44.8679 20.029 45.5235 20.938C45.786 21.3421 47.3271 22.2844 47.3271 22.6214L47.1958 22.8233C47.0646 22.8904 46.6712 22.8233 46.6712 23.0589C46.6712 23.1936 48.1139 24.0687 48.1139 25.2808C48.1139 26.1559 47.3927 26.055 47.3927 26.5263C47.3927 26.9977 47.8518 26.8292 47.8518 27.9403C47.8518 28.2097 48.3105 28.5797 48.3105 29.2868C48.3118 30.8675 46.8694 30.1943 46.8694 31.1369ZM40.8707 28.7803C40.8707 28.4099 41.5919 28.0733 41.5919 27.8039C41.5919 27.5682 41.1331 27.703 41.1331 27.2653C41.1331 26.9288 41.3624 26.6259 41.3624 26.2555C41.3624 25.2791 40.1821 24.0009 39.7886 22.8897C39.6574 22.5531 39.8216 21.9808 39.4278 21.8123C39.1986 21.7114 38.9691 21.8799 38.7395 21.8799C36.9033 21.8799 37.0999 20.1293 36.3797 20.0955C36.0189 20.0955 35.7238 20.4321 35.3303 20.4321C35.0351 20.4321 34.8056 20.1965 34.4778 20.1965C34.117 20.1965 33.658 20.9035 31.8227 20.9035C31.2324 20.9035 31.3963 21.5095 31.3963 21.8799C31.3963 24.2021 29.5281 22.9572 29.4955 24.3702C29.4955 24.8753 29.725 25.38 29.725 25.8851C29.725 26.5922 28.8398 26.5249 28.8398 27.1644C28.8398 27.5011 29.1997 27.703 29.1997 28.0061C29.1997 28.4775 28.5767 28.4437 28.5767 29.2854C28.6093 30.3628 30.3143 30.1943 30.3143 31.3719C30.3143 31.8433 29.7896 31.877 29.7569 32.3483C29.7569 32.6849 30.0191 32.9882 30.216 33.2909C30.8717 34.5702 31.5276 34.5031 32.8054 34.5031C33.7563 34.5031 33.658 35.6132 34.8712 35.6132C35.7894 35.6132 35.7238 34.7714 36.3797 34.7714C36.6092 34.7714 36.8058 34.9396 37.0353 34.9396L37.1009 34.9733C37.6909 34.9396 37.7895 34.1317 38.2156 33.7961C38.7076 33.4257 39.9205 33.1566 40.1165 32.7187C40.1821 32.584 40.1821 32.4159 40.2477 32.2474C40.4115 31.9108 41.1331 32.0455 41.1331 31.6079C41.1331 31.3051 40.7067 31.2375 40.7394 30.901C40.7394 30.3287 41.5919 30.0258 41.5919 29.4869C41.5912 29.0497 40.8707 29.1845 40.8707 28.7803Z" fill="#D86100"/>
<path d="M91.267 31.1369C91.267 31.4398 91.3976 31.743 91.3976 32.0796C91.3976 32.719 90.8075 32.5171 90.7746 33.9983C90.7746 34.8738 89.7916 35.042 89.3978 35.6473C89.2334 35.8829 89.3321 36.1858 89.1685 36.4214C88.9384 36.6908 88.5775 36.6571 88.3162 36.8256C87.7581 37.1622 87.6931 38.172 86.9715 38.2059C86.3813 38.2396 86.0862 38.3739 85.6267 38.7443C85.1352 39.1147 85.0695 40.0236 84.2498 40.0236C83.7908 40.0236 83.463 39.5523 83.0365 39.5523C82.5778 39.5523 82.1841 41 80.9712 41C80.053 41 79.4308 39.9902 78.4793 39.9564C77.7257 39.9564 77.0045 40.5624 76.2503 40.5624C75.2669 40.5959 75.07 39.586 74.4144 39.1823C74.1519 39.0138 73.8241 39.1485 73.5619 39.0138C73.1355 38.8119 73.1681 38.0374 72.6438 38.0374C72.4142 38.0374 72.283 38.3068 72.0208 38.3068C71.2009 38.3068 71.9879 36.7247 70.6763 36.7247C70.1516 36.7247 69.1026 35.547 68.8074 35.1095C68.6435 34.8738 68.6762 34.6043 68.7091 34.3015C68.7091 33.3589 67.6597 32.9213 67.6597 32.1805C67.6597 31.8777 67.791 31.6082 67.791 31.3054C67.791 30.6322 67.0042 30.329 67.0042 29.6568C67.0042 29.3539 67.1354 29.0845 67.1354 28.8151C67.1354 28.4785 67.0042 28.1419 67.0042 27.8052C67.0042 27.1655 67.5615 26.7278 67.4632 26.0884C67.4302 25.819 67.3649 25.5499 67.3649 25.2468C67.3649 24.4725 68.1845 21.3762 68.6435 20.8039C68.7748 20.6354 68.9713 20.5345 69.1026 20.2988C69.2339 20.0969 69.2008 19.8275 69.3321 19.6256C69.5287 19.3899 73.2331 17.2362 73.7905 16.8658C74.4464 16.4283 75.3635 15.048 76.0847 15.048C76.5112 15.048 76.7077 15.755 77.265 15.755C77.8883 15.755 78.2488 15.149 79.3308 15.149C79.8554 15.149 80.3146 14.8461 80.8392 14.8461C82.8057 14.8461 82.2816 16.1929 83.7891 16.1929C84.3141 16.1929 84.6749 15.6545 85.1007 15.6545C85.6251 15.6545 85.4615 16.2939 85.7237 16.5633C85.9859 16.8328 86.3796 16.799 86.6747 16.9665C87.1333 17.2359 87.3306 17.8081 87.8221 17.9763C88.0514 18.0438 88.2808 17.9763 88.5438 17.9763C89.2646 17.9763 89.2646 20.029 89.9206 20.938C90.1827 21.3421 91.7239 22.2844 91.7239 22.6214L91.5924 22.8233C91.4617 22.8904 91.068 22.8233 91.068 23.0589C91.068 23.1936 92.5105 24.0687 92.5105 25.2808C92.5105 26.1559 91.7897 26.055 91.7897 26.5263C91.7897 26.9977 92.2483 26.8292 92.2483 27.9403C92.2483 28.2097 92.7078 28.5797 92.7078 29.2868C92.7095 30.8675 91.267 30.1943 91.267 31.1369ZM85.2676 28.7803C85.2676 28.4099 85.9884 28.0733 85.9884 27.8039C85.9884 27.5682 85.5298 27.703 85.5298 27.2653C85.5298 26.9288 85.7591 26.6259 85.7591 26.2555C85.7591 25.2791 84.5788 24.0009 84.1852 22.8897C84.054 22.5531 84.2179 21.9808 83.8245 21.8123C83.5949 21.7114 83.3653 21.8799 83.1358 21.8799C81.2996 21.8799 81.4965 20.1293 80.7759 20.0955C80.4151 20.0955 80.1203 20.4321 79.7269 20.4321C79.4318 20.4321 79.2022 20.1965 78.8744 20.1965C78.5137 20.1965 78.0546 20.9035 76.2193 20.9035C75.6291 20.9035 75.7929 21.5095 75.7929 21.8799C75.7929 24.2021 73.9247 22.9572 73.892 24.3702C73.892 24.8753 74.1216 25.38 74.1216 25.8851C74.1216 26.5922 73.2365 26.5249 73.2365 27.1644C73.2365 27.5011 73.5962 27.703 73.5962 28.0061C73.5962 28.4775 72.9733 28.4437 72.9733 29.2854C73.0059 30.3628 74.7109 30.1943 74.7109 31.3719C74.7109 31.8433 74.1862 31.877 74.1536 32.3483C74.1536 32.6849 74.4158 32.9882 74.6126 33.2909C75.2682 34.5702 75.9242 34.5031 77.2021 34.5031C78.1528 34.5031 78.0546 35.6132 79.2679 35.6132C80.1857 35.6132 80.1203 34.7714 80.7759 34.7714C81.0055 34.7714 81.2023 34.9396 81.4319 34.9396L81.4972 34.9733C82.0875 34.9396 82.1858 34.1317 82.6122 33.7961C83.1039 33.4257 84.3174 33.1566 84.513 32.7187C84.5788 32.584 84.5788 32.4159 84.6445 32.2474C84.8081 31.9108 85.5298 32.0455 85.5298 31.6079C85.5298 31.3051 85.1032 31.2375 85.1361 30.901C85.1361 30.3287 85.9884 30.0258 85.9884 29.4869C85.9884 29.0497 85.2676 29.1845 85.2676 28.7803Z" fill="#D86100"/>
<path d="M76.6445 11.6013C79.006 11.932 81.2259 9.89101 81.6022 7.04545C81.9775 4.19991 80.3691 1.62449 78.0092 1.29615C75.6493 0.966082 73.4314 3.00712 73.0534 5.85266C72.6778 8.69752 74.2869 11.2736 76.6445 11.6013Z" fill="#D86100"/>
<path d="M86.5794 11.6684C89.1188 13.101 92.5072 11.7805 94.1461 8.71849C95.7859 5.65591 95.0541 2.01069 92.5147 0.578108C89.9762 -0.85448 86.5879 0.466133 84.9481 3.52873C83.3088 6.59064 84.0398 10.2358 86.5794 11.6684Z" fill="#D86100"/>
<path d="M94.2726 18.154C96.242 20.3362 99.8648 20.1798 102.36 17.8046C104.856 15.4297 105.282 11.7338 103.312 9.55256C101.342 7.37029 97.7208 7.52671 95.2253 9.90265C92.7298 12.2775 92.304 15.9724 94.2726 18.154Z" fill="#D86100"/>
<path d="M105.641 23.4834C104.644 21.2614 101.778 20.4325 99.2357 21.6336C96.6955 22.8352 95.4436 25.6102 96.4376 27.8304C97.4307 30.0506 100.301 30.8806 102.843 29.6812C105.384 28.4785 106.636 25.7025 105.641 23.4834Z" fill="#D86100"/>
<path d="M65.5908 16.3917C65.577 16.3917 65.5643 16.3976 65.5505 16.3993C65.3132 16.2029 65.0443 16.0231 64.7636 15.8729C64.5707 15.7698 64.3742 15.6824 64.1797 15.6106C63.8249 15.4798 63.1138 15.4053 62.8244 15.415C62.4209 15.415 62.1136 15.5494 61.8675 15.6748C61.6538 15.784 61.4862 15.8863 61.3489 15.8863C61.1645 15.8863 60.9854 15.7843 60.8 15.6699C60.557 15.5201 60.3022 15.3475 60.0048 15.3475C59.8011 15.3475 59.7308 15.4442 59.689 15.5703C59.6096 15.8095 59.6338 16.1554 59.0539 16.1554C58.7783 16.1554 58.2304 16.0107 58.0604 15.7058C58.0282 15.6475 58.0045 15.5859 58.0045 15.5156C58.0045 15.3482 58.2015 15.2134 58.2015 15.1124C58.1234 15.1124 57.8579 15.3274 57.5661 15.5018C57.3991 15.6014 57.2261 15.682 57.0717 15.7058C57.044 15.7099 57.0148 15.7185 56.9885 15.7185C56.6934 15.6848 56.3986 15.18 55.9065 15.18C55.6009 15.18 55.5239 15.3788 55.4431 15.5703C55.368 15.7485 55.2899 15.9208 55.0214 15.9208C54.8265 15.9208 54.5852 15.7902 54.3321 15.6699C54.1591 15.5879 53.9811 15.5104 53.8081 15.4832C53.7424 15.416 53.6442 15.2813 53.5129 15.2813C53.3938 15.2813 53.3618 15.4698 53.2646 15.6748C53.1481 15.9204 52.9375 16.1902 52.3656 16.1902C51.7191 16.1902 51.5272 15.8143 51.3176 15.6106C51.2402 15.5355 51.1601 15.4832 51.0541 15.4832C50.8572 15.4494 50.7259 15.6516 50.7259 15.8198C50.7279 15.8364 50.7309 15.8553 50.7336 15.8732C50.7737 16.1467 50.4052 16.5605 50.0357 16.5605C49.8226 16.5605 49.6648 16.4204 49.4861 16.3997C49.4726 16.3979 49.4595 16.3921 49.4457 16.3921C48.9866 16.4258 48.5989 16.7897 48.5989 17.2276C48.5989 17.3013 48.6164 17.4508 48.6443 17.6421C48.7274 18.2057 48.9139 19.1725 49.1034 19.956C49.2596 20.6031 49.4171 21.1216 49.517 21.1729C49.55 21.2067 49.8391 21.2404 49.8718 21.2404C50.0518 21.2263 50.1908 21.115 50.3234 20.9923C50.5048 20.8245 50.6748 20.6344 50.9211 20.6344C51.2489 20.6344 52.0048 20.7691 52.3326 20.87C53.0414 21.0695 53.5392 21.3366 53.8919 21.6845C54.0763 21.8665 54.2204 22.0711 54.3317 22.3002C54.6178 22.8901 54.6929 23.6432 54.6929 24.6059C54.6929 25.38 55.0207 25.5148 55.0207 25.7504C55.0207 26.1525 54.4687 26.0171 54.3789 26.6704C54.3708 26.7282 54.365 26.7903 54.365 26.8612C54.365 27.7729 54.9904 27.8883 55.1489 28.127C55.1048 28.2191 55.051 28.309 54.9917 28.3958C54.9587 28.4047 54.9244 28.4099 54.8901 28.4099C54.6933 28.4436 54.3981 28.4099 54.3981 28.7465C54.3981 29.2516 54.2342 29.7229 54.2342 30.1943C54.252 30.5602 54.4145 30.7466 54.56 30.9219C54.6818 31.069 54.7918 31.2086 54.7918 31.4391C54.7918 31.5122 54.7545 31.5855 54.7242 31.6641C54.6986 31.7302 54.6781 31.7998 54.6933 31.8767C54.7023 31.9238 54.7303 31.9597 54.7646 31.9924C54.8531 32.0765 54.9884 32.135 54.9884 32.2805C54.9884 32.4313 54.769 32.4507 54.603 32.4931C54.5468 32.5075 54.4967 32.5244 54.4634 32.5499C54.2012 32.7855 54.1356 33.1559 54.1356 33.4925C54.1356 34.0985 54.7915 34.3343 54.7915 35.1422C54.7915 35.5126 54.2339 35.5797 54.2339 35.9501C54.2339 36.152 54.3978 36.2867 54.4634 36.4215C54.6272 36.7243 54.7585 37.0609 54.8568 37.3975C54.9029 37.5209 54.9305 37.6529 54.9534 37.7869C55.0119 38.1286 55.0385 38.488 55.2502 38.7781C55.4488 38.982 57.0686 39.8399 57.5661 40.1111C57.6435 40.1535 57.696 40.1828 57.7094 40.1917C58.0045 40.5287 57.9719 40.293 58.4963 40.293C59.4464 40.3265 60.2662 39.2839 60.2662 38.375C60.2662 38.1658 60.2292 37.9715 60.1787 37.7869C59.9774 37.0492 59.4797 36.5231 59.4797 36.3888C59.4471 35.9518 59.9387 36.0191 59.9387 35.5814C59.9387 35.2111 59.7093 34.8738 59.7093 34.5041C59.7093 34.0328 60.5617 33.7299 60.5617 33.4267C60.5617 33.292 60.3648 33.2249 60.2665 33.1911C60.2339 33.1573 60.2009 33.1239 60.2009 33.0901C60.2339 32.9554 60.5617 32.8545 60.5617 32.6188C60.5617 32.5758 60.5486 32.5344 60.5291 32.4931C60.3631 32.4507 60.1437 32.4313 60.1437 32.2805C60.1437 32.135 60.2794 32.0765 60.3675 31.9924C60.4019 31.9597 60.4294 31.9235 60.4389 31.8767C60.4537 31.7995 60.4331 31.7302 60.4079 31.6641C60.378 31.5855 60.3402 31.5122 60.3402 31.4391C60.3402 31.2086 60.4503 31.069 60.5722 30.9219C60.5846 30.8375 60.594 30.7528 60.594 30.6666C60.594 30.0943 60.1023 30.1281 60.1023 29.825C60.1023 29.4208 60.7253 29.6231 60.7253 29.2188C60.7465 29.0883 60.3981 28.7741 60.14 28.3962C60.0808 28.3093 60.0269 28.2197 59.9828 28.1274C59.9219 27.9999 59.8796 27.869 59.8728 27.7378C59.8728 27.2178 60.698 27.7298 60.7529 26.6704C60.7549 26.6338 60.7582 26.6004 60.7582 26.5601C60.7582 26.0888 60.4301 25.6512 60.4301 25.1124C60.4301 24.1359 61.053 23.6983 61.0204 23.0923C61.0204 22.8198 60.8871 22.5621 60.7996 22.2999C60.7576 22.1734 60.7253 22.0459 60.7253 21.9151C60.7253 21.7466 60.8565 21.6122 61.0204 21.6122C61.0971 21.6253 61.1689 21.6546 61.2395 21.6842C61.5919 21.3366 62.09 21.0692 62.7988 20.8697C63.1266 20.7688 63.7869 20.634 64.1147 20.634C64.361 20.634 64.531 20.8242 64.7124 20.992C64.8454 21.1147 64.984 21.2259 65.1641 21.2401C65.1967 21.2401 65.4858 21.2063 65.5188 21.1726C65.6188 21.1212 65.7762 20.6027 65.9325 19.9556C66.1219 19.1721 66.3084 18.2054 66.3912 17.6417C66.4191 17.4508 66.4366 17.301 66.4366 17.2273C66.4376 16.7894 66.0499 16.4251 65.5908 16.3917Z" fill="#D86100"/>
</g>
<defs>
<clipPath id="clip0">
<rect width="209" height="41" fill="white"/>
</clipPath>
</defs>
</svg>
