<svg width="22" height="22" viewBox="0 0 22 22" fill="none" xmlns="http://www.w3.org/2000/svg">
    <path d="M11 0C4.92483 0 0 4.92483 0 11C0 17.0752 4.92483 22 11 22C17.0752 22 22 17.0752 22 11C22 4.92483 17.0752 0 11 0ZM15.8957 12.5742C15.9865 12.6865 16.2028 12.9056 16.5446 13.2317H16.5529L16.5608 13.2393L16.5687 13.2475L16.5848 13.2633C17.338 13.9633 17.8481 14.5536 18.115 15.0341C18.1342 15.0666 18.1517 15.1001 18.1672 15.1344C18.1938 15.2028 18.2126 15.2739 18.2233 15.3465C18.2422 15.4364 18.2409 15.5294 18.2195 15.6187C18.198 15.6988 18.1312 15.7726 18.0191 15.8403C17.907 15.9081 17.7491 15.9403 17.5462 15.9403L15.4953 15.972C15.367 15.9986 15.2174 15.9853 15.0464 15.9321C14.9013 15.8895 14.7615 15.8303 14.6298 15.7558L14.4697 15.6593C14.3091 15.5472 14.1221 15.3764 13.9087 15.1468C13.6954 14.9172 13.5124 14.7101 13.3599 14.5257C13.2173 14.3507 13.053 14.1946 12.8711 14.061C12.6972 13.9344 12.5463 13.8929 12.4184 13.9366C12.4026 13.9423 12.3811 13.9518 12.3551 13.9648C12.3049 13.9974 12.2592 14.0365 12.219 14.0809C12.1505 14.1511 12.0925 14.2307 12.0468 14.3174C11.9958 14.4111 11.9503 14.55 11.9104 14.734C11.8687 14.9382 11.8513 15.1467 11.8585 15.355C11.8593 15.4299 11.8498 15.5044 11.8303 15.5766C11.8177 15.6287 11.7974 15.6786 11.7702 15.7248L11.7385 15.7647C11.6423 15.8664 11.5008 15.9251 11.314 15.941H10.3913C9.99627 15.961 9.60065 15.9163 9.22006 15.8087C8.85226 15.7119 8.49834 15.5685 8.16691 15.382C7.88361 15.2201 7.6089 15.0436 7.34388 14.8533C7.14401 14.7145 6.95511 14.5605 6.77885 14.3927L6.57879 14.2003C6.5254 14.1471 6.45154 14.0669 6.35721 13.9597C6.26288 13.8525 6.07189 13.6098 5.78426 13.2317C5.49599 12.8518 5.21289 12.4484 4.93496 12.0215C4.65704 11.5946 4.32994 11.031 3.95367 10.3308C3.5774 9.63125 3.2292 8.90488 2.90906 8.15171C2.88058 8.08299 2.8643 8.00983 2.86095 7.93551C2.8579 7.89132 2.86618 7.84709 2.88501 7.80699L2.91666 7.75919C2.99685 7.65748 3.14911 7.60662 3.37344 7.60662L5.56869 7.59079C5.63195 7.60133 5.69384 7.61885 5.75324 7.64302C5.79878 7.65983 5.84189 7.68261 5.88144 7.71076L5.92132 7.73482C6.01032 7.79845 6.07753 7.88799 6.11378 7.99122C6.22035 8.25881 6.34317 8.53526 6.48224 8.82057C6.62131 9.10589 6.73084 9.32357 6.81082 9.47361L6.93744 9.70596C7.09234 10.0263 7.24196 10.304 7.3863 10.5391C7.50052 10.7325 7.63054 10.9161 7.77502 11.088C7.87297 11.2038 7.98457 11.3073 8.1074 11.3963C8.21418 11.4714 8.30503 11.5089 8.37994 11.5087C8.45385 11.5088 8.52714 11.4953 8.59614 11.4688C8.61202 11.4584 8.62559 11.4448 8.63603 11.4289C8.67134 11.3721 8.70306 11.3131 8.73099 11.2523C8.78591 11.133 8.82241 11.0061 8.83925 10.8759C8.86331 10.7212 8.88863 10.5049 8.91522 10.227C8.94232 9.89369 8.94232 9.55874 8.91522 9.22544C8.9066 9.02885 8.88246 8.83325 8.84305 8.64046C8.8057 8.46446 8.76834 8.34164 8.73099 8.272L8.68288 8.17704C8.54929 7.99576 8.32233 7.88085 8.00198 7.83232C7.93234 7.82219 7.94564 7.75814 8.04187 7.64017C8.12804 7.54236 8.23121 7.46096 8.34639 7.39991C8.62938 7.26127 9.26764 7.19711 10.2612 7.20745C10.6991 7.21315 11.0596 7.24787 11.3428 7.3116C11.4374 7.33333 11.528 7.36986 11.6113 7.41986C11.6841 7.46596 11.7413 7.53291 11.7755 7.612C11.8127 7.69421 11.8409 7.78017 11.8597 7.8684C11.8815 7.98774 11.8915 8.10893 11.8895 8.23022C11.8895 8.38501 11.8866 8.5322 11.8816 8.67085C11.8765 8.8095 11.8696 8.99816 11.8616 9.23588C11.8537 9.47361 11.8493 9.69393 11.8493 9.89683C11.8493 9.95571 11.8468 10.0675 11.8414 10.2333C11.836 10.3992 11.8344 10.5271 11.8373 10.6179C11.8401 10.7088 11.8493 10.817 11.8654 10.9424C11.8764 11.0514 11.9076 11.1573 11.9576 11.2548C11.9999 11.3345 12.0619 11.4021 12.1377 11.4511C12.1804 11.4622 12.226 11.4726 12.2741 11.4827C12.3222 11.4929 12.3912 11.4641 12.4824 11.3944C12.5902 11.3096 12.6918 11.2173 12.7866 11.1181C12.8989 11.0035 13.0378 10.8241 13.2035 10.5799C13.3691 10.3358 13.5507 10.0487 13.7483 9.71862C14.0796 9.1399 14.3661 8.53671 14.6055 7.9143C14.6251 7.86386 14.6521 7.8166 14.6856 7.77407C14.7098 7.74112 14.7396 7.71263 14.7736 7.68987L14.8052 7.66581L14.8454 7.64587C14.879 7.6335 14.914 7.62542 14.9496 7.62181C15.0026 7.61391 15.0564 7.61264 15.1097 7.61801L17.4174 7.60187C17.6256 7.57528 17.7966 7.58193 17.9302 7.62181C18.0634 7.6617 18.1464 7.70601 18.1783 7.75413L18.2264 7.83422C18.3493 8.17651 17.9483 8.96165 17.0236 10.1896C16.8953 10.3608 16.7216 10.5879 16.5025 10.8708C16.086 11.4052 15.8458 11.7553 15.7821 11.9212C15.6924 12.1432 15.7303 12.3608 15.8957 12.5742Z" fill="#3F629F"/>
</svg>
