<svg width="30" height="30" viewBox="0 0 30 30" xmlns="http://www.w3.org/2000/svg">
<path d="M15 30C23.2843 30 30 23.2843 30 15C30 6.71573 23.2843 0 15 0C6.71573 0 0 6.71573 0 15C0 23.2843 6.71573 30 15 30Z"/>
<path d="M22.761 6.38366C23.4758 6.10354 24.2147 6.73175 24.0578 7.48601L20.8521 22.8768C20.7024 23.5983 19.8584 23.9233 19.2668 23.4868L14.4275 19.9189L11.9608 22.4487C11.5274 22.8926 10.78 22.7119 10.594 22.12L8.81434 16.4457L4.04387 15.0304C3.41724 14.8448 3.38103 13.9693 3.98833 13.7304L22.761 6.38366ZM20.4078 9.7987C20.6166 9.61312 20.3739 9.28572 20.1373 9.43366L9.84055 15.8478C9.65943 15.9605 9.57615 16.1825 9.6401 16.3874L11.0443 22.5808C11.0721 22.6754 11.2073 22.6621 11.2194 22.5639L11.5333 17.844C11.5454 17.7275 11.6009 17.6208 11.6879 17.5432L20.4078 9.7987Z" fill="#29293A"/>
</svg>
