<svg width="30" height="30" viewBox="0 0 30 30" xmlns="http://www.w3.org/2000/svg">
<path d="M12.2666 18.2875C14.5174 17.1203 16.7486 15.9639 19.0004 14.7961C16.7419 13.6176 14.5113 12.4544 12.2666 11.283C12.2666 13.6259 12.2666 15.9449 12.2666 18.2875Z" />
<path d="M15 0C6.71601 0 0 6.7157 0 15C0 23.2843 6.71601 30 15 30C23.284 30 30 23.2843 30 15C30 6.7157 23.284 0 15 0ZM25.2203 20.0069C24.9606 21.1332 24.0393 21.964 22.9304 22.0877C20.3042 22.3814 17.6464 22.3829 14.9994 22.3814C12.3523 22.3829 9.69391 22.3814 7.06711 22.0877C5.95826 21.964 5.03754 21.1332 4.77852 20.0069C4.40931 18.4024 4.40931 16.6515 4.40931 15C4.40931 13.3485 4.41361 11.597 4.78281 9.99315C5.04184 8.8668 5.96256 8.0357 7.07141 7.91171C9.69821 7.61831 12.3566 7.61678 15.0037 7.61831C17.6501 7.61678 20.3085 7.61831 22.9344 7.91171C24.0439 8.0357 24.9652 8.8665 25.2242 9.99315C25.5935 11.5973 25.5904 13.3485 25.5904 15C25.5904 16.6515 25.5895 18.4027 25.2203 20.0069Z" />
</svg>
