<svg width="224" height="50" viewBox="0 0 224 50" fill="none" xmlns="http://www.w3.org/2000/svg">
    <path d="M32.7496 27.9338H29.1961V35.8408H24.7359V14.2351H32.779C35.3369 14.2351 37.3095 14.804 38.6969 15.9418C40.0843 17.0796 40.778 18.686 40.778 20.7612C40.778 22.235 40.4583 23.4643 39.8188 24.4491C39.1793 25.4339 38.2107 26.2183 36.9128 26.8022L43.3083 36.1331C45.1827 32.734 46.163 28.9159 46.1576 25.0358C46.1576 12.3157 35.8246 2 23.0788 2C18.888 1.99882 14.776 3.13711 11.1843 5.29267C7.59257 7.44822 4.6567 10.5396 2.69188 14.2351H22.1941V17.8412H15.5636V35.8408H11.1033V17.8412H1.15441C0.38951 20.1645 -0.000167195 22.5945 5.38145e-08 25.04C5.38145e-08 37.7643 10.333 48.08 23.0788 48.08C26.4732 48.0833 29.8264 47.3374 32.8983 45.8959C35.9702 44.4543 38.685 42.3527 40.8483 39.7413L32.7496 27.9338Z" fill="#3F629F"/>
    <path d="M29.1959 17.8413V24.3276H32.7945C33.914 24.3276 34.7812 24.043 35.3962 23.4738C36.0112 22.9045 36.3183 22.1205 36.3176 21.1217C36.3176 20.1026 36.0276 19.3011 35.4476 18.7172C34.8676 18.1333 33.978 17.8413 32.7788 17.8413H29.1959Z" fill="#3F629F"/>
    <path d="M69.8735 15.6289V19.0766H63.1215V37.556H59.0957V19.0775H52.3457V15.6299L69.8735 15.6289Z" fill="#3F629F"/>
    <path d="M85.9749 29.2656C85.9903 30.4813 85.7974 31.6906 85.4046 32.8414C85.0589 33.8592 84.509 34.796 83.7884 35.5946C83.0848 36.3584 82.2255 36.963 81.2683 37.3676C80.241 37.7977 79.1361 38.0126 78.0221 37.9991C76.9121 38.0137 75.8111 37.7984 74.7887 37.3667C73.838 36.959 72.9848 36.3547 72.2854 35.5936C71.5636 34.7932 71.0088 33.8572 70.6534 32.8404C70.2496 31.6919 70.0509 30.4817 70.0663 29.2647C70.0495 28.0535 70.2476 26.8489 70.6514 25.7067C71.0108 24.6929 71.5712 23.7619 72.2992 22.9692C73.0042 22.2114 73.8634 21.6129 74.8192 21.2139C75.8339 20.7935 76.9236 20.5833 78.0221 20.5963C79.1249 20.5848 80.2188 20.7948 81.2387 21.2139C82.1973 21.6079 83.0575 22.2071 83.7588 22.9692C84.4774 23.7657 85.0314 24.6959 85.3888 25.7067C85.7926 26.8493 85.991 28.0541 85.9749 29.2656ZM82.0449 29.2656C82.0449 27.6239 81.691 26.3213 80.9832 25.358C80.2754 24.3946 79.2887 23.9149 78.0231 23.9188C76.7548 23.9188 75.7681 24.3985 75.063 25.358C74.3578 26.3174 74.0036 27.62 74.0003 29.2656C74.0003 30.9323 74.3545 32.251 75.063 33.2216C75.7714 34.1922 76.7581 34.6772 78.0231 34.6765C79.2913 34.6765 80.278 34.1915 80.9832 33.2216C81.6884 32.2516 82.0423 30.933 82.0449 29.2656Z" fill="#3F629F"/>
    <path d="M93.7715 27.4634C94.2569 26.9571 94.7746 26.4137 95.3245 25.8332C95.8745 25.2527 96.4132 24.6728 96.9408 24.0936C97.467 23.5131 97.9689 22.9549 98.4465 22.419C98.924 21.8831 99.3309 21.4139 99.667 21.0114H104.199C103.146 22.1934 102.034 23.4169 100.863 24.6817C99.6914 25.9465 98.5162 27.1804 97.3374 28.3835C98.0423 28.9783 98.7093 29.6166 99.3345 30.2944C100.03 31.0444 100.704 31.841 101.358 32.6842C102.012 33.5274 102.624 34.3709 103.193 35.2147C103.708 35.9697 104.183 36.7513 104.616 37.5562H100.176C99.7953 36.9034 99.3569 36.2179 98.8609 35.4994C98.3649 34.781 97.8321 34.0849 97.2624 33.4111C96.6908 32.7367 96.1096 32.0987 95.5189 31.4972C94.9783 30.9415 94.3953 30.4284 93.7754 29.9625V37.5562H89.9362V13.6354L93.7715 13V27.4634Z" fill="#3F629F"/>
    <path d="M105.747 29.3611C105.747 27.9052 105.964 26.6289 106.398 25.5323C106.831 24.4356 107.407 23.5234 108.124 22.7958C108.824 22.0802 109.666 21.5194 110.597 21.1498C111.504 20.7855 112.472 20.5976 113.45 20.5962C115.732 20.5962 117.512 21.3028 118.79 22.716C120.067 24.1292 120.706 26.2389 120.708 29.0449C120.708 29.2557 120.702 29.4931 120.692 29.7561C120.682 30.0191 120.665 30.2575 120.644 30.4683H109.713C109.819 31.7975 110.289 32.8259 111.124 33.5535C111.959 34.2811 113.168 34.6449 114.753 34.6449C115.61 34.6526 116.466 34.5677 117.305 34.3918C117.927 34.2679 118.537 34.0879 119.127 33.8539L119.634 36.9864C119.353 37.1196 119.061 37.2305 118.762 37.3183C118.345 37.4462 117.922 37.5521 117.494 37.6355C117.02 37.7301 116.507 37.8092 115.957 37.8729C115.4 37.9376 114.84 37.9705 114.279 37.9714C112.821 37.9714 111.553 37.755 110.476 37.3223C109.461 36.934 108.549 36.3171 107.812 35.5196C107.105 34.7339 106.575 33.8062 106.258 32.7989C105.908 31.6869 105.736 30.5268 105.747 29.3611ZM116.872 27.6521C116.875 27.143 116.8 26.6365 116.65 26.1499C116.518 25.702 116.3 25.2839 116.009 24.9186C115.725 24.5712 115.368 24.2904 114.963 24.0961C114.501 23.8846 113.997 23.7815 113.489 23.7946C112.952 23.7827 112.42 23.8968 111.936 24.1276C111.506 24.3383 111.123 24.6343 110.811 24.9974C110.501 25.3624 110.259 25.7806 110.098 26.2316C109.929 26.6918 109.813 27.1692 109.749 27.655L116.872 27.6521Z" fill="#3F629F"/>
    <path d="M124.768 21.5463C125.717 21.2909 126.68 21.0903 127.653 20.9454C128.953 20.7464 130.267 20.6509 131.583 20.6597C132.936 20.6597 134.066 20.8446 134.975 21.2143C135.883 21.584 136.607 22.1005 137.146 22.7638C137.704 23.469 138.094 24.2915 138.286 25.1693C138.517 26.1813 138.628 27.2166 138.62 28.2544V37.5562H134.784V28.8593C134.795 28.1003 134.737 27.342 134.61 26.5937C134.493 25.9718 134.303 25.4655 134.039 25.0747C133.777 24.6861 133.401 24.3879 132.962 24.2207C132.429 24.028 131.864 23.9368 131.297 23.9518C130.789 23.9544 130.281 23.9873 129.777 24.0503C129.251 24.1159 128.86 24.1688 128.604 24.2089V37.5562H124.768V21.5463Z" fill="#3F629F"/>
    <path d="M149.558 15.4072C152.727 15.4072 155.152 15.9874 156.832 17.1478C158.512 18.3082 159.352 20.0813 159.352 22.467C159.352 25.4419 157.883 27.4566 154.946 28.5113C155.347 28.9959 155.801 29.587 156.309 30.2844C156.817 30.9818 157.334 31.737 157.862 32.55C158.388 33.363 158.895 34.1963 159.383 35.05C159.871 35.9037 160.305 36.742 160.683 37.5648H156.214C155.812 36.805 155.379 36.0406 154.914 35.2717C154.45 34.5027 153.98 33.7507 153.504 33.0159C153.03 32.2883 152.56 31.6027 152.094 30.9591C151.629 30.3156 151.196 29.7406 150.795 29.2343C150.499 29.256 150.245 29.2658 150.034 29.2658H147.498V37.556H143.505V15.9451C144.529 15.7273 145.567 15.5847 146.611 15.5185C147.707 15.445 148.689 15.4079 149.558 15.4072ZM149.843 18.8549C148.998 18.8549 148.216 18.8877 147.497 18.9534V26.0457H149.241C150.099 26.053 150.956 26.0003 151.806 25.8881C152.546 25.7824 153.164 25.5923 153.66 25.3178C154.135 25.0653 154.526 24.6806 154.785 24.2106C155.039 23.7469 155.166 23.1559 155.166 22.4375C155.166 21.7631 155.039 21.1937 154.785 20.7294C154.532 20.2653 154.153 19.8814 153.692 19.6213C153.165 19.3295 152.592 19.1315 151.997 19.0361C151.284 18.9136 150.562 18.8533 149.839 18.8559L149.843 18.8549Z" fill="#F0B90B"/>
    <path d="M169.109 20.5964C170.376 20.5964 171.444 20.7547 172.311 21.0712C173.178 21.3878 173.868 21.8307 174.383 22.4001C174.912 22.9918 175.292 23.7009 175.492 24.4686C175.721 25.3411 175.833 26.2401 175.824 27.1421V37.1767C175.232 37.3028 174.34 37.4558 173.146 37.6357C171.806 37.8247 170.454 37.9145 169.101 37.9047C168.185 37.9125 167.27 37.817 166.376 37.62C165.618 37.4595 164.901 37.1471 164.268 36.7019C163.683 36.2761 163.215 35.7104 162.905 35.0569C162.577 34.3818 162.412 33.5485 162.412 32.5569C162.412 31.6086 162.597 30.8071 162.967 30.1524C163.33 29.5047 163.847 28.956 164.472 28.5546C165.146 28.1271 165.892 27.8266 166.675 27.6681C167.534 27.4867 168.411 27.3965 169.289 27.3992C169.734 27.4005 170.179 27.4271 170.62 27.4789C171.122 27.5378 171.62 27.6276 172.11 27.7479V27.1145C172.112 26.6875 172.059 26.262 171.952 25.8487C171.851 25.4575 171.661 25.0948 171.397 24.7888C171.112 24.4693 170.753 24.225 170.351 24.0776C169.918 23.9082 169.374 23.8238 168.719 23.8244C167.902 23.8189 167.086 23.8821 166.279 24.0136C165.665 24.109 165.061 24.2573 164.472 24.4568L163.997 21.3559C164.691 21.1365 165.401 20.9673 166.12 20.8496C167.107 20.6757 168.107 20.591 169.109 20.5964ZM169.427 34.8678C170.611 34.8678 171.509 34.8044 172.12 34.6777V30.4351C171.818 30.3529 171.511 30.2894 171.201 30.245C170.76 30.1777 170.315 30.1448 169.87 30.1464C169.44 30.1483 169.012 30.1812 168.587 30.245C168.181 30.3004 167.785 30.4181 167.415 30.5937C167.077 30.7528 166.787 30.9981 166.575 31.3049C166.352 31.6481 166.241 32.0517 166.257 32.4603C166.257 33.3679 166.543 33.9953 167.114 34.3427C167.685 34.6901 168.456 34.8651 169.427 34.8678Z" fill="#F0B90B"/>
    <path d="M180.519 21.5463C181.468 21.2909 182.431 21.0903 183.403 20.9454C184.704 20.7464 186.018 20.6509 187.333 20.6597C188.686 20.6597 189.817 20.8446 190.725 21.2143C191.632 21.584 192.356 22.1005 192.895 22.7638C193.453 23.469 193.843 24.2915 194.036 25.1693C194.266 26.1814 194.378 27.2167 194.369 28.2544V37.5562H190.535V28.8593C190.545 28.1004 190.487 27.3421 190.361 26.5937C190.244 25.9718 190.054 25.4655 189.79 25.0747C189.528 24.6861 189.151 24.3879 188.713 24.2207C188.18 24.028 187.615 23.9368 187.048 23.9518C186.539 23.9544 186.031 23.9873 185.527 24.0503C185 24.1159 184.61 24.1688 184.354 24.2089V37.5562H180.519V21.5463Z" fill="#F0B90B"/>
    <path d="M202.896 27.4634C203.381 26.9571 203.899 26.4137 204.449 25.8332C204.999 25.2527 205.538 24.6728 206.065 24.0936C206.591 23.5131 207.093 22.9549 207.571 22.419C208.048 21.8831 208.455 21.4139 208.79 21.0114H213.323C212.271 22.1934 211.159 23.4169 209.987 24.6817C208.816 25.9465 207.641 27.1804 206.462 28.3835C207.165 28.9799 207.83 29.6191 208.454 30.2974C209.149 31.0473 209.824 31.8439 210.478 32.6871C211.131 33.5303 211.743 34.3729 212.312 35.2147C212.827 35.9697 213.302 36.7513 213.735 37.5562H209.295C208.915 36.9034 208.477 36.2179 207.979 35.4994C207.482 34.781 206.949 34.0849 206.379 33.4111C205.809 32.7367 205.228 32.0987 204.636 31.4972C204.096 30.9415 203.513 30.4284 202.893 29.9625V37.5562H199.06V13.6354L202.896 13V27.4634Z" fill="#F0B90B"/>
</svg>
