<svg width="192" height="30" viewBox="0 0 192 30" fill="none" xmlns="http://www.w3.org/2000/svg">
<g clip-path="url(#clip0)">
<path d="M105.396 25.816C102.836 25.816 100.761 23.7336 100.761 21.1652C100.761 18.5968 102.836 16.5148 105.396 16.5148C107.956 16.5148 110.031 18.5968 110.031 21.1652C110.031 23.7336 107.956 25.816 105.396 25.816ZM105.396 12.749C100.763 12.749 97.0073 16.517 97.0073 21.1652C97.0073 25.8134 100.763 29.5814 105.396 29.5814C110.028 29.5814 113.784 25.8134 113.784 21.1652C113.784 16.517 110.028 12.749 105.396 12.749Z" fill="#D32E16"/>
<path d="M105.395 19.6971C104.587 19.6971 103.932 20.3544 103.932 21.1652C103.932 21.976 104.587 22.6332 105.395 22.6332C106.204 22.6332 106.859 21.976 106.859 21.1652C106.859 20.3544 106.204 19.6971 105.395 19.6971Z" fill="#D32E16"/>
<path d="M78.8813 13.4318V28.9423H82.3923V24.0027H78.8813V20.6622H82.3923V16.7727H78.8813V13.4318Z" fill="#F7A727"/>
<path d="M88.7383 13.4318H86.2266H85.9628H78.8813H82.3919V16.7727H85.9628H86.2266H88.7383C89.5108 16.7727 90.0664 16.9633 90.4527 17.3929C90.815 17.7984 90.96 18.3473 90.96 18.7292C90.96 19.0872 90.839 19.636 90.501 20.0416C90.3321 20.2086 90.1631 20.3279 89.9458 20.4472C89.6075 20.5905 89.1972 20.6622 88.69 20.6622H86.2266H85.9628H82.3919V24.0027H85.9628H86.2266H88.69C92.8433 24.0027 94.3405 20.9244 94.3405 18.7292C94.3405 16.3431 92.6017 13.4318 88.7383 13.4318Z" fill="#F7A727"/>
<path d="M82.3923 20.6622H78.8813V24.0027H82.3923V20.6622ZM82.3923 13.4318H78.8813V16.7727H82.3923V13.4318Z" fill="#EE7409"/>
<path d="M62.7467 13.4318H59.2114V28.9423H62.7467V13.4318Z" fill="#F7A727"/>
<path d="M71.2893 13.4318H65.0283V17.3518H71.2893V13.4318ZM74.8464 13.4318H74.8078V17.3518H74.8464V13.4318Z" fill="#F7A727"/>
<path d="M74.808 17.3518H71.2891V29.0442H74.808V17.3518Z" fill="#F7A727"/>
<path d="M74.808 13.4318H71.2891V17.3518H74.808V13.4318Z" fill="#EE7409"/>
<path d="M8.95456 25.3282C8.20055 25.3282 7.58936 25.9414 7.58936 26.698C7.58936 27.4546 8.20055 28.0679 8.95456 28.0679C9.70856 28.0679 10.3201 27.4546 10.3201 26.698C10.3201 25.9414 9.70856 25.3282 8.95456 25.3282Z" fill="#D32E16"/>
<path d="M30.6652 13.546H28.1535H27.8897H24.3188V16.8866H27.8897H28.1535H30.6652C31.4377 16.8866 31.9933 17.0776 32.3796 17.5071C32.7419 17.9127 32.8869 18.4616 32.8869 18.8435C32.8869 19.2014 32.7659 19.7503 32.4279 20.1559C32.259 20.3228 32.09 20.4421 31.8727 20.5614C31.5344 20.7048 31.1238 20.7764 30.6169 20.7764H28.1535H27.8897H24.3188V24.117H27.8897H28.1535H30.6169C34.7703 24.117 36.2674 21.0387 36.2674 18.8435C36.2674 16.457 34.5286 13.546 30.6652 13.546Z" fill="#E94E1B"/>
<path d="M24.319 24.117H20.8081V29.0566H24.319V24.117ZM24.319 16.8866H20.8081V20.7761H24.319V16.8866ZM24.319 13.546H20.8081C21.8096 13.546 23.0977 13.546 24.319 13.546Z" fill="#E94E1B"/>
<path d="M24.319 20.7764H20.8081V24.117H24.319V20.7764ZM24.319 13.546H20.8081V16.8866H24.319V13.546Z" fill="#E41F14"/>
<path d="M50.223 21.167L47.3211 24.0722L52.4283 29.1849L55.3306 26.2797L50.223 21.167ZM42.2167 13.1528L39.3145 16.058L44.4188 21.167L47.3207 18.2622L42.2167 13.1528Z" fill="#F28A07"/>
<path d="M44.4189 21.1671L39.2808 26.3103L42.1827 29.2155L47.3212 24.0722L44.4189 21.1671ZM52.4629 13.115L47.3212 18.2619L50.2234 21.1671L55.3652 16.0202L52.4629 13.115Z" fill="#F28A07"/>
<path d="M47.3206 18.2625L44.4185 21.1676L47.3206 24.0727L50.2228 21.1676L47.3206 18.2625Z" fill="#E9520E"/>
<path d="M8.94958 13.546L0 29.2006H0.720574L4.84452 29.0562L8.94958 21.2536L13.0793 29.0562H17.422L8.94958 13.546Z" fill="#D32E16"/>
<path d="M152.502 13.4238H147.764L140.504 20.7076V25.4606L142.954 23.0035L140.607 20.6196L142.971 18.2888L145.295 20.6545L152.502 13.4238Z" fill="#E56524"/>
<path d="M140.504 25.4606L137.055 28.9212V28.9339H140.504V25.4606ZM140.504 13.4238H137.055V24.1682L140.504 20.7076V13.4238Z" fill="#E56524"/>
<path d="M140.504 20.7076L137.055 24.1682V28.9212L140.504 25.4609V20.7076Z" fill="#D83117"/>
<path d="M145.294 20.6545L142.953 23.0036L148.787 28.9296H153.422L145.294 20.6545Z" fill="#E56524"/>
<path d="M142.971 18.2888L140.606 20.6196L142.953 23.0032L145.294 20.6545L142.971 18.2888Z" fill="#D83117"/>
<path d="M132.957 13.3612H121.27V16.4741H117.378V13.3612V16.4741H132.957V13.3612Z" fill="#F28A07"/>
<path d="M121.27 13.3612H117.378V16.4741H121.27V13.3612Z" fill="#E9520E"/>
<path d="M132.957 25.7683H121.27V28.9638H117.378V25.7683V28.9638H132.957V25.7683Z" fill="#F28A07"/>
<path d="M121.27 25.7683H117.378V28.9638H121.27V25.7683Z" fill="#E9520E"/>
<path d="M132.957 19.5444H121.27V22.7399H117.378V19.5444V22.7399H132.957V19.5444Z" fill="#F28A07"/>
<path d="M121.27 19.5444H117.378V22.7399H121.27V19.5444Z" fill="#E9520E"/>
<path d="M171.517 13.3754H165.403V17.2092H171.517V13.3754Z" fill="#F28A07"/>
<path d="M162.001 13.3754H155.622V17.2092H162.001V13.3754Z" fill="#F28A07"/>
<path d="M161.901 13.3754V28.9696H165.402V17.2092H161.901V13.3754Z" fill="#F7A727"/>
<path d="M165.402 13.3754H161.901V17.2092H165.402V13.3754Z" fill="#EE7409"/>
<path d="M190.199 8.45947C190.199 3.78688 186.415 0 181.748 0C177.081 0 173.297 3.78688 173.297 8.45947C173.297 13.1321 177.081 16.9197 181.748 16.9197C186.415 16.9197 190.199 13.1321 190.199 8.45947Z" fill="#D32E16"/>
<path d="M181.663 8.76499C181.762 8.30813 181.79 7.86219 181.793 7.40934H183.31V9.77909H181.359C181.499 9.41535 181.587 9.11782 181.663 8.76499ZM184.37 9.77909V6.34576H180.736V7.36314C180.736 7.58102 180.736 8.19101 180.632 8.67624C180.584 8.89485 180.395 9.47319 180.187 9.77909H179.78L179.226 10.8368H184.898V9.77909H184.37Z" fill="white"/>
<path d="M177.994 12.4224H176.042L177.43 9.77911H179.383L177.994 12.4224Z" fill="white"/>
<path d="M178.487 6.3465H177.43V9.3808H178.487V6.3465Z" fill="white"/>
<path d="M177.032 9.78237H175.318V6.3465H174.263V10.8401H176.476L177.032 9.78237Z" fill="white"/>
<path d="M187.672 8.78828L189.267 5.74597H191.67L190.076 8.78828H187.672Z" fill="white"/>
<path d="M191.34 5.94565L189.955 8.58857H188.002L189.388 5.94565H191.34ZM192 5.54626H191.34H189.388H189.147L189.034 5.75978L187.648 8.40307L187.342 8.98796H188.002H189.955H190.196L190.308 8.77408L191.694 6.13079L192 5.54626Z" fill="#D32E16"/>
<path d="M188.545 9.34735C188.312 9.66672 187.937 9.87441 187.512 9.87441C186.804 9.87441 186.232 9.30043 186.232 8.59296C186.232 7.88585 186.804 7.31151 187.512 7.31151C187.739 7.31151 187.95 7.37225 188.135 7.47665L188.612 6.56657C188.285 6.38725 187.91 6.28577 187.512 6.28577C186.239 6.28577 185.207 7.31842 185.207 8.59296C185.207 9.86677 186.239 10.9005 187.512 10.9005C188.277 10.9005 188.953 10.5255 189.372 9.95152L188.545 9.34735Z" fill="white"/>
</g>
<defs>
<clipPath id="clip0">
<rect width="192" height="29.5814" fill="white"/>
</clipPath>
</defs>
</svg>
