<?xml version="1.0" standalone="no"?>
<!DOCTYPE svg PUBLIC "-//W3C//DTD SVG 20010904//EN"
 "http://www.w3.org/TR/2001/REC-SVG-20010904/DTD/svg10.dtd">
<svg version="1.0" xmlns="http://www.w3.org/2000/svg"
 width="1000.000000pt" height="1000.000000pt" viewBox="0 0 1000.000000 1000.000000"
 preserveAspectRatio="xMidYMid meet">
<metadata>
Created by potrace 1.14, written by Peter Selinger 2001-2017
</metadata>
<g transform="translate(0.000000,1000.000000) scale(0.100000,-0.100000)"
fill="#000000" stroke="none">
<path d="M5169 9375 c-2 -2 -51 -6 -109 -9 -58 -2 -105 -5 -105 -6 0 -1 -48
-8 -105 -14 -56 -7 -184 -26 -200 -31 -8 -2 -34 -7 -57 -10 -23 -3 -97 -19
-165 -36 -68 -17 -130 -32 -138 -34 -80 -19 -371 -115 -455 -150 -16 -7 -50
-21 -75 -31 -123 -50 -357 -162 -365 -174 -4 -6 -10 -8 -15 -5 -5 3 -11 1 -14
-4 -3 -5 -34 -24 -68 -41 -162 -84 -527 -336 -644 -445 -6 -5 -33 -28 -60 -50
-62 -50 -385 -373 -444 -444 -25 -29 -50 -59 -55 -65 -6 -6 -35 -42 -65 -81
-30 -38 -57 -72 -61 -75 -20 -17 -249 -361 -249 -375 0 -5 -6 -16 -14 -24 -13
-16 -44 -69 -99 -171 -16 -30 -33 -59 -38 -64 -5 -6 -9 -18 -9 -27 0 -10 -3
-19 -7 -21 -11 -4 -44 -78 -35 -78 4 0 20 26 36 58 35 66 131 231 146 249 5 7
10 15 10 18 0 5 51 86 60 95 3 3 23 32 45 65 22 33 44 65 50 72 22 26 31 39
49 68 10 17 25 37 32 45 8 8 53 64 101 125 49 60 107 129 131 153 23 24 42 46
42 48 0 2 53 56 118 121 126 125 206 198 318 288 20 17 43 36 50 43 7 6 15 12
18 12 3 0 15 8 25 18 38 34 56 47 115 89 34 24 70 50 81 59 49 39 250 165 360
226 54 30 306 155 369 183 60 27 180 76 191 79 6 2 19 7 30 11 76 31 115 44
115 39 0 -4 6 -2 13 4 20 16 437 135 445 127 3 -2 12 0 21 4 9 5 33 12 54 15
21 3 71 13 110 21 40 8 91 17 113 20 23 3 59 8 80 11 76 11 100 14 159 18 33
2 89 7 124 11 128 13 583 7 706 -9 17 -3 54 -6 83 -7 28 -1 52 -5 52 -9 0 -3
12 -5 26 -5 14 1 74 -7 133 -17 58 -10 122 -21 141 -24 19 -3 39 -8 43 -11 4
-2 24 -7 45 -9 20 -3 64 -12 97 -20 33 -9 67 -17 75 -19 15 -3 137 -39 255
-75 33 -10 98 -33 145 -50 47 -18 95 -35 108 -37 12 -3 22 -9 22 -14 0 -5 7
-9 15 -9 16 0 44 -12 213 -92 56 -26 107 -48 111 -48 5 0 11 -4 13 -8 2 -4 37
-25 78 -46 41 -20 104 -55 140 -77 36 -22 72 -42 80 -46 8 -4 29 -17 46 -30
17 -13 34 -23 38 -23 4 0 22 -11 40 -25 18 -14 36 -25 39 -25 7 0 36 -23 62
-47 8 -7 16 -13 18 -13 3 0 63 -43 134 -96 70 -52 112 -80 93 -62 -20 18 -56
49 -80 68 -25 19 -46 38 -48 42 -2 4 -10 8 -17 8 -7 0 -15 4 -17 8 -8 20 -365
272 -384 272 -3 0 -24 13 -47 28 -38 26 -112 67 -245 138 -25 13 -50 24 -55
24 -6 0 -18 6 -26 14 -9 7 -56 30 -106 51 -49 21 -94 41 -100 45 -24 16 -438
161 -475 165 -8 1 -22 5 -30 8 -17 7 -131 36 -170 44 -41 8 -55 11 -55 13 0 2
-35 10 -70 15 -16 3 -43 8 -60 11 -40 10 -55 12 -90 17 -16 2 -50 7 -75 11
-25 4 -56 9 -70 11 -27 5 -114 14 -200 21 -72 6 -586 14 -591 9z"/>
<path d="M4995 8661 c-6 -11 -34 -87 -40 -111 -20 -76 -35 -142 -40 -180 -3
-25 -9 -61 -12 -80 -8 -45 -7 -214 1 -260 17 -92 11 -106 -64 -134 -25 -10
-60 -29 -77 -42 -18 -14 -33 -23 -33 -20 0 3 -23 -18 -51 -47 l-50 -52 -172
175 c-95 96 -194 194 -222 216 -84 69 -206 144 -260 160 -5 2 -28 9 -49 17
-61 22 -79 9 -100 -71 -21 -84 -26 -110 -41 -200 -7 -40 -7 -207 0 -247 29
-164 52 -229 110 -300 l33 -40 7 -160 c10 -191 11 -603 2 -698 -7 -66 -11 -94
-23 -159 -4 -18 -8 -40 -9 -48 -1 -8 -5 -23 -9 -32 -11 -32 -15 -48 -13 -51 1
-1 -11 -23 -26 -49 -15 -26 -27 -52 -27 -58 0 -6 14 -31 30 -55 17 -24 30 -48
30 -53 0 -6 3 -12 8 -14 4 -1 23 -28 42 -58 19 -30 43 -64 52 -74 10 -11 21
-29 24 -40 4 -11 17 -31 30 -45 13 -14 24 -29 24 -33 0 -10 91 -141 105 -150
5 -4 7 -8 3 -8 -4 0 -1 -8 7 -17 8 -10 43 -59 77 -110 82 -120 295 -422 347
-493 23 -30 49 -66 59 -79 9 -13 23 -30 30 -37 6 -7 12 -15 12 -19 0 -4 6 -12
13 -19 6 -7 21 -25 32 -40 68 -95 236 -307 348 -441 174 -207 372 -385 429
-385 21 0 30 6 94 70 81 80 285 330 429 526 11 15 62 84 112 153 51 69 96 131
100 136 8 10 157 220 290 410 34 50 67 95 73 102 5 7 10 16 10 22 0 5 3 11 8
13 4 2 36 48 72 103 36 55 68 101 72 103 4 2 12 19 18 38 10 29 8 40 -9 76
-28 57 -48 161 -44 223 5 79 21 137 95 345 38 107 71 200 72 205 9 34 61 143
106 220 22 39 47 84 55 102 8 17 19 34 25 38 5 3 10 15 10 26 0 10 4 19 8 19
9 0 30 79 33 125 3 41 -11 117 -25 134 -6 8 -10 16 -8 18 1 1 2 4 1 6 0 1 -2
9 -4 17 -1 8 -8 34 -14 57 -11 40 -4 74 20 93 19 15 28 120 16 185 -16 92
-121 227 -252 326 -54 40 -70 66 -80 128 -11 63 -78 131 -145 147 -54 13 -155
6 -239 -17 -105 -28 -87 -21 -205 -70 -85 -36 -101 -36 -159 1 -84 53 -163 87
-244 106 -37 8 -227 9 -279 1 -23 -4 -61 -14 -85 -22 -34 -12 -44 -13 -50 -3
-12 21 -233 315 -260 345 -13 16 -40 48 -59 73 -51 66 -80 85 -95 61z"/>
<path d="M9513 7740 c-18 -27 -33 -54 -33 -59 0 -5 19 -53 41 -107 23 -55 45
-111 49 -126 l8 -26 -36 25 c-20 13 -39 27 -42 31 -12 18 -110 73 -119 68 -6
-4 -24 -27 -41 -53 l-32 -46 24 -19 c47 -37 352 -248 360 -248 10 0 69 88 73
108 1 9 -1 22 -5 27 -11 15 -80 191 -80 204 0 6 -5 11 -12 11 -6 0 -9 3 -5 6
6 6 76 -32 87 -47 3 -3 29 -21 57 -38 52 -32 73 -34 73 -5 0 8 5 14 10 14 11
0 47 67 39 73 -2 2 -56 39 -119 83 -63 43 -121 84 -128 91 -7 7 -17 13 -22 13
-5 0 -15 6 -22 13 -21 21 -75 57 -85 57 -4 0 -23 -23 -40 -50z"/>
<path d="M9383 7751 c-6 -10 -9 -28 -6 -40 8 -30 -22 -71 -52 -71 -34 0 -53
-37 -29 -54 13 -10 26 -11 51 -3 52 16 87 56 82 93 0 4 4 10 9 13 13 8 -16 81
-32 81 -6 0 -16 -8 -23 -19z"/>
<path d="M9218 7317 l-35 -53 22 -47 c13 -26 22 -47 19 -47 -2 0 12 -36 31
-80 19 -44 30 -80 25 -80 -6 0 -10 5 -10 11 0 5 -4 8 -9 4 -5 -3 -12 -1 -16 5
-3 5 -32 26 -63 47 -31 21 -58 41 -60 45 -7 15 -43 8 -49 -9 -4 -10 -17 -31
-30 -46 -13 -16 -23 -32 -23 -37 0 -5 55 -47 123 -94 67 -46 127 -88 132 -93
49 -40 127 -85 133 -77 4 5 22 31 39 56 l32 46 -54 131 c-37 91 -48 128 -37
121 9 -6 52 -35 95 -65 43 -30 83 -52 90 -49 7 3 26 27 42 53 36 55 48 37
-100 141 -202 142 -244 170 -253 170 -5 0 -25 -24 -44 -53z"/>
<path d="M8962 6953 c-59 -84 -60 -120 -8 -199 20 -30 36 -58 36 -64 0 -12
-17 -14 -22 -2 -7 16 -118 81 -130 76 -7 -3 -28 -27 -45 -54 l-33 -49 48 -36
c26 -19 58 -44 72 -55 14 -11 31 -20 38 -20 6 0 12 -3 12 -7 0 -5 21 -21 48
-38 26 -16 49 -32 52 -35 3 -3 25 -19 50 -35 25 -17 47 -33 48 -37 8 -18 24
-5 62 51 l40 60 -70 47 c-39 26 -73 51 -76 56 -8 12 63 9 135 -6 59 -13 64
-13 82 5 10 10 19 21 19 24 0 3 14 24 31 48 l31 42 -64 13 c-35 7 -100 14
-145 14 -80 2 -81 3 -87 29 -3 15 -12 33 -20 41 -18 19 -22 47 -9 78 9 22 6
27 -28 52 -22 15 -41 28 -43 28 -3 0 -13 -12 -24 -27z"/>
<path d="M1482 6849 c-30 -70 -23 -72 10 -4 15 30 24 55 20 55 -4 0 -17 -23
-30 -51z"/>
<path d="M7986 6797 c-20 -29 -36 -57 -36 -63 0 -11 28 -86 56 -151 8 -17 14
-36 14 -43 0 -6 7 -24 15 -40 9 -17 13 -30 11 -30 -3 0 -47 29 -98 66 l-93 65
-20 -25 c-58 -73 -67 -88 -59 -95 26 -24 124 -91 132 -91 5 0 15 -7 22 -15 11
-13 112 -85 168 -120 9 -5 22 -16 30 -22 22 -21 29 -16 71 46 30 43 37 61 28
70 -6 6 -8 11 -5 11 4 0 -11 44 -33 98 -22 53 -43 108 -45 121 -5 22 -3 22 43
-12 129 -94 163 -110 163 -75 0 8 20 37 58 83 5 6 1 14 -9 20 -9 5 -96 65
-192 133 -96 67 -177 122 -180 122 -2 0 -21 -24 -41 -53z"/>
<path d="M7857 6810 c-10 -14 -14 -33 -11 -47 8 -32 -20 -73 -51 -73 -25 0
-60 -39 -47 -52 4 -4 19 -9 33 -10 90 -7 165 115 111 182 l-19 23 -16 -23z"/>
<path d="M8680 6522 c-14 -9 -38 -30 -53 -47 -31 -33 -85 -131 -67 -120 9 5 9
2 2 -11 -28 -56 22 -166 100 -216 69 -45 103 -58 146 -60 71 -2 107 11 149 51
90 85 112 177 64 263 -14 27 -30 48 -35 48 -5 0 -30 -16 -57 -36 l-47 -37 20
-39 c25 -48 17 -81 -24 -106 -24 -14 -32 -15 -65 -3 -104 38 -155 122 -107
175 17 18 35 26 58 26 31 0 35 4 56 55 13 31 19 59 15 63 -15 15 -130 10 -155
-6z"/>
<path d="M7677 6356 c-33 -49 -36 -58 -26 -83 6 -15 11 -30 11 -33 0 -3 5 -16
10 -30 5 -14 20 -52 33 -85 13 -33 26 -68 30 -78 7 -17 6 -18 -16 -5 -13 7
-26 16 -29 19 -5 5 -112 78 -137 92 -12 7 -83 -84 -83 -106 1 -12 73 -67 89
-67 5 0 11 -4 13 -8 4 -11 264 -192 275 -192 4 0 25 26 45 58 l38 58 -30 72
c-16 40 -36 92 -44 115 -8 23 -18 50 -22 61 -5 12 27 -5 89 -48 52 -36 97 -66
100 -66 2 0 17 19 33 43 16 23 33 45 38 48 15 11 -2 38 -36 58 -18 11 -38 24
-43 29 -6 5 -24 17 -40 28 -17 10 -32 21 -35 24 -3 4 -41 31 -85 60 -44 30
-82 58 -85 61 -5 6 -46 29 -52 29 -2 0 -20 -25 -41 -54z"/>
<path d="M8429 6182 c-13 -16 -28 -36 -34 -45 -5 -9 -43 -64 -83 -122 -40 -58
-71 -109 -68 -114 3 -4 31 -26 63 -47 32 -21 59 -42 61 -46 2 -4 18 -15 36
-23 19 -9 42 -24 52 -33 32 -30 164 -115 169 -110 3 3 52 72 109 154 93 133
103 150 88 161 -9 7 -22 16 -27 21 -29 24 -49 30 -62 17 -7 -8 -13 -18 -13
-24 0 -6 -3 -11 -7 -11 -5 0 -24 -25 -43 -55 -19 -30 -38 -54 -42 -55 -5 0 -8
-7 -8 -15 0 -13 -4 -14 -22 -4 -53 29 -53 34 -1 112 26 39 51 74 56 75 16 8 4
29 -33 54 l-39 27 -23 -32 c-12 -18 -26 -33 -30 -35 -4 -2 -8 -8 -8 -14 0 -6
-11 -23 -24 -39 -13 -15 -26 -33 -28 -39 -5 -16 -56 8 -54 25 1 8 21 39 44 70
23 31 42 58 42 61 0 3 9 14 19 26 20 20 20 21 -7 42 -61 49 -57 48 -83 18z"/>
<path d="M61 6039 c7 -15 208 -301 227 -324 4 -5 30 -41 57 -80 27 -38 53 -74
58 -80 4 -5 46 -64 93 -130 46 -66 90 -127 97 -136 7 -8 17 -23 22 -32 15 -23
188 -267 200 -281 6 -6 30 -40 55 -76 24 -36 49 -70 55 -77 5 -6 37 -50 70
-98 71 -102 251 -356 263 -370 4 -5 18 -26 32 -45 13 -19 27 -37 30 -40 3 -3
10 -12 15 -22 12 -19 146 -209 158 -223 4 -5 35 -48 68 -95 33 -47 67 -94 75
-105 8 -11 75 -105 149 -210 75 -104 142 -198 150 -208 8 -9 15 -21 15 -26 0
-5 3 -11 8 -13 4 -1 27 -32 51 -68 25 -36 48 -67 51 -70 6 -5 186 -258 205
-288 6 -9 26 -37 45 -63 19 -26 60 -82 90 -126 30 -43 58 -82 62 -88 33 -44
76 -105 92 -130 11 -16 28 -38 38 -49 10 -11 18 -25 18 -32 0 -7 3 -14 8 -16
12 -5 72 -85 72 -96 0 -6 3 -12 8 -14 4 -1 41 -50 82 -108 41 -58 78 -106 82
-108 5 -2 8 -10 8 -18 0 -8 5 -14 10 -14 6 0 10 -6 10 -14 0 -8 3 -16 8 -18 4
-1 41 -50 81 -108 41 -58 77 -107 80 -110 3 -3 11 -13 16 -22 9 -15 290 -412
323 -456 7 -9 28 -38 46 -64 l33 -47 20 22 c10 12 34 42 52 67 71 97 243 337
270 377 54 77 76 108 81 113 3 3 18 22 34 44 l29 38 -19 32 c-26 44 -118 170
-126 174 -5 2 -8 8 -8 13 0 11 -81 122 -92 127 -5 2 -8 9 -8 16 0 7 -8 21 -18
32 -10 10 -37 46 -60 79 -38 55 -221 312 -256 360 -8 11 -96 135 -196 275 -99
140 -187 263 -195 273 -8 9 -15 21 -15 26 0 5 -4 11 -8 13 -4 2 -43 53 -85
113 -43 61 -86 121 -95 134 -9 13 -23 29 -29 36 -7 8 -13 16 -13 20 0 5 -48
73 -78 110 -4 6 -23 33 -42 60 -18 28 -36 52 -39 55 -3 3 -22 28 -41 55 -19
28 -38 52 -42 53 -4 2 -8 8 -8 13 0 7 -94 143 -110 159 -3 3 -9 13 -15 22 -13
22 -137 197 -150 211 -5 7 -23 32 -40 57 -16 25 -32 47 -35 50 -3 3 -33 43
-65 90 -33 47 -63 90 -68 95 -4 6 -125 174 -268 375 -143 201 -266 373 -274
383 -8 9 -15 21 -15 25 0 4 -14 22 -30 41 -17 18 -30 37 -30 40 0 4 -8 16 -17
27 -10 11 -22 27 -28 36 -15 24 -96 140 -107 152 -5 6 -34 47 -65 91 -32 44
-62 83 -68 87 -6 5 -6 8 0 8 6 0 6 3 -1 8 -8 6 -35 42 -86 116 -5 7 -170 11
-487 11 -435 0 -478 -1 -470 -16z"/>
<path d="M1300 6050 l-21 -5 20 -25 c11 -14 58 -79 105 -145 47 -66 89 -124
93 -130 5 -5 28 -37 51 -70 22 -33 70 -100 106 -150 35 -49 79 -112 98 -138
18 -27 38 -54 43 -60 6 -7 26 -34 45 -62 19 -27 38 -54 43 -60 4 -5 30 -41 57
-80 27 -38 53 -74 57 -80 5 -5 31 -41 58 -80 27 -38 54 -76 62 -83 7 -7 13
-18 13 -23 0 -5 9 -20 20 -32 12 -12 47 -60 80 -107 32 -47 63 -90 68 -95 5
-6 17 -24 28 -40 10 -17 21 -32 24 -35 16 -15 60 -80 60 -88 0 -6 3 -12 8 -14
7 -3 163 -218 187 -256 6 -10 12 -19 15 -22 3 -3 39 -52 80 -110 41 -58 77
-107 80 -110 3 -3 10 -13 15 -22 16 -26 189 -268 203 -283 6 -8 12 -18 12 -23
0 -6 4 -12 8 -14 4 -1 23 -25 42 -53 19 -27 45 -63 57 -80 45 -60 54 -72 154
-215 57 -80 105 -147 108 -150 3 -3 11 -13 16 -22 13 -22 507 -716 520 -731 6
-7 22 -28 35 -47 13 -19 27 -37 30 -40 3 -3 10 -12 15 -21 23 -38 96 -138 103
-143 4 -2 35 35 69 82 99 138 233 325 253 352 52 69 160 224 160 230 0 3 -8
15 -17 26 -10 11 -22 27 -28 36 -36 55 -70 104 -79 115 -27 30 -36 43 -36 48
0 4 -6 12 -12 19 -7 8 -19 22 -25 32 -19 29 -96 138 -106 149 -27 33 -97 136
-97 143 0 4 -9 14 -20 22 -11 8 -20 18 -20 22 0 4 -58 89 -130 188 -71 99
-130 185 -130 190 0 4 -4 10 -8 12 -10 4 7 -20 -482 668 -233 327 -426 597
-429 600 -3 3 -10 12 -16 22 -20 33 -99 143 -112 156 -7 7 -13 17 -13 21 0 4
-8 17 -17 28 -18 21 -26 32 -179 248 -47 66 -93 130 -102 142 -9 13 -75 106
-147 207 l-130 184 -73 -1 c-39 -1 -72 0 -72 3 0 3 -175 5 -389 5 -215 0 -399
-2 -411 -5z"/>
<path d="M2520 6040 c0 -4 50 -76 110 -159 61 -84 110 -156 110 -161 0 -4 4
-10 8 -12 7 -2 66 -83 203 -277 49 -69 732 -1026 761 -1066 115 -158 199 -276
223 -313 6 -9 20 -27 33 -41 12 -14 22 -31 22 -38 0 -6 4 -13 8 -15 4 -1 64
-82 132 -178 68 -96 132 -184 142 -196 10 -11 15 -24 11 -27 -3 -4 -2 -7 4 -7
8 0 58 -66 98 -129 6 -9 13 -18 16 -21 3 -3 39 -52 79 -110 41 -58 77 -107 80
-110 3 -3 10 -12 15 -22 6 -9 37 -54 70 -99 33 -46 63 -88 67 -93 7 -10 57 42
58 60 0 6 11 21 25 34 14 13 25 29 25 36 0 7 4 14 8 16 7 2 47 57 205 278 55
76 128 176 135 186 37 44 38 42 -118 260 -82 115 -186 262 -232 327 -46 64
-134 187 -195 272 -62 86 -113 160 -113 164 0 5 -3 11 -8 13 -4 2 -41 50 -82
108 -40 58 -78 107 -82 108 -4 2 -8 7 -8 12 0 7 -164 242 -203 290 -7 8 -21
28 -31 45 -11 16 -23 34 -28 40 -5 5 -50 69 -101 140 -50 72 -95 132 -99 133
-4 2 -8 8 -8 13 0 8 -41 69 -78 114 -4 6 -23 33 -42 60 -18 28 -37 52 -40 55
-4 3 -26 34 -50 70 -24 36 -48 70 -52 75 -35 43 -108 148 -108 155 0 5 -8 11
-17 14 -28 8 -953 4 -953 -4z"/>
<path d="M7392 5946 c-48 -78 -47 -101 0 -180 22 -37 38 -70 35 -73 -5 -5 -47
14 -57 26 -3 3 -25 19 -48 36 -39 26 -45 27 -53 12 -5 -9 -25 -36 -44 -61 -26
-34 -31 -47 -21 -55 6 -5 93 -67 191 -136 l180 -125 23 27 c36 45 39 48 52 73
13 25 11 29 -50 70 -80 54 -83 58 -62 69 11 6 22 8 25 5 3 -3 41 -11 86 -18
l81 -13 37 56 c21 31 42 59 48 63 18 13 -8 25 -82 37 -89 14 -148 14 -174 1
-16 -9 -27 -1 -17 13 1 1 -10 23 -25 48 -30 51 -33 70 -15 99 13 21 7 28 -53
64 -25 15 -26 14 -57 -38z"/>
<path d="M8167 5807 c-54 -72 -62 -88 -46 -98 44 -26 123 -86 133 -101 12 -20
-9 -64 -42 -86 -16 -11 -29 -6 -96 38 -42 27 -80 50 -84 50 -4 -1 -24 -25 -44
-56 l-37 -54 62 -45 c34 -24 67 -49 73 -54 51 -43 138 -45 191 -5 35 26 72 92
73 127 0 25 9 22 78 -28 l61 -45 41 55 c22 30 40 58 40 62 0 4 -20 22 -45 38
-24 17 -45 33 -45 38 0 4 -5 7 -11 7 -6 0 -48 26 -92 58 -45 32 -105 75 -134
95 l-52 37 -24 -33z"/>
<path d="M7123 5520 c-69 -30 -140 -133 -147 -213 -8 -87 50 -174 155 -231 58
-32 133 -38 189 -14 70 30 144 130 154 208 5 42 -18 117 -44 144 -19 19 -19
19 -42 -2 -13 -11 -36 -32 -53 -45 -23 -20 -27 -28 -18 -39 41 -49 27 -118
-29 -137 -24 -9 -37 -7 -71 10 -59 30 -107 82 -107 118 0 45 35 81 78 81 36 0
38 2 61 60 13 33 21 63 18 66 -14 14 -108 11 -144 -6z"/>
<path d="M7867 5375 l-37 -54 36 -83 c19 -46 37 -91 39 -100 2 -9 11 -28 20
-42 11 -16 13 -26 6 -26 -12 0 -114 70 -119 82 -2 5 -9 8 -17 8 -7 0 -18 7
-25 15 -20 24 -33 17 -72 -39 l-37 -54 57 -38 c31 -22 61 -43 67 -47 63 -49
258 -178 264 -175 5 2 25 25 43 52 l34 50 -38 95 c-21 53 -43 107 -50 121 -7
14 -14 28 -16 33 -4 8 20 5 28 -3 14 -16 155 -110 164 -110 6 0 26 23 44 51
26 40 31 53 21 65 -6 8 -17 14 -24 14 -8 0 -15 3 -17 8 -5 11 -85 72 -95 72
-5 0 -20 11 -35 25 -15 14 -30 25 -33 25 -5 0 -118 79 -142 100 -21 17 -29 12
-66 -45z"/>
<path d="M6841 5152 c-12 -15 -25 -32 -31 -39 -5 -7 -10 -16 -10 -21 0 -5 -7
-15 -15 -22 -9 -8 -12 -17 -6 -24 4 -6 18 -36 29 -66 11 -30 32 -85 46 -122
19 -51 22 -66 11 -62 -8 4 -15 10 -15 15 0 5 -5 9 -10 9 -6 0 -34 17 -63 38
-73 54 -100 68 -105 53 -2 -6 -9 -17 -15 -24 -30 -32 -55 -75 -49 -84 4 -5 30
-24 57 -43 28 -18 60 -42 73 -53 12 -11 22 -16 22 -11 0 5 4 4 8 -2 4 -5 36
-30 72 -55 36 -24 67 -46 70 -49 19 -19 73 -51 78 -46 3 3 22 29 42 57 36 51
37 52 23 93 -8 22 -21 55 -30 73 -8 17 -16 37 -17 45 -1 7 -10 30 -19 52 -9
21 -17 43 -17 48 0 5 43 -20 95 -56 l94 -66 41 54 c22 31 40 57 40 60 0 6
-119 91 -260 187 -36 24 -70 48 -77 54 -43 36 -41 36 -62 7z"/>
<path d="M6685 5126 c-10 -15 -14 -33 -10 -49 8 -31 -20 -67 -52 -67 -19 0
-53 -32 -53 -50 0 -6 33 -12 58 -11 36 2 46 8 78 44 37 44 44 85 22 132 -14
31 -23 32 -43 1z"/>
<path d="M7623 5034 c3 -3 2 -11 -3 -18 -49 -59 -60 -75 -60 -84 0 -6 -4 -12
-8 -14 -5 -1 -34 -40 -66 -86 l-57 -83 23 -19 c13 -11 26 -19 31 -20 4 0 15
-7 25 -16 9 -9 81 -60 159 -114 156 -108 150 -107 190 -40 9 17 21 30 25 30
20 0 5 38 -22 53 -16 10 -35 23 -43 30 -7 7 -20 17 -29 22 -9 6 -52 35 -96 65
l-80 54 17 26 c8 14 18 27 21 30 14 13 83 120 79 123 -40 33 -129 83 -106 61z"/>
<path d="M9750 4979 c0 -5 5 -7 10 -4 6 3 10 8 10 11 0 2 -4 4 -10 4 -5 0 -10
-5 -10 -11z"/>
<path d="M9751 4892 c-1 -37 -3 -83 -5 -102 -2 -19 -7 -76 -10 -126 -4 -51 -9
-102 -11 -115 -3 -13 -7 -44 -10 -69 -3 -25 -8 -63 -11 -85 -3 -22 -7 -49 -8
-60 -1 -11 -6 -33 -9 -50 -4 -16 -9 -43 -12 -60 -2 -16 -6 -41 -9 -55 -3 -14
-8 -38 -11 -55 -4 -16 -15 -68 -27 -115 -11 -47 -21 -92 -23 -100 -2 -8 -4
-15 -5 -15 -1 0 -3 -7 -5 -15 -16 -82 -102 -337 -155 -465 -23 -55 -43 -104
-44 -110 -12 -52 -242 -502 -273 -533 -7 -7 -13 -20 -13 -28 0 -8 -4 -14 -10
-14 -5 0 -10 -5 -10 -11 0 -10 -184 -287 -199 -299 -3 -3 -19 -23 -35 -45 -30
-41 -133 -171 -151 -191 -5 -6 -32 -37 -60 -69 -72 -84 -286 -299 -380 -381
-68 -60 -114 -98 -228 -190 -46 -37 -169 -126 -237 -170 -41 -27 -77 -52 -80
-55 -3 -3 -9 -8 -15 -10 -26 -10 -211 -124 -217 -133 -4 -6 -8 -7 -8 -3 0 5
-15 0 -32 -11 -35 -21 -200 -106 -208 -107 -3 -1 -34 -15 -70 -31 -36 -17
-119 -52 -185 -78 -66 -27 -129 -52 -140 -56 -24 -10 -57 -20 -68 -20 -4 0
-21 -7 -37 -15 -17 -9 -30 -13 -30 -10 0 3 -17 -2 -37 -10 -38 -15 -277 -81
-323 -90 -14 -3 -34 -7 -45 -9 -89 -20 -166 -35 -200 -40 -22 -3 -53 -8 -69
-11 -15 -3 -49 -8 -75 -10 -25 -2 -46 -5 -46 -5 0 -3 -66 -10 -130 -15 -38 -2
-70 -5 -70 -5 0 -11 -521 -16 -635 -6 -41 3 -102 8 -135 11 -60 5 -264 32
-307 41 -13 2 -36 6 -53 8 -34 5 -48 8 -165 35 -47 11 -96 22 -110 25 -14 3
-41 10 -60 15 -42 13 -40 13 -40 1 0 -6 3 -9 8 -9 4 1 9 0 12 -1 3 -1 12 -3
20 -5 38 -8 128 -34 151 -43 15 -6 29 -8 32 -6 3 3 14 1 24 -4 10 -6 34 -13
53 -16 19 -3 46 -8 60 -11 74 -17 129 -27 160 -31 19 -2 49 -6 65 -8 17 -3 30
-5 30 -6 0 -3 41 -10 100 -16 33 -3 74 -8 90 -10 196 -23 758 -23 880 0 11 2
47 7 80 10 33 4 71 9 85 11 14 2 45 7 70 10 25 3 52 8 60 10 8 2 33 6 55 10
22 3 47 7 55 10 8 2 26 6 40 9 14 3 34 7 45 10 11 2 49 11 85 19 36 9 104 26
153 40 48 14 87 23 87 20 0 -3 6 -1 13 4 6 6 50 23 97 38 73 24 171 60 245 90
11 5 23 7 28 7 4 -1 7 3 7 8 0 5 3 9 8 9 4 -1 10 0 15 1 4 1 10 3 15 5 9 2
127 56 202 93 30 14 57 30 58 34 2 4 9 8 16 8 18 0 66 24 66 33 0 4 5 7 11 7
6 0 45 20 86 45 40 25 76 45 79 45 3 0 38 23 79 50 41 28 79 50 85 50 5 0 10
4 10 8 0 4 15 16 33 27 36 21 205 143 225 162 8 8 30 26 50 41 37 28 83 65
112 92 9 8 34 30 55 49 101 85 334 322 415 421 19 23 43 52 53 64 10 11 28 34
40 49 12 15 30 38 41 50 10 12 39 51 64 87 26 36 49 67 52 70 14 13 50 70 50
80 0 5 3 10 8 10 4 0 30 36 57 81 28 44 58 92 67 107 55 88 184 338 236 457
65 151 148 364 157 407 2 9 8 25 13 35 6 10 10 20 10 23 -1 3 7 32 17 65 9 33
18 65 19 70 1 6 5 16 10 23 4 7 5 16 2 19 -3 3 -1 12 5 20 6 7 9 13 6 13 -4 0
0 18 8 41 8 23 13 45 10 49 -3 5 -1 11 4 15 5 3 10 13 9 23 0 9 8 51 17 92 9
41 19 89 21 105 10 67 16 111 17 123 0 6 3 12 6 12 3 0 6 15 6 33 1 17 4 61 9
97 16 136 18 157 21 242 2 48 6 92 10 97 3 6 1 11 -5 11 -6 0 -8 5 -4 12 9 14
11 178 3 184 -4 2 -7 -27 -8 -64z"/>
<path d="M6508 4676 l-38 -54 26 -68 c14 -38 32 -89 41 -114 9 -25 20 -49 24
-54 5 -6 9 -16 9 -24 0 -8 -24 3 -62 30 -35 24 -65 45 -68 48 -3 3 -18 14 -33
24 -28 17 -29 17 -45 -1 -10 -10 -29 -36 -43 -58 l-26 -40 106 -73 c58 -40
113 -78 121 -85 59 -48 164 -110 168 -99 2 7 10 19 18 26 8 8 14 19 14 25 0 6
3 11 8 11 4 0 13 9 20 20 11 18 6 39 -37 153 -27 72 -49 133 -47 134 1 1 26
-16 56 -38 30 -21 63 -42 73 -45 9 -4 17 -10 17 -14 0 -4 11 -12 24 -18 20 -9
26 -7 45 18 11 16 21 32 21 35 0 3 9 15 20 27 19 21 19 21 -3 38 -59 45 -358
250 -365 250 -4 0 -24 -24 -44 -54z"/>
<path d="M7375 4607 c-88 -29 -169 -146 -168 -241 1 -150 208 -284 343 -223
50 23 76 48 115 113 60 99 43 201 -46 278 -77 67 -175 97 -244 73z m102 -151
c17 -8 45 -29 62 -46 64 -65 22 -156 -66 -143 -18 3 -33 9 -33 14 0 5 -7 9
-15 9 -30 0 -94 77 -89 108 1 6 2 16 3 22 0 5 13 21 27 35 29 29 58 29 111 1z"/>
<path d="M7943 4275 c-28 -12 -73 -52 -110 -98 -6 -8 -20 -32 -32 -55 -65
-127 -17 -252 121 -321 102 -51 182 -38 263 44 94 93 124 198 82 285 -12 25
-29 46 -37 47 -8 2 -37 -17 -64 -41 -49 -43 -49 -44 -34 -68 21 -31 24 -57 11
-88 -25 -61 -82 -74 -145 -34 -51 32 -88 72 -88 96 0 25 18 67 36 85 9 9 32
17 52 18 34 2 38 6 63 66 20 46 24 66 16 71 -20 12 -100 8 -134 -7z"/>
<path d="M7078 4242 c-8 -9 -39 -53 -69 -97 -30 -44 -56 -82 -59 -85 -10 -10
-80 -114 -77 -116 1 -1 40 -28 87 -60 47 -32 87 -62 88 -66 2 -4 9 -8 15 -8 7
0 31 -17 55 -38 41 -36 42 -38 28 -64 -14 -27 -13 -28 27 -58 38 -28 42 -29
59 -13 10 9 18 20 18 25 0 5 9 22 21 37 23 32 28 86 9 120 -9 19 -65 63 -199
159 l-24 18 24 37 c26 39 33 43 52 27 7 -6 44 -33 82 -60 39 -27 75 -54 82
-60 7 -5 15 -10 18 -10 4 0 21 -11 39 -25 35 -27 56 -32 56 -14 0 6 14 28 30
49 37 47 38 63 3 81 -16 8 -30 17 -33 20 -3 3 -27 20 -55 39 -27 19 -52 36
-55 39 -3 3 -12 11 -22 16 -9 6 -49 33 -90 61 -98 68 -93 66 -110 46z"/>
<path d="M6266 4242 c-2 -2 -10 -5 -18 -6 -26 -4 -64 -30 -95 -65 -47 -52 -54
-61 -49 -61 3 0 -3 -19 -13 -41 -47 -105 15 -226 148 -291 101 -49 208 -20
277 74 71 97 78 180 22 260 l-19 27 -49 -35 c-28 -20 -52 -40 -55 -44 -3 -5 4
-24 15 -43 17 -28 18 -39 9 -65 -24 -71 -89 -75 -174 -10 -49 37 -66 81 -46
124 12 27 55 48 84 40 14 -3 23 6 38 42 10 26 23 54 28 64 8 13 5 18 -17 23
-32 9 -81 13 -86 7z"/>
<path d="M1175 4002 c1 -9 5 -30 8 -47 4 -16 9 -43 12 -60 25 -157 142 -529
220 -700 12 -27 33 -75 46 -105 63 -148 192 -378 318 -565 51 -77 96 -142 100
-145 3 -3 26 -32 50 -65 25 -33 47 -62 50 -65 3 -3 29 -32 57 -65 28 -33 61
-73 75 -88 114 -134 491 -477 447 -408 -7 12 -16 21 -19 21 -10 0 -140 135
-254 265 -33 38 -69 78 -80 91 -28 32 -45 53 -85 104 -19 25 -37 47 -40 50
-62 62 -400 569 -400 600 0 6 -3 10 -7 10 -5 0 -13 10 -19 23 -6 12 -45 87
-86 167 -78 152 -145 300 -201 441 -19 46 -37 93 -42 104 -4 11 -9 25 -10 30
-4 17 -66 199 -76 220 -13 32 -49 161 -49 178 0 9 -4 18 -8 21 -5 3 -8 -3 -7
-12z"/>
<path d="M7589 3813 c-18 -27 -36 -49 -41 -51 -23 -10 -2 -43 52 -81 33 -23
60 -44 60 -46 0 -6 -62 -97 -77 -113 -10 -11 -23 -6 -72 27 -33 23 -64 41 -68
41 -10 0 -93 -115 -93 -127 1 -4 56 -45 123 -91 67 -46 151 -103 186 -128 62
-43 91 -54 91 -34 0 6 16 33 35 60 19 27 35 54 35 58 0 5 -31 30 -70 56 -38
25 -70 50 -70 55 0 5 11 23 25 39 13 16 22 31 20 34 -3 2 6 15 20 28 l25 24
75 -53 74 -52 28 42 c15 23 36 53 45 68 22 32 30 23 -142 141 -74 51 -138 98
-142 104 -5 7 -8 7 -8 1 0 -6 -3 -6 -8 1 -9 13 -54 44 -64 44 -4 0 -22 -21
-39 -47z"/>
<path d="M5985 3832 c-45 -8 -75 -26 -119 -73 -25 -27 -43 -49 -41 -49 3 0 -1
-10 -10 -23 -8 -12 -16 -33 -18 -45 -2 -12 -6 -24 -9 -27 -3 -3 -4 -23 -1 -43
19 -146 189 -259 330 -220 38 10 123 83 123 106 0 6 5 12 10 12 6 0 10 7 10
15 0 8 4 15 8 15 9 0 10 2 18 72 6 47 -11 102 -44 140 -13 16 -17 15 -55 -15
-72 -56 -72 -55 -51 -78 24 -27 23 -84 -2 -109 -21 -22 -84 -35 -84 -19 0 6
-4 8 -9 5 -5 -4 -31 12 -59 33 -50 40 -67 76 -56 118 7 25 60 56 84 50 23 -6
30 3 58 70 l21 53 -27 6 c-46 9 -56 10 -77 6z"/>
<path d="M6811 3787 c-32 -6 -56 -21 -90 -55 -113 -113 -116 -243 -11 -343 85
-80 196 -105 278 -62 51 26 69 45 109 111 71 119 15 258 -133 328 -63 30 -90
33 -153 21z m71 -144 c24 -9 60 -34 82 -55 34 -35 38 -43 33 -75 -14 -84 -105
-91 -194 -14 -64 55 -46 138 34 160 2 1 22 -7 45 -16z"/>
<path d="M6503 3417 c-75 -88 -74 -95 8 -149 27 -17 49 -34 49 -38 0 -10 -57
-97 -68 -103 -8 -6 -109 57 -123 76 -4 5 -27 -18 -52 -50 l-45 -59 25 -20 c14
-10 55 -40 92 -66 36 -26 71 -51 77 -55 5 -4 17 -12 26 -18 9 -5 50 -34 92
-62 l75 -53 22 33 c13 17 26 34 30 37 15 12 30 53 22 59 -6 3 -38 24 -71 46
-34 22 -62 46 -62 54 0 7 16 35 36 62 l36 49 46 -35 c26 -18 59 -43 73 -54 25
-20 27 -20 43 -2 9 9 16 23 16 29 0 7 4 12 8 12 9 0 46 59 40 65 -12 12 -160
115 -165 115 -4 0 -16 8 -27 18 -12 10 -58 44 -102 75 l-82 56 -19 -22z"/>
<path d="M5643 3388 c-78 -37 -150 -140 -158 -226 -8 -88 45 -171 143 -227
119 -68 243 -28 321 104 61 103 47 207 -37 283 -89 81 -187 105 -269 66z m151
-166 c38 -32 43 -37 54 -58 24 -46 -12 -108 -70 -119 -50 -10 -153 70 -161
124 -6 33 33 85 68 93 24 5 81 -16 109 -40z"/>
<path d="M7240 3310 c-14 -22 -28 -40 -32 -40 -5 0 -8 -6 -8 -14 0 -8 -3 -16
-7 -18 -15 -6 -111 -158 -123 -193 -27 -83 23 -155 120 -171 8 -2 28 4 44 12
40 20 43 19 51 -22 3 -20 10 -44 15 -53 5 -9 21 -42 36 -73 14 -32 29 -58 33
-58 8 1 93 121 98 140 2 9 -11 49 -30 90 -19 41 -37 83 -40 93 -7 19 1 47 14
47 8 0 71 -39 94 -58 6 -5 23 -17 38 -26 26 -18 27 -17 34 0 3 11 9 21 12 24
3 3 21 26 38 52 l33 46 -53 36 c-109 75 -152 105 -162 113 -5 4 -30 21 -55 38
-25 16 -58 40 -73 52 -39 31 -48 29 -77 -17z m50 -172 c0 -5 4 -7 8 -4 4 2 13
-3 19 -13 9 -15 5 -25 -27 -59 -21 -23 -42 -42 -46 -42 -17 0 -35 17 -38 36
-4 27 51 105 69 98 8 -4 15 -10 15 -16z"/>
<path d="M6186 2965 c-35 -54 -36 -56 -21 -85 8 -16 16 -33 16 -37 1 -5 8 -24
16 -43 31 -73 55 -142 51 -146 -3 -2 -13 4 -24 14 -28 25 -164 115 -167 111
-2 -2 -20 -27 -40 -56 l-36 -52 87 -60 c48 -33 92 -64 97 -69 6 -4 39 -28 75
-52 36 -24 67 -46 70 -49 3 -4 17 -14 32 -24 l28 -17 27 42 c16 24 31 45 36
46 15 7 6 41 -42 158 -27 65 -47 121 -45 123 2 2 12 -3 21 -11 15 -13 125 -89
159 -111 7 -4 26 16 48 48 20 30 36 56 36 59 0 3 -121 88 -159 111 -9 6 -18
12 -21 15 -3 3 -27 21 -55 39 -27 19 -52 37 -55 40 -3 4 -16 12 -30 20 -14 8
-34 20 -46 28 -20 12 -23 10 -58 -42z"/>
<path d="M5368 2990 c-15 -4 -35 -16 -46 -26 -22 -21 -172 -233 -172 -243 0
-3 41 -33 90 -66 50 -33 90 -63 90 -67 0 -5 5 -8 11 -8 11 0 82 -50 87 -62 2
-5 8 -8 13 -8 5 0 28 -13 50 -30 l41 -30 19 24 c11 13 19 29 19 35 0 6 4 11 8
11 4 0 15 13 25 29 l17 28 -63 44 c-66 46 -81 60 -68 69 16 10 59 88 69 124
29 102 -85 208 -190 176z m50 -152 c25 -25 5 -89 -31 -94 -8 -1 -27 10 -41 25
l-27 28 27 26 c29 29 53 34 72 15z"/>
<path d="M7097 2725 c-40 -14 -127 -98 -153 -147 -18 -35 -31 -35 -74 2 -19
16 -40 29 -47 30 -6 0 -13 4 -15 9 -5 13 -48 24 -48 12 0 -6 -18 -36 -40 -68
-28 -39 -37 -59 -28 -62 7 -2 18 -9 25 -15 29 -25 42 -36 47 -36 2 0 71 -47
153 -104 169 -119 146 -120 226 1 26 40 53 78 60 86 46 50 78 134 72 186 -6
49 -24 75 -69 98 -42 22 -66 23 -109 8z m34 -164 c2 -29 -2 -43 -24 -77 -28
-43 -40 -47 -65 -24 -11 10 -23 16 -26 13 -17 -18 -2 22 22 56 39 57 90 75 93
32z"/>
<path d="M5039 2568 c-35 -51 -85 -123 -112 -162 l-47 -69 67 -45 c38 -25 70
-49 71 -54 2 -4 9 -8 16 -8 7 0 21 -9 31 -20 10 -11 24 -20 31 -20 7 0 14 -4
16 -8 3 -8 134 -101 148 -105 8 -2 80 86 80 98 0 4 6 12 13 19 6 8 18 22 24
32 7 11 36 52 64 92 48 69 50 75 34 92 -9 10 -31 25 -48 33 -31 15 -31 15 -56
-21 -13 -20 -44 -65 -68 -100 -42 -59 -46 -62 -62 -48 -10 9 -23 16 -30 16
-15 0 -6 37 15 61 8 8 14 19 14 22 0 7 23 36 48 63 7 8 10 14 6 14 -4 0 1 8
10 19 16 18 15 20 -25 50 l-42 31 -59 -85 c-33 -46 -63 -87 -67 -90 -13 -8
-58 33 -46 42 6 5 37 47 69 96 66 96 66 89 -5 131 l-27 16 -63 -92z"/>
<path d="M5913 2573 c-10 -16 -21 -32 -26 -38 -36 -46 -167 -241 -165 -247 2
-4 61 -48 133 -98 71 -50 134 -98 139 -107 5 -9 3 -25 -5 -40 -12 -21 -11 -26
3 -34 10 -5 24 -16 32 -24 31 -31 66 -6 98 70 30 70 14 110 -67 170 -22 17
-42 32 -45 35 -11 11 -70 50 -75 50 -4 0 -14 8 -23 17 -12 12 -13 18 -4 21 6
2 12 9 12 16 0 20 42 54 47 39 3 -7 9 -13 14 -13 5 0 63 -38 130 -85 118 -83
139 -95 139 -76 0 5 6 16 13 23 14 16 57 76 57 80 0 2 -54 42 -120 88 -66 47
-151 106 -188 133 -36 26 -70 47 -74 47 -4 0 -15 -12 -25 -27z"/>
<path d="M6593 2383 c-4 -10 -9 -20 -13 -23 -4 -3 -55 -74 -114 -159 -79 -114
-104 -156 -96 -166 6 -7 29 -26 53 -41 135 -92 205 -145 211 -160 4 -9 0 -27
-9 -40 -8 -13 -15 -25 -15 -27 0 -11 82 -57 90 -52 23 14 83 122 86 155 5 47
-24 86 -108 146 -37 27 -81 60 -98 73 l-30 24 25 29 c14 16 25 34 25 39 0 20
29 6 118 -56 51 -36 97 -65 102 -65 4 0 10 -3 12 -8 6 -15 61 -52 69 -46 5 3
28 33 50 66 40 59 41 62 23 75 -10 7 -27 20 -36 27 -9 8 -27 20 -40 27 -13 6
-25 15 -28 18 -8 10 -180 131 -186 131 -3 0 -19 11 -36 25 -35 30 -46 31 -55
8z"/>
<path d="M4817 2206 c-45 -20 -104 -85 -132 -148 -23 -51 -26 -69 -21 -111 20
-148 220 -264 350 -202 42 20 97 79 125 133 37 72 32 138 -15 210 -13 19 -18
21 -36 11 -12 -7 -33 -22 -47 -35 -14 -13 -29 -24 -33 -24 -14 0 -9 -27 7 -40
8 -7 13 -16 10 -20 -3 -5 -1 -11 3 -14 17 -11 -1 -57 -30 -79 -39 -29 -43 -29
-111 7 -43 23 -62 41 -77 70 -18 36 -18 41 -3 70 20 39 30 46 70 46 28 0 35 5
52 43 26 58 34 87 24 88 -52 7 -113 4 -136 -5z"/>
<path d="M5647 2196 c-3 -8 -49 -76 -102 -152 l-96 -138 25 -23 c14 -13 28
-23 31 -23 8 0 110 -74 113 -82 2 -5 8 -8 12 -8 5 0 50 -29 101 -65 50 -36 95
-65 100 -65 6 0 47 55 121 164 7 10 32 46 56 78 24 33 42 61 40 62 -2 1 -22
17 -46 35 l-42 33 -23 -28 c-12 -16 -26 -36 -32 -45 -29 -50 -71 -109 -80
-113 -6 -2 -23 6 -38 19 l-28 22 55 80 c31 45 56 85 56 90 0 9 -65 53 -78 53
-4 0 -32 -36 -61 -80 -30 -44 -57 -80 -60 -80 -4 0 -16 7 -29 15 l-22 16 66
96 c61 90 64 96 46 107 -78 45 -80 46 -85 32z"/>
<path d="M4531 1799 c-36 -14 -52 -34 -165 -197 -55 -79 -57 -84 -39 -97 34
-26 313 -220 342 -238 l28 -17 59 85 c135 195 150 232 118 299 -30 62 -129 95
-168 56 -7 -7 -13 1 -21 32 -17 69 -86 104 -154 77z m55 -163 c4 -17 -2 -36
-18 -60 l-25 -36 -31 24 -32 23 28 36 c33 44 69 49 78 13z m159 -115 c-4 -14
-10 -28 -14 -31 -5 -3 -13 -15 -19 -27 -13 -24 -41 -22 -67 7 -16 18 -16 21 4
49 12 17 32 37 43 46 20 13 24 13 41 -2 13 -12 16 -25 12 -42z"/>
<path d="M6136 1729 c-48 -71 -49 -72 -32 -98 10 -14 20 -34 23 -43 3 -10 9
-18 14 -18 5 0 9 -4 9 -9 0 -4 19 -37 43 -72 23 -35 69 -106 101 -156 33 -51
64 -93 70 -93 6 0 24 19 39 43 15 23 34 52 43 63 14 20 13 24 -10 51 -25 29
-25 29 -6 59 71 108 77 114 106 104 14 -6 31 -10 39 -10 14 0 85 92 85 110 0
6 5 10 10 10 6 0 10 4 10 9 0 8 -63 27 -111 34 -8 2 -20 6 -26 10 -7 5 -13 6
-13 3 0 -2 -26 2 -58 9 -33 8 -70 16 -83 19 -13 3 -42 10 -64 15 -22 5 -51 12
-65 14 -14 3 -36 8 -50 11 -22 5 -31 -2 -74 -65z m207 -111 c26 -6 47 -16 47
-22 -1 -13 -48 -72 -52 -66 -2 3 -20 26 -41 52 -42 52 -44 59 -19 53 9 -3 38
-10 65 -17z"/>
<path d="M5459 1760 c-39 -11 -71 -30 -103 -61 -23 -22 -32 -26 -43 -17 -7 6
-15 9 -16 7 -66 -90 -74 -106 -60 -115 12 -7 12 -15 3 -39 -11 -27 -17 -53
-24 -95 -5 -26 15 -84 37 -109 44 -47 99 -75 155 -77 30 -1 52 3 52 9 0 6 3 7
7 4 7 -7 70 37 89 61 9 12 15 12 33 2 25 -13 29 -9 72 58 19 30 20 35 6 49
-13 13 -13 21 5 70 20 59 18 104 -6 151 -36 68 -141 120 -207 102z m50 -145
c24 -12 45 -38 39 -48 -1 -1 4 -13 11 -25 12 -22 11 -23 -11 -17 -12 4 -32 16
-44 26 -11 11 -23 19 -27 19 -12 0 -57 47 -50 53 11 12 53 8 82 -8z m-99 -159
c64 -43 73 -53 54 -60 -51 -19 -124 27 -124 79 0 29 -3 29 70 -19z"/>
<path d="M4100 806 c0 -2 7 -7 16 -10 8 -3 12 -2 9 4 -6 10 -25 14 -25 6z"/>
<path d="M4147 790 c13 -13 56 -23 49 -12 -3 5 -17 12 -32 15 -14 2 -22 1 -17
-3z"/>
</g>
</svg>
