<svg width="60" height="60" viewBox="0 0 60 60" fill="none" xmlns="http://www.w3.org/2000/svg">
    <g clip-path="url(#clip0_279_1563)">
        <path d="M59.9 42.5C59.2 40.7 56.0999 40 53.0999 40C50.0999 40 46.9999 40.7 46.2999 42.5C46.1999 42.6 46.2 42.8 46.2 43V52.4C46.2 52.7 46.3 52.9 46.5 53.1C46.8 53.6 47.5 54.2 48.7 54.6C49.9 55 51.4999 55.2 53.0999 55.2C55.8999 55.2 58.8 54.6 59.7 53.1C59.9 52.9 60 52.7 60 52.4V43C60 42.8 59.9 42.7 59.9 42.5ZM58.0999 48C58.0999 48.4 56.2999 49.3 53.0999 49.3C49.8999 49.3 48.0999 48.4 48.0999 48V46.3C48.2999 46.4 48.5 46.5 48.7 46.5C49.9 46.9 51.4999 47.1 53.0999 47.1C54.8999 47.1 56.7999 46.9 58.0999 46.2V48ZM53 42C54.5 42 55.7999 42.2 56.7999 42.5C57.6999 42.8 58 43.1 58 43.3V44C58 44.4 56.2 45.3 53 45.3C49.8 45.3 48 44.4 48 44V43.2C48 42.8 49.8 42 53 42ZM53 53.3C49.7 53.3 48 52.4 48 52V50.3C48.2 50.4 48.3999 50.5 48.5999 50.5C49.7999 50.9 51.4 51.1 53 51.1C54.8 51.1 56.7 50.9 58 50.2V52C58.1 52.5 56.3 53.3 53 53.3Z" fill="#E8A15B"/>
        <path d="M47.9 32.5C47.2 30.7 44.0999 30 41.0999 30C38.0999 30 34.9999 30.7 34.2999 32.5C34.1999 32.6 34.2 32.8 34.2 33V38V50.4C34.2 50.7 34.3 50.9 34.5 51.1C34.8 51.6 35.5 52.2 36.7 52.6C37.9 53 39.4999 53.2 41.0999 53.2C41.9999 53.2 43 53.1 43.9 53C44.3 52.9 44.7 52.5 44.7 52.1C44.7 51.5 44.1999 51.1 43.5999 51.2C42.8999 51.3 42.0999 51.4 41.0999 51.4C37.7999 51.4 36.0999 50.5 36.0999 50.1V48.4C36.2999 48.5 36.5 48.6 36.7 48.6C37.9 49 39.4999 49.2 41.0999 49.2C42.0999 49.2 43 49.1 43.9 49C44.3 48.9 44.7 48.5 44.7 48.1C44.7 47.5 44.1999 47.1 43.5999 47.2C42.8999 47.3 42.0999 47.4 41.0999 47.4C37.7999 47.4 36.0999 46.5 36.0999 46.1V44.4C36.2999 44.5 36.5 44.6 36.7 44.6C37.9 45 39.4999 45.2 41.0999 45.2C42.0999 45.2 43 45.1 43.9 45C44.3 44.9 44.7 44.5 44.7 44.1C44.7 43.5 44.1999 43.1 43.5999 43.2C42.8999 43.3 42.0999 43.4 41.0999 43.4C37.7999 43.4 36.0999 42.5 36.0999 42.1V40.4C36.2999 40.5 36.5 40.6 36.7 40.6C37.9 41 39.4999 41.2 41.0999 41.2C41.4999 41.2 42 41.2 42.4 41.2C42.4 41.2 42.4 41.2 42.5 41.2C42.9 41.2 43.3999 41.1 43.7999 41.1C44.1999 41 44.6 40.9 45 40.8C45.4 40.7 45.7999 40.6 46.0999 40.4C47.1999 39.9 48 39.1 48 38.1V33.1C48 32.8 47.9 32.7 47.9 32.5ZM46.0999 38C46.0999 38.4 44.2999 39.3 41.0999 39.3C37.8999 39.3 36.0999 38.4 36.0999 38V36.3C36.2999 36.4 36.5 36.5 36.7 36.5C37.9 36.9 39.4999 37.1 41.0999 37.1C42.8999 37.1 44.7999 36.9 46.0999 36.2V38ZM46.0999 34C46.0999 34.4 44.2999 35.3 41.0999 35.3C37.8999 35.3 36.0999 34.4 36.0999 34V33.2C36.0999 32.8 37.8999 31.9 41.0999 31.9C42.5999 31.9 43.9 32.1 44.9 32.4C45.8 32.7 46.0999 33 46.0999 33.2V34Z" fill="#E8A15B"/>
        <path d="M27.1 17.6H6.09998C5.59998 17.6 5.09998 17.2 5.09998 16.6V11.6C5.09998 11.1 5.49998 10.6 6.09998 10.6H27.1C27.6 10.6 28.1 11 28.1 11.6V16.6C28 17.2 27.6 17.6 27.1 17.6ZM6.99998 15.7H26.1V12.6H6.99998V15.7Z" fill="#E8A15B"/>
        <path d="M10.6 29.1H6.09998C5.59998 29.1 5.09998 28.7 5.09998 28.1V23.6C5.09998 23.1 5.49998 22.6 6.09998 22.6H10.6C11.1 22.6 11.6 23 11.6 23.6V28.1C11.6 28.7 11.1 29.1 10.6 29.1ZM6.99998 27.2H9.59998V24.6H6.99998V27.2Z" fill="#637EA8"/>
        <path d="M18.8 29.1H14.3C13.8 29.1 13.3 28.7 13.3 28.1V23.6C13.3 23.1 13.7 22.6 14.3 22.6H18.8C19.3 22.6 19.8 23 19.8 23.6V28.1C19.8 28.7 19.4 29.1 18.8 29.1ZM15.3 27.2H17.9V24.6H15.3V27.2V27.2Z" fill="#637EA8"/>
        <path d="M27.1 29.1H22.6C22.1 29.1 21.6 28.7 21.6 28.1V23.6C21.6 23.1 22 22.6 22.6 22.6H27.1C27.6 22.6 28.1 23 28.1 23.6V28.1C28 28.7 27.6 29.1 27.1 29.1ZM23.5 27.2H26.1V24.6H23.5V27.2Z" fill="#637EA8"/>
        <path d="M10.6 38.7999H6.09998C5.59998 38.7999 5.09998 38.3999 5.09998 37.7999V33.2999C5.09998 32.7999 5.49998 32.2999 6.09998 32.2999H10.6C11.1 32.2999 11.6 32.6999 11.6 33.2999V37.7999C11.6 38.3999 11.1 38.7999 10.6 38.7999ZM6.99998 36.8999H9.59998V34.2999H6.99998V36.8999Z" fill="#637EA8"/>
        <path d="M18.8 38.7999H14.3C13.8 38.7999 13.3 38.3999 13.3 37.7999V33.2999C13.3 32.7999 13.7 32.2999 14.3 32.2999H18.8C19.3 32.2999 19.8 32.6999 19.8 33.2999V37.7999C19.8 38.3999 19.4 38.7999 18.8 38.7999ZM15.3 36.8999H17.9V34.2999H15.3V36.8999V36.8999Z" fill="#637EA8"/>
        <path d="M27.1 38.7999H22.6C22.1 38.7999 21.6 38.3999 21.6 37.7999V33.2999C21.6 32.7999 22 32.2999 22.6 32.2999H27.1C27.6 32.2999 28.1 32.6999 28.1 33.2999V37.7999C28 38.3999 27.6 38.7999 27.1 38.7999ZM23.5 36.8999H26.1V34.2999H23.5V36.8999Z" fill="#637EA8"/>
        <path d="M10.6 48.5H6.09998C5.59998 48.5 5.09998 48.1 5.09998 47.5V43C5.09998 42.5 5.49998 42 6.09998 42H10.6C11.1 42 11.6 42.4 11.6 43V47.5C11.6 48.1 11.1 48.5 10.6 48.5ZM6.99998 46.6H9.59998V44H6.99998V46.6Z" fill="#637EA8"/>
        <path d="M18.8 48.5H14.3C13.8 48.5 13.3 48.1 13.3 47.5V43C13.3 42.5 13.7 42 14.3 42H18.8C19.3 42 19.8 42.4 19.8 43V47.5C19.8 48.1 19.4 48.5 18.8 48.5ZM15.3 46.6H17.9V44H15.3V46.6V46.6Z" fill="#637EA8"/>
        <path d="M27.1 48.5H22.6C22.1 48.5 21.6 48.1 21.6 47.5V43C21.6 42.5 22 42 22.6 42H27.1C27.6 42 28.1 42.4 28.1 43V47.5C28 48.1 27.6 48.5 27.1 48.5ZM23.5 46.6H26.1V44H23.5V46.6Z" fill="#637EA8"/>
        <path d="M29 55.0999H4.09998C1.89998 55.0999 0.0999756 53.2999 0.0999756 51.0999V8.19995C0.0999756 5.99995 1.89998 4.19995 4.09998 4.19995H29C31.2 4.19995 33 5.99995 33 8.19995V51C33 53.3 31.2 55.0999 29 55.0999ZM4.09998 6.09995C2.99998 6.09995 1.99998 6.99995 1.99998 8.19995V51C1.99998 52.2 2.89998 53.0999 4.09998 53.0999H29C30.2 53.0999 31.1 52.2 31.1 51V8.19995C31.1 6.99995 30.2 6.09995 29 6.09995H4.09998Z" fill="#3F496A"/>
    </g>
    <defs>
        <clipPath id="clip0_279_1563">
            <rect width="60" height="60" fill="white"/>
        </clipPath>
    </defs>
</svg>
