<svg width="60" height="60" viewBox="0 0 60 60" fill="none" xmlns="http://www.w3.org/2000/svg">
    <path d="M58.5 12.6L58.1 12.4L54.8 10.5L51.2 8.4C50.9 8.2 50.5 8.2 50.3 8.4C50 8.6 49.8 8.9 49.8 9.2V10.5H43.4C42.9 10.5 42.4 10.9 42.4 11.5V15.5C42.4 16 42.8 16.5 43.4 16.5H49.8V17.8C49.8 18.1 50 18.5 50.3 18.6C50.4 18.7 50.6 18.7 50.8 18.7C51 18.7 51.1 18.7 51.3 18.6L54.9 16.5L58.2 14.6L58.6 14.4C58.9 14.2 59.1 13.9 59.1 13.6C59.1 13.3 58.8 12.7 58.5 12.6ZM51.7 16V14.5H49.8H44.4V12.4H49.8H51.7V10.9L54.3 12.4L56.1 13.4L54.3 14.4L51.7 16Z" fill="#637EA8"/>
    <path d="M58.5 27.6L58.1 27.4L54.8 25.5L51.2 23.4C50.9 23.2 50.5 23.2 50.3 23.4C50 23.6 49.8 23.9 49.8 24.2V25.5H43.4C42.9 25.5 42.4 25.9 42.4 26.5V30.5C42.4 31 42.8 31.5 43.4 31.5H49.8V32.8C49.8 33.1 50 33.5 50.3 33.6C50.4 33.7 50.6 33.7 50.8 33.7C51 33.7 51.1 33.7 51.3 33.6L54.9 31.5L58.2 29.6L58.6 29.4C58.9 29.2 59.1 28.9 59.1 28.6C59.1 28.3 58.8 27.7 58.5 27.6ZM51.7 31V29.5H49.8H44.4V27.4H49.8H51.7V25.9L54.3 27.4L56.1 28.4L54.3 29.4L51.7 31Z" fill="#637EA8"/>
    <path d="M52.1 38.5H27.8C26.2 38.5 25 39.8 25 41.3V56.6C25 58.2 26.3 59.4 27.8 59.4H52.1C53.7 59.4 54.9 58.1 54.9 56.6V41.4C54.9 39.8 53.7 38.5 52.1 38.5ZM51.2 40.5L40 47.4L28.7 40.5H51.2ZM52.1 57.5H27.8C27.3 57.5 26.9 57.1 26.9 56.6V41.6L39.5 49.3C39.7 49.4 39.8 49.4 40 49.4C40.2 49.4 40.3 49.4 40.5 49.3L53 41.6V56.6C53 57.1 52.6 57.5 52.1 57.5Z" fill="#E8A15B"/>
    <path d="M34.4 10.7001H19C18.5 10.7001 18 10.3001 18 9.70007C18 9.10007 18.4 8.70007 19 8.70007H34.4C34.9 8.70007 35.4 9.10007 35.4 9.70007C35.4 10.3001 34.9 10.7001 34.4 10.7001Z" fill="#3F496A"/>
    <path d="M29 14.7001H19C18.5 14.7001 18 14.3001 18 13.7001C18 13.1001 18.4 12.7001 19 12.7001H29C29.5 12.7001 30 13.1001 30 13.7001C30 14.3001 29.5 14.7001 29 14.7001Z" fill="#3F496A"/>
    <path d="M10 17.2C7.3 17.2 5 15 5 12.2C5 9.39995 7.2 7.19995 10 7.19995C12.8 7.19995 15 9.39995 15 12.2C15 15 12.7 17.2 10 17.2ZM10 9.19995C8.3 9.19995 7 10.6 7 12.2C7 13.8 8.4 15.2 10 15.2C11.6 15.2 13 13.8 13 12.2C13 10.6 11.7 9.19995 10 9.19995Z" fill="#637EA8"/>
    <path d="M10 14.2C9.6 14.2 9.3 14 9.2 13.7L8.2 11.7C8 11.2 8.2 10.7 8.6 10.4C9.1 10.2 9.6 10.4 9.9 10.8L10 11.1L12.2 6.79999C12.4 6.29999 13 6.09999 13.5 6.39999C14 6.59999 14.2 7.19999 13.9 7.69999L10.9 13.7C10.7 14 10.3 14.2 10 14.2Z" fill="#E8A15B"/>
    <path d="M34.4 24.7001H19C18.5 24.7001 18 24.3001 18 23.7001C18 23.1001 18.4 22.7001 19 22.7001H34.4C34.9 22.7001 35.4 23.1001 35.4 23.7001C35.4 24.3001 34.9 24.7001 34.4 24.7001Z" fill="#3F496A"/>
    <path d="M29 28.7001H19C18.5 28.7001 18 28.3001 18 27.7001C18 27.1001 18.4 26.7001 19 26.7001H29C29.5 26.7001 30 27.1001 30 27.7001C30 28.3001 29.5 28.7001 29 28.7001Z" fill="#3F496A"/>
    <path d="M10 31.2C7.3 31.2 5 29 5 26.2C5 23.4 7.2 21.2 10 21.2C12.8 21.2 15 23.4 15 26.2C15 29 12.7 31.2 10 31.2ZM10 23.2C8.3 23.2 7 24.6 7 26.2C7 27.8 8.4 29.2 10 29.2C11.6 29.2 13 27.8 13 26.2C13 24.6 11.7 23.2 10 23.2Z" fill="#637EA8"/>
    <path d="M10 28.2C9.6 28.2 9.3 28 9.2 27.7L8.2 25.7C8 25.2 8.2 24.7 8.6 24.4C9.1 24.2 9.6 24.4 9.9 24.8L10.1 25.1L12.3 20.8C12.5 20.3 13.1 20.1 13.6 20.4C14.1 20.6 14.3 21.2 14 21.7L11 27.7C10.7 28 10.3 28.2 10 28.2Z" fill="#E8A15B"/>
    <path d="M10 45.2C7.3 45.2 5 43 5 40.2C5 37.4 7.2 35.2 10 35.2C12.8 35.2 15 37.4 15 40.2C15 43 12.7 45.2 10 45.2ZM10 37.2C8.3 37.2 7 38.6 7 40.2C7 41.8 8.4 43.2 10 43.2C11.6 43.2 13 41.8 13 40.2C13 38.6 11.7 37.2 10 37.2Z" fill="#637EA8"/>
    <path d="M10 42.2C9.6 42.2 9.3 42 9.2 41.7L8.2 39.7C8 39.2 8.2 38.7 8.6 38.4C9.1 38.2 9.6 38.4 9.9 38.8L10.1 39.1L12.3 34.8C12.5 34.3 13.1 34.1 13.6 34.4C14.1 34.6 14.3 35.2 14 35.7L11 41.7C10.7 42 10.3 42.2 10 42.2Z" fill="#E8A15B"/>
    <path d="M3.8 50.5C3.3 50.5 2.9 50.1 2.9 49.6V3.40001C2.9 2.90001 3.3 2.50001 3.8 2.50001H37.1C37.6 2.50001 38 2.90001 38 3.40001V35.6C38 36.1 38.4 36.6 39 36.6C39.5 36.6 40 36.2 40 35.6V3.40001C40 1.80001 38.7 0.600013 37.2 0.600013H3.8C2.3 0.500013 1 1.80001 1 3.40001V49.7C1 51.3 2.3 52.5 3.8 52.5H22C22.5 52.5 23 52.1 23 51.5C23 51 22.6 50.5 22 50.5H3.8Z" fill="#3F496A"/>
</svg>
