<svg width="60" height="60" viewBox="0 0 60 60" fill="none" xmlns="http://www.w3.org/2000/svg">
    <path d="M53 10H12V1C12 0.5 11.6 0 11 0H8.1C4.2 0 1 3.2 1 7.1V11V42.3C1 43.8 1.8 45.2 2.9 46C3.7 46.6 4.6 46.9 5.6 46.9H10H11.9H26C26.5 46.9 27 46.5 27 45.9C27 45.4 26.6 44.9 26 44.9H11.9H10H5.7C4.4 44.9 3.2 44 2.9 42.7C2.6 41 3.9 39.4 5.6 39.4H10H11.9V37.5V11.9H52V29C52 29.5 52.4 30 53 30C53.5 30 54 29.6 54 29V11C53.9 10.4 53.5 10 53 10ZM10 10V11.9V37.7H5.6C4.6 37.7 3.6 38 2.9 38.6V11.9V10V7.1C2.9 4.2 5.2 1.9 8.1 1.9H10V10Z" fill="#3F496A"/>
    <path d="M44 52C40.2 52 37 48.9 37 45C37 41.1 40.1 38 44 38C47.9 38 51 41.1 51 45C51 48.9 47.9 52 44 52ZM44 40C41.2 40 39 42.3 39 45C39 47.7 41.3 50 44 50C46.7 50 49 47.7 49 45C49 42.3 46.8 40 44 40Z" fill="#3F496A"/>
    <path d="M58.2 42.1L55.4 41.5C55.1 40.5 54.7 39.6 54.1 38.7L55.5 36.3C55.7 35.9 55.6 35.4 55.3 35.1L52.3 32.5C52 32.2 51.5 32.2 51.1 32.5L48.9 34.2C48.4 34 48 33.8 47.5 33.7L47 30.9C46.9 30.5 46.5 30.1 46.1 30.1H42.1C41.6 30.1 41.3 30.4 41.2 30.9L40.6 33.7C39.6 34 38.7 34.4 37.8 35L35.4 33.6C35 33.4 34.5 33.5 34.2 33.8L31.6 36.8C31.3 37.1 31.3 37.6 31.6 38L33.3 40.2C33.1 40.7 32.9 41.1 32.7 41.6L29.9 42.2C29.5 42.3 29.1 42.7 29.1 43.1V47.1C29.1 47.6 29.4 47.9 29.9 48L32.7 48.6C33 49.6 33.4 50.5 34 51.4L32.6 53.8C32.4 54.2 32.5 54.7 32.8 55L35.8 57.6C36 57.8 36.2 57.8 36.4 57.8C36.6 57.8 36.8 57.7 37 57.6L39.2 55.9C39.7 56.1 40.1 56.3 40.6 56.4L41.2 59.2C41.3 59.6 41.7 60 42.1 60H46.1C46.6 60 46.9 59.7 47 59.2L47.6 56.4C48.6 56.1 49.5 55.7 50.4 55.1L52.8 56.5C52.9 56.6 53.1 56.6 53.3 56.6C53.6 56.6 53.8 56.5 54 56.3L56.6 53.3C56.9 53 56.9 52.5 56.6 52.1L54.9 50C55.1 49.5 55.3 49.1 55.5 48.6L58.3 48C58.7 47.9 59.1 47.5 59.1 47.1V43.1C59 42.6 58.7 42.2 58.2 42.1ZM57.1 46.3L55.9 46.5L54 46.9C54 46.9 53.8 47.6 53.6 48.2C53.5 48.5 53.4 48.7 53.3 49C53.1 49.6 52.7 50.3 52.7 50.3L53.9 51.8L54.6 52.8L53 54.6L52 54L50.3 53C50.3 53 49.2 53.7 48.4 54.1C48.3 54.2 48.1 54.2 48 54.3C47.2 54.6 45.9 55 45.9 55L45.5 56.9L45.3 58.1H42.9L42.7 56.9L42.2 55C42.2 55 41.5 54.8 40.9 54.6C40.6 54.5 40.4 54.4 40.1 54.3C39.5 54.1 38.8 53.7 38.8 53.7L37.3 54.9L36.3 55.6L34.5 54L35.1 52.9L36.1 51.2C36.1 51.2 35.4 50.1 35 49.3C34.9 49.2 34.9 49 34.8 48.9C34.5 48.1 34.1 46.8 34.1 46.8L32.2 46.4L31 46.3V43.9L32.2 43.7L34.1 43.3C34.1 43.3 34.3 42.6 34.5 42C34.6 41.7 34.7 41.5 34.8 41.2C35 40.6 35.4 39.9 35.4 39.9L34.2 38.4L33.5 37.4L35.1 35.6L36.2 36.2L37.9 37.2C37.9 37.2 39 36.5 39.8 36.1C39.9 36 40.1 36 40.2 35.9C41 35.6 42.3 35.2 42.3 35.2L42.7 33.3L42.9 32.1H45.3L45.5 33.3L45.9 35.2C45.9 35.2 46.6 35.4 47.2 35.6C47.5 35.7 47.7 35.8 48 35.9C48.6 36.1 49.3 36.5 49.3 36.5L50.8 35.3L51.8 34.6L53.6 36.2L53 37.3L52 39C52 39 52.7 40.1 53.1 40.9C53.2 41 53.2 41.2 53.3 41.3C53.6 42.1 54 43.4 54 43.4L55.9 43.8L57.1 44V46.3Z" fill="#E8A15B"/>
    <path d="M34.8 16H26.8C26.3 16 25.8 15.6 25.8 15C25.8 14.4 26.2 14 26.8 14H34.8C35.3 14 35.8 14.4 35.8 15C35.8 15.6 35.3 16 34.8 16Z" fill="#E8A15B"/>
    <path d="M46.2 21.9C46.2 19.7 44.5 18 42.3 18H19.2C17 18 15.3 19.7 15.3 21.9V34.2C15.3 36.4 17 38.1 19.2 38.1H28.1C28.6 38.1 29.1 37.7 29.1 37.1C29.1 36.6 28.7 36.1 28.1 36.1H26.9V32.2H37.1C37.6 32.2 38.1 31.8 38.1 31.2C38.1 30.7 37.7 30.2 37.1 30.2H26.9V26.1H44.3V27.4C44.3 27.9 44.7 28.4 45.3 28.4C45.8 28.4 46.3 28 46.3 27.4V21.9H46.2ZM25 36.3H19.2C18.1 36.3 17.2 35.4 17.2 34.3V32.4C17.3 32.4 17.3 32.4 17.4 32.4H25V36.3ZM25 30.5H17.4C17.3 30.5 17.3 30.5 17.2 30.5V26.4H25V30.5ZM25 24.5H17.2V21.9C17.2 20.8 18.1 19.9 19.2 19.9H25V24.5ZM44.3 24.5H26.9V20H42.3C43.4 20 44.3 20.9 44.3 22V24.5Z" fill="#637EA8"/>
</svg>
