<svg width="60" height="60" viewBox="0 0 60 60" fill="none" xmlns="http://www.w3.org/2000/svg">
    <path d="M21.2 23.3001C18.3 25.8001 13.9 25.6001 11.4 22.7001C8.90001 19.8001 9.10001 15.4001 12 12.9001C14.9 10.4001 19.3 10.6001 21.8 13.5001C24.3 16.4001 24 20.7001 21.2 23.3001ZM13.2 14.3001C11.1 16.1001 10.9 19.3001 12.8 21.4001C14.7 23.5001 17.8 23.7001 19.9 21.8001C22 20.0001 22.2 16.8001 20.3 14.7001C18.5 12.6001 15.3 12.4001 13.2 14.3001Z" fill="#3F496A"/>
    <path d="M25.2 6.5L22.8 7.9C21.9 7.3 21 6.9 20 6.6L19.4 3.8C19.3 3.4 18.9 3 18.5 3H14.5C14 3 13.7 3.3 13.6 3.8L13 6.7C12.5 6.9 12 7 11.6 7.2L9.30001 5.5C9.00001 5.2 8.50001 5.2 8.10001 5.5L5.10001 8.2C4.80001 8.5 4.70001 9 5.00001 9.4L6.40001 11.8C5.90001 12.7 5.40001 13.6 5.20001 14.6L2.40001 15.2C2.00001 15.3 1.60001 15.7 1.60001 16.1V20.1C1.60001 20.6 1.90001 20.9 2.40001 21L5.20001 21.5C5.40001 22 5.50001 22.5 5.70001 22.9L4.00001 25.3C3.70001 25.7 3.70001 26.2 4.00001 26.5L6.70001 29.5C7.00001 29.8 7.50001 29.9 7.90001 29.7L10.3 28.3C11.2 28.8 12.1 29.2 13.1 29.5L13.7 32.3C13.8 32.7 14.2 33.1 14.6 33.1H18.6C18.8 33.1 19.1 33 19.2 32.9C19.4 32.8 19.5 32.6 19.5 32.4L20 29.6C20.5 29.4 21 29.3 21.4 29.1L23.6 30.8C24 31.1 24.5 31.1 24.8 30.8L27.8 28.1C28.1 27.8 28.2 27.3 28 26.9L26.6 24.5C27.1 23.6 27.6 22.7 27.8 21.7L30.6 21.1C30.8 21.1 30.9 21 31 20.9C31.2 20.7 31.3 20.5 31.3 20.2V16.2C31.3 15.7 31 15.4 30.5 15.3L28 14.5C27.8 14 27.7 13.5 27.5 13.1L29.2 10.9C29.5 10.5 29.5 10 29.2 9.7L26.5 6.7C26.1 6.3 25.6 6.2 25.2 6.5ZM27.1 10.3L26.4 11.3L25.2 12.8C25.2 12.8 25.5 13.5 25.8 14.1C25.9 14.3 26 14.6 26.1 14.9C26.3 15.5 26.5 16.2 26.5 16.2L28.4 16.6L29.6 16.8V19.2L28.4 19.4L26.5 19.8C26.5 19.8 26.2 21 25.8 21.9C25.7 22 25.7 22.2 25.6 22.3C25.2 23.1 24.5 24.2 24.5 24.2L25.5 25.9L26.1 27L24.3 28.6L23.3 27.9L21.8 26.7C21.8 26.7 21.1 27 20.5 27.3C20.3 27.4 20 27.5 19.7 27.6C19.1 27.8 18.4 28 18.4 28L18 29.9L17.8 31.1H15.4L15.2 29.9L14.8 28C14.8 28 13.6 27.6 12.7 27.3C12.6 27.2 12.4 27.2 12.3 27.1C11.5 26.7 10.4 26 10.4 26L8.70001 27L7.60001 27.6L6.00001 25.8L6.70001 24.8L7.90001 23.3C7.90001 23.3 7.60001 22.6 7.30001 22C7.20001 21.8 7.10001 21.5 7.00001 21.2C6.80001 20.6 6.60001 19.9 6.60001 19.9L4.70001 19.5L3.50001 19.3V16.9L4.70001 16.7L6.60001 16.3C6.60001 16.3 6.90001 15.1 7.30001 14.2C7.40001 14.1 7.40001 13.9 7.50001 13.8C7.90001 13 8.60001 11.9 8.60001 11.9L7.60001 10.2L7.00001 9.1L8.80001 7.5L9.80001 8.2L11.3 9.4C11.3 9.4 12 9.1 12.6 8.8C12.8 8.7 13.1 8.6 13.4 8.5C14 8.3 14.7 8.1 14.7 8.1L15 6.2L15.3 5H17.7L18 6.2L18.4 8.1C18.4 8.1 19.6 8.5 20.5 8.8C20.6 8.9 20.8 8.9 20.9 9C21.7 9.4 22.8 10.1 22.8 10.1L24.5 9.1L25.6 8.5L27.1 10.3Z" fill="#E8A15B"/>
    <path d="M46.2 49.5C42.7 51 38.6 49.3 37.1 45.7C35.6 42.1 37.3 38.1 40.9 36.6C44.5 35.1 48.5 36.8 50 40.4C51.5 44 49.8 48 46.2 49.5ZM41.6 38.4C39 39.5 37.8 42.4 38.9 45C40 47.6 42.9 48.8 45.5 47.7C48.1 46.6 49.3 43.7 48.2 41.1C47.2 38.5 44.2 37.3 41.6 38.4Z" fill="#E8A15B"/>
    <path d="M55.5 34.9L52.7 35.4C52 34.6 51.3 33.9 50.5 33.3L50.9 30.5C51 30.1 50.7 29.6 50.3 29.5L46.5 28.2C46.1 28.1 45.6 28.2 45.4 28.6L44 31C43.5 31 43 31 42.5 31L40.9 28.7C40.6 28.3 40.2 28.2 39.7 28.4L36 30C35.6 30.2 35.3 30.6 35.4 31.1L35.9 33.9C35.1 34.6 34.4 35.3 33.8 36.1L31 35.7C30.6 35.6 30.1 35.9 30 36.3L28.7 40.1C28.6 40.5 28.7 41 29.1 41.2L31.5 42.6C31.5 43.1 31.5 43.6 31.5 44.1L29.2 45.7C29 46 28.8 46.5 29 46.9L30.5 50.6C30.7 51 31.1 51.3 31.6 51.2L34.4 50.7C35.1 51.5 35.8 52.2 36.6 52.8L36.2 55.6C36.1 56 36.4 56.5 36.8 56.6L40.6 57.9C40.8 58 41.1 58 41.3 57.9C41.5 57.8 41.7 57.7 41.8 57.5L43.2 55.1C43.7 55.1 44.2 55.1 44.7 55.1L46.3 57.4C46.6 57.8 47 57.9 47.5 57.7L51.2 56.2C51.6 56 51.9 55.6 51.8 55.1L51.3 52.3C52.1 51.6 52.8 50.9 53.4 50.1L56.2 50.5C56.4 50.5 56.5 50.5 56.7 50.4C56.9 50.3 57.1 50.1 57.2 49.8L58.5 46C58.6 45.6 58.5 45.1 58.1 44.9L55.7 43.5C55.7 43 55.7 42.5 55.7 42L58 40.4C58.4 40.1 58.5 39.7 58.3 39.2L56.8 35.5C56.4 35.1 56 34.8 55.5 34.9ZM56.1 39.2L55.1 39.9L53.5 41C53.5 41 53.6 41.8 53.6 42.4C53.6 42.7 53.6 42.9 53.6 43.2C53.6 43.8 53.6 44.6 53.6 44.6L55.3 45.6L56.4 46.2L55.6 48.5L54.4 48.3L52.4 48C52.4 48 51.7 49.1 51.1 49.7C51 49.8 50.9 49.9 50.8 50.1C50.2 50.7 49.1 51.5 49.1 51.5L49.5 53.4L49.7 54.6L47.4 55.5L46.7 54.5L45.7 53C45.7 53 44.9 53.1 44.3 53.1C44 53.1 43.8 53.1 43.5 53.1C42.9 53.1 42.1 53.1 42.1 53.1L41.1 54.8L40.5 55.9L38.2 55L38.4 53.8L38.7 51.9C38.7 51.9 37.6 51.2 37 50.6C36.9 50.5 36.8 50.4 36.6 50.3C36 49.7 35.2 48.6 35.2 48.6L33.3 49L32 49.2L31 46.9L32 46.2L33.6 45.1C33.6 45.1 33.5 44.3 33.5 43.7C33.5 43.4 33.5 43.2 33.5 42.9C33.5 42.3 33.5 41.5 33.5 41.5L31.8 40.5L30.8 40L31.6 37.7L32.8 37.9L34.7 38.2C34.7 38.2 35.4 37.1 36 36.5C36.1 36.4 36.2 36.3 36.3 36.1C36.9 35.5 38 34.7 38 34.7L37.6 32.8L37.4 31.6L39.7 30.7L40.4 31.7L41.5 33.3C41.5 33.3 42.3 33.2 42.9 33.2C43.2 33.2 43.4 33.2 43.7 33.2C44.3 33.2 45.1 33.2 45.1 33.2L46.1 31.5L46.7 30.4L49 31.2L48.8 32.4L48.5 34.3C48.5 34.3 49.6 35 50.2 35.6C50.3 35.7 50.4 35.8 50.6 35.9C51.2 36.5 52 37.6 52 37.6L53.9 37.2L55.1 37L56.1 39.2Z" fill="#3F496A"/>
    <path d="M8.30001 36.9C8.90001 36.9 9.30001 37.3 9.30001 37.9C9.30001 38.5 8.90001 38.9 8.30001 38.9C7.70001 38.9 7.30001 38.5 7.30001 37.9C7.30001 37.3 7.70001 36.9 8.30001 36.9ZM8.30001 35C6.70001 35 5.40001 36.3 5.40001 37.9C5.40001 39.5 6.70001 40.8 8.30001 40.8C9.90001 40.8 11.2 39.5 11.2 37.9C11.2 36.3 9.90001 35 8.30001 35Z" fill="#637EA8"/>
    <path d="M8.3 40V53.1H28.3" stroke="#637EA8" stroke-width="1.9" stroke-miterlimit="10" stroke-linecap="round" stroke-linejoin="round"/>
    <path d="M56.3 25.1001C56.9 25.1001 57.3 25.5001 57.3 26.1001C57.3 26.7001 56.9 27.1001 56.3 27.1001C55.7 27.1001 55.3 26.7001 55.3 26.1001C55.3 25.5001 55.7 25.1001 56.3 25.1001ZM56.3 23.2001C54.7 23.2001 53.4 24.5001 53.4 26.1001C53.4 27.7001 54.7 29.0001 56.3 29.0001C57.9 29.0001 59.2 27.7001 59.2 26.1001C59.2 24.5001 57.9 23.2001 56.3 23.2001Z" fill="#637EA8"/>
    <path d="M56.3 24V4.90002H33.3" stroke="#637EA8" stroke-width="1.9" stroke-miterlimit="10" stroke-linecap="round" stroke-linejoin="round"/>
</svg>
