<svg width="60" height="60" viewBox="0 0 60 60" fill="none" xmlns="http://www.w3.org/2000/svg">
    <path d="M34.8 35L29.8 33.5C29.3 33.4 28.8 33.6 28.6 34.2C28.5 34.7 28.7 35.2 29.3 35.4L34.3 36.9C34.4 36.9 34.5 36.9 34.6 36.9C35 36.9 35.4 36.6 35.5 36.2C35.6 35.7 35.3 35.2 34.8 35Z" fill="#3F496A"/>
    <path d="M19.9 35C19.7 34.5 19.2 34.2 18.7 34.4L11.7 36.8C8 38 5.5 41.4 5.5 45.3V49.9V51.8H7.4H12.5V58.6C12.5 59.1 12.9 59.5 13.5 59.5C14.1 59.5 14.5 59.1 14.5 58.6V48.7C14.5 48.2 14.1 47.8 13.5 47.8C12.9 47.8 12.5 48.2 12.5 48.7V49.9H7.5V45.3C7.5 42.3 9.4 39.6 12.3 38.6L19.3 36.2C19.8 36 20.1 35.5 19.9 35Z" fill="#3F496A"/>
    <path d="M5.5 58.5C5.5 59 5.9 59.5 6.5 59.5C7.1 59.5 7.5 59.1 7.5 58.5V51.8H5.5V58.5Z" fill="#E8A15B"/>
    <path d="M11 18.9C10.6 18.9 10.2 18.6 10.1 18.1C10 17.8 8.70001 10.6 12.9 5.39998C15.4 2.29998 19.3 0.599977 24.5 0.499977C27.5 0.399977 28.9 1.39998 30.2 2.29998C31.4 3.09998 32.6 3.89998 35.1 4.09998C36 4.19998 36.8 4.59998 37.5 5.39998C40 8.49998 39.3 16.2 39.2 17C39.1 17.5 38.7 17.9 38.2 17.8C37.7 17.7 37.3 17.3 37.4 16.8C37.6 14.7 37.8 8.69998 36.1 6.59998C35.7 6.29998 35.4 6.09998 35 5.99998C32 5.69998 30.5 4.69998 29.2 3.89998C27.9 3.09998 26.9 2.39998 24.6 2.49998C20 2.59998 16.6 4.09998 14.4 6.69998C10.8 11.2 12 17.8 12 17.9C12.1 18.4 11.8 18.9 11.2 19C11.1 18.9 11.1 18.9 11 18.9Z" fill="#637EA8"/>
    <path d="M13.5 22.5C12.4 22.5 11.5 21.6 11.5 20.5C11.5 19.4 12.4 18.5 13.5 18.5V16.6C11.3 16.6 9.5 18.4 9.5 20.6C9.5 22.8 11.3 24.6 13.5 24.6H13.8C13.7 23.8 13.6 23.2 13.5 22.5Z" fill="#E8A15B"/>
    <path d="M36.5 16.5V18.4C37.6 18.4 38.5 19.3 38.5 20.4C38.5 21.5 37.6 22.4 36.5 22.4H36.4C36.4 23 36.3 23.7 36.2 24.3H36.5C38.7 24.3 40.5 22.5 40.5 20.3C40.5 18.1 38.7 16.5 36.5 16.5Z" fill="#E8A15B"/>
    <path d="M29.5 35.5C30 35.5 30.5 35.1 30.5 34.5V32C29.9 32.3 29.3 32.6 28.6 32.8V34.5C28.5 35.1 29 35.5 29.5 35.5Z" fill="#E8A15B"/>
    <path d="M22.8 38.5C21.5 38.5 20.4 37.4 20.4 36.1V32.4C19.7 32.1 19.1 31.8 18.5 31.4V36.1C18.5 38.5 20.4 40.4 22.8 40.4H23.6C24.1 40.4 24.6 40 24.6 39.4C24.6 38.9 24.2 38.4 23.6 38.4H22.8V38.5Z" fill="#E8A15B"/>
    <path d="M36.4 16.5H34.5C34.5 16.8 34.5 17.1 34.5 17.5V18.5V22C34.5 22.2 34.5 22.4 34.5 22.5C34.5 23.2 34.4 23.8 34.2 24.4C33.6 26.6 32.3 28.5 30.4 29.8C29.8 30.2 29.2 30.6 28.5 30.8C27.4 31.2 26.2 31.5 25 31.5C23.4 31.5 21.8 31.1 20.5 30.3C19.8 29.9 19.2 29.5 18.6 28.9C17.3 27.7 16.3 26.1 15.8 24.3C15.6 23.7 15.5 23.1 15.5 22.4C15.5 22.2 15.5 22 15.5 21.9V18.4V17.5C15.5 17.3 15.5 16.9 15.7 16.5H13.7H13.6V18.4V22C13.6 22.2 13.6 22.4 13.6 22.5C13.6 23.1 13.7 23.8 13.8 24.4C14.4 27.3 16.2 29.8 18.5 31.4C19.1 31.8 19.7 32.2 20.4 32.4C21.8 33 23.3 33.4 24.9 33.4C26.1 33.4 27.3 33.2 28.4 32.8C29.1 32.6 29.7 32.3 30.3 32C33.2 30.4 35.3 27.7 36 24.4C36.1 23.8 36.2 23.1 36.2 22.5C36.2 22.3 36.2 22.1 36.2 22V18.5L36.4 16.5Z" fill="#E8A15B"/>
    <path d="M17.5 15.4C18.1 15.4 18.7 15.5 19.4 15.6C22.2 15.9 25.8 16.4 29.9 13.1C30.6 14.2 32 15.4 34.3 15.5C34.4 15.7 34.4 16 34.5 16.6H36.4C36.3 15.3 36.1 14.5 35.6 14C35.3 13.7 35 13.6 34.7 13.6C31.8 13.6 31.2 11.6 31.2 11.3C31.1 11 30.9 10.7 30.5 10.6C30.2 10.5 29.8 10.6 29.6 10.8C25.8 14.5 22.4 14 19.6 13.7C18.8 13.6 18.1 13.5 17.5 13.5C15.2 13.5 14 15 13.7 16.5H15.7C15.9 15.9 16.4 15.4 17.5 15.4Z" fill="#637EA8"/>
    <path d="M40.5 49.4C38.9 49.4 37.5 48.1 37.5 46.4C37.5 44.7 38.8 43.4 40.5 43.4C42.2 43.4 43.5 44.7 43.5 46.4C43.5 48.1 42.1 49.4 40.5 49.4ZM40.5 45.4C39.9 45.4 39.5 45.9 39.5 46.4C39.5 46.9 40 47.4 40.5 47.4C41 47.4 41.5 46.9 41.5 46.4C41.5 45.9 41.1 45.4 40.5 45.4Z" fill="#3F496A"/>
    <path d="M53.5 37.5H32.5H30.6H27.6C27.1 37.5 26.6 37.9 26.6 38.5V40.5V42.4V55.4C26.6 55.9 27 56.4 27.6 56.4H53.6C54.1 56.4 54.6 56 54.6 55.4V38.4C54.5 38 54 37.5 53.5 37.5ZM52.5 54.5H28.5V42.4V40.5V39.4H30.2H32.3H52.6V54.5H52.5Z" fill="#637EA8"/>
    <path d="M50.5 59.4H23.5C23.1 59.4 22.7 59.1 22.6 58.8C22.5 58.4 22.6 58 22.9 57.7L26.9 54.7C27.1 54.6 27.3 54.5 27.5 54.5H53.5C53.9 54.5 54.2 54.7 54.4 55.1C54.5 55.5 54.5 55.9 54.2 56.1L51.2 59.1C51 59.3 50.8 59.4 50.5 59.4ZM26.3 57.5H50.1L51.2 56.4H27.8L26.3 57.5Z" fill="#637EA8"/>
</svg>
