<svg width="352" height="80" viewBox="0 0 352 80" fill="none" xmlns="http://www.w3.org/2000/svg">
    <path fill-rule="evenodd" clip-rule="evenodd" d="M47.6405 17.3039C45.6454 17.1325 43.4216 15.309 40.7542 15.309C43.5626 16.1064 44.2768 17.2468 46.1448 17.7598C49.6953 18.3287 59.8181 19.1274 60.7318 23.2315C60.6035 24.1293 60.0329 24.8557 58.9642 25.0258C58.0086 25.568 57.3808 25.5541 55.7695 25.5541C53.5736 25.5541 48.6825 24.1712 46.5438 24.1712C42.3503 24.1712 39.5 26.2233 33.7091 26.2233C30.5297 26.2233 27.3503 24.8264 24.0425 23.0309C16.756 25.6823 10.7808 29.7433 7.1871 36.4112C8.3867 26.6512 12.8344 16.9903 20.4628 7.40039C22.5303 8.56864 24.4987 9.33817 26.3235 9.33817C41.9373 8.41118 48.3546 9.60865 51.2062 10.8912C56.368 13.1998 71.1126 18.3439 77.2873 23.3445C76.8298 24.1433 76.1042 24.6563 75.2058 24.6563C74.3073 24.8696 73.508 25.2823 72.4965 25.2823C70.6996 25.2696 62.4143 22.5331 60.6327 21.8207C57.6807 18.2017 51.9763 17.8309 47.6417 17.3039H47.6405Z" fill="#C20016"/>
    <path fill-rule="evenodd" clip-rule="evenodd" d="M72.1106 52.0431L33.8379 51.6584C34.1735 50.6454 34.2637 49.5675 34.1012 48.5129C33.9388 47.4583 33.5282 46.4572 32.9032 45.592C32.2783 44.7268 31.4569 44.0222 30.5065 43.536C29.5559 43.0496 28.5036 42.7958 27.4358 42.7949C25.6475 42.7963 23.9327 43.5069 22.6682 44.7706C21.4038 46.0345 20.6929 47.7482 20.6919 49.5352C20.6919 50.1625 20.777 50.7746 20.9333 51.3587L10.6097 49.492C10.1888 46.9808 9.94125 44.4436 9.86885 41.8984L9.89681 41.5555H35.1213L35.5356 39.3333L36.3197 43.6787C36.3489 43.8501 36.434 43.9784 36.5611 44.0774C36.6812 44.1664 36.8259 44.2161 36.9754 44.2197C37.1248 44.2161 37.2696 44.1664 37.3896 44.0774C37.5113 43.9802 37.5964 43.8445 37.6311 43.6927L39.3847 35.5276L41.4675 45.1035C41.5022 45.2553 41.5873 45.391 41.709 45.4882C41.8233 45.5733 41.9669 45.6304 42.1232 45.6304C42.2723 45.6266 42.4165 45.577 42.5362 45.4882C42.6662 45.3922 42.7534 45.2491 42.7789 45.0895L43.7066 39.8882L43.9773 41.5695H88.7804C90.3485 44.2908 90.6192 46.8419 90.6192 49.8197L84.7444 51.7016C84.9732 51.0311 85.1003 50.3047 85.1003 49.5492C85.0992 47.7621 84.3885 46.0485 83.124 44.7846C81.8596 43.5209 80.1448 42.8103 78.3563 42.8089C76.568 42.8103 74.8532 43.5209 73.5887 44.7846C72.3243 46.0485 71.6134 47.7621 71.6124 49.5492C71.6375 50.4025 71.8058 51.2456 72.1106 52.0431Z" fill="#0D68B0"/>
    <path fill-rule="evenodd" clip-rule="evenodd" d="M86.8248 40.5153H44.9025L44.4031 37.4512C44.3782 37.2879 44.2918 37.1403 44.1616 37.0385C44.0427 36.9473 43.8973 36.8974 43.7474 36.8963C43.5976 36.8974 43.4522 36.9473 43.3331 37.0385C43.2036 37.1347 43.117 37.2779 43.0917 37.4372L42.1081 42.9661L40.0546 33.5617C40.0196 33.4097 39.934 33.274 39.8118 33.1769C39.6929 33.0859 39.5475 33.0358 39.3976 33.0347C39.2486 33.0385 39.1044 33.0881 38.9846 33.1769C38.863 33.2742 38.7778 33.4098 38.7431 33.5617L37.0174 41.5693L36.2181 37.0956C36.193 36.9363 36.1063 36.7932 35.9767 36.6969C35.8569 36.6075 35.7121 36.5573 35.5624 36.5534C35.4132 36.5576 35.269 36.6078 35.1494 36.6969C35.0194 36.7929 34.9323 36.9361 34.9067 37.0956L34.265 40.5013H9.99481L10.0088 40.302C10.09 39.2583 10.5168 38.2714 11.2219 37.497C11.927 36.7228 12.8702 36.2053 13.9024 36.0264C25.9237 33.8893 30.0295 28.7883 43.4475 28.7883C57.6075 28.7883 64.1672 36.354 67.6885 36.9102C70.8272 37.394 80.9361 37.9515 86.8261 40.5153H86.8248Z" fill="#C20016"/>
    <path fill-rule="evenodd" clip-rule="evenodd" d="M33.2099 49.5353C33.2108 50.2934 33.0619 51.0442 32.7721 51.7447C32.4822 52.4452 32.0569 53.0818 31.5205 53.6178C30.9843 54.1539 30.3474 54.579 29.6464 54.8688C28.9455 55.1586 28.1942 55.3074 27.4355 55.3068C26.6769 55.3077 25.9255 55.159 25.2244 54.8692C24.5232 54.5794 23.8862 54.1544 23.3498 53.6183C22.8133 53.0821 22.3878 52.4456 22.098 51.745C21.808 51.0444 21.6592 50.2936 21.6599 49.5353C21.6592 48.7774 21.8079 48.0265 22.0978 47.3261C22.3877 46.6255 22.8129 45.9891 23.3493 45.4529C23.8857 44.9168 24.5226 44.4918 25.2235 44.2019C25.9245 43.9121 26.6758 43.7633 27.4343 43.7639C30.629 43.7792 33.2099 46.3582 33.2099 49.5353Z" fill="#0D68B0"/>
    <path d="M78.3702 55.3068C79.902 55.3068 81.371 54.6988 82.4542 53.6164C83.5372 52.5341 84.1458 51.066 84.1458 49.5353C84.1458 48.0047 83.5372 46.5367 82.4542 45.4543C81.371 44.372 79.902 43.7639 78.3702 43.7639C76.8383 43.7639 75.3693 44.372 74.2862 45.4543C73.203 46.5367 72.5946 48.0047 72.5946 49.5353C72.5946 51.066 73.203 52.5341 74.2862 53.6164C75.3693 54.6988 76.8383 55.3068 78.3702 55.3068Z" fill="#0D68B0"/>
    <path fill-rule="evenodd" clip-rule="evenodd" d="M47.6405 66.5052C45.6454 66.6767 43.4216 68.5002 40.7542 68.5002C43.5626 67.7027 44.2768 66.5624 46.1448 66.0494C49.6953 65.4792 59.8181 64.6818 60.7318 60.5776C60.6035 59.6811 60.0329 58.9535 58.9642 58.7833C58.0086 58.2411 57.3808 58.2551 55.7695 58.2551C53.5736 58.2551 48.6825 59.6379 46.5438 59.6379C42.3503 59.6379 39.5 57.5859 33.7091 57.5859C30.5297 57.5859 27.3503 58.9827 24.0425 60.7783C16.756 58.1268 10.7808 54.0659 7.1871 47.3979C8.3867 57.1427 12.8344 66.8049 20.4628 76.4087C22.5303 75.2405 24.4987 74.471 26.3235 74.471C41.9373 75.3979 48.3546 74.2005 51.2062 72.9179C56.368 70.6094 71.1126 65.4652 77.2873 60.4646C76.8298 59.6659 76.1042 59.1529 75.2058 59.1529C74.3073 58.9395 73.508 58.5268 72.4965 58.5268C70.6996 58.5395 62.4143 61.276 60.6327 61.9884C57.6807 65.5948 51.9763 65.9643 47.6417 66.5052H47.6405Z" fill="#0D68B0"/>
    <path fill-rule="evenodd" clip-rule="evenodd" d="M2.5545 40.5016C2.82263 28.5893 7.21437 16.7188 15.7424 4.97782L13.4614 3.80957C4.76307 15.8934 0.28619 28.1613 0.0155182 40.5016H2.55323H2.5545Z" fill="#C20016"/>
    <path fill-rule="evenodd" clip-rule="evenodd" d="M16.4563 79.8007C7.17089 67.0769 2.52245 54.3366 2.52245 41.6839V41.5569H0V41.6839C0 54.4509 4.50611 67.2471 13.4891 80.0001L15.7422 78.8458C15.9849 79.1595 16.2276 79.4871 16.455 79.8007H16.4563ZM97.4214 32.0229H98.1775C98.391 32.0229 98.5625 32.1944 98.5625 32.4077V55.2064C98.5627 55.257 98.5529 55.3071 98.5336 55.3539C98.5143 55.4006 98.4859 55.4431 98.4501 55.4789C98.4144 55.5146 98.3718 55.5429 98.325 55.5622C98.2783 55.5815 98.2281 55.5913 98.1775 55.5912H97.4214C97.3708 55.5913 97.3206 55.5815 97.2739 55.5622C97.2271 55.5429 97.1845 55.5146 97.1488 55.4789C97.113 55.4431 97.0846 55.4006 97.0653 55.3539C97.046 55.3071 97.0362 55.257 97.0364 55.2064V32.4077C97.0364 32.1944 97.2079 32.0229 97.4214 32.0229Z" fill="#0D68B0"/>
    <path fill-rule="evenodd" clip-rule="evenodd" d="M120.62 54.9929C121.262 54.9929 121.732 54.551 121.904 54.1942L129.105 39.7739H129.262V54.1942C129.262 54.7364 129.518 54.9929 130.06 54.9929H133.098C133.639 54.9929 133.896 54.7364 133.896 54.1942V33.4196C133.896 32.8774 133.639 32.6208 133.098 32.6208H128.777C128.136 32.6208 127.85 33.0348 127.622 33.4196L119.494 49.7205H119.351L111.223 33.4196C110.994 33.0348 110.71 32.6208 110.068 32.6208H105.747C105.206 32.6208 104.949 32.8774 104.949 33.4196V54.1942C104.949 54.7364 105.206 54.9929 105.747 54.9929H108.784C109.327 54.9929 109.584 54.7364 109.584 54.1942V39.7739H109.74L116.941 54.1942C117.098 54.5497 117.583 54.9929 118.225 54.9929H120.62ZM147.172 41.2558C149.567 41.2558 151.492 43.1377 151.648 44.9332H142.695C142.851 43.1377 144.747 41.2558 147.172 41.2558ZM147.172 55.6342C152.448 55.6342 154.972 53.1123 155.485 50.518C155.485 50.0342 155.171 49.7205 154.687 49.7205H152.29C151.806 49.7205 151.52 50.0342 151.164 50.518C150.651 51.2875 149.596 52.4418 147.172 52.4418C144.648 52.4418 142.665 50.4901 142.509 48.2818H155.499C156.041 48.2818 156.298 48.024 156.298 47.4831V46.5281C156.298 41.5694 152.776 38.0647 147.186 38.0647C141.582 38.0647 138.074 41.6126 138.074 46.8558C138.074 52.1002 141.582 55.6342 147.172 55.6342ZM179.155 54.9929C179.698 54.9929 179.955 54.7364 179.955 54.1942V52.4418C179.955 51.9009 179.698 51.6443 179.155 51.6443H177.074V39.5047C177.074 38.9624 176.817 38.7047 176.276 38.7047H169.716C164.924 38.7047 162.686 40.9434 161.559 45.417L159.962 51.6443H158.366C157.823 51.6443 157.566 51.9009 157.566 52.4418V54.1942C157.566 54.7364 157.823 54.9929 158.366 54.9929H179.155ZM166.051 45.4031C166.535 43.3218 167.805 42.0405 169.73 42.0405H172.767V51.6291H164.454L166.051 45.4031Z" fill="#C20016"/>
    <path fill-rule="evenodd" clip-rule="evenodd" d="M262.418 40.4446C262.418 35.9696 259.052 32.6071 252.179 32.6071H241.299C240.758 32.6071 240.501 32.8636 240.501 33.4046V54.1804C240.501 54.7214 240.758 54.9779 241.299 54.9779H244.336C244.879 54.9779 245.136 54.7214 245.136 54.1804V48.2668H252.165C259.052 48.282 262.418 44.9182 262.418 40.4446ZM190.835 36.2972H198.678C199.219 36.2972 199.476 36.042 199.476 35.4998V33.4198C199.476 32.8776 199.219 32.6211 198.678 32.6211H178.373C177.83 32.6211 177.573 32.8776 177.573 33.4198V35.4998C177.573 36.042 177.83 36.2972 178.373 36.2972H186.214V54.1944C186.214 54.7366 186.471 54.9931 187.014 54.9931H190.051C190.592 54.9931 190.849 54.7366 190.849 54.1944V36.2985H190.835V36.2972ZM208.587 41.256C210.984 41.256 212.909 43.1379 213.065 44.9334H204.11C204.267 43.1379 206.15 41.256 208.587 41.256ZM208.587 55.6344C213.864 55.6344 216.474 53.1265 216.901 50.5182C216.987 50.0484 216.588 49.7207 216.103 49.7207H213.707C213.222 49.7207 212.923 50.0344 212.58 50.5182C212.053 51.2738 211.012 52.442 208.587 52.442C206.064 52.442 204.082 50.4903 203.925 48.282H216.916C217.457 48.282 217.714 48.0242 217.714 47.4833V46.5284C217.714 41.5696 214.191 38.0649 208.603 38.0649C202.999 38.0649 199.49 41.6128 199.49 46.856C199.49 52.1004 202.985 55.6344 208.587 55.6344ZM232.858 38.6922C232.188 38.6922 231.86 39.1049 231.574 39.4896L228.223 43.9646H228.067L224.716 39.4896C224.43 39.1049 224.102 38.6922 223.432 38.6922H220.238C219.724 38.6922 219.497 39.148 219.753 39.4896L225.186 46.5144L219.112 54.1804C218.841 54.5233 219.112 54.9779 219.596 54.9779H222.791C223.403 54.9779 223.788 54.5372 224.074 54.1804L228.067 49.2217H228.223L232.216 54.1804C232.502 54.536 232.885 54.9779 233.499 54.9779H236.694C237.178 54.9779 237.449 54.522 237.178 54.1804L231.104 46.5144L236.536 39.4896C236.807 39.1468 236.566 38.6922 236.052 38.6922H232.858ZM252.179 36.2972C255.702 36.2972 257.612 38.2503 257.612 40.4585C257.612 42.668 255.687 44.6198 252.179 44.6198H245.15V36.2985H252.179V36.2972ZM273.768 41.256C276.164 41.256 278.089 43.1379 278.245 44.9334H269.29C269.448 43.1379 271.344 41.256 273.768 41.256ZM273.768 55.6344C279.045 55.6344 281.653 53.1265 282.082 50.5182C282.153 50.0484 281.768 49.7207 281.282 49.7207H278.887C278.403 49.7207 278.103 50.0344 277.775 50.5182C277.248 51.2738 276.207 52.442 273.782 52.442C271.259 52.442 269.276 50.4903 269.105 48.282H282.096C282.637 48.282 282.894 48.0242 282.894 47.4833V46.5284C282.894 41.5696 279.372 38.0649 273.782 38.0649C268.178 38.0649 264.671 41.6128 264.671 46.856C264.671 52.1004 268.178 55.6344 273.768 55.6344ZM290.723 49.5646V39.4896C290.723 38.9487 290.466 38.6922 289.923 38.6922H287.2C286.659 38.6922 286.402 38.9487 286.402 39.4896V54.1944C286.402 54.7366 286.659 54.9931 287.2 54.9931H290.237C290.723 54.9931 291.151 54.6655 291.521 54.1944L299.364 44.1207H299.52V54.1944C299.52 54.7366 299.777 54.9931 300.32 54.9931H303.043C303.584 54.9931 303.841 54.7366 303.841 54.1944V39.4896C303.841 38.9487 303.584 38.6922 303.043 38.6922H300.006C299.52 38.6922 299.093 39.0198 298.722 39.4896L290.95 49.5633H290.723V49.5646ZM295.043 35.9696C298.75 35.9696 300.961 33.7042 300.961 31.0109C300.961 30.9266 300.945 30.843 300.913 30.7652C300.881 30.6872 300.833 30.6164 300.773 30.5567C300.715 30.4971 300.644 30.4499 300.565 30.4178C300.487 30.3856 300.403 30.3694 300.32 30.3696H298.394C298.037 30.3696 297.852 30.6553 297.753 31.0109C297.411 32.2655 296.54 33.2484 295.029 33.2484C293.531 33.2484 292.662 32.2515 292.305 31.0109C292.206 30.6553 292.02 30.3696 291.663 30.3696H289.739C289.654 30.3694 289.571 30.3856 289.493 30.4178C289.415 30.4499 289.344 30.4971 289.284 30.5567C289.225 30.6164 289.178 30.6872 289.146 30.7652C289.113 30.843 289.097 30.9266 289.097 31.0109C289.125 33.7042 291.321 35.9696 295.043 35.9696ZM316.789 38.0509C310.971 38.0509 307.349 41.4706 307.349 46.6858C307.349 51.9582 311.028 55.6344 316.789 55.6344C321.936 55.6344 324.675 52.7696 325.102 49.7207C325.173 49.1785 324.845 48.922 324.304 48.922H322.065C321.581 48.922 321.166 49.2357 320.939 49.7207C320.297 51.1595 319.184 52.442 316.775 52.442C313.538 52.442 311.656 50.2325 311.656 46.6858C311.656 43.1087 313.737 41.256 316.775 41.256C319.042 41.256 320.112 42.5258 320.611 43.4934C320.852 43.9633 321.253 44.2922 321.737 44.2922H324.132C324.675 44.2922 325.017 44.0357 324.932 43.4934C324.517 40.7582 321.908 38.0509 316.789 38.0509Z" fill="#0D68B0"/>
    <path d="M89.2072 10.5398H85.7762C85.4728 10.5398 85.182 10.6602 84.9675 10.8745C84.753 11.0888 84.6325 11.3795 84.6325 11.6827C84.6325 11.9858 84.753 12.2764 84.9675 12.4908C85.182 12.7051 85.4728 12.8255 85.7762 12.8255H86.348V16.2541C86.348 16.5572 86.4685 16.8479 86.683 17.0622C86.8975 17.2766 87.1884 17.3969 87.4917 17.3969C87.795 17.3969 88.0859 17.2766 88.3004 17.0622C88.5149 16.8479 88.6354 16.5572 88.6354 16.2541V12.8255H89.2072C89.5105 12.8255 89.8014 12.7051 90.0159 12.4908C90.2304 12.2764 90.3509 11.9858 90.3509 11.6827C90.3509 11.3795 90.2304 11.0888 90.0159 10.8745C89.8014 10.6602 89.5105 10.5398 89.2072 10.5398ZM97.6476 10.6312C97.4393 10.5437 97.2098 10.5198 96.9879 10.5625C96.7661 10.6052 96.5619 10.7126 96.401 10.8712L94.9256 12.3569L93.4503 10.8712C93.2894 10.7126 93.0852 10.6052 92.8633 10.5625C92.6415 10.5198 92.4119 10.5437 92.2037 10.6312C91.9948 10.717 91.8161 10.8626 91.6899 11.0497C91.5637 11.2368 91.4957 11.457 91.4946 11.6827V16.2541C91.4946 16.5572 91.6151 16.8479 91.8296 17.0622C92.0441 17.2766 92.3349 17.3969 92.6383 17.3969C92.9416 17.3969 93.2325 17.2766 93.447 17.0622C93.6615 16.8479 93.782 16.5572 93.782 16.2541V14.4369L94.1136 14.7798C94.22 14.887 94.3464 14.9719 94.4858 15.03C94.6252 15.088 94.7747 15.1178 94.9256 15.1178C95.0766 15.1178 95.226 15.088 95.3654 15.03C95.5048 14.9719 95.6313 14.887 95.7376 14.7798L96.0693 14.4369V16.2541C96.0693 16.5572 96.1898 16.8479 96.4043 17.0622C96.6188 17.2766 96.9097 17.3969 97.213 17.3969C97.5163 17.3969 97.8072 17.2766 98.0217 17.0622C98.2362 16.8479 98.3567 16.5572 98.3567 16.2541V11.6827C98.3555 11.457 98.2877 11.2368 98.1615 11.0497C98.0353 10.8626 97.8565 10.717 97.6476 10.6312ZM91.4946 2.53979C89.2326 2.53979 87.0214 3.21007 85.1407 4.46585C83.2598 5.72165 81.794 7.50654 80.9284 9.59484C80.0627 11.6831 79.8363 13.9811 80.2775 16.198C80.7188 18.4148 81.8081 20.4513 83.4075 22.0496C85.007 23.6479 87.0449 24.7364 89.2634 25.1774C91.4819 25.6183 93.7814 25.392 95.8713 24.527C97.9611 23.662 99.7473 22.1972 101.004 20.3177C102.261 18.4383 102.931 16.2287 102.931 13.9684C102.931 12.4675 102.636 10.9814 102.061 9.59484C101.486 8.20826 100.644 6.94839 99.5817 5.88715C98.5196 4.8259 97.2589 3.98409 95.8713 3.40974C94.4837 2.8354 92.9965 2.53979 91.4946 2.53979ZM91.4946 23.1112C89.685 23.1112 87.916 22.575 86.4114 21.5704C84.9069 20.5657 83.7341 19.1378 83.0416 17.4672C82.3491 15.7966 82.1679 13.9582 82.5209 12.1847C82.874 10.4111 83.7454 8.78204 85.0249 7.50339C86.3046 6.22474 87.9348 5.35397 89.7097 5.00119C91.4844 4.6484 93.3241 4.82947 94.9959 5.52147C96.6678 6.21347 98.0967 7.38533 99.1021 8.88886C100.107 10.3924 100.644 12.1601 100.644 13.9684C100.644 16.3933 99.6801 18.7187 97.9643 20.4334C96.2484 22.1479 93.9212 23.1112 91.4946 23.1112Z" fill="#0D68B0"/>
    <path d="M338.022 17.5662C336.492 17.5662 334.977 17.8672 333.564 18.4521C332.151 19.0371 330.867 19.8945 329.785 20.9754C327.6 23.1584 326.373 26.1192 326.373 29.2063C326.373 32.2935 327.6 35.2542 329.785 37.4372C330.867 38.518 332.151 39.3754 333.564 39.9605C334.977 40.5455 336.492 40.8465 338.022 40.8465C341.111 40.8465 344.074 39.6201 346.259 37.4372C348.443 35.2542 349.671 32.2935 349.671 29.2063C349.671 27.6777 349.37 26.164 348.784 24.7518C348.198 23.3395 347.34 22.0563 346.259 20.9754C345.177 19.8945 343.893 19.0371 342.479 18.4521C341.066 17.8672 339.552 17.5662 338.022 17.5662ZM338.022 38.5185C332.885 38.5185 328.703 34.3396 328.703 29.2063C328.703 24.073 332.885 19.8942 338.022 19.8942C343.159 19.8942 347.34 24.073 347.34 29.2063C347.34 34.3396 343.159 38.5185 338.022 38.5185ZM338.313 30.6846H336.635V34.4444H334.527V24.2126H338.324C339.525 24.2126 340.456 24.4804 341.12 25.0158C341.773 25.563 342.098 26.2963 342.098 27.2973C342.098 27.9958 341.947 28.5777 341.645 29.0434C341.342 29.509 340.887 29.8815 340.27 30.1491L342.483 34.3281V34.4444H340.224L338.313 30.6846ZM336.635 28.9852H338.337C338.86 28.9852 339.268 28.8455 339.559 28.5777C339.85 28.31 339.99 27.9376 339.99 27.4603C339.99 26.9831 339.862 26.6106 339.582 26.3312C339.315 26.0519 338.896 25.9238 338.324 25.9238H336.635V28.9852Z" fill="#0D68B0"/>
</svg>
