<svg width="60" height="60" viewBox="0 0 60 60" fill="none" xmlns="http://www.w3.org/2000/svg">
    <path d="M32.9 48.8H1.89999C1.39999 48.8 0.899994 48.4 0.899994 47.8C0.899994 47.2 1.29999 46.8 1.89999 46.8H32.9C33.4 46.8 33.9 47.2 33.9 47.8C33.9 48.4 33.4 48.8 32.9 48.8Z" fill="#637EA8"/>
    <path d="M32.9 9.70007H1.89999C1.39999 9.70007 0.899994 9.30007 0.899994 8.70007C0.899994 8.10007 1.29999 7.70007 1.89999 7.70007H32.9C33.4 7.70007 33.9 8.10007 33.9 8.70007C33.9 9.30007 33.4 9.70007 32.9 9.70007Z" fill="#637EA8"/>
    <path d="M45 50.2001C43.7 50.2001 42.4 49.6 41.6 48.5L41.1 47.9001C40.6 47.3001 40.1 46.8 39.4 46.3L38.1 45.5L25.9 39C24.9 38.5 24.3 37.6 24 36.6C23.7 35.6 23.9 34.5 24.4 33.6C25.4 31.9 27.7 31.2 29.5 32.1L30.3 32.5L24.3 21.6C23.5 20.1 23.9 18.2 25.3 17.1C26.1 16.5 27.1 16.3 28.1 16.5C29.1 16.7 29.9 17.3 30.4 18.1L34.9 25.6C35.2 25.1 35.6 24.6 36.2 24.2C37.1 23.6 38.1 23.4 39.1 23.7C39.2 23.7 39.4 23.8 39.5 23.8C39.7 23 40.1 22.2 40.8 21.7C41.6 21.1 42.7 20.8 43.7 21C43.9 21 44.2 21.1 44.4 21.2C44.6 20.4 45.2 19.6 45.9 19.1C46.8 18.5 47.9 18.3 49 18.6C50 18.9 50.9 19.6 51.4 20.6C55 28.3 56.3 31.2 56.7 32.5L58.1 35.8L58.7 37C59.7 39 59.1 41.4001 57.4 42.7001L55.6 44C55.2 44.3 54.6 44.2 54.3 43.8C54 43.4 54.1 42.8 54.5 42.5L56.1 41.3C57.1 40.5 57.5 39.1 56.9 38L56.2 36.7001L54.8 33.4001C54.8 33.3001 54.7 33.2 54.7 33.1C54.5 32.7 53.7 30.6 49.5 21.6C49.3 21.1 48.9 20.8 48.3 20.6C47.8 20.5 47.2 20.5 46.8 20.8C46 21.3 45.7 22.4 46.2 23.2L47.2 24.9C47.5 25.4 47.3 25.9 46.9 26.2C46.4 26.5 45.9 26.3 45.6 25.9L44.3 23.8C44 23.4 43.6 23.1 43.1 23C42.6 22.9 42.1 23 41.7 23.3C41 23.8 40.8 24.8 41.3 25.6L42.7 27.8C43 28.2 42.9 28.8 42.4 29.1C42 29.4 41.4 29.3 41.1 28.8L39.7 26.7C39.7 26.7 39.7 26.7 39.7 26.6L39.6 26.5C39.3 26.1 38.9 25.8 38.4 25.7C37.9 25.6 37.4 25.7 36.9 26C36 26.6 35.8 27.7 36.3 28.6L37.7 30.9C38 31.3 37.8 31.9 37.4 32.2C36.9 32.5 36.4 32.3 36.1 31.9L34.8 29.7L28.6 19.4C28.4 19 28 18.7 27.5 18.7C27.1 18.6 26.6 18.7 26.2 19C25.6 19.5 25.4 20.3 25.8 21L33.2 34.6C33.4 35 33.3 35.4001 33.1 35.7001C32.8 36 32.4 36.1001 32 35.9001L28.4 34.1C27.5 33.6 26.3 34.0001 25.8 34.9001C25.5 35.4001 25.4 35.9 25.6 36.5C25.7 37 26.1 37.5 26.6 37.7001L39 43.9001L40.4 44.7001C41.3 45.2001 42 45.9001 42.7 46.7001L43.2 47.3C43.9 48.2 45.2 48.5 46.2 47.9001L51.6 44.9001C52.1 44.6001 52.6 44.8 52.9 45.3C53.2 45.8 53 46.3 52.5 46.6L47.1 49.6C46.4 50.1 45.7 50.2001 45 50.2001Z" fill="#E8A15B"/>
    <path d="M21.9 53.7001H12.9C12.4 53.7001 11.9 53.3001 11.9 52.7001C11.9 52.1001 12.3 51.7001 12.9 51.7001H21.9C22.4 51.7001 22.9 52.1001 22.9 52.7001C22.9 53.3001 22.4 53.7001 21.9 53.7001Z" fill="#E8A15B"/>
    <path d="M17.4 5.60005C16.4 5.60005 15.5 4.70005 15.5 3.70005C15.5 2.70005 16.4 1.80005 17.4 1.80005C18.4 1.80005 19.3 2.70005 19.3 3.70005C19.3 4.70005 18.4 5.60005 17.4 5.60005Z" fill="#E8A15B"/>
    <path d="M33.8 18.8V4.50005C33.8 2.70005 32.3 1.30005 30.6 1.30005H4.2C2.4 1.30005 1 2.80005 1 4.50005V55.4001C1 57.2001 2.5 58.6 4.2 58.6H30.6C32.4 58.6 33.8 57.1001 33.8 55.4001V45.6C33.8 45.1 33.4 44.6 32.8 44.6C32.3 44.6 31.8 45 31.8 45.6V55.4001C31.8 56.1001 31.2 56.7001 30.5 56.7001H4.2C3.5 56.7001 2.9 56.1001 2.9 55.4001V4.50005C2.9 3.80005 3.5 3.20005 4.2 3.20005H30.6C31.3 3.20005 31.9 3.80005 31.9 4.50005V18.8C31.9 19.3 32.3 19.8 32.9 19.8C33.4 19.8 33.8 19.3 33.8 18.8Z" fill="#3F496A"/>
    <path d="M15.9 37.9001C15.6 37.9001 15.4 37.8001 15.2 37.6001L12.3 34.7001C11.9 34.3001 11.9 33.7001 12.3 33.4001C12.7 33.1001 13.3 33.0001 13.6 33.4001L15.9 35.7001L21.2 30.4001C21.6 30.0001 22.2 30.0001 22.5 30.4001C22.8 30.8001 22.9 31.4001 22.5 31.7001L16.6 37.6001C16.4 37.8001 16.1 37.9001 15.9 37.9001Z" fill="#637EA8"/>
    <path d="M17.4 41.5C13 41.5 9.39999 37.6 9.89999 33.1C10.3 29.7 13 26.9 16.4 26.5C19.6 26.1 22.5 27.7 23.9 30.2C24.1 30.6 24.6 30.7 25 30.6C25.6 30.4 25.8 29.7 25.5 29.2C23.6 26.1 20 24.1 16 24.6C11.8 25.2 8.39999 28.7 7.99999 32.9C7.39999 38.6 11.8 43.4 17.4 43.4C19.7 43.4 21.8 42.6 23.4 41.2C23.9 40.8 23.9 40.1 23.4 39.7C23.1 39.4 22.5 39.4 22.2 39.7C20.9 40.9 19.2 41.5 17.4 41.5Z" fill="#3F496A"/>
    <path d="M7.89999 18.8C7.59999 18.8 7.39999 18.6 7.39999 18.3V14.3C7.39999 14 7.59999 13.8 7.89999 13.8H26.9C27.2 13.8 27.4 14 27.4 14.3V14.8C27.4 15.3 27.8 15.8 28.4 15.8C28.9 15.8 29.4 15.4 29.4 14.8V14.3C29.4 12.9 28.3 11.8 26.9 11.8H7.89999C6.49999 11.8 5.39999 12.9 5.39999 14.3V18.3C5.39999 19.7 6.49999 20.8 7.89999 20.8H21.1C21.6 20.8 22.1 20.4 22.1 19.8C22.1 19.3 21.7 18.8 21.1 18.8H7.89999Z" fill="#3F496A"/>
</svg>
