<svg width="60" height="60" viewBox="0 0 60 60" fill="none" xmlns="http://www.w3.org/2000/svg">
    <path d="M18 31H10.9C10.4 31 9.89996 30.6 9.89996 30C9.89996 29.4 10.3 29 10.9 29H18C18.5 29 19 29.4 19 30C19 30.6 18.6 31 18 31Z" fill="#E8A15B"/>
    <path d="M37.8 10C37.3 10 36.8 9.6 36.8 9V2C36.8 1.5 37.2 1 37.8 1C38.4 1 38.8 1.4 38.8 2V9C38.7 9.5 38.3 10 37.8 10Z" fill="#E8A15B"/>
    <path d="M42.8 9.9C42.6 9.9 42.3 9.8 42.1 9.6C41.7 9.2 41.7 8.6 42.1 8.3L47 3.3C47.4 2.9 48 2.9 48.3 3.3C48.6 3.7 48.7 4.3 48.3 4.6L43.4 9.6C43.3 9.8 43 9.9 42.8 9.9Z" fill="#E8A15B"/>
    <path d="M32.7 9.89996C32.5 9.89996 32.2 9.79996 32 9.59996L27.1 4.59996C26.7 4.19996 26.7 3.59996 27.1 3.29996C27.5 2.99996 28.1 2.89996 28.4 3.29996L33.3 8.29996C33.7 8.69996 33.7 9.29996 33.3 9.59996C33.2 9.79996 33 9.89996 32.7 9.89996Z" fill="#E8A15B"/>
    <path d="M29.6 15.3C29.7 15.1 29.9 15 30.2 15H44.3C44.5 15 44.8 15.1 44.9 15.3L47 19H49.2L46.6 14.3C46.1 13.5 45.3 13 44.4 13H30.1C29.2 13 28.4 13.5 27.9 14.2L25 19H27.2L29.6 15.3Z" fill="#637EA8"/>
    <path d="M37.3 48C32.4 48 28.3 44 28.3 39C28.3 34 32.3 30 37.3 30C42.3 30 46.3 34 46.3 39C46.3 44 42.2 48 37.3 48ZM37.3 32C33.4 32 30.3 35.2 30.3 39C30.3 42.8 33.5 46 37.3 46C41.1 46 44.3 42.8 44.3 39C44.3 35.2 41.1 32 37.3 32Z" fill="#637EA8"/>
    <path d="M39.4 25.2C36.6 24.8 34 25.2 31.6 26.2C31 26.4 30.8 27.1 31.2 27.6C31.5 28 32 28.1 32.4 27.9C34.3 27.1 36.3 26.7 38.5 27C44 27.6 48.4 32 49.1 37.5C50 45.3 43.5 51.9 35.7 51C30.2 50.3 25.8 45.9 25.2 40.4C24.9 38.2 25.3 36.2 26.1 34.3C26.3 33.9 26.1 33.4 25.7 33.1C25.2 32.8 24.6 33 24.4 33.5C23.4 35.8 23 38.5 23.5 41.3C24.5 47.3 29.5 52.1 35.5 52.8C44.6 53.9 52.2 46.2 51 37.1C50.3 31.1 45.5 26.1 39.4 25.2Z" fill="#3F496A"/>
    <path d="M38.8 34.3C37.5 33.9 36.2 34 35.2 34.5C34.9 34.6 34.7 34.8 34.4 34.9C33.9 35.2 33.9 35.9 34.3 36.3L34.4 36.4C34.7 36.7 35.2 36.7 35.6 36.5C35.9 36.3 36.3 36.1 36.7 36C36.9 36 37.1 35.9 37.3 35.9C39 35.9 40.3 37.3 40.3 38.9C40.3 39.1 40.3 39.3 40.2 39.5C40.1 39.9 39.9 40.3 39.7 40.6C39.4 41 39.4 41.5 39.8 41.8L39.9 41.9C40.3 42.3 40.9 42.2 41.3 41.8C41.5 41.6 41.6 41.3 41.7 41C42.2 39.9 42.4 38.7 41.9 37.4C41.5 36 40.3 34.8 38.8 34.3Z" fill="#E8A15B"/>
    <path d="M27.7 30.4C28.197 30.4 28.6 29.997 28.6 29.5C28.6 29.0029 28.197 28.6 27.7 28.6C27.2029 28.6 26.8 29.0029 26.8 29.5C26.8 29.997 27.2029 30.4 27.7 30.4Z" fill="#3F496A"/>
    <path d="M12.2 19V18C12.2 16.9 13.1 16 14.2 16C15.3 16 16.2 16.9 16.2 18V19H18.1V18C18.1 15.8 16.3 14 14.1 14C11.9 14 10.1 15.8 10.1 18V19H12.2Z" fill="#E8A15B"/>
    <path d="M51.6 19H49.1H47H27.2H25H18.2H16.3H12.2H10.3H8.39999C4.49999 19 1.29999 22.2 1.29999 26.1V51.9C1.29999 55.8 4.49999 59 8.39999 59H51.7C55.6 59 58.8 55.8 58.8 51.9V26.1C58.7 22.2 55.5 19 51.6 19ZM56.8 51.9C56.8 54.7 54.5 57.1 51.6 57.1H8.39999C5.59999 57.1 3.19999 54.8 3.19999 51.9V26.1C3.19999 23.3 5.49999 20.9 8.39999 20.9H10.3H10.6H12.2H12.7H15.8H16.3H17.9H18.2H23.8H26H48H50.2H51.6C54.4 20.9 56.8 23.2 56.8 26.1V51.9Z" fill="#3F496A"/>
</svg>
