<svg width="60" height="60" viewBox="0 0 60 60" fill="none" xmlns="http://www.w3.org/2000/svg">
    <path d="M55 14H6C5.5 14 5 13.6 5 13C5 12.4 5.4 12 6 12H55C55.5 12 56 12.4 56 13C56 13.6 55.5 14 55 14Z" fill="#637EA8"/>
    <path d="M51.1 5H9.9C7.2 5 5 7.2 5 9.9V44.1C5 46 6.1 47.6 7.6 48.4C8.3 48.7 9 48.2 9 47.5C9 47.1 8.8 46.8 8.5 46.7C7.6 46.2 7 45.2 7 44.1V9.9C7 8.3 8.3 6.9 10 6.9H51.2C52.8 6.9 54.2 8.2 54.2 9.9V44.1C54.2 44.9 53.9 45.6 53.4 46.1C53.2 46.3 53.1 46.5 53.1 46.7V47C53.1 47.7 53.9 48.1 54.5 47.7C55.5 46.8 56.1 45.5 56.1 44.1V9.9C56 7.2 53.8 5 51.1 5Z" fill="#3F496A"/>
    <path d="M10.9 9C10.4 9 10 9.4 10 9.9C10 10.4 10.4 10.8 10.9 10.8C11.4 10.8 11.8 10.4 11.8 9.9C11.8 9.4 11.5 9 10.9 9Z" fill="#E8A15B"/>
    <path d="M14.9 9C14.4 9 14 9.4 14 9.9C14 10.4 14.4 10.8 14.9 10.8C15.4 10.8 15.8 10.4 15.8 9.9C15.8 9.4 15.5 9 14.9 9Z" fill="#E8A15B"/>
    <path d="M18.9 9C18.4 9 18 9.4 18 9.9C18 10.4 18.4 10.8 18.9 10.8C19.4 10.8 19.8 10.4 19.8 9.9C19.8 9.4 19.5 9 18.9 9Z" fill="#E8A15B"/>
    <path d="M14.3 32.4001C14 32.4001 13.8 32.3001 13.6 32.1001C13.2 31.7001 13.3 31.1001 13.6 30.8001L22.6 22.4001C23 22.0001 23.6 22.1001 23.9 22.4001C24.3 22.8001 24.2 23.4001 23.9 23.7001L14.9 32.1001C14.7 32.3001 14.5 32.4001 14.3 32.4001Z" fill="#3F496A"/>
    <path d="M34.7 32.4001C34.4 32.4001 34.2 32.3001 34 32.1001L26 23.7001C25.6 23.3001 25.7 22.7001 26 22.4001C26.4 22.0001 27 22.1001 27.3 22.4001L35.3 30.8001C35.7 31.2001 35.6 31.8001 35.3 32.1001C35.2 32.3001 35 32.4001 34.7 32.4001Z" fill="#3F496A"/>
    <path d="M37.6 32.7C37.4 32.7 37.1 32.6 36.9 32.4C36.5 32 36.5 31.4 36.9 31.1L45.1 22.9C45.5 22.5 46.1 22.5 46.4 22.9C46.8 23.3 46.8 23.9 46.4 24.2L38.2 32.4C38.1 32.7 37.8 32.7 37.6 32.7Z" fill="#3F496A"/>
    <path d="M25 21C24.4 21 24 21.5 24 22C24 22.5 24.5 23 25 23C25.5 23 26 22.5 26 22C26 21.5 25.6 21 25 21ZM25 25C23.4 25 22 23.7 22 22C22 20.3 23.3 19 25 19C26.7 19 28 20.3 28 22C28 23.7 26.6 25 25 25Z" fill="#E8A15B"/>
    <path d="M47 21C46.4 21 46 21.5 46 22C46 22.5 46.5 23 47 23C47.5 23 48 22.5 48 22C48 21.5 47.6 21 47 21ZM47 25C45.4 25 44 23.7 44 22C44 20.3 45.3 19 47 19C48.7 19 50 20.3 50 22C50 23.7 48.6 25 47 25Z" fill="#E8A15B"/>
    <path d="M15.9 19H10C9.5 19 9 18.6 9 18C9 17.4 9.4 17 10 17H15.9C16.4 17 16.9 17.4 16.9 18C16.9 18.6 16.4 19 15.9 19Z" fill="#637EA8"/>
    <path d="M15.9 24H10C9.5 24 9 23.6 9 23C9 22.4 9.4 22 10 22H15.9C16.4 22 16.9 22.4 16.9 23C16.9 23.6 16.4 24 15.9 24Z" fill="#637EA8"/>
    <path d="M13 36C11.4 36 10 34.7 10 33C10 31.3 11.3 30 13 30C14.7 30 16 31.3 16 33C16 34.7 14.6 36 13 36ZM13 32C12.4 32 12 32.5 12 33C12 33.5 12.5 34 13 34C13.5 34 14 33.5 14 33C14 32.5 13.6 32 13 32Z" fill="#E8A15B"/>
    <path d="M36 36C34.4 36 33 34.7 33 33C33 31.3 34.3 30 36 30C37.7 30 39 31.3 39 33C39 34.7 37.6 36 36 36ZM36 32C35.4 32 35 32.5 35 33C35 33.5 35.5 34 36 34C36.5 34 37 33.5 37 33C37 32.5 36.6 32 36 32Z" fill="#E8A15B"/>
    <path d="M28.6 55C28.1 55 27.6 54.6 27.6 54V32H23.1V54C23.1 54.5 22.7 55 22.1 55C21.5 55 21.1 54.6 21.1 54V31C21.1 30.5 21.5 30 22.1 30H28.5C29 30 29.5 30.4 29.5 31V54C29.6 54.5 29.1 55 28.6 55Z" fill="#637EA8"/>
    <path d="M50 55C49.5 55 49 54.6 49 54V36H44.5V54C44.5 54.5 44.1 55 43.5 55C42.9 55 42.5 54.6 42.5 54V35C42.5 34.5 42.9 34 43.5 34H50C50.5 34 51 34.4 51 35V54C50.9 54.5 50.5 55 50 55Z" fill="#637EA8"/>
    <path d="M18 55C17.5 55 17 54.6 17 54V44H12.5V54C12.5 54.5 12.1 55 11.5 55C10.9 55 10.5 54.6 10.5 54V43C10.5 42.5 10.9 42 11.5 42H18C18.5 42 19 42.4 19 43V54C18.9 54.5 18.5 55 18 55Z" fill="#3F496A"/>
    <path d="M39.3 55C38.8 55 38.3 54.6 38.3 54V41H33.8V54C33.8 54.5 33.4 55 32.8 55C32.2 55 31.8 54.6 31.8 54V40C31.8 39.5 32.2 39 32.8 39H39.2C39.7 39 40.2 39.4 40.2 40V54C40.2 54.5 39.8 55 39.3 55Z" fill="#3F496A"/>
    <path d="M55 55H5C4.5 55 4 54.6 4 54C4 53.4 4.4 53 5 53H55C55.5 53 56 53.4 56 54C56 54.6 55.5 55 55 55Z" fill="#E8A15B"/>
</svg>
