<svg width="60" height="60" viewBox="0 0 60 60" fill="none" xmlns="http://www.w3.org/2000/svg">
    <path d="M20.5 30.9C15 30.9 10.5 26.4 10.5 20.9C10.5 15.4 15 10.9 20.5 10.9C26 10.9 30.5 15.4 30.5 20.9C30.5 26.4 26 30.9 20.5 30.9ZM20.5 12.9C16.1 12.9 12.5 16.5 12.5 20.9C12.5 25.3 16.1 28.9 20.5 28.9C24.9 28.9 28.5 25.3 28.5 20.9C28.5 16.5 24.9 12.9 20.5 12.9Z" fill="#E8A15B"/>
    <path d="M59 20.6H39.8H39.5H37.6C37.3 20.6 37.1 20.7 36.9 20.9L35.3 22.5L32.5 25.3L30.9 26.9C30.7 27.1 30.6 27.3 30.6 27.6V29.9V58.6C30.6 59.1 31 59.6 31.6 59.6H59C59.5 59.6 60 59.2 60 58.6V21.6C60 21 59.6 20.6 59 20.6ZM37.6 22.8V26.6H33.8L37.6 22.8ZM58.1 57.6H32.5V28.5H38.5C39 28.5 39.5 28.1 39.5 27.5V22.5H58.1V57.6Z" fill="#3F496A"/>
    <path d="M25.3 33.6C24.7 33.8 24 34 23.3 34.2L23 36.2L22.5 39.5H18.4L18 36.2L17.7 34.2C17 34.1 16.3 33.9 15.7 33.6C15.5 33.5 15.4 33.5 15.2 33.4C14.5 33.1 13.9 32.8 13.3 32.5L11.7 33.8L9.1 35.8L6.1 33L7.9 30.4L9.1 28.8C8.7 28.3 8.3 27.7 8 27.1C7.8 26.8 7.6 26.4 7.5 26C7.2 25.4 7 24.7 6.8 24L4.8 23.8L2 23.5L1.9 19.4L4.6 19L6.6 18.7C6.7 18 6.8 17.4 7 16.7C7.1 16.2 7.3 15.7 7.5 15.2C7.8 14.6 8.1 13.9 8.5 13.3L7.2 11.7L5.6 9.69998L8.4 6.69998L10.4 8.09998L12 9.29998C12.5 8.89998 13.1 8.49998 13.7 8.19998C14.4 7.79998 15.1 7.49998 15.8 7.29998C16.4 7.09998 17.1 6.89998 17.8 6.79998L18.1 4.79998L18.4 2.49998H22.5L22.8 4.79998L23.1 6.79998C23.8 6.89998 24.5 7.09998 25.1 7.29998C25.6 7.49998 26.1 7.69998 26.5 7.89998C27.1 8.19998 27.7 8.49997 28.3 8.89997L29.8 7.69998L31.7 6.19998L34.7 8.99998L33.2 11.1L32 12.7C32.4 13.3 32.7 13.9 33 14.5C33.2 15 33.4 15.5 33.6 16C33.8 16.6 34 17.3 34.1 18L36.1 18.2L36.8 18.3C37.3 18.4 37.8 18 37.9 17.4C37.9 16.9 37.6 16.4 37.1 16.4L35.8 16.2C35.5 15 35 13.8 34.4 12.7L36.5 9.79998C36.9 9.19998 36.9 8.29998 36.3 7.79998L32.9 4.59998C32.3 4.09998 31.5 3.99998 30.9 4.49998L28.3 6.59998C27.2 5.99998 26.1 5.59998 24.9 5.19998L24.4 1.89998C24.3 1.09998 23.6 0.599976 22.9 0.599976H18.2C17.4 0.599976 16.8 1.19998 16.7 1.89998L16.2 5.19998C14.7 5.59998 13.4 6.19998 12.1 6.99998L9.3 4.99998C8.7 4.59998 7.8 4.59998 7.3 5.19998L4 8.59998C3.5 9.09998 3.5 9.99998 4 10.6L6.2 13.4C5.7 14.5 5.2 15.7 4.9 16.9L1.2 17.5C0.5 17.7 0 18.4 0 19.1L0.1 23.8C0.1 24.6 0.7 25.2 1.5 25.3L5.5 25.8C5.9 26.9 6.4 27.9 6.9 28.8L4.5 32.2C4.1 32.8 4.1 33.7 4.7 34.2L8.1 37.4C8.4 37.7 8.8 37.8 9.2 37.8C9.5 37.8 9.9 37.7 10.2 37.5L13.6 34.8C14.4 35.2 15.2 35.5 16 35.8L16.6 40.1C16.7 40.9 17.4 41.4 18.1 41.4H22.8C23.6 41.4 24.2 40.8 24.3 40.1L24.9 35.8C25.6 35.6 26.3 35.3 27 35C27.5 34.8 27.7 34.2 27.5 33.7C27.3 33.2 26.7 33 26.2 33.2C25.9 33.4 25.5 33.6 25.3 33.6Z" fill="#637EA8"/>
    <path d="M54.7 28.5H43C42.5 28.5 42 28.1 42 27.5C42 26.9 42.4 26.5 43 26.5H54.7C55.2 26.5 55.7 26.9 55.7 27.5C55.7 28.1 55.2 28.5 54.7 28.5Z" fill="#637EA8"/>
    <path d="M54.7 35.5H41C40.5 35.5 40 35.1 40 34.5C40 33.9 40.4 33.5 41 33.5H54.7C55.2 33.5 55.7 33.9 55.7 34.5C55.7 35.1 55.2 35.5 54.7 35.5Z" fill="#E8A15B"/>
    <path d="M37 35.5H35C34.5 35.5 34 35.1 34 34.5C34 33.9 34.4 33.5 35 33.5H37C37.5 33.5 38 33.9 38 34.5C38 35.1 37.5 35.5 37 35.5Z" fill="#637EA8"/>
    <path d="M54.7 42.7H41C40.5 42.7 40 42.3 40 41.7C40 41.1 40.4 40.7 41 40.7H54.7C55.2 40.7 55.7 41.1 55.7 41.7C55.7 42.3 55.2 42.7 54.7 42.7Z" fill="#E8A15B"/>
    <path d="M37 42.7H35C34.5 42.7 34 42.3 34 41.7C34 41.1 34.4 40.7 35 40.7H37C37.5 40.7 38 41.1 38 41.7C38 42.3 37.5 42.7 37 42.7Z" fill="#637EA8"/>
    <path d="M54.7 50H41C40.5 50 40 49.6 40 49C40 48.4 40.4 48 41 48H54.7C55.2 48 55.7 48.4 55.7 49C55.7 49.6 55.2 50 54.7 50Z" fill="#E8A15B"/>
    <path d="M37 50H35C34.5 50 34 49.6 34 49C34 48.4 34.4 48 35 48H37C37.5 48 38 48.4 38 49C38 49.6 37.5 50 37 50Z" fill="#637EA8"/>
</svg>
