<?xml version="1.0" standalone="no"?>
<!DOCTYPE svg PUBLIC "-//W3C//DTD SVG 20010904//EN"
 "http://www.w3.org/TR/2001/REC-SVG-20010904/DTD/svg10.dtd">
<svg version="1.0" xmlns="http://www.w3.org/2000/svg"
 width="700.000000pt" height="700.000000pt" viewBox="0 0 700.000000 700.000000"
 preserveAspectRatio="xMidYMid meet">
<metadata>
Created by potrace 1.14, written by Peter Selinger 2001-2017
</metadata>
<g transform="translate(0.000000,700.000000) scale(0.100000,-0.100000)"
fill="#000000" stroke="none">
<path d="M3278 6995 c-1 -1 -42 -5 -89 -9 -47 -4 -95 -8 -105 -10 -10 -2 -45
-7 -78 -11 -67 -8 -105 -14 -126 -20 -8 -3 -32 -7 -54 -11 -55 -8 -62 -10
-156 -34 -47 -12 -95 -24 -107 -26 -13 -2 -78 -23 -145 -45 -425 -141 -776
-332 -1118 -606 -116 -92 -347 -312 -431 -409 -125 -144 -245 -306 -346 -469
-42 -68 -113 -192 -113 -198 0 -1 662 -2 1471 -2 966 1 1472 -3 1477 -9 3 -6
6 -128 6 -273 l1 -263 -502 0 c-472 0 -503 -1 -503 -17 -1 -10 -1 -624 -1
-1364 l-1 -1346 -337 0 -338 0 1 1363 1 1364 -756 0 -756 0 -41 -147 c-97
-346 -130 -611 -126 -998 1 -137 5 -261 7 -275 3 -14 8 -52 12 -85 5 -51 15
-118 41 -270 23 -135 117 -448 192 -635 39 -98 165 -353 207 -420 14 -22 25
-42 25 -44 0 -16 195 -294 282 -402 99 -124 308 -343 414 -435 93 -80 109 -93
189 -155 171 -130 351 -242 555 -345 413 -208 878 -333 1350 -365 66 -4 367
-4 429 1 137 10 198 15 216 19 11 2 47 7 80 11 32 3 62 8 65 10 3 1 27 6 54 9
27 4 52 9 55 11 3 1 22 6 41 9 67 11 265 65 390 106 370 123 721 312 1040 559
162 125 322 277 489 464 l51 57 -101 148 c-55 81 -141 206 -190 277 -50 72
-128 186 -175 255 -47 69 -101 148 -120 175 -19 28 -40 58 -47 68 -7 10 -53
77 -102 150 -117 171 -226 329 -304 442 -34 50 -90 132 -124 182 l-62 92 -270
1 -271 0 0 -597 0 -598 -337 -1 -337 -2 0 22 c-1 29 -1 3138 0 3202 l0 50 708
-2 c389 -1 721 -5 737 -7 17 -3 53 -8 80 -11 260 -35 518 -155 665 -312 126
-136 196 -283 227 -483 9 -60 9 -281 0 -351 -43 -314 -202 -539 -492 -696 -38
-20 -71 -39 -73 -40 -6 -4 19 -44 88 -143 36 -52 72 -104 80 -117 8 -13 112
-164 230 -336 118 -172 228 -333 245 -358 16 -25 32 -47 35 -50 3 -3 46 -66
96 -140 151 -223 177 -260 187 -260 11 0 143 274 190 395 68 175 150 453 172
585 3 19 8 42 10 50 2 8 7 33 10 55 3 23 7 52 10 65 2 13 7 46 10 74 3 28 8
69 10 91 15 126 21 483 11 595 -3 25 -7 79 -11 120 -6 76 -48 331 -66 405 -5
22 -12 49 -14 60 -27 126 -115 391 -182 545 -41 96 -153 316 -206 405 -195
327 -398 570 -717 860 -60 55 -235 188 -338 259 -309 210 -716 393 -1077 485
-172 43 -262 59 -545 97 -47 6 -546 15 -552 9z"/>
<path d="M4425 4116 c0 -266 3 -488 8 -492 4 -4 146 -7 315 -7 343 2 406 9
518 64 118 59 210 188 228 322 34 255 -58 462 -241 544 -102 44 -162 51 -506
52 l-323 2 1 -485z"/>
</g>
</svg>
