<?xml version="1.0" encoding="iso-8859-1"?>
<!-- Generator: Adobe Illustrator 17.0.0, SVG Export Plug-In . SVG Version: 6.00 Build 0)  -->
<!DOCTYPE svg PUBLIC "-//W3C//DTD SVG 1.1//EN" "http://www.w3.org/Graphics/SVG/1.1/DTD/svg11.dtd">
<svg version="1.1" id="&#x421;&#x43B;&#x43E;&#x439;_1"
	 xmlns="http://www.w3.org/2000/svg" xmlns:xlink="http://www.w3.org/1999/xlink" x="0px" y="0px" width="90px" height="68.54px"
	 viewBox="0 0 90 68.54" style="enable-background:new 0 0 90 68.54;" xml:space="preserve">
<path style="fill-rule:evenodd;clip-rule:evenodd;fill:#748FC9;" d="M58.832,12.955c-0.022,0.126-0.063,0.249-0.123,0.368
	c-0.63,1.239-3.069,1.314-4.236,1.333c-0.871,0.014-1.936-0.215-2.784-0.408c-1.372-0.312-2.738-0.7-4.087-1.102
	c-3.513-1.048-7.001-2.242-10.459-3.459c-5.569-1.96-11.117-4.023-16.625-6.151L6.384,3.594L0,0.346L89.313,0l-1.224,1.245
	C84.14,5.263,74.065,13.272,68.358,13.333c-2.55,0.028-5.111-0.038-7.655-0.222C60.085,13.067,59.457,13.018,58.832,12.955
	L58.832,12.955z M28.86,3.501c0.787,0.305,1.575,0.604,2.362,0.9c2.563,0.965,5.141,1.896,7.729,2.792
	c3.26,1.128,6.567,2.227,9.891,3.152c1.215,0.338,2.458,0.664,3.697,0.898c0.474,0.089,1.367,0.253,1.902,0.204
	c-0.056-0.128-0.133-0.275-0.166-0.343c-0.177-0.364-0.342-0.751-0.32-1.164c0.054-1.042,1.04-1.432,1.933-1.275l0.065,0.011
	L56.015,8.7c0.238,0.089,0.494,0.163,0.737,0.234c0.713,0.205,1.442,0.373,2.17,0.515c2.683,0.525,5.471,0.725,8.202,0.693
	c2.183-0.025,4.458-0.887,6.381-1.868C75.477,7.267,77.357,6,79.106,4.644c0.564-0.438,1.125-0.891,1.674-1.358L28.86,3.501
	L28.86,3.501z"/>
<path style="fill-rule:evenodd;clip-rule:evenodd;fill:#748FC9;" d="M3.014,1.063l3.543,1.803l14.096-0.058
	c3.755,1.452,29.147,11.197,33.808,11.121c5.036-0.083,3.411-1.818,3.411-1.818s4.153,0.564,10.478,0.496
	C73.51,12.55,83.219,5.162,87.57,0.735L3.014,1.063L3.014,1.063z M25.136,2.788l57.56-0.238c-1.306,1.229-9.042,8.244-15.564,8.32
	c-7.148,0.083-11.371-1.488-11.371-1.488s-1.039-0.183-1.079,0.595c-0.04,0.779,1.262,1.854,0,2.172
	C51.453,12.714,31.673,5.538,25.136,2.788L25.136,2.788z"/>
<path style="fill-rule:evenodd;clip-rule:evenodd;fill:#748FC9;" d="M84.72,15.664c1.405-0.738,2.809-1.476,4.214-2.214L90,12.89
	v53.572l-0.637,0.08c-1.179,0.149-2.366,0.272-3.548,0.387c-2.567,0.25-5.146,0.446-7.723,0.548
	c-2.132,0.084-4.317,0.116-6.445-0.043c-2.737-0.204-5.472-0.47-8.198-0.786c-3.384-0.392-6.764-0.864-10.119-1.452
	c-3.474-0.608-6.974-1.34-10.36-2.33c-5.602-1.639-11.394-3.138-17.262-3.274c-1.79-0.041-3.575,0.042-5.355,0.239
	c-3.132,0.346-6.007,1.78-8.442,3.735c-0.84,0.674-1.638,1.416-2.367,2.209c-0.282,0.307-0.58,0.64-0.83,0.974L7.375,68.54
	l0.104-8.245l-2.833,2.834L4.44,7.685l0.686-0.042c1.257-0.078,2.544-0.094,3.802-0.092c2.719,0.005,5.477,0.141,8.172,0.5
	c1.53,0.204,3.066,0.485,4.554,0.9c2.128,0.595,4.243,1.299,6.353,1.959c2.827,0.885,5.662,1.731,8.528,2.48
	c7.009,1.831,14.203,3.097,21.46,3.234c6.401,0.121,12.786-1.322,18.556-4.084c1.79-0.857,3.539-1.845,5.18-2.963
	c0.613-0.418,1.272-0.881,1.837-1.365l1.213-1.04L84.72,15.664L84.72,15.664z M11.162,56.983v2.725
	c0.826-0.576,1.711-1.081,2.617-1.517c3.333-1.602,7.057-2.284,10.743-2.152c4.252,0.153,8.378,0.802,12.515,1.767
	c3.663,0.855,7.257,1.938,10.894,2.889c8.142,2.129,16.642,3.294,25.055,3.429c3.381,0.055,6.864-0.02,10.225-0.431
	c0.788-0.096,1.581-0.213,2.36-0.37c0.071-0.014,0.144-0.029,0.217-0.044l0.37-44.299l-1.382,0.71l-0.232,41.694l-0.593,0.109
	c-1.362,0.251-2.755,0.449-4.128,0.626c-2.972,0.384-5.991,0.652-8.987,0.708c-1.38,0.025-2.766,0.005-4.143-0.093
	c-4.028-0.285-8.026-0.823-11.995-1.568c-3.224-0.605-6.407-1.348-9.589-2.144c-4.2-1.05-8.401-2.074-12.645-2.933
	c-2.177-0.44-4.371-0.843-6.572-1.148c-1.773-0.246-3.648-0.457-5.44-0.436c-2.428,0.029-4.894,0.454-7.147,1.378
	c-0.626,0.257-1.246,0.556-1.828,0.904C11.376,56.85,11.268,56.915,11.162,56.983L11.162,56.983z M8.341,10.696L8.239,54.561
	c0.901-0.581,1.856-1.091,2.834-1.528c3.24-1.449,6.784-2.106,10.329-1.83c2.578,0.201,5.158,0.559,7.708,0.982
	c5.203,0.863,10.392,2.015,15.509,3.295c1.123,0.281,2.242,0.583,3.363,0.872c1.506,0.389,3.015,0.762,4.531,1.107
	c3.64,0.827,7.346,1.503,11.066,1.837c1.631,0.146,3.272,0.226,4.911,0.207c3.316-0.038,6.675-0.146,9.979-0.459
	c0.756-0.072,1.515-0.154,2.267-0.263c0.043-0.006,0.087-0.013,0.131-0.019l0.307-44.516c-0.711,0.337-1.43,0.661-2.146,0.978
	c-2.327,1.031-4.708,1.99-7.122,2.796c-1.724,0.576-3.51,1.093-5.3,1.416c-9.455,1.705-19.03,0.253-28.207-2.249
	c-5.162-1.408-10.311-2.859-15.465-4.299c-1.596-0.446-3.193-0.892-4.795-1.313c-0.902-0.237-1.852-0.494-2.771-0.654
	c-1.029-0.179-2.184-0.215-3.229-0.239C10.88,10.654,9.604,10.659,8.341,10.696L8.341,10.696z"/>
<path style="fill-rule:evenodd;clip-rule:evenodd;fill:#748FC9;" d="M5.17,8.369l0.197,53.008l2.863-2.863l-0.099,7.798
	c0,0,4.782-6.393,12.141-7.206c7.36-0.813,13.676,0.362,22.901,3.06c9.225,2.698,21.914,4.047,28.528,4.541
	c6.614,0.494,17.571-0.888,17.571-0.888V14.094c-1.763,0.926-3.526,1.852-5.289,2.779l0.057-8.109c0,0-10.365,8.884-26.06,8.588
	c-15.695-0.296-29.811-5.824-36.523-7.699C14.745,7.777,5.17,8.369,5.17,8.369L5.17,8.369z M10.434,56.606v4.597
	c0,0,5.03-4.759,14.062-4.435c9.032,0.325,16.22,2.794,23.251,4.633c7.031,1.839,15.69,3.299,25.228,3.453
	c9.537,0.154,13.537-1,13.537-1l0.385-46.071l-2.846,1.461l-0.231,41.533c0,0-9.556,1.763-17.075,1.231
	c-8.691-0.615-15.921-2.307-21.459-3.692c-5.538-1.384-18.382-4.615-24.843-4.538C13.982,53.855,10.434,56.606,10.434,56.606
	L10.434,56.606z M7.614,9.993L7.508,55.974c0,0,5.641-4.683,13.837-4.045c8.196,0.639,18.84,3.193,23.097,4.258
	c4.257,1.064,14.688,4.151,24.055,4.045c9.367-0.106,13.092-0.852,13.092-0.852l0.319-46.301c0,0-8.941,4.47-15.434,5.641
	c-6.493,1.171-15.008,1.277-27.887-2.235c-12.879-3.512-20.649-5.854-23.097-6.28C13.043,9.78,7.614,9.993,7.614,9.993L7.614,9.993z
	"/>
<path style="fill-rule:evenodd;clip-rule:evenodd;fill:#748FC9;" d="M23.929,31.781l-2.02,1.918l-0.251-0.264
	c-0.868-0.915-1.908-1.504-3.187-1.504c-0.962,0-1.786,0.319-2.47,0.998c-0.684,0.68-1.002,1.498-1.002,2.461
	c0,0.64,0.13,1.259,0.445,1.821c0.298,0.53,0.715,0.938,1.246,1.234c0.564,0.313,1.176,0.451,1.82,0.451
	c0.539,0,1.066-0.094,1.559-0.316c0.585-0.263,1.145-0.748,1.597-1.196l0.263-0.261l1.963,2.051l-0.257,0.252
	c-0.71,0.694-1.552,1.376-2.472,1.768c-0.847,0.361-1.764,0.503-2.681,0.503c-1.749,0-3.315-0.531-4.563-1.773
	c-1.242-1.235-1.782-2.787-1.782-4.528c0-1.126,0.245-2.203,0.813-3.179c0.56-0.961,1.352-1.698,2.322-2.241
	c1.005-0.563,2.089-0.844,3.242-0.844c0.989,0,1.938,0.212,2.838,0.621c0.911,0.415,1.698,1.007,2.352,1.766L23.929,31.781
	L23.929,31.781z M31.441,32.151h-3.04v9.263h-2.91v-12h8.845v12h-2.895V32.151L31.441,32.151z M39.595,32.214v1.454h0.107
	c0.807,0,1.691,0.069,2.458,0.334c0.709,0.245,1.268,0.705,1.695,1.319c0.47,0.675,0.67,1.448,0.67,2.267
	c0,0.712-0.117,1.468-0.511,2.076c-0.348,0.537-0.818,0.954-1.377,1.264c-0.7,0.389-1.589,0.485-2.377,0.485h-3.527v-12h6.631v2.8
	H39.595L39.595,32.214z M52.317,35.304l-3.677,6.11h-2.414v-12h2.863v6.321l3.741-6.321h2.351v12h-2.863V35.304L52.317,35.304z
	 M60.437,32.245v9.168h-2.863v-12h6.333v2.832H60.437L60.437,32.245z M71.097,29.131c1.708,0,3.166,0.63,4.369,1.84
	c1.227,1.234,1.828,2.739,1.828,4.477c0,1.721-0.589,3.211-1.804,4.433c-1.203,1.21-2.671,1.816-4.377,1.816
	c-1.751,0-3.265-0.599-4.478-1.868c-1.18-1.234-1.781-2.712-1.781-4.42c0-1.123,0.271-2.181,0.831-3.154
	c0.554-0.962,1.32-1.725,2.281-2.281C68.932,29.413,69.98,29.131,71.097,29.131L71.097,29.131z M39.595,36.312v2.333h0.178
	c0.345,0,1.355-0.022,1.623-0.282c0.213-0.207,0.282-0.482,0.282-0.772c0-0.243-0.045-0.488-0.186-0.69
	c-0.36-0.517-1.244-0.589-1.812-0.589H39.595L39.595,36.312z M71.066,31.963c-0.927,0-1.711,0.315-2.359,0.979
	c-0.678,0.695-0.959,1.547-0.959,2.511c0,1.081,0.359,1.986,1.203,2.675c0.63,0.513,1.341,0.769,2.154,0.769
	c0.92,0,1.687-0.334,2.326-0.994c0.666-0.687,0.967-1.511,0.967-2.465c0-0.958-0.309-1.781-0.976-2.471
	C72.776,32.297,71.997,31.963,71.066,31.963L71.066,31.963z"/>
<path style="fill:#748FC9;" d="M23.427,31.756l-1.505,1.429c-1.023-1.078-2.172-1.617-3.451-1.617c-1.078,0-1.989,0.369-2.726,1.104
	c-0.741,0.735-1.109,1.641-1.109,2.719c0,0.751,0.165,1.418,0.492,1.999c0.327,0.583,0.79,1.041,1.387,1.374
	c0.599,0.332,1.264,0.497,1.997,0.497c0.623,0,1.193-0.115,1.709-0.348c0.518-0.233,1.086-0.657,1.703-1.269l1.457,1.523
	c-0.832,0.814-1.62,1.379-2.36,1.693c-0.741,0.317-1.588,0.474-2.538,0.474c-1.753,0-3.19-0.555-4.307-1.667
	c-1.117-1.109-1.675-2.535-1.675-4.27c0-1.125,0.254-2.122,0.764-2.996c0.508-0.874,1.235-1.575,2.185-2.106
	c0.947-0.531,1.968-0.798,3.064-0.798c0.929,0,1.824,0.196,2.687,0.589C22.061,30.476,22.804,31.034,23.427,31.756L23.427,31.756z
	 M25.855,29.778h8.117V41.05h-2.167v-9.263h-3.768v9.263h-2.182V29.778L25.855,29.778z M37.096,41.05V29.778h5.903v2.072h-3.768
	v2.182h0.471c0.955,0,1.735,0.105,2.339,0.314c0.607,0.209,1.112,0.604,1.515,1.183c0.403,0.581,0.604,1.266,0.604,2.059
	c0,0.785-0.152,1.413-0.453,1.879c-0.304,0.468-0.72,0.848-1.248,1.143c-0.531,0.293-1.264,0.44-2.201,0.44H37.096L37.096,41.05z
	 M39.231,35.948v3.061h0.542c0.986,0,1.612-0.128,1.876-0.385c0.262-0.254,0.392-0.599,0.392-1.034c0-1.096-0.788-1.643-2.363-1.643
	H39.231L39.231,35.948z M54.816,29.778V41.05h-2.135v-7.057l-4.247,7.057H46.59V29.778h2.135v7.287l4.312-7.287H54.816
	L54.816,29.778z M57.938,29.778h5.605v2.104h-3.47v9.168h-2.135V29.778L57.938,29.778z M71.097,29.495
	c1.593,0,2.965,0.578,4.111,1.732c1.149,1.154,1.722,2.562,1.722,4.221c0,1.646-0.565,3.038-1.698,4.176
	c-1.13,1.138-2.504,1.709-4.118,1.709c-1.693,0-3.098-0.586-4.215-1.756c-1.12-1.17-1.68-2.559-1.68-4.168
	c0-1.075,0.262-2.067,0.782-2.972c0.521-0.903,1.238-1.62,2.148-2.148C69.061,29.759,70.045,29.495,71.097,29.495L71.097,29.495z
	 M71.066,31.599c-1.039,0-1.913,0.364-2.619,1.088c-0.709,0.725-1.062,1.646-1.062,2.766c0,1.245,0.445,2.232,1.337,2.957
	c0.693,0.568,1.486,0.85,2.384,0.85c1.013,0,1.876-0.369,2.588-1.104c0.714-0.735,1.07-1.641,1.07-2.719
	c0-1.073-0.358-1.981-1.078-2.724C72.968,31.97,72.094,31.599,71.066,31.599L71.066,31.599z"/>
</svg>
