<?xml version="1.0" encoding="iso-8859-1"?>
<!-- Generator: Adobe Illustrator 17.0.0, SVG Export Plug-In . SVG Version: 6.00 Build 0)  -->
<!DOCTYPE svg PUBLIC "-//W3C//DTD SVG 1.1//EN" "http://www.w3.org/Graphics/SVG/1.1/DTD/svg11.dtd">
<svg version="1.1" id="&#x421;&#x43B;&#x43E;&#x439;_2"
	 xmlns="http://www.w3.org/2000/svg" xmlns:xlink="http://www.w3.org/1999/xlink" x="0px" y="0px" width="199.142px"
	 height="47.623px" viewBox="0 0 199.142 47.623" style="enable-background:new 0 0 199.142 47.623;" xml:space="preserve">
<g>
	<g>
		<path style="fill:#002093;" d="M1.878,40.934c-0.481,0-1.298-0.104-1.298-0.297v6.548h6v-9.692l-2.852,2.655
			C3.126,40.655,2.665,40.934,1.878,40.934z"/>
		<polygon style="fill:#2582CE;" points="57.949,22.138 54.58,18.427 54.58,47.185 60.58,47.185 60.58,11.681 		"/>
		<polygon style="fill:#002093;" points="43.58,47.185 49.58,47.185 49.58,20.738 43.58,27.421 		"/>
		<path style="fill:#2582CE;" d="M35.706,32.935c-0.303-0.083-0.68-0.206-0.943-0.366l-2.184-1.28v15.897h7V32.048l-0.214,0.146
			C38.439,33.121,36.95,33.432,35.706,32.935z"/>
		<polygon style="fill:#002093;" points="21.58,47.185 28.58,47.185 28.58,28.772 21.58,24.684 		"/>
		<polygon style="fill:#2582CE;" points="10.58,47.185 17.58,47.185 17.58,28.41 10.58,34.033 		"/>
		<path style="fill:#002093;" d="M54.133,1.868l-3.982,1.149l-2.735,0.786l2.782,2.766l1.017,1.009L50.21,8.589l-6.57,6.572
			l-4.549,4.55l-2.752,2.752l-3.819-2.337l-4.044-2.474l-6.197-3.791c-0.016-0.01-0.032-0.014-0.048-0.023
			c-0.05-0.028-0.101-0.052-0.153-0.074c-0.042-0.018-0.083-0.035-0.125-0.049c-0.016-0.005-0.033-0.008-0.049-0.012
			c-0.034-0.009-0.067-0.018-0.101-0.026c-0.046-0.01-0.092-0.02-0.139-0.025c-0.05-0.006-0.1-0.007-0.151-0.008
			c-0.046-0.001-0.092-0.002-0.138,0.001c-0.052,0.004-0.104,0.013-0.156,0.022c-0.044,0.008-0.087,0.015-0.13,0.027
			c-0.051,0.014-0.1,0.032-0.149,0.051c-0.044,0.017-0.086,0.033-0.128,0.054c-0.043,0.022-0.085,0.047-0.127,0.073
			c-0.045,0.028-0.089,0.057-0.132,0.09c-0.015,0.012-0.032,0.019-0.047,0.032l-3.153,2.653l-6.572,5.53l-4.044,3.403l-6.199,5.216
			c-0.159,0.134-0.283,0.293-0.373,0.467c-0.221,0.43-0.224,0.946,0,1.385c0.052,0.101,0.112,0.199,0.188,0.289
			c0.301,0.357,0.731,0.541,1.164,0.541c0.346,0,0.693-0.117,0.978-0.357l4.242-3.569l4.044-3.403l6.572-5.53l4.273-3.595
			l0.277,0.169l6.572,4.02l4.044,2.474l2.981,1.823c0.152,0.093,0.315,0.153,0.48,0.188c0.204,0.095,0.422,0.148,0.642,0.148
			c0.389,0,0.778-0.148,1.075-0.445l1.395-1.395l4.55-4.55l6.572-6.572l3.159-3.159l0.886,0.886l2.646,2.771L60.58,0.01V0
			L54.133,1.868z"/>
	</g>
	<g>
		<path style="fill:#002093;" d="M79.573,22.042h20.318v6.03H87.649v4.312h10.524v5.774H87.649v9.026h-8.076V22.042z"/>
		<path style="fill:#002093;" d="M129.674,47.184h-9.794l-4.641-7.82h-0.146l-4.641,7.82h-9.063l8.99-13.302l-8.113-11.84h9.757
			l3.801,6.432h0.146l3.837-6.432h9.026l-8.149,11.877L129.674,47.184z"/>
		<path style="fill:#2582CE;" d="M130.624,34.65h9.026v3.179h-9.026V34.65z"/>
		<path style="fill:#2582CE;" d="M158.981,44.114v3.07h-15.239V21.859h3.545v22.255H158.981z"/>
		<path style="fill:#2582CE;" d="M164.17,24.746c-0.609,0-1.127-0.201-1.553-0.603c-0.426-0.402-0.64-0.944-0.64-1.626
			c0-0.682,0.213-1.224,0.64-1.626c0.426-0.402,0.944-0.603,1.553-0.603c0.609,0,1.127,0.201,1.553,0.603
			c0.426,0.402,0.64,0.944,0.64,1.626c0,0.682-0.213,1.224-0.64,1.626C165.297,24.545,164.779,24.746,164.17,24.746z
			 M165.888,47.184h-3.398V28.181h3.398V47.184z"/>
		<path style="fill:#2582CE;" d="M176.156,44.735c1.389,0,2.418-0.183,3.088-0.548c0.67-0.365,1.005-0.95,1.005-1.754
			c0-0.828-0.329-1.486-0.987-1.973c-0.658-0.487-1.742-1.035-3.252-1.644c-0.731-0.292-1.431-0.59-2.101-0.895
			c-0.671-0.304-1.249-0.663-1.736-1.078c-0.488-0.414-0.877-0.914-1.169-1.498c-0.292-0.585-0.439-1.303-0.439-2.156
			c0-1.681,0.621-3.015,1.864-4.002c1.242-0.987,2.935-1.48,5.079-1.48c0.536,0,1.072,0.031,1.608,0.091
			c0.536,0.061,1.035,0.134,1.498,0.219c0.463,0.086,0.871,0.177,1.224,0.274c0.353,0.098,0.627,0.183,0.822,0.256l-0.621,2.923
			c-0.365-0.195-0.938-0.396-1.718-0.603c-0.78-0.207-1.718-0.311-2.814-0.311c-0.95,0-1.779,0.189-2.485,0.566
			c-0.707,0.378-1.06,0.969-1.06,1.772c0,0.415,0.079,0.78,0.238,1.096c0.158,0.317,0.402,0.603,0.731,0.859
			c0.329,0.256,0.737,0.493,1.224,0.713c0.487,0.219,1.072,0.451,1.754,0.694c0.901,0.341,1.705,0.676,2.412,1.005
			c0.706,0.329,1.309,0.712,1.809,1.151c0.499,0.439,0.883,0.968,1.151,1.59c0.268,0.621,0.402,1.383,0.402,2.284
			c0,1.754-0.652,3.082-1.955,3.983c-1.303,0.902-3.161,1.352-5.573,1.352c-1.681,0-2.996-0.141-3.947-0.421
			c-0.95-0.28-1.596-0.493-1.937-0.64l0.621-2.923c0.389,0.146,1.011,0.365,1.864,0.658
			C173.61,44.589,174.743,44.735,176.156,44.735z"/>
		<path style="fill:#2582CE;" d="M191.212,28.181h7.199v2.85h-7.199v8.77c0,0.95,0.073,1.736,0.219,2.357
			c0.146,0.621,0.365,1.109,0.658,1.462c0.293,0.353,0.658,0.603,1.096,0.749c0.439,0.146,0.95,0.219,1.535,0.219
			c1.023,0,1.845-0.115,2.467-0.347c0.621-0.231,1.053-0.396,1.297-0.493l0.658,2.814c-0.342,0.171-0.938,0.384-1.791,0.64
			c-0.853,0.256-1.827,0.383-2.923,0.383c-1.292,0-2.357-0.164-3.198-0.493s-1.517-0.822-2.028-1.48
			c-0.512-0.658-0.871-1.467-1.078-2.43c-0.207-0.962-0.31-2.077-0.31-3.344V22.882l3.398-0.585V28.181z"/>
	</g>
</g>
</svg>
