<svg width="799" height="736" viewBox="0 0 799 736" fill="none" xmlns="http://www.w3.org/2000/svg">
<path d="M399.723 193.377C396.358 193.377 393.192 194.217 390.408 195.683C387.969 187.372 380.299 181.298 371.199 181.298C371.127 181.298 371.057 181.309 370.985 181.31C371.111 180.432 371.199 179.543 371.199 178.631C371.199 168.339 362.854 159.994 352.561 159.994C342.267 159.994 333.922 168.338 333.922 178.631C333.922 178.637 333.923 178.642 333.923 178.647C333.877 178.646 333.83 178.644 333.785 178.643C333.865 178.04 333.922 177.428 333.922 176.801C333.922 169.231 327.787 163.096 320.218 163.096C316.405 163.096 312.958 164.655 310.474 167.167C306.788 160.041 300.123 154.71 292.124 152.82C293.789 149.881 294.752 146.493 294.752 142.874C294.752 131.706 285.699 122.653 274.53 122.653C272.968 122.653 271.454 122.847 269.994 123.183C267.289 117.615 261.596 113.766 254.989 113.766C253.62 113.766 252.297 113.949 251.023 114.259C248.754 111.792 245.51 110.238 241.894 110.238C237.866 110.238 234.297 112.164 232.028 115.136C231.205 110.452 227.89 106.639 223.496 105.1C222.422 93.2694 212.481 84 200.371 84C187.543 84 177.143 94.3999 177.143 107.228C177.143 111.767 178.449 115.999 180.701 119.576C177.75 120.925 174.921 122.487 172.23 124.246C170.258 123.441 168.105 122.991 165.844 122.991C157.563 122.991 150.682 128.943 149.217 136.798C145.39 135.679 141.345 135.069 137.156 135.069C115.053 135.069 96.8604 151.774 94.4957 173.245C93.9243 173.189 93.3443 173.157 92.7577 173.157C83.1773 173.157 75.4102 180.924 75.4102 190.505C75.4102 200.085 83.1764 207.851 92.7577 207.851C96.7035 207.851 100.33 206.519 103.244 204.3C111.098 214.41 123.362 220.922 137.156 220.922C143.844 220.922 150.173 219.392 155.815 216.663C167.557 232.375 186.304 242.546 207.427 242.546C234.883 242.546 258.31 225.356 267.571 201.157C272.447 205.328 278.772 207.851 285.69 207.851C290.279 207.851 294.606 206.736 298.424 204.773C298.157 206.196 298.011 207.662 298.011 209.162C298.011 222.228 308.602 232.819 321.668 232.819C329.828 232.819 337.022 228.686 341.274 222.402C346.725 220.346 351.175 216.247 353.683 211.037C357.101 217.191 363.66 221.359 371.199 221.359C374.564 221.359 377.73 220.52 380.514 219.054C382.953 227.364 390.623 233.438 399.723 233.438C410.786 233.438 419.753 224.47 419.753 213.408C419.754 202.345 410.786 193.377 399.723 193.377Z" fill="white"/>
<path d="M683.976 199.261C680.822 199.261 677.951 200.447 675.761 202.387C673.26 196.189 667.198 191.808 660.104 191.808C655.638 191.808 651.588 193.556 648.568 196.388C645.285 189.14 638.525 183.805 630.414 182.513C630.747 180.749 630.929 178.929 630.929 177.066C630.929 168.941 627.615 161.591 622.267 156.288C623.019 154.688 623.451 152.908 623.451 151.023C623.451 144.169 617.895 138.613 611.04 138.613C608.168 138.613 605.531 139.598 603.427 141.237C598.603 138.062 592.831 136.209 586.624 136.209C569.719 136.209 556.015 149.912 556.015 166.816C556.015 168.759 556.204 170.656 556.551 172.498C551.609 169.956 546.012 168.514 540.073 168.514C534.824 168.514 529.841 169.644 525.341 171.659C523.366 167.422 519.081 164.477 514.098 164.477C507.245 164.477 501.688 170.034 501.688 176.888C501.688 181.584 504.298 185.67 508.146 187.778C506.379 191.123 505.124 194.777 504.482 198.64C500.655 195.866 495.951 194.224 490.862 194.224C480.166 194.224 471.162 201.455 468.459 211.294C467.249 210.9 465.959 210.68 464.617 210.68C457.764 210.68 452.207 216.237 452.207 223.091C452.207 229.944 457.764 235.501 464.617 235.501C467.831 235.501 470.749 234.269 472.954 232.266C477.215 237.415 483.656 240.696 490.862 240.696C500.21 240.696 508.265 235.173 511.952 227.215C518.567 235.432 528.703 240.696 540.074 240.696C554.039 240.696 566.141 232.76 572.142 221.157C575.357 224.409 579.816 226.426 584.75 226.426C588.811 226.426 592.541 225.047 595.53 222.751C605.914 227.572 619.211 230.439 626.599 230.439C635.156 230.439 642.665 225.979 646.946 219.258C650.041 223.108 654.781 225.577 660.105 225.577C665.701 225.577 670.647 222.844 673.719 218.653C675.953 221.928 679.713 224.081 683.976 224.081C690.83 224.081 696.387 218.524 696.387 211.67C696.387 204.816 690.83 199.261 683.976 199.261Z" fill="white"/>
<path d="M161.429 148.371C164.135 148.431 166.642 149.211 168.708 150.643C172.223 153.081 174.467 154.582 176.788 153.223C178.153 152.424 179.74 151.966 181.436 151.966C181.789 151.966 182.136 151.988 182.478 152.029C183.05 152.095 183.409 147.54 187.015 143.982C189.142 141.883 192.063 140.588 195.288 140.588C197.625 140.588 199.801 141.27 201.631 142.444C204.745 144.443 207.313 146.385 209.253 145.751C210.397 145.379 211.617 145.134 212.885 145.176C222.935 145.513 226.841 154.289 226.841 152.837C226.841 145.954 221.262 140.375 214.379 140.375C213.038 140.375 211.748 140.588 210.539 140.984C208.49 141.652 205.776 139.599 202.484 137.487C200.55 136.245 198.251 135.525 195.781 135.525C192.306 135.525 189.164 136.948 186.906 139.243C183.224 142.987 182.847 147.687 182.242 147.615C181.881 147.572 181.514 147.55 181.141 147.55C179.349 147.55 177.672 148.035 176.229 148.879C173.776 150.315 171.404 148.729 167.689 146.153C165.506 144.638 162.856 143.751 159.996 143.751C152.512 143.751 146.445 149.818 146.445 157.302C146.444 158.897 150.791 148.137 161.429 148.371Z" fill="#F5FAFD"/>
<path d="M266.372 159.34C263.666 159.399 261.158 160.18 259.093 161.613C255.578 164.05 253.334 165.552 251.012 164.192C249.648 163.394 248.061 162.936 246.365 162.936C246.012 162.936 245.665 162.957 245.323 162.997C244.75 163.065 244.392 158.509 240.786 154.951C238.659 152.853 235.738 151.557 232.513 151.557C230.175 151.557 228 152.239 226.171 153.413C223.057 155.413 220.488 157.355 218.549 156.721C217.405 156.347 216.185 156.103 214.917 156.146C204.867 156.482 200.961 165.257 200.961 163.806C200.961 156.923 206.54 151.344 213.423 151.344C214.764 151.344 216.054 151.558 217.263 151.953C219.312 152.621 222.026 150.568 225.318 148.456C227.252 147.214 229.551 146.494 232.021 146.494C235.496 146.494 238.638 147.918 240.896 150.213C244.578 153.956 244.955 158.656 245.56 158.585C245.921 158.542 246.288 158.52 246.661 158.52C248.453 158.52 250.13 159.004 251.572 159.847C254.026 161.285 256.398 159.699 260.113 157.121C262.296 155.608 264.946 154.721 267.806 154.721C275.289 154.721 281.357 160.788 281.357 168.271C281.357 169.868 277.009 159.106 266.372 159.34Z" fill="#F5FAFD"/>
<path d="M241.516 138.094C242.964 138.636 245.574 135.861 249.51 133.432C251.824 132.005 254.548 131.181 257.467 131.181C261.867 131.181 265.827 133.051 268.602 136.038C272.175 139.886 272.608 144.099 272.646 143.58C272.667 143.27 272.681 142.956 272.681 142.641C272.681 134.238 265.869 127.428 257.468 127.428C254.549 127.428 251.824 128.251 249.511 129.678C245.574 132.108 242.964 134.884 241.517 134.34C240.665 134.02 239.742 133.845 238.778 133.845C234.446 133.845 230.934 137.356 230.934 141.689C230.934 142.009 230.955 142.325 230.994 142.634C231.061 143.154 231.683 141.046 233.946 139.268C235.277 138.221 236.953 137.598 238.779 137.598C239.741 137.598 240.663 137.774 241.516 138.094Z" fill="#F5FAFD"/>
<path d="M314.401 187.03C315.847 187.573 318.459 184.797 322.395 182.369C324.708 180.941 327.432 180.118 330.351 180.118C334.752 180.118 338.711 181.987 341.486 184.975C345.059 188.824 345.492 193.036 345.529 192.518C345.551 192.207 345.564 191.894 345.564 191.576C345.564 183.175 338.753 176.363 330.351 176.363C327.432 176.363 324.707 177.188 322.395 178.615C318.458 181.045 315.847 183.82 314.401 183.277C313.549 182.957 312.626 182.781 311.661 182.781C307.329 182.781 303.816 186.294 303.816 190.625C303.816 190.947 303.837 191.262 303.877 191.572C303.944 192.092 304.567 189.985 306.828 188.206C308.159 187.16 309.836 186.536 311.661 186.536C312.626 186.536 313.549 186.71 314.401 187.03Z" fill="#F5FAFD"/>
<path d="M626.741 194.202C624.035 194.262 621.529 195.041 619.464 196.474C615.948 198.911 613.703 200.413 611.383 199.054C610.018 198.254 608.431 197.797 606.735 197.797C606.382 197.797 606.035 197.818 605.693 197.859C605.121 197.925 604.762 193.37 601.157 189.812C599.03 187.714 596.108 186.419 592.884 186.419C590.546 186.419 588.371 187.101 586.541 188.274C583.428 190.273 580.858 192.216 578.919 191.582C577.776 191.21 576.555 190.965 575.288 191.007C565.238 191.343 561.332 200.119 561.332 198.667C561.332 191.785 566.91 186.205 573.794 186.205C575.135 186.205 576.424 186.419 577.633 186.814C579.681 187.482 582.396 185.43 585.688 183.317C587.622 182.076 589.921 181.355 592.391 181.355C595.866 181.355 599.008 182.778 601.266 185.073C604.948 188.817 605.325 193.517 605.93 193.446C606.291 193.403 606.659 193.38 607.031 193.38C608.823 193.38 610.5 193.865 611.942 194.71C614.395 196.146 616.768 194.559 620.482 191.984C622.666 190.469 625.315 189.582 628.175 189.582C635.659 189.582 641.726 195.649 641.726 203.133C641.727 204.728 637.38 193.968 626.741 194.202Z" fill="#F5FAFD"/>
<path d="M522.725 201.814C524.172 202.356 526.782 199.58 530.719 197.151C533.032 195.725 535.756 194.9 538.675 194.9C543.076 194.9 547.035 196.771 549.81 199.758C553.383 203.606 553.816 207.818 553.853 207.3C553.875 206.99 553.888 206.676 553.888 206.359C553.888 197.957 547.077 191.146 538.675 191.146C535.756 191.146 533.031 191.97 530.719 193.398C526.782 195.827 524.171 198.603 522.725 198.059C521.873 197.739 520.95 197.563 519.985 197.563C515.653 197.563 512.141 201.076 512.141 205.408C512.141 205.728 512.162 206.044 512.201 206.354C512.267 206.874 512.89 204.766 515.152 202.987C516.483 201.941 518.16 201.317 519.985 201.317C520.95 201.318 521.873 201.493 522.725 201.814Z" fill="#F5FAFD"/>
<path d="M589.358 175.011C587.912 175.554 585.3 172.777 581.364 170.349C579.051 168.922 576.327 168.098 573.408 168.098C569.007 168.098 565.048 169.968 562.273 172.955C558.7 176.804 558.267 181.016 558.229 180.498C558.208 180.187 558.195 179.874 558.195 179.557C558.195 171.155 565.006 164.344 573.408 164.344C576.327 164.344 579.051 165.168 581.364 166.595C585.301 169.026 587.912 171.8 589.358 171.257C590.21 170.938 591.133 170.762 592.098 170.762C596.43 170.762 599.942 174.274 599.942 178.606C599.942 178.927 599.922 179.243 599.883 179.553C599.816 180.072 599.193 177.965 596.931 176.186C595.6 175.14 593.923 174.516 592.098 174.516C591.133 174.515 590.21 174.69 589.358 175.011Z" fill="#F5FAFD"/>
<path d="M797.273 216.076V453.105L0 457.229C28.5242 434.106 287.402 238.301 406.957 239.833C567.835 241.893 735.576 230.669 797.273 216.076Z" fill="#688E59"/>
<path d="M36.6445 197.441C36.6445 197.441 168.195 182.141 397.481 211.201C626.768 240.26 797.291 199.176 797.291 199.176V216.079L36.6445 269.588V197.441Z" fill="#86BC6D"/>
<path d="M36.6445 440.736C36.6445 440.736 262.594 247.521 516.168 248.761C695.681 249.639 797.291 221.241 797.291 221.241V207.816C797.291 207.816 692.702 231.159 505.393 227.44C318.084 223.722 110.046 201.472 36.6445 252.298V408.774V440.736Z" fill="#535353"/>
<path d="M7.2333 333.511C62.6968 290.67 221.107 253.475 310.352 246.906C434.075 234.276 633.433 255.108 797.288 214.188V213.158C797.288 213.158 693.913 240.106 520.781 235.504C316.538 230.075 84.8801 240.469 5.17107 310.829C5.17107 310.829 2.59336 337.095 7.2333 333.511Z" fill="white"/>
<path d="M798.003 247.672C798.003 247.672 739.875 240.969 654.854 270.214C654.854 270.214 617.593 256.388 563.859 266.75C563.859 266.75 535.713 263.788 509.414 270.214C509.414 270.214 483.114 285.197 798.003 278.066V247.672Z" fill="#86BC6D"/>
<path d="M161.375 204.283L158.253 203.172L151.187 200.667L150.595 205.798L143.063 202.517L132.918 206.893V202.767L123.999 207.818V204.031C123.999 204.031 121.221 206.303 121.473 205.716C121.726 205.126 127.868 194.52 127.868 194.52C127.868 194.52 123.242 195.53 123.827 195.11C124.419 194.686 130.479 185.595 130.479 185.595L126.777 186.099C128.372 184.838 133.55 175.831 133.55 175.831H131.615C131.615 175.831 139.232 165.669 140.622 164.083C140.742 163.946 140.814 163.877 140.834 163.877L148.875 175.998L146.177 176.083L153.461 184.669L149.759 184.923L156.072 193.171L152.789 193.257L161.375 204.283Z" fill="#007945"/>
<path d="M158.258 202.939C158.408 203.913 153.081 199.635 150.847 199.258C149.099 197.024 146.922 194.191 146.689 192.552C146.642 192.196 149.582 191.651 149.522 191.267C149.185 188.991 145.238 184.975 144.737 182.166C144.593 181.336 147.348 182.982 147.191 182.137C146.787 179.951 143.627 176.134 143.174 174.015C143.099 173.674 144.532 173.886 144.456 173.544C143.729 170.26 141.955 166.416 140.762 163.825C140.81 163.693 140.837 163.625 140.837 163.625C141.947 165.743 145.058 170.67 146.354 174.824C146.457 175.154 145.011 175.064 145.114 175.406C145.744 177.47 149.213 181.012 149.802 183.157C150.028 183.98 147.15 182.576 147.362 183.39C148.095 186.146 152.365 189.813 152.901 192.061C152.989 192.437 150.121 193.035 150.202 193.392C150.707 195.593 158.113 202.021 158.258 202.939Z" fill="#00964B"/>
<path d="M158.249 203.172L151.183 200.666L150.591 205.798L143.059 202.517L132.914 206.893V202.767L123.994 207.817V204.03C123.994 204.03 119.911 205.964 120.164 205.379C120.416 204.788 127.629 194.925 127.629 194.925C127.629 194.925 123.114 195.865 123.7 195.445C124.291 195.022 129.924 186.421 129.924 186.421L126.099 186.943C127.695 185.682 133.546 175.832 133.546 175.832H131.611C131.611 175.832 139.228 165.67 140.617 164.084C138.698 168.105 136.877 172.1 136.41 174.022C136.162 175.044 140.24 175.665 140.24 175.665L135.652 176.252C135.652 176.252 132.364 182.294 132.558 183.408C132.901 185.377 141.412 184.966 141.412 184.966L132.521 186.284C132.521 186.284 128.377 192.125 129.844 193.068C131.421 194.084 145.587 193.006 145.587 193.006L134.728 194.941C134.728 194.941 129.149 201.971 129.592 202.769C129.786 203.118 131.669 202.46 133.947 201.5C134.431 201.297 133.975 203.258 135.19 202.854C137.031 202.242 143.521 200.917 143.521 200.917C143.521 200.917 148.219 203.9 149.544 203.194C150.467 202.7 150.639 199.154 150.639 199.154L158.249 203.172Z" fill="#1B5E54"/>
<path d="M102.804 213.988L99.683 212.876L92.6166 210.371L92.0252 215.502L84.4929 212.221L74.3478 216.598V212.472L65.4282 217.523V213.736C65.4282 213.736 62.6509 216.008 62.9029 215.421C63.1558 214.831 69.298 204.225 69.298 204.225C69.298 204.225 64.6714 205.235 65.258 204.815C65.8494 204.391 71.9099 195.3 71.9099 195.3L68.2074 195.804C69.8029 194.543 74.981 185.537 74.981 185.537H73.0461C73.0461 185.537 80.663 175.374 82.0522 173.788C82.1729 173.651 82.2442 173.582 82.2642 173.582L90.3042 185.703L87.6068 185.789L94.8909 194.374L91.1894 194.628L97.5028 202.876L94.2196 202.962L102.804 213.988Z" fill="#007945"/>
<path d="M99.6882 212.644C99.8384 213.618 94.512 209.34 92.2776 208.964C90.53 206.729 88.3526 203.896 88.1187 202.257C88.0712 201.901 91.0121 201.356 90.9512 200.972C90.6146 198.696 86.6678 194.68 86.1667 191.871C86.0232 191.041 88.7777 192.686 88.6208 191.842C88.2167 189.656 85.0562 185.839 84.6036 183.721C84.5285 183.379 85.9614 183.591 85.8853 183.249C85.1589 179.965 83.3847 176.121 82.1914 173.53C82.2399 173.399 82.2665 173.33 82.2665 173.33C83.3771 175.448 86.4881 180.376 87.7841 184.529C87.8867 184.859 86.4406 184.769 86.5433 185.112C87.1736 187.175 90.6422 190.718 91.2317 192.863C91.458 193.685 88.5799 192.281 88.7919 193.095C89.525 195.851 93.7951 199.518 94.3304 201.766C94.4188 202.142 91.5502 202.74 91.632 203.097C92.1378 205.298 99.5446 211.726 99.6882 212.644Z" fill="#00964B"/>
<path d="M99.6789 212.88L92.6125 210.374L92.0211 215.506L84.4888 212.225L74.3436 216.602V212.476L65.4241 217.526V213.739C65.4241 213.739 61.3404 215.673 61.5933 215.088C61.8453 214.497 69.0591 204.634 69.0591 204.634C69.0591 204.634 64.5427 205.574 65.1294 205.154C65.7208 204.731 71.3534 196.13 71.3534 196.13L67.5283 196.652C69.1247 195.391 74.9759 185.541 74.9759 185.541H73.041C73.041 185.541 80.658 175.379 82.0471 173.793C80.1274 177.814 78.3066 181.809 77.8398 183.731C77.5916 184.753 81.6696 185.374 81.6696 185.374L77.082 185.961C77.082 185.961 73.7941 192.003 73.988 193.117C74.3303 195.086 82.842 194.675 82.842 194.675L73.951 195.993C73.951 195.993 69.8064 201.834 71.2735 202.777C72.8509 203.793 87.017 202.715 87.017 202.715L76.1578 204.65C76.1578 204.65 70.5784 211.68 71.0215 212.478C71.2155 212.827 73.099 212.169 75.3772 211.209C75.8602 211.006 75.4048 212.967 76.6199 212.563C78.4606 211.951 84.9509 210.626 84.9509 210.626C84.9509 210.626 89.6488 213.609 90.9723 212.903C91.8956 212.409 92.0677 208.863 92.0677 208.863L99.6789 212.88Z" fill="#1B5E54"/>
<path d="M365.082 212.968L362.829 212.166L357.732 210.359L357.306 214.062L351.872 211.695L344.554 214.852V211.875L338.119 215.518V212.786C338.119 212.786 336.115 214.426 336.297 214.002C336.479 213.577 340.91 205.925 340.91 205.925C340.91 205.925 337.573 206.654 337.996 206.351C338.422 206.045 342.794 199.487 342.794 199.487L340.123 199.851C341.273 198.941 345.009 192.444 345.009 192.444H343.613C343.613 192.444 349.108 185.112 350.109 183.969C350.197 183.87 350.248 183.82 350.262 183.82L356.062 192.564L354.117 192.625L359.371 198.819L356.7 199.002L361.255 204.952L358.886 205.013L365.082 212.968Z" fill="#007945"/>
<path d="M362.83 211.997C362.938 212.7 359.096 209.615 357.484 209.343C356.223 207.731 354.652 205.686 354.484 204.505C354.45 204.247 356.572 203.855 356.527 203.578C356.285 201.936 353.437 199.04 353.076 197.013C352.972 196.414 354.959 197.6 354.845 196.992C354.553 195.415 352.274 192.661 351.948 191.133C351.894 190.887 352.927 191.04 352.872 190.794C352.348 188.424 351.068 185.652 350.207 183.782C350.242 183.687 350.261 183.639 350.261 183.639C351.063 185.167 353.308 188.722 354.241 191.718C354.315 191.955 353.272 191.892 353.347 192.138C353.801 193.626 356.304 196.182 356.729 197.73C356.892 198.323 354.816 197.31 354.969 197.898C355.498 199.886 358.578 202.531 358.964 204.152C359.028 204.424 356.958 204.856 357.018 205.114C357.383 206.7 362.726 211.336 362.83 211.997Z" fill="#00964B"/>
<path d="M362.826 212.169L357.729 210.362L357.303 214.065L351.869 211.698L344.551 214.855V211.878L338.116 215.521V212.789C338.116 212.789 335.17 214.185 335.352 213.761C335.533 213.335 340.737 206.221 340.737 206.221C340.737 206.221 337.48 206.898 337.903 206.596C338.329 206.291 342.393 200.085 342.393 200.085L339.633 200.462C340.785 199.551 345.006 192.446 345.006 192.446H343.611C343.611 192.446 349.105 185.115 350.106 183.971C348.722 186.872 347.408 189.754 347.071 191.14C346.893 191.877 349.835 192.325 349.835 192.325L346.526 192.749C346.526 192.749 344.153 197.107 344.294 197.911C344.54 199.332 350.681 199.034 350.681 199.034L344.268 199.986C344.268 199.986 341.277 204.199 342.336 204.879C343.474 205.612 353.692 204.833 353.692 204.833L345.858 206.229C345.858 206.229 341.833 211.301 342.153 211.876C342.293 212.129 343.651 211.654 345.295 210.961C345.644 210.815 345.314 212.23 346.191 211.938C347.518 211.496 352.201 210.54 352.201 210.54C352.201 210.54 355.59 212.692 356.545 212.182C357.211 211.827 357.336 209.268 357.336 209.268L362.826 212.169Z" fill="#1B5E54"/>
<path d="M700.042 256.066L693.48 253.73L678.624 248.464L677.382 259.252L661.548 252.353L640.217 261.556V252.882L621.464 263.501V255.537C621.464 255.537 615.624 260.314 616.155 259.082C616.686 257.84 629.599 235.54 629.599 235.54C629.599 235.54 619.872 237.664 621.103 236.785C622.347 235.893 635.088 216.778 635.088 216.778L627.304 217.841C630.659 215.186 641.544 196.253 641.544 196.253H637.477C637.477 196.253 653.492 174.887 656.411 171.554C656.665 171.267 656.814 171.117 656.857 171.117L673.761 196.603L668.089 196.784L683.402 214.834L675.62 215.366L688.892 232.706L681.989 232.885L700.042 256.066Z" fill="#007945"/>
<path d="M693.479 253.24C693.796 255.286 682.598 246.294 677.898 245.502C674.225 240.804 669.647 234.845 669.157 231.403C669.058 230.652 675.24 229.508 675.111 228.702C674.404 223.918 666.105 215.474 665.052 209.564C664.75 207.823 670.541 211.281 670.211 209.508C669.361 204.911 662.718 196.886 661.767 192.433C661.609 191.712 664.62 192.158 664.461 191.437C662.935 184.536 659.203 176.453 656.695 171.006C656.796 170.733 656.853 170.59 656.853 170.59C659.187 175.042 665.73 185.401 668.453 194.135C668.669 194.826 665.629 194.638 665.845 195.358C667.17 199.696 674.462 207.145 675.7 211.656C676.175 213.384 670.125 210.431 670.57 212.147C672.113 217.938 681.089 225.646 682.213 230.374C682.399 231.166 676.368 232.424 676.541 233.172C677.606 237.797 693.176 251.31 693.479 253.24Z" fill="#00964B"/>
<path d="M693.478 253.733L678.622 248.467L677.379 259.255L661.546 252.356L640.215 261.559V252.885L621.462 263.504V255.54C621.462 255.54 612.878 259.605 613.406 258.373C613.938 257.131 629.102 236.398 629.102 236.398C629.102 236.398 619.609 238.372 620.84 237.49C622.082 236.599 633.925 218.517 633.925 218.517L625.883 219.617C629.238 216.962 641.542 196.256 641.542 196.256H637.475C637.475 196.256 653.49 174.89 656.409 171.557C652.373 180.008 648.544 188.407 647.563 192.451C647.041 194.599 655.615 195.901 655.615 195.901L645.97 197.137C645.97 197.137 639.058 209.84 639.466 212.184C640.185 216.324 658.079 215.457 658.079 215.457L639.388 218.226C639.388 218.226 630.675 230.505 633.758 232.491C637.075 234.627 666.856 232.358 666.856 232.358L644.027 236.425C644.027 236.425 632.298 251.206 633.229 252.884C633.636 253.619 637.595 252.236 642.384 250.219C643.4 249.79 642.443 253.913 644.997 253.064C648.866 251.776 662.511 248.989 662.511 248.989C662.511 248.989 672.389 255.261 675.171 253.775C677.111 252.738 677.475 245.279 677.475 245.279L693.478 253.733Z" fill="#1B5E54"/>
<path d="M721.839 267.118L717.466 265.562L707.569 262.053L706.741 269.241L696.192 264.645L681.981 270.776V264.997L669.486 272.071V266.766C669.486 266.766 665.595 269.949 665.949 269.127C666.303 268.3 674.905 253.443 674.905 253.443C674.905 253.443 668.424 254.858 669.246 254.272C670.074 253.677 678.563 240.942 678.563 240.942L673.378 241.65C675.614 239.881 682.864 227.266 682.864 227.266H680.155C680.155 227.266 690.824 213.032 692.769 210.81C692.939 210.62 693.037 210.52 693.067 210.52L704.33 227.499L700.55 227.62L710.753 239.648L705.567 240.001L714.41 251.554L709.811 251.674L721.839 267.118Z" fill="#007945"/>
<path d="M717.464 265.233C717.675 266.597 710.214 260.606 707.084 260.078C704.637 256.948 701.587 252.978 701.259 250.684C701.194 250.185 705.312 249.421 705.226 248.885C704.756 245.697 699.226 240.071 698.524 236.135C698.322 234.974 702.182 237.277 701.961 236.097C701.394 233.034 696.968 227.688 696.335 224.72C696.231 224.24 698.237 224.538 698.131 224.057C697.114 219.46 694.628 214.074 692.957 210.446C693.025 210.264 693.062 210.168 693.062 210.168C694.617 213.134 698.977 220.035 700.791 225.854C700.933 226.315 698.91 226.189 699.053 226.669C699.936 229.559 704.794 234.522 705.619 237.527C705.936 238.679 701.905 236.712 702.202 237.855C703.229 241.713 709.209 246.849 709.958 249.999C710.083 250.527 706.064 251.364 706.179 251.864C706.889 254.943 717.262 263.947 717.464 265.233Z" fill="#00964B"/>
<path d="M717.472 265.559L707.575 262.05L706.747 269.239L696.198 264.642L681.987 270.773V264.994L669.491 272.068V266.763C669.491 266.763 663.772 269.472 664.125 268.65C664.479 267.823 674.582 254.01 674.582 254.01C674.582 254.01 668.257 255.324 669.078 254.738C669.905 254.144 677.795 242.097 677.795 242.097L672.437 242.829C674.673 241.06 682.87 227.264 682.87 227.264H680.16C680.16 227.264 690.829 213.03 692.775 210.809C690.087 216.439 687.535 222.036 686.882 224.729C686.535 226.16 692.247 227.028 692.247 227.028L685.821 227.852C685.821 227.852 681.216 236.315 681.488 237.876C681.966 240.634 693.888 240.058 693.888 240.058L681.435 241.902C681.435 241.902 675.631 250.083 677.685 251.406C679.894 252.829 699.736 251.318 699.736 251.318L684.526 254.028C684.526 254.028 676.711 263.875 677.332 264.993C677.603 265.483 680.24 264.562 683.431 263.218C684.109 262.932 683.47 265.679 685.172 265.113C687.75 264.256 696.841 262.398 696.841 262.398C696.841 262.398 703.422 266.577 705.276 265.588C706.568 264.896 706.811 259.928 706.811 259.928L717.472 265.559Z" fill="#1B5E54"/>
<path d="M399.723 193.377C396.358 193.377 393.192 194.217 390.408 195.683C387.969 187.372 380.299 181.298 371.199 181.298C371.127 181.298 371.057 181.309 370.985 181.31C371.111 180.432 371.199 179.543 371.199 178.631C371.199 168.339 362.854 159.994 352.561 159.994C342.267 159.994 333.922 168.338 333.922 178.631C333.922 178.637 333.923 178.642 333.923 178.647C333.877 178.646 333.83 178.644 333.785 178.643C333.865 178.04 333.922 177.428 333.922 176.801C333.922 169.231 327.787 163.096 320.218 163.096C316.405 163.096 312.958 164.655 310.474 167.167C306.788 160.041 300.123 154.71 292.124 152.82C293.789 149.881 294.752 146.493 294.752 142.874C294.752 131.706 285.699 122.653 274.53 122.653C272.968 122.653 271.454 122.847 269.994 123.183C267.289 117.615 261.596 113.766 254.989 113.766C253.62 113.766 252.297 113.949 251.023 114.259C248.754 111.792 245.51 110.238 241.894 110.238C237.866 110.238 234.297 112.164 232.028 115.136C231.205 110.452 227.89 106.639 223.496 105.1C222.422 93.2694 212.481 84 200.371 84C187.543 84 177.143 94.3999 177.143 107.228C177.143 111.767 178.449 115.999 180.701 119.576C177.75 120.925 174.921 122.487 172.23 124.246C170.258 123.441 168.105 122.991 165.844 122.991C157.563 122.991 150.682 128.943 149.217 136.798C145.39 135.679 141.345 135.069 137.156 135.069C115.053 135.069 96.8604 151.774 94.4957 173.245C93.9243 173.189 93.3443 173.157 92.7577 173.157C83.1773 173.157 75.4102 180.924 75.4102 190.505C75.4102 200.085 83.1764 207.851 92.7577 207.851C96.7035 207.851 100.33 206.519 103.244 204.3C111.098 214.41 123.362 220.922 137.156 220.922C143.844 220.922 150.173 219.392 155.815 216.663C167.557 232.375 186.304 242.546 207.427 242.546C234.883 242.546 258.31 225.356 267.571 201.157C272.447 205.328 278.772 207.851 285.69 207.851C290.279 207.851 294.606 206.736 298.424 204.773C298.157 206.196 298.011 207.662 298.011 209.162C298.011 222.228 308.602 232.819 321.668 232.819C329.828 232.819 337.022 228.686 341.274 222.402C346.725 220.346 351.175 216.247 353.683 211.037C357.101 217.191 363.66 221.359 371.199 221.359C374.564 221.359 377.73 220.52 380.514 219.054C382.953 227.364 390.623 233.438 399.723 233.438C410.786 233.438 419.753 224.47 419.753 213.408C419.754 202.345 410.786 193.377 399.723 193.377Z" fill="#EAFEFF"/>
<path d="M683.976 199.261C680.822 199.261 677.951 200.447 675.761 202.387C673.26 196.189 667.198 191.808 660.104 191.808C655.638 191.808 651.588 193.556 648.568 196.388C645.285 189.14 638.525 183.805 630.414 182.513C630.747 180.749 630.929 178.929 630.929 177.066C630.929 168.941 627.615 161.591 622.267 156.288C623.019 154.688 623.451 152.908 623.451 151.023C623.451 144.169 617.895 138.613 611.04 138.613C608.168 138.613 605.531 139.598 603.427 141.237C598.603 138.062 592.831 136.209 586.624 136.209C569.719 136.209 556.015 149.912 556.015 166.816C556.015 168.759 556.204 170.656 556.551 172.498C551.609 169.956 546.012 168.514 540.073 168.514C534.824 168.514 529.841 169.644 525.341 171.659C523.366 167.422 519.081 164.477 514.098 164.477C507.245 164.477 501.688 170.034 501.688 176.888C501.688 181.584 504.298 185.67 508.146 187.778C506.379 191.123 505.124 194.777 504.482 198.64C500.655 195.866 495.951 194.224 490.862 194.224C480.166 194.224 471.162 201.455 468.459 211.294C467.249 210.9 465.959 210.68 464.617 210.68C457.764 210.68 452.207 216.237 452.207 223.091C452.207 229.944 457.764 235.501 464.617 235.501C467.831 235.501 470.749 234.269 472.954 232.266C477.215 237.415 483.656 240.696 490.862 240.696C500.21 240.696 508.265 235.173 511.952 227.215C518.567 235.432 528.703 240.696 540.074 240.696C554.039 240.696 566.141 232.76 572.142 221.157C575.357 224.409 579.816 226.426 584.75 226.426C588.811 226.426 592.541 225.047 595.53 222.751C605.914 227.572 619.211 230.439 626.599 230.439C635.156 230.439 642.665 225.979 646.946 219.258C650.041 223.108 654.781 225.577 660.105 225.577C665.701 225.577 670.647 222.844 673.719 218.653C675.953 221.928 679.713 224.081 683.976 224.081C690.83 224.081 696.387 218.524 696.387 211.67C696.387 204.816 690.83 199.261 683.976 199.261Z" fill="#EAFEFF"/>
<path d="M161.429 148.371C164.135 148.431 166.642 149.211 168.708 150.643C172.223 153.081 174.467 154.582 176.788 153.223C178.153 152.424 179.74 151.966 181.436 151.966C181.789 151.966 182.136 151.988 182.478 152.029C183.05 152.095 183.409 147.54 187.015 143.982C189.142 141.883 192.063 140.588 195.288 140.588C197.625 140.588 199.801 141.27 201.631 142.444C204.745 144.443 207.313 146.385 209.253 145.751C210.397 145.379 211.617 145.134 212.885 145.176C222.935 145.513 226.841 154.289 226.841 152.837C226.841 145.954 221.262 140.375 214.379 140.375C213.038 140.375 211.748 140.588 210.539 140.984C208.49 141.652 205.776 139.599 202.484 137.487C200.55 136.245 198.251 135.525 195.781 135.525C192.306 135.525 189.164 136.948 186.906 139.243C183.224 142.987 182.847 147.687 182.242 147.615C181.881 147.572 181.514 147.55 181.141 147.55C179.349 147.55 177.672 148.035 176.229 148.879C173.776 150.315 171.404 148.729 167.689 146.153C165.506 144.638 162.856 143.751 159.996 143.751C152.512 143.751 146.445 149.818 146.445 157.302C146.444 158.897 150.791 148.137 161.429 148.371Z" fill="#BCF5F9"/>
<path d="M266.372 159.34C263.666 159.399 261.158 160.18 259.093 161.613C255.578 164.05 253.334 165.552 251.012 164.192C249.648 163.394 248.061 162.936 246.365 162.936C246.012 162.936 245.665 162.957 245.323 162.997C244.75 163.065 244.392 158.509 240.786 154.951C238.659 152.853 235.738 151.557 232.513 151.557C230.175 151.557 228 152.239 226.171 153.413C223.057 155.413 220.488 157.355 218.549 156.721C217.405 156.347 216.185 156.103 214.917 156.146C204.867 156.482 200.961 165.257 200.961 163.806C200.961 156.923 206.54 151.344 213.423 151.344C214.764 151.344 216.054 151.558 217.263 151.953C219.312 152.621 222.026 150.568 225.318 148.456C227.252 147.214 229.551 146.494 232.021 146.494C235.496 146.494 238.638 147.918 240.896 150.213C244.578 153.956 244.955 158.656 245.56 158.585C245.921 158.542 246.288 158.52 246.661 158.52C248.453 158.52 250.13 159.004 251.572 159.847C254.026 161.285 256.398 159.699 260.113 157.121C262.296 155.608 264.946 154.721 267.806 154.721C275.289 154.721 281.357 160.788 281.357 168.271C281.357 169.868 277.009 159.106 266.372 159.34Z" fill="#BCF5F9"/>
<path d="M241.516 138.094C242.964 138.636 245.574 135.861 249.51 133.432C251.824 132.005 254.548 131.181 257.467 131.181C261.867 131.181 265.827 133.051 268.602 136.038C272.175 139.886 272.608 144.099 272.646 143.58C272.667 143.27 272.681 142.956 272.681 142.641C272.681 134.238 265.869 127.428 257.468 127.428C254.549 127.428 251.824 128.251 249.511 129.678C245.574 132.108 242.964 134.884 241.517 134.34C240.665 134.02 239.742 133.845 238.778 133.845C234.446 133.845 230.934 137.356 230.934 141.689C230.934 142.009 230.955 142.325 230.994 142.634C231.061 143.154 231.683 141.046 233.946 139.268C235.277 138.221 236.953 137.598 238.779 137.598C239.741 137.598 240.663 137.774 241.516 138.094Z" fill="#BCF5F9"/>
<path d="M314.401 187.03C315.847 187.573 318.459 184.797 322.395 182.369C324.708 180.941 327.432 180.118 330.351 180.118C334.752 180.118 338.711 181.987 341.486 184.975C345.059 188.824 345.492 193.036 345.529 192.518C345.551 192.207 345.564 191.894 345.564 191.576C345.564 183.175 338.753 176.363 330.351 176.363C327.432 176.363 324.707 177.188 322.395 178.615C318.458 181.045 315.847 183.82 314.401 183.277C313.549 182.957 312.626 182.781 311.661 182.781C307.329 182.781 303.816 186.294 303.816 190.625C303.816 190.947 303.837 191.262 303.877 191.572C303.944 192.092 304.567 189.985 306.828 188.206C308.159 187.16 309.836 186.536 311.661 186.536C312.626 186.536 313.549 186.71 314.401 187.03Z" fill="#BCF5F9"/>
<path d="M626.741 194.202C624.035 194.262 621.529 195.041 619.464 196.474C615.948 198.911 613.703 200.413 611.383 199.054C610.018 198.254 608.431 197.797 606.735 197.797C606.382 197.797 606.035 197.818 605.693 197.859C605.121 197.925 604.762 193.37 601.157 189.812C599.03 187.714 596.108 186.419 592.884 186.419C590.546 186.419 588.371 187.101 586.541 188.274C583.428 190.273 580.858 192.216 578.919 191.582C577.776 191.21 576.555 190.965 575.288 191.007C565.238 191.343 561.332 200.119 561.332 198.667C561.332 191.785 566.91 186.205 573.794 186.205C575.135 186.205 576.424 186.419 577.633 186.814C579.681 187.482 582.396 185.43 585.688 183.317C587.622 182.076 589.921 181.355 592.391 181.355C595.866 181.355 599.008 182.778 601.266 185.073C604.948 188.817 605.325 193.517 605.93 193.446C606.291 193.403 606.659 193.38 607.031 193.38C608.823 193.38 610.5 193.865 611.942 194.71C614.395 196.146 616.768 194.559 620.482 191.984C622.666 190.469 625.315 189.582 628.175 189.582C635.659 189.582 641.726 195.649 641.726 203.133C641.727 204.728 637.38 193.968 626.741 194.202Z" fill="#BCF5F9"/>
<path d="M522.725 201.814C524.172 202.356 526.782 199.58 530.719 197.151C533.032 195.725 535.756 194.9 538.675 194.9C543.076 194.9 547.035 196.771 549.81 199.758C553.383 203.606 553.816 207.818 553.853 207.3C553.875 206.99 553.888 206.676 553.888 206.359C553.888 197.957 547.077 191.146 538.675 191.146C535.756 191.146 533.031 191.97 530.719 193.398C526.782 195.827 524.171 198.603 522.725 198.059C521.873 197.739 520.95 197.563 519.985 197.563C515.653 197.563 512.141 201.076 512.141 205.408C512.141 205.728 512.162 206.044 512.201 206.354C512.267 206.874 512.89 204.766 515.152 202.987C516.483 201.941 518.16 201.317 519.985 201.317C520.95 201.318 521.873 201.493 522.725 201.814Z" fill="#BCF5F9"/>
<path d="M589.358 175.011C587.912 175.554 585.3 172.777 581.364 170.349C579.051 168.922 576.327 168.098 573.408 168.098C569.007 168.098 565.048 169.968 562.273 172.955C558.7 176.804 558.267 181.016 558.229 180.498C558.208 180.187 558.195 179.874 558.195 179.557C558.195 171.155 565.006 164.344 573.408 164.344C576.327 164.344 579.051 165.168 581.364 166.595C585.301 169.026 587.912 171.8 589.358 171.257C590.21 170.938 591.133 170.762 592.098 170.762C596.43 170.762 599.942 174.274 599.942 178.606C599.942 178.927 599.922 179.243 599.883 179.553C599.816 180.072 599.193 177.965 596.931 176.186C595.6 175.14 593.923 174.516 592.098 174.516C591.133 174.515 590.21 174.69 589.358 175.011Z" fill="#BCF5F9"/>
<path d="M797.273 216.076V453.105L0 457.229C28.5242 434.106 287.402 238.301 406.957 239.833C567.835 241.893 735.576 230.669 797.273 216.076Z" fill="#2F734A"/>
<rect x="37.1172" y="356.188" width="754.707" height="379.416" fill="#2F734A"/>
<path d="M36.6445 197.441C36.6445 197.441 168.195 182.141 397.481 211.201C626.768 240.26 797.291 199.176 797.291 199.176V216.079L36.6445 269.588V197.441Z" fill="#488C63"/>
<path d="M36.6445 440.736C36.6445 440.736 262.594 247.521 516.168 248.761C695.681 249.639 797.291 221.241 797.291 221.241V207.816C797.291 207.816 692.702 231.159 505.393 227.44C318.084 223.722 110.046 201.472 36.6445 252.298V408.774V440.736Z" fill="#3D3D3D"/>
<path d="M7.2333 333.511C62.6968 290.67 221.107 253.475 310.352 246.906C434.075 234.276 633.433 255.108 797.288 214.188V213.158C797.288 213.158 693.913 240.106 520.781 235.504C316.538 230.075 84.8801 240.469 5.17107 310.829C5.17107 310.829 2.59336 337.095 7.2333 333.511Z" fill="#878787"/>
<path d="M798.003 247.672C798.003 247.672 739.875 240.969 654.854 270.214C654.854 270.214 617.593 256.388 563.859 266.75C563.859 266.75 535.713 263.788 509.414 270.214C509.414 270.214 483.114 285.197 798.003 278.066V247.672Z" fill="#86BC6D"/>
<path d="M161.375 204.283L158.253 203.172L151.187 200.667L150.595 205.798L143.063 202.517L132.918 206.893V202.767L123.999 207.818V204.031C123.999 204.031 121.221 206.303 121.473 205.716C121.726 205.126 127.868 194.52 127.868 194.52C127.868 194.52 123.242 195.53 123.827 195.11C124.419 194.686 130.479 185.595 130.479 185.595L126.777 186.099C128.372 184.838 133.55 175.831 133.55 175.831H131.615C131.615 175.831 139.232 165.669 140.622 164.083C140.742 163.946 140.814 163.877 140.834 163.877L148.875 175.998L146.177 176.083L153.461 184.669L149.759 184.923L156.072 193.171L152.789 193.257L161.375 204.283Z" fill="#007945"/>
<path d="M158.258 202.939C158.408 203.913 153.081 199.635 150.847 199.258C149.099 197.024 146.922 194.191 146.689 192.552C146.642 192.196 149.582 191.651 149.522 191.267C149.185 188.991 145.238 184.975 144.737 182.166C144.593 181.336 147.348 182.982 147.191 182.137C146.787 179.951 143.627 176.134 143.174 174.015C143.099 173.674 144.532 173.886 144.456 173.544C143.729 170.26 141.955 166.416 140.762 163.825C140.81 163.693 140.837 163.625 140.837 163.625C141.947 165.743 145.058 170.67 146.354 174.824C146.457 175.154 145.011 175.064 145.114 175.406C145.744 177.47 149.213 181.012 149.802 183.157C150.028 183.98 147.15 182.576 147.362 183.39C148.095 186.146 152.365 189.813 152.901 192.061C152.989 192.437 150.121 193.035 150.202 193.392C150.707 195.593 158.113 202.021 158.258 202.939Z" fill="#00964B"/>
<path d="M158.249 203.172L151.183 200.666L150.591 205.798L143.059 202.517L132.914 206.893V202.767L123.994 207.817V204.03C123.994 204.03 119.911 205.964 120.164 205.379C120.416 204.788 127.629 194.925 127.629 194.925C127.629 194.925 123.114 195.865 123.7 195.445C124.291 195.022 129.924 186.421 129.924 186.421L126.099 186.943C127.695 185.682 133.546 175.832 133.546 175.832H131.611C131.611 175.832 139.228 165.67 140.617 164.084C138.698 168.105 136.877 172.1 136.41 174.022C136.162 175.044 140.24 175.665 140.24 175.665L135.652 176.252C135.652 176.252 132.364 182.294 132.558 183.408C132.901 185.377 141.412 184.966 141.412 184.966L132.521 186.284C132.521 186.284 128.377 192.125 129.844 193.068C131.421 194.084 145.587 193.006 145.587 193.006L134.728 194.941C134.728 194.941 129.149 201.971 129.592 202.769C129.786 203.118 131.669 202.46 133.947 201.5C134.431 201.297 133.975 203.258 135.19 202.854C137.031 202.242 143.521 200.917 143.521 200.917C143.521 200.917 148.219 203.9 149.544 203.194C150.467 202.7 150.639 199.154 150.639 199.154L158.249 203.172Z" fill="#1B5E54"/>
<path d="M102.804 213.988L99.683 212.876L92.6166 210.371L92.0252 215.502L84.4929 212.221L74.3478 216.598V212.472L65.4282 217.523V213.736C65.4282 213.736 62.6509 216.008 62.9029 215.421C63.1558 214.831 69.298 204.225 69.298 204.225C69.298 204.225 64.6714 205.235 65.258 204.815C65.8494 204.391 71.9099 195.3 71.9099 195.3L68.2074 195.804C69.8029 194.543 74.981 185.537 74.981 185.537H73.0461C73.0461 185.537 80.663 175.374 82.0522 173.788C82.1729 173.651 82.2442 173.582 82.2642 173.582L90.3042 185.703L87.6068 185.789L94.8909 194.374L91.1894 194.628L97.5028 202.876L94.2196 202.962L102.804 213.988Z" fill="#007945"/>
<path d="M99.6882 212.644C99.8384 213.618 94.512 209.34 92.2776 208.964C90.53 206.729 88.3526 203.896 88.1187 202.257C88.0712 201.901 91.0121 201.356 90.9512 200.972C90.6146 198.696 86.6678 194.68 86.1667 191.871C86.0232 191.041 88.7777 192.686 88.6208 191.842C88.2167 189.656 85.0562 185.839 84.6036 183.721C84.5285 183.379 85.9614 183.591 85.8853 183.249C85.1589 179.965 83.3847 176.121 82.1914 173.53C82.2399 173.399 82.2665 173.33 82.2665 173.33C83.3771 175.448 86.4881 180.376 87.7841 184.529C87.8867 184.859 86.4406 184.769 86.5433 185.112C87.1736 187.175 90.6422 190.718 91.2317 192.863C91.458 193.685 88.5799 192.281 88.7919 193.095C89.525 195.851 93.7951 199.518 94.3304 201.766C94.4188 202.142 91.5502 202.74 91.632 203.097C92.1378 205.298 99.5446 211.726 99.6882 212.644Z" fill="#00964B"/>
<path d="M99.6789 212.88L92.6125 210.374L92.0211 215.506L84.4888 212.225L74.3436 216.602V212.476L65.4241 217.526V213.739C65.4241 213.739 61.3404 215.673 61.5933 215.088C61.8453 214.497 69.0591 204.634 69.0591 204.634C69.0591 204.634 64.5427 205.574 65.1294 205.154C65.7208 204.731 71.3534 196.13 71.3534 196.13L67.5283 196.652C69.1247 195.391 74.9759 185.541 74.9759 185.541H73.041C73.041 185.541 80.658 175.379 82.0471 173.793C80.1274 177.814 78.3066 181.809 77.8398 183.731C77.5916 184.753 81.6696 185.374 81.6696 185.374L77.082 185.961C77.082 185.961 73.7941 192.003 73.988 193.117C74.3303 195.086 82.842 194.675 82.842 194.675L73.951 195.993C73.951 195.993 69.8064 201.834 71.2735 202.777C72.8509 203.793 87.017 202.715 87.017 202.715L76.1578 204.65C76.1578 204.65 70.5784 211.68 71.0215 212.478C71.2155 212.827 73.099 212.169 75.3772 211.209C75.8602 211.006 75.4048 212.967 76.6199 212.563C78.4606 211.951 84.9509 210.626 84.9509 210.626C84.9509 210.626 89.6488 213.609 90.9723 212.903C91.8956 212.409 92.0677 208.863 92.0677 208.863L99.6789 212.88Z" fill="#1B5E54"/>
<path d="M365.082 212.968L362.829 212.166L357.732 210.359L357.306 214.062L351.872 211.695L344.554 214.852V211.875L338.119 215.518V212.786C338.119 212.786 336.115 214.426 336.297 214.002C336.479 213.577 340.91 205.925 340.91 205.925C340.91 205.925 337.573 206.654 337.996 206.351C338.422 206.045 342.794 199.487 342.794 199.487L340.123 199.851C341.273 198.941 345.009 192.444 345.009 192.444H343.613C343.613 192.444 349.108 185.112 350.109 183.969C350.197 183.87 350.248 183.82 350.262 183.82L356.062 192.564L354.117 192.625L359.371 198.819L356.7 199.002L361.255 204.952L358.886 205.013L365.082 212.968Z" fill="#007945"/>
<path d="M362.83 211.997C362.938 212.7 359.096 209.615 357.484 209.343C356.223 207.731 354.652 205.686 354.484 204.505C354.45 204.247 356.572 203.855 356.527 203.578C356.285 201.936 353.437 199.04 353.076 197.013C352.972 196.414 354.959 197.6 354.845 196.992C354.553 195.415 352.274 192.661 351.948 191.133C351.894 190.887 352.927 191.04 352.872 190.794C352.348 188.424 351.068 185.652 350.207 183.782C350.242 183.687 350.261 183.639 350.261 183.639C351.063 185.167 353.308 188.722 354.241 191.718C354.315 191.955 353.272 191.892 353.347 192.138C353.801 193.626 356.304 196.182 356.729 197.73C356.892 198.323 354.816 197.31 354.969 197.898C355.498 199.886 358.578 202.531 358.964 204.152C359.028 204.424 356.958 204.856 357.018 205.114C357.383 206.7 362.726 211.336 362.83 211.997Z" fill="#00964B"/>
<path d="M362.826 212.169L357.729 210.362L357.303 214.065L351.869 211.698L344.551 214.855V211.878L338.116 215.521V212.789C338.116 212.789 335.17 214.185 335.352 213.761C335.533 213.335 340.737 206.221 340.737 206.221C340.737 206.221 337.48 206.898 337.903 206.596C338.329 206.291 342.393 200.085 342.393 200.085L339.633 200.462C340.785 199.551 345.006 192.446 345.006 192.446H343.611C343.611 192.446 349.105 185.115 350.106 183.971C348.722 186.872 347.408 189.754 347.071 191.14C346.893 191.877 349.835 192.325 349.835 192.325L346.526 192.749C346.526 192.749 344.153 197.107 344.294 197.911C344.54 199.332 350.681 199.034 350.681 199.034L344.268 199.986C344.268 199.986 341.277 204.199 342.336 204.879C343.474 205.612 353.692 204.833 353.692 204.833L345.858 206.229C345.858 206.229 341.833 211.301 342.153 211.876C342.293 212.129 343.651 211.654 345.295 210.961C345.644 210.815 345.314 212.23 346.191 211.938C347.518 211.496 352.201 210.54 352.201 210.54C352.201 210.54 355.59 212.692 356.545 212.182C357.211 211.827 357.336 209.268 357.336 209.268L362.826 212.169Z" fill="#1B5E54"/>
<path d="M700.042 256.066L693.48 253.73L678.624 248.464L677.382 259.252L661.548 252.353L640.217 261.556V252.882L621.464 263.501V255.537C621.464 255.537 615.624 260.314 616.155 259.082C616.686 257.84 629.599 235.54 629.599 235.54C629.599 235.54 619.872 237.664 621.103 236.785C622.347 235.893 635.088 216.778 635.088 216.778L627.304 217.841C630.659 215.186 641.544 196.253 641.544 196.253H637.477C637.477 196.253 653.492 174.887 656.411 171.554C656.665 171.267 656.814 171.117 656.857 171.117L673.761 196.603L668.089 196.784L683.402 214.834L675.62 215.366L688.892 232.706L681.989 232.885L700.042 256.066Z" fill="#007945"/>
<path d="M693.479 253.24C693.796 255.286 682.598 246.294 677.898 245.502C674.225 240.804 669.647 234.845 669.157 231.403C669.058 230.652 675.24 229.508 675.111 228.702C674.404 223.918 666.105 215.474 665.052 209.564C664.75 207.823 670.541 211.281 670.211 209.508C669.361 204.911 662.718 196.886 661.767 192.433C661.609 191.712 664.62 192.158 664.461 191.437C662.935 184.536 659.203 176.453 656.695 171.006C656.796 170.733 656.853 170.59 656.853 170.59C659.187 175.042 665.73 185.401 668.453 194.135C668.669 194.826 665.629 194.638 665.845 195.358C667.17 199.696 674.462 207.145 675.7 211.656C676.175 213.384 670.125 210.431 670.57 212.147C672.113 217.938 681.089 225.646 682.213 230.374C682.399 231.166 676.368 232.424 676.541 233.172C677.606 237.797 693.176 251.31 693.479 253.24Z" fill="#00964B"/>
<path d="M693.478 253.733L678.622 248.467L677.379 259.255L661.546 252.356L640.215 261.559V252.885L621.462 263.504V255.54C621.462 255.54 612.878 259.605 613.406 258.373C613.938 257.131 629.102 236.398 629.102 236.398C629.102 236.398 619.609 238.372 620.84 237.49C622.082 236.599 633.925 218.517 633.925 218.517L625.883 219.617C629.238 216.962 641.542 196.256 641.542 196.256H637.475C637.475 196.256 653.49 174.89 656.409 171.557C652.373 180.008 648.544 188.407 647.563 192.451C647.041 194.599 655.615 195.901 655.615 195.901L645.97 197.137C645.97 197.137 639.058 209.84 639.466 212.184C640.185 216.324 658.079 215.457 658.079 215.457L639.388 218.226C639.388 218.226 630.675 230.505 633.758 232.491C637.075 234.627 666.856 232.358 666.856 232.358L644.027 236.425C644.027 236.425 632.298 251.206 633.229 252.884C633.636 253.619 637.595 252.236 642.384 250.219C643.4 249.79 642.443 253.913 644.997 253.064C648.866 251.776 662.511 248.989 662.511 248.989C662.511 248.989 672.389 255.261 675.171 253.775C677.111 252.738 677.475 245.279 677.475 245.279L693.478 253.733Z" fill="#1B5E54"/>
<path d="M721.839 267.118L717.466 265.562L707.569 262.053L706.741 269.241L696.192 264.645L681.981 270.776V264.997L669.486 272.071V266.766C669.486 266.766 665.595 269.949 665.949 269.127C666.303 268.3 674.905 253.443 674.905 253.443C674.905 253.443 668.424 254.858 669.246 254.272C670.074 253.677 678.563 240.942 678.563 240.942L673.378 241.65C675.614 239.881 682.864 227.266 682.864 227.266H680.155C680.155 227.266 690.824 213.032 692.769 210.81C692.939 210.62 693.037 210.52 693.067 210.52L704.33 227.499L700.55 227.62L710.753 239.648L705.567 240.001L714.41 251.554L709.811 251.674L721.839 267.118Z" fill="#007945"/>
<path d="M717.464 265.233C717.675 266.597 710.214 260.606 707.084 260.078C704.637 256.948 701.587 252.978 701.259 250.684C701.194 250.185 705.312 249.421 705.226 248.885C704.756 245.697 699.226 240.071 698.524 236.135C698.322 234.974 702.182 237.277 701.961 236.097C701.394 233.034 696.968 227.688 696.335 224.72C696.231 224.24 698.237 224.538 698.131 224.057C697.114 219.46 694.628 214.074 692.957 210.446C693.025 210.264 693.062 210.168 693.062 210.168C694.617 213.134 698.977 220.035 700.791 225.854C700.933 226.315 698.91 226.189 699.053 226.669C699.936 229.559 704.794 234.522 705.619 237.527C705.936 238.679 701.905 236.712 702.202 237.855C703.229 241.713 709.209 246.849 709.958 249.999C710.083 250.527 706.064 251.364 706.179 251.864C706.889 254.943 717.262 263.947 717.464 265.233Z" fill="#00964B"/>
<path d="M717.472 265.559L707.575 262.05L706.747 269.239L696.198 264.642L681.987 270.773V264.994L669.491 272.068V266.763C669.491 266.763 663.772 269.472 664.125 268.65C664.479 267.823 674.582 254.01 674.582 254.01C674.582 254.01 668.257 255.324 669.078 254.738C669.905 254.144 677.795 242.097 677.795 242.097L672.437 242.829C674.673 241.06 682.87 227.264 682.87 227.264H680.16C680.16 227.264 690.829 213.03 692.775 210.809C690.087 216.439 687.535 222.036 686.882 224.729C686.535 226.16 692.247 227.028 692.247 227.028L685.821 227.852C685.821 227.852 681.216 236.315 681.488 237.876C681.966 240.634 693.888 240.058 693.888 240.058L681.435 241.902C681.435 241.902 675.631 250.083 677.685 251.406C679.894 252.829 699.736 251.318 699.736 251.318L684.526 254.028C684.526 254.028 676.711 263.875 677.332 264.993C677.603 265.483 680.24 264.562 683.431 263.218C684.109 262.932 683.47 265.679 685.172 265.113C687.75 264.256 696.841 262.398 696.841 262.398C696.841 262.398 703.422 266.577 705.276 265.588C706.568 264.896 706.811 259.928 706.811 259.928L717.472 265.559Z" fill="#1B5E54"/>
</svg>
