<svg width="51" height="247" viewBox="0 0 51 247" fill="none" xmlns="http://www.w3.org/2000/svg">
<path d="M29.7588 67.3516H20.9648V246.163H29.7588V67.3516Z" fill="#B3B3B3"/>
<path d="M29.7589 67.3516H27.8047V246.163H29.7589V67.3516Z" fill="#808080"/>
<path d="M50.9194 65.3877C50.9194 68.3153 48.5464 70.6894 45.6177 70.6894H5.30168C2.37409 70.6894 0 68.3153 0 65.3877V5.30168C0 2.37409 2.37409 0 5.30168 0H45.6177C48.5464 0 50.9194 2.37409 50.9194 5.30168V65.3877Z" fill="#0B53BF"/>
<path d="M42.0264 9.36719H8.88672V42.2376H42.0264V9.36719Z" fill="white"/>
<path d="M29.5117 12.0762H15.5078V39.524H29.5117V12.0762Z" fill="black"/>
<path d="M27.8361 13.7578H16.9688V20.9278H27.8361V13.7578Z" fill="white"/>
<path d="M27.832 23.839C30.6334 23.839 33.3808 23.839 35.1738 23.839C37.5489 23.839 37.4662 26.9765 37.4662 28.7685C37.4662 30.5604 37.5182 33.1593 37.5182 34.6162C37.5182 36.0731 37.1312 38.7399 35.3381 38.7399C33.5451 38.7399 32.6905 37.284 32.6905 34.7064C32.6905 32.1287 32.6905 21.2624 32.6905 18.5734C32.6905 15.8843 30.7437 16.2205 28.8394 16.2205" stroke="black" stroke-miterlimit="10"/>
<g opacity="0.3">
<path opacity="0.3" d="M45.614 0.00195312H25.457V245.681H27.7495H30.0515V70.6902H45.6151C48.5437 70.6902 50.9167 68.3162 50.9167 65.3886V5.30363C50.9157 2.37604 48.5426 0.00195312 45.614 0.00195312Z" fill="black"/>
</g>
</svg>
