<svg width="187" height="127" viewBox="0 0 187 127" fill="none" xmlns="http://www.w3.org/2000/svg">
<path d="M18.5357 24.8613H3.66406V126.061H18.5357V24.8613Z" fill="#B3B3B3"/>
<path d="M47.8863 6.16602H0V35.4627H47.8863V6.16602Z" fill="#B3B3B3"/>
<path d="M47.8863 14.6543H0V20.816H47.8863V14.6543Z" fill="#808080"/>
<path d="M47.8863 28.8398H0V35.0015H47.8863V28.8398Z" fill="#808080"/>
<path d="M7.40803 10.4628C7.40803 11.3393 6.69767 12.0506 5.8212 12.0506C4.94376 12.0506 4.23438 11.3393 4.23438 10.4628C4.23438 9.58731 4.94376 8.87695 5.8212 8.87695C6.6967 8.87695 7.40803 9.58634 7.40803 10.4628Z" fill="#808080"/>
<path d="M18.5369 10.4628C18.5369 11.3393 17.8276 12.0506 16.9501 12.0506C16.0746 12.0506 15.3633 11.3393 15.3633 10.4628C15.3633 9.58731 16.0736 8.87695 16.9501 8.87695C17.8266 8.87695 18.5369 9.58634 18.5369 10.4628Z" fill="#808080"/>
<path d="M7.40803 24.8593C7.40803 25.7358 6.69767 26.4471 5.8212 26.4471C4.94376 26.4471 4.23438 25.7358 4.23438 24.8593C4.23438 23.9838 4.94376 23.2734 5.8212 23.2734C6.6967 23.2734 7.40803 23.9838 7.40803 24.8593Z" fill="#808080"/>
<path d="M18.5369 24.8593C18.5369 25.7358 17.8276 26.4471 16.9501 26.4471C16.0746 26.4471 15.3633 25.7358 15.3633 24.8593C15.3633 23.9838 16.0736 23.2734 16.9501 23.2734C17.8266 23.2734 18.5369 23.9838 18.5369 24.8593Z" fill="#808080"/>
<path d="M182.373 20.541H167.5V126.626H182.373V20.541Z" fill="#B3B3B3"/>
<path d="M186.039 6.16602H138.152V35.4627H186.039V6.16602Z" fill="#B3B3B3"/>
<path d="M186.039 14.6543H138.152V20.816H186.039V14.6543Z" fill="#808080"/>
<path d="M186.039 28.8398H138.152V35.0015H186.039V28.8398Z" fill="#808080"/>
<path d="M178.629 10.4648C178.629 11.3412 179.339 12.0526 180.216 12.0526C181.092 12.0526 181.803 11.3412 181.803 10.4648C181.803 9.58927 181.092 8.87891 180.216 8.87891C179.339 8.87891 178.629 9.58829 178.629 10.4648Z" fill="#808080"/>
<path d="M167.5 10.4648C167.5 11.3412 168.211 12.0526 169.088 12.0526C169.963 12.0526 170.674 11.3412 170.674 10.4648C170.674 9.58927 169.963 8.87891 169.088 8.87891C168.21 8.87891 167.5 9.58829 167.5 10.4648Z" fill="#808080"/>
<path d="M178.629 24.8612C178.629 25.7377 179.339 26.449 180.216 26.449C181.092 26.449 181.803 25.7377 181.803 24.8612C181.803 23.9857 181.092 23.2754 180.216 23.2754C179.339 23.2754 178.629 23.9857 178.629 24.8612Z" fill="#808080"/>
<path d="M167.5 24.8612C167.5 25.7377 168.211 26.449 169.088 26.449C169.963 26.449 170.674 25.7377 170.674 24.8612C170.674 23.9857 169.963 23.2754 169.088 23.2754C168.21 23.2754 167.5 23.9857 167.5 24.8612Z" fill="#808080"/>
<path d="M158.11 35.4119C158.11 37.9944 156.017 40.0854 153.435 40.0854H33.9089C31.3264 40.0854 29.2344 37.9934 29.2344 35.4119V5.67645C29.2344 3.09395 31.3273 1.00195 33.9089 1.00195H153.435C156.017 1.00195 158.11 3.09493 158.11 5.67645V35.4119Z" fill="white" stroke="black" stroke-width="0.9568" stroke-miterlimit="10"/>
<path d="M104.259 40.0844H93.5625L106.671 20.5422L93.5625 1H104.259L117.368 20.5422L104.259 40.0844Z" fill="black"/>
<path d="M125.321 40.0844H114.625L127.732 20.5422L114.625 1H125.321L138.428 20.5422L125.321 40.0844Z" fill="black"/>
<path d="M83.1974 40.0844H72.5L85.6089 20.5422L72.5 1H83.1974L96.3063 20.5422L83.1974 40.0844Z" fill="black"/>
<path d="M62.13 40.0844H51.4336L64.5406 20.5422L51.4336 1H62.13L75.237 20.5422L62.13 40.0844Z" fill="black"/>
<g opacity="0.3">
<path opacity="0.3" d="M158.115 6.16696V5.6745C158.115 3.092 156.021 1 153.439 1H125.327H114.63H104.262H93.5648H93.0273V40.0844H93.5648H104.261H114.629H125.326H153.438C156.002 40.0844 158.079 38.0218 158.108 35.4647H167.51V126.627H182.382V35.4647H186.046V35.0015V28.8399V20.8168V14.6551V6.16696H158.115Z" fill="black"/>
</g>
</svg>
