<svg width="73" height="248" viewBox="0 0 73 248" fill="none" xmlns="http://www.w3.org/2000/svg">
<path d="M25.4449 76.3438H13.7812V245.997H25.4449V76.3438Z" fill="#B3B3B3"/>
<path d="M25.4505 76.3438H22.2695V245.997H25.4505V76.3438Z" fill="#808080"/>
<path d="M18.8738 93.2438C19.652 93.2438 20.2828 92.613 20.2828 91.8348C20.2828 91.0566 19.652 90.4258 18.8738 90.4258C18.0957 90.4258 17.4648 91.0566 17.4648 91.8348C17.4648 92.613 18.0957 93.2438 18.8738 93.2438Z" fill="#808080"/>
<path d="M58.3121 76.3457H46.6484V247.06H58.3121V76.3457Z" fill="#B3B3B3"/>
<path d="M58.3138 76.3457H55.1328V247.06H58.3138V76.3457Z" fill="#808080"/>
<path d="M51.5692 93.2438C52.3473 93.2438 52.9782 92.613 52.9782 91.8348C52.9782 91.0566 52.3473 90.4258 51.5692 90.4258C50.791 90.4258 50.1602 91.0566 50.1602 91.8348C50.1602 92.613 50.791 93.2438 51.5692 93.2438Z" fill="#808080"/>
<path d="M72.1028 75.0589C72.1028 79.9354 68.1139 83.9243 63.2374 83.9243H8.86402C3.98888 83.9243 0 79.934 0 75.0589V8.86543C0 3.98888 3.98888 0 8.86402 0H63.2374C68.1139 0 72.1028 3.98888 72.1028 8.86543V75.0589Z" fill="#FBB03B"/>
<path d="M8.86237 76.8317C7.90143 76.8317 7.08984 76.0187 7.08984 75.0578V8.86573C7.08984 7.90479 7.90143 7.0918 8.86237 7.0918H63.2357C64.1995 7.0918 65.0096 7.90479 65.0096 8.86573V75.0592C65.0096 76.0201 64.1995 76.8331 63.2357 76.8331H8.86237V76.8317Z" stroke="black" stroke-width="1.2584" stroke-miterlimit="10"/>
<path d="M25.9766 27.4215L31.9028 13.5879L37.8234 27.4215H25.9766Z" fill="black"/>
<path d="M31.8999 24.2305V39.0081L20.6758 50.2308V70.3302" stroke="black" stroke-width="2.5167" stroke-miterlimit="10" stroke-linecap="round"/>
<path d="M43.1289 27.4215L49.0523 13.5879L54.9758 27.4215H43.1289Z" fill="black"/>
<path d="M49.0469 24.2305V39.0081L37.8242 50.2308V70.3302" stroke="black" stroke-width="2.5167" stroke-miterlimit="10" stroke-linecap="round"/>
<g opacity="0.3">
<path opacity="0.3" d="M63.2414 0H36.0547V83.9243H46.2953V245.998H55.4482H58.5071V83.9243H63.2399C68.1165 83.9243 72.1054 79.9354 72.1054 75.0589V8.86543C72.1068 3.98888 68.1179 0 63.2414 0Z" fill="black"/>
</g>
</svg>
