<svg width="304" height="431" viewBox="0 0 304 431" fill="none" xmlns="http://www.w3.org/2000/svg">
<path d="M63.6832 83.9395H17.0312V92.0641H63.6832V83.9395Z" fill="#B3B3B3"/>
<path d="M63.6832 117.232H17.0312V125.357H63.6832V117.232Z" fill="#B3B3B3"/>
<path d="M23.7938 71.6016H15V430.999H23.7938V71.6016Z" fill="#B3B3B3"/>
<path d="M63.6804 90.3086H23.793V92.0635H63.6804V90.3086Z" fill="#808080"/>
<path d="M63.6804 123.602H23.793V125.356H63.6804V123.602Z" fill="#808080"/>
<path d="M24.6713 71.6035H22.918V431.001H24.6713V71.6035Z" fill="#808080"/>
<path d="M23.7781 82.2012H21.7461V93.8411H23.7781L35.1465 88.0211L23.7781 82.2012Z" fill="#808080"/>
<path d="M23.7781 115.475H21.7461V127.115H23.7781L35.1465 121.295L23.7781 115.475Z" fill="#808080"/>
<path d="M244.972 83.9395H198.32V92.0641H244.972V83.9395Z" fill="#B3B3B3"/>
<path d="M244.972 117.232H198.32V125.357H244.972V117.232Z" fill="#B3B3B3"/>
<path d="M247.001 71.6016H238.207V430.999H247.001V71.6016Z" fill="#B3B3B3"/>
<path d="M238.208 90.3086H198.32V92.0635H238.208V90.3086Z" fill="#808080"/>
<path d="M238.208 123.602H198.32V125.356H238.208V123.602Z" fill="#808080"/>
<path d="M239.085 71.6035H237.332V431.001H239.085V71.6035Z" fill="#808080"/>
<path d="M238.223 82.2012H240.255V93.8411H238.223L226.855 88.0211L238.223 82.2012Z" fill="#808080"/>
<path d="M238.223 115.475H240.255V127.115H238.223L226.855 121.295L238.223 115.475Z" fill="#808080"/>
<path d="M56.5185 157.361C50.5509 157.361 45.6953 152.501 45.6953 146.528V69.8328C45.6953 63.8599 50.5509 59 56.5185 59H208.432C214.4 59 219.256 63.8599 219.256 69.8328V146.528C219.256 152.501 214.4 157.361 208.432 157.361H56.5185Z" fill="#0B53BF"/>
<path d="M215.197 146.528C215.197 150.268 212.169 153.299 208.432 153.299H56.5184C52.7817 153.299 49.7539 150.268 49.7539 146.528V69.833C49.7539 66.0943 52.7817 63.0625 56.5184 63.0625H208.432C212.169 63.0625 215.197 66.0943 215.197 69.833V146.528Z" stroke="white" stroke-width="2" stroke-miterlimit="10"/>
<path d="M88.8857 131.63V122.648H81.5449V131.63L73.5898 131.118L85.2153 141.196L96.8421 131.118L88.8857 131.63Z" fill="white"/>
<path d="M189.524 131.63V122.648H182.182V131.63L174.227 131.118L185.853 141.196L197.48 131.118L189.524 131.63Z" fill="white"/>
<g opacity="0.3">
<path opacity="0.3" d="M238.21 71.6013V71.604H237.333V82.6589L234.831 83.9399H219.26V69.8328C219.26 63.8599 214.405 59 208.437 59H131.004V157.361H208.437C214.405 157.361 219.26 152.501 219.26 146.528V125.357H234.791L237.332 126.657V431H239.085V430.999H247.004V71.6013H238.21ZM237.333 115.929L234.791 117.232H219.26V92.0632H234.752L237.332 93.3848V115.929H237.333Z" fill="black"/>
</g>
<path d="M163 84H150V321H163V84Z" fill="#B3B3B3"/>
<path d="M163 84H160V321H163V84Z" fill="#808080"/>
<path d="M156.355 95.4998C153.568 95.4998 150.954 94.4201 148.993 92.4596L112.04 55.5035C110.08 53.5461 109 50.9289 109 48.1444C109 45.3568 110.08 42.7428 112.043 40.7822L148.993 3.82928C150.954 1.86877 153.571 0.789062 156.355 0.789062C159.14 0.789062 161.754 1.86877 163.718 3.82928L200.667 40.7822C202.628 42.7428 203.711 45.3568 203.711 48.1444C203.711 50.9289 202.628 53.5429 200.667 55.5035L163.718 92.4564C161.754 94.4201 159.14 95.4998 156.355 95.4998Z" fill="white" stroke="black" stroke-miterlimit="10"/>
<path d="M156.358 70.7982L179.012 48.1445L156.358 25.4908L133.704 48.1445L156.358 70.7982Z" fill="#FBB03B"/>
<g opacity="0.3">
<path opacity="0.3" d="M201.226 40.2237L164.276 3.27068C162.163 1.16179 159.35 0 156.355 0V282.592H159.768H163.195V93.9515C163.569 93.661 163.935 93.3548 164.276 93.0138L201.226 56.0609C203.338 53.9504 204.5 51.1391 204.5 48.1446C204.5 45.1486 203.338 42.3357 201.226 40.2237Z" fill="#B3B3B3"/>
</g>
<path d="M271 98H258V321H271V98Z" fill="#B3B3B3"/>
<path d="M271 98H267V321H271V98Z" fill="#808080"/>
<path d="M264.272 98.2266C284.305 98.2266 300.545 81.9868 300.545 61.9541C300.545 41.9214 284.305 25.6816 264.272 25.6816C244.24 25.6816 228 41.9214 228 61.9541C228 81.9868 244.24 98.2266 264.272 98.2266Z" fill="#0B53BF" stroke="#0B53BF" stroke-width="6.4531" stroke-miterlimit="10" stroke-linecap="round" stroke-linejoin="round"/>
<path d="M279.954 56.5417L264.271 29.3809L248.59 56.5417H258.739V94.5248H269.805V56.5417H279.954Z" fill="white"/>
<g opacity="0.3">
<path opacity="0.3" d="M262 22V320.5H265.128H268.267V101.434C287.809 98.4729 302.818 81.8968 302.818 61.952C302.816 39.9236 284.506 22 262 22Z" fill="black"/>
</g>
<path d="M44.5342 120.396H32.5586V335.318H44.5342V120.396Z" fill="#B3B3B3"/>
<path d="M44.5349 120.396H41.5352V335.318H44.5349V120.396Z" fill="#808080"/>
<path d="M38.5437 123.546C57.6217 123.546 73.0874 108.081 73.0874 89.0027C73.0874 69.9247 57.6217 54.459 38.5437 54.459C19.4657 54.459 4 69.9247 4 89.0027C4 108.081 19.4657 123.546 38.5437 123.546Z" fill="white" stroke="#C1272D" stroke-width="6.4531" stroke-miterlimit="10" stroke-linecap="round" stroke-linejoin="round"/>
<path d="M16.0938 66.6621L60.995 111.563" stroke="#C1272D" stroke-width="6.4531" stroke-miterlimit="10" stroke-linecap="round" stroke-linejoin="round"/>
<g opacity="0.3">
<path opacity="0.3" d="M38.543 50V335.317H41.5317H44.5315V127.544C63.2044 124.654 77.5456 108.471 77.5456 89.0012C77.5442 67.4971 60.0485 50 38.543 50Z" fill="black"/>
</g>
</svg>
