<?xml version="1.0" encoding="utf-8"?>
<!-- Generator: Adobe Illustrator 17.0.0, SVG Export Plug-In . SVG Version: 6.00 Build 0)  -->
<!DOCTYPE svg PUBLIC "-//W3C//DTD SVG 1.1//EN" "http://www.w3.org/Graphics/SVG/1.1/DTD/svg11.dtd">
<svg version="1.1" id="Слой_1" xmlns="http://www.w3.org/2000/svg" xmlns:xlink="http://www.w3.org/1999/xlink" x="0px" y="0px"
	 width="1183px" height="1183px" viewBox="0 0 1183 1183" enable-background="new 0 0 1183 1183" xml:space="preserve">
<g>
	<g>
		<path fill="#3F496A" d="M591.504,1115.639c-70.737,0-139.365-13.857-203.978-41.186
			c-62.402-26.394-118.442-64.176-166.564-112.298c-48.122-48.122-85.904-104.162-112.298-166.564
			c-27.329-64.613-41.186-133.241-41.186-203.978s13.857-139.365,41.186-203.978c26.394-62.402,64.176-118.442,112.298-166.564
			s104.162-85.904,166.564-112.298c64.613-27.329,133.241-41.186,203.978-41.186s139.365,13.857,203.978,41.186
			c62.402,26.394,118.442,64.176,166.564,112.298s85.904,104.162,112.298,166.564c27.329,64.613,41.186,133.241,41.186,203.978
			s-13.857,139.365-41.186,203.978c-26.394,62.402-64.176,118.442-112.298,166.564c-48.122,48.121-104.162,85.904-166.564,112.298
			C730.87,1101.782,662.241,1115.639,591.504,1115.639z M591.504,92.589c-275.163,0-499.025,223.862-499.025,499.025
			s223.862,499.025,499.025,499.025s499.025-223.862,499.025-499.025S866.667,92.589,591.504,92.589z"/>
	</g>
	<g>
		<path fill="#3F496A" d="M591,160c-6.904,0-12.5-5.596-12.5-12.5v-135C578.5,5.596,584.096,0,591,0s12.5,5.596,12.5,12.5v135
			C603.5,154.404,597.904,160,591,160z"/>
	</g>
	<g>
		<path fill="#3F496A" d="M591,1183c-6.904,0-12.5-5.597-12.5-12.5v-135c0-6.903,5.596-12.5,12.5-12.5s12.5,5.597,12.5,12.5v135
			C603.5,1177.403,597.904,1183,591,1183z"/>
	</g>
	<g>
		<g>
			<path fill="#3F496A" d="M1170.5,604.5h-135c-6.904,0-12.5-5.596-12.5-12.5s5.596-12.5,12.5-12.5h135
				c6.904,0,12.5,5.596,12.5,12.5S1177.404,604.5,1170.5,604.5z"/>
		</g>
		<g>
			<path fill="#3F496A" d="M147.5,604.5h-135C5.596,604.5,0,598.904,0,592s5.596-12.5,12.5-12.5h135c6.904,0,12.5,5.596,12.5,12.5
				S154.404,604.5,147.5,604.5z"/>
		</g>
	</g>
	<g>
		<g>
			<path fill="#3F496A" d="M870.391,583.234c-5.885,0-11.128-4.175-12.267-10.17c-0.198-1.037-20.697-105.154-84.683-169.14
				c-63.846-63.846-158.394-76.597-159.341-76.719c-6.848-0.877-11.688-7.139-10.811-13.986c0.877-6.848,7.138-11.689,13.986-10.811
				c4.215,0.54,104.026,14.02,173.844,83.838c69.526,69.526,90.699,177.587,91.567,182.153c1.288,6.782-3.166,13.325-9.948,14.613
				C871.95,583.162,871.164,583.234,870.391,583.234z"/>
		</g>
		<g>
			<path fill="#3F496A" d="M766.832,579.009c-5.885,0-11.128-4.175-12.267-10.169c-0.109-0.568-11.554-58.442-46.856-93.745
				c-34.965-34.965-87.327-42.193-87.852-42.262c-6.837-0.898-11.666-7.164-10.779-14.003c0.887-6.838,7.138-11.668,13.974-10.792
				c2.48,0.317,61.205,8.25,102.335,49.379c40.838,40.838,53.232,104.085,53.74,106.757c1.288,6.782-3.166,13.325-9.948,14.613
				C768.39,578.937,767.605,579.009,766.832,579.009z"/>
		</g>
		<g>
			<path fill="#3F496A" d="M452.414,739.262c-3.199,0-6.398-1.22-8.839-3.661c-38.051-38.051-74.611-90.399-102.948-147.402
				c-23.899-48.077-39.393-94.362-40.437-120.792c-2.218-56.181,37.571-94.269,54.78-108.036
				c30.683-24.547,64.989-29.163,66.435-29.348c4.071-0.52,8.142,0.994,10.885,4.05l119.059,132.64
				c2.954,3.291,3.949,7.897,2.618,12.114c-0.84,2.66-4.866,12.699-21.4,30.177c-16.97,17.94-60.895,42.49-62.757,43.527
				c-6.031,3.358-13.642,1.191-17-4.841c-3.358-6.031-1.191-13.643,4.839-17.002c11.753-6.546,44.86-26.288,56.756-38.864
				c6.144-6.495,10.022-11.524,12.405-15.023L418.417,356.042c-9.827,2.303-29.792,8.422-47.828,22.85
				c-14.245,11.396-47.185,42.737-45.417,87.529c1.672,42.364,54.607,170.029,136.081,251.502c4.882,4.882,4.882,12.796,0,17.678
				C458.812,738.042,455.613,739.262,452.414,739.262z"/>
		</g>
		<g>
			<path fill="#3F496A" d="M718.12,880.921c-1.489,0-2.988-0.029-4.503-0.089c-26.431-1.043-72.716-16.538-120.792-40.437
				c-57.003-28.336-109.352-64.897-147.402-102.948c-4.882-4.882-4.882-12.796,0-17.678c4.881-4.881,12.796-4.881,17.678,0
				c81.474,81.474,209.139,134.409,251.503,136.081c44.792,1.766,76.133-31.173,87.529-45.417
				c14.549-18.186,20.606-38.021,22.872-47.809L704.223,654.212c-3.499,2.382-8.528,6.261-15.022,12.405
				c-12.576,11.896-32.319,45.003-38.865,56.756c-3.359,6.031-10.97,8.198-17.002,4.839c-6.031-3.358-8.198-10.969-4.841-17
				c1.036-1.862,25.587-45.786,43.527-62.757c17.478-16.533,27.516-20.559,30.176-21.399c4.217-1.332,8.823-0.336,12.114,2.617
				l132.64,119.06c3.056,2.743,4.57,6.812,4.05,10.885c-0.185,1.445-4.801,35.751-29.347,66.434
				C808.257,842.797,771.832,880.919,718.12,880.921z"/>
		</g>
		<g>
			<path fill="#3F496A" d="M639.404,729.794c-1.922,0-3.873-0.445-5.7-1.384c-2.845-1.461-70.121-36.227-108.19-74.295
				c-38.059-38.059-72.028-103.441-73.455-106.206c-3.167-6.134-0.762-13.675,5.372-16.842c6.134-3.167,13.673-0.762,16.841,5.371
				l0,0c0.333,0.643,33.637,64.717,68.92,99.999c35.327,35.327,101.272,69.395,101.934,69.735c6.141,3.154,8.563,10.689,5.408,16.83
				C648.318,727.316,643.941,729.794,639.404,729.794z"/>
		</g>
	</g>
</g>
</svg>
