<?xml version="1.0" encoding="utf-8"?>
<!-- Generator: Adobe Illustrator 17.0.0, SVG Export Plug-In . SVG Version: 6.00 Build 0)  -->
<!DOCTYPE svg PUBLIC "-//W3C//DTD SVG 1.1//EN" "http://www.w3.org/Graphics/SVG/1.1/DTD/svg11.dtd">
<svg version="1.1" id="Слой_1" xmlns="http://www.w3.org/2000/svg" xmlns:xlink="http://www.w3.org/1999/xlink" x="0px" y="0px"
	 width="1104.542px" height="1175.519px" viewBox="0 0 1104.542 1175.519" enable-background="new 0 0 1104.542 1175.519"
	 xml:space="preserve">
<g>
	<g>
		<g>
			<path fill="#3F496A" d="M150.777,596.778c-6.904,0-12.5-5.596-12.5-12.5V244.48c-0.511-9.015-2.783-72.205,32.095-93.328
				c29.344-17.772,64.395-17.281,87.592-16.954c2.906,0.041,5.654,0.08,8.211,0.08h270.102c6.904,0,12.5,5.596,12.5,12.5
				s-5.596,12.5-12.5,12.5H266.176c-2.667,0-5.532-0.04-8.562-0.082c-21.558-0.302-51.079-0.717-74.29,13.341
				c-19.131,11.587-20.943,56.131-20.069,70.822c0.015,0.247,0.023,0.507,0.023,0.754v340.165
				C163.277,591.181,157.681,596.778,150.777,596.778z"/>
		</g>
		<g>
			<path fill="#3F496A" d="M952.777,596.778c-6.903,0-12.5-5.596-12.5-12.5V244.112c0-0.279,0.009-0.558,0.028-0.836
				c0.955-14.667-0.617-59.174-19.714-70.74c-23.208-14.055-52.526-13.644-73.932-13.341c-3.025,0.043-5.89,0.083-8.56,0.083
				H534.277c-6.903,0-12.5-5.596-12.5-12.5s5.597-12.5,12.5-12.5h303.821c2.56,0,5.307-0.039,8.208-0.08
				c23.056-0.324,57.896-0.814,87.235,16.955c15.789,9.563,25.883,28.684,30.001,56.832c2.614,17.865,1.9,33.589,1.734,36.504
				v339.789C965.277,591.181,959.681,596.778,952.777,596.778z"/>
		</g>
	</g>
	<g>
		<g>
			<path fill="#3F496A" d="M142.001,1175.519c-29.585,0-68.134-2.384-100.992-22.284c-20.088-12.166-33.004-36.854-38.389-73.377
				c-3.535-23.973-2.537-44.98-2.343-48.365V485.278c0-6.904,5.596-12.5,12.5-12.5s12.5,5.596,12.5,12.5v546.592
				c0,0.274-0.009,0.548-0.027,0.821c-1.41,21.884,0.999,82.378,28.709,99.161c32.256,19.535,72.453,18.961,101.806,18.539
				c4.073-0.058,7.921-0.113,11.557-0.113h362.955c6.904,0,12.5,5.596,12.5,12.5s-5.596,12.5-12.5,12.5H167.323
				c-3.457,0-7.217,0.054-11.199,0.111C151.719,1175.451,146.984,1175.519,142.001,1175.519z"/>
		</g>
		<g>
			<path fill="#3F496A" d="M962.37,1175.519c-4.995,0-9.734-0.068-14.148-0.131c-3.982-0.057-7.744-0.111-11.2-0.111H527.277
				c-6.904,0-12.5-5.596-12.5-12.5s5.596-12.5,12.5-12.5h409.745c3.634,0,7.483,0.055,11.558,0.113
				c29.391,0.42,69.652,0.997,101.91-18.539c27.718-16.787,30.197-77.289,28.813-99.185c-0.017-0.262-0.025-0.534-0.025-0.797
				V485.278c0-6.904,5.596-12.5,12.5-12.5c6.903,0,12.5,5.596,12.5,12.5v546.224c0.189,3.361,1.166,24.381-2.397,48.37
				c-5.423,36.518-18.356,61.202-38.439,73.365C1030.588,1173.133,991.992,1175.519,962.37,1175.519z"/>
		</g>
	</g>
	<g>
		<g>
			<path fill="#3F496A" d="M762.372,461.192c-5.885,0-11.128-4.175-12.266-10.17c-0.147-0.769-15.462-78.407-63.024-125.969
				c-47.223-47.223-117.704-56.897-118.41-56.989c-6.84-0.893-11.671-7.158-10.787-13.999c0.884-6.841,7.126-11.674,13.977-10.797
				c3.221,0.412,79.507,10.716,132.897,64.107c53.1,53.1,69.246,135.5,69.907,138.982c1.289,6.782-3.166,13.325-9.948,14.613
				C763.931,461.12,763.145,461.192,762.372,461.192z"/>
		</g>
		<g>
			<path fill="#3F496A" d="M684.266,458.006c-5.885,0-11.127-4.175-12.266-10.17c-0.08-0.412-8.564-43.175-34.494-69.104
				c-25.785-25.785-64.079-30.948-64.462-30.998c-6.848-0.877-11.688-7.139-10.811-13.986c0.877-6.848,7.13-11.691,13.987-10.811
				c1.913,0.245,47.21,6.364,78.964,38.117c31.462,31.462,40.987,80.063,41.377,82.117c1.289,6.782-3.166,13.325-9.948,14.613
				C685.825,457.933,685.039,458.006,684.266,458.006z"/>
		</g>
		<g>
			<path fill="#3F496A" d="M447.131,578.87c-3.199,0-6.398-1.22-8.839-3.661c-28.927-28.927-56.708-68.695-78.224-111.978
				c-18.205-36.623-30.014-72.01-30.816-92.35c-1.728-43.773,29.123-73.328,42.467-84.003
				c23.808-19.046,50.511-22.639,51.636-22.783c4.074-0.52,8.142,0.994,10.885,4.05l89.796,100.039
				c2.954,3.291,3.949,7.897,2.618,12.114c-0.684,2.165-3.917,10.288-16.838,23.947c-12.898,13.636-44.507,31.419-48.069,33.402
				c-6.031,3.357-13.641,1.191-17-4.841c-3.358-6.031-1.192-13.643,4.838-17.002c8.751-4.875,33.368-19.541,42.069-28.74
				c3.469-3.667,5.934-6.673,7.659-8.997l-78.881-87.878c-7.559,1.946-20.943,6.489-33.096,16.211
				c-10.379,8.303-34.382,31.112-33.104,63.495c1.245,31.528,40.816,126.715,101.737,187.636c4.881,4.882,4.881,12.796,0,17.678
				C453.529,577.65,450.331,578.87,447.131,578.87z"/>
		</g>
		<g>
			<path fill="#3F496A" d="M647.538,685.712c-1.166,0-2.339-0.023-3.525-0.07c-20.34-0.803-55.726-12.611-92.35-30.816
				c-43.283-21.516-83.05-49.296-111.978-78.223c-4.881-4.882-4.881-12.796,0-17.678c4.882-4.881,12.797-4.881,17.678,0
				c60.921,60.921,156.107,100.492,187.636,101.737c32.377,1.287,55.192-22.724,63.495-33.104
				c9.709-12.137,14.259-25.533,16.209-33.098l-87.876-78.878c-2.324,1.725-5.331,4.19-8.998,7.658
				c-9.217,8.719-23.87,33.324-28.739,42.068c-3.358,6.031-10.972,8.198-17.001,4.842c-6.032-3.358-8.2-10.97-4.841-17.002
				c1.983-3.562,19.766-35.17,33.401-48.069c13.658-12.92,21.782-16.154,23.946-16.838c4.219-1.331,8.824-0.335,12.114,2.618
				l100.04,89.796c3.056,2.743,4.57,6.812,4.05,10.885c-0.144,1.125-3.737,27.828-22.783,51.636
				C717.63,656.158,689.371,685.71,647.538,685.712z"/>
		</g>
		<g>
			<path fill="#3F496A" d="M588.159,571.73c-1.922,0-3.873-0.445-5.701-1.384c-2.163-1.111-53.318-27.546-82.367-56.595
				c-29.04-29.039-54.873-78.763-55.958-80.866c-3.167-6.134-0.762-13.674,5.373-16.842c6.133-3.168,13.674-0.762,16.841,5.373
				c0.32,0.619,25.197,48.432,51.422,74.656c26.308,26.308,75.616,51.78,76.111,52.034c6.141,3.154,8.563,10.689,5.408,16.83
				C597.073,569.251,592.696,571.73,588.159,571.73z"/>
		</g>
	</g>
	<g>
		<path fill="#3F496A" d="M1091.613,498.157c-2.957,0-5.925-1.043-8.307-3.164c-5.477-4.876-26.166-22.366-50.122-42.618
			c-32.616-27.573-69.583-58.824-86.437-73.653c-5.183-4.56-5.688-12.458-1.128-17.642c4.561-5.183,12.458-5.688,17.642-1.128
			c16.669,14.665,55.146,47.194,86.063,73.33c24.087,20.363,44.89,37.949,50.605,43.037c5.156,4.59,5.615,12.492,1.025,17.648
			C1098.484,496.742,1095.056,498.157,1091.613,498.157z"/>
	</g>
	<g>
		<path fill="#3F496A" d="M699.962,157.558c-2.952,0-5.914-1.039-8.294-3.152c-5.569-4.944-11.136-9.891-16.703-14.837
			c-14.902-13.242-30.312-26.934-45.505-40.344c-26.099-23.035-52.852-46.247-78.724-68.696l-9.896-8.588
			c-5.214-4.525-5.772-12.42-1.247-17.634c4.525-5.214,12.419-5.772,17.634-1.247l9.894,8.586
			c25.911,22.482,52.704,45.73,78.882,68.835c15.225,13.437,30.65,27.144,45.568,40.399c5.564,4.944,11.128,9.888,16.695,14.83
			c5.163,4.583,5.632,12.484,1.049,17.646C706.844,156.138,703.411,157.558,699.962,157.558z"/>
	</g>
	<g>
		<path fill="#3F496A" d="M15.615,494.142c-3.443,0-6.871-1.415-9.341-4.189c-4.59-5.156-4.131-13.058,1.025-17.648
			c12.037-10.716,24.817-22.039,39.069-34.616c17.807-15.714,35.947-31.638,53.49-47.037c11.652-10.229,23.305-20.458,34.946-30.699
			c5.183-4.56,13.083-4.055,17.642,1.128c4.56,5.183,4.055,13.082-1.128,17.642c-11.648,10.248-23.308,20.483-34.967,30.718
			c-17.53,15.389-35.658,31.302-53.44,46.993c-14.225,12.553-26.978,23.853-38.988,34.544
			C21.54,493.099,18.571,494.142,15.615,494.142z"/>
	</g>
	<g>
		<path fill="#3F496A" d="M398.102,157.558c-3.449,0-6.882-1.419-9.352-4.202c-4.583-5.163-4.114-13.063,1.049-17.646
			c5.566-4.942,11.131-9.886,16.695-14.83c14.918-13.255,30.344-26.962,45.568-40.399c26.198-23.122,53.012-46.388,78.943-68.887
			l9.834-8.533c5.214-4.524,13.108-3.966,17.634,1.247c4.525,5.214,3.967,13.109-1.247,17.634l-9.836,8.535
			c-25.892,22.466-52.665,45.696-78.784,68.748c-15.193,13.41-30.603,27.102-45.505,40.344c-5.567,4.947-11.134,9.893-16.703,14.837
			C404.016,156.519,401.053,157.558,398.102,157.558z"/>
	</g>
	<g>
		<path fill="#3F496A" d="M649.826,864.278H452.757c-3.022,0-5.941-1.095-8.218-3.081l-22.996-20.064L16.413,483.268
			c-5.174-4.571-5.664-12.47-1.093-17.644c4.57-5.174,12.469-5.664,17.644-1.093l405.073,357.814l19.407,16.932h187.727
			l425.443-367.985c5.221-4.516,13.115-3.945,17.631,1.277c4.516,5.221,3.945,13.115-1.277,17.631L658.004,861.232
			C655.732,863.197,652.829,864.278,649.826,864.278z"/>
	</g>
	<g>
		<path fill="#3F496A" d="M58.284,1160.705c-3.546,0-7.068-1.5-9.542-4.417c-4.464-5.266-3.814-13.154,1.452-17.618l371.483-314.918
			c5.267-4.464,13.153-3.814,17.618,1.452c4.464,5.266,3.814,13.154-1.452,17.618L66.36,1157.74
			C64.011,1159.731,61.14,1160.705,58.284,1160.705z"/>
	</g>
	<g>
		<path fill="#3F496A" d="M1044.213,1160.705c-2.856,0-5.727-0.974-8.077-2.965L664.653,842.821
			c-5.266-4.464-5.916-12.352-1.452-17.618c4.464-5.266,12.352-5.916,17.618-1.452l371.483,314.918
			c5.266,4.464,5.916,12.352,1.452,17.618C1051.282,1159.204,1047.759,1160.705,1044.213,1160.705z"/>
	</g>
</g>
</svg>
