<?xml version="1.0" encoding="utf-8"?>
<!-- Generator: Adobe Illustrator 17.0.0, SVG Export Plug-In . SVG Version: 6.00 Build 0)  -->
<!DOCTYPE svg PUBLIC "-//W3C//DTD SVG 1.1//EN" "http://www.w3.org/Graphics/SVG/1.1/DTD/svg11.dtd">
<svg version="1.1" id="Слой_1" xmlns="http://www.w3.org/2000/svg" xmlns:xlink="http://www.w3.org/1999/xlink" x="0px" y="0px"
	 width="1293.549px" height="920.254px" viewBox="0 0 1293.549 920.254" enable-background="new 0 0 1293.549 920.254"
	 xml:space="preserve">
<g>
	<g>
		<g>
			<g>
				<path fill="#3F496A" d="M106.549,785.754c-6.903,0-12.5-5.596-12.5-12.5V84.618c0-22.466,7.742-41.054,23.011-55.249
					C153.177-4.209,219.127,0.187,221.919,0.391c6.885,0.502,12.06,6.491,11.557,13.377c-0.502,6.881-6.48,12.052-13.365,11.558
					c-0.726-0.051-58.023-3.742-86.07,22.393c-10.087,9.398-14.99,21.469-14.99,36.9v688.636
					C119.049,780.158,113.453,785.754,106.549,785.754z"/>
			</g>
			<g>
				<path fill="#3F496A" d="M1187.549,785.754c-6.903,0-12.5-5.596-12.5-12.5V84.618c0-15-4.839-26.815-14.794-36.12
					c-28.978-27.085-89.758-23.314-90.368-23.273c-0.28,0.019-0.574,0.029-0.855,0.029h-75.982c-6.903,0-12.5-5.596-12.5-12.5
					s5.597-12.5,12.5-12.5h75.581c6.766-0.411,72.822-3.484,108.64,29.927c15.115,14.1,22.779,32.415,22.779,54.437v688.636
					C1200.049,780.158,1194.453,785.754,1187.549,785.754z"/>
			</g>
			<g>
				<g>
					<path fill="#3F496A" d="M696.049,162.254h-589c-6.903,0-12.5-5.596-12.5-12.5s5.597-12.5,12.5-12.5h589
						c6.903,0,12.5,5.596,12.5,12.5S702.953,162.254,696.049,162.254z"/>
				</g>
				<g>
					<path fill="#3F496A" d="M1187.049,162.254h-513c-6.903,0-12.5-5.596-12.5-12.5s5.597-12.5,12.5-12.5h513
						c6.903,0,12.5,5.596,12.5,12.5S1193.953,162.254,1187.049,162.254z"/>
				</g>
			</g>
		</g>
		<g>
			<path fill="#3F496A" d="M1281.049,786.254h-1268c-6.903,0-12.5-5.596-12.5-12.5s5.597-12.5,12.5-12.5h1268
				c6.903,0,12.5,5.596,12.5,12.5S1287.953,786.254,1281.049,786.254z"/>
		</g>
		<g>
			<g>
				<path fill="#3F496A" d="M676.049,920.254H135.114c-48.086,0-98.096-21.824-118.912-51.892
					c-19.897-28.74-16.087-88.258-15.587-94.95c0.514-6.885,6.523-12.05,13.396-11.534c6.882,0.514,12.046,6.509,11.534,13.391l0,0
					c-1.162,15.752-1.414,60.627,11.211,78.864c16.229,23.443,58.515,41.122,98.357,41.122h540.936c6.903,0,12.5,5.596,12.5,12.5
					C688.549,914.657,682.953,920.254,676.049,920.254z"/>
			</g>
			<g>
				<path fill="#3F496A" d="M1158.948,920.254H616.049c-6.903,0-12.5-5.597-12.5-12.5c0-6.904,5.597-12.5,12.5-12.5h542.898
					c39.563,0,81.638-17.678,97.867-41.122c12.574-18.164,11.942-64.099,10.729-78.758c-0.569-6.88,4.546-12.919,11.426-13.488
					c6.899-0.568,12.919,4.547,13.488,11.427c0.555,6.698,4.839,66.264-15.089,95.05
					C1256.553,898.43,1206.751,920.254,1158.948,920.254z"/>
			</g>
		</g>
		<g>
			<g>
				<path fill="#3F496A" d="M654.049,861.254H528.239c-16.998,0-26.976-15.013-29.053-28.962c-0.091-0.61-0.137-1.225-0.137-1.841
					v-56.197c0-6.904,5.597-12.5,12.5-12.5s12.5,5.596,12.5,12.5v54.989c0.609,2.565,2.377,7.011,4.189,7.011h125.811
					c6.903,0,12.5,5.596,12.5,12.5S660.953,861.254,654.049,861.254z"/>
			</g>
			<g>
				<path fill="#3F496A" d="M766.134,861.254H639.049c-6.903,0-12.5-5.596-12.5-12.5s5.597-12.5,12.5-12.5h127.085
					c1.73,0,3.374-4.406,3.915-6.902v-55.098c0-6.904,5.597-12.5,12.5-12.5s12.5,5.596,12.5,12.5v56.197
					c0,0.555-0.037,1.109-0.11,1.658C793.06,846.146,783.245,861.254,766.134,861.254z"/>
			</g>
		</g>
	</g>
	<g>
		<path fill="#3F496A" d="M699.049,97.254h-102c-6.903,0-12.5-5.596-12.5-12.5s5.597-12.5,12.5-12.5h102
			c6.903,0,12.5,5.596,12.5,12.5S705.953,97.254,699.049,97.254z"/>
	</g>
	<g>
		<path fill="#3F496A" d="M995.049,25.254h-770c-6.903,0-12.5-5.596-12.5-12.5s5.597-12.5,12.5-12.5h770
			c6.903,0,12.5,5.596,12.5,12.5S1001.953,25.254,995.049,25.254z"/>
	</g>
	<g>
		<path fill="#3F496A" d="M1000.049,469.254h-102c-6.903,0-12.5-5.596-12.5-12.5s5.597-12.5,12.5-12.5h102
			c6.903,0,12.5,5.596,12.5,12.5S1006.953,469.254,1000.049,469.254z"/>
	</g>
	<g>
		<path fill="#3F496A" d="M976.516,657.338c-3.199,0-6.398-1.22-8.839-3.661L895.03,581.03c-4.882-4.882-4.882-12.796,0-17.678
			c4.881-4.881,12.797-4.881,17.678,0l72.647,72.647c4.882,4.882,4.882,12.796,0,17.678
			C982.915,656.118,979.715,657.338,976.516,657.338z"/>
	</g>
	<g>
		<path fill="#3F496A" d="M903.869,344.134c-3.199,0-6.397-1.22-8.839-3.661c-4.882-4.882-4.882-12.796,0-17.678l72.647-72.647
			c4.882-4.881,12.796-4.881,17.678,0c4.882,4.882,4.882,12.796,0,17.678l-72.647,72.647
			C910.267,342.913,907.067,344.134,903.869,344.134z"/>
	</g>
	<g>
		<path fill="#3F496A" d="M303.549,480.756c-6.87,0-12.445-5.542-12.5-12.399c0-0.034,0-0.067,0-0.101v-28.479
			c0-32.438,3.704-51.554,12.385-63.918c9.829-14,24.707-16.973,36.661-19.362c0.807-0.161,1.627-0.242,2.449-0.242h127.505
			c6.903,0,12.5,5.596,12.5,12.5s-5.597,12.5-12.5,12.5H343.792c-10.776,2.191-16.349,3.917-19.896,8.97
			c-5.279,7.519-7.846,23.728-7.846,49.553v28.479C316.049,475.16,310.453,480.756,303.549,480.756z"/>
	</g>
	<g>
		<path fill="#3F496A" d="M469.549,555.254H342.544c-0.822,0-1.643-0.081-2.449-0.242c-11.945-2.387-26.811-5.358-36.679-19.488
			c-8.669-12.412-12.367-31.551-12.367-63.993v-31.754c0-32.438,3.704-51.554,12.385-63.918c9.829-14,24.707-16.973,36.661-19.362
			c0.807-0.161,1.627-0.242,2.449-0.242h127.005c6.903,0,12.5,5.596,12.5,12.5v174C482.049,549.658,476.453,555.254,469.549,555.254
			z M343.794,530.254h113.255v-149H343.792c-10.776,2.191-16.349,3.917-19.896,8.97c-5.279,7.52-7.846,23.728-7.846,49.553v31.754
			c0,25.852,2.572,42.102,7.863,49.679C327.295,526.052,332.147,527.875,343.794,530.254z"/>
	</g>
	<g>
		<path fill="#3F496A" d="M403.304,699.254h-15.022c-11.233,0-27.276-1.407-36.861-13.57c-6.702-8.504-8.186-19.385-9.318-31.695
			c-0.035-0.381-0.053-0.763-0.053-1.146V542.754c0-6.904,5.597-12.5,12.5-12.5h82c6.903,0,12.5,5.596,12.5,12.5v110.089
			c0,0.383-0.018,0.765-0.053,1.146C447.14,674.156,444.831,699.254,403.304,699.254z M401.069,674.254h2.235
			c6.332,0,14.4-0.679,16.882-3.914c2.431-3.171,3.24-11.323,3.863-18.072v-97.014h-57v97.011
			c0.723,7.755,1.603,14.895,4.006,17.945c2.635,3.343,10.822,4.044,17.227,4.044H401.069z"/>
	</g>
	<g>
		<path fill="#3F496A" d="M828.549,697.254h-108c-6.903,0-12.5-5.596-12.5-12.5v-455c0-6.904,5.597-12.5,12.5-12.5h108
			c6.903,0,12.5,5.596,12.5,12.5v455C841.049,691.658,835.453,697.254,828.549,697.254z M733.049,672.254h83v-430h-83V672.254z"/>
	</g>
	<g>
		<path fill="#3F496A" d="M717.756,645.456c-1.439,0-2.902-0.25-4.331-0.778l-248.369-91.767c-4.946-1.827-8.214-6.562-8.167-11.834
			l1.496-172.063c0.045-5.082,3.162-9.632,7.886-11.508l249.864-99.248c6.42-2.547,13.684,0.587,16.231,7.003
			c2.549,6.416-0.587,13.683-7.003,16.232l-242.052,96.145l-1.348,154.869l240.125,88.721c6.476,2.393,9.786,9.582,7.394,16.058
			C727.618,642.332,722.839,645.456,717.756,645.456z"/>
	</g>
</g>
</svg>
