<?xml version="1.0" encoding="utf-8"?>
<!-- Generator: Adobe Illustrator 17.0.0, SVG Export Plug-In . SVG Version: 6.00 Build 0)  -->
<!DOCTYPE svg PUBLIC "-//W3C//DTD SVG 1.1//EN" "http://www.w3.org/Graphics/SVG/1.1/DTD/svg11.dtd">
<svg version="1.1" id="Слой_1" xmlns="http://www.w3.org/2000/svg" xmlns:xlink="http://www.w3.org/1999/xlink" x="0px" y="0px"
	 width="1166.5px" height="1186.134px" viewBox="0 0 1166.5 1186.134" enable-background="new 0 0 1166.5 1186.134"
	 xml:space="preserve">
<g>
	<g>
		<g>
			<g>
				<g>
					<path fill="#3F496A" d="M515.5,1112.634c-6.903,0-12.5-5.597-12.5-12.5V724.617c0-13.687,4.966-25.505,14.362-34.175
						c21.114-19.483,57.339-17.179,61.4-16.853c6.881,0.554,12.011,6.581,11.457,13.462c-0.554,6.879-6.587,12.004-13.454,11.458
						c-8.082-0.613-31.388,0.055-42.484,10.338c-4.285,3.971-6.281,8.983-6.281,15.77v375.516
						C528,1107.037,522.403,1112.634,515.5,1112.634z"/>
				</g>
				<g>
					<path fill="#3F496A" d="M1102.5,1112.634c-6.903,0-12.5-5.597-12.5-12.5V724.617c0-6.629-1.962-11.521-6.174-15.394
						c-11.295-10.383-35.396-10.837-43.724-10.136c-0.349,0.029-0.724,0.046-1.073,0.046H997c-6.903,0-12.5-5.596-12.5-12.5
						s5.597-12.5,12.5-12.5h41.52c6.281-0.483,41.541-2.257,62.158,16.624c9.37,8.58,14.322,20.289,14.322,33.86v375.516
						C1115,1107.037,1109.403,1112.634,1102.5,1112.634z"/>
				</g>
				<g>
					<g>
						<path fill="#3F496A" d="M837,771.134H516c-6.903,0-12.5-5.596-12.5-12.5s5.597-12.5,12.5-12.5h321
							c6.903,0,12.5,5.596,12.5,12.5S843.903,771.134,837,771.134z"/>
					</g>
					<g>
						<path fill="#3F496A" d="M1102,771.134H825c-6.903,0-12.5-5.596-12.5-12.5s5.597-12.5,12.5-12.5h277
							c6.903,0,12.5,5.596,12.5,12.5S1108.903,771.134,1102,771.134z"/>
					</g>
				</g>
			</g>
			<g>
				<path fill="#3F496A" d="M1154,1112.134H465c-6.903,0-12.5-5.597-12.5-12.5s5.597-12.5,12.5-12.5h689
					c6.903,0,12.5,5.597,12.5,12.5S1160.903,1112.134,1154,1112.134z"/>
			</g>
			<g>
				<g>
					<path fill="#3F496A" d="M826,1185.134H531.023c-28.202,0-56.652-12.645-69.186-30.75c-11.712-16.917-9.792-49.16-9.288-55.451
						c0.551-6.882,6.578-12.014,13.458-11.462c6.878,0.551,12.008,6.57,11.463,13.447l0,0c-0.938,11.984-0.033,32.08,4.922,39.236
						c6.799,9.822,26.849,19.98,48.631,19.98H826c6.903,0,12.5,5.596,12.5,12.5S832.903,1185.134,826,1185.134z"/>
				</g>
				<g>
					<path fill="#3F496A" d="M1087.939,1185.134H792c-6.903,0-12.5-5.596-12.5-12.5s5.597-12.5,12.5-12.5h295.939
						c21.632,0,41.591-10.159,48.391-19.98c4.911-7.093,5.701-27.546,4.689-39.136c-0.602-6.877,4.487-12.939,11.364-13.54
						c6.878-0.597,12.939,4.488,13.54,11.365c0.551,6.3,2.7,38.584-9.039,55.542
						C1144.351,1172.489,1115.999,1185.134,1087.939,1185.134z"/>
				</g>
			</g>
			<g>
				<g>
					<path fill="#3F496A" d="M814,1153.134h-69.136c-12.461,0-19.976-10.735-21.685-20.708c-0.119-0.697-0.18-1.404-0.18-2.111
						v-30.18c0-6.903,5.597-12.5,12.5-12.5s12.5,5.597,12.5,12.5v28h66c6.903,0,12.5,5.597,12.5,12.5S820.903,1153.134,814,1153.134
						z"/>
				</g>
				<g>
					<path fill="#3F496A" d="M874.268,1153.134H806c-6.903,0-12.5-5.597-12.5-12.5s5.597-12.5,12.5-12.5h64v-28
						c0-6.903,5.597-12.5,12.5-12.5s12.5,5.597,12.5,12.5v30.18c0,0.256-0.008,0.513-0.023,0.769
						C894.302,1142.041,886.972,1153.134,874.268,1153.134z"/>
				</g>
			</g>
		</g>
		<g>
			<path fill="#3F496A" d="M838,737.134h-55c-6.903,0-12.5-5.596-12.5-12.5s5.597-12.5,12.5-12.5h55c6.903,0,12.5,5.596,12.5,12.5
				S844.903,737.134,838,737.134z"/>
		</g>
		<g>
			<path fill="#3F496A" d="M998,699.134H580c-6.903,0-12.5-5.596-12.5-12.5s5.597-12.5,12.5-12.5h418c6.903,0,12.5,5.596,12.5,12.5
				S1004.903,699.134,998,699.134z"/>
		</g>
		<g>
			
				<path fill="#3F496A" stroke="#000000" stroke-width="25" stroke-linecap="round" stroke-linejoin="round" stroke-miterlimit="10" d="
				M988.705,1029.35"/>
		</g>
		<g>
			<path fill="#3F496A" d="M840,350.134h-25c-6.903,0-12.5-5.596-12.5-12.5s5.597-12.5,12.5-12.5h25c6.903,0,12.5,5.596,12.5,12.5
				S846.903,350.134,840,350.134z"/>
		</g>
		<g>
			<path fill="#3F496A" d="M758,350.134h-26c-6.903,0-12.5-5.596-12.5-12.5s5.597-12.5,12.5-12.5h26c6.903,0,12.5,5.596,12.5,12.5
				S764.903,350.134,758,350.134z"/>
		</g>
		<g>
			<path fill="#3F496A" d="M840,269.134h-25c-6.903,0-12.5-5.596-12.5-12.5s5.597-12.5,12.5-12.5h25c6.903,0,12.5,5.596,12.5,12.5
				S846.903,269.134,840,269.134z"/>
		</g>
	</g>
	<g>
		<path fill="#3F496A" d="M816.5,1059.134h-214c-6.903,0-12.5-5.597-12.5-12.5v-244c0-6.904,5.597-12.5,12.5-12.5h214
			c6.903,0,12.5,5.596,12.5,12.5v244C829,1053.537,823.403,1059.134,816.5,1059.134z M615,1034.134h189v-219H615V1034.134z"/>
	</g>
	<g>
		<path fill="#3F496A" d="M1013,815.134H877c-6.903,0-12.5-5.596-12.5-12.5s5.597-12.5,12.5-12.5h136c6.903,0,12.5,5.596,12.5,12.5
			S1019.903,815.134,1013,815.134z"/>
	</g>
	<g>
		<path fill="#3F496A" d="M1013,896.134H877c-6.903,0-12.5-5.596-12.5-12.5s5.597-12.5,12.5-12.5h136c6.903,0,12.5,5.596,12.5,12.5
			S1019.903,896.134,1013,896.134z"/>
	</g>
	<g>
		<path fill="#3F496A" d="M1013,978.134H877c-6.903,0-12.5-5.596-12.5-12.5s5.597-12.5,12.5-12.5h136c6.903,0,12.5,5.596,12.5,12.5
			S1019.903,978.134,1013,978.134z"/>
	</g>
	<g>
		<path fill="#3F496A" d="M1013,1059.134H877c-6.903,0-12.5-5.597-12.5-12.5s5.597-12.5,12.5-12.5h136c6.903,0,12.5,5.597,12.5,12.5
			S1019.903,1059.134,1013,1059.134z"/>
	</g>
	<g>
		<path fill="#3F496A" d="M328.059,1186.134H65.479c-17.27,0-33.614-6.566-46.025-18.488C6.909,1155.595,0,1139.654,0,1122.759
			V623.581c0-34.434,29.374-62.448,65.479-62.448h262.579c17.27,0,33.501,6.384,45.705,17.975
			C386.169,590.891,393,606.685,393,623.581v499.177C393,1157.704,363.867,1186.134,328.059,1186.134z M65.479,586.134
			c-22.32,0-40.479,16.799-40.479,37.448v499.177c0,20.801,18.537,38.375,40.479,38.375h262.579
			c22.023,0,39.941-17.215,39.941-38.375V623.581c0-20.649-17.918-37.448-39.941-37.448H65.479z"/>
	</g>
	<g>
		<path fill="#3F496A" d="M305,925.134H88c-6.903,0-12.5-5.596-12.5-12.5s5.597-12.5,12.5-12.5h217c6.903,0,12.5,5.596,12.5,12.5
			S311.903,925.134,305,925.134z"/>
	</g>
	<g>
		<path fill="#3F496A" d="M305,1006.134H88c-6.903,0-12.5-5.596-12.5-12.5s5.597-12.5,12.5-12.5h217c6.903,0,12.5,5.596,12.5,12.5
			S311.903,1006.134,305,1006.134z"/>
	</g>
	<g>
		<path fill="#3F496A" d="M87.5,843.634c-6.903,0-12.5-5.596-12.5-12.5v-81.5c0-6.904,5.597-12.5,12.5-12.5h217
			c6.903,0,12.5,5.596,12.5,12.5v80.5c0,6.904-5.597,12.5-12.5,12.5s-12.5-5.596-12.5-12.5v-68H100v69
			C100,838.037,94.403,843.634,87.5,843.634z"/>
	</g>
	<g>
		<path fill="#3F496A" d="M304,843.134H88c-6.903,0-12.5-5.596-12.5-12.5s5.597-12.5,12.5-12.5h216c6.903,0,12.5,5.596,12.5,12.5
			S310.903,843.134,304,843.134z"/>
	</g>
	<g>
		<path fill="#3F496A" d="M375,688.134H18c-6.903,0-12.5-5.596-12.5-12.5s5.597-12.5,12.5-12.5h357c6.903,0,12.5,5.596,12.5,12.5
			S381.903,688.134,375,688.134z"/>
	</g>
	<g>
		<path fill="#3F496A" d="M375,1083.134H18c-6.903,0-12.5-5.597-12.5-12.5s5.597-12.5,12.5-12.5h357c6.903,0,12.5,5.597,12.5,12.5
			S381.903,1083.134,375,1083.134z"/>
	</g>
	<g>
		<path fill="#3F496A" d="M358.734,434.087c-80.317,0-145.66-65.343-145.66-145.659s65.343-145.659,145.66-145.659
			c4.08,0,8.177,0.173,12.26,0.516c10.319-41.765,47.9-71.9,92.071-71.9c14.201,0,28.054,3.139,40.702,9.158
			C517.31,58.3,535.886,39.44,558.07,25.525C584.692,8.826,615.449,0,647.017,0c90.144,0,163.896,71.532,167.487,160.81
			c6.789-1.043,13.669-1.568,20.583-1.568c74.262,0,134.678,60.416,134.678,134.677c0,36.465-12.548,70.978-35.333,97.182
			c-23.927,27.517-56.709,42.671-92.307,42.671c-30.162,0-124.996,0.072-225.398,0.148
			C508.682,434.002,396.959,434.087,358.734,434.087z M358.734,167.769c-66.532,0-120.66,54.127-120.66,120.659
			s54.128,120.659,120.66,120.659c38.215,0,149.934-0.085,257.974-0.167c100.406-0.076,195.245-0.148,225.417-0.148
			c57.555,0,102.64-50.449,102.64-114.853c0-60.476-49.201-109.677-109.678-109.677c-10.122,0-20.149,1.379-29.803,4.098
			c-3.889,1.094-8.059,0.246-11.207-2.278c-3.148-2.523-4.886-6.412-4.664-10.441c0.151-2.74,0.228-5.43,0.228-7.998
			C789.641,88.981,725.66,25,647.017,25c-54.057,0-102.834,29.981-127.296,78.243c-1.613,3.184-4.512,5.526-7.964,6.436
			c-3.449,0.91-7.128,0.3-10.101-1.674c-11.447-7.603-24.792-11.621-38.591-11.621c-35.699,0-65.553,26.717-69.44,62.145
			c-0.376,3.423-2.146,6.539-4.896,8.613c-2.748,2.074-6.232,2.924-9.624,2.347C372.389,168.347,365.535,167.769,358.734,167.769z"
			/>
	</g>
	<g>
		<path fill="#3F496A" d="M457.76,651.134H380c-6.903,0-12.5-5.596-12.5-12.5s5.597-12.5,12.5-12.5h77.76
			c16.422,0,28.034-6.509,35.501-19.898c5.241-9.398,6.527-18.909,6.739-20.814V421.134c0-6.904,5.597-12.5,12.5-12.5
			s12.5,5.596,12.5,12.5v164.88c0,0.312-0.012,0.624-0.035,0.935c-0.122,1.628-1.436,16.339-9.869,31.463
			C506.771,633.339,490.066,651.134,457.76,651.134z"/>
	</g>
	<g>
		<path fill="#3F496A" d="M828.5,698.634c-6.903,0-12.5-5.596-12.5-12.5v-111.56c0-8.354-2.933-12.249-5.14-14.452
			c-10.618-10.602-37.304-10.558-53.26-10.533c-2.883,0.005-5.614,0.009-8.102-0.036c-2.558,0.079-17.178,0.409-74.243-0.004
			c-27.884-0.202-48.777-7.507-62.1-21.714c-14.019-14.949-14.268-31.914-14.156-35.418v-71.283c0-6.904,5.597-12.5,12.5-12.5
			s12.5,5.596,12.5,12.5v71.527c0,0.335,0.01,0.347-0.013,0.626c-0.006,1.103,0.19,10.001,7.727,17.785
			c8.395,8.671,23.515,13.332,43.724,13.478c61.505,0.445,73,0.028,73.46,0.01c0.247-0.009,0.513-0.012,0.758-0.008
			c2.311,0.046,5.026,0.042,7.905,0.037c21.077-0.031,53.007-0.086,70.964,17.841c8.278,8.265,12.476,19.08,12.476,32.144v111.56
			C841,693.037,835.403,698.634,828.5,698.634z"/>
	</g>
</g>
</svg>
