<?xml version="1.0" encoding="iso-8859-1"?>
<!-- Generator: Adobe Illustrator 17.0.0, SVG Export Plug-In . SVG Version: 6.00 Build 0)  -->
<!DOCTYPE svg PUBLIC "-//W3C//DTD SVG 1.1//EN" "http://www.w3.org/Graphics/SVG/1.1/DTD/svg11.dtd">
<svg version="1.1" id="_x32_" xmlns="http://www.w3.org/2000/svg" xmlns:xlink="http://www.w3.org/1999/xlink" x="0px" y="0px"
	 width="343.145px" height="379.818px" viewBox="0 0 343.145 379.818" style="enable-background:new 0 0 343.145 379.818;"
	 xml:space="preserve">
<g>
	<polygon style="fill:#E0B986;" points="336.479,251.319 339.299,241.869 331.081,240.014 322.336,244.785 	"/>
	<path style="fill:#C3F4F3;" d="M342.158,283.625c1.029-2.058,1.267-4.629,0.651-7.161c-0.619-2.55-2.048-4.873-3.989-6.453
		l-31.595-25.741l-37.703,90.954l31.14,14.367c3.868,1.785,8.334,0.194,10.221-3.571L342.158,283.625z"/>
	<g style="opacity:0.2;">
		<path style="fill:#295C6C;" d="M326.843,260.254l-19.617-15.984l-37.703,90.954l31.14,14.367
			c2.067,0.954,29.43-79.938,29.891-82.011C330.722,266.813,329.109,263.876,326.843,260.254z"/>
	</g>
	<defs>
		<filter id="Adobe_OpacityMaskFilter" filterUnits="userSpaceOnUse" x="163.805" y="313.214" width="67.987" height="13.468">
			<feFlood  style="flood-color:white;flood-opacity:1" result="back"/>
			<feBlend  in="SourceGraphic" in2="back" mode="normal"/>
		</filter>
	</defs>
	<mask maskUnits="userSpaceOnUse" x="163.805" y="313.214" width="67.987" height="13.468" id="SVGID_1_">
		<g style="filter:url(#Adobe_OpacityMaskFilter);">
			<defs>
				<filter id="Adobe_OpacityMaskFilter_1_" filterUnits="userSpaceOnUse" x="163.805" y="313.214" width="67.987" height="13.468">
					<feFlood  style="flood-color:white;flood-opacity:1" result="back"/>
					<feBlend  in="SourceGraphic" in2="back" mode="normal"/>
				</filter>
			</defs>
			<mask maskUnits="userSpaceOnUse" x="163.805" y="313.214" width="67.987" height="13.468" id="SVGID_1_">
				<g style="filter:url(#Adobe_OpacityMaskFilter_1_);">
				</g>
			</mask>
			<linearGradient id="SVGID_2_" gradientUnits="userSpaceOnUse" x1="163.8051" y1="319.9476" x2="231.7919" y2="319.9476">
				<stop  offset="0" style="stop-color:#FFFFFF"/>
				<stop  offset="1" style="stop-color:#000000"/>
			</linearGradient>
			<path style="mask:url(#SVGID_1_);fill:url(#SVGID_2_);" d="M231.792,317.536c0-4.061-15.816-3.577-34.591-3.577
				c-18.773,0-33.396-2.473-33.396,1.589c0,4.063,14.822,11.134,33.596,11.134C216.175,326.682,231.792,321.599,231.792,317.536z"/>
		</g>
	</mask>
	<linearGradient id="SVGID_3_" gradientUnits="userSpaceOnUse" x1="163.8051" y1="319.9476" x2="231.7919" y2="319.9476">
		<stop  offset="0" style="stop-color:#C6F8FF"/>
		<stop  offset="1" style="stop-color:#D0FAFF"/>
	</linearGradient>
	<path style="opacity:0.6;fill:url(#SVGID_3_);" d="M231.792,317.536c0-4.061-15.816-3.577-34.591-3.577
		c-18.773,0-33.396-2.473-33.396,1.589c0,4.063,14.822,11.134,33.596,11.134C216.175,326.682,231.792,321.599,231.792,317.536z"/>
	<g style="opacity:0.4;">
		<polygon style="fill:#295C6C;" points="238.552,234.838 241.731,274.995 221.057,313.561 199.588,311.573 207.559,183.63 
			233.78,180.371 		"/>
	</g>
	<defs>
		<filter id="Adobe_OpacityMaskFilter_2_" filterUnits="userSpaceOnUse" x="221.985" y="163.805" width="47.974" height="139.947">
			<feFlood  style="flood-color:white;flood-opacity:1" result="back"/>
			<feBlend  in="SourceGraphic" in2="back" mode="normal"/>
		</filter>
	</defs>
	<mask maskUnits="userSpaceOnUse" x="221.985" y="163.805" width="47.974" height="139.947" id="SVGID_4_">
		<g style="filter:url(#Adobe_OpacityMaskFilter_2_);">
			<defs>
				
					<filter id="Adobe_OpacityMaskFilter_3_" filterUnits="userSpaceOnUse" x="221.985" y="163.805" width="47.974" height="139.947">
					<feFlood  style="flood-color:white;flood-opacity:1" result="back"/>
					<feBlend  in="SourceGraphic" in2="back" mode="normal"/>
				</filter>
			</defs>
			<mask maskUnits="userSpaceOnUse" x="221.985" y="163.805" width="47.974" height="139.947" id="SVGID_4_">
				<g style="filter:url(#Adobe_OpacityMaskFilter_3_);">
				</g>
			</mask>
			<linearGradient id="SVGID_5_" gradientUnits="userSpaceOnUse" x1="250.0909" y1="233.3842" x2="179.6815" y2="229.014">
				<stop  offset="0" style="stop-color:#FFFFFF"/>
				<stop  offset="1" style="stop-color:#000000"/>
			</linearGradient>
			<polygon style="mask:url(#SVGID_4_);fill:url(#SVGID_5_);" points="235.503,174.141 221.985,290.765 242.924,303.752 
				269.959,163.805 			"/>
		</g>
	</mask>
	<linearGradient id="SVGID_6_" gradientUnits="userSpaceOnUse" x1="250.0909" y1="233.3842" x2="179.6815" y2="229.014">
		<stop  offset="0" style="stop-color:#C6F8FF"/>
		<stop  offset="1" style="stop-color:#D0FAFF"/>
	</linearGradient>
	<polygon style="opacity:0.6;fill:url(#SVGID_6_);" points="235.503,174.141 221.985,290.765 242.924,303.752 269.959,163.805 	"/>
	<g style="opacity:0.4;">
		<path style="fill:#295C6C;" d="M207.559,183.63c29.287-4.007,52.091-11.055,62.533-19.294c0.198-1.236,0.2-2.726,0.398-3.978
			c-10.326,8.296-33.062,15.663-62.536,19.694c-26.315,3.6-47.578,3.409-60.982-0.476c-0.027,1.24,0.02,2.876,0,4.108
			C160.442,187.476,181.479,187.196,207.559,183.63z"/>
	</g>
	<g>
		<path style="fill:#CBFAFF;" d="M207.559,181.774c29.287-4.006,53.851-12.106,64.293-20.348c0.198-1.234,0.397-2.484,0.595-3.733
			c-10.324,8.293-35.019,16.472-64.492,20.503c-26.315,3.598-47.843,3.574-61.246-0.311c-0.027,1.24,0.518,2.346,0.497,3.578
			C160.674,185.255,181.479,185.341,207.559,181.774z"/>
	</g>
	
		<rect x="79.715" y="237.424" transform="matrix(0.9896 0.144 -0.144 0.9896 35.5748 -9.2391)" style="fill:#BCB49F;" width="3.777" height="7.354"/>
	<linearGradient id="SVGID_7_" gradientUnits="userSpaceOnUse" x1="195.8526" y1="202.3294" x2="231.8483" y2="209.6506">
		<stop  offset="0" style="stop-color:#F4F4E2"/>
		<stop  offset="0.9839" style="stop-color:#D9AD9C"/>
	</linearGradient>
	<path style="fill:url(#SVGID_7_);" d="M172.153,321.114c-22.661-17.492,33.797-9.939,33.797-9.939l34.192-223.442
		c0,0-5.964,71.963-83.891,43.338L172.153,321.114z"/>
	<g style="opacity:0.3;">
		<path style="fill:#295C6C;" d="M218.518,178.878c-14.067,4.051-27.031,0.47-35.128-7.044l-0.131-2.151
			c11.769,7.384,22.783,10.369,34.812,5.169L218.518,178.878z"/>
	</g>
	<g style="opacity:0.3;">
		<path style="fill:#295C6C;" d="M210.038,219.212c-14.556,1.561-26.708-4.204-33.384-13.003l0.24-2.141
			c10.319,9.305,20.65,14.147,33.398,11.1L210.038,219.212z"/>
	</g>
	<g style="opacity:0.3;">
		<path style="fill:#295C6C;" d="M207.918,231.934c-14.557,1.562-26.707-4.203-33.385-13.002l0.242-2.143
			c10.318,9.307,20.65,14.147,33.396,11.103L207.918,231.934z"/>
	</g>
	<g style="opacity:0.3;">
		<path style="fill:#295C6C;" d="M218.702,168.375c-14.067,4.05-27.031,0.47-35.128-7.042l-0.131-2.153
			c11.768,7.385,22.782,10.371,34.813,5.168L218.702,168.375z"/>
	</g>
	<g style="opacity:0.3;">
		<path style="fill:#295C6C;" d="M218.989,155.15c-14.066,4.05-27.031,0.47-35.126-7.043l-0.132-2.153
			c11.77,7.384,22.781,10.369,34.811,5.169L218.989,155.15z"/>
	</g>
	<g>
		<path style="fill:#BCB49F;" d="M216.324,260.436l-5.102-2.121l-12.102,30.911c-0.467,1.121-0.104,2.337,0.808,2.716l0.525,0.218
			c0.911,0.379,2.026-0.223,2.493-1.342L216.324,260.436z"/>
		<path style="fill:#CBFAFF;" d="M285.399,87.839l-0.546-0.228c-7.35-3.055-15.337-0.658-17.837,5.354l-56.706,155.148
			c-1.793,4.313-0.447,8.973,3.006,10.408l0.832,0.347c3.76,1.563,8.391-0.978,10.342-5.674l69.697-148.935
			C296.688,98.247,292.753,90.896,285.399,87.839z M291.455,104.58L223.89,251.442c-1.92,4.618-6.026,7.302-9.171,5.994
			l-0.696-0.291c-2.89-1.199-3.802-5.61-2.04-9.853l56.736-152.167c2.458-5.91,9.44-8.629,15.59-6.073l0.457,0.189
			C290.916,91.801,293.911,98.666,291.455,104.58z"/>
		<g>
			<defs>
				<filter id="Adobe_OpacityMaskFilter_4_" filterUnits="userSpaceOnUse" x="214.669" y="87.255" width="78.267" height="171.462">
					<feFlood  style="flood-color:white;flood-opacity:1" result="back"/>
					<feBlend  in="SourceGraphic" in2="back" mode="normal"/>
				</filter>
			</defs>
			<mask maskUnits="userSpaceOnUse" x="214.669" y="87.255" width="78.267" height="171.462" id="SVGID_8_">
				<g style="filter:url(#Adobe_OpacityMaskFilter_4_);">
					<defs>
						
							<filter id="Adobe_OpacityMaskFilter_5_" filterUnits="userSpaceOnUse" x="214.669" y="87.255" width="78.267" height="171.462">
							<feFlood  style="flood-color:white;flood-opacity:1" result="back"/>
							<feBlend  in="SourceGraphic" in2="back" mode="normal"/>
						</filter>
					</defs>
					<mask maskUnits="userSpaceOnUse" x="214.669" y="87.255" width="78.267" height="171.462" id="SVGID_8_">
						<g style="filter:url(#Adobe_OpacityMaskFilter_5_);">
						</g>
					</mask>
					<linearGradient id="SVGID_9_" gradientUnits="userSpaceOnUse" x1="295.5839" y1="169.0388" x2="261.1266" y2="171.9547">
						<stop  offset="0" style="stop-color:#FFFFFF"/>
						<stop  offset="1" style="stop-color:#000000"/>
					</linearGradient>
					<path style="mask:url(#SVGID_8_);fill:url(#SVGID_9_);" d="M223.677,252.355l68.401-148.488
						c2.485-5.978-0.611-12.949-6.916-15.57l-0.466-0.194c-1.023-0.423-2.068-0.695-3.11-0.847l-66.917,171.244
						C217.84,259.522,221.803,256.86,223.677,252.355z"/>
				</g>
			</mask>
			<linearGradient id="SVGID_10_" gradientUnits="userSpaceOnUse" x1="295.5839" y1="169.0388" x2="261.1266" y2="171.9547">
				<stop  offset="0" style="stop-color:#DEF8FF"/>
				<stop  offset="1" style="stop-color:#D0FAFF"/>
			</linearGradient>
			<path style="fill:url(#SVGID_10_);" d="M223.677,252.355l68.401-148.488c2.485-5.978-0.611-12.949-6.916-15.57l-0.466-0.194
				c-1.023-0.423-2.068-0.695-3.11-0.847l-66.917,171.244C217.84,259.522,221.803,256.86,223.677,252.355z"/>
		</g>
		<path style="fill:#FEFFDB;" d="M286.246,107.591c2.31-5.557,0.676-11.52-3.652-13.317l-0.321-0.134
			c-4.326-1.799-9.71,1.249-12.017,6.803l-54.64,142.467c-1.658,3.988-1.354,7.904,0.678,8.747l0.491,0.206
			c2.212,0.92,5.47-1.852,7.273-6.193L286.246,107.591z"/>
		<g>
			<path style="opacity:0.4;fill:#D39F71;" d="M270.256,100.943l-54.64,142.467c-1.658,3.988-1.354,7.904,0.678,8.747l0.491,0.206
				c0.328,0.137,0.681,0.169,1.047,0.149L276.04,94.515C273.65,95.682,271.504,97.941,270.256,100.943z"/>
		</g>
		<polygon style="fill:#BCB49F;" points="269.959,126.895 268.478,126.318 218.383,248.838 219.864,249.416 		"/>
		<circle style="fill:#FF7461;" cx="269.563" cy="125.9" r="2.982"/>
		<g style="opacity:0.4;">
			<path style="fill:#295C6C;" d="M214.925,259.855l-2.304-0.958l-11.818,29.236c-0.443,1.063-0.467,2.065-0.054,2.237l0.236,0.098
				c0.411,0.169,1.105-0.555,1.545-1.617L214.925,259.855z"/>
		</g>
		<path style="fill:#EFDDA5;" d="M220.461,257.501c-3.863,2.226-7.156,2.231-10.536-3.975l-5.199,16.642l7.779,3.233
			L220.461,257.501z"/>
	</g>
	<linearGradient id="SVGID_11_" gradientUnits="userSpaceOnUse" x1="201.211" y1="60.1537" x2="152.2899" y2="288.9776">
		<stop  offset="0" style="stop-color:#F4F4E2"/>
		<stop  offset="0.9839" style="stop-color:#D9AD9C"/>
	</linearGradient>
	<path style="fill:url(#SVGID_11_);" d="M194.816,59.106l1.987,261.611c0,0-25.577,9.807-32.336-6.894l-25.71-189.912
		C138.758,123.913,132.396,70.24,194.816,59.106z"/>
	<g style="opacity:0.4;">
		<path style="fill:#295C6C;" d="M145.184,179.228c-1.074,49.496,2.552,90.688,11.051,133.014
			c5.131,20.524,49.338,30.393,73.021,15.393c23.611-57.557,32.359-102.175,43.022-169.326
			C236.755,134.628,158.604,149.229,145.184,179.228z M227.775,321.34c-21.983,14.034-64.11,7.185-68.873-12.021
			c-7.889-39.604-11.599-81.444-10.602-127.757c12.456-28.069,88.953-41.506,121.925-19.348
			C260.326,225.046,249.689,267.483,227.775,321.34z"/>
	</g>
	<defs>
		<filter id="Adobe_OpacityMaskFilter_6_" filterUnits="userSpaceOnUse" x="182.491" y="271.681" width="2.651" height="6.099">
			<feFlood  style="flood-color:white;flood-opacity:1" result="back"/>
			<feBlend  in="SourceGraphic" in2="back" mode="normal"/>
		</filter>
	</defs>
	<mask maskUnits="userSpaceOnUse" x="182.491" y="271.681" width="2.651" height="6.099" id="SVGID_12_">
		<g style="filter:url(#Adobe_OpacityMaskFilter_6_);">
			<defs>
				<filter id="Adobe_OpacityMaskFilter_7_" filterUnits="userSpaceOnUse" x="182.491" y="271.681" width="2.651" height="6.099">
					<feFlood  style="flood-color:white;flood-opacity:1" result="back"/>
					<feBlend  in="SourceGraphic" in2="back" mode="normal"/>
				</filter>
			</defs>
			<mask maskUnits="userSpaceOnUse" x="182.491" y="271.681" width="2.651" height="6.099" id="SVGID_12_">
				<g style="filter:url(#Adobe_OpacityMaskFilter_7_);">
				</g>
			</mask>
			<linearGradient id="SVGID_13_" gradientUnits="userSpaceOnUse" x1="182.4912" y1="274.73" x2="185.1425" y2="274.73">
				<stop  offset="0" style="stop-color:#FFFFFF"/>
				<stop  offset="1" style="stop-color:#000000"/>
			</linearGradient>
			<path style="mask:url(#SVGID_12_);fill:url(#SVGID_13_);" d="M185.143,271.681l-2.651,6.099L185.143,271.681z"/>
		</g>
	</mask>
	<linearGradient id="SVGID_14_" gradientUnits="userSpaceOnUse" x1="182.4912" y1="274.73" x2="185.1425" y2="274.73">
		<stop  offset="0" style="stop-color:#DEF8FF"/>
		<stop  offset="1" style="stop-color:#D0FAFF"/>
	</linearGradient>
	<path style="fill:url(#SVGID_14_);" d="M185.143,271.681l-2.651,6.099L185.143,271.681z"/>
	<defs>
		<filter id="Adobe_OpacityMaskFilter_8_" filterUnits="userSpaceOnUse" x="175.6" y="157.442" width="6.891" height="120.337">
			<feFlood  style="flood-color:white;flood-opacity:1" result="back"/>
			<feBlend  in="SourceGraphic" in2="back" mode="normal"/>
		</filter>
	</defs>
	<mask maskUnits="userSpaceOnUse" x="175.6" y="157.442" width="6.891" height="120.337" id="SVGID_15_">
		<g style="filter:url(#Adobe_OpacityMaskFilter_8_);">
			<defs>
				<filter id="Adobe_OpacityMaskFilter_9_" filterUnits="userSpaceOnUse" x="175.6" y="157.442" width="6.891" height="120.337">
					<feFlood  style="flood-color:white;flood-opacity:1" result="back"/>
					<feBlend  in="SourceGraphic" in2="back" mode="normal"/>
				</filter>
			</defs>
			<mask maskUnits="userSpaceOnUse" x="175.6" y="157.442" width="6.891" height="120.337" id="SVGID_15_">
				<g style="filter:url(#Adobe_OpacityMaskFilter_9_);">
				</g>
			</mask>
			<linearGradient id="SVGID_16_" gradientUnits="userSpaceOnUse" x1="175.6005" y1="217.6109" x2="182.4912" y2="217.6109">
				<stop  offset="0" style="stop-color:#FFFFFF"/>
				<stop  offset="1" style="stop-color:#000000"/>
			</linearGradient>
			<path style="mask:url(#SVGID_15_);fill:url(#SVGID_16_);" d="M182.491,277.779L175.6,157.442L182.491,277.779z"/>
		</g>
	</mask>
	<linearGradient id="SVGID_17_" gradientUnits="userSpaceOnUse" x1="175.6005" y1="217.6109" x2="182.4912" y2="217.6109">
		<stop  offset="0" style="stop-color:#DEF8FF"/>
		<stop  offset="1" style="stop-color:#D0FAFF"/>
	</linearGradient>
	<path style="fill:url(#SVGID_17_);" d="M182.491,277.779L175.6,157.442L182.491,277.779z"/>
	<path style="fill:#CBFAFF;" d="M144.721,178.78c-1.082,49.856,2.571,91.349,11.131,133.984
		c5.169,20.676,49.699,30.614,73.553,15.506c23.784-57.977,32.596-102.923,43.337-170.563
		C236.96,133.852,158.239,148.563,144.721,178.78z M228.773,325.604c-23.131,14.649-66.303,5.013-71.314-15.033
		c-8.3-41.338-11.842-81.567-10.794-129.909c13.106-29.296,89.433-43.558,124.128-20.431
		C260.377,225.814,251.834,269.392,228.773,325.604z"/>
	<defs>
		<filter id="Adobe_OpacityMaskFilter_10_" filterUnits="userSpaceOnUse" x="215.227" y="146.376" width="21.337" height="135.377">
			<feFlood  style="flood-color:white;flood-opacity:1" result="back"/>
			<feBlend  in="SourceGraphic" in2="back" mode="normal"/>
		</filter>
	</defs>
	<mask maskUnits="userSpaceOnUse" x="215.227" y="146.376" width="21.337" height="135.377" id="SVGID_18_">
		<g style="filter:url(#Adobe_OpacityMaskFilter_10_);">
			<defs>
				
					<filter id="Adobe_OpacityMaskFilter_11_" filterUnits="userSpaceOnUse" x="215.227" y="146.376" width="21.337" height="135.377">
					<feFlood  style="flood-color:white;flood-opacity:1" result="back"/>
					<feBlend  in="SourceGraphic" in2="back" mode="normal"/>
				</filter>
			</defs>
			<mask maskUnits="userSpaceOnUse" x="215.227" y="146.376" width="21.337" height="135.377" id="SVGID_18_">
				<g style="filter:url(#Adobe_OpacityMaskFilter_11_);">
				</g>
			</mask>
			<linearGradient id="SVGID_19_" gradientUnits="userSpaceOnUse" x1="227.3434" y1="214.2785" x2="204.5981" y2="212.8668">
				<stop  offset="0" style="stop-color:#FFFFFF"/>
				<stop  offset="1" style="stop-color:#000000"/>
			</linearGradient>
			<polygon style="mask:url(#SVGID_18_);fill:url(#SVGID_19_);" points="232.586,146.376 215.227,281.754 220.527,263.995 
				236.563,146.662 			"/>
		</g>
	</mask>
	<linearGradient id="SVGID_20_" gradientUnits="userSpaceOnUse" x1="227.3434" y1="214.2785" x2="204.5981" y2="212.8668">
		<stop  offset="0" style="stop-color:#DEF8FF"/>
		<stop  offset="1" style="stop-color:#D0FAFF"/>
	</linearGradient>
	<polygon style="opacity:0.5;fill:url(#SVGID_20_);" points="232.586,146.376 215.227,281.754 220.527,263.995 236.563,146.662 	"/>
	<defs>
		<filter id="Adobe_OpacityMaskFilter_12_" filterUnits="userSpaceOnUse" x="145.509" y="152.54" width="53.283" height="176.924">
			<feFlood  style="flood-color:white;flood-opacity:1" result="back"/>
			<feBlend  in="SourceGraphic" in2="back" mode="normal"/>
		</filter>
	</defs>
	<mask maskUnits="userSpaceOnUse" x="145.509" y="152.54" width="53.283" height="176.924" id="SVGID_21_">
		<g style="filter:url(#Adobe_OpacityMaskFilter_12_);">
			<defs>
				
					<filter id="Adobe_OpacityMaskFilter_13_" filterUnits="userSpaceOnUse" x="145.509" y="152.54" width="53.283" height="176.924">
					<feFlood  style="flood-color:white;flood-opacity:1" result="back"/>
					<feBlend  in="SourceGraphic" in2="back" mode="normal"/>
				</filter>
			</defs>
			<mask maskUnits="userSpaceOnUse" x="145.509" y="152.54" width="53.283" height="176.924" id="SVGID_21_">
				<g style="filter:url(#Adobe_OpacityMaskFilter_13_);">
				</g>
			</mask>
			<linearGradient id="SVGID_22_" gradientUnits="userSpaceOnUse" x1="184.5866" y1="397.2628" x2="171.1323" y2="185.2265">
				<stop  offset="0" style="stop-color:#000000"/>
				<stop  offset="1" style="stop-color:#FFFFFF"/>
			</linearGradient>
			<path style="mask:url(#SVGID_21_);fill:url(#SVGID_22_);" d="M195.213,152.54l3.579,176.924c0,0-30.1-6.331-39.095-14.048
				c-3.082-2.643-18.035-130.964-13.252-136.24C151.225,173.901,169.77,154.528,195.213,152.54z"/>
		</g>
	</mask>
	<linearGradient id="SVGID_23_" gradientUnits="userSpaceOnUse" x1="184.5866" y1="397.2628" x2="171.1323" y2="185.2265">
		<stop  offset="0" style="stop-color:#DEF8FF"/>
		<stop  offset="1" style="stop-color:#00B8A5"/>
	</linearGradient>
	<path style="opacity:0.4;fill:url(#SVGID_23_);" d="M195.213,152.54l3.579,176.924c0,0-30.1-6.331-39.095-14.048
		c-3.082-2.643-18.035-130.964-13.252-136.24C151.225,173.901,169.77,154.528,195.213,152.54z"/>
	<defs>
		<filter id="Adobe_OpacityMaskFilter_14_" filterUnits="userSpaceOnUse" x="180.106" y="151.884" width="55.131" height="182.086">
			<feFlood  style="flood-color:white;flood-opacity:1" result="back"/>
			<feBlend  in="SourceGraphic" in2="back" mode="normal"/>
		</filter>
	</defs>
	<mask maskUnits="userSpaceOnUse" x="180.106" y="151.884" width="55.131" height="182.086" id="SVGID_24_">
		<g style="filter:url(#Adobe_OpacityMaskFilter_14_);">
			<defs>
				
					<filter id="Adobe_OpacityMaskFilter_15_" filterUnits="userSpaceOnUse" x="180.106" y="151.884" width="55.131" height="182.086">
					<feFlood  style="flood-color:white;flood-opacity:1" result="back"/>
					<feBlend  in="SourceGraphic" in2="back" mode="normal"/>
				</filter>
			</defs>
			<mask maskUnits="userSpaceOnUse" x="180.106" y="151.884" width="55.131" height="182.086" id="SVGID_24_">
				<g style="filter:url(#Adobe_OpacityMaskFilter_15_);">
				</g>
			</mask>
			<linearGradient id="SVGID_25_" gradientUnits="userSpaceOnUse" x1="207.494" y1="166.116" x2="205.4206" y2="281.1758">
				<stop  offset="0" style="stop-color:#FFFFFF"/>
				<stop  offset="1" style="stop-color:#000000"/>
			</linearGradient>
			<path style="mask:url(#SVGID_24_);fill:url(#SVGID_25_);" d="M235.237,152.142c-24.65-1.061-45.854,1.061-55.131,8.216
				l5.964,170.3c9.005,2.646,16.123,5.706,24.252,0.397L235.237,152.142z"/>
		</g>
	</mask>
	<linearGradient id="SVGID_26_" gradientUnits="userSpaceOnUse" x1="207.494" y1="166.116" x2="205.4206" y2="281.1758">
		<stop  offset="0" style="stop-color:#C6F8FF"/>
		<stop  offset="1" style="stop-color:#D0FAFF"/>
	</linearGradient>
	<path style="opacity:0.6;fill:url(#SVGID_26_);" d="M235.237,152.142c-24.65-1.061-45.854,1.061-55.131,8.216l5.964,170.3
		c9.005,2.646,16.123,5.706,24.252,0.397L235.237,152.142z"/>
	<defs>
		<filter id="Adobe_OpacityMaskFilter_16_" filterUnits="userSpaceOnUse" x="147.091" y="166.256" width="14.329" height="143.927">
			<feFlood  style="flood-color:white;flood-opacity:1" result="back"/>
			<feBlend  in="SourceGraphic" in2="back" mode="normal"/>
		</filter>
	</defs>
	<mask maskUnits="userSpaceOnUse" x="147.091" y="166.256" width="14.329" height="143.927" id="SVGID_27_">
		<g style="filter:url(#Adobe_OpacityMaskFilter_16_);">
			<defs>
				
					<filter id="Adobe_OpacityMaskFilter_17_" filterUnits="userSpaceOnUse" x="147.091" y="166.256" width="14.329" height="143.927">
					<feFlood  style="flood-color:white;flood-opacity:1" result="back"/>
					<feBlend  in="SourceGraphic" in2="back" mode="normal"/>
				</filter>
			</defs>
			<mask maskUnits="userSpaceOnUse" x="147.091" y="166.256" width="14.329" height="143.927" id="SVGID_27_">
				<g style="filter:url(#Adobe_OpacityMaskFilter_17_);">
				</g>
			</mask>
			<linearGradient id="SVGID_28_" gradientUnits="userSpaceOnUse" x1="147.0907" y1="238.2193" x2="161.4194" y2="238.2193">
				<stop  offset="0" style="stop-color:#FFFFFF"/>
				<stop  offset="0.3726" style="stop-color:#FDFDFD"/>
				<stop  offset="0.5069" style="stop-color:#F6F6F6"/>
				<stop  offset="0.6026" style="stop-color:#EBEBEB"/>
				<stop  offset="0.68" style="stop-color:#DADADA"/>
				<stop  offset="0.7463" style="stop-color:#C4C4C4"/>
				<stop  offset="0.805" style="stop-color:#A8A8A8"/>
				<stop  offset="0.8581" style="stop-color:#888888"/>
				<stop  offset="0.9069" style="stop-color:#626262"/>
				<stop  offset="0.9523" style="stop-color:#373737"/>
				<stop  offset="0.9926" style="stop-color:#090909"/>
				<stop  offset="1" style="stop-color:#000000"/>
			</linearGradient>
			<path style="mask:url(#SVGID_27_);fill:url(#SVGID_28_);" d="M161.021,166.256c0,0-3.975,123.649,0.398,143.927
				c0,0-19.171-97.222-13.163-130.513C148.256,179.67,155.456,168.244,161.021,166.256z"/>
		</g>
	</mask>
	<linearGradient id="SVGID_29_" gradientUnits="userSpaceOnUse" x1="147.0907" y1="238.2193" x2="161.4194" y2="238.2193">
		<stop  offset="0" style="stop-color:#DEF8FF"/>
		<stop  offset="0.6676" style="stop-color:#DCF8FF"/>
		<stop  offset="0.9078" style="stop-color:#D5F9FF"/>
		<stop  offset="1" style="stop-color:#D0FAFF"/>
	</linearGradient>
	<path style="opacity:0.5;fill:url(#SVGID_29_);" d="M161.021,166.256c0,0-3.975,123.649,0.398,143.927
		c0,0-19.171-97.222-13.163-130.513C148.256,179.67,155.456,168.244,161.021,166.256z"/>
	<g>
		<path style="fill:#CEBB67;" d="M339.108,153.654c0.458-0.419,1.978-1.661,1.855-2.294c-1.231-6.288-15.476-16.657-22.748-19.043
			c-1.956-0.643-2.043,1.28-2.802,2.169C313.127,142.124,332.6,156.153,339.108,153.654z"/>
		<path style="fill:#FCF2C8;" d="M340.965,151.365c1.598-7.159-17.537-21.607-23.696-19.172
			C314.983,139.829,334.455,153.861,340.965,151.365z"/>
		<g style="opacity:0.7;">
			<path style="opacity:0.4;fill:#FCF2C8;" d="M316.733,132.451c-0.613,0.468-0.83,1.462-1.319,2.036
				c-0.994,3.322,2.128,7.848,6.508,11.706l1.518-1.906C318.975,140.412,315.756,135.818,316.733,132.451z"/>
		</g>
		<g style="opacity:0.7;">
			<path style="opacity:0.4;fill:#FCF2C8;" d="M326.416,149.458l1.536-1.889c4.293,3.205,9.759,5.323,12.871,4.227
				c-0.324,0.537-1.037,1.383-1.826,1.873C336.182,154.866,330.371,152.37,326.416,149.458z"/>
		</g>
		<path style="fill:#CEBB67;" d="M326.1,134.276l2.95,13.549c1.689,1.062,3.401,1.961,5.026,2.621l-2.793-12.831
			C329.586,136.339,327.817,135.196,326.1,134.276z"/>
	</g>
	<g>
		<g style="opacity:0.4;">
			<path style="fill:#295C6C;" d="M157.459,310.571c-8.3-41.338-11.842-81.567-10.794-129.909
				c4.783-10.689,17.984-19.374,34.505-24.973c-0.567-0.812-1.137-1.6-1.705-2.384c-16.646,5.785-29.894,14.631-34.744,25.474
				c-1.082,49.856,2.571,91.349,11.131,133.984c4.854,19.41,44.391,29.355,68.952,18c0.127-1.038,0.241-2.094,0.349-3.159
				C201.412,339.248,162.22,329.615,157.459,310.571z"/>
		</g>
	</g>
	<path style="fill:#D39F71;" d="M139.423,304.59c-6.278-2.758-11.279-1.037-18.045,3.207l-1.48-8.317
		c5.724-5.263,9.879-7.512,18.045-3.206L139.423,304.59z"/>
	<path style="fill:#455D87;" d="M236.563,337.945c-46.453,43.291-83.775,51.895-97.207-13.811
		c-9.804-47.949,11.07-97.613,44.726-154.499c5.964-9.144-8.351-22.265-18.289-7.555c-20.312,37.285-30.827,75.539-35.52,112.461
		c-0.151,1.191-1.105,2.12-2.3,2.237c-1.197,0.116-2.314-0.608-2.693-1.748c-10.59-31.863-20.255-52.61-45.565-84.523
		c-4.375-3.579-11.728,2.188-11.331,8.548c23.855,32.801,38.498,50.095,47.311,80.511c20.631,71.193,33.929,149.292,126.965,60.764
		L236.563,337.945z"/>
	<g>
		<path style="opacity:0.4;fill:#B6F2EC;" d="M138.229,256.31c-11.691,50.096-0.319,95.725,16.378,104.916
			c-6.549-7.724-11.724-19.844-15.25-37.091c-9.804-47.949,11.07-97.613,44.726-154.499c0.517-0.792,0.872-1.617,1.101-2.446
			C168.118,177.777,148.189,213.62,138.229,256.31z"/>
	</g>
	<g>
		<path style="opacity:0.6;fill:#B6F2EC;" d="M125.985,276.069c-0.305-0.286-0.566-0.621-0.705-1.039
			c-10.59-31.863-20.255-52.61-45.565-84.523c-1.082-0.886-2.344-1.195-3.626-1.069c13.79,22.497,38.151,55.056,47.559,88.736
			C124.098,279.782,124.979,278.862,125.985,276.069z"/>
	</g>
	<path style="fill:#FFE5CF;" d="M138.145,297.411c-5.136,4.073-10.463,4.342-18.275,3.249l1.205,6.785
		c7.135,2.194,11.82,2.594,18.276-3.249L138.145,297.411z"/>
	<path style="fill:#C3F4F3;" d="M0,323.897c0,0,18.832-78.789,25.949-85.921l99.78,9.317c0,0-6.366,78.731-10.704,85.579L0,323.897z
		"/>
	<path style="opacity:0.4;fill:#FEFFDB;" d="M28.495,239.346c0,0,84.022,63.876,84.816,82.43c0,0,0.53,5.303,0.796,7.689
		c0.266,2.385,9.807-69.444,8.481-78.191L28.495,239.346z"/>
	<g style="opacity:0.4;">
		<polygon style="fill:#295C6C;" points="126.248,246.811 25.298,238.436 23.454,243.082 125.387,251.982 		"/>
	</g>
	<polygon style="fill:#FFE5CF;" points="127.163,245.933 24.518,237.357 22.694,241.486 126.344,250.538 	"/>
	<path style="fill:#BCB49F;" d="M90.636,227.768c0.442-2.97-2.98-7.463-5.95-7.905l-1.498,1.304
		c-2.722-0.404-5.255,1.473-5.659,4.195l-5.367,10.67l2.385,1.987l14.375,1.284L90.636,227.768z"/>
	<path style="fill:#FFE5CF;" d="M88.45,225.581c0.441-2.969-1.608-5.732-4.576-6.175l-2.872-0.427
		c-2.722-0.403-5.254,1.475-5.658,4.196l-2.983,12.657l14.376,1.284L88.45,225.581z"/>
	<g>
		<path style="fill:#C98F67;" d="M113.977,132.825c-0.434-0.331-0.87-1.178-1.361-1.092c-7.001,1.223-13.997,16.439-12.853,24.98
			c0.229,0.298,0.562,0.729,1.327,1.15C109.805,156.426,118.963,140.404,113.977,132.825z"/>
		<path style="fill:#FFD0B0;" d="M112.639,131.681c-8.351-0.653-17.767,16.374-12.889,25.037
			C108.168,155.128,117.292,139.089,112.639,131.681z"/>
		<path style="opacity:0.8;fill:#C98F67;" d="M109.66,135.622c-1.312,0.527-4.418,2.723-4.418,2.723l-1.032,2.621l-3.756,9.919
			l2.65-1.339l1.921-5.689c0,0,4.447-2.338,5.381-5.277C111.34,135.641,110.972,135.094,109.66,135.622z M105.647,141.904
			l0.944-3.093C110.943,135.264,108.653,140.418,105.647,141.904z"/>
	</g>
	<g>
		<g>
			<path style="fill:#F9EFC5;" d="M289.257,183.989c0.245,2.32,2.324,4.002,4.645,3.757l2.232-0.236
				c1.114-0.118,2.137-0.673,2.841-1.545c0.705-0.871,1.035-1.986,0.917-3.101l-1.513-14.31c-0.245-2.32-2.325-4.003-4.646-3.757
				l-2.232,0.236c-2.32,0.245-4.003,2.325-3.758,4.645L289.257,183.989z"/>
			<g>
				<path style="fill:#71A0F4;" d="M298.38,168.554c-0.247-2.321-2.327-4.003-4.645-3.756l-2.231,0.236
					c-2.322,0.243-4.004,2.324-3.757,4.645l0.733,6.957l10.635-1.123L298.38,168.554z"/>
			</g>
		</g>
		<g style="opacity:0.4;">
			<path style="fill:#7A5400;" d="M291.504,165.034c-1.887,0.199-3.352,1.609-3.702,3.375c-0.082,0.409-0.103,0.835-0.057,1.271
				l1.512,14.31c0.118,1.114,0.674,2.136,1.543,2.839c0.872,0.708,1.986,1.037,3.102,0.92l1.275-0.136l-2.392-22.714
				L291.504,165.034z"/>
		</g>
		<defs>
			<filter id="Adobe_OpacityMaskFilter_18_" filterUnits="userSpaceOnUse" x="288.39" y="166.037" width="10.857" height="20.471">
				<feFlood  style="flood-color:white;flood-opacity:1" result="back"/>
				<feBlend  in="SourceGraphic" in2="back" mode="normal"/>
			</filter>
		</defs>
		<mask maskUnits="userSpaceOnUse" x="288.39" y="166.037" width="10.857" height="20.471" id="SVGID_30_">
			<g style="filter:url(#Adobe_OpacityMaskFilter_18_);">
				<defs>
					
						<filter id="Adobe_OpacityMaskFilter_19_" filterUnits="userSpaceOnUse" x="288.39" y="166.037" width="10.857" height="20.471">
						<feFlood  style="flood-color:white;flood-opacity:1" result="back"/>
						<feBlend  in="SourceGraphic" in2="back" mode="normal"/>
					</filter>
				</defs>
				<mask maskUnits="userSpaceOnUse" x="288.39" y="166.037" width="10.857" height="20.471" id="SVGID_30_">
					<g style="filter:url(#Adobe_OpacityMaskFilter_19_);">
					</g>
				</mask>
				
					<linearGradient id="SVGID_31_" gradientUnits="userSpaceOnUse" x1="367.8546" y1="61.2884" x2="376.51" y2="50.8528" gradientTransform="matrix(0.8262 0.5634 -0.5634 0.8262 15.5655 -79.0665)">
					<stop  offset="0" style="stop-color:#FFFFFF"/>
					<stop  offset="1" style="stop-color:#000000"/>
				</linearGradient>
				<path style="mask:url(#SVGID_30_);fill:url(#SVGID_31_);" d="M299.225,182.142l-0.695-6.546l0,0l-0.653-6.194
					c-0.217-2.066-2.068-3.563-4.134-3.344l-1.985,0.211c-1.68,0.175-2.984,1.431-3.296,3.004c-0.073,0.363-0.092,0.743-0.051,1.131
					l1.347,12.737c0.103,0.993,0.598,1.902,1.374,2.528c0.775,0.628,1.768,0.923,2.761,0.817l1.987-0.211
					C297.943,186.06,299.442,184.208,299.225,182.142z"/>
			</g>
		</mask>
		
			<linearGradient id="SVGID_32_" gradientUnits="userSpaceOnUse" x1="367.8546" y1="61.2884" x2="376.51" y2="50.8528" gradientTransform="matrix(0.8262 0.5634 -0.5634 0.8262 15.5655 -79.0665)">
			<stop  offset="0" style="stop-color:#FFD069"/>
			<stop  offset="1" style="stop-color:#56F9FF"/>
		</linearGradient>
		<path style="fill:url(#SVGID_32_);" d="M299.225,182.142l-0.695-6.546l0,0l-0.653-6.194c-0.217-2.066-2.068-3.563-4.134-3.344
			l-1.985,0.211c-1.68,0.175-2.984,1.431-3.296,3.004c-0.073,0.363-0.092,0.743-0.051,1.131l1.347,12.737
			c0.103,0.993,0.598,1.902,1.374,2.528c0.775,0.628,1.768,0.923,2.761,0.817l1.987-0.211
			C297.943,186.06,299.442,184.208,299.225,182.142z"/>
		<defs>
			<filter id="Adobe_OpacityMaskFilter_20_" filterUnits="userSpaceOnUse" x="294.471" y="166.425" width="2.635" height="5.187">
				<feFlood  style="flood-color:white;flood-opacity:1" result="back"/>
				<feBlend  in="SourceGraphic" in2="back" mode="normal"/>
			</filter>
		</defs>
		<mask maskUnits="userSpaceOnUse" x="294.471" y="166.425" width="2.635" height="5.187" id="SVGID_33_">
			<g style="filter:url(#Adobe_OpacityMaskFilter_20_);">
				<defs>
					<filter id="Adobe_OpacityMaskFilter_21_" filterUnits="userSpaceOnUse" x="294.471" y="166.425" width="2.635" height="5.187">
						<feFlood  style="flood-color:white;flood-opacity:1" result="back"/>
						<feBlend  in="SourceGraphic" in2="back" mode="normal"/>
					</filter>
				</defs>
				<mask maskUnits="userSpaceOnUse" x="294.471" y="166.425" width="2.635" height="5.187" id="SVGID_33_">
					<g style="filter:url(#Adobe_OpacityMaskFilter_21_);">
					</g>
				</mask>
				
					<linearGradient id="SVGID_34_" gradientUnits="userSpaceOnUse" x1="372.2435" y1="44.7946" x2="368.0393" y2="54.687" gradientTransform="matrix(0.8262 0.5634 -0.5634 0.8262 15.5655 -79.0665)">
					<stop  offset="0" style="stop-color:#FFFFFF"/>
					<stop  offset="1" style="stop-color:#000000"/>
				</linearGradient>
				<path style="mask:url(#SVGID_33_);fill:url(#SVGID_34_);" d="M297.104,170.735l-0.108-1.508l0,0l-0.115-1.587
					c-0.042-0.566-0.486-1.089-1.012-1.149l-0.52-0.061c-0.457-0.053-0.807,0.245-0.869,0.698c-0.012,0.104-0.014,0.213,0.004,0.329
					l0.501,3.357c0.032,0.23,0.159,0.444,0.344,0.592c0.183,0.146,0.406,0.218,0.627,0.203l0.43-0.028
					C296.819,171.552,297.135,171.18,297.104,170.735z"/>
			</g>
		</mask>
		
			<linearGradient id="SVGID_35_" gradientUnits="userSpaceOnUse" x1="372.2435" y1="44.7946" x2="368.0393" y2="54.687" gradientTransform="matrix(0.8262 0.5634 -0.5634 0.8262 15.5655 -79.0665)">
			<stop  offset="0" style="stop-color:#FFCBEB"/>
			<stop  offset="1" style="stop-color:#FFFEAD"/>
		</linearGradient>
		<path style="opacity:0.6;fill:url(#SVGID_35_);" d="M297.104,170.735l-0.108-1.508l0,0l-0.115-1.587
			c-0.042-0.566-0.486-1.089-1.012-1.149l-0.52-0.061c-0.457-0.053-0.807,0.245-0.869,0.698c-0.012,0.104-0.014,0.213,0.004,0.329
			l0.501,3.357c0.032,0.23,0.159,0.444,0.344,0.592c0.183,0.146,0.406,0.218,0.627,0.203l0.43-0.028
			C296.819,171.552,297.135,171.18,297.104,170.735z"/>
	</g>
	<path style="fill:#2F4666;" d="M301.765,217.875l-2.13-7.643c-143.565,14.214-186.918,98.557-146.515,88.27
		c-0.546-3.28-0.695-4.474-1.541-9.195C131.948,296.894,191.834,225.695,301.765,217.875z"/>
	<g>
		<path style="fill:#455D87;" d="M152.475,297.26c-37.622,3.565,34.648-73.89,148.326-82.842l-1.166-4.186
			c-142.777,14.136-186.425,97.616-147.159,88.415C152.548,298.235,152.565,297.784,152.475,297.26z"/>
	</g>
	
		<rect x="88.396" y="253.394" transform="matrix(0.9946 0.1036 -0.1036 0.9946 28.8236 -9.2132)" style="fill:#CBFAFF;" width="29.421" height="38.963"/>
	<g style="opacity:0.4;">
		<path style="fill:#295C6C;" d="M41.747,248.887c-8.104-0.584-15.71,5.223-16.991,12.97c-1.281,7.749,4.251,14.502,12.353,15.089
			c8.104,0.584,15.711-5.223,16.992-12.971C55.381,256.228,49.85,249.472,41.747,248.887z M51.892,263.815
			c-1.087,6.582-7.549,11.514-14.432,11.018c-6.882-0.498-11.581-6.235-10.493-12.816c1.086-6.579,7.548-11.513,14.431-11.016
			C48.281,251.497,52.979,257.236,51.892,263.815z"/>
	</g>
	<g style="opacity:0.4;">
		<polygon style="fill:#295C6C;" points="48.615,259.192 44.512,259.019 45.329,255.073 36.855,254.717 36.037,258.663 
			31.933,258.491 30.242,266.642 34.348,266.813 33.529,270.761 42.002,271.116 42.821,267.168 46.925,267.34 		"/>
	</g>
	
		<ellipse transform="matrix(0.8843 0.4669 -0.4669 0.8843 192.3404 -105.22)" style="opacity:0.9;fill:#FFFFFF;" cx="308.486" cy="335.5" rx="4.121" ry="8.944"/>
	<g style="opacity:0.2;">
		
			<ellipse transform="matrix(0.8843 0.467 -0.467 0.8843 191.4228 -104.1733)" style="fill:#295C6C;" cx="305.893" cy="334.13" rx="3.758" ry="8.392"/>
	</g>
	<path style="opacity:0.6;fill:#FFFFFF;" d="M312.168,337.354c1.449-2.751,1.572-5.536,0.272-6.223
		c-1.303-0.688-3.535,0.982-4.988,3.732c-1.454,2.749-1.575,5.534-0.273,6.223C308.479,341.774,310.715,340.102,312.168,337.354z"/>
	<linearGradient id="SVGID_36_" gradientUnits="userSpaceOnUse" x1="304.1547" y1="351.3726" x2="319.0314" y2="334.9234">
		<stop  offset="0" style="stop-color:#F4F4E2"/>
		<stop  offset="0.9839" style="stop-color:#D9AD9C"/>
	</linearGradient>
	<path style="fill:url(#SVGID_36_);" d="M330.949,348.819c0,0-2.915,4.109-2.119,9.676l-32.867-32.471L330.949,348.819z"/>
	<linearGradient id="SVGID_37_" gradientUnits="userSpaceOnUse" x1="331.9156" y1="349.1088" x2="276.7843" y2="348.8433">
		<stop  offset="0" style="stop-color:#F4F4E2"/>
		<stop  offset="0.9839" style="stop-color:#D9AD9C"/>
	</linearGradient>
	<path style="fill:url(#SVGID_37_);" d="M296.359,325.362l37.373,34.457c0,0-11.927,19.879-24.385,10.072
		c-12.458-9.806-32.072-26.77-32.072-26.77L296.359,325.362z"/>
	<g>
		<polygon style="fill:#5E3526;" points="259.123,212.857 246.468,208.938 217.393,331.441 275.784,350.8 286.938,352.171 		"/>
		<g>
			<polygon style="fill:#A88F6A;" points="257.917,212.037 246.468,208.938 230.974,274.217 270.152,288.508 			"/>
		</g>
		<defs>
			
				<filter id="Adobe_OpacityMaskFilter_22_" filterUnits="userSpaceOnUse" x="217.393" y="244.727" width="70.347" height="107.489">
				<feFlood  style="flood-color:white;flood-opacity:1" result="back"/>
				<feBlend  in="SourceGraphic" in2="back" mode="normal"/>
			</filter>
		</defs>
		<mask maskUnits="userSpaceOnUse" x="217.393" y="244.727" width="70.347" height="107.489" id="SVGID_38_">
			<g style="filter:url(#Adobe_OpacityMaskFilter_22_);">
				<defs>
					
						<filter id="Adobe_OpacityMaskFilter_23_" filterUnits="userSpaceOnUse" x="217.393" y="244.727" width="70.347" height="107.489">
						<feFlood  style="flood-color:white;flood-opacity:1" result="back"/>
						<feBlend  in="SourceGraphic" in2="back" mode="normal"/>
					</filter>
				</defs>
				<mask maskUnits="userSpaceOnUse" x="217.393" y="244.727" width="70.347" height="107.489" id="SVGID_38_">
					<g style="filter:url(#Adobe_OpacityMaskFilter_23_);">
					</g>
				</mask>
				
					<linearGradient id="SVGID_39_" gradientUnits="userSpaceOnUse" x1="190.7395" y1="316.1878" x2="258.391" y2="316.1878" gradientTransform="matrix(0.994 -0.1094 0.1094 0.994 -9.8316 10.4053)">
					<stop  offset="0" style="stop-color:#FFFFFF"/>
					<stop  offset="1" style="stop-color:#000000"/>
				</linearGradient>
				<polygon style="mask:url(#SVGID_38_);fill:url(#SVGID_39_);" points="245.85,262.298 238.314,244.727 217.393,331.441 
					274.98,350.153 287.74,352.217 				"/>
			</g>
		</mask>
		
			<linearGradient id="SVGID_40_" gradientUnits="userSpaceOnUse" x1="190.7395" y1="316.1878" x2="258.391" y2="316.1878" gradientTransform="matrix(0.994 -0.1094 0.1094 0.994 -9.8316 10.4053)">
			<stop  offset="0" style="stop-color:#FFFB92"/>
			<stop  offset="1" style="stop-color:#D0FAFF"/>
		</linearGradient>
		<polygon style="opacity:0.6;fill:url(#SVGID_40_);" points="245.85,262.298 238.314,244.727 217.393,331.441 274.98,350.153 
			287.74,352.217 		"/>
		<polygon style="fill:#D39F71;" points="336.479,251.319 257.887,211.711 228.649,333.186 287.159,352.084 		"/>
		<g>
			<polygon style="fill:#FFECC8;" points="336.479,251.319 258.735,213.414 241.908,278.099 311.1,303.17 			"/>
		</g>
		<polygon style="opacity:0.4;fill:#FFECC8;" points="246.507,208.894 248.615,221.995 257.917,212.037 		"/>
		<polygon style="opacity:0.4;fill:#D39F71;" points="217.689,331.125 225.267,321.228 228.182,333.172 		"/>
	</g>
	
		<rect x="77.264" y="223.376" transform="matrix(0.9956 0.0938 -0.0938 0.9956 21.3849 -6.651)" style="fill:#BCB49F;" width="8.284" height="1.324"/>
	
		<rect x="76.801" y="226.423" transform="matrix(0.9956 0.0937 -0.0937 0.9956 21.6446 -6.5878)" style="fill:#BCB49F;" width="8.282" height="1.325"/>
	
		<rect x="76.336" y="229.936" transform="matrix(0.9956 0.0937 -0.0937 0.9956 21.9667 -6.5276)" style="fill:#BCB49F;" width="8.284" height="1.324"/>
	<polygon style="opacity:0.6;fill:#FEFFDB;" points="258.72,214.304 310.145,302.303 334.793,251.941 	"/>
	<polygon style="opacity:0.2;fill:#FEFFDB;" points="246.528,264.134 286.553,350.542 230.891,331.988 	"/>
	<path style="fill:#567771;" d="M299.254,214.056c1.462,11.433,20.129,13.574,23.881,3.081
		C322.747,205.029,304.558,202.953,299.254,214.056z"/>
	<path style="fill:#9AE2D7;" d="M292.214,202.818c2.453,18.927,33.55,22.496,39.784,5.139
		C331.327,187.915,301.031,184.448,292.214,202.818z"/>
	<path style="opacity:0.4;fill:#567771;" d="M293.74,202.975c2.265,17.48,30.987,20.775,36.741,4.75
		C329.865,189.213,301.883,186.014,293.74,202.975z"/>
	<path style="opacity:0.4;fill:#567771;" d="M300.637,203.691c1.419,10.938,19.393,13.001,22.996,2.971
		C323.247,195.076,305.735,193.072,300.637,203.691z"/>
	<path style="opacity:0.6;fill:#B6F2EC;" d="M294.873,202.843c10.395,2.825,19.574-0.189,34.559,4.467
		C328.849,189.9,302.531,186.89,294.873,202.843z"/>
	<path style="opacity:0.8;fill:#D7FFFA;" d="M293.74,202.975c2.077-4.315,5.438-7.324,9.305-9.108
		c-0.733-0.086-1.471-0.145-2.212-0.172c-3.571,1.985-6.639,4.997-8.619,9.124c1.895,14.621,20.876,20.065,32.29,13.79
		c0.044-0.507,0.06-1.005,0.065-1.501C314.183,221.826,295.549,216.92,293.74,202.975z"/>
	<path style="opacity:0.6;fill:#567771;" d="M312.841,202.835c-1.926-0.166-3.577,0.745-3.692,2.041
		c-0.113,1.295,1.361,2.483,3.289,2.649c1.927,0.166,3.581-0.747,3.693-2.045C316.244,204.189,314.772,203.001,312.841,202.835z"/>
	
		<ellipse transform="matrix(0.8778 0.479 -0.479 0.8778 132.7996 -131.3268)" style="fill:#B6F2EC;" cx="323.808" cy="194.631" rx="3.049" ry="0.661"/>
	<path style="fill:#B6F2EC;" d="M321.273,200.119c0.176-0.319-0.881-1.232-2.358-2.04c-1.477-0.806-2.818-1.2-2.994-0.881
		c-0.172,0.319,0.884,1.231,2.362,2.039C319.761,200.044,321.1,200.439,321.273,200.119z"/>
	<polygon style="opacity:0.4;fill:#FEFFDB;" points="12.592,277.514 60.036,327.873 0.664,322.043 	"/>
	<g>
		<path style="fill:#65A09A;" d="M70.373,196.074c2.694,3.457,8.964-0.469,5.958-4.68C23.06,116.756,27.019,91.41,59.692,61.459
			c1.751-7.665,0.402-12.332-5.234-15.32C17.79,79.866,7.415,115.287,70.373,196.074z"/>
		<g>
			<path style="opacity:0.8;fill:#D7FFFA;" d="M76.337,191.502c1.789,1.988,0.198,4.771-0.2,3.976
				C3.579,95.685,39.422,86.612,53.278,62.686c0.384,2.342,0.472,3.807-0.398,7.156C15.985,102.909,42.94,141.208,76.337,191.502z"
				/>
		</g>
		<path style="fill:#455D87;" d="M39.232,59.062l16.703-27.256c13.305,1.491,18.355,6.786,19.047,21.999L51.379,74.248
			C46.778,74.419,42.364,68.488,39.232,59.062z"/>
		<path style="opacity:0.6;fill:#B6F2EC;" d="M43.906,65.557l14.273-22.533c1.816,3.958,7.466,8.898,12.356,11.216L46.34,68.851
			L43.906,65.557z"/>
	</g>
	<g>
		<path style="fill:#65A09A;" d="M182.52,164.269c-2.676,3.455-8.902-0.47-5.917-4.681c52.901-74.638,48.97-99.984,16.522-129.935
			c-1.738-7.665-0.398-12.331,5.2-15.32C234.737,48.061,245.041,83.482,182.52,164.269z"/>
		<g>
			<path style="opacity:0.8;fill:#D7FFFA;" d="M200.879,25.876c32.447,29.951,31.977,63.247-20.925,137.885
				c-0.429,0.604-0.65,1.2-0.735,1.771c1.184,0.195,2.429-0.139,3.302-1.263c61.139-79.002,52.632-114.621,18.177-147.697
				C199.917,19.052,200.023,22.099,200.879,25.876z"/>
		</g>
		<path style="fill:#455D87;" d="M213.444,27.256L196.859,0c-13.215,1.491-18.229,6.786-18.916,22l23.44,20.442
			C205.95,42.614,210.336,36.684,213.444,27.256z"/>
		<path style="opacity:0.6;fill:#B6F2EC;" d="M213.105,28.294L198.604,7.242c-1.742,4.316-5.035,9.733-9.869,12.194l21.785,15.617
			L213.105,28.294z"/>
	</g>
	<g style="opacity:0.4;">
		
			<rect x="22.133" y="289.177" transform="matrix(0.9973 0.074 -0.074 0.9973 21.6107 -2.95)" style="fill:#295C6C;" width="56.985" height="2.117"/>
	</g>
	<g style="opacity:0.4;">
		
			<rect x="20.277" y="301.368" transform="matrix(0.9973 0.074 -0.074 0.9973 22.5124 -2.7797)" style="fill:#295C6C;" width="56.986" height="2.119"/>
	</g>
	<g style="opacity:0.4;">
		
			<rect x="19.176" y="316.543" transform="matrix(0.9973 0.074 -0.074 0.9973 23.6787 -3.7845)" style="fill:#295C6C;" width="87.454" height="2.119"/>
	</g>
	<g style="opacity:0.4;">
		<path style="fill:#678BD3;" d="M110.322,281.97c-0.594-3.327-3.165-5.953-6.48-6.616c-3.844-0.769-7.748,1.003-9.698,4.4
			l-4.952,8.627l22.795,2.916L110.322,281.97z"/>
	</g>
	<g style="opacity:0.4;">
		<path style="fill:#678BD3;" d="M110.972,257.419l-11.575,0.878l-0.839,5.846l1.37,0.166c-0.183,0.557-0.344,1.136-0.455,1.749
			c-0.785,4.32,0.679,8.205,3.271,8.677c2.593,0.472,5.331-2.65,6.119-6.97c0.147-0.816,0.19-1.603,0.186-2.366l0.956,0.113
			L110.972,257.419z"/>
	</g>
	<g style="opacity:0.4;">
		<path style="fill:#295C6C;" d="M89.788,250.805l-4.263,40.923l30.902,3.218l4.262-40.924L89.788,250.805z M115.721,293.775
			l-29.263-3.047l4.035-38.754l29.263,3.048L115.721,293.775z"/>
	</g>
	<path style="opacity:0.6;fill:#FF7461;" d="M187.792,74.746c-5.144,0.774-8.527,1.379-12.282,5.529l2.74,17
		c3.841-2.68,6.131-1.993,10.602-3.181L187.792,74.746z"/>
	<g style="opacity:0.3;">
		<path style="fill:#295C6C;" d="M170.564,86.408c-12.773,6.429-23.363,20.389-29.126,34.906l0.235,2.467
			c8.948-17.216,17.953-29.016,29.157-32.603L170.564,86.408z"/>
	</g>
	<g style="opacity:0.3;">
		<path style="fill:#295C6C;" d="M172.419,97.806c-12.773,6.428-23.364,20.389-29.125,34.908l0.234,2.467
			c8.947-17.219,17.953-29.018,29.156-32.603L172.419,97.806z"/>
	</g>
	<g style="opacity:0.3;">
		<path style="fill:#295C6C;" d="M174.805,112.12c-12.774,6.426-23.364,20.387-29.126,34.907l0.235,2.465
			c8.947-17.217,17.953-29.016,29.157-32.602L174.805,112.12z"/>
	</g>
	<polygon style="fill:#F7BAB0;" points="330.857,254.66 313.458,247.485 316.77,283.483 	"/>
	<polygon style="fill:#F7BAB0;" points="309.875,245.845 312.527,267.58 300.07,241.339 	"/>
	<polygon style="opacity:0.6;fill:#FEFFDB;" points="232.779,315.627 238.86,293.195 242.475,294.907 243.044,305.361 
		249.509,298.329 251.979,300.42 246.656,320.761 243.426,318.86 246.276,307.643 242.094,310.305 239.432,309.165 239.432,303.272 
		236.201,316.578 	"/>
	<polygon style="opacity:0.6;fill:#FEFFDB;" points="250.459,321.901 258.443,324.753 257.684,321.142 254.451,319.811 
		255.02,317.339 257.302,318.1 257.684,315.818 255.591,315.059 256.162,312.397 259.584,313.347 259.963,310.875 253.689,309.165 	
		"/>
	<polygon style="opacity:0.6;fill:#FEFFDB;" points="235.662,316.88 230.891,331.988 286.024,349.748 292.119,337.555 	"/>
	<polygon style="fill:#D39F71;" points="257.663,241.605 289.734,257.243 291.06,251.941 258.72,236.568 	"/>
	<polygon style="fill:#D39F71;" points="260.313,232.434 283.223,243.461 284.168,239.724 261.069,228.881 	"/>
	<polygon style="fill:#FEFFDB;" points="271.444,330.398 267.468,343.651 286.553,350.542 292.384,337.819 	"/>
	<path style="fill:#FEFFDB;" d="M236.697,110.263c0,0,3.047-25.114-0.266-36.179c0,0,3.577,2.119,3.711,13.649L236.697,110.263z"/>
	<polygon style="fill:#A88F6A;" points="242.553,274.737 312.795,299.918 311.1,303.17 241.908,278.099 	"/>
	<path style="opacity:0.9;fill:#FFFFFF;" d="M323.386,315.388c1.919-4.551,1.61-9.028-0.688-9.997
		c-2.304-0.971-5.724,1.934-7.642,6.486c-1.921,4.552-1.611,9.028,0.69,9.998C318.047,322.846,321.465,319.941,323.386,315.388z"/>
	<path style="opacity:0.9;fill:#FFFFFF;" d="M335.884,291.755c1.997-4.517,1.617-9.067-0.853-10.158
		c-2.47-1.092-6.091,1.686-8.088,6.204c-1.998,4.518-1.618,9.065,0.85,10.16C330.265,299.051,333.885,296.274,335.884,291.755z"/>
	<g style="opacity:0.2;">
		
			<ellipse transform="matrix(0.8843 0.467 -0.467 0.8843 182.244 -111.5838)" style="fill:#295C6C;" cx="316.23" cy="311.865" rx="3.758" ry="8.393"/>
	</g>
	<path style="opacity:0.6;fill:#FFFFFF;" d="M322.505,315.09c1.45-2.75,1.573-5.536,0.272-6.223c-1.304-0.688-3.538,0.982-4.99,3.73
		c-1.451,2.75-1.572,5.536-0.27,6.224C318.818,319.509,321.052,317.836,322.505,315.09z"/>
	<g style="opacity:0.2;">
		
			<ellipse transform="matrix(0.8842 0.4671 -0.4671 0.8842 172.7463 -120.2735)" style="fill:#295C6C;" cx="328.954" cy="288.276" rx="3.759" ry="8.391"/>
	</g>
	<path style="opacity:0.6;fill:#FFFFFF;" d="M335.227,291.5c1.448-2.751,1.572-5.535,0.272-6.223
		c-1.303-0.689-3.535,0.983-4.988,3.73c-1.454,2.75-1.574,5.536-0.271,6.223C331.54,295.92,333.776,294.247,335.227,291.5z"/>
	<polygon style="fill:#A07657;" points="287.159,352.084 284.168,359.554 275.686,357.699 274.096,350.013 	"/>
	<polygon style="opacity:0.6;fill:#FEFFDB;" points="325.583,368.366 298.546,329.206 333.732,359.819 333.732,359.819 	"/>
	
		<ellipse transform="matrix(0.6869 0.7267 -0.7267 0.6869 64.8881 -133.3922)" style="fill:#295C6C;" cx="187.262" cy="8.615" rx="2.84" ry="6.714"/>
	
		<ellipse transform="matrix(-0.7312 0.6821 -0.6821 -0.7312 144.854 24.563)" style="fill:#295C6C;" cx="67.588" cy="40.819" rx="2.841" ry="6.714"/>
</g>
</svg>
