<svg width="87" height="45" viewBox="0 0 87 45" fill="none" xmlns="http://www.w3.org/2000/svg">
    <path d="M0.890625 22.558C0.890625 34.1128 10.4777 43.6354 22.1109 43.6354C33.744 43.6354 43.5065 34.1273 43.5065 22.558C43.5065 10.9886 33.9194 1.48055 22.1109 1.48055C10.58 1.36442 0.890625 10.8289 0.890625 22.558ZM15.2274 39.0918V6.09668C17.4634 5.22571 19.6995 4.63055 22.2862 4.63055C24.8145 4.63055 27.2259 5.21119 29.345 6.09668V39.0918C27.4013 39.9628 25.4722 40.2531 23.2362 40.4418V14.1676H21.4094V40.4418C19.1149 40.2531 17.1712 39.7886 15.2274 39.0918ZM4.12043 22.558C4.12043 17.5354 6.23953 12.9193 9.6447 9.65313L13.2252 14.6757V38.1483C7.87635 35.0564 4.12043 29.1047 4.12043 22.558ZM31.2157 14.7483L34.7962 9.55152C38.2599 12.8176 40.3205 17.2596 40.3205 22.4564C40.3205 29.1193 36.5646 34.9547 31.2157 38.0467V14.7483Z" fill="#FF1240"/>
    <path d="M56.6155 11.8743L61.2483 16.6646L65.8957 11.8743H70.8354V33.1259H66.188V16.6646L63.4843 19.292V33.1259H59.0269V19.292L56.3232 16.6646V33.1259H51.6758V11.8743H56.6155Z" fill="#201600"/>
    <path d="M78.5961 11.8742C80.5398 11.8742 82.352 11.8742 84.0034 13.5145C84.8803 14.3855 86.1225 16.2 86.1225 19.1758C86.1225 22.4419 84.7634 24.0823 83.7111 24.8371C82.0597 25.9984 80.1306 26.1871 78.7715 26.1871H78.1869V32.85H73.7148V11.7581L78.5961 11.8742ZM78.4792 22.4419H79.0637C79.6483 22.4419 80.2329 22.4419 80.8905 21.571C81.3582 20.9903 81.4751 19.9306 81.4751 19.1758C81.4751 18.8855 81.4751 17.3613 81.0075 16.6645C80.4229 15.7935 79.8383 15.7935 79.356 15.7935H78.5961L78.4792 22.4419Z" fill="#201600"/>
</svg>
