<svg width="139" height="43" viewBox="0 0 139 43" fill="none" xmlns="http://www.w3.org/2000/svg">
    <path d="M16.5828 20.8504L16.2188 20.4778C15.9395 20.1983 15.4655 20.3931 15.4655 20.7911V26.0673C15.4655 26.3129 15.6686 26.5076 15.9056 26.5076H21.1793C21.5687 26.5076 21.7718 26.0334 21.4925 25.7539C21.3232 25.5845 21.3232 25.3051 21.4925 25.1272L27.0963 19.5039C27.2656 19.3345 27.2656 19.055 27.0963 18.8772L26.5884 18.369C26.309 18.0896 26.5122 17.6153 26.9016 17.6153H32.1668C32.4123 17.6153 32.607 17.8101 32.607 18.0557V23.3318C32.607 23.7214 32.1329 23.9246 31.8536 23.6452L31.4981 23.2895C31.3203 23.1116 31.0494 23.1116 30.8716 23.2895L21.4163 32.7407C21.247 32.9101 20.9677 32.9101 20.7899 32.7407L9.22679 21.1638C9.05749 20.9944 9.04902 20.7149 9.22679 20.5371L25.234 4.52239C25.4033 4.35301 25.4033 4.06507 25.234 3.89569L21.4671 0.127033C21.2978 -0.0423445 21.0185 -0.0423445 20.8407 0.127033L0.126974 20.8674C-0.0423247 21.0367 -0.0423247 21.3247 0.126974 21.4941L20.8492 42.2259C21.0185 42.3953 21.3063 42.3953 21.4756 42.2259L42.1977 21.4941C42.367 21.3247 42.367 21.0452 42.1977 20.8674L30.0082 8.67215C29.8389 8.50277 29.5596 8.50277 29.3818 8.67215L17.2092 20.8504C17.0399 21.0198 16.7606 21.0198 16.5828 20.8504ZM112.237 26.0927C111.703 26.0927 111.238 26.2874 110.857 26.6685C110.476 27.0581 110.281 27.507 110.281 28.032C110.281 28.8366 110.688 29.4633 111.5 29.9037C112.389 30.1493 113.1 29.9884 113.633 29.4379C114.023 29.0483 114.209 28.5825 114.209 28.0405C114.209 27.49 114.014 27.0327 113.633 26.6601C113.244 26.2875 112.787 26.0927 112.237 26.0927ZM80.7471 11.1874H79.2827C78.6478 11.1874 78.1399 11.6955 78.1399 12.3307V13.1437C76.5823 11.5262 74.8301 10.7216 72.8578 10.7216C70.5892 10.7216 68.693 11.5685 67.1863 13.2538C65.671 14.9391 64.9176 17.0479 64.9176 19.5716C64.9176 22.1462 65.671 24.2888 67.1778 26.0164C68.7015 27.7018 70.6315 28.5486 72.9593 28.5486C74.8047 28.5486 76.5315 27.7949 78.1314 26.2959V27.905C78.1314 28.6841 78.7663 29.3278 79.5451 29.3278H82.0422V12.5001C82.0507 11.7802 81.4666 11.1874 80.7471 11.1874ZM77.0564 23.5689C76.1676 24.5598 74.9994 25.0595 73.5604 25.0595C72.206 25.0595 71.0886 24.5429 70.1998 23.5181C69.3363 22.5019 68.8962 21.1807 68.8962 19.5716C68.8962 18.0642 69.3448 16.7853 70.2336 15.7606C71.1309 14.7443 72.2568 14.2362 73.5942 14.2362C75.0163 14.2362 76.1676 14.7359 77.0564 15.7437C77.9452 16.7684 78.3938 18.0726 78.3938 19.6563C78.3854 21.24 77.9367 22.5442 77.0564 23.5689ZM64.9176 14.033V12.3646C64.9176 11.7125 64.3928 11.1874 63.741 11.1874H62.2004C61.5486 11.1874 61.0238 11.7125 61.0238 12.3646V13.0929C59.6186 11.5092 57.8494 10.7132 55.7247 10.7132C53.3037 10.7132 51.3483 11.6278 49.8754 13.4486C48.5041 15.1678 47.8185 17.2596 47.8185 19.7156C47.8185 22.2478 48.5549 24.3565 50.0363 26.0334C51.5007 27.7018 53.3799 28.5232 55.6824 28.5232C57.697 28.5232 59.4832 27.7356 61.0322 26.1519V28.5063C61.0322 32.004 59.6101 33.757 56.7574 33.757C55.2084 33.757 54.0317 33.2319 53.2276 32.1818C53.0244 31.9193 52.8466 31.5805 52.7112 31.1825C52.5165 30.6235 51.9917 30.2594 51.4076 30.2594H49.9347C49.1898 30.2594 48.6396 30.9707 48.8258 31.6906C49.2321 33.2235 50.0109 34.4684 51.1706 35.4339C52.6265 36.6449 54.4804 37.2547 56.7236 37.2547C59.39 37.2547 61.4809 36.3739 63.0046 34.6208C63.8087 33.7062 64.3505 32.6137 64.6298 31.3434C64.723 30.8861 64.7991 30.3441 64.8499 29.7428C64.9007 29.1415 64.9261 28.4385 64.9261 27.6425V25.195C63.8341 23.6197 63.2839 21.7481 63.2839 19.5547C63.2755 17.4205 63.8257 15.5828 64.9176 14.033ZM59.9826 23.4334C59.1192 24.5175 57.9425 25.0595 56.4527 25.0595C54.9629 25.0595 53.7947 24.5259 52.9567 23.4504C52.1864 22.468 51.797 21.2146 51.797 19.6732C51.797 18.115 52.1864 16.8446 52.9567 15.8622C53.8116 14.7698 54.9798 14.2193 56.4527 14.2193C57.841 14.2193 58.9753 14.7189 59.8641 15.7267C60.7444 16.7091 61.1846 18.0218 61.1846 19.6563C61.1761 21.1892 60.7783 22.451 59.9826 23.4334ZM97.296 11.2043V11.1874H89.2205V6.24158C89.2205 5.60641 88.7041 5.08981 88.0693 5.08981H86.4948C85.8514 5.08981 85.3266 5.61488 85.3266 6.25851V11.1874H83.6675V14.8206H85.3266V29.3108H87.5444C88.4671 29.3108 89.212 28.5656 89.2205 27.6425V27.634V14.829H93.216C93.5292 14.2277 93.9185 13.6688 94.3672 13.1607C95.1883 12.2545 96.1702 11.6024 97.296 11.2043ZM117.172 5.08981C116.478 5.08981 115.885 5.3354 115.394 5.83507C114.903 6.33473 114.649 6.91909 114.649 7.60507C114.649 8.32492 114.895 8.92621 115.394 9.42588C115.894 9.92554 116.495 10.1711 117.197 10.1711C117.9 10.1711 118.492 9.92554 118.975 9.42588C119.474 8.92621 119.72 8.33339 119.72 7.622C119.72 6.91909 119.474 6.32626 118.975 5.84354C118.475 5.3354 117.874 5.08981 117.172 5.08981ZM117.959 13.1014H116.545C115.817 13.1014 115.233 13.6857 115.233 14.4141V26.7871C115.53 27.1343 115.673 27.5493 115.673 28.0236C115.673 28.4978 115.53 28.9213 115.233 29.2685V29.963H117.739C118.509 29.963 119.127 29.3363 119.127 28.5741V14.2616C119.127 13.618 118.602 13.1014 117.959 13.1014ZM136.269 15.4896C134.516 13.7704 132.375 12.9066 129.861 12.9066C127.355 12.9066 125.23 13.762 123.487 15.4727C121.743 17.1834 120.871 19.2498 120.871 21.6888C120.871 24.2719 121.726 26.423 123.436 28.1337C125.146 29.8613 127.262 30.7336 129.785 30.7336C132.332 30.7336 134.491 29.8867 136.243 28.1845C137.979 26.4738 138.859 24.3565 138.859 21.8243C138.859 19.3176 137.995 17.2088 136.269 15.4896ZM133.509 25.7793C132.603 26.7617 131.384 27.2444 129.861 27.2444C128.345 27.2444 127.127 26.7532 126.204 25.7539C125.307 24.7715 124.849 23.4334 124.849 21.7566C124.849 20.1898 125.315 18.9026 126.238 17.9117C127.16 16.9209 128.362 16.4212 129.852 16.4212C131.359 16.4212 132.578 16.9209 133.501 17.9117C134.415 18.8941 134.872 20.2068 134.872 21.8413C134.88 23.4842 134.423 24.7885 133.509 25.7793Z" fill="#DE5959"/>
    <path d="M98.7436 25.0939C97.9394 24.2809 97.4908 23.1715 97.3892 21.791H108.554C109.062 21.791 109.486 21.3845 109.494 20.8764C109.494 18.0901 108.775 15.9136 107.352 14.3469C105.905 12.7632 103.941 11.9756 101.461 11.9756C99.006 11.9756 97.0337 12.7886 95.5438 14.4146C94.0625 16.0661 93.326 18.2256 93.326 20.8933C93.326 23.5864 94.0879 25.746 95.6116 27.372C96.6781 28.5069 97.9817 29.2352 99.5224 29.5739C100.174 29.7264 100.843 29.8026 101.52 29.7941C104.297 29.8534 106.709 29.9127 109.477 29.9635V29.557C109.139 29.1844 108.969 28.744 108.969 28.2274C108.969 27.7193 109.147 27.2873 109.494 26.9147V26.4235C107.302 26.3727 102.003 26.3134 101.791 26.3134C100.564 26.3134 99.5393 25.9069 98.7436 25.0939ZM98.2018 17.3025C98.4473 16.9214 98.7351 16.5996 99.0737 16.3286C99.4123 16.0576 99.7932 15.8459 100.208 15.7019C100.623 15.5579 101.071 15.4817 101.545 15.4817C103.619 15.4817 104.931 16.5234 105.473 18.5983H97.6432C97.7786 18.1155 97.9648 17.6836 98.2018 17.3025Z" fill="#DE5959"/>
</svg>
