<svg width="25" height="25" viewBox="0 0 25 25" fill="none" xmlns="http://www.w3.org/2000/svg">
<path d="M16.6095 11.3071C16.6095 12.5532 16.207 13.5323 15.4468 14.1999C14.6419 14.8674 13.524 15.179 12.093 15.179H11.0198V19.3179H8.51562V7.65771H12.2719C13.7029 7.65771 14.776 7.96924 15.5363 8.59234C16.2517 9.21538 16.6095 10.1055 16.6095 11.3071ZM10.9751 13.1763H11.78C12.5402 13.1763 13.1215 13.0428 13.4792 12.7312C13.8369 12.4197 14.0606 11.9746 14.0606 11.4406C14.0606 10.862 13.8817 10.417 13.5687 10.15C13.2557 9.88291 12.7638 9.74942 12.093 9.74942H10.9751V13.1763Z" fill="#21287A"/>
<path d="M12.1815 0.714355C5.56334 0.714355 0.197266 6.05489 0.197266 12.6416V24.1683L0.91273 24.2128C0.91273 24.2128 1.22574 24.2128 1.71764 24.2573V22.7442V20.5189V12.6861C1.71764 6.94504 6.41293 2.27203 12.1815 2.27203C17.9501 2.27203 22.6454 6.94504 22.6454 12.6861C22.6454 18.4272 17.9501 23.1002 12.1815 23.1002C11.2424 23.1002 6.90488 22.9222 5.4739 22.8777V24.3908C6.90488 24.4354 11.2424 24.6133 12.1815 24.6133C18.7997 24.6133 24.1658 19.2728 24.1658 12.6861C24.1658 6.05489 18.7997 0.714355 12.1815 0.714355Z" fill="#21287A"/>
<path d="M5.51963 13.1758H1.27148V15.223H5.51963V13.1758Z" fill="#21287A"/>
</svg>
