<?xml version="1.0" encoding="iso-8859-1"?>
<!-- Generator: Adobe Illustrator 17.0.0, SVG Export Plug-In . SVG Version: 6.00 Build 0)  -->
<!DOCTYPE svg PUBLIC "-//W3C//DTD SVG 1.1//EN" "http://www.w3.org/Graphics/SVG/1.1/DTD/svg11.dtd">
<svg version="1.1" id="object" xmlns="http://www.w3.org/2000/svg" xmlns:xlink="http://www.w3.org/1999/xlink" x="0px" y="0px"
	 width="231.93px" height="128.829px" viewBox="0 0 231.93 128.829" style="enable-background:new 0 0 231.93 128.829;"
	 xml:space="preserve">
<g>
	<polygon style="fill:#304447;" points="76.309,21.5 53.184,0 51.809,1 75.309,24.625 	"/>
	<polygon style="fill:#012229;" points="171.559,82.563 166.84,74.469 167.059,74.281 179.965,82.75 179.496,82.813 167.121,74.594 
		171.934,82.594 	"/>
	<polygon style="fill:#012229;" points="161.309,83.156 159.278,75.813 159.59,75.469 168.153,82.844 167.715,82.938 
		159.543,75.828 161.559,83.124 	"/>
	<polygon style="fill:#012229;" points="25.434,24 32.028,24.625 32.184,25.094 30.215,27.25 29.746,27.125 31.809,25 
		25.434,24.313 	"/>
	<polygon style="fill:#D87D61;" points="87.892,64.833 81.559,17.5 73.892,17.5 76.155,78.211 	"/>
	<g>
		<path style="fill:#8F8F8F;" d="M25.578,115.318c0,0,3.562,1.447,3.562,2.857c0,1.41,0,5.789,0,5.789s0.148,2.449-1.596,2.449
			s-8.943,0-8.943,0v0.557c0,0,5.937,1.484,7.904,1.744s55.908,0,55.908,0h69.291c0,0,39.556-0.594,44.083-0.594
			s9.722-1.707,9.722-1.707L25.578,115.318z"/>
		<path style="fill:#B9B9B9;" d="M7.507,103.456l0.025,3.562c0,0,26.989,15.832,64.987,19.246
			c37.998,3.414,125.273,1.484,132.695,0.742s13.359-10.538,14.843-13.804c1.484-3.265,11.182-21.027,11.874-23.798l-26.519,8.411
			l-54.918,3.661L27.198,103.06L7.507,103.456z"/>
		<rect x="150.666" y="82.552" style="fill:#8F8F8F;" width="30.354" height="2.301"/>
		<path style="fill:#D87D61;" d="M69.698,83.257V66.299h2.672v16.995C72.37,83.294,69.698,83.146,69.698,83.257z"/>
		<path style="fill:#216940;" d="M76.155,78.211v-9.24c0,0,0-3.414,4.156-3.414h2.078V77.84L76.155,78.211z"/>
		<polygon style="fill:#B9B9B9;" points="78.084,76.504 78.084,61.401 79.94,61.401 79.94,76.355 		"/>
		<polygon style="fill:#8D8F8C;" points="125.754,85.249 211.051,84.556 211.051,93.066 174.059,98.25 125.161,99.597 		"/>
		<path style="fill:#304447;" d="M159.497,95.49l-13.26,0.148c-0.956,0-1.732-0.775-1.732-1.732v-4.205
			c0-0.956,0.775-1.732,1.732-1.732h13.21c0.956,0,1.732,0.775,1.732,1.732l0.049,4.057C161.229,94.715,160.454,95.49,159.497,95.49
			z"/>
		<path style="fill:#304447;" d="M177.927,94.624l-12.715,0.519c-1.134,0-2.053-0.919-2.053-2.053v-3.166
			c0-1.134,0.919-2.053,2.053-2.053h12.765c1.134,0,2.053,0.919,2.053,2.053l-0.049,2.647
			C179.98,93.705,179.061,94.624,177.927,94.624z"/>
		<path style="fill:#304447;" d="M198.722,89.892c-0.052,1.012-0.809,1.848-1.811,2l-12.973,1.966c-1.066,0-1.93-0.864-1.93-1.93
			v-2.226c0-1.066,0.864-1.93,1.93-1.93h12.864c1.066,0,1.93,0.864,1.93,1.93L198.722,89.892z"/>
		<path style="fill:#D87D61;" d="M211.051,84.556c0,0-1.311,0.965-5.096,1.262c-3.785,0.297-80.374,0.074-80.374,0.074v-0.643
			c0,0,11.429,0.272,17.96-0.841L211.051,84.556z"/>
		<polygon style="fill:#8D8F8C;" points="81.919,66.25 81.919,100.784 143.665,100.784 143.665,65.161 		"/>
		<g>
			<g>
				<path style="fill:#18171B;" d="M112.009,84.463c-0.922,0-1.447-0.001-1.494-0.001c-0.276,0-0.5-0.225-0.499-0.501
					s0.224-0.499,0.5-0.499c0.034,0.021,0.564,0.001,1.497,0.001c7.964,0,45.532-0.071,60.503-1.384
					c18.891-1.657,34.631-4.25,44.323-7.302c10.327-3.251,12.881-6.622,12.905-6.655c0.162-0.223,0.474-0.272,0.697-0.112
					c0.223,0.161,0.274,0.47,0.115,0.694c-0.104,0.147-2.694,3.651-13.417,7.027c-9.759,3.072-25.576,5.681-44.537,7.344
					C157.591,84.392,119.978,84.463,112.009,84.463z"/>
			</g>
			<g>
				<path style="fill:#18171B;" d="M230.829,84.314c-0.276,0-0.5-0.224-0.5-0.5v-6.83c-0.886-0.62-0.843-2.002-0.841-2.066v-5.947
					c0-0.276,0.224-0.5,0.5-0.5s0.5,0.224,0.5,0.5v5.966c-0.009,0.29,0.068,1.105,0.525,1.287l0.315,0.125v7.464
					C231.329,84.09,231.106,84.314,230.829,84.314z"/>
			</g>
			<g>
				<g>
					<path style="fill:#18171B;" d="M218.572,90.497c-0.207,0-0.375-0.168-0.375-0.375V74.611c0-0.207,0.168-0.375,0.375-0.375
						s0.375,0.168,0.375,0.375v15.511C218.947,90.329,218.779,90.497,218.572,90.497z"/>
				</g>
				<g>
					<path style="fill:#18171B;" d="M199.721,94.356c-0.207,0-0.375-0.168-0.375-0.375V78.916c0-0.207,0.168-0.375,0.375-0.375
						s0.375,0.168,0.375,0.375v15.066C200.096,94.188,199.928,94.356,199.721,94.356z"/>
				</g>
				<g>
					<path style="fill:#18171B;" d="M180.797,96.286c-0.207,0-0.375-0.168-0.375-0.375V81.662c0-0.207,0.168-0.375,0.375-0.375
						s0.375,0.168,0.375,0.375v14.249C181.172,96.118,181.004,96.286,180.797,96.286z"/>
				</g>
				<g>
					<path style="fill:#18171B;" d="M162.169,98.067c-0.207,0-0.375-0.168-0.375-0.375v-14.62c0-0.207,0.168-0.375,0.375-0.375
						s0.375,0.168,0.375,0.375v14.62C162.544,97.899,162.376,98.067,162.169,98.067z"/>
				</g>
				<g>
					<path style="fill:#18171B;" d="M143.467,98.215c-0.207,0-0.375-0.168-0.375-0.375V83.517c0-0.207,0.168-0.375,0.375-0.375
						s0.375,0.168,0.375,0.375V97.84C143.842,98.047,143.674,98.215,143.467,98.215z"/>
				</g>
				<g>
					<path style="fill:#18171B;" d="M124.839,98.735c-0.207,0-0.375-0.168-0.375-0.375V83.888c0-0.207,0.168-0.375,0.375-0.375
						s0.375,0.168,0.375,0.375V98.36C125.214,98.567,125.046,98.735,124.839,98.735z"/>
				</g>
				<g>
					<path style="fill:#18171B;" d="M110.293,99.032c-0.207,0-0.375-0.168-0.375-0.375v-14.62c0-0.207,0.168-0.375,0.375-0.375
						s0.375,0.168,0.375,0.375v14.62C110.668,98.864,110.5,99.032,110.293,99.032z"/>
				</g>
				<g>
					<path style="fill:#18171B;" d="M110.12,91.363c-0.205,0-0.372-0.164-0.375-0.369c-0.003-0.208,0.162-0.378,0.369-0.381
						c0.363-0.006,36.496-0.596,52.05-0.792c10.772-0.135,20.381-1.763,30.555-3.487c4.643-0.786,9.443-1.6,14.521-2.298
						c15.874-2.185,23.023-8.934,23.094-9.002c0.15-0.144,0.388-0.14,0.53,0.01c0.145,0.149,0.14,0.386-0.009,0.53
						c-0.072,0.069-7.398,6.987-23.513,9.205c-5.066,0.697-9.861,1.509-14.499,2.295c-10.203,1.729-19.84,3.361-30.67,3.497
						c-15.553,0.195-51.685,0.786-52.047,0.792C110.124,91.363,110.122,91.363,110.12,91.363z"/>
				</g>
			</g>
		</g>
		<path style="fill:#D87D61;" d="M79.742,64.221v0.99c0,0,0.94,1.039,2.177,1.039s61.771-0.322,61.771-0.322l4.972-0.891v-0.742
			L79.742,64.221z"/>
		<path style="fill:#E6E3DA;" d="M85.956,83.77c-0.783,0-1.42-0.637-1.42-1.42V71.83c0-1.961,1.596-3.557,3.557-3.557h3.782
			c1.961,0,3.557,1.596,3.557,3.557v10.519c0,0.783-0.637,1.42-1.421,1.42H85.956z"/>
		<path style="fill:#304447;" d="M94.01,83.27h-8.054c-0.509,0-0.921-0.412-0.921-0.921V71.83c0-1.688,1.369-3.057,3.057-3.057
			h3.781c1.688,0,3.057,1.369,3.057,3.057v10.519C94.931,82.857,94.519,83.27,94.01,83.27z"/>
		<g>
			<rect x="85.036" y="72.579" style="fill:#E6E3DA;" width="9.895" height="0.75"/>
		</g>
		<path style="fill:#E6E3DA;" d="M99.612,83.77c-0.784,0-1.421-0.637-1.421-1.42V71.83c0-1.961,1.596-3.557,3.557-3.557h3.782
			c1.961,0,3.557,1.596,3.557,3.557v10.519c0,0.783-0.637,1.42-1.42,1.42H99.612z"/>
		<path style="fill:#304447;" d="M107.666,83.27h-8.054c-0.509,0-0.921-0.412-0.921-0.921V71.83c0-1.688,1.369-3.057,3.057-3.057
			h3.782c1.688,0,3.057,1.369,3.057,3.057v10.519C108.586,82.857,108.174,83.27,107.666,83.27z"/>
		<g>
			<rect x="98.691" y="72.579" style="fill:#E6E3DA;" width="9.895" height="0.75"/>
		</g>
		<path style="fill:#E6E3DA;" d="M113.664,83.77c-0.859,0-1.558-0.699-1.558-1.558V72.071c0-2.094,1.704-3.798,3.798-3.798h3.782
			c2.094,0,3.798,1.704,3.798,3.798v10.141c0,0.859-0.699,1.558-1.558,1.558H113.664z"/>
		<path style="fill:#304447;" d="M121.926,83.27h-8.262c-0.584,0-1.058-0.474-1.058-1.058V72.071c0-1.821,1.477-3.298,3.298-3.298
			h3.781c1.821,0,3.298,1.477,3.298,3.298v10.141C122.984,82.796,122.51,83.27,121.926,83.27z"/>
		<g>
			<rect x="112.606" y="72.579" style="fill:#E6E3DA;" width="10.377" height="0.75"/>
		</g>
		<path style="fill:#E6E3DA;" d="M126.696,83.201c-0.454,0-0.823-0.369-0.823-0.823V70.779c0-1.382,1.124-2.506,2.506-2.506h3.14
			c2.424,0,4.396,1.972,4.396,4.396l-0.869,7.873c0.003,1.441-1.215,2.659-2.711,2.659H126.696z"/>
		<path style="fill:#304447;" d="M132.335,82.701h-5.639c-0.179,0-0.323-0.145-0.323-0.323V70.779c0-1.108,0.898-2.005,2.005-2.005
			h3.14c2.152,0,3.896,1.744,3.896,3.896l-0.866,7.817C134.549,81.709,133.558,82.701,132.335,82.701z"/>
		<g>
			<rect x="126.373" y="72.579" style="fill:#E6E3DA;" width="9.042" height="0.75"/>
		</g>
		<path style="fill:#E6E3DA;" d="M137.44,82.852c-0.2,0-0.391-0.086-0.525-0.235c-0.133-0.149-0.197-0.349-0.175-0.548l1.419-12.547
			c0.091-0.803,0.742-1.434,1.546-1.501c0,0,3.231-0.271,3.235-0.271c0.242,0,0.417,0.074,0.548,0.208
			c0.133,0.135,0.206,0.313,0.203,0.503l-0.151,13.698l-6.021,0.689L137.44,82.852z"/>
		<path style="fill:#304447;" d="M142.971,68.248l-3.224,0.27c-0.57,0.048-1.026,0.491-1.09,1.059l-1.419,12.547
			c-0.015,0.131,0.096,0.241,0.226,0.226l5.583-0.639l0.146-13.257C143.194,68.333,143.091,68.238,142.971,68.248z"/>
		<g>
			<polygon style="fill:#E6E3DA;" points="138.229,73.229 138.249,72.187 143.218,71.469 143.292,72.459 			"/>
		</g>
		<rect x="96.86" y="66.794" style="fill:#E6E3DA;" width="25.579" height="0.742"/>
		<g>
			<rect x="12.479" y="67.969" style="fill:#18171B;" width="0.519" height="15.882"/>
			<rect x="16.709" y="67.969" style="fill:#18171B;" width="0.519" height="15.882"/>
			<rect x="25.801" y="67.969" style="fill:#18171B;" width="0.519" height="15.882"/>
			<rect x="44.651" y="67.969" style="fill:#18171B;" width="0.519" height="15.882"/>
			<rect x="63.501" y="67.969" style="fill:#18171B;" width="0.519" height="15.882"/>
			<rect x="84.083" y="67.969" style="fill:#18171B;" width="0.519" height="15.882"/>
			<rect x="11.44" y="67.784" style="fill:#18171B;" width="73.163" height="0.371"/>
			<path style="fill:#18171B;" d="M12.999,80.623h0.445c0,0,0.853-5.121,5.121-5.121v-0.557h-5.566V80.623z"/>
			<path style="fill:#18171B;" d="M17.08,80.623h0.445c0,0,0.853-5.121,5.121-5.121v-0.557H17.08V80.623z"/>
			<path style="fill:#18171B;" d="M26.134,80.623h0.347c0,0,0.666-5.121,3.994-5.121v-0.557h-4.342V80.623z"/>
			<g>
				<g>
					<rect x="12.553" y="74.781" style="fill:#18171B;" width="71.74" height="0.75"/>
				</g>
			</g>
		</g>
		<path style="fill:#D87D61;" d="M12.652,83.171L7.507,101.18v2.276c0,0,11.973,0.891,31.566,2.177s77.479,0.891,77.479,0.891
			s30.675,0.099,54.424-1.682s35.524-4.552,45.32-6.63c9.796-2.078,12.864-5.047,15.634-8.807l-0.064-6.972
			c-0.003-0.272-0.351-0.376-0.498-0.148c-1.177,1.821-4.875,5.86-15.171,7.614c-13.507,2.301-24.045,6.16-46.755,7.125
			s-71.468,1.558-73.101,1.558c-1.633,0-6.16-1.855-8.906-7.273c0,0-1.41-1.855-1.41-8.089L12.652,83.171z"/>
		<polygon style="fill:#8D8F8C;" points="71.999,83.294 71.999,80.845 77.787,76.096 81.981,76.096 81.981,83.22 		"/>
		<rect x="187.797" y="55.959" style="fill:#012229;" width="1.187" height="28.795"/>
		<g>
			<g>
				<path style="fill:#216940;" d="M37.268,88.272H12.678c-0.276,0-0.5-0.224-0.5-0.5s0.224-0.5,0.5-0.5h24.589
					c0.276,0,0.5,0.224,0.5,0.5S37.544,88.272,37.268,88.272z"/>
			</g>
			<g>
				<path style="fill:#216940;" d="M35.734,93.021H11.145c-0.276,0-0.5-0.224-0.5-0.5s0.224-0.5,0.5-0.5h24.589
					c0.276,0,0.5,0.224,0.5,0.5S36.01,93.021,35.734,93.021z"/>
			</g>
			<g>
				<path style="fill:#216940;" d="M34.3,97.672H9.71c-0.276,0-0.5-0.224-0.5-0.5s0.224-0.5,0.5-0.5H34.3c0.276,0,0.5,0.224,0.5,0.5
					S34.576,97.672,34.3,97.672z"/>
			</g>
		</g>
		<rect x="187.476" y="54.404" style="fill:#216940;" width="1.818" height="1.596"/>
		<rect x="186.548" y="60.325" style="fill:#216940;" width="2.523" height="0.371"/>
		<rect x="191.632" y="82.8" style="fill:#D87D61;" width="4.972" height="1.855"/>
		<polygon style="fill:#8F8F8F;" points="12.009,114.736 12.009,125.869 23.784,125.869 23.784,115.775 21.508,114.687 		"/>
	</g>
	<polygon style="fill:#D87D61;" points="77.225,59.167 0.5,6.406 0,7.156 77.059,61.917 	"/>
	<polygon style="fill:#D87D61;" points="178.559,11 178.559,85 173.309,85 176.559,11 	"/>
	<polygon style="fill:#D87D61;" points="175.059,71.5 129.559,37.917 128.725,39.083 174.559,73.5 	"/>
	<circle style="fill:#012229;" cx="2.705" cy="11.146" r="1.146"/>
	<path style="fill:none;stroke:#012229;stroke-width:0.5;stroke-linejoin:round;stroke-miterlimit:10;" d="M73.559,59
		c-36-17.5-70.854-47.854-70.854-47.854l23.979,43.979"/>
	<line style="fill:none;stroke:#012229;stroke-width:0.25;stroke-miterlimit:10;" x1="2.574" y1="11.797" x2="12.999" y2="67.969"/>
	<circle style="fill:#012229;" cx="32.33" cy="25.229" r="1.188"/>
	
		<line style="fill:none;stroke:#012229;stroke-width:0.25;stroke-miterlimit:10;" x1="32.559" y1="24.667" x2="65.017" y2="22.583"/>
	<path style="fill:none;stroke:#012229;stroke-width:0.25;stroke-miterlimit:10;" d="M5.225,9c0,0,23.208,11,68.083,12.25
		L4.559,8.625"/>
	<line style="fill:none;stroke:#012229;stroke-width:0.25;stroke-miterlimit:10;" x1="174.559" y1="18" x2="130.184" y2="39.125"/>
	
		<line style="fill:none;stroke:#012229;stroke-width:0.25;stroke-miterlimit:10;" x1="130.934" y1="39.625" x2="177.309" y2="19.75"/>
	<line style="fill:none;stroke:#012229;stroke-width:0.25;stroke-miterlimit:10;" x1="129.559" y1="40" x2="159.225" y2="75.5"/>
	
		<line style="fill:none;stroke:#012229;stroke-width:0.25;stroke-miterlimit:10;" x1="131.059" y1="40.667" x2="166.892" y2="74.167"/>
	<circle style="fill:#012229;" cx="26.684" cy="55.125" r="1.25"/>
	<polygon style="fill:#012229;" points="35.121,83.563 26.746,55.688 27.559,55.063 54.059,83.688 53.246,83.688 27.574,55.625 
		27.184,55.875 35.788,83.583 	"/>
	<path style="fill:#D87D61;" d="M60.05,55.221L60.05,55.221c-0.959-0.716-1.155-2.074-0.439-3.033l3.64-4.872
		c0.716-0.959,2.074-1.155,3.033-0.439l0,0c0.959,0.716,1.155,2.074,0.439,3.033l-3.64,4.872
		C62.366,55.741,61.009,55.938,60.05,55.221z"/>
	<polygon style="fill:#012229;" points="2.621,11.063 2.746,8.844 3.043,8.891 3.34,11.094 	"/>
	<circle style="fill:#012229;" cx="5.22" cy="8.74" r="0.802"/>
	<polygon style="fill:#012229;" points="5.159,8.535 3.171,8.559 3.159,8.782 5.112,9.112 	"/>
	<line style="fill:none;stroke:#012229;stroke-width:0.25;stroke-miterlimit:10;" x1="177.809" y1="15.25" x2="208.309" y2="84.5"/>
	<circle style="fill:#012229;" cx="130.491" cy="40.182" r="1.432"/>
	<circle style="fill:#012229;" cx="159.364" cy="75.648" r="0.594"/>
	<circle style="fill:#012229;" cx="166.934" cy="74.25" r="0.563"/>
	<circle style="fill:#012229;" cx="174.715" cy="17.906" r="0.875"/>
	<polygon style="fill:#012229;" points="174.496,17.75 177.246,16.406 177.34,16.656 174.887,18.469 	"/>
	<rect x="176.09" y="15.125" style="fill:#012229;" width="2.906" height="0.563"/>
	<rect x="175.778" y="19.375" style="fill:#012229;" width="3.125" height="0.688"/>
	<circle style="fill:#012229;" cx="64.975" cy="22.708" r="1.167"/>
	<polygon style="fill:#012229;" points="65.225,22.375 72.934,20.625 72.934,20.792 65.434,22.625 73.725,22.25 73.767,22.667 
		65.142,22.917 	"/>
</g>
</svg>
