<?xml version="1.0" encoding="iso-8859-1"?>
<!-- Generator: Adobe Illustrator 17.0.0, SVG Export Plug-In . SVG Version: 6.00 Build 0)  -->
<!DOCTYPE svg PUBLIC "-//W3C//DTD SVG 1.1//EN" "http://www.w3.org/Graphics/SVG/1.1/DTD/svg11.dtd">
<svg version="1.1" id="&#x421;&#x43B;&#x43E;&#x439;_1"
	 xmlns="http://www.w3.org/2000/svg" xmlns:xlink="http://www.w3.org/1999/xlink" x="0px" y="0px" width="2037.012px"
	 height="191.625px" viewBox="0 0 2037.012 191.625" style="enable-background:new 0 0 2037.012 191.625;" xml:space="preserve">
<path style="fill-rule:evenodd;clip-rule:evenodd;fill:#018AA7;" d="M74.6,67.395c0,0,55.125-51.528,138.89-56.964
	c83.764-5.435,133.571,46.75,225.013,67.266c91.442,20.516,181.946-47.935,308.104-61.206
	C872.765,3.22,898.95,76.334,1037.729,88.605s247.786-75.317,378.459-76.356c130.672-1.039,102.977,76.341,305.072,59.994
	c202.094-16.347,212.432-71.165,270.501-72.114s43.668,3.636,43.668,3.636v135.744c0,0-6.207,26.262-70.961,10.908
	c-64.754-15.354-276.203-77.818-450.026-43.632s-125.157,80.077-368.755,63.63S917.659,64.259,821.813,58.305
	s-142.869,8.325-276.566,47.268c-133.697,38.943-187.197,50.255-288.696,11.514s-138.168-29.731-179.525,1.212
	c-41.357,30.943-68.535,73.326-68.535,73.326L0,54.669L74.6,67.395z"/>
</svg>
