<svg width="55" height="50" viewBox="0 0 55 50" fill="none" xmlns="http://www.w3.org/2000/svg">
<path d="M27.272 39.9995C21.6283 39.9771 16.5753 36.4976 14.5413 31.2332C14.422 30.929 14.4751 30.5843 14.6803 30.3301C14.8856 30.0759 15.2114 29.9514 15.5339 30.0039C15.8563 30.0565 16.1258 30.2781 16.2397 30.5843C17.9862 35.1592 22.3751 38.1815 27.272 38.1815C32.1689 38.1815 36.5578 35.1592 38.3043 30.5843C38.4182 30.2781 38.6877 30.0565 39.0101 30.0039C39.3326 29.9514 39.6584 30.0759 39.8637 30.3301C40.0689 30.5843 40.122 30.929 40.0027 31.2332C37.9687 36.4976 32.9157 39.9771 27.272 39.9995Z" fill="#E8A15B"/>
<path d="M45.9086 31.8179H11.8181C5.29112 31.8179 0 26.5267 0 19.9998C0 13.4729 5.29112 8.18175 11.8181 8.18175C11.8953 8.18175 11.9721 8.1822 12.048 8.18393C14.2158 3.2134 19.1231 0 24.5458 0C29.9685 0 34.8758 3.2134 37.0437 8.18393C41.1591 8.27672 44.8382 10.7724 46.4461 14.5618C51.1041 14.8497 54.6907 18.7859 54.5454 23.4505C54.4001 28.115 50.5754 31.8204 45.9086 31.8179ZM11.8181 9.99991C6.29527 9.99991 1.81816 14.477 1.81816 19.9998C1.81816 25.5226 6.29527 29.9997 11.8181 29.9997H45.9086C49.6741 29.9997 52.7267 26.9471 52.7267 23.1816C52.7267 19.416 49.6741 16.3635 45.9086 16.3635H45.8177C45.4323 16.3635 45.0888 16.1205 44.9605 15.7571C43.7366 12.2862 40.4453 9.97404 36.765 9.99991C36.6761 9.99991 36.5879 10.0004 36.4995 10.0065C36.1007 10.0319 35.7313 9.79616 35.5864 9.42373C33.8382 4.83938 29.4389 1.81234 24.5325 1.81787C19.6261 1.8234 15.2336 4.86036 13.4958 9.44864C13.3507 9.83424 12.9642 10.0738 12.5543 10.0319C12.3096 10.0089 12.0639 9.99821 11.8181 9.99991Z" fill="#637EA8"/>
<path d="M6.15543 25.4543C5.88103 25.4548 5.62118 25.3309 5.4488 25.1174C3.87387 23.1678 3.28245 20.6025 3.84485 18.1601C4.40725 15.7178 6.06106 13.6695 8.33005 12.6051C8.78407 12.3905 9.32602 12.5847 9.54053 13.0387C9.75504 13.4928 9.56088 14.0347 9.10686 14.2492C6.88426 15.3035 5.46407 17.5398 5.45499 19.9998C5.4494 21.4471 5.94645 22.8515 6.86124 23.973C7.08174 24.2453 7.12619 24.62 6.97549 24.9362C6.82479 25.2525 6.50577 25.454 6.15543 25.4543Z" fill="#637EA8"/>
<path d="M15.4548 26.3638C15.1626 26.3634 14.8884 26.2227 14.7176 25.9856C14.5468 25.7485 14.5002 25.4439 14.5923 25.1666L18.2287 14.2576C18.3875 13.7813 18.9024 13.524 19.3787 13.6828C19.855 13.8417 20.1124 14.3566 19.9535 14.8329L16.3172 25.7419C16.1936 26.1132 15.8462 26.3637 15.4548 26.3638Z" fill="#E8A15B"/>
<path d="M22.7273 26.3638C22.336 26.3637 21.9885 26.1132 21.8649 25.7419L18.2286 14.8329C18.0697 14.3566 18.3271 13.8417 18.8034 13.6828C19.2797 13.524 19.7946 13.7813 19.9535 14.2576L23.5898 25.1666C23.6819 25.4439 23.6353 25.7485 23.4645 25.9856C23.2938 26.2227 23.0195 26.3634 22.7273 26.3638Z" fill="#E8A15B"/>
<path d="M21.2089 21.8179H16.9726C16.4705 21.8179 16.0635 21.4109 16.0635 20.9088C16.0635 20.4068 16.4705 19.9998 16.9726 19.9998H21.2089C21.7109 19.9998 22.118 20.4068 22.118 20.9088C22.118 21.4109 21.7109 21.8179 21.2089 21.8179Z" fill="#E8A15B"/>
<path d="M25.454 26.3634C24.9519 26.3634 24.5449 25.9564 24.5449 25.4543V14.5453C24.5449 14.0432 24.9519 13.6362 25.454 13.6362C25.9561 13.6362 26.3631 14.0432 26.3631 14.5453V25.4543C26.3631 25.9564 25.9561 26.3634 25.454 26.3634Z" fill="#E8A15B"/>
<path d="M29.0903 20.9089H25.454C24.9519 20.9089 24.5449 20.5019 24.5449 19.9998V14.5453C24.5449 14.0432 24.9519 13.6362 25.454 13.6362H29.0903C31.0986 13.6362 32.7267 15.2643 32.7267 17.2726C32.7267 19.2808 31.0986 20.9089 29.0903 20.9089ZM26.3631 19.0907H29.0903C30.0945 19.0907 30.9085 18.2767 30.9085 17.2726C30.9085 16.2684 30.0945 15.4544 29.0903 15.4544H26.3631V19.0907Z" fill="#E8A15B"/>
<path d="M36.3632 26.3634C35.8611 26.3634 35.4541 25.9564 35.4541 25.4543V14.5453C35.4541 14.0432 35.8611 13.6362 36.3632 13.6362C36.8652 13.6362 37.2722 14.0432 37.2722 14.5453V25.4543C37.2722 25.9564 36.8652 26.3634 36.3632 26.3634Z" fill="#E8A15B"/>
<path d="M39.0901 15.4544H33.6356C33.1336 15.4544 32.7266 15.0474 32.7266 14.5453C32.7266 14.0432 33.1336 13.6362 33.6356 13.6362H39.0901C39.5922 13.6362 39.9992 14.0432 39.9992 14.5453C39.9992 15.0474 39.5922 15.4544 39.0901 15.4544Z" fill="#E8A15B"/>
<path d="M39.0901 26.3633H33.6356C33.1336 26.3633 32.7266 25.9563 32.7266 25.4542C32.7266 24.9522 33.1336 24.5452 33.6356 24.5452H39.0901C39.5922 24.5452 39.9992 24.9522 39.9992 25.4542C39.9992 25.9563 39.5922 26.3633 39.0901 26.3633Z" fill="#E8A15B"/>
<path d="M21.8602 49.9998C21.631 49.9996 21.4042 49.9523 21.194 49.8609L15.5064 47.503C15.0872 47.3299 14.7549 46.9958 14.584 46.5757C14.4152 46.1611 14.4226 45.6957 14.6044 45.2866L15.9589 42.0121C14.626 40.9983 13.4366 39.8085 12.4233 38.4752L9.11947 39.8397C8.70793 40.0117 8.24452 40.0109 7.83357 39.8375C7.42286 39.668 7.09599 39.3428 6.92449 38.9329L4.56906 33.2187C4.21223 32.3712 4.60601 31.3946 5.45087 31.0317L8.6722 29.704C8.97262 29.5803 9.31622 29.6263 9.57355 29.8246C9.83089 30.0229 9.96287 30.3435 9.91978 30.6655C9.87669 30.9875 9.66507 31.2621 9.36465 31.3858L6.30004 32.6479L8.55138 38.1073L12.3888 36.5225C12.7821 36.3606 13.2351 36.4927 13.4797 36.8407C14.6004 38.4415 15.9927 39.8336 17.5936 40.954C17.943 41.1983 18.0756 41.6527 17.9123 42.0465L16.3285 45.8754L21.7839 48.137L23.369 44.3058C23.5321 43.9115 23.9476 43.6836 24.3678 43.7581C26.2885 44.1003 28.2549 44.0976 30.1747 43.7501C30.5951 43.6751 31.0111 43.9021 31.1757 44.2961L32.7692 48.1339L38.2171 45.875L36.6323 42.0367C36.4694 41.6417 36.6035 41.1865 36.9546 40.9429C38.556 39.8281 39.9477 38.439 41.0655 36.8396C41.3099 36.4913 41.7634 36.3596 42.1564 36.5227L45.9927 38.1101L48.2563 32.6516L46.068 31.7407C45.6574 31.587 45.4151 31.1621 45.492 30.7305C45.5689 30.2989 45.943 29.9838 46.3814 29.9814C46.5042 29.9814 46.6259 30.005 46.7397 30.0511L49.076 31.0238C49.4918 31.1936 49.8211 31.5244 49.9891 31.9409C50.1574 32.3529 50.1563 32.8147 49.986 33.2259L47.621 38.9294C47.4503 39.3465 47.1191 39.6774 46.7018 39.8475C46.2846 40.0177 45.8164 40.0128 45.4028 39.8341L42.121 38.4757C41.1095 39.8082 39.9204 40.996 38.5868 42.0059L39.9495 45.3072C40.1247 45.7111 40.1289 46.1688 39.961 46.5758C39.7898 46.9971 39.4563 47.3317 39.0356 47.5044L33.3392 49.8663C32.9266 50.0391 32.4621 50.0397 32.0491 49.868C31.6361 49.6962 31.3089 49.3664 31.1406 48.9519L29.7721 45.6556C28.1148 45.8868 26.4336 45.8892 24.7757 45.6627L23.4129 48.9559C23.1547 49.5861 22.5418 49.9983 21.8607 49.9999L21.8602 49.9998ZM21.732 48.263V48.264V48.263ZM21.9015 48.1863H21.9024H21.9015ZM38.2741 46.0143L38.2767 46.021L38.2741 46.0143ZM16.2772 45.9988L16.2758 46.0015L16.2772 45.9988ZM38.3423 45.8234L38.3415 45.8239L38.3423 45.8234ZM16.1986 45.8222H16.1995H16.1986ZM45.9407 38.2359L45.9402 38.2367L45.9407 38.2359ZM8.42238 38.1604H8.42111H8.42238ZM46.1098 38.1591L46.1107 38.1595L46.1098 38.1591ZM48.3811 32.7037H48.3825H48.3811ZM6.24786 32.5204V32.5218V32.5204Z" fill="#637EA8"/>
<path d="M17.2722 10.9094C16.98 10.909 16.7058 10.7683 16.535 10.5312C16.3642 10.2942 16.3176 9.98951 16.4097 9.71223C18.4121 3.70557 23.4236 3.63629 23.6357 3.63629C24.1378 3.63506 24.5458 4.04108 24.547 4.54315C24.5483 5.04522 24.1423 5.45323 23.6402 5.45446C23.4639 5.45709 19.7069 5.57027 18.1346 10.2875C18.011 10.6588 17.6635 10.9094 17.2722 10.9094Z" fill="#637EA8"/>
</svg>
