<svg
        version="1.1"
        xmlns="http://www.w3.org/2000/svg"
        x="0px"
        y="0px"
        width="134.761px"
        height="85.369px"
        viewBox="0 0 134.761 85.369"
        enable-background="new 0 0 134.761 85.369"
        xml:space="preserve"
>
    <g>
      <rect
              x="87.46"
              y="4.926"
              width="34.497"
              height="10.287"
      />
        <path
                d="M105.448,21.279c-32.061,0-32.101,31.935-32.101,
            32.101c0,0-2.191,31.965,32.101,31.965
            c0,0,28.592,1.632,28.592-22.246h-14.682c0,
            0,0.482,8.991-13.428,8.991c0,0-14.682,0.977-14.682-14.528h43.283
            C134.531,57.562,139.294,21.279,105.448,
            21.279z M91.082,46.377c0,0,1.788-12.857,14.684-12.857
            c12.943,0,12.731,12.857,12.731,12.857H91.082z"
        />
        <path
                d="M54.394,38.157c0,0,12.733-0.927,12.733-15.901C67.127,
            7.322,56.714,0,43.489,0H0v83.597h43.489
            c0,0,26.564,0.821,26.564-24.692C70.053,58.905,
            71.193,38.157,54.394,38.157z M19.165,14.847h24.324c0,0,5.903,0,5.903,8.702
            c0,8.705-3.46,9.971-7.409,9.971H19.165V14.847z M42.272,
            68.749H19.165V46.377h24.324c0,0,8.828-0.077,8.791,11.514
            C52.28,67.656,45.729,68.67,42.272,68.749z"
        />
    </g>
  </svg>