<svg width="98" height="95" viewBox="0 0 98 95" fill="none" xmlns="http://www.w3.org/2000/svg">
<g clip-path="url(#clip0)">
<path d="M65.6217 68.1361H53.0252C52.4637 68.1361 52.0086 67.6806 52.0086 67.1186C52.0086 66.5566 52.4637 66.101 53.0252 66.101H65.6217C65.7435 66.101 65.875 66.0191 65.875 65.8869V24.8113C65.875 24.6904 65.7566 24.5844 65.6217 24.5844H31.7582C31.6176 24.5844 31.5547 24.6983 31.5547 24.8113V65.8869C31.5547 65.9904 31.6082 66.101 31.7582 66.101H44.5671C45.1286 66.101 45.5837 66.5566 45.5837 67.1186C45.5837 67.6806 45.1286 68.1361 44.5671 68.1361H31.7582C30.504 68.1361 29.5215 67.1481 29.5215 65.8869V24.8113C29.5215 23.5429 30.504 22.5492 31.7582 22.5492H65.6217C66.8825 22.5492 67.9082 23.564 67.9082 24.8113V65.8869C67.9082 67.1271 66.8825 68.1361 65.6217 68.1361Z" fill="#E8A15B"/>
<path d="M48.8365 76.954C48.4553 76.954 48.09 76.7385 47.9165 76.3705L43.7674 67.5736C43.5278 67.0653 43.7451 66.4589 44.2527 66.219C44.7605 65.979 45.3663 66.1965 45.606 66.7047L49.7551 75.5017C49.9948 76.0099 49.7775 76.6164 49.2698 76.8563C49.1297 76.9226 48.9819 76.954 48.8365 76.954Z" fill="#E8A15B"/>
<path d="M48.857 76.954C48.7116 76.954 48.5639 76.9226 48.4237 76.8563C47.9159 76.6164 47.6986 76.01 47.9384 75.5018L52.0874 66.7048C52.3271 66.1966 52.9331 65.9792 53.4407 66.2191C53.9484 66.459 54.1657 67.0654 53.926 67.5736L49.777 76.3706C49.6035 76.7384 49.2381 76.954 48.857 76.954Z" fill="#E8A15B"/>
<path d="M95.7323 45.5869H83.117C82.5556 45.5869 82.1004 45.1314 82.1004 44.5693C82.1004 44.0073 82.5556 43.5518 83.117 43.5518H95.7323C95.8452 43.5518 95.9668 43.4872 95.9668 43.3454V2.26991C95.9668 2.14048 95.8616 2.03514 95.7323 2.03514H61.8688C61.742 2.03514 61.6465 2.13608 61.6465 2.26991V18.886C61.6465 19.448 61.1914 19.9036 60.6299 19.9036C60.0684 19.9036 59.6133 19.448 59.6133 18.886V2.26991C59.6133 1.01831 60.6251 1.14441e-05 61.8688 1.14441e-05H95.7323C96.9827 1.14441e-05 98 1.01831 98 2.26991V43.3454C98 44.5814 96.9827 45.5869 95.7323 45.5869Z" fill="#637EA8"/>
<path d="M74.6588 45.5869H70.999C70.4376 45.5869 69.9824 45.1314 69.9824 44.5693C69.9824 44.0073 70.4376 43.5518 70.999 43.5518H74.6588C75.2202 43.5518 75.6754 44.0073 75.6754 44.5693C75.6754 45.1314 75.2202 45.5869 74.6588 45.5869Z" fill="#637EA8"/>
<path d="M78.947 54.4125C78.5658 54.4125 78.2004 54.1971 78.0269 53.8291L73.8778 45.0321C73.6381 44.5239 73.8554 43.9175 74.3632 43.6776C74.8709 43.4375 75.4767 43.6552 75.7165 44.1633L79.8655 52.9603C80.1052 53.4685 79.8879 54.0749 79.3802 54.3148C79.24 54.3812 79.0923 54.4125 78.947 54.4125Z" fill="#637EA8"/>
<path d="M78.9663 54.4125C78.8209 54.4125 78.6732 54.3812 78.5331 54.3149C78.0253 54.075 77.808 53.4685 78.0477 52.9603L82.1968 44.1634C82.4365 43.6552 83.0424 43.4377 83.5501 43.6776C84.0578 43.9175 84.2751 44.524 84.0355 45.0322L79.8863 53.8292C79.7128 54.197 79.3474 54.4125 78.9663 54.4125Z" fill="#637EA8"/>
<path d="M69.9588 31.012C69.5629 31.012 69.1866 30.7792 69.0224 30.3914C68.8032 29.874 69.0444 29.2767 69.5613 29.0573C71.1574 28.3797 72.9254 27.8548 72.9999 27.8329C73.5384 27.6736 74.1036 27.9817 74.2626 28.5205C74.4216 29.0595 74.1141 29.6254 73.5757 29.7846C73.5586 29.7898 71.8418 30.2998 70.3552 30.9309C70.2257 30.9859 70.0911 31.012 69.9588 31.012Z" fill="#3F496A"/>
<path d="M90.3959 39.0338C89.8345 39.0338 89.3793 38.5783 89.3793 38.0162V33.4828C89.3793 32.7986 89.1776 32.0505 89.0106 31.8872C88.3669 31.2579 85.7106 30.2705 84.03 29.7705C83.4919 29.6103 83.1852 29.0438 83.3451 28.5053C83.505 27.9666 84.071 27.6594 84.6089 27.8197C85.365 28.0444 89.1992 29.2268 90.4314 30.4315C91.3849 31.364 91.4125 33.2687 91.4125 33.4828V38.0162C91.4125 38.5783 90.9573 39.0338 90.3959 39.0338Z" fill="#3F496A"/>
<path d="M78.6035 39.0338C78.0421 39.0338 77.5869 38.5782 77.5869 38.0162V30.7712C77.5869 30.2092 78.0421 29.7536 78.6035 29.7536C79.1649 29.7536 79.6201 30.2092 79.6201 30.7712V38.0162C79.6201 38.5782 79.1649 39.0338 78.6035 39.0338Z" fill="#637EA8"/>
<path d="M86.0039 39.0338C85.4425 39.0338 84.9873 38.5783 84.9873 38.0162V36.1439C84.9873 35.5819 85.4425 35.1264 86.0039 35.1264C86.5653 35.1264 87.0205 35.5819 87.0205 36.1439V38.0162C87.0205 38.5783 86.5653 39.0338 86.0039 39.0338Z" fill="#637EA8"/>
<path d="M82.5879 27.7185C82.0265 27.7185 81.5713 27.2629 81.5713 26.7009V24.7472C81.5713 24.1852 82.0265 23.7296 82.5879 23.7296C83.1493 23.7296 83.6045 24.1852 83.6045 24.7472V26.7009C83.6045 27.2629 83.1493 27.7185 82.5879 27.7185Z" fill="#E8A15B"/>
<path d="M74.5371 27.7185C73.9757 27.7185 73.5205 27.2629 73.5205 26.7009V24.7472C73.5205 24.1852 73.9757 23.7296 74.5371 23.7296C75.0985 23.7296 75.5537 24.1852 75.5537 24.7472V26.7009C75.5537 27.2629 75.0985 27.7185 74.5371 27.7185Z" fill="#E8A15B"/>
<path d="M75.8776 33.6012C75.8432 33.6012 75.8087 33.5995 75.7742 33.5959C75.4758 33.5654 75.2062 33.4045 75.0373 33.1565L72.1852 28.965C71.8968 28.5412 71.9685 27.9689 72.3526 27.6294L73.9676 26.202C74.3192 25.8913 74.8373 25.8615 75.222 26.1302L79.3112 28.9851C79.5603 29.1589 79.7188 29.4352 79.7431 29.7382C79.7674 30.0412 79.6551 30.3392 79.4369 30.5506L76.5847 33.3148C76.3941 33.4994 76.1401 33.6012 75.8776 33.6012ZM74.3702 28.561L76.0379 31.0119L77.1361 29.9477L74.7143 28.2569L74.3702 28.561Z" fill="#637EA8"/>
<path d="M81.4966 33.6012C81.234 33.6012 80.9801 33.4994 80.7895 33.3147L77.9374 30.5506C77.7192 30.3391 77.6069 30.0411 77.6312 29.7381C77.6555 29.4351 77.8138 29.1589 78.063 28.985L82.1523 26.1301C82.5368 25.8616 83.0551 25.8912 83.4067 26.2019L85.0217 27.6293C85.4057 27.9687 85.4774 28.5412 85.1891 28.9649L82.337 33.1564C82.1681 33.4045 81.8984 33.5654 81.6001 33.5959C81.5655 33.5995 81.531 33.6012 81.4966 33.6012ZM80.2381 29.9477L81.3363 31.0119L83.004 28.561L82.66 28.257L80.2381 29.9477Z" fill="#637EA8"/>
<path d="M73.952 16.838C73.4359 16.838 72.9941 16.4464 72.9416 15.9217C72.9393 15.8987 72.8853 15.3527 72.8807 14.7795C72.8757 14.1556 72.8663 12.9944 73.7775 12.6628C74.3383 12.4587 77.1319 11.7981 79.2488 12.0954C81.4139 12.3996 84.1298 14.2106 84.2444 14.2876C84.7105 14.6008 84.8349 15.2329 84.522 15.6996C84.2093 16.1662 83.5778 16.2908 83.1113 15.9775C82.4374 15.5258 80.3778 14.3092 78.9662 14.1109C77.6126 13.9207 75.7872 14.2462 74.9179 14.4536C74.9049 14.7854 74.921 15.2825 74.9646 15.7192C75.0205 16.2784 74.6129 16.7771 74.0543 16.833C74.0199 16.8364 73.9858 16.838 73.952 16.838Z" fill="#637EA8"/>
<path d="M5.48925 39.1966C4.92777 39.1966 4.47266 38.7411 4.47266 38.179V33.5573C4.47266 33.3408 4.50275 31.415 5.54496 30.4574C6.82726 29.2791 11.6778 27.4056 12.6372 27.042C13.1624 26.843 13.749 27.1077 13.9478 27.6332C14.1467 28.1588 13.8822 28.7461 13.3571 28.9453C11.2773 29.7337 7.69055 31.2485 6.91989 31.9566C6.71478 32.145 6.50585 32.9529 6.50585 33.5573V38.179C6.50585 38.7411 6.05074 39.1966 5.48925 39.1966Z" fill="#3F496A"/>
<path d="M13.2158 27.8813C12.6543 27.8813 12.1992 27.4257 12.1992 26.8637V24.91C12.1992 24.348 12.6543 23.8924 13.2158 23.8924C13.7773 23.8924 14.2324 24.348 14.2324 24.91V26.8637C14.2324 27.4257 13.7773 27.8813 13.2158 27.8813Z" fill="#E8A15B"/>
<path d="M21.4297 28.6139C20.8682 28.6139 20.4131 28.1584 20.4131 27.5964V25.724C20.4131 25.162 20.8682 24.7065 21.4297 24.7065C21.9912 24.7065 22.4463 25.162 22.4463 25.724V27.5964C22.4463 28.1584 21.9912 28.6139 21.4297 28.6139Z" fill="#E8A15B"/>
<path d="M23.8037 18.3215C23.6673 18.3215 23.5287 18.2939 23.3957 18.2354C22.8816 18.0096 22.6477 17.4093 22.8734 16.8947C22.8864 16.8645 24.2666 13.6005 22.8698 10.8115C22.6181 10.3091 22.821 9.69765 23.3229 9.44586C23.825 9.19383 24.4357 9.3971 24.6873 9.89945C26.5184 13.5558 24.8088 17.5446 24.7351 17.7126C24.5679 18.0942 24.1949 18.3215 23.8037 18.3215Z" fill="#637EA8"/>
<path d="M17.462 26.9731C15.2836 26.9731 13.4929 26.2798 12.1396 24.9124C9.57888 22.3249 9.58734 18.2622 9.58896 18.0905C9.59425 17.5285 10.0527 17.0734 10.6151 17.0826C11.1765 17.0879 11.6274 17.5477 11.6221 18.1097C11.6219 18.1413 11.6278 21.5121 13.5916 23.4877C14.5482 24.4501 15.8504 24.938 17.462 24.938C18.9703 24.938 20.1283 24.4843 21.0023 23.5511C23.0254 21.3907 22.793 17.411 22.7904 17.3711C22.7542 16.8109 23.1779 16.3264 23.7376 16.2892C24.2976 16.2517 24.7811 16.6746 24.8191 17.2347C24.8326 17.4329 25.1186 22.1224 22.4928 24.9352C21.2306 26.2875 19.538 26.9731 17.462 26.9731Z" fill="#E8A15B"/>
<path d="M8.35079 21.5987C8.14064 21.5987 7.9287 21.5337 7.74685 21.399C7.29557 21.0646 7.20049 20.4274 7.53443 19.9757L11.4334 14.7023C11.5027 14.6086 11.5874 14.5276 11.6841 14.4627C11.7985 14.3858 14.5103 12.5775 16.6723 12.2738C18.7864 11.9767 21.5758 12.6364 22.1359 12.8403C22.6635 13.0323 22.9356 13.6162 22.7439 14.1444C22.5521 14.6724 21.969 14.945 21.4414 14.7531C21.0497 14.6144 18.6373 14.0526 16.9549 14.2892C15.6297 14.4754 13.7448 15.5526 12.96 16.0586L9.16879 21.1864C8.96937 21.456 8.66204 21.5987 8.35079 21.5987Z" fill="#637EA8"/>
<path d="M17.469 31.337C13.7191 31.337 12.1856 28.2879 12.1222 28.1581C11.8755 27.6533 12.0843 27.0439 12.5886 26.797C13.091 26.551 13.6972 26.7574 13.9457 27.258C13.9954 27.3553 15.0215 29.3019 17.4691 29.3019C19.6222 29.3019 20.8133 27.232 20.825 27.2111C21.1008 26.7215 21.7208 26.5485 22.2099 26.8246C22.6989 27.1006 22.8718 27.7212 22.596 28.2107C22.524 28.3385 20.7964 31.337 17.469 31.337Z" fill="#3F496A"/>
<path d="M25.3333 30.6443C25.1956 30.6443 25.0558 30.6162 24.9218 30.5567L21.223 28.9152C20.7097 28.6874 20.4781 28.0863 20.7057 27.5725C20.9332 27.0588 21.5339 26.8268 22.0471 27.0547L25.7459 28.6961C26.2591 28.9239 26.4908 29.5251 26.2632 30.0388C26.095 30.4185 25.7231 30.6443 25.3333 30.6443Z" fill="#3F496A"/>
<path d="M8.69565 30.8125C8.4589 30.8125 8.22118 30.7302 8.02851 30.5625L5.63715 28.4785C5.3042 28.1883 5.19644 27.716 5.3704 27.3099C5.37853 27.291 6.18774 25.395 6.93986 23.0426C7.18384 22.2796 7.33804 20.57 7.50143 18.7599C7.92368 14.0804 8.33138 10.6336 9.73957 9.12114C12.0025 6.69013 16.4076 6.59383 16.594 6.59383C16.5979 6.59383 16.6018 6.59383 16.6056 6.59383C17.1618 6.59383 17.6157 7.05939 17.6219 7.6175C17.6281 8.17895 17.1788 8.64801 16.618 8.65501C16.5809 8.6555 12.8931 8.73161 11.2269 10.5215C10.1848 11.641 9.78861 16.0347 9.52633 18.9407C9.34505 20.9492 9.18857 22.6849 8.87628 23.6616C8.36399 25.2641 7.83601 26.6402 7.52241 27.4225L9.36359 29.0272C9.78707 29.3962 9.83147 30.0391 9.46281 30.463C9.26177 30.6941 8.97948 30.8125 8.69565 30.8125Z" fill="#637EA8"/>
<path d="M25.4486 30.6135C25.1648 30.6135 24.8825 30.4952 24.6814 30.2641C24.3128 29.8402 24.3572 29.1974 24.7807 28.8284L26.3935 27.423C26.0799 26.6407 25.5519 25.2652 25.0396 23.6626C24.7274 22.6859 24.5708 20.9513 24.3895 18.9428C24.1273 16.0368 23.731 11.6453 22.6889 10.5258C21.2982 9.03206 18.3268 8.67518 17.2992 8.66371C16.7378 8.65744 16.2877 8.19685 16.294 7.63491C16.3003 7.07297 16.7577 6.62467 17.3218 6.62874C17.5082 6.63077 21.9134 6.70754 24.1764 9.13846C25.5845 10.6511 25.9922 14.0803 26.4145 18.7597C26.5778 20.5698 26.7322 22.2794 26.9761 23.0424C27.73 25.4004 28.5374 27.2908 28.5455 27.3096C28.7197 27.7159 28.6118 28.1882 28.2788 28.4784L26.1157 30.3633C25.9231 30.5312 25.6853 30.6135 25.4486 30.6135Z" fill="#637EA8"/>
<path d="M14.883 45.5869H2.23245C0.980651 45.5869 0 44.6023 0 43.3454V2.26991C0 0.997062 0.980651 1.14441e-05 2.23245 1.14441e-05H36.0959C37.3591 1.14441e-05 38.3867 1.01831 38.3867 2.26991V18.886C38.3867 19.448 37.9316 19.9036 37.3701 19.9036C36.8086 19.9036 36.3535 19.448 36.3535 18.886V2.26991C36.3535 2.14707 36.2307 2.03514 36.096 2.03514H2.23245C2.09557 2.03514 2.0332 2.15684 2.0332 2.26991V43.3454C2.0332 43.4766 2.10582 43.5518 2.23245 43.5518H14.883C15.4445 43.5518 15.8996 44.0073 15.8996 44.5693C15.8996 45.1314 15.4445 45.5869 14.883 45.5869Z" fill="#3F496A"/>
<path d="M27.0008 45.5869H23.2598C22.6983 45.5869 22.2432 45.1314 22.2432 44.5693C22.2432 44.0073 22.6983 43.5518 23.2598 43.5518H27.0008C27.5623 43.5518 28.0174 44.0073 28.0174 44.5693C28.0174 45.1314 27.5623 45.5869 27.0008 45.5869Z" fill="#3F496A"/>
<path d="M62.4189 95C61.8575 95 61.4023 94.5481 61.4023 93.9908V81.1527C61.4023 80.5953 61.8575 80.1434 62.4189 80.1434C62.9804 80.1434 63.4356 80.5953 63.4356 81.1527V93.9908C63.4356 94.5481 62.9804 95 62.4189 95Z" fill="#637EA8"/>
<path d="M19.0181 54.4125C18.8727 54.4125 18.725 54.3812 18.5848 54.3149C18.0771 54.075 17.8598 53.4686 18.0995 52.9603L22.2486 44.1634C22.4884 43.6552 23.0943 43.4378 23.6019 43.6776C24.1096 43.9175 24.3269 44.524 24.0872 45.0322L19.9381 53.8292C19.7645 54.197 19.3992 54.4125 19.0181 54.4125Z" fill="#3F496A"/>
<path d="M18.9986 54.4125C18.6175 54.4125 18.2521 54.1971 18.0787 53.8291L13.9296 45.0321C13.6899 44.5239 13.9072 43.9175 14.4148 43.6776C14.9225 43.4376 15.5285 43.6552 15.7681 44.1633L19.9172 52.9603C20.1569 53.4685 19.9396 54.0749 19.432 54.3148C19.2917 54.3812 19.144 54.4125 18.9986 54.4125Z" fill="#3F496A"/>
<path d="M95.7179 94.9998H2.24676C0.986913 94.9998 0 94.0214 0 92.7723V82.2895C0 81.0632 0.986913 80.1027 2.24676 80.1027H95.7179C96.9976 80.1027 98 81.0632 98 82.2895V92.7723C98 94.0006 96.9762 94.9998 95.7179 94.9998ZM2.24676 82.1378C2.18251 82.1378 2.0332 82.1526 2.0332 82.2895V92.7723C2.0332 92.8874 2.119 92.9647 2.24676 92.9647H95.7179C95.8668 92.9647 95.9668 92.8652 95.9668 92.7723V82.2895C95.9668 82.1946 95.8403 82.1378 95.7179 82.1378H2.24676Z" fill="#3F496A"/>
<path d="M71.8938 88.8131H69.21C68.6486 88.8131 68.1934 88.3575 68.1934 87.7955C68.1934 87.2335 68.6486 86.7779 69.21 86.7779H71.8938C72.4552 86.7779 72.9104 87.2335 72.9104 87.7955C72.9104 88.3575 72.4552 88.8131 71.8938 88.8131Z" fill="#E8A15B"/>
<path d="M80.677 88.8131H77.9932C77.4318 88.8131 76.9766 88.3575 76.9766 87.7955C76.9766 87.2335 77.4318 86.7779 77.9932 86.7779H80.677C81.2384 86.7779 81.6936 87.2335 81.6936 87.7955C81.6936 88.3575 81.2384 88.8131 80.677 88.8131Z" fill="#E8A15B"/>
<path d="M89.4612 88.8131H86.7773C86.2159 88.8131 85.7607 88.3575 85.7607 87.7955C85.7607 87.2335 86.2159 86.7779 86.7773 86.7779H89.4612C90.0226 86.7779 90.4778 87.2335 90.4778 87.7955C90.4778 88.3575 90.0226 88.8131 89.4612 88.8131Z" fill="#E8A15B"/>
<path d="M37.126 61.583C36.5645 61.583 36.1094 61.1275 36.1094 60.5655V56.0242C36.1094 55.6744 36.1565 53.8832 37.0855 52.9748C38.3177 51.77 42.1477 50.5893 42.9029 50.3648C43.4411 50.2048 44.0069 50.5119 44.1668 51.0506C44.3266 51.5892 44.0199 52.1557 43.4818 52.3158C41.8032 52.8151 39.1499 53.8013 38.5063 54.4306C38.3416 54.5917 38.1426 55.3384 38.1426 56.0242V60.5655C38.1426 61.1275 37.6874 61.583 37.126 61.583Z" fill="#3F496A"/>
<path d="M60.3038 61.583C59.7424 61.583 59.2872 61.1275 59.2872 60.5655V56.0242C59.2872 55.3626 59.0819 54.595 58.9138 54.4306C58.2703 53.8014 55.6115 52.8153 53.9291 52.316C53.3909 52.1562 53.0838 51.59 53.2434 51.0512C53.4028 50.5123 53.9684 50.205 54.5067 50.3646C55.2637 50.589 59.102 51.7697 60.3345 52.9748C61.2928 53.9118 61.3204 55.8108 61.3204 56.0242V60.5655C61.3204 61.1275 60.8652 61.583 60.3038 61.583Z" fill="#3F496A"/>
<path d="M41.1924 61.583C40.6309 61.583 40.1758 61.1275 40.1758 60.5655V58.6931C40.1758 58.1311 40.6309 57.6756 41.1924 57.6756C41.7539 57.6756 42.209 58.1311 42.209 58.6931V60.5655C42.209 61.1275 41.7539 61.583 41.1924 61.583Z" fill="#637EA8"/>
<path d="M48.5117 61.583C47.9503 61.583 47.4951 61.1274 47.4951 60.5655V53.3204C47.4951 52.7585 47.9503 52.3028 48.5117 52.3028C49.0731 52.3028 49.5283 52.7585 49.5283 53.3204V60.5655C49.5283 61.1274 49.0731 61.583 48.5117 61.583Z" fill="#637EA8"/>
<path d="M55.8311 61.583C55.2696 61.583 54.8145 61.1275 54.8145 60.5655V58.6931C54.8145 58.1311 55.2696 57.6756 55.8311 57.6756C56.3926 57.6756 56.8477 58.1311 56.8477 58.6931V60.5655C56.8477 61.1275 56.3926 61.583 55.8311 61.583Z" fill="#637EA8"/>
<path d="M52.415 50.2677C51.8535 50.2677 51.3984 49.8122 51.3984 49.2502V47.2964C51.3984 46.7344 51.8535 46.2789 52.415 46.2789C52.9765 46.2789 53.4316 46.7344 53.4316 47.2964V49.2502C53.4316 49.8122 52.9765 50.2677 52.415 50.2677Z" fill="#E8A15B"/>
<path d="M44.4453 50.2677C43.8838 50.2677 43.4287 49.8122 43.4287 49.2502V47.2964C43.4287 46.7344 43.8838 46.2789 44.4453 46.2789C45.0068 46.2789 45.4619 46.7344 45.4619 47.2964V49.2502C45.4619 49.8122 45.0068 50.2677 44.4453 50.2677Z" fill="#E8A15B"/>
<path d="M45.7673 56.1427C45.733 56.1427 45.6985 56.1409 45.664 56.1374C45.3656 56.1068 45.0959 55.9461 44.927 55.6979L42.0749 51.5065C41.7865 51.0827 41.8581 50.5103 42.2422 50.1708L43.8573 48.7434C44.2088 48.4327 44.7271 48.403 45.1117 48.6716L49.201 51.5265C49.4501 51.7004 49.6084 51.9767 49.6328 52.2796C49.6571 52.5826 49.5448 52.8807 49.3266 53.0921L46.4744 55.8562C46.2838 56.0408 46.0298 56.1427 45.7673 56.1427ZM44.26 51.1024L45.9277 53.5533L47.0258 52.4891L44.6041 50.7983L44.26 51.1024Z" fill="#637EA8"/>
<path d="M51.3863 56.1426C51.1237 56.1426 50.8697 56.0408 50.6792 55.8561L47.827 53.092C47.6088 52.8805 47.4965 52.5825 47.5208 52.2796C47.5452 51.9765 47.7035 51.7003 47.9526 51.5264L52.0419 48.6715C52.4265 48.4029 52.9448 48.4327 53.2963 48.7433L54.9114 50.1708C55.2954 50.5101 55.3671 51.0826 55.0787 51.5064L52.2266 55.6978C52.0577 55.946 51.788 56.1068 51.4896 56.1373C51.4552 56.1409 51.4206 56.1426 51.3863 56.1426ZM50.1278 52.4891L51.2259 53.5533L52.8936 51.1024L52.5496 50.7984L50.1278 52.4891Z" fill="#637EA8"/>
<path d="M43.8415 39.3795C43.3256 39.3795 42.8836 38.9879 42.8312 38.4631C42.8289 38.4402 42.775 37.8942 42.7704 37.321C42.7653 36.6971 42.756 35.5359 43.6672 35.2042C44.2279 35.0002 47.0214 34.3395 49.1385 34.6369C51.3036 34.9411 54.0194 36.7521 54.134 36.8291C54.6001 37.1423 54.7245 37.7744 54.4116 38.2411C54.0987 38.7077 53.4671 38.8322 53.001 38.519C52.3269 38.0673 50.2673 36.8507 48.8559 36.6524C47.5021 36.462 45.6768 36.7877 44.8074 36.9951C44.7944 37.3269 44.8105 37.8239 44.8542 38.2607C44.9101 38.8199 44.5025 39.3185 43.9438 39.3745C43.9095 39.3779 43.8754 39.3795 43.8415 39.3795Z" fill="#637EA8"/>
<path d="M42.9292 39.2687C42.9151 39.2358 41.5308 35.9436 42.9309 33.148C43.633 31.746 46.7111 31.2471 47.7751 31.1782H55.0672C54.9254 32.3383 54.7793 34.2105 54.9431 36.2812C55.0824 38.0429 54.8771 38.6962 54.8055 38.8641C54.5651 39.0495 54.4145 39.3379 54.4096 39.6542C54.4096 39.6563 54.4091 39.6818 54.4072 39.7258H56.6474C56.6816 39.6514 56.7144 39.5719 56.745 39.4854C57.0152 38.7234 57.0888 37.6227 56.97 36.1206C56.7273 33.0514 57.2408 30.3841 57.2459 30.3582C57.305 30.0595 57.2273 29.75 57.0342 29.5148C56.8411 29.2795 56.5529 29.1432 56.2486 29.1432H47.7437C47.7242 29.1432 47.7047 29.1437 47.6853 29.1449C47.1558 29.1754 42.4731 29.521 41.1133 32.2361C39.5706 35.3165 40.5375 38.6469 40.9266 39.7259H43.0107C43.0188 39.5699 42.9908 39.4121 42.9292 39.2687Z" fill="#3F496A"/>
<path d="M54.4072 39.7258C54.392 40.0954 54.2825 41.8581 53.5523 43.6133C53.511 43.7127 53.4681 43.8092 53.4244 43.9045C52.386 46.1717 50.6803 47.3213 48.3495 47.3213C46.8382 47.3213 45.678 46.8667 44.8023 45.9316C44.2579 45.3501 43.8766 44.6371 43.61 43.9044C42.8842 41.9101 43.0091 39.7702 43.0109 39.7421C43.0113 39.7367 43.0107 39.7311 43.0109 39.7256H40.9268C40.9425 39.7694 40.9577 39.8109 40.9714 39.8471C40.9535 40.4623 40.9641 42.1307 41.4757 43.9044C41.8173 45.0886 42.3819 46.3196 43.3116 47.3156C44.5756 48.6697 46.2705 49.3563 48.3493 49.3563C51.631 49.3563 54.0792 47.6409 55.4292 44.3955C55.4974 44.2314 55.5611 44.0675 55.6205 43.9044C56.1963 42.3235 56.3691 40.8277 56.4208 40.1161C56.5002 40.0082 56.577 39.879 56.6474 39.7257H54.4072V39.7258Z" fill="#E8A15B"/>
<path d="M73.1209 17.2008C73.1318 17.0397 73.1032 16.8759 73.0396 16.7276C73.0254 16.6947 71.641 13.3985 73.0413 10.6026C73.7435 9.2005 76.8213 8.69888 77.8857 8.62895H85.1776C85.0358 9.79004 84.8895 11.6642 85.0533 13.7357C85.193 15.5023 84.9863 16.1562 84.9146 16.3234C84.6749 16.5089 84.5248 16.7968 84.5198 17.1126C84.5197 17.1163 84.5183 17.1872 84.5109 17.3121H86.6939C86.7515 17.2034 86.8061 17.0806 86.8555 16.9412C87.1254 16.1781 87.1989 15.0771 87.0802 13.5751C86.8375 10.5057 87.3511 7.83444 87.3562 7.80863C87.4153 7.50996 87.3375 7.20054 87.1444 6.96528C86.9513 6.7301 86.6631 6.59374 86.359 6.59374H77.8539C77.8341 6.59374 77.8143 6.59431 77.7946 6.59545C77.2651 6.62639 72.583 6.97602 71.2235 9.69048C69.618 12.8963 70.731 16.3773 71.0815 17.3055C71.0815 17.3076 71.0815 17.3101 71.0814 17.3121H73.1161C73.1184 17.2432 73.1207 17.2043 73.1209 17.2008Z" fill="#637EA8"/>
<path d="M84.511 17.3122C84.4782 17.863 84.3285 19.4708 83.6625 21.0718C83.5576 21.324 83.4447 21.5628 83.3245 21.7895C82.2727 23.7742 80.6396 24.7799 78.4597 24.7799C76.9485 24.7799 75.7882 24.3253 74.9126 23.3902C74.4745 22.9224 74.1421 22.3693 73.8899 21.7895C73.0857 19.9397 73.0998 17.8168 73.1163 17.3122H71.0815C71.0624 17.9817 71.0782 19.8682 71.7186 21.7895C72.0682 22.8383 72.6033 23.8974 73.4219 24.7744C74.6859 26.1285 76.3809 26.815 78.4596 26.815C81.7413 26.815 84.1895 25.0996 85.5395 21.8542C85.5485 21.8326 85.557 21.8111 85.5658 21.7896C86.2746 20.0556 86.4749 18.3486 86.5311 17.5737C86.5871 17.4975 86.6418 17.4105 86.694 17.3123H84.511V17.3122Z" fill="#E8A15B"/>
</g>
<defs>
<clipPath id="clip0">
<rect width="98" height="95" fill="white"/>
</clipPath>
</defs>
</svg>
