<svg width="97" height="96" viewBox="0 0 97 96" fill="none" xmlns="http://www.w3.org/2000/svg">
<path d="M63.7681 63.106C67.9391 58.979 70.236 53.499 70.236 47.678C70.236 41.545 67.606 35.659 63.0201 31.53C62.841 31.369 62.6101 31.28 62.369 31.28C62.094 31.28 61.84 31.391 61.654 31.593C61.479 31.783 61.39 32.029 61.402 32.286C61.415 32.543 61.527 32.779 61.718 32.952C65.901 36.719 68.299 42.087 68.299 47.679C68.299 58.657 59.274 67.587 48.179 67.587C37.085 67.587 28.059 58.656 28.059 47.678C28.059 36.7 37.085 27.77 48.179 27.77C50.895 27.77 53.531 28.296 56.011 29.334C56.132 29.385 56.258 29.41 56.386 29.41C56.7771 29.41 57.127 29.18 57.279 28.824C57.38 28.587 57.383 28.326 57.285 28.088C57.188 27.85 57.003 27.664 56.764 27.565C54.044 26.427 51.156 25.849 48.18 25.849C36.018 25.849 26.123 35.641 26.123 47.677C26.123 59.713 36.017 69.505 48.179 69.505C54.061 69.506 59.597 67.233 63.7681 63.106Z" fill="#3F496A"/>
<path d="M48.4836 19.507C32.7876 19.507 20.0176 32.145 20.0176 47.678C20.0176 59.026 26.8416 69.215 37.4036 73.636C37.5246 73.687 37.6506 73.712 37.7786 73.712C38.1686 73.712 38.5186 73.482 38.6716 73.126C38.7726 72.891 38.7746 72.631 38.6786 72.394C38.5816 72.154 38.3966 71.967 38.1566 71.867C28.3136 67.747 21.9536 58.253 21.9536 47.679C21.9536 33.204 33.8546 21.428 48.4836 21.428C63.1116 21.428 75.0126 33.204 75.0126 47.679C75.0126 62.154 63.1116 73.93 48.4836 73.93C47.2686 73.93 46.0466 73.848 44.8526 73.686C44.8086 73.68 44.7636 73.677 44.7196 73.677C44.2396 73.677 43.8276 74.034 43.7626 74.507C43.7276 74.759 43.7936 75.011 43.9486 75.215C44.1046 75.422 44.3336 75.555 44.5916 75.59C45.8716 75.763 47.1816 75.851 48.4846 75.851C64.1806 75.851 76.9506 63.213 76.9506 47.68C76.9496 32.144 64.1796 19.507 48.4836 19.507Z" fill="#637EA8"/>
<path d="M93.407 41.259L87.684 40.746L87.327 40.714L87.261 40.367C86.915 38.548 86.435 36.739 85.834 34.99L85.72 34.657L86.012 34.457L90.735 31.224C92.126 30.272 92.546 28.455 91.713 26.998L88.507 21.392C87.93 20.384 86.852 19.757 85.694 19.757C85.23 19.757 84.777 19.855 84.347 20.047L79.105 22.393L78.778 22.539L78.547 22.268C77.418 20.949 76.193 19.693 74.906 18.536L74.642 18.3L74.8 17.985L77.353 12.883C78.103 11.383 77.582 9.592 76.141 8.717L70.593 5.35C70.077 5.037 69.488 4.871 68.891 4.871C67.863 4.871 66.917 5.344 66.296 6.169L62.864 10.726L62.65 11.01L62.315 10.884C60.134 10.063 57.864 9.43 55.569 9.003L55.217 8.937L55.185 8.586L54.667 2.923C54.514 1.257 53.125 1.90735e-06 51.435 1.90735e-06H44.926C43.236 1.90735e-06 41.846 1.257 41.694 2.923L41.176 8.587L41.144 8.938L40.792 9.004C38.957 9.346 37.129 9.821 35.359 10.416L35.019 10.531L34.815 10.24L31.547 5.566C30.939 4.696 29.944 4.177 28.887 4.177C28.33 4.177 27.775 4.323 27.282 4.599L21.617 7.772C20.145 8.596 19.561 10.368 20.258 11.893L22.629 17.08L22.775 17.4L22.504 17.628C21.17 18.745 19.902 19.958 18.733 21.231L18.492 21.493L18.17 21.336L13.015 18.809C12.557 18.585 12.07 18.471 11.566 18.471C10.437 18.471 9.407 19.046 8.81 20.009L5.407 25.5C4.522 26.927 4.878 28.757 6.234 29.757L10.84 33.153L11.126 33.364L11 33.691C10.17 35.849 9.531 38.096 9.099 40.367L9.033 40.714L8.676 40.746L2.953 41.259C1.269 41.41 0 42.785 0 44.459V50.901C0 52.575 1.269 53.95 2.953 54.101L8.676 54.614L9.033 54.646L9.099 54.993C9.445 56.811 9.925 58.62 10.526 60.37L10.64 60.703L10.347 60.904L5.624 64.137C4.234 65.089 3.813 66.906 4.646 68.363L7.853 73.969C8.43 74.977 9.507 75.604 10.666 75.604C11.129 75.604 11.583 75.507 12.013 75.314L17.255 72.968L17.582 72.822L17.813 73.093C18.941 74.411 20.166 75.667 21.454 76.825L21.717 77.062L21.56 77.377L19.007 82.479C18.256 83.979 18.777 85.77 20.218 86.645L25.768 90.012C26.285 90.326 26.874 90.492 27.47 90.492C28.498 90.492 29.443 90.019 30.064 89.194L33.496 84.637L33.71 84.353L34.045 84.479C36.225 85.3 38.495 85.933 40.791 86.36L41.143 86.425L41.175 86.777L41.693 92.44C41.845 94.107 43.235 95.363 44.925 95.363H51.435C53.124 95.363 54.514 94.106 54.666 92.44L55.184 86.776L55.216 86.425L55.568 86.359C57.404 86.017 59.232 85.542 61.001 84.947L61.34 84.832L61.544 85.124L64.812 89.797C65.42 90.667 66.415 91.187 67.472 91.187C68.029 91.187 68.584 91.041 69.077 90.765L74.742 87.592C76.214 86.768 76.798 84.996 76.101 83.471L73.73 78.283L73.584 77.963L73.855 77.735C75.187 76.619 76.456 75.407 77.626 74.132L77.866 73.87L78.188 74.027L83.343 76.554C83.801 76.778 84.289 76.892 84.792 76.892C85.922 76.892 86.952 76.317 87.548 75.354L90.951 69.863C91.836 68.436 91.48 66.605 90.123 65.606L85.518 62.21L85.232 61.999L85.358 61.67C86.188 59.511 86.827 57.264 87.259 54.994L87.325 54.647L87.682 54.615L93.405 54.102C95.088 53.951 96.358 52.576 96.358 50.902V44.46C96.36 42.785 95.091 41.409 93.407 41.259ZM83.477 63.095L88.969 67.144C89.515 67.546 89.658 68.282 89.302 68.855L85.899 74.346C85.659 74.733 85.243 74.965 84.786 74.965C84.585 74.965 84.384 74.918 84.202 74.829L78.057 71.817C77.922 71.751 77.778 71.718 77.629 71.718C77.347 71.718 77.079 71.84 76.894 72.052C75.356 73.825 73.639 75.466 71.789 76.93C71.442 77.204 71.328 77.676 71.511 78.077L74.337 84.26C74.617 84.873 74.381 85.585 73.789 85.917L68.124 89.09C67.926 89.201 67.703 89.259 67.478 89.259C67.05 89.259 66.648 89.05 66.403 88.7L62.507 83.128C62.326 82.869 62.028 82.715 61.711 82.715C61.597 82.715 61.483 82.735 61.374 82.775C59.049 83.631 56.624 84.262 54.167 84.649C53.729 84.718 53.394 85.072 53.354 85.511L52.736 92.265C52.674 92.936 52.114 93.442 51.433 93.442H44.923C44.241 93.442 43.681 92.936 43.62 92.265L43.002 85.512C42.962 85.074 42.628 84.72 42.189 84.65C39.294 84.194 36.454 83.402 33.747 82.296C33.629 82.248 33.505 82.224 33.378 82.224C33.074 82.224 32.783 82.368 32.602 82.61L28.51 88.044C28.264 88.371 27.872 88.566 27.462 88.566C27.221 88.566 26.983 88.499 26.776 88.373L21.227 85.006C20.648 84.654 20.438 83.934 20.739 83.331L23.782 77.25C23.98 76.856 23.882 76.38 23.545 76.094C21.753 74.572 20.095 72.872 18.616 71.042C18.431 70.813 18.156 70.682 17.86 70.682C17.722 70.682 17.588 70.711 17.462 70.767L11.214 73.564C11.042 73.641 10.86 73.68 10.672 73.68C10.203 73.68 9.767 73.428 9.535 73.022L6.329 67.417C5.996 66.83 6.166 66.1 6.725 65.717L12.356 61.861C12.721 61.611 12.868 61.148 12.713 60.736C11.848 58.435 11.211 56.036 10.82 53.605C10.75 53.17 10.393 52.839 9.95 52.8L3.126 52.189C2.448 52.128 1.936 51.574 1.936 50.901V44.459C1.936 43.786 2.448 43.232 3.126 43.171L9.95 42.56C10.392 42.52 10.749 42.189 10.819 41.755C11.279 38.891 12.079 36.081 13.197 33.402C13.367 32.995 13.237 32.528 12.88 32.265L7.388 28.215C6.843 27.813 6.7 27.077 7.055 26.504L10.458 21.013C10.698 20.626 11.114 20.394 11.572 20.394C11.772 20.394 11.974 20.441 12.155 20.529L18.3 23.541C18.435 23.607 18.579 23.641 18.728 23.641C19.011 23.641 19.279 23.519 19.463 23.307C21.002 21.533 22.72 19.892 24.568 18.43C24.915 18.155 25.029 17.684 24.846 17.283L22.02 11.1C21.74 10.487 21.975 9.775 22.567 9.443L28.232 6.27C28.432 6.159 28.656 6.1 28.881 6.1C29.309 6.1 29.711 6.309 29.956 6.659L33.852 12.231C34.033 12.49 34.331 12.644 34.648 12.644C34.763 12.644 34.876 12.624 34.985 12.584C37.31 11.728 39.735 11.097 42.192 10.71C42.63 10.641 42.965 10.287 43.005 9.849L43.623 3.095C43.685 2.425 44.245 1.919 44.926 1.919H51.435C52.117 1.919 52.677 2.425 52.738 3.096L53.356 9.85C53.396 10.288 53.731 10.642 54.169 10.711C57.065 11.167 59.905 11.959 62.611 13.065C62.728 13.113 62.852 13.138 62.979 13.138C63.284 13.138 63.574 12.994 63.756 12.752L67.848 7.317C68.095 6.99 68.487 6.795 68.896 6.795C69.137 6.795 69.375 6.862 69.583 6.988L75.132 10.355C75.711 10.707 75.921 11.427 75.62 12.03L72.576 18.111C72.379 18.506 72.477 18.981 72.814 19.267C74.606 20.79 76.265 22.49 77.743 24.319C77.928 24.548 78.203 24.679 78.499 24.679C78.637 24.679 78.771 24.65 78.897 24.594L85.145 21.798C85.317 21.721 85.499 21.682 85.687 21.682C86.156 21.682 86.592 21.934 86.824 22.34L90.031 27.946C90.365 28.531 90.196 29.261 89.637 29.644L84.006 33.5C83.64 33.75 83.494 34.213 83.649 34.625C84.515 36.928 85.151 39.327 85.542 41.756C85.612 42.19 85.969 42.521 86.411 42.561L93.236 43.172C93.915 43.233 94.426 43.787 94.426 44.46V50.9V51.367H94.344L94.295 51.468C94.094 51.877 93.699 52.146 93.236 52.188L86.411 52.799C85.969 52.839 85.612 53.17 85.542 53.604C85.082 56.469 84.282 59.279 83.164 61.957C82.99 62.364 83.121 62.832 83.477 63.095Z" fill="#3F496A"/>
<path d="M41.0794 42.988C41.2624 42.807 41.3634 42.565 41.3634 42.309C41.3634 42.052 41.2624 41.81 41.0794 41.629C40.8964 41.448 40.6534 41.348 40.3954 41.348C40.1374 41.348 39.8944 41.448 39.7114 41.629L33.6434 47.634C33.4604 47.815 33.3594 48.056 33.3594 48.313C33.3594 48.57 33.4604 48.812 33.6434 48.993L39.9514 55.236C40.1344 55.417 40.3774 55.517 40.6354 55.517C40.8934 55.517 41.1364 55.417 41.3194 55.236C41.5024 55.055 41.6034 54.813 41.6034 54.556C41.6034 54.299 41.5024 54.058 41.3194 53.877L36.0304 48.643L35.6974 48.313L36.0304 47.984L41.0794 42.988Z" fill="#E8A15B"/>
<path d="M55.2799 54.055C55.0959 54.236 54.9959 54.478 54.9959 54.735C54.9959 54.992 55.0969 55.233 55.2799 55.414C55.4629 55.595 55.7059 55.695 55.9639 55.695C56.2219 55.695 56.4639 55.595 56.6479 55.414L62.7169 49.409C62.8989 49.227 62.9999 48.986 62.9999 48.729C62.9999 48.472 62.8989 48.231 62.7159 48.05L56.4069 41.807C56.2239 41.626 55.9809 41.527 55.7229 41.527C55.4649 41.527 55.2219 41.627 55.0389 41.808C54.8559 41.989 54.7549 42.231 54.7549 42.487C54.7549 42.744 54.8559 42.986 55.0389 43.167L60.3279 48.401L60.6609 48.731L60.3279 49.061L55.2799 54.055Z" fill="#E8A15B"/>
<path d="M51.8472 37.287C51.7492 37.256 51.6492 37.24 51.5492 37.24C51.1282 37.24 50.7582 37.507 50.6292 37.904L43.8232 58.722C43.7432 58.965 43.7642 59.224 43.8812 59.452C43.9992 59.682 44.1992 59.853 44.4472 59.932C44.5452 59.963 44.6452 59.979 44.7452 59.979C45.1662 59.979 45.5362 59.712 45.6652 59.314L52.4712 38.496C52.5512 38.253 52.5302 37.994 52.4132 37.766C52.2952 37.537 52.0942 37.366 51.8472 37.287Z" fill="#637EA8"/>
</svg>
