<svg width="50" height="44" viewBox="0 0 50 44" fill="none" xmlns="http://www.w3.org/2000/svg">
<path d="M49.9847 26.675C49.7077 21.756 45.6367 17.902 40.7157 17.902C40.5397 17.902 40.3617 17.907 40.1867 17.917C37.6657 18.058 35.3197 19.218 33.6767 21.12L29.7627 21.203C29.3927 21.211 29.0587 21.425 28.8967 21.759C28.7357 22.092 28.7747 22.488 28.9987 22.783L31.4847 26.065C31.4487 26.36 31.4277 26.656 31.4197 26.952C29.6487 25.796 27.5927 24.902 25.3737 24.32C25.4187 24.291 25.4637 24.263 25.5087 24.234C27.9567 22.599 29.5867 20.23 30.0767 17.689C31.0537 17.418 31.9037 16.743 32.4387 15.779C33.1467 14.502 33.1677 12.979 32.4927 11.805C32.3167 11.499 31.9917 11.311 31.6387 11.311H30.2887C30.3637 8.099 29.4487 5.368 27.6147 3.365C25.6567 1.226 22.6707 0 19.4207 0C16.5947 0 13.7967 0.933 11.7437 2.56C9.4197 4.401 8.1397 7.041 8.1397 9.995V11.31L6.8397 11.309H6.8387C6.4857 11.309 6.1607 11.497 5.9847 11.803C5.2927 13.007 5.3067 14.556 6.0207 15.844C6.5337 16.769 7.3507 17.42 8.2927 17.687C8.6857 19.751 9.8287 21.684 11.6097 23.248C12.0587 23.642 12.5377 24.001 13.0387 24.322C11.7797 24.652 10.5727 25.083 9.4297 25.614C8.9367 25.843 8.7217 26.428 8.9507 26.922C9.1177 27.281 9.4727 27.493 9.8447 27.493C9.9837 27.493 10.1247 27.463 10.2587 27.401C11.8677 26.654 13.6227 26.124 15.4827 25.816L15.4857 25.814H15.4897C15.5037 25.812 15.5167 25.808 15.5307 25.806L15.5357 25.82L17.7377 26.105L17.7307 26.085C18.2137 26.154 18.6987 26.192 19.1817 26.195C19.2007 26.195 19.2187 26.195 19.2377 26.195C19.7327 26.195 20.2317 26.156 20.7297 26.084L20.7037 26.155L22.8947 25.9L22.9277 25.808C26.3407 26.371 29.4347 27.71 31.7397 29.625C32.3387 31.846 33.7367 33.729 35.5987 34.958C36.0397 36.115 36.3197 37.354 36.4297 38.654C35.2207 39.049 33.9637 39.398 32.6727 39.704V36.43C32.6727 35.886 32.2317 35.445 31.6877 35.445C31.1437 35.445 30.7027 35.886 30.7027 36.43V40.131C28.2027 40.621 25.5927 40.948 22.9357 41.099L22.9647 41.018L20.8407 41.104L20.8117 41.183C20.3487 41.193 19.8957 41.198 19.4567 41.198H19.2257H19.0017C18.5637 41.198 18.1097 41.193 17.6467 41.183L17.6187 41.106L15.5037 41.046L15.5227 41.099C12.7597 40.944 10.0437 40.598 7.4497 40.074V36.422C7.4497 35.878 7.0087 35.437 6.4647 35.437C5.9207 35.437 5.4797 35.877 5.4797 36.421V39.637C4.2907 39.348 3.1327 39.02 2.0127 38.655C2.2147 36.256 2.9787 34.097 4.2887 32.229C4.6007 31.784 4.4937 31.169 4.0477 30.857C3.6017 30.545 2.9877 30.652 2.6757 31.098C1.0127 33.47 0.1117 36.233 -0.000299659 39.313C-0.0162997 39.746 0.2527 40.138 0.6627 40.28C5.4927 41.947 11.0557 42.932 16.7517 43.127C16.7797 43.129 16.8107 43.13 16.8427 43.131C16.8567 43.131 16.8717 43.132 16.8837 43.132C16.8897 43.132 16.8967 43.132 16.9027 43.133C16.9077 43.133 16.9127 43.134 16.9187 43.134C17.6337 43.155 18.3337 43.167 19.0017 43.167H19.2257H19.4567C20.1247 43.167 20.8257 43.156 21.5397 43.134H21.5407C21.5407 43.134 21.5407 43.134 21.5417 43.134C27.2987 42.948 32.9137 41.961 37.7787 40.28C38.1877 40.138 38.4567 39.746 38.4417 39.314C38.4017 38.204 38.2557 37.127 38.0067 36.093C38.8607 36.353 39.7667 36.492 40.7027 36.492C40.8767 36.492 41.0527 36.487 41.2277 36.477C46.3407 36.189 50.2697 31.792 49.9847 26.675ZM30.2317 13.279H30.9697C31.0737 13.769 30.9867 14.332 30.7147 14.822C30.6337 14.968 30.4767 15.21 30.2317 15.422V13.279ZM8.1397 15.4C7.9417 15.214 7.8117 15.015 7.7427 14.89C7.4627 14.384 7.3797 13.795 7.4997 13.28L8.1397 13.281V15.4ZM10.1097 9.995C10.1097 4.782 14.9077 1.969 19.4217 1.969C22.1207 1.969 24.5777 2.962 26.1627 4.693C27.6527 6.32 28.3907 8.594 28.3187 11.308H21.2667C18.0177 11.308 15.4737 10.341 13.4907 8.351C13.3017 8.162 13.0497 8.061 12.7927 8.061C12.6647 8.061 12.5347 8.086 12.4127 8.138C12.0437 8.293 11.8047 8.656 11.8087 9.056C11.8167 9.808 11.6387 10.373 11.2787 10.735C10.9527 11.064 10.4957 11.213 10.1097 11.279V9.995ZM19.1927 24.227C18.2997 24.221 17.4217 24.079 16.5847 23.824C16.5177 23.793 16.4467 23.772 16.3737 23.757C12.8557 22.597 10.1107 19.449 10.1107 16.08V13.268C10.8767 13.186 11.8937 12.916 12.6797 12.122C13.0167 11.781 13.2777 11.381 13.4607 10.924C15.5917 12.506 18.1627 13.278 21.2687 13.278H28.2647V16.079C28.2647 18.549 26.8267 20.985 24.4167 22.594C22.8217 23.657 20.9657 24.24 19.1927 24.227ZM41.1167 34.51C40.9787 34.518 40.8397 34.521 40.7017 34.521C36.8217 34.521 33.6127 31.483 33.3967 27.602C33.3647 27.056 33.3957 26.506 33.4887 25.967C33.5347 25.698 33.4677 25.422 33.3027 25.205L31.7327 23.131L34.1707 23.079C34.4667 23.073 34.7447 22.933 34.9277 22.699C36.2277 21.027 38.1847 20.001 40.2967 19.883C40.4357 19.875 40.5767 19.871 40.7157 19.871C44.5917 19.871 47.7997 22.908 48.0177 26.784C48.2427 30.818 45.1467 34.283 41.1167 34.51Z" fill="#637EA8"/>
<path d="M36.9641 26.1689H36.9411C36.3971 26.1689 35.9561 26.6099 35.9561 27.1539C35.9561 27.6979 36.3971 28.1389 36.9411 28.1389H36.9641C37.5081 28.1389 37.9491 27.6979 37.9491 27.1539C37.9491 26.6089 37.5081 26.1689 36.9641 26.1689Z" fill="#E8A15B"/>
<path d="M41.01 26.1689H40.987C40.443 26.1689 40.002 26.6099 40.002 27.1539C40.002 27.6979 40.443 28.1389 40.987 28.1389H41.01C41.554 28.1389 41.995 27.6979 41.995 27.1539C41.995 26.6089 41.554 26.1689 41.01 26.1689Z" fill="#E8A15B"/>
<path d="M44.8117 26.1689H44.7887C44.2447 26.1689 43.8037 26.6099 43.8037 27.1539C43.8037 27.6979 44.2447 28.1389 44.7887 28.1389H44.8117C45.3557 28.1389 45.7967 27.6979 45.7967 27.1539C45.7967 26.6089 45.3557 26.1689 44.8117 26.1689Z" fill="#E8A15B"/>
<path d="M6.79344 29.5171L6.80844 29.5051C7.23544 29.1681 7.30744 28.5481 6.97044 28.1221C6.63344 27.6961 6.01344 27.6231 5.58644 27.9601L5.57244 27.9711C5.14544 28.3081 5.07344 28.9281 5.41044 29.3551C5.60444 29.6011 5.89244 29.7291 6.18344 29.7291C6.39744 29.7301 6.61244 29.6601 6.79344 29.5171Z" fill="#637EA8"/>
<path d="M15.4844 25.814L15.4814 25.815L15.4884 25.814H15.4844Z" fill="#192638"/>
<path d="M17.6192 41.105L16.8052 38.849L18.5272 29.889H19.9312L21.6512 38.849L20.8402 41.103L22.9642 41.017L23.5962 39.262C23.6562 39.096 23.6702 38.916 23.6372 38.743L21.7642 28.987L22.8942 25.901L20.7032 26.156L20.0572 27.92H18.4022L17.7372 26.106L15.5352 25.821L16.6952 28.988L14.8202 38.744C14.7872 38.918 14.8012 39.098 14.8612 39.264L15.5042 41.047L17.6192 41.105Z" fill="#E8A15B"/>
</svg>
