<svg width="45" height="50" viewBox="0 0 45 50" fill="none" xmlns="http://www.w3.org/2000/svg">
<path d="M41.901 29.9059H40.3205V10.6283C40.3205 10.3669 40.2166 10.1163 40.0317 9.93145L34.7844 4.68975C34.6017 4.50713 34.3467 4.40176 34.0885 4.40176H32.1792L29.075 0.382812C28.8886 0.141309 28.6008 0 28.2957 0H5.94834C4.62441 0 3.54746 1.07793 3.54746 2.40303V29.9059H2.23975C1.00469 29.9059 0 30.9104 0 32.1448V47.7639C0 48.9969 1.00469 50 2.23975 50H41.9011C43.136 50 44.1406 48.9969 44.1406 47.7639V32.1448C44.1406 30.9104 43.136 29.9059 41.901 29.9059ZM29.5812 29.9059C29.1353 29.9059 28.7451 30.2054 28.6298 30.6361L27.779 33.8156H16.7232L15.8725 30.6361C15.7572 30.2055 15.367 29.9059 14.9212 29.9059H10.2301V6.93545C10.2301 6.62441 10.4848 6.37148 10.7979 6.37148H33.1036V9.07959C33.1036 10.478 34.2405 11.6158 35.6381 11.6158H38.3511V29.906H29.5812V29.9059ZM35.0731 7.76221L36.9592 9.64609H35.6382C35.3319 9.64609 35.0732 9.38662 35.0732 9.07949V7.76221H35.0731ZM5.51699 2.40303C5.51699 2.16807 5.71455 1.96953 5.94834 1.96953H27.812L29.6905 4.40166H10.7979C9.39883 4.40166 8.26055 5.53828 8.26055 6.93525V29.9058H5.51699V2.40303ZM42.1712 47.7639C42.1712 47.9083 42.0474 48.0304 41.901 48.0304H2.23975C2.09326 48.0304 1.96943 47.9082 1.96943 47.7639V32.1448C1.96943 31.9989 2.09326 31.8755 2.23975 31.8755H14.1653L15.0161 35.0551C15.1314 35.4856 15.5217 35.7853 15.9675 35.7853H28.5349C28.9807 35.7853 29.3709 35.4857 29.4861 35.0551L30.3369 31.8755H41.901C42.0474 31.8755 42.1712 31.9989 42.1712 32.1448V47.7639Z" fill="#637EA8"/>
<path d="M39.4642 38.7679H25.7893C25.2453 38.7679 24.8044 39.2089 24.8044 39.7527C24.8044 40.2966 25.2453 40.7375 25.7893 40.7375H38.4794V43.1781H7.02812V40.7375H17.7262C18.27 40.7375 18.7109 40.2966 18.7109 39.7527C18.7109 39.2089 18.27 38.7679 17.7262 38.7679H6.04336C5.49961 38.7679 5.05859 39.2089 5.05859 39.7527V44.1629C5.05859 44.7067 5.49961 45.1476 6.04336 45.1476H39.4642C40.0079 45.1476 40.4489 44.7067 40.4489 44.1629V39.7527C40.4489 39.2089 40.008 38.7679 39.4642 38.7679Z" fill="#E8A15B"/>
<path d="M20.1736 12.082H15.8637C15.3198 12.082 14.8789 12.523 14.8789 13.0668V17.3742C14.8789 17.9179 15.3198 18.3589 15.8637 18.3589H20.1736C20.7175 18.3589 21.1584 17.9179 21.1584 17.3742V13.0668C21.1584 12.5229 20.7175 12.082 20.1736 12.082ZM19.1888 16.3892H16.8484V14.0517H19.1888V16.3892Z" fill="#E8A15B"/>
<path d="M31.6181 12.5298H24.0502C23.5063 12.5298 23.0654 12.9708 23.0654 13.5146C23.0654 14.0585 23.5063 14.4994 24.0502 14.4994H31.6181C32.1619 14.4994 32.6027 14.0585 32.6027 13.5146C32.6027 12.9707 32.1619 12.5298 31.6181 12.5298Z" fill="#637EA8"/>
<path d="M31.6181 15.8332H24.0502C23.5063 15.8332 23.0654 16.2741 23.0654 16.8181C23.0654 17.3618 23.5063 17.8028 24.0502 17.8028H31.6181C32.1619 17.8028 32.6027 17.3618 32.6027 16.8181C32.6027 16.274 32.1619 15.8332 31.6181 15.8332Z" fill="#637EA8"/>
<path d="M20.1736 21.1638H15.8637C15.3198 21.1638 14.8789 21.6047 14.8789 22.1485V26.4528C14.8789 26.9967 15.3198 27.4376 15.8637 27.4376H20.1736C20.7175 27.4376 21.1584 26.9967 21.1584 26.4528V22.1485C21.1584 21.6046 20.7175 21.1638 20.1736 21.1638ZM19.1888 25.468H16.8484V23.1334H19.1888V25.468Z" fill="#E8A15B"/>
<path d="M31.6181 21.6085H24.0502C23.5063 21.6085 23.0654 22.0495 23.0654 22.5934C23.0654 23.1372 23.5063 23.5781 24.0502 23.5781H31.6181C32.1619 23.5781 32.6027 23.1372 32.6027 22.5934C32.6027 22.0495 32.1619 21.6085 31.6181 21.6085Z" fill="#637EA8"/>
<path d="M31.6181 24.9121H24.0502C23.5063 24.9121 23.0654 25.353 23.0654 25.8969C23.0654 26.4407 23.5063 26.8816 24.0502 26.8816H31.6181C32.1619 26.8816 32.6027 26.4407 32.6027 25.8969C32.6027 25.353 32.1619 24.9121 31.6181 24.9121Z" fill="#637EA8"/>
<path d="M21.8715 40.7375H21.8882C22.432 40.7375 22.8729 40.2966 22.8729 39.7527C22.8729 39.2089 22.432 38.7679 21.8882 38.7679H21.8715C21.3276 38.7679 20.8867 39.2089 20.8867 39.7527C20.8867 40.2967 21.3276 40.7375 21.8715 40.7375Z" fill="#637EA8"/>
</svg>
