<svg width="50" height="48" viewBox="0 0 50 48" fill="none" xmlns="http://www.w3.org/2000/svg">
<path d="M18.3115 21.3815C18.3115 21.9205 18.7487 22.3576 19.2877 22.3576H33.4803C34.0193 22.3576 34.4565 21.9205 34.4565 21.3815C34.4565 20.8421 34.0193 20.4053 33.4803 20.4053H19.2877C18.7487 20.4053 18.3115 20.8421 18.3115 21.3815Z" fill="#E8A15B"/>
<path d="M15.177 20.4053H15.1549C14.6155 20.4053 14.1787 20.8421 14.1787 21.3815C14.1787 21.9205 14.6155 22.3576 15.1549 22.3576H15.177C15.716 22.3576 16.1532 21.9205 16.1532 21.3815C16.1532 20.8421 15.716 20.4053 15.177 20.4053Z" fill="#E8A15B"/>
<path d="M19.2516 30.9173H33.4468C33.9858 30.9173 34.423 30.4802 34.423 29.9411C34.423 29.4017 33.9858 28.965 33.4468 28.965H19.2516C18.7122 28.965 18.2754 29.4017 18.2754 29.9411C18.2754 30.4802 18.7122 30.9173 19.2516 30.9173Z" fill="#E8A15B"/>
<path d="M15.1188 30.9173H15.1413C15.6803 30.9173 16.1171 30.4802 16.1171 29.9411C16.1171 29.4017 15.6803 28.965 15.1413 28.965H15.1188C14.5797 28.965 14.1426 29.4017 14.1426 29.9411C14.1426 30.4802 14.5797 30.9173 15.1188 30.9173Z" fill="#E8A15B"/>
<path d="M15.177 37.6522H15.1549C14.6155 37.6522 14.1787 38.0894 14.1787 38.6284C14.1787 39.1674 14.6155 39.6046 15.1549 39.6046H15.177C15.716 39.6046 16.1532 39.1674 16.1532 38.6284C16.1532 38.0894 15.716 37.6522 15.177 37.6522Z" fill="#E8A15B"/>
<path d="M50 24.6803C50 22.0146 48.7099 19.0414 46.5488 16.7274C44.3279 14.3494 41.5493 12.9776 38.6726 12.8262C38.525 10.7784 37.6778 8.86841 36.2328 7.36465C34.5562 5.62019 32.3006 4.65927 29.8817 4.65927C28.7697 4.65927 27.6638 4.87099 26.6365 5.27649C25.7591 3.83377 24.5579 2.60811 23.1224 1.69792C21.3696 0.587463 19.342 0 17.2588 0C11.2103 0 6.28929 4.92401 6.28929 10.9764C6.28929 12.0022 6.42967 13.0108 6.70738 13.9862C4.87099 14.8716 3.29781 16.2128 2.12059 17.9047C0.733185 19.899 0 22.242 0 24.6803C0 27.5608 1.04408 30.3379 2.93961 32.5008C4.63524 34.4353 6.90384 35.7609 9.39522 36.2888V40.7806C9.39522 42.4232 10.7311 43.7595 12.373 43.7595H32.9407C33.3958 44.3871 33.9298 44.9951 34.5432 45.5822C34.7488 45.7794 35.3497 46.2955 35.9428 46.7522C37.0682 47.6185 37.5523 47.8157 37.9372 47.8458C37.9715 47.8481 38.015 47.8516 38.0688 47.8516C38.4483 47.8516 39.3318 47.6891 41.1648 45.9789C42.3065 44.9139 43.3338 43.6844 43.8457 42.7715C45.3125 40.1623 45.3243 36.4883 45.1469 34.2037C48.0789 32.1514 50 29.6585 50 24.6803ZM36.1046 26.6373C36.6699 26.6373 37.13 27.0977 37.13 27.6638V30.6938L31.6811 32.7599C31.4453 32.8491 31.2592 33.025 31.1516 33.2447H12.373C11.8076 33.2447 11.3476 32.7843 11.3476 32.2182V27.6642C11.3476 27.0977 11.8076 26.6373 12.373 26.6373H36.1046ZM12.373 41.8076C11.8076 41.8076 11.3476 41.3467 11.3476 40.781V36.224C11.3476 35.6579 11.8076 35.1974 12.373 35.1974H30.9662C30.9532 36.0214 30.9662 36.9392 30.9864 37.6522H19.2879C18.7485 37.6522 18.3117 38.0894 18.3117 38.6284C18.3117 39.1674 18.7485 39.6046 19.2879 39.6046H31.1417C31.2714 40.3584 31.4941 41.0934 31.8096 41.8076H12.373ZM42.1432 41.8159C41.2868 43.3434 38.895 45.5521 38.0917 45.8702C37.5786 45.5997 36.2911 44.5538 35.894 44.1727C34.0614 42.4187 33.0772 40.48 32.9685 38.4117C32.9189 37.4542 32.8854 35.4813 32.9449 34.3685L38.1008 32.4139L43.2049 34.4086C43.4414 37.5065 43.0614 40.1825 42.1432 41.8159ZM44.0006 32.6233L39.082 30.7011V27.6642C39.082 26.8936 38.7882 26.1906 38.3068 25.6611C38.7882 25.132 39.082 24.4289 39.082 23.6584V19.1044C39.082 17.4618 37.7464 16.1251 36.1046 16.1251H28.1376C27.5986 16.1251 27.1614 16.5623 27.1614 17.1013C27.1614 17.6407 27.5986 18.0775 28.1376 18.0775H36.1046C36.6699 18.0775 37.13 18.5383 37.13 19.1044V23.6584C37.13 24.2245 36.6699 24.6849 36.1046 24.6849H12.373C11.8076 24.6849 11.3476 24.2245 11.3476 23.6584V19.1044C11.3476 18.5379 11.8076 18.0775 12.373 18.0775H20.2236C20.7626 18.0775 21.1998 17.6407 21.1998 17.1013C21.1998 16.5623 20.7626 16.1251 20.2236 16.1251H12.373C10.7311 16.1251 9.39522 17.4618 9.39522 19.1044V23.6584C9.39522 24.4289 9.68933 25.132 10.1707 25.6611C9.68933 26.1906 9.39522 26.8936 9.39522 27.6642V32.2182C9.39522 32.9887 9.68933 33.6918 10.1707 34.2209C10.1128 34.285 10.0574 34.3513 10.0052 34.4204C5.38216 33.543 1.95236 29.438 1.95236 24.6807C1.95236 20.5582 4.43115 16.9289 8.26759 15.4346C8.76656 15.2401 9.01604 14.6797 8.82607 14.1788C8.43811 13.1565 8.24165 12.0789 8.24165 10.9764C8.24165 6.00052 12.2868 1.95236 17.2588 1.95236C20.7115 1.95236 23.8098 3.87688 25.3448 6.97479C25.4616 7.21092 25.6691 7.38983 25.9201 7.4707C26.1703 7.55119 26.4435 7.52754 26.6762 7.40433C27.6691 6.87828 28.7479 6.61201 29.8817 6.61201C31.7646 6.61201 33.5201 7.3597 34.8251 8.71773C36.1336 10.0792 36.813 11.869 36.7378 13.7577C36.7271 14.0297 36.8301 14.2941 37.0228 14.4867C37.2154 14.6793 37.4798 14.782 37.7514 14.772C37.8811 14.7671 38.0081 14.7644 38.1397 14.7644C40.6578 14.7644 43.1374 15.9348 45.1221 18.0599C46.9543 20.0218 48.048 22.4968 48.048 24.6807C48.0476 28.87 46.5706 30.8346 44.0006 32.6233Z" fill="#637EA8"/>
<path d="M40.2792 36.5662L37.3403 39.6175L36.4267 38.7333C36.0395 38.3579 35.4215 38.3682 35.0462 38.7554C34.6712 39.1426 34.6815 39.7606 35.0687 40.1356L36.6854 41.7011C36.8673 41.8774 37.1111 41.9758 37.3644 41.9758H37.3812C37.6406 41.9712 37.8874 41.8636 38.0674 41.6767L41.6853 37.9204C42.0595 37.532 42.0477 36.9145 41.6593 36.5402C41.2714 36.1664 40.6534 36.1778 40.2792 36.5662Z" fill="#E8A15B"/>
<path d="M24.2379 18.0775H24.2574C24.7964 18.0775 25.2335 17.6403 25.2335 17.1013C25.2335 16.5623 24.7964 16.1251 24.2574 16.1251H24.2379C23.6989 16.1251 23.2617 16.5623 23.2617 17.1013C23.2617 17.6403 23.6989 18.0775 24.2379 18.0775Z" fill="#637EA8"/>
</svg>
