<svg width="81" height="95" viewBox="0 0 81 95" fill="none" xmlns="http://www.w3.org/2000/svg">
<g clip-path="url(#clip0)">
<path d="M1.01555 84.493C0.45464 84.493 0 84.0354 0 83.471V62.9933C0 62.8141 0.0216921 58.582 1.90955 56.7262C3.11326 55.5428 5.7328 54.1893 9.69514 52.7031C12.5808 51.6209 15.0957 50.8739 15.2014 50.8425C15.7396 50.6834 16.3039 50.9931 16.4622 51.5345C16.6204 52.0759 16.3126 52.644 15.7745 52.8034C13.001 53.6246 5.35859 56.1929 3.32888 58.1882C2.43374 59.0681 2.03109 61.5278 2.03109 62.9933V83.471C2.03109 84.0354 1.57637 84.493 1.01555 84.493Z" fill="#3F496A"/>
<path d="M51.4893 56.4805C51.3402 56.4805 51.1887 56.4473 51.0457 56.3771C47.1764 54.4819 41.521 52.7909 41.4643 52.774C40.9264 52.614 40.6193 52.0456 40.7782 51.5044C40.9372 50.963 41.502 50.6543 42.04 50.8139C42.2778 50.8846 47.9119 52.569 51.9346 54.5394C52.439 54.7863 52.6488 55.398 52.4033 55.9055C52.2274 56.2691 51.8657 56.4805 51.4893 56.4805Z" fill="#3F496A"/>
<path d="M30.8724 62.6234H25.6728C25.1119 62.6234 24.6572 62.1659 24.6572 61.6014C24.6572 61.037 25.1119 60.5795 25.6728 60.5795H30.8724C31.4333 60.5795 31.8879 61.037 31.8879 61.6014C31.8879 62.1659 31.4333 62.6234 30.8724 62.6234Z" fill="#E8A15B"/>
<path d="M10.7646 84.4987C10.2037 84.4987 9.74902 84.0411 9.74902 83.4767V69.333C9.74902 68.7686 10.2037 68.3111 10.7646 68.3111C11.3255 68.3111 11.7801 68.7686 11.7801 69.333V83.4767C11.7801 84.0411 11.3255 84.4987 10.7646 84.4987Z" fill="#637EA8"/>
<path d="M24.7214 84.3221C24.7066 84.3221 24.6917 84.3218 24.6767 84.3211C24.1169 84.2967 23.6827 83.8197 23.707 83.2558L24.8482 56.7613C24.8725 56.1975 25.3457 55.7605 25.9059 55.7847C26.4657 55.8091 26.8999 56.2861 26.8755 56.8499L25.7344 83.3445C25.7107 83.8932 25.2615 84.3221 24.7214 84.3221Z" fill="#3F496A"/>
<path d="M37.4941 47.7847C36.9332 47.7847 36.4785 47.3272 36.4785 46.7628V42.1845C36.4785 41.62 36.9332 41.1625 37.4941 41.1625C38.055 41.1625 38.5096 41.62 38.5096 42.1845V46.7628C38.5096 47.3272 38.055 47.7847 37.4941 47.7847Z" fill="#E8A15B"/>
<path d="M18.5644 47.7847C18.0035 47.7847 17.5488 47.3272 17.5488 46.7628V42.1845C17.5488 41.62 18.0035 41.1625 18.5644 41.1625C19.1253 41.1625 19.5799 41.62 19.5799 42.1845V46.7628C19.5799 47.3272 19.1253 47.7847 18.5644 47.7847Z" fill="#E8A15B"/>
<path d="M17.0525 21.6954C16.5371 21.6954 16.0956 21.3022 16.0432 20.7752C16.038 20.7228 15.9156 19.4773 15.9051 18.168C15.8894 16.2011 16.0893 14.8141 17.1162 14.4384C18.334 13.9928 24.7645 12.4847 29.4801 13.1505C34.3237 13.8346 40.5356 17.9996 40.7976 18.1766C41.2633 18.4911 41.3876 19.1259 41.075 19.5946C40.7625 20.0632 40.1315 20.1882 39.6658 19.8737C39.6056 19.8331 33.5774 15.7931 29.1977 15.1746C25.135 14.6006 19.5718 15.8228 18.0657 16.2759C17.8953 16.9221 17.8891 18.8045 18.0642 20.5719C18.1198 21.1335 17.7126 21.6342 17.1546 21.6903C17.1204 21.6938 17.0863 21.6954 17.0525 21.6954Z" fill="#3F496A"/>
<path d="M31.8167 84.3221C31.2761 84.3221 30.8265 83.8933 30.8028 83.3445L29.6606 56.8499C29.6363 56.2861 30.0708 55.8092 30.6312 55.7847C31.1921 55.7597 31.6655 56.1975 31.6898 56.7613L32.832 83.2559C32.8563 83.8197 32.4218 84.2967 31.8615 84.3211C31.8464 84.3218 31.8315 84.3221 31.8167 84.3221Z" fill="#3F496A"/>
<path d="M21.6401 61.8608C21.6058 61.8608 21.5713 61.8591 21.5369 61.8555C21.2388 61.8248 20.9694 61.6634 20.8007 61.4142L14.0029 51.3708C13.7148 50.9452 13.7864 50.3704 14.1701 50.0295L18.0194 46.6091C18.3706 46.2971 18.8883 46.2672 19.2725 46.537L29.0188 53.3777C29.2676 53.5523 29.4258 53.8298 29.4501 54.1341C29.4744 54.4384 29.3621 54.7377 29.1442 54.95L22.3465 61.573C22.1561 61.7585 21.9024 61.8608 21.6401 61.8608ZM16.1858 50.9651L21.8004 59.2603L26.8459 54.3445L18.7655 48.673L16.1858 50.9651Z" fill="#637EA8"/>
<path d="M35.0305 61.8622C34.7683 61.8622 34.5145 61.76 34.3242 61.5745L27.5264 54.9514C27.3085 54.739 27.1963 54.4398 27.2205 54.1355C27.2448 53.8311 27.403 53.5537 27.6519 53.3791L37.3981 46.5385C37.7824 46.2687 38.3001 46.2987 38.6512 46.6106L42.5005 50.0309C42.8842 50.3717 42.9558 50.9466 42.6677 51.3723L35.8699 61.4156C35.7013 61.6648 35.4319 61.8263 35.1338 61.8569C35.0993 61.8605 35.0648 61.8622 35.0305 61.8622ZM29.8248 54.3459L34.8704 59.2618L40.485 50.9665L37.9053 48.6744L29.8248 54.3459Z" fill="#637EA8"/>
<path d="M28.3354 37.8698C27.7745 37.8698 27.3198 37.4123 27.3198 36.8479C27.3198 36.2835 27.7745 35.826 28.3354 35.826C30.6949 35.826 32.8606 33.6688 32.8818 33.6471C33.2742 33.2439 33.9171 33.2372 34.3179 33.6321C34.7186 34.0271 34.7253 34.6741 34.3328 35.0773C34.2217 35.1913 31.5772 37.8698 28.3354 37.8698Z" fill="#E8A15B"/>
<path d="M28.3356 37.8698C25.0814 37.8698 22.529 35.1767 22.422 35.062C22.0378 34.6507 22.0579 34.0039 22.4666 33.6175C22.8747 33.2315 23.5162 33.251 23.9004 33.6607C23.9231 33.6846 25.9712 35.826 28.3356 35.826C28.8964 35.826 29.3512 36.2835 29.3512 36.848C29.3512 37.4123 28.8964 37.8698 28.3356 37.8698Z" fill="#E8A15B"/>
<path d="M23.3168 25.426H21.2045C20.6436 25.426 20.189 24.9685 20.189 24.404C20.189 23.8396 20.6436 23.3821 21.2045 23.3821H23.3168C23.8778 23.3821 24.3324 23.8396 24.3324 24.404C24.3324 24.9685 23.8778 25.426 23.3168 25.426Z" fill="#637EA8"/>
<path d="M35.5034 25.426H33.391C32.8301 25.426 32.3755 24.9685 32.3755 24.404C32.3755 23.8396 32.8301 23.3821 33.391 23.3821H35.5034C36.0643 23.3821 36.5189 23.8396 36.5189 24.404C36.5189 24.9685 36.0643 25.426 35.5034 25.426Z" fill="#637EA8"/>
<path d="M66.7879 65.0606L64.779 64.7591L64.7771 64.7733C64.7807 64.7434 64.866 64.0071 64.7986 61.0693C64.7863 60.5323 64.6224 60.124 64.2975 59.8209C63.599 59.1694 62.2783 59.0847 61.8711 59.1064C61.8532 59.1074 61.8353 59.1079 61.8175 59.1079H58.414C57.8532 59.1079 57.3984 58.6504 57.3984 58.0859C57.3984 57.5216 57.8532 57.064 58.414 57.064H61.7939C62.1549 57.0488 64.2807 57.0186 65.6782 58.3219C66.4063 59.001 66.8043 59.9347 66.8293 61.0222C66.9003 64.1214 66.8074 64.9299 66.7879 65.0606Z" fill="#E8A15B"/>
<path d="M52.62 65.7819C52.1053 65.7819 51.6637 65.397 51.6098 64.8801C51.6018 64.8037 51.534 64.0443 51.6061 60.9552C51.6311 59.8861 52.0296 58.9681 52.7585 58.3006C54.1578 57.0191 56.2866 57.0639 56.6475 57.0639H59.9678C60.5293 57.0639 60.9845 57.5309 60.9845 58.0858C60.9845 58.6407 60.5293 59.1078 59.9678 59.1078H56.624C56.6061 59.1078 56.5882 59.09 56.5703 59.089C56.1304 59.07 54.8281 59.1488 54.1364 59.787C53.8142 60.0844 53.6515 60.4802 53.6392 61.0059C53.5714 63.909 53.6297 64.6406 53.6334 64.6832C53.6868 65.2323 53.2818 65.7209 52.7256 65.7775C52.69 65.7812 52.6548 65.7819 52.62 65.7819Z" fill="#E8A15B"/>
<path d="M75.1236 95.0014H43.4167C41.2412 95.0014 39.4033 93.2105 39.4033 91.0905V76.8517C39.4033 76.2873 39.858 75.8297 40.4189 75.8297C40.9797 75.8297 41.4344 76.2873 41.4344 76.8517V91.0905C41.4344 92.0676 42.3792 92.9575 43.4167 92.9575H75.1236C76.1581 92.9575 77.1004 92.0676 77.1004 91.0905V76.1976C77.1004 75.6333 77.5551 75.1757 78.116 75.1757C78.6768 75.1757 79.1315 75.6333 79.1315 76.1976V91.0905C79.1315 93.2105 77.2961 95.0014 75.1236 95.0014Z" fill="#3F496A"/>
<path d="M38.4687 75.5013C37.9078 75.5013 37.4531 75.0437 37.4531 74.4793V67.7217C37.4531 65.6237 39.439 63.8511 41.7898 63.8511H76.7534C77.8475 63.8511 78.8918 64.2398 79.6939 64.9455C80.5238 65.6756 80.9997 66.6875 80.9997 67.7218V74.3976C80.9997 74.9619 80.545 75.4195 79.9841 75.4195C79.4233 75.4195 78.9687 74.9619 78.9687 74.3976V67.7217C78.9687 66.7486 77.9335 65.895 76.7534 65.895H41.7898C40.5831 65.895 39.4842 66.7656 39.4842 67.7217V74.4793C39.4842 75.0437 39.0296 75.5013 38.4687 75.5013Z" fill="#637EA8"/>
<path d="M59.6346 83.4185C58.5619 83.4185 56.4726 83.3345 53.1522 82.8668C52.5968 82.7885 52.2095 82.2721 52.2873 81.7131C52.3651 81.1542 52.878 80.7637 53.4338 80.8427C58.2285 81.518 60.3197 81.3577 60.3404 81.3561C60.8973 81.3101 61.3894 81.7268 61.4367 82.288C61.4841 82.8493 61.0727 83.3432 60.5149 83.3924C60.4836 83.3952 60.2005 83.4185 59.6346 83.4185Z" fill="#637EA8"/>
<path d="M46.9035 81.2724C46.769 81.2724 46.6325 81.2454 46.5012 81.1883C41.6157 79.0642 38.0534 75.4663 37.9042 75.3141C37.5102 74.9125 37.5142 74.2654 37.9134 73.8689C38.3125 73.4722 38.9554 73.4763 39.3495 73.8781C39.4047 73.9339 42.8093 77.3565 47.3068 79.3121C47.8216 79.5359 48.0587 80.1375 47.8362 80.6555C47.6705 81.0416 47.2965 81.2724 46.9035 81.2724Z" fill="#637EA8"/>
<path d="M71.5915 81.2546C71.1994 81.2546 70.8259 81.0247 70.6596 80.6398C70.4361 80.1221 70.6718 79.5202 71.1863 79.2952C75.6938 77.3243 79.0711 73.9125 79.1048 73.8782C79.4988 73.4767 80.1419 73.4724 80.5409 73.8691C80.9401 74.2656 80.9441 74.9127 80.55 75.3143C80.4017 75.4656 76.8595 79.0431 71.9957 81.1699C71.864 81.2273 71.7266 81.2546 71.5915 81.2546Z" fill="#637EA8"/>
<path d="M49.9034 87.3176C46.8167 87.3176 45.9366 84.0317 45.9025 82.2942C45.9024 82.2875 45.9023 82.2808 45.9023 82.2741V77.6664C45.9023 77.102 46.3571 76.6444 46.9179 76.6444C47.4787 76.6444 47.9334 77.102 47.9334 77.6664V82.2597C47.9362 82.3373 47.9737 83.1681 48.2839 83.9579C48.7473 85.1374 49.4301 85.2738 49.9034 85.2738C51.7394 85.2738 52.1819 82.7854 52.2393 82.4001V77.6664C52.2393 77.102 52.694 76.6444 53.2548 76.6444C53.8156 76.6444 54.2704 77.102 54.2704 77.6664V82.469C54.2704 82.5087 54.2681 82.5484 54.2635 82.5877C54.0733 84.2238 52.9173 87.3176 49.9034 87.3176Z" fill="#E8A15B"/>
<path d="M53.1334 78.7292H46.9589C46.3981 78.7292 45.9434 78.2716 45.9434 77.7073C45.9434 77.1429 46.3981 76.6853 46.9589 76.6853H53.1334C53.6943 76.6853 54.149 77.1429 54.149 77.7073C54.149 78.2716 53.6943 78.7292 53.1334 78.7292Z" fill="#E8A15B"/>
<path d="M68.0611 87.3176C64.9664 87.3176 64.1006 84.0249 64.1006 82.2839C64.1006 82.2806 64.1006 82.2773 64.1006 82.2741V77.6664C64.1006 77.102 64.5553 76.6444 65.1161 76.6444C65.677 76.6444 66.1317 77.102 66.1317 77.6664V82.2664C66.1328 82.3157 66.157 83.1625 66.4647 83.9663C66.9133 85.1382 67.5907 85.2737 68.0611 85.2737C68.561 85.2737 69.2928 85.1391 69.874 83.9742C70.2125 83.2959 70.3301 82.5873 70.3564 82.4033V77.6664C70.3564 77.102 70.8111 76.6444 71.3719 76.6444C71.9327 76.6444 72.3874 77.102 72.3874 77.6664V82.469C72.3874 82.5051 72.3855 82.5412 72.3817 82.577C72.2085 84.2167 71.0826 87.3176 68.0611 87.3176Z" fill="#E8A15B"/>
<path d="M71.2504 78.7292H65.1571C64.5963 78.7292 64.1416 78.2716 64.1416 77.7073C64.1416 77.1429 64.5963 76.6853 65.1571 76.6853H71.2504C71.8113 76.6853 72.266 77.1429 72.266 77.7073C72.266 78.2716 71.8113 78.7292 71.2504 78.7292Z" fill="#E8A15B"/>
<path d="M13.5823 23.407C13.5457 23.3226 9.9653 14.8829 13.6208 7.54547C15.9721 2.82572 25.8046 2.08313 26.3825 2.04389H45.4184C45.0678 4.34155 44.4425 9.59844 44.9127 15.5759C45.3745 21.4477 44.3467 22.7457 44.2046 22.8948C43.9692 23.0139 43.791 23.2203 43.7041 23.4666H46.2422C46.8383 22.2284 47.2885 19.8765 46.9375 15.4146C46.3424 7.84756 47.6048 1.28544 47.6176 1.22028C47.6766 0.920323 47.599 0.609488 47.406 0.373214C47.2131 0.136941 46.9252 0 46.6213 0H26.35C26.3305 0 26.3111 0.000572289 26.2917 0.00171687C25.8214 0.0289415 14.7411 0.736209 11.8051 6.62948C10.1118 10.0282 9.56061 14.1489 10.2111 18.5458C10.5391 20.763 11.0898 22.5226 11.428 23.4666H13.6041C13.5969 23.4467 13.5908 23.4264 13.5823 23.407Z" fill="#3F496A"/>
<path d="M11.9923 30.0258C12.7088 34.685 14.3762 38.5355 16.8142 41.1612C19.5498 44.1076 23.2436 45.6016 27.7927 45.6016C35.0002 45.6016 40.3858 41.7927 43.3675 34.5866C45.196 30.1672 45.5766 25.805 45.6548 24.3364C45.8509 24.1363 46.053 23.8566 46.2407 23.4667H43.7026C43.6665 23.5692 43.6457 23.6784 43.6438 23.7914C43.643 23.8419 43.5349 28.8964 41.4719 33.8506C38.7897 40.2919 34.1874 43.5578 27.7927 43.5578C23.8319 43.5578 20.6394 42.284 18.3038 39.7718C13.0516 34.1224 13.6577 23.9861 13.6645 23.885C13.6741 23.7426 13.6522 23.6004 13.6038 23.4667H11.4277C11.5071 23.6883 11.5749 23.8652 11.6252 23.9922C11.5931 24.7424 11.5433 27.1062 11.9923 30.0258Z" fill="#E8A15B"/>
</g>
<defs>
<clipPath id="clip0">
<rect width="81" height="95" fill="white"/>
</clipPath>
</defs>
</svg>
