<svg width="44" height="50" viewBox="0 0 44 50" fill="none" xmlns="http://www.w3.org/2000/svg">
<path d="M22.6547 17.4632H28.4969C28.1962 17.8144 28.1761 18.3403 28.4746 18.7156C28.669 18.9601 28.9563 19.0876 29.246 19.0876C29.4608 19.0876 29.6772 19.0177 29.8583 18.8736L31.9011 17.2493C32.3268 16.9107 32.3976 16.2912 32.059 15.8655C32.0467 15.85 32.0332 15.836 32.0201 15.8215C32.0185 15.8194 32.0161 15.8171 32.0145 15.8151C32.0043 15.8041 31.9946 15.7928 31.9841 15.7823C31.9705 15.7685 31.9545 15.754 31.937 15.7389C31.9279 15.7307 31.9189 15.7225 31.9094 15.7149C31.9063 15.7123 31.9042 15.7101 31.901 15.7077L29.8582 14.0834C29.4325 13.7449 28.8131 13.8156 28.4745 14.2413C28.176 14.6167 28.1961 15.1426 28.4968 15.4936H22.6546C22.1108 15.4936 21.6699 15.9347 21.6699 16.4785C21.67 17.0223 22.1109 17.4632 22.6547 17.4632Z" fill="#E8A15B"/>
<path d="M24.8219 24.8074C25.1118 24.8074 25.3989 24.6799 25.5934 24.4354C25.8919 24.06 25.8719 23.5341 25.571 23.183H31.4132C31.957 23.183 32.398 22.742 32.398 22.1982C32.398 21.6543 31.957 21.2134 31.4132 21.2134H25.571C25.8718 20.8621 25.8918 20.3365 25.5934 19.961C25.2549 19.5354 24.6353 19.4645 24.2096 19.8031L22.1669 21.4274C21.7411 21.7659 21.6704 22.3855 22.0089 22.8112C22.0265 22.8332 22.0455 22.8532 22.0645 22.8734C22.0692 22.8789 22.0742 22.8844 22.0795 22.8903C22.0829 22.8936 22.0862 22.8972 22.0896 22.9007C22.1108 22.9221 22.1361 22.9446 22.1669 22.9692L22.1681 22.9701C22.1698 22.9715 22.1716 22.973 22.1735 22.9743L24.2097 24.5935C24.3909 24.7374 24.6072 24.8074 24.8219 24.8074Z" fill="#E8A15B"/>
<path d="M41.0573 43.1752C41.3198 40.8451 41.7931 38.2661 42.2168 35.9603C42.8338 32.6006 43.1762 30.6501 43.0347 29.6313C42.7589 27.6404 40.9782 24.8553 38.5138 21.0002C38.1812 20.4801 37.8385 19.9436 37.4897 19.3939V3.33135C37.4897 1.49443 35.9878 0 34.1419 0H11.8394C9.99336 0 8.49141 1.49453 8.49141 3.33135V10.9152C3.68359 11.6856 0 15.8373 0 20.8284C0 24.5202 2.03193 27.9073 5.30449 29.6688C6.29639 30.2005 7.37734 30.562 8.49141 30.7407V39.0837C8.49141 40.9207 9.99336 42.415 11.8394 42.415H29.5452L29.6204 43.1736C28.8972 43.5235 28.3974 44.2627 28.3974 45.1162V47.8419C28.3974 49.0318 29.3692 50 30.5639 50H40.1111C41.3058 50 42.2775 49.0318 42.2775 47.8419V45.1162C42.2774 44.2641 41.779 43.5259 41.0573 43.1752ZM10.4608 3.33135C10.4608 2.58057 11.0793 1.96963 11.8394 1.96963H34.1419C34.9019 1.96963 35.5203 2.58057 35.5203 3.33135V5.55381H10.4608V3.33135ZM6.23643 27.9337C3.60449 26.5169 1.96943 23.7943 1.96943 20.8284C1.96943 16.3773 5.61943 12.7562 10.106 12.7562C11.3246 12.7562 12.4931 13.0159 13.5808 13.529C16.4126 14.8578 18.2423 17.7229 18.2423 20.8284C18.2423 25.2795 14.5923 28.9007 10.106 28.9007C8.75449 28.9007 7.41602 28.566 6.23643 27.9337ZM11.8394 40.4455C11.0793 40.4455 10.4608 39.8346 10.4608 39.0837V37.9765H16.9336C17.4773 37.9765 17.9183 37.5355 17.9183 36.9917C17.9183 36.4479 17.4773 36.0069 16.9336 36.0069H10.4608V30.8635C15.8694 30.677 20.2119 26.2475 20.2119 20.8284C20.2119 16.9626 17.9374 13.3975 14.4193 11.7468C13.1749 11.1597 11.8448 10.8399 10.4609 10.7932V7.52344H35.5204V19.68V28.9558C35.5204 29.3997 35.3003 29.9217 34.7655 31.0802L32.1484 28.5218C31.0823 27.4822 29.8167 26.9099 28.5848 26.9099C27.2317 26.9099 26.0524 27.615 25.5075 28.7501C24.8387 30.1427 25.201 31.8723 26.5011 33.4954C26.7075 33.7531 26.917 33.9742 27.1387 34.2084C27.5547 34.6479 28.0141 35.133 28.5724 36.007H24.6696C24.1259 36.007 23.6849 36.4479 23.6849 36.9918C23.6849 37.5356 24.1259 37.9766 24.6696 37.9766H29.1052L29.3499 40.4456H11.8394V40.4455ZM28.5688 32.854C28.3677 32.6414 28.1938 32.4579 28.0383 32.2639C27.2424 31.2702 26.9599 30.2754 27.2829 29.6026C27.5004 29.1498 27.987 28.8795 28.5848 28.8795C29.3001 28.8795 30.0773 29.2533 30.7726 29.9312L34.387 33.465C34.6165 33.6895 34.9413 33.7884 35.2563 33.7288C35.5719 33.6698 35.8389 33.4608 35.9716 33.1688C36.1389 32.8014 36.2909 32.4733 36.4279 32.1776C37.135 30.6521 37.4897 29.8862 37.4897 28.9561V23.0566C39.3629 25.9976 40.8888 28.4947 41.0837 29.9024C41.1886 30.6566 40.7266 33.172 40.2797 35.6046C39.85 37.9435 39.3694 40.5598 39.0994 42.9583H31.5782L31.4191 41.3533C31.418 41.3383 31.4165 41.3231 31.4146 41.3084L30.9783 36.9076C30.9775 36.8971 30.9764 36.8865 30.9753 36.8761L30.9165 36.2831C30.9033 36.1505 30.8633 36.0218 30.799 35.905C29.8823 34.2411 29.154 33.4721 28.5688 32.854ZM40.3079 47.8419C40.3079 47.9423 40.216 48.0304 40.111 48.0304H30.5638C30.4589 48.0304 30.3668 47.9424 30.3668 47.8419V45.1162C30.3668 45.014 30.457 44.9275 30.5638 44.9275H30.6862H39.9886H40.111C40.2178 44.9275 40.3079 45.014 40.3079 45.1162V47.8419Z" fill="#637EA8"/>
<path d="M26.3529 2.80878H18.9066C18.3629 2.80878 17.9219 3.24979 17.9219 3.79354C17.9219 4.33749 18.3629 4.77841 18.9066 4.77841H26.3529C26.8968 4.77841 27.3377 4.33749 27.3377 3.79354C27.3377 3.2497 26.8969 2.80878 26.3529 2.80878Z" fill="#637EA8"/>
<path d="M12.2461 20.2141C11.9397 20.0702 11.6024 19.9457 11.2317 19.8406C10.8638 19.7325 10.5266 19.6579 10.2204 19.6109C9.91365 19.5665 9.65457 19.4753 9.44549 19.3368C9.23357 19.1984 9.13055 19.0187 9.13055 18.7945C9.13055 17.7291 10.7051 17.8592 11.4019 18.4376C12.4272 19.2953 13.5728 17.7291 12.3855 16.8436L12.246 16.7219C12.1542 16.65 11.9897 16.5586 11.7557 16.448C11.5187 16.3372 11.2596 16.2486 10.9725 16.1878V15.9719V15.3244V14.9452C10.9725 14.4527 10.5657 14.0488 10.0669 14.0488C9.57088 14.0488 9.16395 14.4527 9.16395 14.9452V15.9719V16.1768C8.49793 16.304 7.94607 16.6333 7.56434 17.1177C7.17703 17.6075 6.97918 18.1554 6.97918 18.7641C6.97918 19.3757 7.124 19.8765 7.41111 20.275C7.69822 20.6707 8.04383 20.9502 8.4534 21.1136C8.86297 21.274 9.27273 21.404 9.6824 21.5009C10.0921 21.5977 10.4405 21.7084 10.7274 21.8302C11.0116 21.9519 11.1565 22.1235 11.1565 22.3478C11.1565 22.9676 10.7775 23.2775 10.0196 23.2775C9.62107 23.2775 9.13055 23.2193 8.79324 22.8485C8.67635 22.7184 8.57596 22.5968 8.4784 22.4942C7.67576 21.6614 6.2992 22.8181 7.13514 23.9028L7.33289 24.1603C7.46668 24.3235 7.70096 24.5117 8.0409 24.7247C8.36971 24.935 8.73768 25.0846 9.14715 25.1757V26.6064C9.14715 27.1017 9.55408 27.5057 10.05 27.5057C10.5488 27.5057 10.9724 27.1017 10.9724 26.6064C10.9724 26.1277 10.9724 25.6461 10.9724 25.1675C11.6274 25.0152 12.1847 24.6998 12.6445 24.2238C13.107 23.7452 13.3357 23.1087 13.3357 22.3173C13.3357 21.7776 13.2326 21.3293 13.0208 20.9668C12.8118 20.6071 12.5527 20.3554 12.2461 20.2141Z" fill="#E8A15B"/>
<path d="M20.7621 36.007H20.7427C20.1988 36.007 19.7578 36.4479 19.7578 36.9917C19.7578 37.5356 20.1988 37.9765 20.7427 37.9765H20.7621C21.3058 37.9765 21.7468 37.5356 21.7468 36.9917C21.7468 36.4479 21.3058 36.007 20.7621 36.007Z" fill="#637EA8"/>
</svg>
