<svg width="49" height="50" viewBox="0 0 49 50" fill="none" xmlns="http://www.w3.org/2000/svg">
<path d="M9.95563 28.917C9.41463 28.917 8.97663 29.356 8.97663 29.896V33.603L7.67063 33.217C7.58063 33.191 7.48763 33.177 7.39363 33.177L1.04363 33.171H1.04263C0.509628 33.171 0.0746276 33.598 0.0636276 34.13L0.00962761 36.856C0.00962761 36.863 0.00962761 36.869 0.00962761 36.876V45.642C-0.0613724 47.057 0.260628 48.151 0.965628 48.894C1.87963 49.858 3.17063 49.99 4.20363 49.993V48.035C3.56363 48.033 2.79063 47.972 2.38663 47.547C2.06163 47.204 1.91963 46.589 1.96663 45.719C1.96763 45.702 1.96763 45.684 1.96763 45.667V36.885L2.00263 35.129L7.25063 35.134L9.65763 35.847C9.66363 35.849 9.66863 35.85 9.67463 35.852L12.2036 36.601C12.2936 36.628 12.3876 36.642 12.4816 36.642H17.0836V38.371H19.0416V35.663C19.0416 35.122 18.6036 34.684 18.0626 34.684H12.6236L10.9346 34.184V30.877H19.3276V28.919H9.95563V28.917Z" fill="#637EA8"/>
<path d="M23.8756 23.406H27.0616C27.6026 23.406 28.0406 22.968 28.0406 22.427C28.0406 21.886 27.6026 21.448 27.0616 21.448H14.7006C11.5206 21.448 8.93259 18.858 8.93259 15.675C8.93259 13.274 10.3756 11.161 12.6096 10.291C13.1096 10.096 13.3596 9.535 13.1696 9.032C12.9446 8.436 12.8306 7.812 12.8306 7.178C12.8306 4.3 15.1716 1.958 18.0486 1.958C20.0466 1.958 21.8376 3.071 22.7236 4.864C22.8406 5.101 23.0486 5.281 23.3006 5.362C23.5516 5.443 23.8256 5.419 24.0596 5.296C24.6166 5.002 25.2436 4.846 25.8726 4.846C26.9376 4.846 27.9316 5.269 28.6696 6.038C29.4096 6.808 29.7936 7.82 29.7496 8.888C29.7396 9.159 29.8416 9.424 30.0326 9.617C30.2246 9.81 30.4856 9.915 30.7596 9.906C30.8356 9.903 30.9136 9.901 30.9916 9.901C34.1716 9.901 36.7596 12.492 36.7596 15.677C36.7596 17.448 35.9646 19.096 34.5776 20.198C34.1546 20.535 34.0836 21.15 34.4206 21.574C34.7566 21.997 35.3736 22.067 35.7956 21.731C37.6526 20.255 38.7166 18.048 38.7166 15.677C38.7166 11.639 35.6096 8.314 31.6626 7.972C31.5046 6.741 30.9596 5.598 30.0806 4.682C28.9696 3.526 27.4746 2.889 25.8716 2.889C25.2406 2.889 24.6116 2.993 24.0146 3.193C22.6966 1.202 20.4846 0 18.0496 0C14.0926 0 10.8736 3.22 10.8736 7.178C10.8736 7.743 10.9396 8.301 11.0696 8.847C9.99059 9.421 9.06359 10.244 8.35659 11.26C7.45259 12.559 6.97559 14.086 6.97559 15.675C6.97559 19.938 10.4416 23.406 14.7016 23.406H21.9186V26.328H23.8766V23.406H23.8756Z" fill="#637EA8"/>
<path d="M29.5209 36.888L29.5559 35.135L34.8039 35.139L39.7569 36.605C39.8479 36.632 39.9409 36.646 40.0349 36.646H44.6389V38.369H46.5969V35.667C46.5969 35.126 46.1589 34.688 45.6179 34.688H40.1759L38.4699 34.183V29.896C38.4699 29.355 38.0319 28.917 37.4909 28.917H26.4469C26.4399 28.892 26.4289 28.869 26.4219 28.844V30.945C26.4289 30.921 26.4409 30.9 26.4469 30.876H36.5129V33.605L35.2239 33.223C35.1339 33.197 35.0399 33.183 34.9469 33.183L28.5969 33.177H28.5959C28.0629 33.177 27.6279 33.604 27.6169 34.136L27.5619 36.859C27.5619 36.866 27.5619 36.872 27.5619 36.879V38.37H29.5199V36.888H29.5209Z" fill="#637EA8"/>
<path d="M30.9731 21.448C30.4321 21.448 29.9941 21.886 29.9941 22.427C29.9941 22.968 30.4321 23.406 30.9731 23.406H30.9921C31.5331 23.406 31.9711 22.968 31.9711 22.427C31.9711 21.886 31.5331 21.448 30.9921 21.448H30.9731Z" fill="#637EA8"/>
<path d="M5.22815 38.369C4.68715 38.369 4.24915 38.808 4.24915 39.348V48.036H4.23915C4.22715 48.036 4.21415 48.035 4.20215 48.035V49.993C4.21415 49.993 4.22715 49.994 4.23915 49.994H20.1981C20.7391 49.994 21.1771 49.556 21.1771 49.015V39.348C21.1771 38.807 20.7381 38.369 20.1981 38.369H19.0421H17.0841H5.22815ZM19.2191 40.328V48.036H6.20615V40.328H19.2191Z" fill="#E8A15B"/>
<path d="M47.7508 38.372H46.5978V38.369H44.6398V38.372H32.7808C32.2398 38.372 31.8018 38.81 31.8018 39.351V47.531H33.7598V40.33H46.7718V48.041H35.4378V50H47.7518C48.2928 50 48.7308 49.562 48.7308 49.021V39.352C48.7298 38.811 48.2918 38.372 47.7508 38.372Z" fill="#E8A15B"/>
<path d="M29.9394 47.552C29.6134 47.209 29.4724 46.593 29.5184 45.722C29.5194 45.704 29.5194 45.687 29.5194 45.67V38.369H27.5614V45.644C27.4904 47.06 27.8124 48.155 28.5174 48.899C29.4384 49.871 30.7434 49.998 31.7804 49.999V48.041C31.1354 48.041 30.3484 47.984 29.9394 47.552Z" fill="#637EA8"/>
<path d="M23.8761 26.346V26.328H21.9181V26.347C20.6741 26.691 19.6931 27.672 19.3501 28.917H19.3291V30.875H19.3501C19.7791 32.433 21.2071 33.581 22.8971 33.581C24.5631 33.581 25.9691 32.466 26.4221 30.944V28.843C26.0601 27.634 25.0961 26.683 23.8761 26.346ZM22.8971 31.623C21.9471 31.623 21.1751 30.848 21.1751 29.896C21.1751 28.946 21.9471 28.172 22.8971 28.172C23.8481 28.172 24.6221 28.946 24.6221 29.896C24.6221 30.848 23.8481 31.623 22.8971 31.623Z" fill="#E8A15B"/>
<path d="M33.7593 48.042V47.531H31.8013V48.042H31.7923H31.7803V50H31.7923H35.4373V48.042H33.7593Z" fill="#E8A15B"/>
</svg>
