<svg width="50" height="50" viewBox="0 0 50 50" fill="none" xmlns="http://www.w3.org/2000/svg">
<path d="M43.8809 14.1385C43.8951 14.1125 43.9077 14.0858 43.9188 14.0583C43.924 14.0446 43.9265 14.0308 43.9309 14.017C43.9366 13.9861 43.9406 13.9551 43.9429 13.9239C43.954 13.8734 43.9607 13.822 43.9628 13.7704C43.9628 13.7575 43.9567 13.7446 43.9559 13.7308C43.9519 13.6951 43.9458 13.6596 43.9378 13.6247C43.9292 13.577 43.9169 13.53 43.9007 13.4842C43.8989 13.4741 43.8966 13.464 43.8938 13.454C43.8894 13.4465 43.8845 13.4393 43.8791 13.4325C43.8656 13.4057 43.8504 13.3798 43.8335 13.3549C43.8225 13.3301 43.8101 13.3059 43.7964 13.2825C43.7805 13.2653 43.7639 13.2489 43.7464 13.2334C43.7291 13.2135 43.7153 13.1928 43.6972 13.1747C43.6791 13.1566 43.6886 13.1618 43.6826 13.1558C43.6766 13.1497 43.6567 13.142 43.6447 13.1325C43.6052 13.0999 43.5628 13.0711 43.5179 13.0463C43.4928 13.0303 43.467 13.0156 43.4404 13.0023C43.4257 12.9963 43.411 12.9894 43.3955 12.9842C43.3423 12.9664 43.2874 12.9544 43.2317 12.948C43.2024 12.948 43.1748 12.9351 43.1455 12.9334C43.1369 12.9329 43.1283 12.9329 43.1197 12.9334C43.0286 12.9311 42.9378 12.9437 42.8507 12.9704L0.610144 25.9012C0.154873 26.0404 -0.101372 26.5224 0.0379568 26.9777C0.0792275 27.1125 0.152825 27.2351 0.252392 27.3348L6.93157 34.014L6.9833 34.0657L10.372 46.7732C10.3772 46.7922 10.3893 46.8069 10.3953 46.8258C10.4129 46.8737 10.4342 46.9201 10.4591 46.9646C10.4776 47.0007 10.499 47.0353 10.5229 47.0681C10.5813 47.1378 10.6472 47.2008 10.7194 47.256C10.7332 47.2655 10.7418 47.2784 10.7556 47.287C10.7913 47.3053 10.8282 47.3212 10.866 47.3344C10.8922 47.348 10.9192 47.3597 10.947 47.3698C11.0302 47.3972 11.1172 47.4118 11.2048 47.4129H11.2229C11.2814 47.4082 11.3391 47.3974 11.3953 47.3801C11.4319 47.3758 11.4682 47.3689 11.5039 47.3594C11.596 47.3259 11.6817 47.2769 11.7573 47.2146L16.3262 43.4086L20.0796 47.162C20.2411 47.3227 20.4595 47.4129 20.6873 47.4129C20.7141 47.4129 20.7408 47.4129 20.7675 47.4129C21.0228 47.3887 21.254 47.2523 21.3985 47.0405L43.8119 14.2825C43.8396 14.2369 43.8626 14.1887 43.8809 14.1385ZM2.48338 27.1279L35.6871 16.9643L7.90397 32.5485L2.48338 27.1279ZM12.3565 38.157C12.3198 38.1895 12.2864 38.2252 12.2565 38.2639C12.2401 38.2846 12.2248 38.3062 12.2108 38.3286C12.1934 38.3513 12.1776 38.3752 12.1634 38.4001C12.1573 38.4113 12.1556 38.4243 12.1504 38.4355C12.1232 38.4904 12.1021 38.5483 12.0875 38.6079L11.1289 42.9181L8.76171 34.039L35.2267 19.1953L12.3789 38.1286C12.3694 38.1363 12.3651 38.1484 12.3565 38.157ZM12.5944 44.2707L13.4297 40.5165L15.1004 42.1871L12.5944 44.2707ZM20.5623 45.2069L16.9909 41.6311L14.2116 38.8518L38.9198 18.3764L20.5623 45.2069Z" fill="#637EA8"/>
<path d="M9.48079 14.6549H19.8254C22.682 14.6555 24.9983 12.3403 24.9988 9.48365C24.9993 6.9351 23.1434 4.76596 20.6254 4.37233C20.2283 1.85686 18.0618 0.00312494 15.5152 0H13.7911C11.2444 0.0032327 9.07789 1.85697 8.68081 4.37233C5.85845 4.81359 3.9282 7.45912 4.36947 10.2815C4.7631 12.7995 6.93224 14.6554 9.48079 14.6549ZM9.48079 6.03437C9.95686 6.03437 10.3428 5.64838 10.3428 5.17231C10.3428 3.26793 11.8867 1.7241 13.7911 1.7241H15.5152C17.4195 1.7241 18.9634 3.26793 18.9634 5.17231C18.9634 5.64838 19.3493 6.03437 19.8254 6.03437C21.7298 6.03437 23.2736 7.57819 23.2736 9.48257C23.2736 11.387 21.7298 12.9308 19.8254 12.9308H9.48079C7.57641 12.9308 6.03258 11.387 6.03258 9.48257C6.03258 7.57819 7.57641 6.03437 9.48079 6.03437Z" fill="#E8A15B"/>
<path d="M46.4765 41.4509C46.0421 39.1104 43.7924 37.5653 41.452 37.9998C39.6983 38.3253 38.3264 39.6973 38.0008 41.4509C35.6604 41.8854 34.1153 44.135 34.5497 46.4755C34.929 48.5188 36.7123 50.0004 38.7905 49.999H45.6869C48.0673 50.0006 49.9984 48.0721 50.0001 45.6917C50.0015 43.6136 48.5198 41.8303 46.4765 41.4509ZM45.6869 48.2749H38.7905C37.3622 48.2749 36.2043 47.1171 36.2043 45.6888C36.2043 44.2605 37.3622 43.1026 38.7905 43.1026C39.2665 43.1026 39.6525 42.7166 39.6525 42.2406C39.6525 40.8122 40.8104 39.6544 42.2387 39.6544C43.667 39.6544 44.8248 40.8122 44.8248 42.2406C44.8248 42.7166 45.2108 43.1026 45.6869 43.1026C47.1152 43.1026 48.273 44.2605 48.273 45.6888C48.273 47.1171 47.1152 48.2749 45.6869 48.2749Z" fill="#E8A15B"/>
<path d="M46.5493 20.6892H44.8252V22.4133H46.5493V20.6892Z" fill="#E8A15B"/>
<path d="M43.1011 24.1375H41.377V25.8616H43.1011V24.1375Z" fill="#E8A15B"/>
<path d="M39.6528 26.7236H37.9287V28.4477H39.6528V26.7236Z" fill="#E8A15B"/>
</svg>
