<svg width="50" height="50" viewBox="0 0 50 50" fill="none" xmlns="http://www.w3.org/2000/svg">
<path d="M46.9888 7.80537H45.9263C45.8211 6.97764 45.1344 6.33086 44.2893 6.28701V2.65723C44.2893 1.19199 43.0974 0 41.6325 0H40.9765C39.5115 0 38.3196 1.19199 38.3196 2.65723V6.28701C37.4006 6.33467 36.667 7.09521 36.667 8.02598V11.7334C36.667 12.3332 36.9714 12.863 37.4338 13.1769V35.7391C37.4338 35.7718 37.4354 35.8045 37.4388 35.8369C37.4488 35.9377 37.4742 36.0339 37.5126 36.1233L40.406 42.9852C40.5587 43.3471 40.9133 43.5823 41.306 43.5822C41.6988 43.5821 42.0533 43.3468 42.2058 42.9848L45.0963 36.1235C45.1346 36.034 45.1601 35.9377 45.1702 35.8368C45.1734 35.8043 45.1752 35.7717 45.1752 35.739V13.1769C45.6375 12.863 45.942 12.3332 45.942 11.7334V9.7584H46.9889C47.5723 9.7584 48.0469 10.2332 48.0469 10.8169V21.3772C48.0469 21.9165 48.4842 22.3538 49.0235 22.3538C49.5629 22.3538 50.0001 21.9165 50.0001 21.3772V10.817C50 9.15635 48.6491 7.80537 46.9888 7.80537ZM40.2727 2.65723C40.2727 2.26895 40.5884 1.95313 40.9765 1.95313H41.6325C42.0206 1.95313 42.3362 2.26895 42.3362 2.65723V6.28242H40.2727V2.65723ZM41.3054 40.0914L39.8819 36.7157H42.7274L41.3054 40.0914ZM43.222 34.7626H39.3869V13.477H43.222V34.7626ZM43.9888 11.5238H38.6201V8.23555H43.9888V11.5238Z" fill="#637EA8"/>
<path d="M27.0622 3.55054C26.8791 3.36733 26.6307 3.2644 26.3716 3.2644H6.15303C5.03906 3.2644 4.13281 4.17202 4.13281 5.28765V8.14868H2.02295C0.907422 8.14868 0 9.05513 0 10.1691V47.6838C0 48.7995 0.907422 49.7071 2.02295 49.7071H27.263C28.3784 49.7071 29.2859 48.7995 29.2859 47.6838V45.5732H32.146C33.26 45.5732 34.1662 44.6656 34.1662 43.55V11.0607C34.1662 10.8018 34.0634 10.5534 33.8803 10.3703L27.0622 3.55054ZM27.3481 6.59907L30.8323 10.0841H27.418C27.3814 10.0841 27.3481 10.0507 27.3481 10.014V6.59907ZM32.146 43.6201H6.15303C6.11855 43.6201 6.08594 43.586 6.08594 43.55V30.7193C6.08594 30.18 5.64873 29.7427 5.10938 29.7427C4.57002 29.7427 4.13281 30.18 4.13281 30.7193V43.55C4.13281 44.6656 5.03906 45.5732 6.15303 45.5732H27.3328V47.6838C27.3328 47.7192 27.2982 47.754 27.263 47.754H2.02295C1.98643 47.754 1.95312 47.7206 1.95312 47.6838V10.1691C1.95312 10.1345 1.98701 10.1019 2.02295 10.1019H4.13281V21.9478C4.13281 22.4871 4.57002 22.9244 5.10938 22.9244C5.64873 22.9244 6.08594 22.4871 6.08594 21.9478V5.28774C6.08594 5.25171 6.11846 5.21763 6.15303 5.21763H25.3951V10.014C25.3951 11.1296 26.3025 12.0373 27.4181 12.0373H32.2131V43.55C32.213 43.586 32.1805 43.6201 32.146 43.6201Z" fill="#637EA8"/>
<path d="M10.2891 10.2734H21.7632C22.3025 10.2734 22.7397 9.83613 22.7397 9.29688C22.7397 8.75762 22.3025 8.32031 21.7632 8.32031H10.2891C9.74971 8.32031 9.3125 8.75762 9.3125 9.29688C9.3125 9.83613 9.7498 10.2734 10.2891 10.2734Z" fill="#E8A15B"/>
<path d="M10.2891 15.3127H15.5514C16.0907 15.3127 16.5279 14.8754 16.5279 14.3362C16.5279 13.7969 16.0907 13.3596 15.5514 13.3596H10.2891C9.74971 13.3596 9.3125 13.7969 9.3125 14.3362C9.3125 14.8754 9.74981 15.3127 10.2891 15.3127Z" fill="#637EA8"/>
<path d="M19.457 14.3362C19.457 14.8754 19.8942 15.3127 20.4336 15.3127H23.7167C24.2561 15.3127 24.6933 14.8754 24.6933 14.3362C24.6933 13.7969 24.2561 13.3596 23.7167 13.3596H20.4336C19.8942 13.3596 19.457 13.7968 19.457 14.3362Z" fill="#637EA8"/>
<path d="M28.0108 18.4017H10.2891C9.74971 18.4017 9.3125 18.839 9.3125 19.3783C9.3125 19.9176 9.74971 20.3549 10.2891 20.3549H28.0108C28.5502 20.3549 28.9874 19.9176 28.9874 19.3783C28.9874 18.839 28.5502 18.4017 28.0108 18.4017Z" fill="#E8A15B"/>
<path d="M28.0103 23.4408H17.7959C17.2565 23.4408 16.8193 23.8781 16.8193 24.4174C16.8193 24.9566 17.2565 25.3939 17.7959 25.3939H28.0103C28.5497 25.3939 28.9869 24.9566 28.9869 24.4174C28.9869 23.8781 28.5497 23.4408 28.0103 23.4408Z" fill="#637EA8"/>
<path d="M10.2891 25.3939H12.9133C13.4526 25.3939 13.8898 24.9566 13.8898 24.4174C13.8898 23.8781 13.4526 23.4408 12.9133 23.4408H10.2891C9.74971 23.4408 9.3125 23.8781 9.3125 24.4174C9.3125 24.9566 9.7498 25.3939 10.2891 25.3939Z" fill="#637EA8"/>
<path d="M28.0108 28.4829H10.2891C9.74971 28.4829 9.3125 28.9202 9.3125 29.4595C9.3125 29.9987 9.74971 30.436 10.2891 30.436H28.0108C28.5502 30.436 28.9874 29.9987 28.9874 29.4595C28.9874 28.9202 28.5502 28.4829 28.0108 28.4829Z" fill="#E8A15B"/>
<path d="M10.2891 35.478H17.7493C18.2887 35.478 18.7259 35.0407 18.7259 34.5015C18.7259 33.9622 18.2887 33.5249 17.7493 33.5249H10.2891C9.74971 33.5249 9.3125 33.9622 9.3125 34.5015C9.3125 35.0407 9.7498 35.478 10.2891 35.478Z" fill="#637EA8"/>
<path d="M28.0101 33.5249H22.6289C22.0895 33.5249 21.6523 33.9622 21.6523 34.5015C21.6523 35.0407 22.0895 35.478 22.6289 35.478H28.0101C28.5495 35.478 28.9867 35.0407 28.9867 34.5015C28.9867 33.9622 28.5495 33.5249 28.0101 33.5249Z" fill="#637EA8"/>
<path d="M28.0108 38.5642H10.2891C9.74971 38.5642 9.3125 39.0015 9.3125 39.5408C9.3125 40.08 9.74971 40.5173 10.2891 40.5173H28.0108C28.5502 40.5173 28.9874 40.08 28.9874 39.5408C28.9874 39.0015 28.5502 38.5642 28.0108 38.5642Z" fill="#E8A15B"/>
<path d="M5.10938 25.3568C4.57002 25.3568 4.13281 25.7941 4.13281 26.3334V26.3361C4.13281 26.8754 4.57002 27.3113 5.10938 27.3113C5.64873 27.3113 6.08594 26.8726 6.08594 26.3333C6.08594 25.7939 5.64873 25.3568 5.10938 25.3568Z" fill="#637EA8"/>
</svg>
