<svg
        version="1.1"
        xmlns="http://www.w3.org/2000/svg"
        x="0px"
        y="0px"
        width="160.915px"
        height="91.801px"
        viewBox="0 0 160.915 91.801"
        enable-background="new 0 0 160.915 91.801"
        xml:space="preserve"
>
    <g>
      <path
              fill-rule="evenodd"
              clip-rule="evenodd"
              d="M78.731,91.416h9.617c0,0,2.905-0.32,4.39-1.919
            c1.365-1.468,1.322-4.225,1.322-4.225s-0.188-12.904,
            5.801-14.807c5.906-1.872,13.488,12.473,21.524,17.991
            c6.078,4.173,10.695,3.26,10.695,3.26l21.49-0.301c0,
            0,11.241-0.694,5.911-9.531c-0.437-0.723-3.105-6.538-15.979-18.488
            c-13.476-12.506-11.669-10.484,4.562-32.117c9.885-13.175,
            13.837-21.217,12.602-24.662c-1.176-3.282-8.448-2.416-8.448-2.416
            l-24.195,0.151c0,0-1.794-0.244-3.124,0.551c-1.3,
            0.779-2.134,2.596-2.134,2.596s-3.831,10.194-8.937,18.865
            c-10.774,18.294-15.083,19.263-16.844,
            18.126c-4.098-2.649-3.073-10.635-3.073-16.311c0-17.732,
            2.689-25.124-5.237-27.038
            c-2.63-0.635-4.567-1.053-11.294-1.123c-8.633-0.087-15.939,
            0.027-20.077,2.055c-2.752,1.347-4.877,4.351-3.582,4.524
            c1.599,0.211,5.22,0.976,7.14,3.589c2.48,3.374,2.393,
            10.949,2.393,10.949s1.425,20.871-3.327,23.463
            c-3.261,1.778-7.735-1.852-17.341-18.451C37.664,
            17.648,33.948,8.25,33.948,8.25s-0.716-1.756-1.994-2.697
            c-1.55-1.139-3.716-1.5-3.716-1.5L5.244,4.203c0,
            0-3.451,0.096-4.718,1.598c-1.128,1.335-0.09,4.095-0.09,4.095
            S18.435,52.01,38.818,73.233C57.51,92.693,78.731,
            91.416,78.731,91.416L78.731,91.416L78.731,91.416z"
      />
    </g>
  </svg>