<svg width="22" height="16" viewBox="0 0 22 16" xmlns="http://www.w3.org/2000/svg">
<path d="M21.1425 1.58772C20.3484 0.643707 18.8822 0.258636 16.0821 0.258636H5.91772C3.05353 0.258636 1.5625 0.668546 0.771348 1.67359C0 2.65351 0 4.09735 0 6.09566V9.90443C0 13.7758 0.9152 15.7414 5.91772 15.7414H16.0821C18.5104 15.7414 19.8559 15.4016 20.7264 14.5685C21.6191 13.7142 22 12.3193 22 9.90443V6.09566C22 3.98828 21.9403 2.53592 21.1425 1.58772ZM14.1241 8.52588L9.50847 10.9381C9.40528 10.9921 9.29245 11.0188 9.17975 11.0188C9.05215 11.0188 8.92483 10.9845 8.81206 10.9162C8.59973 10.7876 8.47007 10.5574 8.47007 10.3092V5.5001C8.47007 5.25228 8.59937 5.02235 8.81128 4.89361C9.02326 4.76487 9.28691 4.75608 9.50684 4.87033L14.1224 7.26706C14.3573 7.38898 14.5047 7.6314 14.5051 7.8959C14.5054 8.16061 14.3585 8.40339 14.1241 8.52588Z"/>
</svg>
