<svg width="151" height="61" viewBox="0 0 151 61" fill="none" xmlns="http://www.w3.org/2000/svg">
<path d="M21.5959 22.2127H18.5338C18.1903 22.2127 17.9106 22.1292 17.6947 21.9624C17.4788 21.7857 17.3169 21.5698 17.2089 21.3147L15.619 16.9719H6.80103L5.21114 21.3147C5.13263 21.5404 4.98051 21.7465 4.75478 21.933C4.52906 22.1194 4.24445 22.2127 3.90095 22.2127H0.824219L9.18587 0.925781H13.2342L21.5959 22.2127ZM7.8168 14.1749H14.6033L12.0123 7.09397C11.8848 6.77992 11.7523 6.41189 11.6149 5.98988C11.4775 5.55806 11.3401 5.09189 11.2027 4.59136C11.0653 5.09189 10.9279 5.55806 10.7905 5.98988C10.6629 6.4217 10.5353 6.79955 10.4077 7.12341L7.8168 14.1749Z" fill="#FFCE82"/>
<path d="M37.6001 7.10869V22.2127H33.964V9.891H30.2542C30.1365 11.7459 29.9549 13.3456 29.7095 14.6901C29.4642 16.0248 29.1698 17.1584 28.8263 18.0907C28.4926 19.0231 28.1147 19.7738 27.6927 20.3431C27.2805 20.9025 26.8389 21.3392 26.3678 21.6533C25.8967 21.9673 25.4109 22.1734 24.9104 22.2715C24.4099 22.3795 23.9045 22.4335 23.3941 22.4335C22.8544 22.4335 22.4569 22.3844 22.2017 22.2863C21.9564 22.1979 21.8337 22.0704 21.8337 21.9035V19.6364H22.7022C23.0261 19.6364 23.35 19.5874 23.6738 19.4892C23.9977 19.3911 24.3118 19.1899 24.616 18.8857C24.9202 18.5814 25.2098 18.1496 25.4846 17.5902C25.7594 17.021 26.0096 16.2751 26.2353 15.3526C26.4709 14.4202 26.677 13.2818 26.8536 11.9373C27.0303 10.5927 27.1677 8.98319 27.2658 7.10869H37.6001Z" fill="#FFCE82"/>
<path d="M47.6151 6.87315C48.5671 6.87315 49.4455 7.02527 50.2502 7.32951C51.055 7.63375 51.7469 8.08029 52.3259 8.66914C52.905 9.24818 53.3564 9.96461 53.6803 10.8184C54.014 11.6625 54.1808 12.6291 54.1808 13.7185C54.1808 14.2681 54.1219 14.641 54.0042 14.8373C53.8864 15.0238 53.6607 15.117 53.327 15.117H43.979C44.0379 15.8924 44.1753 16.5646 44.3912 17.1338C44.6071 17.6932 44.8917 18.1594 45.245 18.5324C45.5983 18.8955 46.0154 19.1703 46.4963 19.3567C46.987 19.5334 47.5268 19.6217 48.1157 19.6217C48.7045 19.6217 49.2099 19.553 49.632 19.4156C50.0638 19.2782 50.4367 19.1261 50.7508 18.9593C51.0746 18.7924 51.3543 18.6403 51.5899 18.5029C51.8352 18.3655 52.0708 18.2968 52.2965 18.2968C52.6007 18.2968 52.8265 18.4097 52.9737 18.6354L54.0189 19.9603C53.6165 20.4314 53.165 20.8289 52.6645 21.1527C52.164 21.4668 51.6389 21.722 51.0894 21.9182C50.5496 22.1047 49.9951 22.2372 49.4259 22.3157C48.8664 22.3942 48.3218 22.4335 47.7918 22.4335C46.7417 22.4335 45.7652 22.2617 44.8623 21.9182C43.9594 21.5649 43.1742 21.0497 42.5069 20.3725C41.8395 19.6855 41.3145 18.8415 40.9317 17.8405C40.549 16.8296 40.3576 15.6617 40.3576 14.3368C40.3576 13.3063 40.5244 12.3396 40.8581 11.4367C41.1918 10.524 41.6678 9.73398 42.2861 9.06661C42.9142 8.38944 43.6748 7.85457 44.5679 7.462C45.4708 7.06944 46.4865 6.87315 47.6151 6.87315ZM47.6887 9.47881C46.6288 9.47881 45.7995 9.77814 45.2009 10.3768C44.6022 10.9755 44.2195 11.8244 44.0526 12.9236H50.9127C50.9127 12.4525 50.844 12.0109 50.7066 11.5987C50.579 11.1767 50.3827 10.8086 50.1177 10.4946C49.8528 10.1805 49.5142 9.93517 49.102 9.75851C48.6996 9.57204 48.2285 9.47881 47.6887 9.47881Z" fill="#FFCE82"/>
<path d="M65.9336 8.06557C66.1103 7.78096 66.3507 7.55033 66.655 7.37367C66.9592 7.19702 67.2831 7.10869 67.6266 7.10869H70.4825L66.9641 12.7175C66.7188 13.11 66.4685 13.429 66.2133 13.6744C65.9582 13.9099 65.649 14.0964 65.2859 14.2338C65.7766 14.381 66.179 14.6018 66.493 14.8962C66.8071 15.1808 67.0917 15.5439 67.3469 15.9856L70.88 22.2127H68.3626C67.7247 22.2127 67.2291 22.1047 66.8758 21.8888C66.5225 21.6729 66.2231 21.3637 65.9778 20.9614L63.7549 16.7805C63.5586 16.4174 63.3034 16.1475 62.9894 15.9709C62.6851 15.7942 62.3269 15.7059 61.9147 15.7059H60.5457V22.2127H56.9095V7.10869H60.5457V13.3358H61.7234C62.1356 13.3358 62.4643 13.2622 62.7097 13.1149C62.9649 12.9579 63.1808 12.7224 63.3574 12.4083L65.9336 8.06557Z" fill="#FFCE82"/>
<path d="M83.1696 10.3032C83.0617 10.4406 82.9537 10.5485 82.8458 10.6271C82.7476 10.7056 82.6004 10.7448 82.4041 10.7448C82.2177 10.7448 82.0361 10.6909 81.8595 10.5829C81.6828 10.4651 81.4718 10.3375 81.2264 10.2001C80.9811 10.0529 80.6867 9.92535 80.3432 9.8174C80.0095 9.69963 79.5924 9.64074 79.0919 9.64074C78.4539 9.64074 77.8945 9.75851 77.4136 9.99405C76.9328 10.2198 76.5304 10.5485 76.2065 10.9804C75.8925 11.4122 75.6569 11.9372 75.4999 12.5555C75.3429 13.164 75.2644 13.8559 75.2644 14.6312C75.2644 15.436 75.3478 16.1524 75.5146 16.7805C75.6913 17.4086 75.9415 17.9386 76.2654 18.3704C76.5893 18.7924 76.9818 19.1163 77.4431 19.342C77.9044 19.5579 78.4245 19.6659 79.0035 19.6659C79.5826 19.6659 80.0488 19.5972 80.4021 19.4598C80.7652 19.3126 81.0694 19.1556 81.3148 18.9887C81.5601 18.8121 81.7711 18.655 81.9478 18.5176C82.1343 18.3704 82.3403 18.2968 82.5661 18.2968C82.8605 18.2968 83.0813 18.4097 83.2285 18.6354L84.2737 19.9603C83.8714 20.4314 83.4346 20.8289 82.9635 21.1527C82.4925 21.4668 82.0018 21.722 81.4914 21.9182C80.9909 22.1047 80.4708 22.2372 79.931 22.3157C79.401 22.3942 78.8711 22.4335 78.3411 22.4335C77.4087 22.4335 76.5304 22.2617 75.706 21.9182C74.8816 21.5649 74.1603 21.0546 73.542 20.3872C72.9237 19.7199 72.433 18.9053 72.0698 17.9435C71.7165 16.9719 71.5399 15.8678 71.5399 14.6312C71.5399 13.5222 71.6969 12.4967 72.011 11.5545C72.3348 10.6025 72.8059 9.78305 73.4242 9.09606C74.0425 8.39925 74.808 7.85457 75.7207 7.462C76.6334 7.06944 77.6835 6.87315 78.871 6.87315C79.9997 6.87315 80.986 7.05471 81.83 7.41784C82.6838 7.78096 83.4493 8.30111 84.1265 8.97829L83.1696 10.3032Z" fill="#FFCE82"/>
<path d="M96.4312 22.2127C96.0877 22.2127 95.8227 22.1636 95.6362 22.0654C95.4498 21.9575 95.3025 21.7465 95.1946 21.4324L94.8707 20.3578C94.488 20.7013 94.115 21.0055 93.7519 21.2705C93.3888 21.5257 93.0109 21.7416 92.6184 21.9182C92.2258 22.0949 91.8038 22.2274 91.3523 22.3157C90.9107 22.404 90.42 22.4482 89.8802 22.4482C89.2423 22.4482 88.6535 22.3648 88.1137 22.1979C87.5739 22.0213 87.1077 21.7612 86.7152 21.4177C86.3226 21.0742 86.0183 20.6473 85.8024 20.137C85.5865 19.6266 85.4786 19.0329 85.4786 18.3557C85.4786 17.7865 85.6258 17.2271 85.9202 16.6775C86.2245 16.1181 86.725 15.6176 87.4218 15.1759C88.1186 14.7245 89.046 14.3515 90.2041 14.0571C91.3622 13.7627 92.8048 13.5958 94.5321 13.5566V12.6733C94.5321 11.6625 94.3162 10.9166 93.8844 10.4357C93.4526 9.94498 92.8294 9.69963 92.0148 9.69963C91.4259 9.69963 90.9352 9.76832 90.5427 9.90572C90.1599 10.0431 89.8213 10.2001 89.5269 10.3768C89.2325 10.5436 88.9626 10.6958 88.7172 10.8332C88.4817 10.9706 88.2167 11.0393 87.9223 11.0393C87.6671 11.0393 87.4512 10.9755 87.2746 10.8479C87.0979 10.7105 86.9556 10.5535 86.8476 10.3768L86.1999 9.21383C87.937 7.62393 90.0274 6.82899 92.4712 6.82899C93.3544 6.82899 94.1445 6.9762 94.8413 7.27063C95.5381 7.55524 96.1269 7.95762 96.6078 8.47777C97.0887 8.9881 97.4518 9.60148 97.6972 10.3179C97.9524 11.0343 98.0799 11.8195 98.0799 12.6733V22.2127H96.4312ZM90.999 19.9456C91.7449 19.9456 92.3877 19.8131 92.9275 19.5481C93.4771 19.2733 94.012 18.8611 94.5321 18.3115V15.7648C93.4722 15.8138 92.584 15.9071 91.8676 16.0445C91.161 16.1721 90.5918 16.3389 90.1599 16.545C89.7281 16.7511 89.419 16.9915 89.2325 17.2663C89.046 17.5411 88.9528 17.8405 88.9528 18.1643C88.9528 18.8022 89.1393 19.2586 89.5122 19.5334C89.8949 19.8082 90.3906 19.9456 90.999 19.9456Z" fill="#FFCE82"/>
<path d="M114.665 7.10869V22.2127H111.029V15.5292H105.141V22.2127H101.504V7.10869H105.141V12.8352H111.029V7.10869H114.665Z" fill="#FFCE82"/>
<path d="M131.869 7.10869V19.5187H134.637V26.1874C134.637 26.5211 134.539 26.786 134.343 26.9823C134.156 27.1786 133.911 27.2768 133.607 27.2768H131.34V22.2127H120.034V26.2463C120.034 26.5014 119.95 26.737 119.783 26.9529C119.626 27.1688 119.376 27.2768 119.033 27.2768H116.736V19.6217H117.31C117.644 19.6119 117.968 19.553 118.282 19.4451C118.596 19.3371 118.895 19.1261 119.18 18.8121C119.474 18.498 119.749 18.0613 120.004 17.5019C120.259 16.9326 120.49 16.1868 120.696 15.2642C120.912 14.3417 121.098 13.2131 121.256 11.8784C121.413 10.5436 121.54 8.95375 121.638 7.10869H131.869ZM124.612 9.891C124.514 11.157 124.391 12.3004 124.244 13.321C124.097 14.3319 123.925 15.2348 123.729 16.0297C123.532 16.8247 123.316 17.5166 123.081 18.1054C122.855 18.6943 122.61 19.1997 122.345 19.6217H128.336V9.891H124.612Z" fill="#FFCE82"/>
<path d="M136.927 27.1443V7.10869H139.15C139.621 7.10869 139.931 7.32951 140.078 7.77115L140.372 9.16966C140.981 8.47286 141.677 7.90855 142.463 7.47672C143.258 7.0449 144.185 6.82899 145.245 6.82899C146.069 6.82899 146.82 7.00074 147.497 7.34423C148.184 7.68773 148.773 8.18825 149.264 8.8458C149.764 9.49353 150.147 10.2983 150.412 11.2601C150.687 12.212 150.824 13.3063 150.824 14.5429C150.824 15.6715 150.672 16.7167 150.368 17.6785C150.064 18.6403 149.627 19.4745 149.058 20.1811C148.498 20.8877 147.816 21.4422 147.011 21.8446C146.216 22.2372 145.323 22.4335 144.332 22.4335C143.478 22.4335 142.752 22.3059 142.153 22.0507C141.565 21.7857 141.035 21.4226 140.564 20.9614V27.1443H136.927ZM143.994 9.69963C143.238 9.69963 142.59 9.86156 142.05 10.1854C141.52 10.4995 141.025 10.946 140.564 11.5251V18.2968C140.976 18.8071 141.422 19.1654 141.903 19.3715C142.394 19.5677 142.924 19.6659 143.493 19.6659C144.043 19.6659 144.538 19.5628 144.98 19.3567C145.422 19.1506 145.794 18.8366 146.099 18.4146C146.413 17.9926 146.653 17.4626 146.82 16.8247C146.987 16.177 147.07 15.4164 147.07 14.5429C147.07 13.6596 146.997 12.9138 146.849 12.3053C146.712 11.687 146.511 11.1865 146.246 10.8037C145.981 10.421 145.657 10.1413 145.274 9.96461C144.901 9.78795 144.474 9.69963 143.994 9.69963Z" fill="#FFCE82"/>
<path d="M5.97664 56.8958C6.19256 56.8958 6.41337 56.8762 6.6391 56.837C6.86483 56.7977 7.08564 56.7192 7.30155 56.6014C7.52728 56.4836 7.74319 56.3168 7.94929 56.1009C8.15539 55.885 8.34676 55.6004 8.52342 55.2471L9.36252 53.5541L0.824219 38.6121H4.53397C4.87746 38.6121 5.15226 38.6955 5.35835 38.8624C5.56445 39.0292 5.7362 39.2402 5.8736 39.4954L10.0103 47.2976C10.4617 48.1318 10.8199 48.9905 11.0849 49.8738C11.2125 49.4322 11.3597 49.0004 11.5265 48.5784C11.6934 48.1563 11.8799 47.7294 12.0859 47.2976L15.6926 39.4954C15.8006 39.2795 15.9625 39.0783 16.1784 38.8918C16.3944 38.7053 16.6692 38.6121 17.0028 38.6121H20.2857L11.6885 56.94C11.3842 57.5779 11.0604 58.103 10.7169 58.5152C10.3734 58.9274 10.0004 59.2512 9.59806 59.4868C9.2055 59.7223 8.77858 59.8842 8.31732 59.9726C7.86587 60.0707 7.38007 60.1198 6.85992 60.1198C6.1533 60.1198 5.63806 60.056 5.31419 59.9284C4.99032 59.8008 4.82839 59.6144 4.82839 59.369V56.8958H5.97664Z" fill="#FFCE82"/>
<path d="M29.7765 47.9895C29.6685 48.1269 29.5606 48.2349 29.4526 48.3134C29.3545 48.3919 29.2073 48.4311 29.011 48.4311C28.8245 48.4311 28.6429 48.3772 28.4663 48.2692C28.2896 48.1514 28.0786 48.0239 27.8333 47.8865C27.5879 47.7392 27.2935 47.6117 26.95 47.5037C26.6163 47.3859 26.1992 47.3271 25.6987 47.3271C25.0608 47.3271 24.5014 47.4448 24.0205 47.6804C23.5396 47.9061 23.1372 48.2349 22.8133 48.6667C22.4993 49.0985 22.2638 49.6236 22.1067 50.2419C21.9497 50.8503 21.8712 51.5422 21.8712 52.3175C21.8712 53.1223 21.9546 53.8387 22.1214 54.4668C22.2981 55.0949 22.5484 55.6249 22.8722 56.0567C23.1961 56.4787 23.5887 56.8026 24.0499 57.0283C24.5112 57.2442 25.0313 57.3522 25.6104 57.3522C26.1894 57.3522 26.6556 57.2835 27.0089 57.1461C27.372 56.9989 27.6763 56.8419 27.9216 56.675C28.167 56.4984 28.378 56.3413 28.5546 56.2039C28.7411 56.0567 28.9472 55.9831 29.1729 55.9831C29.4673 55.9831 29.6882 56.096 29.8354 56.3217L30.8806 57.6466C30.4782 58.1177 30.0415 58.5152 29.5704 58.839C29.0993 59.1531 28.6086 59.4083 28.0983 59.6045C27.5977 59.791 27.0776 59.9235 26.5378 60.002C26.0078 60.0805 25.4779 60.1198 24.9479 60.1198C24.0156 60.1198 23.1372 59.948 22.3128 59.6045C21.4884 59.2512 20.7671 58.7409 20.1488 58.0735C19.5305 57.4062 19.0398 56.5916 18.6767 55.6298C18.3234 54.6582 18.1467 53.5541 18.1467 52.3175C18.1467 51.2085 18.3037 50.183 18.6178 49.2408C18.9417 48.2888 19.4127 47.4694 20.031 46.7824C20.6493 46.0856 21.4148 45.5409 22.3275 45.1483C23.2403 44.7557 24.2904 44.5595 25.4779 44.5595C26.6065 44.5595 27.5928 44.741 28.4368 45.1041C29.2907 45.4673 30.0562 45.9874 30.7334 46.6646L29.7765 47.9895Z" fill="#FFCE82"/>
<path d="M31.7174 44.795H46.1147V47.489H40.7268V59.899H37.0906V47.489H31.7174V44.795Z" fill="#FFCE82"/>
<path d="M51.8912 44.795V50.9485H54.8943C55.0121 49.9572 55.2574 49.0691 55.6304 48.2839C56.0131 47.489 56.5038 46.8167 57.1025 46.2671C57.7012 45.7175 58.4029 45.2955 59.2076 45.0011C60.0222 44.7067 60.9202 44.5595 61.9016 44.5595C62.991 44.5595 63.9773 44.741 64.8606 45.1041C65.7439 45.4673 66.4995 45.9825 67.1277 46.6499C67.7558 47.3172 68.2416 48.1318 68.5851 49.0936C68.9286 50.0554 69.1003 51.13 69.1003 52.3175C69.1003 53.5149 68.9236 54.5944 68.5703 55.5562C68.217 56.518 67.7214 57.3375 67.0835 58.0147C66.4456 58.6918 65.685 59.212 64.8017 59.5751C63.9184 59.9382 62.9517 60.1198 61.9016 60.1198C60.881 60.1198 59.9584 59.9677 59.134 59.6634C58.3195 59.3592 57.6128 58.9225 57.0142 58.3532C56.4253 57.784 55.9444 57.0921 55.5715 56.2775C55.2084 55.463 54.9777 54.5454 54.8796 53.5247H51.8912V59.899H48.2551V44.795H51.8912ZM61.9016 57.3228C63.0793 57.3228 63.9479 56.9007 64.5073 56.0567C65.0667 55.2127 65.3464 53.9761 65.3464 52.347C65.3464 50.7178 65.0667 49.4763 64.5073 48.6225C63.9479 47.7687 63.0793 47.3418 61.9016 47.3418C60.7239 47.3418 59.8554 47.7736 59.296 48.6372C58.7366 49.4911 58.4569 50.7277 58.4569 52.347C58.4569 53.9761 58.7317 55.2127 59.2812 56.0567C59.8407 56.9007 60.7141 57.3228 61.9016 57.3228Z" fill="#FFCE82"/>
<path d="M82.092 44.795V47.489H75.4969V59.899H71.8608V44.795H82.092Z" fill="#FFCE82"/>
<path d="M90.4477 44.5595C91.5665 44.5595 92.5823 44.741 93.495 45.1041C94.4175 45.4673 95.2026 45.9825 95.8504 46.6499C96.5079 47.3172 97.0133 48.1318 97.3666 49.0936C97.72 50.0554 97.8966 51.13 97.8966 52.3175C97.8966 53.5149 97.72 54.5944 97.3666 55.5562C97.0133 56.518 96.5079 57.3375 95.8504 58.0147C95.2026 58.6918 94.4175 59.212 93.495 59.5751C92.5823 59.9382 91.5665 60.1198 90.4477 60.1198C89.319 60.1198 88.2935 59.9382 87.3709 59.5751C86.4484 59.212 85.6584 58.6918 85.0008 58.0147C84.3531 57.3375 83.8477 56.518 83.4845 55.5562C83.1312 54.5944 82.9546 53.5149 82.9546 52.3175C82.9546 51.13 83.1312 50.0554 83.4845 49.0936C83.8477 48.1318 84.3531 47.3172 85.0008 46.6499C85.6584 45.9825 86.4484 45.4673 87.3709 45.1041C88.2935 44.741 89.319 44.5595 90.4477 44.5595ZM90.4477 57.3228C91.7039 57.3228 92.6313 56.9007 93.23 56.0567C93.8385 55.2127 94.1427 53.9761 94.1427 52.347C94.1427 50.7178 93.8385 49.4763 93.23 48.6225C92.6313 47.7687 91.7039 47.3418 90.4477 47.3418C89.1718 47.3418 88.2248 47.7736 87.6065 48.6372C86.998 49.4911 86.6938 50.7277 86.6938 52.347C86.6938 53.9663 86.998 55.2029 87.6065 56.0567C88.2248 56.9007 89.1718 57.3228 90.4477 57.3228Z" fill="#FFCE82"/>
<path d="M100.671 44.795H106.618C107.57 44.795 108.389 44.8882 109.076 45.0747C109.773 45.2612 110.347 45.5163 110.799 45.8402C111.25 46.1641 111.584 46.5517 111.8 47.0032C112.016 47.4448 112.124 47.9257 112.124 48.4459C112.124 48.7697 112.08 49.1083 111.991 49.4616C111.913 49.8149 111.766 50.1535 111.55 50.4774C111.334 50.7914 111.044 51.081 110.681 51.3459C110.318 51.6109 109.857 51.817 109.297 51.9642C109.798 52.0722 110.254 52.2243 110.666 52.4206C111.088 52.6071 111.447 52.8475 111.741 53.1419C112.035 53.4265 112.261 53.7651 112.418 54.1577C112.585 54.5404 112.668 54.9723 112.668 55.4532C112.668 56.2187 112.507 56.8811 112.183 57.4405C111.869 57.9999 111.442 58.4612 110.902 58.8243C110.372 59.1874 109.754 59.4573 109.047 59.634C108.35 59.8106 107.619 59.899 106.854 59.899H100.671V44.795ZM104.13 53.3628V57.4111H106.839C107.604 57.4111 108.208 57.2246 108.65 56.8517C109.101 56.4787 109.327 55.9684 109.327 55.3207C109.327 55.0459 109.287 54.7907 109.209 54.5552C109.14 54.3098 109.013 54.0988 108.826 53.9222C108.64 53.7455 108.385 53.6081 108.061 53.51C107.747 53.4118 107.344 53.3628 106.854 53.3628H104.13ZM104.13 51.1251H106.515C106.868 51.1251 107.192 51.0761 107.487 50.9779C107.781 50.87 108.036 50.7227 108.252 50.5363C108.468 50.34 108.635 50.1143 108.753 49.8591C108.87 49.5941 108.929 49.3046 108.929 48.9905C108.929 48.7648 108.89 48.544 108.811 48.3281C108.733 48.1024 108.6 47.9061 108.414 47.7392C108.228 47.5626 107.977 47.4252 107.663 47.3271C107.359 47.2191 106.976 47.1651 106.515 47.1651H104.13V51.1251Z" fill="#FFCE82"/>
</svg>
