<svg width="67" height="100" viewBox="0 0 67 100" fill="none" xmlns="http://www.w3.org/2000/svg">
<path fill-rule="evenodd" clip-rule="evenodd" d="M8.30626 4.15668H7.84495C7.6703 3.26035 7.2994 2.5007 6.73269 1.8782C6.0813 1.15993 5.30378 0.801025 4.39924 0.801025C3.89868 0.801025 3.47353 0.950258 3.1238 1.24919C2.73173 1.58578 2.53592 2.04045 2.53592 2.61228C2.53592 3.25431 2.85566 3.86147 3.4947 4.4333C3.74785 4.64948 4.0795 4.89076 4.48965 5.15808L5.62925 5.8731C6.09365 6.16552 6.47028 6.41657 6.75959 6.62624C7.15739 6.92517 7.48904 7.22038 7.75454 7.5128C8.39975 8.23108 8.72214 9.03815 8.72214 9.93447C8.72214 10.8559 8.39975 11.6537 7.75454 12.3273C7.02509 13.0902 6.04205 13.4714 4.80586 13.4714C4.49229 13.4714 4.17255 13.4366 3.84708 13.3664C3.60584 13.3157 3.34078 13.2395 3.05103 13.1376L2.42698 12.9089C2.21573 12.8392 2.053 12.8038 1.93877 12.8038C1.55288 12.8038 1.35971 13.02 1.35971 13.4524H0.953087L0.401367 9.305H0.826513L0.844595 9.35288C0.850769 9.37194 0.856503 9.38775 0.862677 9.40077L0.898841 9.49607C0.92883 9.57882 0.959261 9.65507 0.98925 9.7248C1.06158 9.90891 1.13699 10.0809 1.2155 10.2394C1.42675 10.6779 1.66181 11.0595 1.92113 11.3836C2.25278 11.8029 2.62059 12.1274 3.02457 12.3561C3.50705 12.6295 4.04069 12.7662 4.62548 12.7662C5.32494 12.7662 5.87975 12.5375 6.28946 12.0795C6.66345 11.6662 6.85 11.1739 6.85 10.6016C6.85 9.99119 6.68726 9.48631 6.36179 9.08556C5.95781 8.58347 5.1137 7.93493 3.82944 7.14042C3.32888 6.83544 2.93725 6.58114 2.65367 6.37752C2.27968 6.10415 1.97538 5.83405 1.74031 5.56719C1.20315 4.9512 0.935005 4.20131 0.935005 3.318C0.935005 2.26918 1.28782 1.43654 1.99302 0.820086C2.62015 0.273362 3.38621 0 4.29031 0C4.54345 0 4.81204 0.0316133 5.09517 0.0953047C5.30642 0.145979 5.54722 0.222223 5.81889 0.324036L6.42486 0.552768C6.61802 0.622503 6.76533 0.657835 6.86808 0.657835C7.09124 0.657835 7.26015 0.575083 7.37438 0.410043C7.41054 0.346351 7.44362 0.273362 7.47405 0.190609L7.51021 0H7.89919L8.30626 4.15668ZM19.2106 13.1979H13.8019V12.826C14.5979 12.7878 15.098 12.6288 15.3031 12.3494C15.4597 12.1398 15.5382 11.6409 15.5382 10.8525V1.08954H14.5432C13.5121 1.08954 12.8157 1.24202 12.4541 1.547C12.0863 1.85197 11.8001 2.53212 11.595 3.58745H11.1518L11.2603 0.26945H21.7068L21.8245 3.58745H21.3725C21.1855 2.53212 20.9023 1.84918 20.5222 1.5377C20.1605 1.23877 19.4642 1.08954 18.4331 1.08954H17.4293V11.0719C17.4293 11.7586 17.5316 12.2095 17.7367 12.4257C17.9598 12.6674 18.4511 12.8009 19.211 12.826V13.1979H19.2106ZM23.7071 6.75037C23.7071 8.7778 24.2981 10.418 25.48 11.6699C26.6139 12.8713 28.0428 13.4719 29.7672 13.4719C31.4916 13.4719 32.921 12.8713 34.0544 11.6699C35.2302 10.418 35.8181 8.7778 35.8181 6.75037C35.8181 5.66994 35.6461 4.6876 35.3025 3.80429C34.9832 2.9842 34.525 2.27848 33.9278 1.68759C32.794 0.56253 31.4074 0 29.7672 0C28.1213 0 26.7312 0.56253 25.5974 1.68759C25.0064 2.27895 24.5482 2.9842 24.2227 3.80429C23.8791 4.6876 23.7071 5.66994 23.7071 6.75037ZM33.7109 6.7313C33.7109 8.75223 33.3095 10.2938 32.5077 11.3552C31.8021 12.2957 30.8888 12.7662 29.7677 12.7662C28.6404 12.7662 27.724 12.2957 27.0183 11.3552C26.2161 10.2938 25.8152 8.75269 25.8152 6.7313C25.8152 5.66343 25.933 4.72293 26.168 3.90935C26.385 3.17202 26.6893 2.55231 27.0814 2.05021C27.7928 1.14784 28.6885 0.696422 29.7677 0.696422C30.8469 0.696422 31.739 1.14784 32.4447 2.05021C32.8425 2.55231 33.1468 3.17202 33.358 3.90935C33.5931 4.72293 33.7109 5.66343 33.7109 6.7313ZM50.4666 0.641371C49.7852 0.724124 49.3481 0.873357 49.155 1.08954C48.8595 1.41357 48.7117 2.09698 48.7117 3.13929V13.4169H48.3951L40.2463 2.71018H40.2101V10.3281C40.2101 11.3132 40.3305 11.9743 40.5718 12.3113C40.8011 12.6228 41.2593 12.7944 41.9464 12.826V13.1979H37.5962V12.826C38.3257 12.7753 38.802 12.6098 39.0251 12.3304C39.2725 12.0124 39.396 11.3453 39.396 10.3281V1.71855C39.0282 1.24807 38.7265 0.946346 38.4915 0.81292C38.2864 0.698554 37.9878 0.641371 37.5962 0.641371V0.26945H40.7619L47.8619 9.66046H47.898V3.13929C47.898 2.09047 47.7596 1.40706 47.4822 1.08954C47.2709 0.847787 46.8158 0.698554 46.1163 0.641371V0.26945H50.4666V0.641371ZM51.8881 13.1966H61.8914L62.7236 9.89809H62.2081C61.7984 10.8832 61.3097 11.5573 60.743 11.9195C60.1701 12.2751 59.3048 12.4532 58.1471 12.4532C56.7782 12.4532 55.9733 12.4179 55.7321 12.3481C55.5032 12.2784 55.3885 12.0399 55.3885 11.6331V6.78976L58.2376 6.82788C59.0032 6.8409 59.5095 6.95805 59.7569 7.18074C59.9919 7.39692 60.1666 7.89901 60.2813 8.68702H60.7064V4.15842H60.2813C60.1728 4.90179 60.0131 5.38483 59.8019 5.60751C59.5425 5.87437 59.0208 6.00779 58.2371 6.00779H55.3881V1.6791C55.3881 1.23419 55.5932 1.0115 56.0033 1.0115H58.4995C59.5368 1.0115 60.2301 1.13563 60.5798 1.38342C60.9357 1.63726 61.1796 2.197 61.3124 3.06125H61.7825L61.719 0.267658H51.8877V0.639579C52.5272 0.696761 52.94 0.808338 53.127 0.973378C53.3744 1.20257 53.4979 1.67584 53.4979 2.39412V11.0706C53.4979 11.7823 53.3775 12.2528 53.1362 12.4815C52.9373 12.6656 52.5215 12.78 51.8881 12.8246V13.1966Z" fill="url(#paint0_linear)"/>
<path fill-rule="evenodd" clip-rule="evenodd" d="M20.0494 98.3624C19.8263 98.5912 19.3288 98.7153 18.557 98.7343V99.1058H24.0566V98.7339C23.3328 98.7148 22.8596 98.607 22.6365 98.4098C22.3771 98.1876 22.2475 97.7106 22.2475 96.9798V88.3038C22.2475 87.5665 22.3798 87.0867 22.6453 86.864C22.8561 86.686 23.3267 86.5809 24.0561 86.5493V86.1774H18.557V86.5493C19.3288 86.5874 19.8201 86.7115 20.0313 86.9212C20.2483 87.1248 20.3568 87.5856 20.3568 88.3038V96.9798C20.3568 97.6855 20.2545 98.1462 20.0494 98.3624ZM3.88982 86.8857C4.0949 86.7076 4.54077 86.5965 5.22832 86.5519H5.22788V86.18H0V86.5519C0.639483 86.6091 1.05228 86.7206 1.23927 86.8857C1.48669 87.1149 1.61017 87.5881 1.61017 88.3064V96.9824C1.61017 97.6942 1.48977 98.1646 1.24854 98.3934C1.04963 98.5775 0.63375 98.6918 0.000441023 98.7365V99.1084H9.96755L10.854 95.7141H10.3927C9.90405 96.9029 9.28309 97.6593 8.52938 97.9833C8.17347 98.1423 7.72407 98.2474 7.18161 98.2981C6.94655 98.3171 6.66606 98.3297 6.34058 98.3362L5.37298 98.3459C4.55885 98.3459 4.05564 98.3106 3.86248 98.2409C3.62124 98.1521 3.50084 97.9201 3.50084 97.5449V88.3064C3.50084 87.5816 3.6305 87.1084 3.88982 86.8857ZM44.6079 86.5493C43.9265 86.632 43.4895 86.7813 43.2963 86.9975C43.0008 87.3215 42.8531 88.0049 42.8531 89.0472V99.3248H42.5364L34.3872 88.6181H34.351V96.236C34.351 97.2211 34.4714 97.8822 34.7127 98.2192C34.942 98.5307 35.4002 98.7023 36.0873 98.7339V99.1058H31.7371V98.7339C32.4665 98.6832 32.9428 98.5177 33.166 98.2383C33.4134 97.9203 33.5369 97.2532 33.5369 96.236V87.6265C33.1691 87.156 32.8674 86.8543 32.6324 86.7208C32.4273 86.6065 32.1287 86.5493 31.7371 86.5493V86.1774H34.9028L42.0028 95.5684H42.0389V89.0472C42.0389 87.9984 41.9005 87.315 41.6231 86.9975C41.4118 86.7557 40.9567 86.6065 40.2572 86.5493V86.1774H44.6075V86.5493H44.6079ZM52.2341 99.1058H62.2374L63.0696 95.8078H62.5541C62.1443 96.7929 61.6557 97.467 61.089 97.8292C60.5161 98.1848 59.6508 98.3629 58.4931 98.3629C57.1242 98.3629 56.3193 98.3276 56.0781 98.2578C55.8492 98.1881 55.7345 97.9496 55.7345 97.5428V92.6995L58.5835 92.7376C59.3491 92.7506 59.8554 92.8678 60.1028 93.0904C60.3379 93.3066 60.5126 93.8087 60.6272 94.5967H61.0524V90.0681H60.6272C60.5187 90.8115 60.3591 91.2945 60.1478 91.5172C59.8885 91.7841 59.3668 91.9175 58.5831 91.9175H55.7341V87.5888C55.7341 87.1439 55.9392 86.9212 56.3493 86.9212H58.8455C59.8828 86.9212 60.5761 87.0453 60.9258 87.2931C61.2817 87.547 61.5256 88.1067 61.6583 88.971H62.1285L62.065 86.1774H52.2337V86.5493C52.8732 86.6065 53.286 86.718 53.473 86.8831C53.7204 87.1123 53.8439 87.5855 53.8439 88.3038V96.9798C53.8439 97.6916 53.7235 98.1621 53.4822 98.3908C53.2833 98.5749 52.8674 98.6893 52.2341 98.7339V99.1058Z" fill="url(#paint1_linear)"/>
<path fill-rule="evenodd" clip-rule="evenodd" d="M51.8326 31.4967C54.3045 30.0602 62.7549 26.0374 62.7549 26.0374L67.0002 24.1369L66.9305 28.6348C64.553 29.354 62.7818 30.5525 62.7818 30.5525V77.4169H20.8573L19.5343 79.7414H43.3495L42.8966 83.9255H15.1655C17.9585 68.5838 29.2125 52.3359 29.2125 52.3359L20.0741 47.7878C15.7075 51.9436 11.9015 56.6818 8.91754 61.3304C5.47758 59.9892 1.50217 56.6353 0.167876 55.5095L0.156624 55.5V15.1201H62.7818V24.8087L56.245 27.487C56.245 27.487 40.7889 20.42 28.5757 23.4772C16.5027 26.499 15.1981 33.0077 15.1981 33.0077C15.1981 33.0077 11.771 40.2727 27.5838 46.3155C41.4209 51.6037 42.1451 56.7432 39.0054 59.6814C36.0669 62.4322 26.2612 64.2142 26.2612 64.2142L24.4146 68.3113C24.4146 68.3113 42.7735 69.7544 51.1785 60.03C60.2195 49.5698 42.3581 41.5502 36.0757 39.4582C33.4357 38.579 22.9024 32.9495 32.3292 28.4749C41.7561 24.0002 51.8489 27.8937 51.8489 27.8937L36.477 34.6929L42.7801 37.6567C42.7801 37.6567 49.306 32.9654 51.8326 31.4967ZM0.15625 78.4147V58.9669C2.36136 60.5536 6.95285 62.6559 7.8468 63.0622C4.70552 68.2043 2.51241 73.129 0.830127 76.9066C0.596001 77.4324 0.371768 77.9359 0.15625 78.4147Z" fill="url(#paint2_linear)"/>
<g opacity="0.5">
<path fill-rule="evenodd" clip-rule="evenodd" d="M8.30626 4.15668H7.84495C7.6703 3.26035 7.2994 2.5007 6.73269 1.8782C6.0813 1.15993 5.30378 0.801025 4.39924 0.801025C3.89868 0.801025 3.47353 0.950258 3.1238 1.24919C2.73173 1.58578 2.53592 2.04045 2.53592 2.61228C2.53592 3.25431 2.85566 3.86147 3.4947 4.4333C3.74785 4.64948 4.0795 4.89076 4.48965 5.15808L5.62925 5.8731C6.09365 6.16552 6.47028 6.41657 6.75959 6.62624C7.15739 6.92517 7.48904 7.22038 7.75454 7.5128C8.39975 8.23108 8.72214 9.03815 8.72214 9.93447C8.72214 10.8559 8.39975 11.6537 7.75454 12.3273C7.02509 13.0902 6.04205 13.4714 4.80586 13.4714C4.49229 13.4714 4.17255 13.4366 3.84708 13.3664C3.60584 13.3157 3.34078 13.2395 3.05103 13.1376L2.42698 12.9089C2.21573 12.8392 2.053 12.8038 1.93877 12.8038C1.55288 12.8038 1.35971 13.02 1.35971 13.4524H0.953087L0.401367 9.305H0.826513L0.844595 9.35288C0.850769 9.37194 0.856503 9.38775 0.862677 9.40077L0.898841 9.49607C0.92883 9.57882 0.959261 9.65507 0.98925 9.7248C1.06158 9.90891 1.13699 10.0809 1.2155 10.2394C1.42675 10.6779 1.66181 11.0595 1.92113 11.3836C2.25278 11.8029 2.62059 12.1274 3.02457 12.3561C3.50705 12.6295 4.04069 12.7662 4.62548 12.7662C5.32494 12.7662 5.87975 12.5375 6.28946 12.0795C6.66345 11.6662 6.85 11.1739 6.85 10.6016C6.85 9.99119 6.68726 9.48631 6.36179 9.08556C5.95781 8.58347 5.1137 7.93493 3.82944 7.14042C3.32888 6.83544 2.93725 6.58114 2.65367 6.37752C2.27968 6.10415 1.97538 5.83405 1.74031 5.56719C1.20315 4.9512 0.935005 4.20131 0.935005 3.318C0.935005 2.26918 1.28782 1.43654 1.99302 0.820086C2.62015 0.273362 3.38621 0 4.29031 0C4.54345 0 4.81204 0.0316133 5.09517 0.0953047C5.30642 0.145979 5.54722 0.222223 5.81889 0.324036L6.42486 0.552768C6.61802 0.622503 6.76533 0.657835 6.86808 0.657835C7.09124 0.657835 7.26015 0.575083 7.37438 0.410043C7.41054 0.346351 7.44362 0.273362 7.47405 0.190609L7.51021 0H7.89919L8.30626 4.15668ZM19.2106 13.1979H13.8019V12.826C14.5979 12.7878 15.098 12.6288 15.3031 12.3494C15.4597 12.1398 15.5382 11.6409 15.5382 10.8525V1.08954H14.5432C13.5121 1.08954 12.8157 1.24202 12.4541 1.547C12.0863 1.85197 11.8001 2.53212 11.595 3.58745H11.1518L11.2603 0.26945H21.7068L21.8245 3.58745H21.3725C21.1855 2.53212 20.9023 1.84918 20.5222 1.5377C20.1605 1.23877 19.4642 1.08954 18.4331 1.08954H17.4293V11.0719C17.4293 11.7586 17.5316 12.2095 17.7367 12.4257C17.9598 12.6674 18.4511 12.8009 19.211 12.826V13.1979H19.2106ZM23.7071 6.75037C23.7071 8.7778 24.2981 10.418 25.48 11.6699C26.6139 12.8713 28.0428 13.4719 29.7672 13.4719C31.4916 13.4719 32.921 12.8713 34.0544 11.6699C35.2302 10.418 35.8181 8.7778 35.8181 6.75037C35.8181 5.66994 35.6461 4.6876 35.3025 3.80429C34.9832 2.9842 34.525 2.27848 33.9278 1.68759C32.794 0.56253 31.4074 0 29.7672 0C28.1213 0 26.7312 0.56253 25.5974 1.68759C25.0064 2.27895 24.5482 2.9842 24.2227 3.80429C23.8791 4.6876 23.7071 5.66994 23.7071 6.75037ZM33.7109 6.7313C33.7109 8.75223 33.3095 10.2938 32.5077 11.3552C31.8021 12.2957 30.8888 12.7662 29.7677 12.7662C28.6404 12.7662 27.724 12.2957 27.0183 11.3552C26.2161 10.2938 25.8152 8.75269 25.8152 6.7313C25.8152 5.66343 25.933 4.72293 26.168 3.90935C26.385 3.17202 26.6893 2.55231 27.0814 2.05021C27.7928 1.14784 28.6885 0.696422 29.7677 0.696422C30.8469 0.696422 31.739 1.14784 32.4447 2.05021C32.8425 2.55231 33.1468 3.17202 33.358 3.90935C33.5931 4.72293 33.7109 5.66343 33.7109 6.7313ZM50.4666 0.641371C49.7852 0.724124 49.3481 0.873357 49.155 1.08954C48.8595 1.41357 48.7117 2.09698 48.7117 3.13929V13.4169H48.3951L40.2463 2.71018H40.2101V10.3281C40.2101 11.3132 40.3305 11.9743 40.5718 12.3113C40.8011 12.6228 41.2593 12.7944 41.9464 12.826V13.1979H37.5962V12.826C38.3257 12.7753 38.802 12.6098 39.0251 12.3304C39.2725 12.0124 39.396 11.3453 39.396 10.3281V1.71855C39.0282 1.24807 38.7265 0.946346 38.4915 0.81292C38.2864 0.698554 37.9878 0.641371 37.5962 0.641371V0.26945H40.7619L47.8619 9.66046H47.898V3.13929C47.898 2.09047 47.7596 1.40706 47.4822 1.08954C47.2709 0.847787 46.8158 0.698554 46.1163 0.641371V0.26945H50.4666V0.641371ZM51.8881 13.1966H61.8914L62.7236 9.89809H62.2081C61.7984 10.8832 61.3097 11.5573 60.743 11.9195C60.1701 12.2751 59.3048 12.4532 58.1471 12.4532C56.7782 12.4532 55.9733 12.4179 55.7321 12.3481C55.5032 12.2784 55.3885 12.0399 55.3885 11.6331V6.78976L58.2376 6.82788C59.0032 6.8409 59.5095 6.95805 59.7569 7.18074C59.9919 7.39692 60.1666 7.89901 60.2813 8.68702H60.7064V4.15842H60.2813C60.1728 4.90179 60.0131 5.38483 59.8019 5.60751C59.5425 5.87437 59.0208 6.00779 58.2371 6.00779H55.3881V1.6791C55.3881 1.23419 55.5932 1.0115 56.0033 1.0115H58.4995C59.5368 1.0115 60.2301 1.13563 60.5798 1.38342C60.9357 1.63726 61.1796 2.197 61.3124 3.06125H61.7825L61.719 0.267658H51.8877V0.639579C52.5272 0.696761 52.94 0.808338 53.127 0.973378C53.3744 1.20257 53.4979 1.67584 53.4979 2.39412V11.0706C53.4979 11.7823 53.3775 12.2528 53.1362 12.4815C52.9373 12.6656 52.5215 12.78 51.8881 12.8246V13.1966Z" fill="white"/>
<path fill-rule="evenodd" clip-rule="evenodd" d="M20.0494 98.3624C19.8263 98.5912 19.3288 98.7153 18.557 98.7343V99.1058H24.0566V98.7339C23.3328 98.7148 22.8596 98.607 22.6365 98.4098C22.3771 98.1876 22.2475 97.7106 22.2475 96.9798V88.3038C22.2475 87.5665 22.3798 87.0867 22.6453 86.864C22.8561 86.686 23.3267 86.5809 24.0561 86.5493V86.1774H18.557V86.5493C19.3288 86.5874 19.8201 86.7115 20.0313 86.9212C20.2483 87.1248 20.3568 87.5856 20.3568 88.3038V96.9798C20.3568 97.6855 20.2545 98.1462 20.0494 98.3624ZM3.88982 86.8857C4.0949 86.7076 4.54077 86.5965 5.22832 86.5519H5.22788V86.18H0V86.5519C0.639483 86.6091 1.05228 86.7206 1.23927 86.8857C1.48669 87.1149 1.61017 87.5881 1.61017 88.3064V96.9824C1.61017 97.6942 1.48977 98.1646 1.24854 98.3934C1.04963 98.5775 0.63375 98.6918 0.000441023 98.7365V99.1084H9.96755L10.854 95.7141H10.3927C9.90405 96.9029 9.28309 97.6593 8.52938 97.9833C8.17347 98.1423 7.72407 98.2474 7.18161 98.2981C6.94655 98.3171 6.66606 98.3297 6.34058 98.3362L5.37298 98.3459C4.55885 98.3459 4.05564 98.3106 3.86248 98.2409C3.62124 98.1521 3.50084 97.9201 3.50084 97.5449V88.3064C3.50084 87.5816 3.6305 87.1084 3.88982 86.8857ZM44.6079 86.5493C43.9265 86.632 43.4895 86.7813 43.2963 86.9975C43.0008 87.3215 42.8531 88.0049 42.8531 89.0472V99.3248H42.5364L34.3872 88.6181H34.351V96.236C34.351 97.2211 34.4714 97.8822 34.7127 98.2192C34.942 98.5307 35.4002 98.7023 36.0873 98.7339V99.1058H31.7371V98.7339C32.4665 98.6832 32.9428 98.5177 33.166 98.2383C33.4134 97.9203 33.5369 97.2532 33.5369 96.236V87.6265C33.1691 87.156 32.8674 86.8543 32.6324 86.7208C32.4273 86.6065 32.1287 86.5493 31.7371 86.5493V86.1774H34.9028L42.0028 95.5684H42.0389V89.0472C42.0389 87.9984 41.9005 87.315 41.6231 86.9975C41.4118 86.7557 40.9567 86.6065 40.2572 86.5493V86.1774H44.6075V86.5493H44.6079ZM52.2341 99.1058H62.2374L63.0696 95.8078H62.5541C62.1443 96.7929 61.6557 97.467 61.089 97.8292C60.5161 98.1848 59.6508 98.3629 58.4931 98.3629C57.1242 98.3629 56.3193 98.3276 56.0781 98.2578C55.8492 98.1881 55.7345 97.9496 55.7345 97.5428V92.6995L58.5835 92.7376C59.3491 92.7506 59.8554 92.8678 60.1028 93.0904C60.3379 93.3066 60.5126 93.8087 60.6272 94.5967H61.0524V90.0681H60.6272C60.5187 90.8115 60.3591 91.2945 60.1478 91.5172C59.8885 91.7841 59.3668 91.9175 58.5831 91.9175H55.7341V87.5888C55.7341 87.1439 55.9392 86.9212 56.3493 86.9212H58.8455C59.8828 86.9212 60.5761 87.0453 60.9258 87.2931C61.2817 87.547 61.5256 88.1067 61.6583 88.971H62.1285L62.065 86.1774H52.2337V86.5493C52.8732 86.6065 53.286 86.718 53.473 86.8831C53.7204 87.1123 53.8439 87.5855 53.8439 88.3038V96.9798C53.8439 97.6916 53.7235 98.1621 53.4822 98.3908C53.2833 98.5749 52.8674 98.6893 52.2341 98.7339V99.1058Z" fill="white"/>
<path fill-rule="evenodd" clip-rule="evenodd" d="M51.8326 31.4967C54.3045 30.0602 62.7549 26.0374 62.7549 26.0374L67.0002 24.1369L66.9305 28.6348C64.553 29.354 62.7818 30.5525 62.7818 30.5525V77.4169H20.8573L19.5343 79.7414H43.3495L42.8966 83.9255H15.1655C17.9585 68.5838 29.2125 52.3359 29.2125 52.3359L20.0741 47.7878C15.7075 51.9436 11.9015 56.6818 8.91754 61.3304C5.47758 59.9892 1.50217 56.6353 0.167876 55.5095L0.156624 55.5V15.1201H62.7818V24.8087L56.245 27.487C56.245 27.487 40.7889 20.42 28.5757 23.4772C16.5027 26.499 15.1981 33.0077 15.1981 33.0077C15.1981 33.0077 11.771 40.2727 27.5838 46.3155C41.4209 51.6037 42.1451 56.7432 39.0054 59.6814C36.0669 62.4322 26.2612 64.2142 26.2612 64.2142L24.4146 68.3113C24.4146 68.3113 42.7735 69.7544 51.1785 60.03C60.2195 49.5698 42.3581 41.5502 36.0757 39.4582C33.4357 38.579 22.9024 32.9495 32.3292 28.4749C41.7561 24.0002 51.8489 27.8937 51.8489 27.8937L36.477 34.6929L42.7801 37.6567C42.7801 37.6567 49.306 32.9654 51.8326 31.4967ZM0.15625 78.4147V58.9669C2.36136 60.5536 6.95285 62.6559 7.8468 63.0622C4.70552 68.2043 2.51241 73.129 0.830127 76.9066C0.596001 77.4324 0.371768 77.9359 0.15625 78.4147Z" fill="white"/>
</g>
<defs>
<linearGradient id="paint0_linear" x1="47.5798" y1="-29.5562" x2="78.2426" y2="79.0015" gradientUnits="userSpaceOnUse">
<stop offset="0.0798" stop-color="#721300"/>
<stop offset="0.3138" stop-color="#D26000"/>
<stop offset="0.3504" stop-color="#D86900"/>
<stop offset="0.4096" stop-color="#E78200"/>
<stop offset="0.5426" stop-color="#BA4E00"/>
<stop offset="0.6644" stop-color="#913000"/>
<stop offset="0.8029" stop-color="#5E0B00"/>
</linearGradient>
<linearGradient id="paint1_linear" x1="32.2215" y1="-5.42972" x2="62.8843" y2="103.128" gradientUnits="userSpaceOnUse">
<stop offset="0.0798" stop-color="#721300"/>
<stop offset="0.3138" stop-color="#D26000"/>
<stop offset="0.3504" stop-color="#D86900"/>
<stop offset="0.4096" stop-color="#E78200"/>
<stop offset="0.5426" stop-color="#BA4E00"/>
<stop offset="0.6644" stop-color="#913000"/>
<stop offset="0.8029" stop-color="#5E0B00"/>
</linearGradient>
<linearGradient id="paint2_linear" x1="22.6374" y1="-3.2253" x2="52.0545" y2="100.922" gradientUnits="userSpaceOnUse">
<stop offset="0.0798" stop-color="#721300"/>
<stop offset="0.3138" stop-color="#D26000"/>
<stop offset="0.3504" stop-color="#D86900"/>
<stop offset="0.4096" stop-color="#E78200"/>
<stop offset="0.5426" stop-color="#BA4E00"/>
<stop offset="0.6644" stop-color="#913000"/>
<stop offset="0.8029" stop-color="#5E0B00"/>
</linearGradient>
</defs>
</svg>
