<svg version="1.1" xmlns="http://www.w3.org/2000/svg" xmlns:xlink="http://www.w3.org/1999/xlink" x="0px" y="0px"
	 width="1110.116px" height="1167px" viewBox="0 0 1110.116 1167" enable-background="new 0 0 1110.116 1167" xml:space="preserve">
<g id="_x33__1_">
	<g>
		<g>
			<path fill="#637EA8" d="M452.92,117.565c-0.813,0-1.637-0.079-2.464-0.245c-6.77-1.354-11.16-7.938-9.806-14.708l18.512-92.563
				C460.33,4.206,465.46,0,471.419,0h124.537c5.975,0,11.114,4.229,12.266,10.092l18.176,92.563
				c1.33,6.773-3.083,13.344-9.857,14.674c-6.773,1.336-13.344-3.082-14.674-9.857L585.671,25H481.667l-16.502,82.515
				C463.976,113.457,458.756,117.565,452.92,117.565z"/>
		</g>
		<g>
			<path fill="#637EA8" d="M595.956,911H471.419c-5.962,0-11.095-4.211-12.259-10.059l-18.512-92.949
				c-1.349-6.771,3.047-13.353,9.818-14.7c6.771-1.353,13.352,3.047,14.701,9.817L481.675,886h103.993l16.197-82.658
				c1.328-6.776,7.899-11.195,14.67-9.863c6.774,1.327,11.19,7.896,9.863,14.67l-18.176,92.755
				C607.073,906.769,601.933,911,595.956,911z"/>
		</g>
		<g>
			<g>
				<path fill="#637EA8" d="M343.312,165.069c-4.155,0-8.219-2.071-10.594-5.849c-3.674-5.845-1.915-13.562,3.929-17.235
					c35.398-22.255,73.966-38.215,114.634-47.437c6.734-1.525,13.428,2.694,14.955,9.426c1.527,6.733-2.693,13.429-9.426,14.955
					c-37.905,8.596-73.856,23.473-106.855,44.22C347.886,164.449,345.585,165.069,343.312,165.069z"/>
			</g>
			<g>
				<path fill="#637EA8" d="M185.065,386.398c-0.943,0-1.901-0.107-2.859-0.332c-6.722-1.572-10.896-8.297-9.323-15.019
					c9.134-39.034,24.51-76.145,45.701-110.298c3.64-5.866,11.345-7.67,17.212-4.032c5.866,3.641,7.671,11.346,4.031,17.212
					c-19.755,31.84-34.088,66.432-42.602,102.813C195.877,382.508,190.74,386.398,185.065,386.398z"/>
			</g>
			<g>
				<path fill="#637EA8" d="M229.007,656.327c-4.186,0-8.275-2.103-10.641-5.924c-21.382-34.546-36.813-72.093-45.866-111.597
					c-1.542-6.729,2.663-13.435,9.392-14.977c6.733-1.539,13.435,2.663,14.976,9.393c8.438,36.819,22.822,71.818,42.755,104.024
					c3.633,5.87,1.82,13.573-4.05,17.207C233.525,655.723,231.252,656.327,229.007,656.327z"/>
			</g>
			<g>
				<path fill="#637EA8" d="M450.605,816.469c-0.956,0-1.925-0.11-2.896-0.341c-40.875-9.697-77.252-24.975-111.213-46.703
					c-5.815-3.721-7.513-11.451-3.792-17.267c3.721-5.815,11.452-7.513,17.266-3.792c31.994,20.471,64.885,34.273,103.511,43.438
					c6.717,1.594,10.87,8.331,9.277,15.048C461.394,812.598,456.265,816.469,450.605,816.469z"/>
			</g>
			<g>
				<path fill="#637EA8" d="M617.661,816.175c-5.643,0-10.761-3.847-12.142-9.574c-1.618-6.711,2.512-13.463,9.223-15.081
					c38.237-9.216,74.377-24.832,107.415-46.415c5.779-3.777,13.525-2.151,17.301,3.628c3.776,5.78,2.151,13.526-3.628,17.302
					c-35.437,23.15-74.206,39.902-115.23,49.79C619.616,816.062,618.63,816.175,617.661,816.175z"/>
			</g>
			<g>
				<path fill="#637EA8" d="M838.201,656.052c-2.241,0-4.511-0.603-6.558-1.867c-5.873-3.628-7.693-11.33-4.065-17.204
					c20.109-32.556,34.548-67.943,42.913-105.181c1.515-6.734,8.198-10.966,14.937-9.456c6.735,1.514,10.969,8.201,9.456,14.937
					c-8.977,39.951-24.465,77.916-46.036,112.839C846.484,653.945,842.391,656.052,838.201,656.052z"/>
			</g>
			<g>
				<path fill="#637EA8" d="M882.119,387.024c-5.685,0-10.825-3.902-12.166-9.677c-9.487-40.878-23.273-74.49-43.385-105.777
					c-3.733-5.807-2.052-13.541,3.756-17.273c5.806-3.733,13.541-2.052,17.273,3.756c21.71,33.773,36.553,69.885,46.709,113.643
					c1.561,6.725-2.626,13.441-9.351,15.003C884.006,386.919,883.055,387.024,882.119,387.024z"/>
			</g>
			<g>
				<path fill="#637EA8" d="M724.038,164.479c-2.312,0-4.65-0.641-6.741-1.982c-31.536-20.244-65.395-34.051-106.556-43.449
					c-6.73-1.537-10.94-8.239-9.404-14.969c1.537-6.73,8.24-10.94,14.969-9.404c44.069,10.063,80.451,24.929,114.496,46.783
					c5.81,3.729,7.496,11.463,3.767,17.272C732.182,162.448,728.152,164.479,724.038,164.479z"/>
			</g>
		</g>
		<g>
			<path fill="#E8A15B" d="M816.94,844.774c-3.199,0-6.397-1.22-8.839-3.661c-4.881-4.882-4.881-12.796,0-17.678l96.404-96.403
				c4.882-4.881,12.796-4.881,17.678,0c4.882,4.882,4.882,12.796,0,17.678l-96.404,96.403
				C823.339,843.554,820.139,844.774,816.94,844.774z"/>
		</g>
		<g>
			<path fill="#637EA8" d="M883.5,548.396c-5.854,0.001-11.08-4.131-12.252-10.092c-1.331-6.773,3.081-13.345,9.855-14.676
				l82.396-16.192v-104.01l-82.367-16.5c-6.77-1.356-11.157-7.943-9.802-14.712c1.356-6.771,7.95-11.159,14.712-9.802l92.412,18.513
				c5.841,1.171,10.045,6.3,10.045,12.257v124.536c0,5.975-4.228,11.113-10.09,12.266l-92.486,18.176
				C885.11,548.32,884.299,548.396,883.5,548.396z"/>
		</g>
		<g>
			<path fill="#637EA8" d="M182.844,548.396c-0.797,0-1.604-0.076-2.416-0.234l-92.831-18.177
				c-5.866-1.148-10.098-6.289-10.098-12.267V393.183c0-5.964,4.213-11.097,10.062-12.26l93.1-18.513
				c6.772-1.35,13.352,3.052,14.698,9.822c1.347,6.771-3.051,13.351-9.822,14.697L102.5,403.441v103.987l82.732,16.199
				c6.775,1.326,11.192,7.894,9.865,14.668C193.93,544.26,188.701,548.396,182.844,548.396z"/>
		</g>
		<g>
			<path fill="#637EA8" d="M228.839,277.025c-4.04,0-8.003-1.954-10.413-5.567l-52.36-78.541c-3.306-4.958-2.652-11.56,1.562-15.772
				l88.061-88.061c4.225-4.225,10.849-4.869,15.809-1.537l78.303,52.599c5.73,3.85,7.255,11.615,3.406,17.346
				c-3.85,5.731-11.617,7.257-17.347,3.406l-69.766-46.863l-73.542,73.542l46.676,70.015c3.829,5.744,2.277,13.505-3.467,17.334
				C233.63,276.346,231.222,277.025,228.839,277.025z"/>
		</g>
		<g>
			<path fill="#637EA8" d="M838.011,277.114c-2.396,0-4.818-0.688-6.958-2.124c-5.73-3.85-7.256-11.615-3.407-17.347l46.836-69.735
				l-73.544-73.545l-69.955,46.619c-5.746,3.83-13.506,2.275-17.334-3.47c-3.828-5.744-2.275-13.505,3.47-17.333l78.481-52.302
				c4.958-3.303,11.558-2.651,15.771,1.563l88.061,88.062c4.225,4.225,4.869,10.849,1.538,15.809l-52.569,78.272
				C845.987,275.175,842.035,277.114,838.011,277.114z"/>
		</g>
		<g>
			<path fill="#637EA8" d="M264.413,825.023c-3.226,0-6.426-1.245-8.843-3.661l-88.061-88.061
				c-4.215-4.215-4.867-10.82-1.558-15.778l52.539-78.72c3.833-5.741,11.593-7.29,17.336-3.458
				c5.742,3.833,7.291,11.595,3.458,17.337l-46.847,70.191l73.537,73.537l69.854-46.95c5.729-3.851,13.495-2.327,17.347,3.402
				c3.851,5.729,2.328,13.496-3.402,17.347l-78.392,52.688C269.258,824.325,266.828,825.023,264.413,825.023z"/>
		</g>
		<g>
			<g>
				<path fill="#637EA8" d="M1018.816,1030.511C1018.814,1030.511,1018.816,1030.511,1018.816,1030.511
					c-15.114,0-29.586-6.811-43.017-20.24L727.576,760.027c-4.848-4.887-4.832-12.774,0.036-17.642l96.404-96.564
					c2.345-2.345,5.524-3.821,8.839-3.821c0.009,0,0.017,0,0.025,0c3.324,0,6.509,1.497,8.85,3.857l248.188,250.287
					c45.258,45.258,2.325,88.23-11.783,102.339C1064.402,1012.214,1043.312,1030.511,1018.816,1030.511z M754.093,751.261
					l239.421,241.368c8.656,8.656,16.944,12.882,25.302,12.882c11.581,0,24.813-7.837,41.641-24.665
					c32.778-32.778,28.797-49.93,11.747-66.979L832.818,672.534L754.093,751.261z"/>
			</g>
		</g>
		<g>
			<path fill="#2C3C68" d="M533.687,757.582c-81.152,0-157.446-31.603-214.83-88.985c-57.383-57.383-88.985-133.678-88.985-214.829
				s31.603-157.446,88.985-214.829c57.383-57.383,133.678-88.985,214.83-88.985s157.446,31.603,214.829,88.985
				c57.383,57.383,88.985,133.677,88.985,214.829s-31.602,157.446-88.985,214.829C691.133,725.979,614.838,757.582,533.687,757.582z
				 M533.687,174.953c-153.739,0-278.815,125.075-278.815,278.814s125.076,278.814,278.815,278.814s278.814-125.075,278.814-278.814
				S687.425,174.953,533.687,174.953z"/>
		</g>
		<g>
			<path fill="#E8A15B" d="M549.5,114h-30c-6.904,0-12.5-5.597-12.5-12.5S512.596,89,519.5,89h30c6.904,0,12.5,5.597,12.5,12.5
				S556.404,114,549.5,114z"/>
		</g>
		<path fill="#637EA8" d="M535.5,468c-6.903,0-12.5,5.597-12.5,12.5s5.597,12.5,12.5,12.5h46v-25H535.5z"/>
		<g>
			<path fill="#E8A15B" d="M549.5,823h-30c-6.904,0-12.5-5.597-12.5-12.5s5.596-12.5,12.5-12.5h30c6.904,0,12.5,5.597,12.5,12.5
				S556.404,823,549.5,823z"/>
		</g>
		<g>
			<path fill="#E8A15B" d="M179,482.5c-6.904,0-12.5-5.597-12.5-12.5v-29c0-6.903,5.596-12.5,12.5-12.5s12.5,5.597,12.5,12.5v29
				C191.5,476.903,185.904,482.5,179,482.5z"/>
		</g>
		<g>
			<path fill="#E8A15B" d="M889,482.5c-6.903,0-12.5-5.597-12.5-12.5v-29c0-6.903,5.597-12.5,12.5-12.5s12.5,5.597,12.5,12.5v29
				C901.5,476.903,895.903,482.5,889,482.5z"/>
		</g>
		<g>
			<path fill="#E8A15B" d="M272.887,228.024c-3.199,0-6.398-1.221-8.839-3.661c-4.881-4.882-4.881-12.796,0-17.678l20.706-20.706
				c4.882-4.881,12.796-4.881,17.678,0c4.881,4.882,4.881,12.796,0,17.678l-20.706,20.706
				C279.285,226.804,276.086,228.024,272.887,228.024z"/>
		</g>
		<g>
			<path fill="#E8A15B" d="M293.593,729.256c-3.199,0-6.398-1.221-8.839-3.661l-20.706-20.706c-4.881-4.882-4.881-12.796,0-17.678
				c4.882-4.881,12.796-4.881,17.678,0l20.706,20.706c4.881,4.882,4.881,12.796,0,17.678
				C299.991,728.035,296.792,729.256,293.593,729.256z"/>
		</g>
		<g>
			<path fill="#E8A15B" d="M794.825,228.024c-3.199,0-6.398-1.221-8.839-3.661l-20.706-20.706c-4.881-4.882-4.881-12.796,0-17.678
				c4.882-4.881,12.796-4.881,17.678,0l20.706,20.706c4.881,4.882,4.881,12.796,0,17.678
				C801.223,226.804,798.024,228.024,794.825,228.024z"/>
		</g>
		<g>
			<g>
				<path fill="#2C3C68" d="M452.5,453h-80c-6.903,0-12.5-5.597-12.5-12.5s5.597-12.5,12.5-12.5h80c6.903,0,12.5,5.597,12.5,12.5
					S459.403,453,452.5,453z"/>
			</g>
			<g>
				<path fill="#E8A15B" d="M453,619h-0.5c-6.903,0-12.5-5.597-12.5-12.5c0-1.219,0.175-2.397,0.5-3.512V349
					c0-6.903,5.597-12.5,12.5-12.5s12.5,5.597,12.5,12.5v257.5C465.5,613.403,459.903,619,453,619z"/>
			</g>
			<g>
				<path fill="#E8A15B" d="M534,619h-0.5c-6.903,0-12.5-5.597-12.5-12.5c0-1.219,0.175-2.397,0.5-3.512V349
					c0-6.903,5.597-12.5,12.5-12.5s12.5,5.597,12.5,12.5v257.5C546.5,613.403,540.903,619,534,619z"/>
			</g>
			<g>
				<path fill="#E8A15B" d="M695.5,316h-79c-6.903,0-12.5-5.597-12.5-12.5s5.597-12.5,12.5-12.5h79c6.903,0,12.5,5.597,12.5,12.5
					S702.403,316,695.5,316z"/>
			</g>
			<g>
				<path fill="#E8A15B" d="M532.5,361h-79c-6.903,0-12.5-5.597-12.5-12.5s5.597-12.5,12.5-12.5h79c6.903,0,12.5,5.597,12.5,12.5
					S539.403,361,532.5,361z"/>
			</g>
		</g>
	</g>
	<g id="_x31__2_">
		<g>
			<path fill="#2C3C68" d="M862.5,985H73.679C34.012,985,0.5,951.188,0.5,911.164V250.57c0-19.243,7.792-37.322,21.941-50.909
				C36.317,186.338,54.514,179,73.679,179H102.5c6.904,0,12.5,5.597,12.5,12.5s-5.596,12.5-12.5,12.5H73.679
				C47.113,204,25.5,224.892,25.5,250.57v660.594C25.5,937.18,48.014,960,73.679,960H862.5c6.903,0,12.5,5.597,12.5,12.5
				S869.403,985,862.5,985z"/>
		</g>
		<g>
			<path fill="#2C3C68" d="M1067,804.5c-6.903,0-12.5-5.597-12.5-12.5V250.57c0-26.114-19.9-46.57-45.305-46.57H963.5
				c-6.903,0-12.5-5.597-12.5-12.5s5.597-12.5,12.5-12.5h45.695c39.423,0,70.305,31.438,70.305,71.57V792
				C1079.5,798.903,1073.903,804.5,1067,804.5z"/>
		</g>
		<g>
			<path fill="#637EA8" d="M102.185,192.241"/>
		</g>
		<g>
			<g>
				<path fill="#2C3C68" d="M559.5,1167H435.24c-24.341,0-41.982-6.823-52.434-20.279c-13.148-16.928-9.28-37.163-8.362-41.085
					l25.907-136.289c1.289-6.782,7.833-11.23,14.615-9.946c6.782,1.289,11.235,7.832,9.946,14.614l-25.964,136.59
					c-0.059,0.311-0.078,0.422-0.153,0.702c-0.189,0.868-2.484,12.2,3.862,20.214c6.859,8.661,21.505,10.479,32.583,10.479H559.5
					c6.903,0,12.5,5.597,12.5,12.5S566.403,1167,559.5,1167z"/>
			</g>
			<g>
				<path fill="#2C3C68" d="M559.5,1167H435.24c-24.341,0-41.982-6.823-52.434-20.279c-13.148-16.928-9.28-37.163-8.362-41.085
					l25.907-136.289c1.289-6.782,7.833-11.23,14.615-9.946c6.782,1.289,11.235,7.832,9.946,14.614l-25.964,136.59
					c-0.059,0.311-0.078,0.422-0.153,0.702c-0.189,0.868-2.484,12.2,3.862,20.214c6.859,8.661,21.505,10.479,32.583,10.479H559.5
					c6.903,0,12.5,5.597,12.5,12.5S566.403,1167,559.5,1167z"/>
			</g>
			<g>
				<path fill="#2C3C68" d="M645.704,1167H521.5c-6.903,0-12.5-5.597-12.5-12.5s5.597-12.5,12.5-12.5h124.204
					c11.153,0,25.879-1.842,32.697-10.617c6.402-8.24,3.807-19.908,3.778-20.022c-0.064-0.251-0.12-0.503-0.168-0.757l-25.95-136.59
					c-1.289-6.782,3.165-13.325,9.947-14.613c6.782-1.287,13.325,3.165,14.613,9.947l25.893,136.289
					c0.916,3.916,4.782,24.154-8.372,41.084C687.688,1160.177,670.045,1167,645.704,1167z"/>
			</g>
		</g>
		<g>
			<path fill="#637EA8" d="M1066.502,829.397"/>
		</g>
		<g>
			<path fill="#2C3C68" d="M179.5,842h-167C5.596,842,0,836.403,0,829.5S5.596,817,12.5,817h167c6.904,0,12.5,5.597,12.5,12.5
				S186.404,842,179.5,842z"/>
		</g>
		<g>
			<path fill="#637EA8" d="M887.775,328.558"/>
		</g>
		<g>
			<path fill="#637EA8" d="M196.092,328.558"/>
		</g>
		<g>
			<path fill="#637EA8" d="M594.5,911h-108c-6.903,0-12.5-5.597-12.5-12.5s5.597-12.5,12.5-12.5h108c6.903,0,12.5,5.597,12.5,12.5
				S601.403,911,594.5,911z"/>
		</g>
	</g>
</g>
<g>
	<path fill="#2C3C68" d="M369.005,618.639c-0.01-0.002-0.021-0.005-0.031-0.008C368.984,618.634,368.994,618.636,369.005,618.639z"
		/>
	<path fill="#2C3C68" d="M371.5,619h0.423c-0.773,0-1.526-0.081-2.26-0.217C370.264,618.912,370.874,619,371.5,619z"/>
	<path fill="#2C3C68" d="M369.663,618.783c-0.22-0.047-0.442-0.082-0.658-0.145C369.223,618.692,369.441,618.742,369.663,618.783z"
		/>
	<path fill="#2C3C68" d="M384.5,594V442c0-6.903-5.597-12.5-12.5-12.5s-12.5,5.597-12.5,12.5v160.988
		c-0.052,0.822-0.023,1.646,0.052,2.465c0.558,6.019,4.417,11.703,9.421,13.177c0.01,0.002,0.021,0.005,0.031,0.008
		c0.216,0.063,0.438,0.098,0.658,0.145c0.734,0.136,1.487,0.217,2.26,0.217H372h68v-25H384.5z"/>
</g>
<g>
	<rect x="440" y="594" fill="#E8A15B" width="48.833" height="25"/>
	<rect x="488.833" y="594" fill="#E8A15B" width="57.667" height="25"/>
</g>
<g>
	<path fill="#E8A15B" d="M628.5,468V304c0-6.903-5.597-12.5-12.5-12.5s-12.5,5.597-12.5,12.5v164h11H628.5z"/>
	<path fill="#E8A15B" d="M696,291.5c-6.904,0-12.5,5.597-12.5,12.5v290h-55v12.5V619H696c6.904,0,12.5-5.597,12.5-12.5V304
		C708.5,297.097,702.904,291.5,696,291.5z"/>
	<polygon fill="#637EA8" points="614.5,468 603.5,468 581.5,468 581.5,493 603.5,493 603.5,594 581.5,594 546.5,594 546.5,619 
		581.5,619 615.5,619 616,619 628.5,619 628.5,606.5 628.5,594 628.5,468 	"/>
</g>
</svg>