<svg width="103" height="103" viewBox="0 0 103 103" fill="none" xmlns="http://www.w3.org/2000/svg">
<path d="M61.0393 100.741H56.6394C56.3424 100.741 56.0514 100.861 55.841 101.071C55.6285 101.284 55.5107 101.568 55.5107 101.87C55.5107 102.172 55.6285 102.455 55.841 102.668C56.0514 102.879 56.3424 103 56.6394 103H61.0393C61.3413 103 61.6242 102.882 61.8387 102.669C62.0511 102.455 62.1689 102.172 62.1689 101.87C62.1689 101.568 62.0511 101.285 61.8377 101.071C61.6242 100.858 61.3413 100.741 61.0393 100.741Z" fill="#E8A15B"/>
<path d="M46.269 100.741H41.9587C41.6567 100.741 41.3738 100.858 41.1593 101.072C40.9469 101.285 40.8291 101.568 40.8291 101.87C40.8291 102.172 40.9469 102.455 41.1593 102.669C41.3738 102.882 41.6567 103 41.9587 103H46.269C46.5711 103 46.854 102.882 47.0684 102.669C47.2809 102.455 47.3987 102.172 47.3987 101.87C47.3987 101.568 47.2809 101.285 47.0674 101.071C46.854 100.858 46.5711 100.741 46.269 100.741Z" fill="#E8A15B"/>
<path d="M100.388 25.1738H100.036H2.96208H2.6107H2.2583V27.4311H2.6107H2.96208H100.036H100.388H100.74V25.1738H100.388Z" fill="#637EA8"/>
<path d="M101.801 1.19813C101.038 0.436965 99.9835 0 98.9072 0H4.09176C2.99935 0 1.97239 0.42589 1.19813 1.19813C0.424886 1.97037 0 2.99835 0 4.09177V24.8678V25.3541V26.3015V27.2489V27.7352V98.9052C0 99.9986 0.425893 101.026 1.19813 101.8C1.97239 102.573 2.99935 102.998 4.09176 102.998H31.5884C31.8904 102.998 32.1733 102.88 32.3878 102.667C32.6002 102.453 32.718 102.17 32.718 101.868C32.718 101.566 32.6002 101.283 32.3868 101.069C32.1733 100.856 31.8904 100.739 31.5884 100.739H4.09176C3.60949 100.739 3.13727 100.543 2.79595 100.202C2.44859 99.8557 2.25831 99.3945 2.25831 98.9052V28.1349V27.7825V27.4302V25.1728V24.8204V24.468V4.09177C2.25831 3.60144 2.44859 3.14132 2.79595 2.79497C3.13626 2.45365 3.60949 2.25732 4.09176 2.25732H98.9072C99.3895 2.25732 99.8627 2.45365 100.204 2.79497C100.549 3.14031 100.74 3.60043 100.74 4.09177V24.468V24.8204V25.1728V27.4302V27.7825V28.1349V98.9052C100.74 99.3955 100.549 99.8557 100.203 100.202C99.8617 100.543 99.3895 100.739 98.9072 100.739H71.4106C71.1086 100.739 70.8256 100.856 70.6112 101.07C70.3987 101.283 70.2809 101.566 70.2809 101.868C70.2809 102.17 70.3987 102.453 70.6112 102.667C70.8256 102.88 71.1086 102.998 71.4106 102.998H98.9072C99.9825 102.998 101.038 102.56 101.801 101.799C102.574 101.026 102.999 99.9986 102.999 98.9052V27.7372V27.2499V26.3025V25.3551V24.8688V4.09177C102.999 2.99935 102.573 1.97138 101.801 1.19813Z" fill="#3F496A"/>
<path d="M90.3683 9.01015C89.7199 8.74233 89.0373 8.60641 88.3365 8.60641C87.9902 8.60641 87.6428 8.64064 87.3025 8.7081C86.2695 8.91349 85.3301 9.4159 84.5851 10.16C83.84 10.905 83.3376 11.8444 83.1332 12.8774C82.9278 13.9104 83.0315 14.9706 83.4353 15.9442C83.839 16.9178 84.5146 17.7414 85.3895 18.3254C86.2645 18.9103 87.2844 19.2194 88.3385 19.2194C89.7541 19.2174 91.0862 18.6647 92.089 17.6629C93.0918 16.6611 93.6435 15.329 93.6455 13.9114C93.6455 12.8583 93.3355 11.8383 92.7505 10.9634C92.1645 10.0895 91.3419 9.41288 90.3683 9.01015ZM90.8727 15.6059C90.5354 16.1093 90.0622 16.498 89.5045 16.7285C89.1329 16.8826 88.7403 16.9601 88.3385 16.9601C88.3385 16.9601 88.3385 16.9601 88.3375 16.9601C88.1392 16.9601 87.9398 16.941 87.7435 16.9017C87.1495 16.7839 86.6098 16.496 86.1819 16.067C85.755 15.6401 85.466 15.1005 85.3482 14.5065C85.2304 13.9144 85.2888 13.3053 85.5214 12.7455C85.754 12.1857 86.1416 11.7125 86.644 11.3772C87.1465 11.0419 87.7324 10.8637 88.3385 10.8637C89.1541 10.8637 89.9183 11.1819 90.4942 11.7568C91.0681 12.3317 91.3862 13.0979 91.3872 13.9114C91.3862 14.5175 91.209 15.1025 90.8727 15.6059Z" fill="#E8A15B"/>
<path d="M75.3354 9.01015C74.688 8.74233 74.0053 8.60641 73.3036 8.60641C72.9562 8.60641 72.6088 8.64064 72.2685 8.7081C71.2355 8.9145 70.2961 9.4159 69.5511 10.161C68.807 10.906 68.3046 11.8454 68.1003 12.8784C67.8949 13.9114 67.9986 14.9716 68.4023 15.9452C68.806 16.9178 69.4816 17.7414 70.3576 18.3264C71.2325 18.9113 72.2514 19.2204 73.3066 19.2204C74.7222 19.2184 76.0542 18.6657 77.057 17.6639C78.0578 16.6621 78.6106 15.33 78.6126 13.9124C78.6126 12.8613 78.3025 11.8404 77.7175 10.9644C77.1315 10.0895 76.307 9.41288 75.3354 9.01015ZM75.8388 15.6069C75.5035 16.1093 75.0303 16.498 74.4705 16.7295C74.1 16.8836 73.7073 16.9611 73.3056 16.9611C73.1072 16.9611 72.9069 16.941 72.7095 16.9017C72.1145 16.7829 71.5748 16.4949 71.1479 16.066C70.721 15.6391 70.4321 15.0995 70.3143 14.5054C70.1965 13.9104 70.2559 13.3013 70.4884 12.7435C70.72 12.1847 71.1087 11.7125 71.6121 11.3762C72.1145 11.0409 72.6995 10.8627 73.3046 10.8627H73.3066C74.1201 10.8637 74.8843 11.1809 75.4602 11.7568C76.0361 12.3327 76.3533 13.0979 76.3533 13.9114C76.3512 14.5195 76.1751 15.1055 75.8388 15.6069Z" fill="#637EA8"/>
<path d="M60.3041 9.01015C59.6557 8.74233 58.973 8.60641 58.2723 8.60641C57.9249 8.60641 57.5776 8.64064 57.2373 8.7081C56.2043 8.91349 55.2649 9.4159 54.5198 10.16C53.7758 10.904 53.2734 11.8444 53.069 12.8774C52.8626 13.9094 52.9663 14.9696 53.37 15.9422C53.7718 16.9148 54.4473 17.7394 55.3233 18.3244C56.1982 18.9093 57.2182 19.2194 58.2713 19.2194C59.6889 19.2184 61.021 18.6657 62.0238 17.6639C63.0256 16.6611 63.5793 15.329 63.5803 13.9124C63.5803 12.8593 63.2702 11.8394 62.6862 10.9644C62.1003 10.0895 61.2767 9.41389 60.3041 9.01015ZM60.8075 15.6059C60.4712 16.1093 59.998 16.498 59.4392 16.7285C59.0687 16.8826 58.675 16.9611 58.2723 16.9611C58.0739 16.9611 57.8746 16.941 57.6783 16.9027C57.0852 16.7849 56.5456 16.496 56.1177 16.068C55.6888 15.6401 55.4008 15.1005 55.283 14.5075C55.1642 13.9134 55.2236 13.3043 55.4562 12.7455C55.6867 12.1867 56.0744 11.7135 56.5778 11.3772C57.7588 10.5879 59.4231 10.753 60.4269 11.7558C60.9948 12.3236 61.321 13.11 61.321 13.9114C61.321 14.5175 61.1438 15.1025 60.8075 15.6059Z" fill="#3F496A"/>
<path d="M46.0384 12.7837H10.4832C10.1851 12.7837 9.89517 12.9046 9.68575 13.114C9.4723 13.3274 9.35449 13.6104 9.35449 13.9124C9.35449 14.2145 9.47229 14.4984 9.68474 14.7108C9.89516 14.9213 10.1861 15.0421 10.4832 15.0421H46.0384C46.3405 15.0421 46.6234 14.9243 46.8359 14.7118C47.0473 14.5014 47.1681 14.2104 47.1681 13.9134C47.1681 13.6164 47.0473 13.3254 46.8369 13.115C46.6234 12.9005 46.3405 12.7837 46.0384 12.7837Z" fill="#637EA8"/>
<path d="M72.2231 50.245C69.4755 46.1321 65.6092 42.9575 61.0402 41.0637C57.9996 39.8041 54.7898 39.1658 51.4985 39.1658C49.8714 39.1658 48.2373 39.3269 46.6415 39.644C41.7906 40.6086 37.3776 42.9656 33.8799 46.4623C30.3822 49.96 28.0242 54.371 27.0596 59.2219C26.0931 64.0718 26.5824 69.0516 28.4752 73.6216C30.3691 78.1916 33.5426 82.0599 37.6535 84.8055C41.7644 87.5532 46.5529 89.006 51.4995 89.006C58.1516 88.998 64.4061 86.4034 69.11 81.7004C73.8149 76.9975 76.4105 70.7431 76.4196 64.0919C76.4216 59.1474 74.9698 54.3599 72.2231 50.245ZM60.1683 85.026C57.4055 86.1698 54.4888 86.7497 51.4995 86.7497C50.0164 86.7497 48.5293 86.6027 47.0754 86.3137C42.6645 85.4358 38.6523 83.2902 35.4737 80.1096C32.2941 76.9311 30.1496 72.9178 29.2726 68.5069C28.3957 64.097 28.8417 59.5692 30.5634 55.414C32.2841 51.2599 35.1696 47.743 38.909 45.244C42.6494 42.7461 47.002 41.4251 51.4995 41.4251C57.5515 41.4312 63.2391 43.7912 67.5182 48.0712C71.7972 52.3513 74.1562 58.0399 74.1613 64.0919C74.1603 68.5905 72.8393 72.943 70.3403 76.6814C67.8404 80.4208 64.3225 83.3053 60.1683 85.026Z" fill="#E8A15B"/>
<path d="M59.7151 56.9656C59.5077 56.7652 59.2298 56.6525 58.9358 56.6525C58.6277 56.6545 58.3478 56.7723 58.1364 56.9837C57.926 57.1941 57.8092 57.474 57.8062 57.7721C57.8042 58.0701 57.9159 58.352 58.1223 58.5654L63.3931 63.8433C63.53 63.9812 63.53 64.2037 63.3921 64.3416L58.1163 69.6124C57.9582 69.7705 57.8515 69.9708 57.8082 70.1893C57.7639 70.4088 57.787 70.6343 57.8716 70.8418C57.9572 71.0482 58.1022 71.2233 58.2874 71.3482C58.5996 71.5566 59.0043 71.5939 59.3476 71.4529C59.4855 71.3955 59.6084 71.314 59.7131 71.2082L66.037 64.8843C66.2464 64.6749 66.3673 64.3839 66.3673 64.0859C66.3673 63.7839 66.2495 63.5009 66.037 63.2885L59.7151 56.9656Z" fill="#3F496A"/>
<path d="M44.8826 56.9636C44.7769 56.8579 44.6531 56.7753 44.5161 56.7179C44.3792 56.6605 44.2342 56.6313 44.0832 56.6313C43.9352 56.6313 43.7882 56.6595 43.6493 56.7169C43.5123 56.7733 43.3895 56.8559 43.2838 56.9616L36.9609 63.2835C36.7514 63.4949 36.6306 63.7859 36.6306 64.0819C36.6306 64.3839 36.7484 64.6669 36.9619 64.8813L43.2848 71.2093C43.6513 71.5767 44.2715 71.6382 44.7084 71.3502C44.8947 71.2254 45.0377 71.0502 45.1232 70.8438C45.2088 70.6364 45.231 70.4098 45.1867 70.1913C45.1434 69.9719 45.0377 69.7715 44.8786 69.6134L39.6048 64.3437C39.4669 64.2057 39.4669 63.9832 39.6038 63.8453L44.8776 58.5634C44.9833 58.4577 45.0669 58.3339 45.1232 58.1969C45.1816 58.058 45.2108 57.913 45.2108 57.765C45.2108 57.614 45.1817 57.469 45.1253 57.3331C45.0699 57.1921 44.9883 57.0693 44.8826 56.9636Z" fill="#3F496A"/>
<path d="M49.0479 75.7188C49.3027 75.7188 49.5513 75.6312 49.7497 75.4732C49.948 75.3151 50.09 75.0926 50.1474 74.8469L55.0497 53.8383C55.0899 53.6833 55.099 53.5323 55.0769 53.3802C55.0557 53.2312 55.0043 53.0883 54.9268 52.9594C54.8493 52.8295 54.7466 52.7187 54.6228 52.6291C54.5009 52.5395 54.364 52.4771 54.217 52.4429C54.1324 52.4227 54.0469 52.4137 53.9603 52.4137C53.8968 52.4137 53.8314 52.4187 53.769 52.4298C53.619 52.456 53.478 52.5103 53.3511 52.5919C53.2223 52.6744 53.1145 52.7792 53.031 52.904C52.9434 53.0309 52.884 53.1698 52.8538 53.3168L47.9495 74.3344C47.9112 74.4996 47.9112 74.6737 47.9485 74.8379C47.9847 75.003 48.0592 75.159 48.1659 75.2929C48.2707 75.4248 48.4056 75.5336 48.5596 75.6081C48.7096 75.6796 48.8778 75.7188 49.0439 75.7188" fill="#637EA8"/>
</svg>
