<svg width="103" height="103" viewBox="0 0 103 103" fill="none" xmlns="http://www.w3.org/2000/svg">
<path d="M15.7782 11.3028H12.9006C12.6066 11.3028 12.3187 11.4226 12.1113 11.6331C11.9008 11.8435 11.781 12.1355 11.781 12.4325C11.781 12.7335 11.8978 13.0185 12.1102 13.2319C12.3187 13.4414 12.6056 13.5612 12.9006 13.5612H15.7782C16.0732 13.5612 16.3601 13.4414 16.5675 13.2319C16.781 13.0185 16.8978 12.7335 16.8978 12.4325C16.8978 12.1355 16.778 11.8435 16.5685 11.6341C16.3601 11.4226 16.0722 11.3028 15.7782 11.3028Z" fill="#E8A15B"/>
<path d="M101.245 61.6298C100.95 61.6298 100.662 61.7507 100.454 61.9601C100.241 62.1725 100.125 62.4565 100.125 62.7595V67.1594C100.125 67.4575 100.244 67.7484 100.453 67.9579C100.874 68.3807 101.616 68.3817 102.035 67.9589C102.245 67.7484 102.365 67.4575 102.365 67.1594V62.7595C102.365 62.4575 102.248 62.1735 102.036 61.9601C101.827 61.7507 101.539 61.6298 101.245 61.6298Z" fill="#E8A15B"/>
<path d="M101.245 46.9481C100.946 46.9481 100.665 47.0649 100.455 47.2783C100.241 47.4907 100.125 47.7747 100.125 48.0777V52.389C100.125 52.6921 100.241 52.976 100.454 53.1875C100.873 53.6103 101.616 53.6113 102.035 53.1875C102.245 52.977 102.365 52.685 102.365 52.388V48.0767C102.365 47.7797 102.245 47.4877 102.036 47.2783C101.827 47.0689 101.539 46.9481 101.245 46.9481Z" fill="#E8A15B"/>
<path d="M99.772 22.2109H99.4207H2.945H2.59361H2.24121V24.4683H2.59361H2.945H99.4207H99.772H100.124V22.2109H99.772Z" fill="#3F496A"/>
<path d="M101.174 1.19814C100.404 0.424888 99.3844 0 98.3 0H4.06566C2.99538 0 1.94826 0.43697 1.19212 1.19714C0.423902 1.97039 0 2.99838 0 4.09181V21.9029V22.3892V23.3396V24.2901V24.7764V98.9072C0 100.002 0.423902 101.029 1.19212 101.802C1.94927 102.564 2.99639 103 4.06566 103H98.3C99.3693 103 100.416 102.562 101.174 101.802C101.942 101.029 102.366 100.002 102.366 98.9072V77.5299C102.366 77.2278 102.249 76.9439 102.036 76.7315C101.617 76.3076 100.874 76.3096 100.456 76.7305C100.242 76.9439 100.126 77.2268 100.126 77.5299V98.9072C100.126 99.3965 99.9362 99.8566 99.5918 100.204C99.2465 100.55 98.7884 100.741 98.3011 100.741H4.06664C3.58537 100.741 3.1162 100.545 2.7769 100.204C2.43155 99.8566 2.24327 99.3965 2.24327 98.9072V25.1731V24.8207V24.4683V22.2109V21.8586V21.5062V4.09181C2.24327 3.60248 2.43256 3.14236 2.7769 2.795C3.1152 2.45368 3.58637 2.25734 4.06664 2.25734H98.3011C98.7884 2.25734 99.2465 2.44864 99.5918 2.795C99.9362 3.14135 100.126 3.60148 100.126 4.09181V21.5051V21.8575V22.2099V24.4683V24.8207V25.1731V37.7073C100.126 38.0093 100.242 38.2932 100.455 38.5057C100.874 38.9265 101.617 38.9286 102.035 38.5057C102.249 38.2922 102.366 38.0073 102.366 37.7063V24.7764V24.2901V23.3396V22.3892V21.9029V4.09181C102.366 2.99838 101.942 1.97039 101.174 1.19814Z" fill="#3F496A"/>
<path d="M27.6238 11.3028H24.7473C24.4483 11.3028 24.1683 11.4196 23.9559 11.6331C23.7475 11.8425 23.6277 12.1345 23.6277 12.4315C23.6277 12.7325 23.7445 13.0175 23.9569 13.2309C24.1673 13.4424 24.4483 13.5602 24.7473 13.5602H27.6238C27.9239 13.5602 28.2038 13.4434 28.4142 13.2309C28.6277 13.0175 28.7445 12.7325 28.7445 12.4315C28.7445 12.1345 28.6247 11.8425 28.4152 11.6331C28.2038 11.4196 27.9229 11.3028 27.6238 11.3028Z" fill="#637EA8"/>
<path d="M39.4712 11.3028H36.5947C36.2957 11.3028 36.0158 11.4196 35.8033 11.6331C35.5919 11.8455 35.4751 12.1294 35.4751 12.4315C35.4751 12.7335 35.5919 13.0175 35.8033 13.2309C36.0148 13.4434 36.2957 13.5602 36.5947 13.5602H39.4712C39.7703 13.5602 40.0512 13.4434 40.2626 13.2309C40.4751 13.0175 40.5919 12.7325 40.5919 12.4315C40.5919 12.1345 40.4721 11.8425 40.2626 11.6331C40.0502 11.4196 39.7703 11.3028 39.4712 11.3028Z" fill="#3F496A"/>
<path d="M57.072 38.5329H45.2929C44.9979 38.5329 44.711 38.6527 44.5036 38.8621C44.2901 39.0756 44.1733 39.3595 44.1733 39.6615C44.1733 39.9636 44.2901 40.2475 44.5026 40.46C44.711 40.6704 44.999 40.7902 45.2929 40.7902H57.072C57.371 40.7902 57.6509 40.6734 57.8634 40.46C58.0758 40.2475 58.1926 39.9626 58.1926 39.6615C58.1926 39.3605 58.0758 39.0756 57.8634 38.8631C57.6519 38.6497 57.371 38.5329 57.072 38.5329Z" fill="#3F496A"/>
<path d="M57.072 44.6766H45.2929C44.9979 44.6766 44.711 44.7964 44.5036 45.0059C44.2901 45.2193 44.1733 45.5032 44.1733 45.8053C44.1733 46.1073 44.2901 46.3913 44.5026 46.6037C44.711 46.8141 44.999 46.934 45.2929 46.934H57.072C57.371 46.934 57.6509 46.8172 57.8634 46.6037C58.0758 46.3913 58.1926 46.1063 58.1926 45.8053C58.1926 45.5042 58.0758 45.2193 57.8634 45.0069C57.6519 44.7934 57.371 44.6766 57.072 44.6766Z" fill="#3F496A"/>
<path d="M65.311 33.3134C64.8519 32.8513 64.2417 32.5955 63.5933 32.5925H38.7726C38.1242 32.5945 37.5151 32.8513 37.056 33.3134C36.5969 33.7755 36.3421 34.3907 36.3391 35.0462V50.917C36.3421 51.5705 36.5969 52.1857 37.056 52.6478C37.5141 53.1099 38.1253 53.3657 38.7747 53.3687H49.3596H49.712H50.0644H52.3056H52.658H53.0104H63.5954C64.2458 53.3657 64.8559 53.1099 65.313 52.6478C65.7732 52.1857 66.0279 51.5705 66.0309 50.915V35.0452C66.0248 34.3917 65.7701 33.7755 65.311 33.3134ZM63.7867 50.759C63.7867 50.9533 63.6296 51.1114 63.4343 51.1114H52.6087H52.1254H51.183H50.2406H49.7573H38.9317C38.7374 51.1114 38.5793 50.9533 38.5793 50.759V35.2032C38.5793 35.0089 38.7364 34.8509 38.9317 34.8509H63.4353C63.6296 34.8509 63.7876 35.0089 63.7876 35.2032V50.759H63.7867Z" fill="#E8A15B"/>
<path d="M59.9385 76.216C59.5166 75.7911 58.9558 75.5565 58.3587 75.5555H53.0084H52.656H52.3036H50.0624H49.71H49.3576H44.0062C43.4091 75.5565 42.8493 75.7911 42.4275 76.215C42.0116 76.6348 41.772 77.2147 41.771 77.8078V91.2662C41.772 91.8673 42.0046 92.4332 42.4265 92.8591C42.8503 93.2829 43.4111 93.5175 44.0062 93.5175H58.3587C58.9558 93.5175 59.5156 93.2829 59.9385 92.8581C60.3613 92.4312 60.5929 91.8653 60.5929 91.2642V77.8068C60.5939 77.2148 60.3553 76.6348 59.9385 76.216ZM58.3537 90.9078C58.3537 91.1021 58.1967 91.2602 58.0013 91.2602H44.3636C44.1693 91.2602 44.0112 91.1031 44.0112 90.9078V78.1672C44.0112 77.9729 44.1683 77.8148 44.3636 77.8148H49.7553H50.2406H52.1244H52.6097H58.0003C58.1946 77.8148 58.3527 77.9719 58.3527 78.1672V90.9078H58.3537Z" fill="#E8A15B"/>
<path d="M52.3035 63.3334H50.0623V65.5918H52.3035V63.3334Z" fill="#3F496A"/>
<path d="M49.7109 63.3334H49.3585H26.1518C25.0665 63.3334 24.0455 63.7593 23.2783 64.5316C22.5212 65.2928 22.0862 66.3479 22.0862 67.4252V74.8507V75.2031V75.5545H24.3274V75.2031V74.8507V67.4252C24.3274 66.9359 24.5167 66.4758 24.8611 66.1294C25.2054 65.7821 25.6645 65.5918 26.1518 65.5918H49.3585H49.7109H50.0633V63.3334H49.7109Z" fill="#3F496A"/>
<path d="M79.0875 64.5326C78.3193 63.7593 77.2994 63.3344 76.214 63.3344H53.0073H52.6549H52.3025V65.5928H52.6549H53.0073H76.214C76.7013 65.5928 77.1604 65.7831 77.5048 66.1304C77.8491 66.4758 78.0374 66.9359 78.0374 67.4262V74.8517V75.2041V75.5555H80.2786V75.2041V74.8517V67.4262C80.2786 66.3479 79.8437 65.2937 79.0875 64.5326Z" fill="#3F496A"/>
<path d="M87.9135 76.216C87.4916 75.7911 86.9308 75.5565 86.3347 75.5555H80.9834H80.632H80.2796H78.0384H77.687H77.3346H71.9832C71.3872 75.5565 70.8273 75.7911 70.4055 76.215C69.9826 76.6398 69.75 77.2047 69.749 77.8078V91.2662C69.749 91.8673 69.9816 92.4322 70.4045 92.8591C70.8213 93.2769 71.3962 93.5175 71.9832 93.5175H86.3367C86.9247 93.5175 87.5006 93.2769 87.9165 92.8581C88.3383 92.4312 88.5709 91.8653 88.5709 91.2632V77.8068C88.5689 77.2057 88.3363 76.6398 87.9135 76.216ZM86.3297 90.9078C86.3297 91.1021 86.1726 91.2602 85.9773 91.2602H72.3396C72.1453 91.2602 71.9872 91.1031 71.9872 90.9078V78.1672C71.9872 77.9729 72.1443 77.8148 72.3396 77.8148H77.7303H78.2156H80.0994H80.5847H85.9763C86.1706 77.8148 86.3287 77.9719 86.3287 78.1672V90.9078H86.3297Z" fill="#637EA8"/>
<path d="M31.9623 76.216C31.5404 75.7911 30.9796 75.5565 30.3836 75.5555H25.0322H24.6808H24.3284H22.0872H21.7358H21.3834H16.032C15.436 75.5565 14.8762 75.7911 14.4543 76.215C14.0314 76.6398 13.7989 77.2047 13.7979 77.8078V91.2662C13.7979 91.8673 14.0304 92.4322 14.4533 92.8591C14.8701 93.2769 15.445 93.5175 16.032 93.5175H30.3856C30.9736 93.5175 31.5495 93.2769 31.9653 92.8581C32.3872 92.4312 32.6198 91.8653 32.6198 91.2632V77.8068C32.6178 77.2057 32.3852 76.6398 31.9623 76.216ZM30.3846 90.9078C30.3846 91.1021 30.2275 91.2602 30.0322 91.2602H16.3955C16.2012 91.2602 16.0431 91.1031 16.0431 90.9078L16.0351 78.1672C16.0351 78.0736 16.0713 77.984 16.1378 77.9185C16.2042 77.8521 16.2938 77.8148 16.3874 77.8148H21.7781H22.2634H24.1472H24.6325H30.0312C30.2255 77.8148 30.3836 77.9719 30.3836 78.1672V90.9078H30.3846Z" fill="#637EA8"/>
<path d="M50.0623 65.5918V65.9442V66.2966V74.8517V75.2041V75.5555H52.3035V75.2041V74.8517V66.2966V65.9442V65.5918H50.0623Z" fill="#3F496A"/>
<path d="M50.0623 53.3697V53.7221V54.0755V62.6296V62.982V63.3334H52.3035V62.982V62.6296V54.0755V53.7221V53.3697H50.0623Z" fill="#637EA8"/>
<path d="M90.2022 11.3028H48.238C47.944 11.3028 47.6561 11.4226 47.4487 11.6331C47.2382 11.8435 47.1184 12.1355 47.1184 12.4325C47.1184 12.7335 47.2352 13.0185 47.4476 13.2319C47.6551 13.4414 47.943 13.5612 48.238 13.5612H90.2022C90.5013 13.5612 90.7822 13.4444 90.9936 13.2319C91.2061 13.0185 91.3228 12.7335 91.3228 12.4325C91.3228 12.1355 91.203 11.8435 90.9936 11.6341C90.7812 11.4196 90.5003 11.3028 90.2022 11.3028Z" fill="#637EA8"/>
</svg>
