<?xml version="1.0" encoding="utf-8"?>
<!-- Generator: Adobe Illustrator 17.0.0, SVG Export Plug-In . SVG Version: 6.00 Build 0)  -->
<!DOCTYPE svg PUBLIC "-//W3C//DTD SVG 1.1//EN" "http://www.w3.org/Graphics/SVG/1.1/DTD/svg11.dtd">
<svg version="1.1" id="Слой_2" xmlns="http://www.w3.org/2000/svg" xmlns:xlink="http://www.w3.org/1999/xlink" x="0px" y="0px"
	 width="1164.096px" height="1288.041px" viewBox="0 0 1164.096 1288.041" enable-background="new 0 0 1164.096 1288.041"
	 xml:space="preserve">
<g>
	<path fill="none" stroke="#000000" stroke-width="25" stroke-linecap="round" stroke-linejoin="round" stroke-miterlimit="10" d="
		M893.114,729.796"/>
</g>
<g>
	<path fill="none" stroke="#000000" stroke-width="25" stroke-linecap="round" stroke-linejoin="round" stroke-miterlimit="10" d="
		M893.114,615.069"/>
</g>
<g>
	<path fill="none" stroke="#000000" stroke-width="25" stroke-linecap="round" stroke-linejoin="round" stroke-miterlimit="10" d="
		M893.114,500.341"/>
</g>
<g>
	<path fill="#637EA8" d="M855,826H127c-6.903,0-12.5-5.596-12.5-12.5S120.097,801,127,801h728c6.903,0,12.5,5.596,12.5,12.5
		S861.903,826,855,826z"/>
</g>
<g>
	<path fill="#637EA8" d="M854,711H125c-6.903,0-12.5-5.596-12.5-12.5S118.097,686,125,686h729c6.903,0,12.5,5.596,12.5,12.5
		S860.903,711,854,711z"/>
</g>
<g>
	<path fill="#637EA8" d="M709,597H125c-6.903,0-12.5-5.596-12.5-12.5S118.097,572,125,572h584c6.903,0,12.5,5.596,12.5,12.5
		S715.903,597,709,597z"/>
</g>
<g>
	<path fill="#E8A15B" d="M439,1003H125c-6.904,0-12.5-5.596-12.5-12.5S118.096,978,125,978h314c6.904,0,12.5,5.596,12.5,12.5
		S445.904,1003,439,1003z"/>
</g>
<g>
	<path fill="#2C3C68" d="M647,183H334c-6.904,0-12.5-5.596-12.5-12.5S327.096,158,334,158h313c6.904,0,12.5,5.596,12.5,12.5
		S653.904,183,647,183z"/>
</g>
<g>
	<path fill="none" stroke="#000000" stroke-width="25" stroke-linecap="round" stroke-linejoin="round" stroke-miterlimit="10" d="
		M893.114,385.614"/>
</g>
<g>
	<path fill="#E8A15B" d="M854.5,468h-729c-6.903,0-12.5-5.596-12.5-12.5v-137c0-6.904,5.597-12.5,12.5-12.5h729
		c6.903,0,12.5,5.596,12.5,12.5v137C867,462.404,861.403,468,854.5,468z M138,443h704V331H138V443z"/>
</g>
<g>
	<path fill="#2C3C68" d="M777.812,1079.361c-49.292,0-89.394-40.102-89.394-89.394s40.102-89.394,89.394-89.394
		s89.394,40.102,89.394,89.394S827.104,1079.361,777.812,1079.361z M777.812,925.574c-35.507,0-64.394,28.887-64.394,64.394
		s28.887,64.394,64.394,64.394s64.394-28.887,64.394-64.394S813.318,925.574,777.812,925.574z"/>
</g>
<g>
	<path fill="#2C3C68" d="M966.5,1146.5c-6.903,0-12.5-5.596-12.5-12.5V25H14C7.097,25,1.5,19.404,1.5,12.5S7.097,0,14,0h952.5
		c6.903,0,12.5,5.596,12.5,12.5V1134C979,1140.904,973.403,1146.5,966.5,1146.5z"/>
</g>
<g>
	<path fill="#2C3C68" d="M12.5,1146.5c-6.903,0-12.5-5.596-12.5-12.5V13C0,6.096,5.597,0.5,12.5,0.5S25,6.096,25,13v1121
		C25,1140.904,19.403,1146.5,12.5,1146.5z"/>
</g>
<g>
	<path fill="#2C3C68" d="M1149,285h-107c-6.903,0-12.5-5.596-12.5-12.5s5.597-12.5,12.5-12.5h107c6.903,0,12.5,5.596,12.5,12.5
		S1155.903,285,1149,285z"/>
</g>
<g>
	<path fill="#2C3C68" d="M1149,343h-107c-6.903,0-12.5-5.596-12.5-12.5s5.597-12.5,12.5-12.5h107c6.903,0,12.5,5.596,12.5,12.5
		S1155.903,343,1149,343z"/>
</g>
<g>
	<path fill="#E8A15B" d="M1149,757h-107c-6.903,0-12.5-5.596-12.5-12.5s5.597-12.5,12.5-12.5h107c6.903,0,12.5,5.596,12.5,12.5
		S1155.903,757,1149,757z"/>
</g>
<g>
	<g>
		<path fill="#637EA8" d="M1095.418,899c-4.577,0-8.788-2.274-10.977-6.294l-54.081-99.172c-3.302-6.063-1.065-13.598,4.998-16.9
			c6.064-3.302,13.654-1.036,16.957,5.026l43.073,79.09L1137,783.933V183h-95c-6.903,0-12.5-5.596-12.5-12.5s5.597-12.5,12.5-12.5
			h107.5c6.903,0,12.5,5.596,12.5,12.5v616.601c0,2.079-0.519,4.125-1.509,5.953l-54.082,99.626
			c-2.182,4.029-6.394,6.32-10.976,6.32C1095.429,899,1095.423,899,1095.418,899z"/>
	</g>
</g>
<g>
	<g>
		<path fill="#637EA8" d="M1041.5,799.5c-6.903,0-12.5-5.596-12.5-12.5V170c0-6.904,5.597-12.5,12.5-12.5s12.5,5.596,12.5,12.5v617
			C1054,793.904,1048.403,799.5,1041.5,799.5z"/>
	</g>
</g>
<g>
	<path fill="#637EA8" d="M1160.13,1135.699c-1.305-5.676-6.357-9.699-12.182-9.699H195.945c-3.749,0-7.299,1.69-9.673,4.591
		s-3.319,6.722-2.577,10.397c0.136,0.675,13.27,67.821-18.238,94.828c-31.247,26.783-72.221,23.342-72.594,23.308
		c-1.446-0.143-2.859-0.024-4.198,0.303v26.028c9.533,2.21,17.278,2.586,21.368,2.586c0.828,0,1.507-0.015,2.021-0.033
		c0.153-0.005,0.27-0.008,0.348-0.009c0.105,0.004,0.078,0.001,0.229,0.001h944.214c37.301,0,65.574-11.755,84.032-34.939
		C1176.345,1208.515,1160.809,1138.652,1160.13,1135.699z M1121.32,1237.49c-13.477,16.927-35.169,25.51-64.474,25.51H170.918
		c3.656-2.447,7.274-5.172,10.81-8.202c31.942-27.378,31.281-78.431,28.639-103.798h927.059
		C1139.985,1169.596,1142.591,1210.774,1121.32,1237.49z"/>
	<path fill="#2C3C68" d="M88.394,1259.488c-1.304-0.414-2.639-0.875-3.996-1.389c-27.072-10.253-59.343-40.027-59.343-123.643
		c0-6.904-5.597-12.5-12.5-12.5s-12.5,5.596-12.5,12.5c0,43.552,8.306,78.799,24.686,104.761
		c12.665,20.073,29.757,34.292,50.802,42.262c4.609,1.746,9.029,3.028,13.123,3.977v-26.028
		C88.576,1259.449,88.484,1259.464,88.394,1259.488z"/>
</g>
</svg>
