<svg width="92" height="85" viewBox="0 0 92 85" fill="none" xmlns="http://www.w3.org/2000/svg">
<path d="M5.82695 36.572C6.35095 36.572 6.77695 36.146 6.77695 35.622V24.693C6.77695 21.402 8.90895 19.013 11.847 19.013H27.787C28.31 19.013 28.737 18.587 28.737 18.063C28.737 17.539 28.311 17.113 27.787 17.113H11.847C7.87295 17.113 4.87695 20.372 4.87695 24.693V35.622C4.87695 36.146 5.30395 36.572 5.82695 36.572Z" fill="#3F496A"/>
<path d="M10.1621 24.694V66.491C10.1621 66.712 10.2401 66.928 10.3811 67.099C10.6601 67.435 11.1921 67.794 11.8471 67.794H79.7521C80.4071 67.794 80.9391 67.435 81.2181 67.099C81.3591 66.929 81.4371 66.713 81.4371 66.491V59.489C81.4371 58.965 81.0111 58.539 80.4871 58.539C79.9641 58.539 79.5371 58.965 79.5371 59.489V65.491V65.895H79.1331H12.4631H12.0591V65.49V24.702V24.298H12.4631H28.2401C28.7631 24.298 29.1901 23.872 29.1901 23.348C29.1901 22.824 28.7641 22.398 28.2401 22.398H11.8481C10.8241 22.398 10.1621 23.299 10.1621 24.694Z" fill="#637EA8"/>
<path d="M79.5388 24.702V54.096C79.5388 54.62 79.9648 55.046 80.4888 55.046C81.0118 55.046 81.4388 54.62 81.4388 54.096V24.694C81.4388 23.3 80.7768 22.398 79.7528 22.398H63.7288C63.2058 22.398 62.7788 22.824 62.7788 23.348C62.7788 23.872 63.2048 24.298 63.7288 24.298H79.1348H79.5388V24.702Z" fill="#3F496A"/>
<path d="M89.431 74.234H87.128H86.724V73.83V24.693C86.724 20.372 83.727 17.114 79.753 17.114H63.933C63.41 17.114 62.983 17.54 62.983 18.064C62.983 18.588 63.409 19.014 63.933 19.014H79.753C82.691 19.014 84.824 21.402 84.824 24.693V73.83V74.234H84.42H55.15C53.954 74.234 52.981 75.207 52.981 76.404V77.654V78.058H52.577H39.024H38.62V77.654V76.404C38.62 75.208 37.647 74.234 36.451 74.234H7.18H6.777V73.83V41.036C6.777 40.512 6.351 40.086 5.827 40.086C5.303 40.086 4.877 40.512 4.877 41.036V73.83V74.234H4.473H2.169C0.973 74.234 0 75.207 0 76.403V79.583C0 82.57 2.43 85 5.417 85H86.183C89.17 85 91.6 82.57 91.6 79.583V76.403C91.601 75.207 90.628 74.234 89.431 74.234ZM89.701 76.537V79.583C89.701 81.523 88.123 83.1 86.184 83.1H5.417C3.477 83.1 1.9 81.522 1.9 79.583V76.537V76.133H2.304H5.824H36.317H36.721V76.537V77.787C36.721 78.983 37.694 79.957 38.89 79.957H52.711C53.907 79.957 54.881 78.984 54.881 77.787V76.537V76.133H55.285H85.772H85.798L85.819 76.135L89.299 76.133H89.703V76.537H89.701Z" fill="#3F496A"/>
<path d="M45.8011 27.163C48.9441 27.163 51.5021 24.605 51.5021 21.462C51.5021 18.319 48.9441 15.761 45.8011 15.761C42.6571 15.761 40.0991 18.319 40.0991 21.462C40.0991 24.605 42.6571 27.163 45.8011 27.163ZM45.8011 17.66C47.8971 17.66 49.6021 19.365 49.6021 21.461C49.6021 23.557 47.8971 25.262 45.8011 25.262C43.7051 25.262 42.0001 23.557 42.0001 21.461C42.0001 19.365 43.7041 17.66 45.8011 17.66Z" fill="#637EA8"/>
<path d="M35.0808 8.917L34.9788 9.062L34.9188 9.147L34.9178 9.15L34.8698 9.219C34.7668 9.366 34.6678 9.513 34.5708 9.66L34.5158 9.745C34.4238 9.886 34.3358 10.026 34.2498 10.166L34.1828 10.274C34.1028 10.407 34.0238 10.542 33.9478 10.676L33.9458 10.68L33.9218 10.721C32.7278 12.856 32.1328 14.966 32.1328 17.032C32.1328 18.835 32.3378 21.068 32.7438 23.666L32.7768 23.872L32.6278 24.018C29.0038 27.553 26.9248 32.48 26.9248 37.536C26.9248 37.959 26.9388 38.38 26.9668 38.79C27.0748 40.369 28.3968 41.607 29.9758 41.607H37.1488H37.4298L37.5278 41.87C37.6668 42.246 37.8078 42.618 37.9498 42.985C38.4498 44.268 39.6618 45.097 41.0388 45.097H50.5668C51.9438 45.097 53.1558 44.268 53.6558 42.985C53.7978 42.618 53.9388 42.245 54.0778 41.87L54.1758 41.607H54.4558H61.6288C63.2088 41.607 64.5298 40.37 64.6378 38.791C64.6658 38.387 64.6798 37.965 64.6798 37.536C64.6798 32.481 62.6008 27.554 58.9768 24.018L58.8278 23.872L58.8608 23.666C59.2668 21.07 59.4718 18.838 59.4718 17.032C59.4718 7.74 47.7038 0.918 46.3608 0.171L46.3468 0.163L46.3118 0.143L46.2558 0.114C46.2188 0.095 46.1858 0.08 46.1518 0.066C46.0988 0.047 46.0708 0.038 46.0428 0.031C45.9888 0.018 45.9598 0.012 45.9318 0.009C45.8738 0.002 45.8368 0 45.7998 0C45.7638 0 45.7278 0.002 45.6918 0.006C45.6418 0.014 45.6138 0.019 45.5858 0.025C45.5268 0.04 45.4978 0.05 45.4698 0.06C45.4308 0.075 45.4008 0.087 45.3758 0.1L45.3628 0.11L45.3228 0.127C44.9848 0.315 43.2808 1.278 41.1778 2.877C40.7608 3.194 40.6798 3.791 40.9958 4.208C41.1768 4.446 41.4528 4.583 41.7538 4.583C41.9628 4.583 42.1608 4.516 42.3268 4.39C43.6598 3.377 44.8378 2.624 45.5908 2.17L45.7998 2.044L46.0088 2.17C47.4988 3.069 51.2698 5.526 54.0988 8.904C54.2008 9.026 54.2768 9.119 54.3518 9.213L54.4538 9.341L54.6108 9.542L55.1148 10.193L54.3458 10.263H37.2558H36.4378L36.9358 9.614C37.3768 9.039 37.8688 8.461 38.3998 7.895C38.5738 7.71 38.6648 7.468 38.6558 7.215C38.6478 6.961 38.5418 6.726 38.3568 6.553C38.1798 6.387 37.9488 6.296 37.7068 6.296C37.4408 6.296 37.1948 6.403 37.0128 6.596C36.3258 7.329 35.6928 8.09 35.1328 8.856L34.9428 8.769C34.9348 8.78 34.9258 8.79 34.9178 8.801L35.0808 8.917ZM36.1938 39.707H29.9738C29.3888 39.707 28.8998 39.247 28.8598 38.66C28.8348 38.293 28.8218 37.915 28.8218 37.536C28.8218 33.652 30.1738 29.848 32.6288 26.826L33.1698 26.159L33.3378 27.001C34.1428 31.033 35.2618 35.243 36.5758 39.175L36.7528 39.707H36.1938ZM58.4298 26.159L58.9708 26.826C61.4258 29.849 62.7778 33.653 62.7778 37.536C62.7778 37.919 62.7658 38.297 62.7408 38.661C62.7008 39.247 62.2118 39.707 61.6268 39.707H55.4068H54.8468L55.0238 39.175C56.3368 35.242 57.4568 31.033 58.2608 27.001L58.4298 26.159ZM35.1898 12.388L35.3008 12.162H35.5528H56.0418H56.2938L56.4038 12.388C57.1768 13.972 57.5688 15.534 57.5688 17.033C57.5688 23.006 55.0708 34.103 51.8808 42.295C51.6678 42.843 51.1498 43.197 50.5628 43.197H41.0348C40.4468 43.197 39.9298 42.843 39.7168 42.295C36.5268 34.103 34.0288 23.006 34.0288 17.033C34.0308 15.522 34.4208 13.959 35.1898 12.388Z" fill="#E8A15B"/>
<path d="M45.531 60.079C44.322 59.002 43.564 57.522 43.397 55.913C43.347 55.427 42.942 55.061 42.455 55.061C42.422 55.061 42.388 55.063 42.355 55.066C41.834 55.12 41.454 55.588 41.508 56.109C41.77 58.633 43.145 60.879 45.282 62.271C45.437 62.372 45.616 62.425 45.801 62.425C45.986 62.425 46.165 62.372 46.319 62.271C48.711 60.713 50.139 58.082 50.139 55.234C50.139 52.386 48.711 49.755 46.319 48.197C46.164 48.096 45.985 48.043 45.8 48.043C45.615 48.043 45.436 48.096 45.281 48.197C44.513 48.698 43.834 49.317 43.264 50.038C42.94 50.449 43.01 51.047 43.421 51.372C43.59 51.506 43.794 51.576 44.009 51.576C44.302 51.576 44.574 51.444 44.755 51.215C44.989 50.919 45.25 50.641 45.531 50.39L45.8 50.15L46.069 50.39C47.447 51.619 48.238 53.384 48.238 55.234C48.238 57.084 47.447 58.85 46.068 60.078L45.8 60.318L45.531 60.079Z" fill="#637EA8"/>
</svg>
