<?xml version="1.0" encoding="utf-8"?>
<!-- Generator: Adobe Illustrator 17.0.0, SVG Export Plug-In . SVG Version: 6.00 Build 0)  -->
<!DOCTYPE svg PUBLIC "-//W3C//DTD SVG 1.1//EN" "http://www.w3.org/Graphics/SVG/1.1/DTD/svg11.dtd">
<svg version="1.1" id="Слой_2" xmlns="http://www.w3.org/2000/svg" xmlns:xlink="http://www.w3.org/1999/xlink" x="0px" y="0px"
	 width="1293.444px" height="1288.299px" viewBox="0 0 1293.444 1288.299" enable-background="new 0 0 1293.444 1288.299"
	 xml:space="preserve">
<g>
	<g>
		<g>
			<g>
				<g>
					<path fill="#637EA8" d="M534.882,605.299h-437c-6.903,0-12.5-5.596-12.5-12.5s5.597-12.5,12.5-12.5h437
						c6.903,0,12.5,5.596,12.5,12.5S541.785,605.299,534.882,605.299z"/>
				</g>
			</g>
			<g>
				<path fill="#2C3C68" d="M97.382,1166.799c-6.903,0-12.5-5.596-12.5-12.5V534.493c0-20.587,7.104-37.637,21.112-50.678
					c32.91-30.635,92.81-26.72,95.345-26.539c6.886,0.494,12.068,6.476,11.574,13.362c-0.494,6.88-6.468,12.06-13.346,11.575v0
					c-0.516-0.037-51.695-3.285-76.581,19.939c-8.817,8.229-13.104,18.808-13.104,32.341v619.807
					C109.882,1161.203,104.285,1166.799,97.382,1166.799z"/>
			</g>
			<g>
				<path fill="#2C3C68" d="M1070.382,1166.799c-6.903,0-12.5-5.596-12.5-12.5v-414c0-6.904,5.597-12.5,12.5-12.5
					s12.5,5.596,12.5,12.5v414C1082.882,1161.203,1077.286,1166.799,1070.382,1166.799z"/>
			</g>
		</g>
		<g>
			<g>
				<path fill="#2C3C68" d="M609.882,1288.299H122.98c-43.689,0-89.169-19.89-108.14-47.293
					c-18.157-26.226-14.748-80.245-14.299-86.319c0.508-6.884,6.474-12.059,13.387-11.545c6.885,0.508,12.054,6.502,11.545,13.387
					c-1.424,19.565,0.011,55.931,9.922,70.247c14.414,20.822,52.067,36.523,87.585,36.523h486.902c6.903,0,12.5,5.596,12.5,12.5
					S616.785,1288.299,609.882,1288.299z"/>
			</g>
			<g>
				<path fill="#2C3C68" d="M1044.878,1288.299H556.882c-6.903,0-12.5-5.596-12.5-12.5s5.597-12.5,12.5-12.5h487.996
					c35.361,0,72.897-15.701,87.312-36.523c9.897-14.297,11.174-50.641,9.652-70.192c-0.535-6.88,4.606-12.896,11.486-13.435
					c6.868-0.534,12.896,4.596,13.437,11.476c0.479,6.077,4.155,60.127-14.021,86.381
					C1133.774,1268.41,1088.41,1288.299,1044.878,1288.299z"/>
			</g>
		</g>
		<g>
			<g>
				<path fill="#637EA8" d="M589.882,1236.299H476.964c-16.311,0-25.431-14.942-27.003-28.825c-0.053-0.467-0.079-0.937-0.079-1.406
					v-50.768c0-6.904,5.597-12.5,12.5-12.5s12.5,5.596,12.5,12.5v49.854c0.417,2.371,1.498,5.146,2.38,6.146h112.62
					c6.903,0,12.5,5.596,12.5,12.5S596.785,1236.299,589.882,1236.299z"/>
			</g>
			<g>
				<path fill="#637EA8" d="M691.174,1236.299H576.882c-6.903,0-12.5-5.596-12.5-12.5s5.597-12.5,12.5-12.5h114.131
					c1.025-0.901,2.366-4.075,2.869-6.345v-49.655c0-6.904,5.597-12.5,12.5-12.5s12.5,5.596,12.5,12.5v50.768
					c0,0.615-0.045,1.229-0.136,1.836C717.18,1218.45,709.61,1236.299,691.174,1236.299z"/>
			</g>
		</g>
		<g>
			<path fill="#2C3C68" d="M1154.882,1167.299h-1142c-6.903,0-12.5-5.596-12.5-12.5s5.597-12.5,12.5-12.5h1142
				c6.903,0,12.5,5.596,12.5,12.5S1161.786,1167.299,1154.882,1167.299z"/>
		</g>
	</g>
	<g>
		<path fill="#2C3C68" d="M630.767,534.281"/>
	</g>
	<g>
		<path fill="#2C3C68" d="M534.882,482.299h-330c-6.903,0-12.5-5.596-12.5-12.5s5.597-12.5,12.5-12.5h330
			c6.903,0,12.5,5.596,12.5,12.5S541.785,482.299,534.882,482.299z"/>
	</g>
</g>
<g>
	<g>
		<g>
			<path fill="#2C3C68" d="M684.382,272.799c-6.903,0-12.5-5.596-12.5-12.5v-71c0-6.904,5.597-12.5,12.5-12.5s12.5,5.596,12.5,12.5
				v71C696.882,267.203,691.285,272.799,684.382,272.799z"/>
		</g>
		<g>
			<path fill="#E8A15B" d="M684.382,521.799c-6.903,0-12.5-5.596-12.5-12.5v-72c0-6.904,5.597-12.5,12.5-12.5s12.5,5.596,12.5,12.5
				v72C696.882,516.203,691.285,521.799,684.382,521.799z"/>
		</g>
	</g>
	<g>
		<g>
			<path fill="#2C3C68" d="M1190.382,272.799c-6.903,0-12.5-5.596-12.5-12.5v-71c0-6.904,5.597-12.5,12.5-12.5s12.5,5.596,12.5,12.5
				v71C1202.882,267.203,1197.286,272.799,1190.382,272.799z"/>
		</g>
		<g>
			<path fill="#E8A15B" d="M1190.382,521.799c-6.903,0-12.5-5.596-12.5-12.5v-72c0-6.904,5.597-12.5,12.5-12.5s12.5,5.596,12.5,12.5
				v72C1202.882,516.203,1197.286,521.799,1190.382,521.799z"/>
		</g>
	</g>
</g>
<g>
	<path fill="#E8A15B" d="M296.076,414.425c-36.532,0-66.254-29.721-66.254-66.253c0-36.532,29.722-66.254,66.254-66.254
		s66.253,29.721,66.253,66.254C362.328,384.704,332.608,414.425,296.076,414.425z M296.076,306.918
		c-22.747,0-41.254,18.506-41.254,41.254s18.507,41.253,41.254,41.253s41.253-18.506,41.253-41.253S318.823,306.918,296.076,306.918
		z"/>
</g>
<g>
	<path fill="#637EA8" d="M298.273,957.822c-2.325,0-4.677-0.648-6.775-2.004c-5.797-3.748-7.458-11.487-3.71-17.284l90.695-140.276
		c3.748-5.797,11.486-7.458,17.284-3.71c5.797,3.748,7.458,11.487,3.71,17.284l-90.695,140.276
		C306.39,955.807,302.373,957.822,298.273,957.822z"/>
</g>
<g>
	<path fill="#637EA8" d="M612.364,922.478c-2.653,0-5.328-0.841-7.597-2.581l-149.586-114.68c-5.479-4.2-6.515-12.047-2.314-17.525
		c4.199-5.479,12.046-6.516,17.525-2.315l149.586,114.68c5.479,4.2,6.515,12.047,2.314,17.525
		C619.831,920.792,616.118,922.478,612.364,922.478z"/>
</g>
<g>
	<path fill="#637EA8" d="M705.321,933.713c-4.699,0-9.2-2.662-11.326-7.198c-2.93-6.251-0.237-13.694,6.014-16.623l139.551-65.401
		c6.252-2.929,13.694-0.237,16.623,6.014c2.93,6.251,0.237,13.694-6.014,16.623l-139.551,65.401
		C708.903,933.332,707.097,933.713,705.321,933.713z"/>
</g>
<g>
	<g>
		<path fill="#2C3C68" d="M493.848,360.672c-6.903,0-12.5-5.596-12.5-12.5c0-102.16-83.113-185.273-185.272-185.273
			s-185.272,83.113-185.272,185.273c0,6.904-5.597,12.5-12.5,12.5s-12.5-5.596-12.5-12.5c0-115.945,94.328-210.273,210.272-210.273
			s210.272,94.328,210.272,210.273C506.348,355.075,500.751,360.672,493.848,360.672z"/>
	</g>
	<g>
		<path d="M422.853,360.672c-6.903,0-12.5-5.596-12.5-12.5c0-63.013-51.265-114.277-114.277-114.277
			s-114.277,51.265-114.277,114.277c0,6.904-5.597,12.5-12.5,12.5s-12.5-5.596-12.5-12.5c0-76.798,62.479-139.277,139.277-139.277
			s139.277,62.479,139.277,139.277C435.353,355.075,429.756,360.672,422.853,360.672z"/>
	</g>
	<g>
		<path fill="#637EA8" d="M422.853,360.672c-6.903,0-12.5-5.596-12.5-12.5c0-63.013-51.265-114.277-114.277-114.277
			s-114.277,51.265-114.277,114.277c0,6.904-5.597,12.5-12.5,12.5s-12.5-5.596-12.5-12.5c0-76.798,62.479-139.277,139.277-139.277
			s139.277,62.479,139.277,139.277C435.353,355.075,429.756,360.672,422.853,360.672z"/>
	</g>
	<g>
		<path fill="none" stroke="#000000" stroke-width="25" stroke-linecap="round" stroke-linejoin="round" stroke-miterlimit="10" d="
			M422.833,349.693"/>
	</g>
</g>
<g>
	<path fill="#E8A15B" d="M266.663,1059.468c-36.532,0-66.254-29.721-66.254-66.254s29.722-66.254,66.254-66.254
		s66.253,29.721,66.253,66.254S303.196,1059.468,266.663,1059.468z M266.663,951.961c-22.747,0-41.254,18.506-41.254,41.254
		s18.507,41.254,41.254,41.254s41.253-18.506,41.253-41.254S289.41,951.961,266.663,951.961z"/>
</g>
<g>
	<path fill="#E8A15B" d="M418.795,826.198c-36.532,0-66.253-29.721-66.253-66.254c0-36.532,29.721-66.253,66.253-66.253
		s66.254,29.721,66.254,66.253C485.049,796.477,455.327,826.198,418.795,826.198z M418.795,718.691
		c-22.747,0-41.253,18.506-41.253,41.253s18.506,41.254,41.253,41.254s41.254-18.506,41.254-41.254S441.542,718.691,418.795,718.691
		z"/>
</g>
<g>
	<path fill="#E8A15B" d="M656.122,1010.786c-36.532,0-66.253-29.721-66.253-66.253c0-36.532,29.721-66.254,66.253-66.254
		s66.254,29.721,66.254,66.254C722.376,981.064,692.655,1010.786,656.122,1010.786z M656.122,903.279
		c-22.747,0-41.253,18.506-41.253,41.254s18.506,41.253,41.253,41.253s41.254-18.506,41.254-41.253S678.869,903.279,656.122,903.279
		z"/>
</g>
<g>
	<path fill="#E8A15B" d="M894.464,899.222c-36.532,0-66.254-29.721-66.254-66.254c0-36.532,29.722-66.253,66.254-66.253
		s66.254,29.721,66.254,66.253C960.718,869.5,930.996,899.222,894.464,899.222z M894.464,791.715
		c-22.747,0-41.254,18.506-41.254,41.253s18.507,41.254,41.254,41.254s41.254-18.506,41.254-41.254S917.211,791.715,894.464,791.715
		z"/>
</g>
<g>
	<g>
		<path fill="#E8A15B" d="M1271.816,200.849H601.888c-11.925,0-21.627-9.702-21.627-21.627V21.627
			C580.261,9.702,589.963,0,601.888,0h669.928c11.926,0,21.628,9.702,21.628,21.627v157.594
			C1293.444,191.147,1283.742,200.849,1271.816,200.849z M605.261,175.849h663.183V25H605.261V175.849z"/>
	</g>
	<g>
		<path fill="#2C3C68" d="M711.882,112.299h-26c-6.903,0-12.5-5.596-12.5-12.5s5.597-12.5,12.5-12.5h26
			c6.903,0,12.5,5.596,12.5,12.5S718.785,112.299,711.882,112.299z"/>
	</g>
	<g>
		<path fill="#2C3C68" d="M791.882,112.299h-28c-6.903,0-12.5-5.596-12.5-12.5s5.597-12.5,12.5-12.5h28
			c6.903,0,12.5,5.596,12.5,12.5S798.785,112.299,791.882,112.299z"/>
	</g>
	<g>
		<path fill="#2C3C68" d="M869.882,112.299h-26c-6.903,0-12.5-5.596-12.5-12.5s5.597-12.5,12.5-12.5h26
			c6.903,0,12.5,5.596,12.5,12.5S876.785,112.299,869.882,112.299z"/>
	</g>
</g>
<g>
	<g>
		<path fill="#637EA8" d="M1271.816,449.721H601.888c-11.925,0-21.627-9.702-21.627-21.627V270.5
			c0-11.925,9.702-21.627,21.627-21.627h669.928c11.926,0,21.628,9.702,21.628,21.627v157.594
			C1293.444,440.019,1283.742,449.721,1271.816,449.721z M605.261,424.721h663.183V273.872H605.261V424.721z"/>
	</g>
	<g>
		<path fill="#E8A15B" d="M711.882,361.299h-26c-6.903,0-12.5-5.596-12.5-12.5s5.597-12.5,12.5-12.5h26
			c6.903,0,12.5,5.596,12.5,12.5S718.785,361.299,711.882,361.299z"/>
	</g>
	<g>
		<path fill="#E8A15B" d="M791.882,361.299h-28c-6.903,0-12.5-5.596-12.5-12.5s5.597-12.5,12.5-12.5h28
			c6.903,0,12.5,5.596,12.5,12.5S798.785,361.299,791.882,361.299z"/>
	</g>
	<g>
		<path fill="#E8A15B" d="M869.882,361.299h-26c-6.903,0-12.5-5.596-12.5-12.5s5.597-12.5,12.5-12.5h26
			c6.903,0,12.5,5.596,12.5,12.5S876.785,361.299,869.882,361.299z"/>
	</g>
</g>
<g>
	<g>
		<path fill="#2C3C68" d="M1271.816,698.593H601.888c-11.925,0-21.627-9.702-21.627-21.627V519.372
			c0-11.925,9.702-21.627,21.627-21.627h669.928c11.926,0,21.628,9.702,21.628,21.627v157.594
			C1293.444,688.892,1283.742,698.593,1271.816,698.593z M605.261,673.593h663.183V522.745H605.261V673.593z"/>
	</g>
	<g>
		<path fill="#637EA8" d="M711.882,610.299h-26c-6.903,0-12.5-5.596-12.5-12.5s5.597-12.5,12.5-12.5h26
			c6.903,0,12.5,5.596,12.5,12.5S718.785,610.299,711.882,610.299z"/>
	</g>
	<g>
		<path fill="#637EA8" d="M791.882,610.299h-28c-6.903,0-12.5-5.596-12.5-12.5s5.597-12.5,12.5-12.5h28
			c6.903,0,12.5,5.596,12.5,12.5S798.785,610.299,791.882,610.299z"/>
	</g>
	<g>
		<path fill="#637EA8" d="M869.882,610.299h-26c-6.903,0-12.5-5.596-12.5-12.5s5.597-12.5,12.5-12.5h26
			c6.903,0,12.5,5.596,12.5,12.5S876.785,610.299,869.882,610.299z"/>
	</g>
</g>
</svg>
