<svg width="104" height="103" viewBox="0 0 104 103" fill="none" xmlns="http://www.w3.org/2000/svg">
<path d="M101.871 51.2151C101.569 51.2151 101.286 51.3329 101.072 51.5463C100.863 51.7567 100.742 52.0477 100.742 52.3447V56.656C100.742 56.9531 100.863 57.244 101.073 57.4555C101.5 57.8804 102.243 57.8814 102.67 57.4555C102.883 57.242 103.001 56.9581 103.001 56.657V52.3457C103.001 52.0487 102.88 51.7577 102.67 51.5473C102.456 51.3329 102.173 51.2151 101.871 51.2151Z" fill="#E8A15B"/>
<path d="M101.871 65.8958C101.569 65.8958 101.286 66.0136 101.072 66.2271C100.863 66.4375 100.742 66.7285 100.742 67.0255V71.4254C100.742 71.7275 100.86 72.0104 101.073 72.2248C101.5 72.6497 102.243 72.6497 102.67 72.2248C102.883 72.0104 103.001 71.7275 103.001 71.4254V67.0255C103.001 66.7285 102.88 66.4375 102.67 66.2281C102.456 66.0136 102.173 65.8958 101.871 65.8958Z" fill="#E8A15B"/>
<path d="M100.389 22.2109H100.037H2.96208H2.6107H2.2583V24.4683H2.6107H2.96208H100.037H100.389H100.742V22.2109H100.389Z" fill="#3F496A"/>
<path d="M101.801 1.19814C101.04 0.43697 99.9855 0 98.9072 0H4.09181C2.99938 0 1.9714 0.425894 1.19714 1.19814C0.425894 1.9714 0 2.99938 0 4.09181V21.9059V22.3912V23.3396V24.2881V24.7734V98.9072C0 100.001 0.425894 101.028 1.19814 101.802C1.9714 102.575 2.99938 103 4.09181 103H98.9072C99.9835 103 101.039 102.562 101.801 101.802C102.574 101.028 103 99.9996 103 98.9072V81.7959C103 81.4948 102.882 81.2119 102.669 80.9975C102.242 80.5726 101.498 80.5726 101.071 80.9975C100.861 81.2089 100.741 81.4999 100.741 81.7959V98.9072C100.741 99.3965 100.551 99.8566 100.205 100.204C99.8566 100.551 99.3965 100.741 98.9072 100.741H4.09181C3.60248 100.741 3.14236 100.551 2.795 100.205C2.44763 99.8566 2.25835 99.3965 2.25835 98.9072V25.1731V24.8207V24.4683V22.2109V21.8586V21.5062V4.09181C2.25835 3.60248 2.44763 3.14236 2.79399 2.795C3.14236 2.44763 3.60248 2.25734 4.09181 2.25734H98.9072C99.3965 2.25734 99.8566 2.44763 100.204 2.795C100.551 3.14236 100.741 3.60248 100.741 4.09181V21.5051V21.8575V22.2099V24.4683V24.8207V25.1731V41.9733C100.741 42.2743 100.858 42.5582 101.072 42.7717C101.499 43.1976 102.243 43.1976 102.668 42.7717C102.882 42.5582 103 42.2743 103 41.9733V24.7734V24.2871V23.3396V22.3922V21.9049V4.09181C103.001 2.99938 102.574 1.9714 101.801 1.19814Z" fill="#3F496A"/>
<path d="M17.3569 11.3028H14.4622C14.1601 11.3028 13.8772 11.4206 13.6628 11.6341C13.4533 11.8445 13.3325 12.1355 13.3325 12.4325C13.3325 12.7335 13.4503 13.0175 13.6638 13.2309C13.8762 13.4434 14.1601 13.5612 14.4622 13.5612H17.3569C17.6589 13.5612 17.9429 13.4434 18.1563 13.2309C18.3687 13.0175 18.4865 12.7335 18.4865 12.4325C18.4865 12.1355 18.3657 11.8445 18.1553 11.6341C17.9418 11.4196 17.6589 11.3028 17.3569 11.3028Z" fill="#E8A15B"/>
<path d="M29.277 11.3028H26.3824C26.0853 11.3028 25.7944 11.4236 25.5849 11.6331C25.3735 11.8435 25.2527 12.1345 25.2527 12.4315C25.2527 12.7325 25.3705 13.0165 25.5839 13.2299C25.7944 13.4393 26.0843 13.5602 26.3824 13.5602H29.277C29.5791 13.5602 29.863 13.4424 30.0765 13.2299C30.2889 13.0165 30.4067 12.7325 30.4067 12.4315C30.4067 12.1345 30.2859 11.8435 30.0755 11.6331C29.862 11.4196 29.5791 11.3028 29.277 11.3028Z" fill="#637EA8"/>
<path d="M41.1979 11.3028H38.3023C38.0012 11.3028 37.7183 11.4206 37.5038 11.6341C37.2914 11.8465 37.1736 12.1305 37.1736 12.4325C37.1736 12.7346 37.2914 13.0185 37.5038 13.2309C37.7173 13.4434 38.0012 13.5612 38.3023 13.5612H41.1979C41.499 13.5612 41.7829 13.4434 41.9964 13.2309C42.2088 13.0185 42.3266 12.7346 42.3266 12.4325C42.3266 12.1305 42.2088 11.8465 41.9964 11.6341C41.7819 11.4196 41.499 11.3028 41.1979 11.3028Z" fill="#3F496A"/>
<path d="M76.8865 44.5216L74.605 42.0024C74.4983 41.8766 74.4429 41.7276 74.4429 41.5745V35.7047C74.4409 35.0119 74.17 34.3595 73.6807 33.8702C73.1894 33.3799 72.5369 33.11 71.8452 33.109H68.2337C67.9356 33.109 67.6457 33.2298 67.4363 33.4393C67.2218 33.6537 67.104 33.9366 67.104 34.2377C67.104 34.5347 67.2248 34.8257 67.4352 35.0361C67.6457 35.2465 67.9367 35.3674 68.2337 35.3674L71.8311 35.3523H71.8321C71.9258 35.3523 72.0154 35.3895 72.0808 35.455C72.1463 35.5214 72.1845 35.611 72.1845 35.7047V41.5695C72.1845 42.2894 72.4503 42.9791 72.9346 43.5137L75.2161 46.0328C75.3208 46.1527 75.3782 46.3027 75.3782 46.4597C75.3782 46.6158 75.3219 46.7658 75.2192 46.8826L72.9316 49.4138C72.4503 49.9454 72.1855 50.6341 72.1855 51.352L72.2067 59.4228C72.2077 59.5165 72.1704 59.6071 72.104 59.6725C72.0385 59.739 71.9479 59.7762 71.8543 59.7762H68.2427C67.9407 59.7762 67.6568 59.894 67.4433 60.1065C67.2309 60.3209 67.1131 60.6039 67.1131 60.9049C67.1131 61.207 67.2309 61.4899 67.4443 61.7043C67.6578 61.9168 67.9407 62.0346 68.2427 62.0346H71.8472C72.5289 62.0336 73.1974 61.7557 73.6807 61.2724C74.17 60.7821 74.4409 60.1286 74.4419 59.4369V51.349C74.4439 51.1919 74.5003 51.0449 74.5979 50.9291L76.8865 48.404C77.3708 47.8713 77.6386 47.1827 77.6386 46.4618C77.6386 45.7409 77.3708 45.0532 76.8865 44.5216Z" fill="#E8A15B"/>
<path d="M34.7663 62.0296C35.0634 62.0296 35.3543 61.9087 35.5638 61.6983C35.7782 61.4849 35.896 61.2019 35.896 60.8999C35.896 60.5978 35.7782 60.3149 35.5648 60.1004C35.3543 59.891 35.0634 59.7702 34.7663 59.7702L31.1689 59.7823H31.1679C31.0742 59.7823 30.9846 59.746 30.9192 59.6796C30.8537 59.6131 30.8155 59.5235 30.8155 59.4299V51.3429C30.8155 50.625 30.5497 49.9354 30.0674 49.4027L27.7859 46.8846C27.6802 46.7668 27.6218 46.6158 27.6218 46.4577C27.6218 46.2997 27.6802 46.1486 27.7859 46.0308L30.0644 43.5127C30.5497 42.9791 30.8155 42.2894 30.8155 41.5685L30.8014 35.7198C30.8004 35.6261 30.8376 35.5365 30.9041 35.4701C30.9705 35.4036 31.0601 35.3664 31.1538 35.3664H34.7633C35.0654 35.3664 35.3483 35.2486 35.5607 35.0361C35.7722 34.8257 35.893 34.5347 35.893 34.2377C35.893 33.9366 35.7752 33.6527 35.5617 33.4393C35.3483 33.2258 35.0654 33.109 34.7633 33.109H31.1508C30.4581 33.109 29.8066 33.3799 29.3173 33.8702C28.826 34.3595 28.5551 35.0119 28.5541 35.7057V41.5776C28.5541 41.7376 28.4947 41.8907 28.386 42.0085L26.1105 44.5246C25.6262 45.0572 25.3584 45.7459 25.3584 46.4668C25.3584 47.1877 25.6262 47.8764 26.1095 48.408L28.392 50.9271C28.4967 51.0429 28.5551 51.1929 28.5571 51.348V59.4359C28.5571 60.1286 28.828 60.7811 29.3183 61.2724C29.8086 61.7627 30.4601 62.0336 31.1538 62.0346H34.713C34.7311 62.0306 34.7492 62.0296 34.7663 62.0296Z" fill="#E8A15B"/>
<path d="M63.1524 54.6262H63.7374C64.0394 54.6262 64.3223 54.5084 64.5368 54.295C64.7492 54.0815 64.867 53.7976 64.867 53.4966C64.867 53.1955 64.7492 52.9116 64.5358 52.6981C64.3233 52.4857 64.0394 52.3679 63.7374 52.3679H63.1524C62.8503 52.3679 62.5674 52.4857 62.355 52.6981C62.1405 52.9116 62.0227 53.1955 62.0227 53.4966C62.0227 53.7976 62.1405 54.0815 62.354 54.295C62.5674 54.5084 62.8503 54.6262 63.1524 54.6262Z" fill="#3F496A"/>
<path d="M56.5724 54.295C56.7848 54.0815 56.9026 53.7976 56.9026 53.4966C56.9026 53.1955 56.7848 52.9116 56.5714 52.6981C56.359 52.4857 56.075 52.3679 55.773 52.3679H55.188C54.89 52.3679 54.6 52.4887 54.3906 52.6981C54.1771 52.9116 54.0593 53.1945 54.0593 53.4966C54.0593 53.7986 54.1771 54.0825 54.3896 54.295C54.6 54.5054 54.891 54.6262 55.188 54.6262H55.773C56.075 54.6262 56.359 54.5084 56.5724 54.295Z" fill="#3F496A"/>
<path d="M48.6093 52.6991C48.3988 52.4887 48.1089 52.3679 47.8108 52.3679H47.2259C46.9238 52.3679 46.6399 52.4857 46.4264 52.6991C46.214 52.9126 46.0962 53.1955 46.0962 53.4966C46.0962 53.7976 46.214 54.0815 46.4274 54.295C46.6409 54.5074 46.9238 54.6252 47.2259 54.6252H47.8108C48.1079 54.6252 48.3988 54.5044 48.6083 54.295C48.8217 54.0815 48.9395 53.7986 48.9395 53.4966C48.9395 53.1945 48.8217 52.9116 48.6093 52.6991Z" fill="#3F496A"/>
<path d="M40.6451 54.296C40.8596 54.0825 40.9774 53.7986 40.9774 53.4976C40.9774 53.1965 40.8596 52.9126 40.6461 52.7001C40.4327 52.4877 40.1497 52.3689 39.8477 52.3689H39.2546C38.9566 52.3689 38.6666 52.4897 38.4572 52.6991C38.2438 52.9126 38.126 53.1955 38.126 53.4976C38.126 53.7996 38.2438 54.0835 38.4562 54.296C38.6667 54.5064 38.9576 54.6272 39.2546 54.6272H39.8477C40.1497 54.6262 40.4327 54.5084 40.6451 54.296Z" fill="#3F496A"/>
<path d="M27.4507 72.3195V79.9785H17.7579V72.3195H15.2881V90.9702H17.7579V82.1926H27.4507V90.9702H29.9326V72.3195H27.4507Z" fill="#637EA8"/>
<path d="M34.0725 72.3195V74.5325H40.1931V90.9773H42.673V74.5325H48.8449V72.3195H34.0725Z" fill="#637EA8"/>
<path d="M70.5184 90.9702L70.5164 72.3195H66.8122L61.7367 87.8661L56.6854 72.3195H52.9812V90.9702H55.3271V75.1044L60.6362 90.9702H62.8583L68.1755 75.1044V90.9702H70.5184Z" fill="#637EA8"/>
<path d="M78.6394 88.7642V72.3195H76.1716V90.9702H87.7121V88.7642H78.6394Z" fill="#637EA8"/>
</svg>
