<svg version="1.1" xmlns="http://www.w3.org/2000/svg" xmlns:xlink="http://www.w3.org/1999/xlink" x="0px" y="0px"
	 width="480px" height="480px" viewBox="-33 157 480 480" enable-background="new -33 157 480 480" xml:space="preserve">
	<path fill="#E8A15B" d="M207,157C74.452,157-33,264.452-33,397S74.452,637,207,637s240-107.452,240-240
		C446.85,264.514,339.486,157.15,207,157z M207,621C83.288,621-17,520.712-17,397S83.288,173,207,173s224,100.288,224,224
		C430.859,520.653,330.653,620.859,207,621z"/>
	<path fill="#637EA8" d="M343,389H215V261c0-4.418-3.582-8-8-8s-8,3.582-8,8v128H71c-4.418,0-8,3.582-8,8s3.582,8,8,8h128v128
		c0,4.418,3.582,8,8,8s8-3.582,8-8V405h128c4.418,0,8-3.582,8-8S347.418,389,343,389z"/>
</svg>