<?xml version="1.0" encoding="utf-8"?>
<!-- Generator: Adobe Illustrator 17.0.0, SVG Export Plug-In . SVG Version: 6.00 Build 0)  -->
<!DOCTYPE svg PUBLIC "-//W3C//DTD SVG 1.1//EN" "http://www.w3.org/Graphics/SVG/1.1/DTD/svg11.dtd">
<svg version="1.1" id="Слой_3" xmlns="http://www.w3.org/2000/svg" xmlns:xlink="http://www.w3.org/1999/xlink" x="0px" y="0px"
	 width="1304px" height="1304px" viewBox="0 0 1304 1304" enable-background="new 0 0 1304 1304" xml:space="preserve">
<g>
	<g>
		<g>
			<path fill="#2C3C68" d="M652.005,1229.6c-77.953,0-153.581-15.27-224.783-45.386c-68.767-29.086-130.523-70.722-183.554-123.752
				c-53.029-53.03-94.666-114.786-123.752-183.553C89.8,805.707,74.53,730.079,74.53,652.125c0-77.953,15.27-153.581,45.386-224.783
				c29.086-68.767,70.723-130.523,123.752-183.553c53.03-53.03,114.787-94.667,183.554-123.752
				c71.202-30.116,146.83-45.386,224.783-45.386s153.581,15.27,224.783,45.386c68.767,29.086,130.522,70.722,183.553,123.752
				s94.667,114.786,123.753,183.553c30.116,71.202,45.386,146.83,45.386,224.783c0,77.953-15.27,153.581-45.386,224.783
				c-29.086,68.767-70.723,130.523-123.753,183.553s-114.786,94.667-183.553,123.752C805.586,1214.33,729.958,1229.6,652.005,1229.6
				z M652.005,99.651C347.369,99.651,99.53,347.49,99.53,652.125S347.369,1204.6,652.005,1204.6s552.475-247.839,552.475-552.475
				S956.641,99.651,652.005,99.651z"/>
		</g>
		<g>
			<path fill="#2C3C68" d="M652,174c-6.903,0-12.5-5.596-12.5-12.5v-149C639.5,5.596,645.097,0,652,0s12.5,5.596,12.5,12.5v149
				C664.5,168.404,658.903,174,652,174z"/>
		</g>
		<g>
			<path fill="#2C3C68" d="M652,1304c-6.903,0-12.5-5.596-12.5-12.5v-149c0-6.904,5.597-12.5,12.5-12.5s12.5,5.596,12.5,12.5v149
				C664.5,1298.404,658.903,1304,652,1304z"/>
		</g>
		<g>
			<g>
				<path fill="#2C3C68" d="M1291.5,664.5h-149c-6.903,0-12.5-5.596-12.5-12.5s5.597-12.5,12.5-12.5h149
					c6.903,0,12.5,5.596,12.5,12.5S1298.403,664.5,1291.5,664.5z"/>
			</g>
			<g>
				<path fill="#2C3C68" d="M161.5,664.5h-149C5.597,664.5,0,658.904,0,652s5.597-12.5,12.5-12.5h149c6.903,0,12.5,5.596,12.5,12.5
					S168.403,664.5,161.5,664.5z"/>
			</g>
		</g>
	</g>
	<g>
		<g>
			<path fill="#2C3C68" d="M445,935c-6.903,0-12.5-5.596-12.5-12.5v-84.03c0-3.664,0.456-36.24,16.267-51.684
				c22.154-21.643,96.533-44.058,104.941-46.543c6.618-1.956,13.571,1.824,15.528,8.444s-1.823,13.573-8.442,15.531
				c-29.47,8.714-81.199,27.401-94.558,40.451c-5.227,5.104-8.736,21.598-8.736,33.801v84.03C457.5,929.404,451.903,935,445,935z"/>
		</g>
		<g>
			<path fill="#2C3C68" d="M873,935c-6.903,0-12.5-5.596-12.5-12.5v-84.03c0-12.228-3.488-28.728-8.681-33.801
				c-13.374-13.065-65.063-31.746-94.504-40.452c-6.62-1.958-10.399-8.911-8.442-15.531c1.958-6.62,8.908-10.401,15.532-8.442
				c8.402,2.485,82.73,24.9,104.884,46.542c15.756,15.392,16.211,48.014,16.211,51.684v84.03C885.5,929.404,879.903,935,873,935z"/>
		</g>
		<g>
			<path fill="#2C3C68" d="M520,935c-6.903,0-12.5-5.596-12.5-12.5v-36c0-6.904,5.597-12.5,12.5-12.5s12.5,5.596,12.5,12.5v36
				C532.5,929.404,526.903,935,520,935z"/>
		</g>
		<g>
			<path fill="#2C3C68" d="M656,935c-6.903,0-12.5-5.596-12.5-12.5v-135c0-6.904,5.597-12.5,12.5-12.5s12.5,5.596,12.5,12.5v135
				C668.5,929.404,662.903,935,656,935z"/>
		</g>
		<g>
			<path fill="#2C3C68" d="M792,935c-6.903,0-12.5-5.596-12.5-12.5v-36c0-6.904,5.597-12.5,12.5-12.5s12.5,5.596,12.5,12.5v36
				C804.5,929.404,798.903,935,792,935z"/>
		</g>
		<g>
			<path fill="#E8A15B" d="M729,726c-6.903,0-12.5-5.596-12.5-12.5v-36c0-6.904,5.597-12.5,12.5-12.5s12.5,5.596,12.5,12.5v36
				C741.5,720.404,735.903,726,729,726z"/>
		</g>
		<g>
			<path fill="#E8A15B" d="M581,726c-6.903,0-12.5-5.596-12.5-12.5v-36c0-6.904,5.597-12.5,12.5-12.5s12.5,5.596,12.5,12.5v36
				C593.5,720.404,587.903,726,581,726z"/>
		</g>
		<g>
			<path fill="#E8A15B" d="M875,724c-6.903,0-12.5-5.596-12.5-12.5v-25c0-6.904,5.597-12.5,12.5-12.5s12.5,5.596,12.5,12.5v25
				C887.5,718.404,881.903,724,875,724z"/>
		</g>
		<g>
			<path fill="#E8A15B" d="M981,724c-6.903,0-12.5-5.596-12.5-12.5v-25c0-6.904,5.597-12.5,12.5-12.5s12.5,5.596,12.5,12.5v25
				C993.5,718.404,987.903,724,981,724z"/>
		</g>
		<g>
			<path fill="#E8A15B" d="M652.714,709.238c-36.568,0-66.315-11.993-88.415-35.646c-42.352-45.327-42.075-118.614-41.477-134.521
				c-5.566-14.295-27.395-78.265,1.921-136.743c10.352-20.648,33.413-35.99,68.545-45.6c24.749-6.771,46.573-8.151,47.491-8.206
				c0.251-0.015,0.502-0.023,0.754-0.023h156.996c3.738,0,7.281,1.673,9.655,4.561s3.332,6.687,2.609,10.354
				c-0.097,0.494-9.75,50.69-5.195,108.24c2.091,26.424,0.813,46.463-3.802,59.561c-1.821,5.168-4.011,8.856-6.204,11.487
				c-0.804,12.878-4.15,45.704-17.974,78.904C753.75,678.936,710.559,709.238,652.714,709.238z M641.929,373.5
				c-21.845,1.42-80.416,11.268-94.836,40.033c-27.354,54.563-0.462,117.779-0.187,118.411c0.798,1.835,1.143,3.835,1.008,5.831
				c-0.05,0.751-4.574,76.855,34.717,118.818c17.175,18.344,40.755,27.644,70.083,27.644c47.404,0,81.58-24.105,101.577-71.646
				c15.696-37.314,16.549-75.551,16.556-75.933c0.075-4.27,2.313-8.133,5.808-10.35c1.306-2.036,7.122-13.518,4.022-52.682
				c-3.35-42.317,0.412-80.138,3.186-100.128H641.929z"/>
		</g>
		<g>
			<path fill="#E8A15B" d="M569.523,525.245c-6.345,0-11.778-4.81-12.423-11.257c-0.042-0.412-1.01-10.203-1.093-20.49
				c-0.112-13.786,0.747-28.85,12.43-33.098c5.908-2.149,57.459-15.835,97.986-10.146c38.557,5.412,87.527,38.038,89.593,39.424
				c5.732,3.847,7.262,11.612,3.415,17.345c-3.847,5.732-11.612,7.262-17.345,3.415c-0.456-0.305-46.291-30.816-79.138-35.426
				c-28.231-3.962-67.368,3.823-81.51,7.562c-0.714,6.002-0.54,18.161,0.536,28.927c0.688,6.869-4.324,12.995-11.193,13.682
				C570.359,525.224,569.939,525.245,569.523,525.245z"/>
		</g>
		<g>
			<path fill="#637EA8" d="M930.952,765.079c-2.469,0-4.962-0.729-7.141-2.249l-45.241-31.555l-13.687,12.085
				c-5.176,4.57-13.074,4.079-17.644-1.097c-4.569-5.175-4.078-13.074,1.097-17.644l21.052-18.588
				c4.32-3.817,10.694-4.182,15.425-0.882l53.301,37.176c5.662,3.949,7.051,11.741,3.102,17.403
				C938.785,763.213,934.9,765.079,930.952,765.079z"/>
		</g>
		<g>
			<path fill="#637EA8" d="M929.854,765.079c-3.948,0-7.833-1.866-10.264-5.35c-3.949-5.662-2.561-13.454,3.102-17.403
				l53.301-37.176c4.73-3.299,11.102-2.934,15.425,0.882l21.052,18.588c5.175,4.569,5.666,12.469,1.097,17.644
				c-4.569,5.174-12.468,5.667-17.644,1.097l-13.687-12.085l-45.241,31.555C934.815,764.349,932.322,765.079,929.854,765.079z"/>
		</g>
		<g>
			
				<path fill="none" stroke="#000000" stroke-width="25" stroke-linecap="round" stroke-linejoin="round" stroke-miterlimit="10" d="
				M855.828,737.751"/>
		</g>
		<g>
			<path fill="#637EA8" d="M1083,872c-6.903,0-12.5-5.596-12.5-12.5v-59.22c0-9.212-2.702-18.996-5.027-21.267
				c-9.138-8.927-42.846-22.854-61.947-29.536c-6.516-2.28-9.95-9.41-7.671-15.926s9.406-9.951,15.927-7.671
				c5.593,1.957,55.109,19.569,71.161,35.25c12.205,11.922,12.558,36.399,12.558,39.151v59.22C1095.5,866.404,1089.903,872,1083,872
				z"/>
		</g>
		<g>
			<path fill="#637EA8" d="M930,872c-6.903,0-12.5-5.596-12.5-12.5v-96c0-6.904,5.597-12.5,12.5-12.5s12.5,5.596,12.5,12.5v96
				C942.5,866.404,936.903,872,930,872z"/>
		</g>
		<g>
			<path fill="#637EA8" d="M1025,872c-6.903,0-12.5-5.596-12.5-12.5v-26c0-6.904,5.597-12.5,12.5-12.5s12.5,5.596,12.5,12.5v26
				C1037.5,866.404,1031.903,872,1025,872z"/>
		</g>
		<g>
			<path fill="#637EA8" d="M995.449,573.824c-2.395,0-4.815-0.687-6.954-2.122c-8.824-5.909-35.801-21.825-54.343-24.427
				c-22.228-3.12-53.845,4.27-58.942,6.089c-6.486,2.315-13.659-1.043-15.994-7.525c-2.335-6.481,0.982-13.618,7.457-15.972
				c7.271-2.644,43.501-11.202,70.954-7.349c28.053,3.937,63.313,27.427,64.799,28.426c5.733,3.847,7.262,11.612,3.415,17.345
				C1003.429,571.882,999.476,573.824,995.449,573.824z"/>
		</g>
		<g>
			<g>
				<path fill="#637EA8" d="M605.061,834.389c-0.423,0-0.847-0.021-1.271-0.065c-3.669-0.375-6.984-2.351-9.061-5.399
					l-52.648-77.299c-3.546-5.206-2.664-12.237,2.058-16.407l29.813-26.324c4.321-3.817,10.693-4.182,15.425-0.882l75.484,52.649
					c3.063,2.136,5.01,5.53,5.309,9.252c0.299,3.722-1.082,7.383-3.765,9.981l-52.649,50.974
					C611.411,833.138,608.288,834.389,605.061,834.389z M568.947,746.664l38.085,55.916l31.082-30.093l-54.981-38.348
					L568.947,746.664z"/>
			</g>
			<g>
				<path fill="#637EA8" d="M708.771,834.389c-3.229,0-6.351-1.251-8.694-3.52l-52.649-50.974c-2.683-2.597-4.063-6.258-3.765-9.981
					c0.299-3.722,2.246-7.116,5.309-9.252l75.484-52.649c4.73-3.299,11.102-2.935,15.425,0.882l29.813,26.324
					c4.722,4.169,5.604,11.201,2.058,16.407l-52.648,77.299c-2.076,3.048-5.392,5.024-9.061,5.399
					C709.618,834.367,709.194,834.389,708.771,834.389z M675.718,772.488L706.8,802.58l38.085-55.916l-14.186-12.525
					L675.718,772.488z"/>
			</g>
			<g>
				<path fill="#E8A15B" d="M459.574,599.86c-1.678,0-3.383-0.34-5.018-1.057c-6.321-2.775-9.196-10.149-6.422-16.47
					c0.174-0.4,18.341-43.284-0.064-79.996c-3.094-6.172-0.599-13.683,5.573-16.777c6.168-3.094,13.682-0.599,16.776,5.573
					c23.746,47.368,1.563,99.071,0.607,101.249C468.97,597.068,464.385,599.86,459.574,599.86z"/>
			</g>
			<g>
				<path fill="#E8A15B" d="M376.774,712.701c-28.225,0-51.418-8.966-68.936-26.65c-33.207-33.521-33.097-86.071-33.075-88.297
					c0.064-6.863,5.648-12.254,12.496-12.254c0.041,0,0.08,0,0.121,0c6.902,0,12.446,5.586,12.381,12.489
					c-0.002,0.419,0.064,44.621,25.932,70.626c12.64,12.707,29.825,19.117,51.081,19.117c19.918,0,35.223-6.014,46.786-18.353
					c26.644-28.429,23.582-80.661,23.548-81.185c-0.446-6.882,4.764-12.839,11.645-13.296c6.878-0.458,12.832,4.732,13.3,11.613
					c0.175,2.572,3.89,63.409-30.163,99.855C425.563,703.841,403.654,712.701,376.774,712.701z"/>
			</g>
			<g>
				<path fill="#E8A15B" d="M257.838,642.603c-2.584,0-5.189-0.798-7.426-2.453c-5.55-4.107-6.719-11.935-2.612-17.484l50.901-68.78
					c0.852-1.151,1.895-2.146,3.083-2.944c1.487-0.998,36.747-24.488,64.799-28.425c27.46-3.854,63.683,4.705,70.955,7.35
					c6.488,2.359,9.835,9.531,7.476,16.019c-2.357,6.487-9.529,9.833-16.014,7.477l0,0c-5.098-1.82-36.71-9.207-58.942-6.089
					c-17.502,2.457-42.36,16.671-52.583,23.27l-49.579,66.993C265.443,640.851,261.665,642.603,257.838,642.603z"/>
			</g>
			<g>
				<path fill="#637EA8" d="M376.877,769.618c-48.479,0-68.29-39.353-69.11-41.029c-3.033-6.201-0.466-13.688,5.735-16.722
					c6.175-3.021,13.633-0.486,16.688,5.668c0.639,1.254,14.21,27.083,46.687,27.083c28.555,0,44.329-27.385,44.485-27.662
					c3.391-6.013,11.013-8.139,17.028-4.748c6.013,3.391,8.139,11.015,4.747,17.028C442.208,730.885,419.87,769.618,376.877,769.618
					z"/>
			</g>
			<g>
				<path fill="#E8A15B" d="M262.34,762.777c-2.911,0-5.835-1.011-8.203-3.073l-31.22-27.181c-4.095-3.564-5.419-9.366-3.279-14.355
					c0.105-0.247,10.684-25.005,20.515-55.727c3.211-10.032,5.229-32.372,7.365-56.024c4.401-48.735,9.391-104.171,29.014-125.23
					c29.322-31.467,86.511-32.687,88.932-32.687c0.047,0,0.095,0,0.142,0c6.839,0,12.42,5.704,12.496,12.56
					c0.077,6.899-5.449,12.654-12.347,12.738c-0.632,0.01-48.982,1.028-70.933,24.582c-13.784,14.794-18.973,72.255-22.405,110.261
					c-2.362,26.151-4.402,48.749-8.453,61.407c-6.795,21.235-13.8,39.413-17.86,49.508l24.45,21.29
					c5.207,4.533,5.753,12.43,1.22,17.637C269.301,761.322,265.829,762.777,262.34,762.777z"/>
			</g>
			<g>
				<path fill="#E8A15B" d="M481.043,760.181c-3.49,0-6.961-1.453-9.433-4.292c-4.533-5.207-3.987-13.103,1.22-17.635l21.469-18.691
					c-4.061-10.094-11.065-28.267-17.86-49.502c-4.051-12.658-6.091-35.243-8.452-61.394c-3.434-38.007-8.621-95.443-22.407-110.237
					c-21.981-23.591-70.447-24.526-70.935-24.533c-6.896-0.095-12.421-5.957-12.336-12.853c0.086-6.849,5.656-12.544,12.488-12.544
					c0.048,0,0.095,0,0.142,0c2.421,0,59.61,1.221,88.932,32.687c19.623,21.059,24.612,76.396,29.015,125.131
					c2.136,23.651,4.153,46.04,7.364,56.073c9.854,30.791,20.409,55.505,20.515,55.751c2.141,4.99,0.816,10.804-3.279,14.369
					l-28.238,24.591C486.879,759.164,483.954,760.181,481.043,760.181z"/>
			</g>
			<g>
				<path fill="#637EA8" d="M479.536,760.582c-1.692,0-3.412-0.346-5.06-1.076l-48.288-21.408
					c-6.311-2.798-9.159-10.182-6.361-16.493c2.799-6.311,10.181-9.159,16.494-6.361l48.288,21.408
					c6.311,2.798,9.159,10.182,6.361,16.493C488.902,757.809,484.329,760.582,479.536,760.582z"/>
			</g>
			<g>
				<path fill="#637EA8" d="M220,872c-6.903,0-12.5-5.596-12.5-12.5v-60.152c0-1.109,0.157-27.309,13.868-39.895
					c16.636-15.272,79.939-39.686,92.46-44.425c6.454-2.443,13.671,0.809,16.115,7.266c2.443,6.456-0.809,13.671-7.266,16.115
					c-27.251,10.316-74.264,30.152-84.403,39.461c-2.914,2.675-5.774,13.313-5.774,21.478V859.5C232.5,866.404,226.903,872,220,872z
					"/>
			</g>
			<g>
				<path fill="#E8A15B" d="M322,724c-6.903,0-12.5-5.596-12.5-12.5v-25c0-6.904,5.597-12.5,12.5-12.5s12.5,5.596,12.5,12.5v25
					C334.5,718.404,328.903,724,322,724z"/>
			</g>
			<g>
				<path fill="#E8A15B" d="M428,724c-6.903,0-12.5-5.596-12.5-12.5v-25c0-6.904,5.597-12.5,12.5-12.5s12.5,5.596,12.5,12.5v25
					C440.5,718.404,434.903,724,428,724z"/>
			</g>
		</g>
	</g>
</g>
<g>
	<path fill="none" d="M927.436,687.701c16.919,0,31.339-4.591,43.163-13.701h-85.059
		C896.43,683.202,910.203,687.701,927.436,687.701z"/>
	<path fill="none" d="M1012.265,577.252c0.94-2.119,3.709-10.57,1.865-33.868c-2.166-27.362-0.165-51.953,1.708-66.884h-95.939
		c-13.929,0.83-54.449,7.237-63.759,25.807c-18.542,36.987-0.251,79.603-0.063,80.029c0.81,1.845,1.16,3.858,1.024,5.869
		c-0.003,0.053-0.041,0.685-0.073,1.795h150.009c0.116-1.811,0.14-2.848,0.141-2.899
		C1007.252,583.128,1009.196,579.517,1012.265,577.252z"/>
	<path fill="#637EA8" d="M857.101,588.205c0.136-2.01-0.215-4.024-1.024-5.869c-0.188-0.427-18.479-43.042,0.063-80.029
		c9.31-18.57,49.83-24.977,63.759-25.807h95.939c-1.873,14.931-3.874,39.522-1.708,66.884c1.844,23.298-0.925,31.749-1.865,33.868
		c-3.068,2.265-5.013,5.876-5.087,9.849c-0.001,0.051-0.026,1.088-0.141,2.899h26.77c0.838-1.487,1.63-3.194,2.339-5.171
		c3.496-9.748,4.447-23.949,2.906-43.417c-3.171-40.068,3.538-74.632,3.604-74.968c0.731-3.671-0.221-7.477-2.595-10.371
		c-2.374-2.895-5.921-4.572-9.664-4.572H919.541c-0.222,0-0.443,0.006-0.664,0.018c-6.86,0.365-67.535,4.577-85.087,39.585
		c-20.872,41.637-6.258,86.645-1.768,98.405c-0.005,0.15-0.008,0.332-0.012,0.492h25.018
		C857.06,588.89,857.097,588.258,857.101,588.205z"/>
	<path fill="#E8A15B" d="M1007.036,590c-0.484,7.568-2.574,28.797-11.335,49.534c-6.317,14.953-14.707,26.457-25.103,34.466
		c-11.824,9.11-26.243,13.701-43.163,13.701c-17.232,0-31.006-4.5-41.896-13.701c-1.697-1.434-3.331-2.973-4.89-4.637
		c-23.84-25.438-23.897-69.921-23.622-79.363H832.01c-0.323,12.094,0.29,52.657,20.685,84c2.818,4.33,6.002,8.488,9.625,12.365
		c16.327,17.476,38.235,26.336,65.115,26.336c32.829,0,59.205-13.278,77.558-38.701c5.377-7.449,10.073-15.93,14.031-25.438
		c9.526-22.88,12.157-45.543,12.879-55.639c0.652-0.859,1.29-1.834,1.903-2.924H1007.036z"/>
</g>
</svg>
