<?xml version="1.0" encoding="utf-8"?>
<!-- Generator: Adobe Illustrator 17.0.0, SVG Export Plug-In . SVG Version: 6.00 Build 0)  -->
<!DOCTYPE svg PUBLIC "-//W3C//DTD SVG 1.1//EN" "http://www.w3.org/Graphics/SVG/1.1/DTD/svg11.dtd">
<svg version="1.1" id="Слой_1" xmlns="http://www.w3.org/2000/svg" xmlns:xlink="http://www.w3.org/1999/xlink" x="0px" y="0px"
	 width="307.975px" height="163.92px" viewBox="0 0 307.975 163.92" enable-background="new 0 0 307.975 163.92"
	 xml:space="preserve">
<g>
	<g>
		<defs>
			<rect id="SVGID_1_" x="0" y="0" width="307.92" height="163.92"/>
		</defs>
		<clipPath id="SVGID_2_">
			<use xlink:href="#SVGID_1_"  overflow="visible"/>
		</clipPath>
		<path clip-path="url(#SVGID_2_)" d="M218.676,3.175C219.629,4.116,220.574,5.05,218.676,3.175L218.676,3.175z M218.676,3.175"/>
		<path clip-path="url(#SVGID_2_)" fill="#2C3C68" d="M218.676,3.175c-3.801-3.766-9.949-3.766-13.75,0L67.422,139.768
			L16.586,89.792c-3.789-3.766-9.949-3.766-13.742,0c-3.793,3.762-3.793,9.855,0,13.609l57.734,56.774
			c3.754,3.714,10,3.714,13.754,0L218.676,16.784C222.48,13.026,222.469,6.936,218.676,3.175L218.676,3.175z M218.676,3.175"/>
	</g>
	<path d="M218.676,3.175C216.781,1.296,217.727,2.229,218.676,3.175L218.676,3.175z M218.676,3.175"/>
	<path d="M305.121,3.175C303.227,1.296,304.18,2.229,305.121,3.175L305.121,3.175z M305.121,3.175"/>
	<g>
		<path d="M305.121,3.175C306.074,4.116,307.02,5.05,305.121,3.175L305.121,3.175z M305.121,3.175"/>
		<path fill="#E8A15B" d="M305.121,3.175c-3.801-3.766-9.949-3.766-13.75,0L153.867,139.768l-12.34-11.48
			c-3.789-3.762-9.949-3.762-13.742,0c-3.793,3.762-3.793,9.855,0,13.609l19.238,18.278c3.754,3.714,10,3.714,13.754,0
			L305.121,16.784C308.926,13.026,308.926,6.936,305.121,3.175L305.121,3.175z M305.121,3.175"/>
	</g>
</g>
</svg>
