<?xml version="1.0" encoding="utf-8"?>
<!-- Generator: Adobe Illustrator 17.0.0, SVG Export Plug-In . SVG Version: 6.00 Build 0)  -->
<!DOCTYPE svg PUBLIC "-//W3C//DTD SVG 1.1//EN" "http://www.w3.org/Graphics/SVG/1.1/DTD/svg11.dtd">
<svg version="1.1" id="Слой_13" xmlns="http://www.w3.org/2000/svg" xmlns:xlink="http://www.w3.org/1999/xlink" x="0px"
	 y="0px" width="1291.083px" height="1167.091px" viewBox="0 0 1291.083 1167.091" enable-background="new 0 0 1291.083 1167.091"
	 xml:space="preserve">
<g>
	<path fill="#2C3C68" d="M12.5,1165.591c-6.903,0-12.5-5.597-12.5-12.5v-955.5c0-6.903,5.597-12.5,12.5-12.5H1137
		c6.903,0,12.5,5.597,12.5,12.5s-5.597,12.5-12.5,12.5H25v943C25,1159.994,19.403,1165.591,12.5,1165.591z"/>
</g>
<g>
	<path fill="#2C3C68" d="M1137,1167.091H13c-6.903,0-12.5-5.597-12.5-12.5s5.597-12.5,12.5-12.5h1124c6.903,0,12.5,5.597,12.5,12.5
		S1143.903,1167.091,1137,1167.091z"/>
</g>
<g>
	<path fill="#637EA8" d="M593.5,669.591c-6.903,0-12.5-5.597-12.5-12.5v-79c0-6.903,5.597-12.5,12.5-12.5s12.5,5.597,12.5,12.5v79
		C606,663.994,600.403,669.591,593.5,669.591z"/>
</g>
<g>
	<path fill="#637EA8" d="M311.5,743.591c-6.903,0-12.5-5.597-12.5-12.5v-70c0-6.903,5.597-12.5,12.5-12.5s12.5,5.597,12.5,12.5v70
		C324,737.994,318.403,743.591,311.5,743.591z"/>
</g>
<g>
	<path fill="#637EA8" d="M875.5,743.591c-6.903,0-12.5-5.597-12.5-12.5v-70c0-6.903,5.597-12.5,12.5-12.5s12.5,5.597,12.5,12.5v70
		C888,737.994,882.403,743.591,875.5,743.591z"/>
</g>
<g>
	<path fill="#637EA8" d="M875,672.091H312c-6.903,0-12.5-5.596-12.5-12.5s5.597-12.5,12.5-12.5h563c6.903,0,12.5,5.596,12.5,12.5
		S881.903,672.091,875,672.091z"/>
</g>
<g>
	<g>
		<path fill="#637EA8" d="M647,349.091H385c-6.903,0-12.5-5.597-12.5-12.5s5.597-12.5,12.5-12.5h262c6.903,0,12.5,5.597,12.5,12.5
			S653.903,349.091,647,349.091z"/>
	</g>
	<g>
		<path fill="#637EA8" d="M803,349.091h-97c-6.903,0-12.5-5.597-12.5-12.5s5.597-12.5,12.5-12.5h97c6.903,0,12.5,5.597,12.5,12.5
			S809.903,349.091,803,349.091z"/>
	</g>
</g>
<g>
	<g>
		<path fill="#2C3C68" d="M452,989.091H275c-6.903,0-12.5-5.596-12.5-12.5s5.597-12.5,12.5-12.5h177c6.903,0,12.5,5.596,12.5,12.5
			S458.903,989.091,452,989.091z"/>
	</g>
	<g>
		<path fill="#2C3C68" d="M235,989.091h-64c-6.903,0-12.5-5.596-12.5-12.5s5.597-12.5,12.5-12.5h64c6.903,0,12.5,5.596,12.5,12.5
			S241.903,989.091,235,989.091z"/>
	</g>
</g>
<g>
	<g>
		<path fill="#2C3C68" d="M1016,989.091H840c-6.903,0-12.5-5.596-12.5-12.5s5.597-12.5,12.5-12.5h176c6.903,0,12.5,5.596,12.5,12.5
			S1022.903,989.091,1016,989.091z"/>
	</g>
	<g>
		<path fill="#2C3C68" d="M800,989.091h-66c-6.903,0-12.5-5.596-12.5-12.5s5.597-12.5,12.5-12.5h66c6.903,0,12.5,5.596,12.5,12.5
			S806.903,989.091,800,989.091z"/>
	</g>
</g>
<g>
	<path fill="#E8A15B" d="M273.5,134.591c-6.903,0-12.5-5.597-12.5-12.5v-107c0-6.903,5.597-12.5,12.5-12.5s12.5,5.597,12.5,12.5v107
		C286,128.994,280.403,134.591,273.5,134.591z"/>
</g>
<g>
	<path fill="#2C3C68" d="M719.678,589.091H467.75c-14.75,0-26.75-12.483-26.75-27.826V426.693c0-15.22,12-27.603,26.75-27.603
		h251.928c14.76,0,26.322,12.125,26.322,27.603v134.571C746,576.868,734.438,589.091,719.678,589.091z M467.75,424.091
		c-0.948,0-1.75,1.192-1.75,2.603v134.571c0,1.522,0.962,2.826,1.75,2.826h251.928c0.521,0,1.322-1.213,1.322-2.826V426.693
		c0-1.257-0.531-2.603-1.322-2.603H467.75z"/>
</g>
<g>
	<g>
		<path fill="#637EA8" d="M437.228,910.091H185.3c-14.798,0-27.3-12.833-27.3-28.022V747.497c0-15.112,12.247-27.407,27.3-27.407
			h251.928c14.763,0,26.772,12.294,26.772,27.407v134.571C464,897.52,451.99,910.091,437.228,910.091z M185.3,745.091
			c-1.086,0-2.3,1.029-2.3,2.407v134.571c0,1.61,1.434,3.022,2.3,3.022h251.928c0.606,0,1.772-1.276,1.772-3.022V747.497
			c0-1.167-0.621-2.407-1.772-2.407H185.3z"/>
	</g>
	<g>
		<path fill="#E8A15B" d="M1002.128,910.091H750.2c-15.022,0-28.2-13.095-28.2-28.022V747.497c0-14.856,12.914-27.407,28.2-27.407
			h251.928c14.817,0,26.872,12.294,26.872,27.407v134.571C1029,897.52,1016.945,910.091,1002.128,910.091z M750.2,745.091
			c-1.483,0-3.2,1.457-3.2,2.407v134.571c0,1.215,1.914,3.022,3.2,3.022h251.928c0.641,0,1.872-1.276,1.872-3.022V747.497
			c0-1.372-0.805-2.407-1.872-2.407H750.2z"/>
	</g>
</g>
<g>
	<path fill="#E8A15B" d="M331.5,134.591c-6.903,0-12.5-5.597-12.5-12.5v-107c0-6.903,5.597-12.5,12.5-12.5s12.5,5.597,12.5,12.5v107
		C344,128.994,338.403,134.591,331.5,134.591z"/>
</g>
<g>
	<path fill="#2C3C68" d="M746.5,134.591c-6.903,0-12.5-5.597-12.5-12.5v-107c0-6.903,5.597-12.5,12.5-12.5s12.5,5.597,12.5,12.5v107
		C759,128.994,753.403,134.591,746.5,134.591z"/>
</g>
<g>
	<path fill="none" d="M1240.409,42.761c-26.715-21.259-67.832-18.648-86.409-16.086v929.321c5.996-0.625,13.428-1.141,21.643-1.141
		c26.565,0,61.327,5.386,82.285,29.837c2.977,3.473,5.658,7.025,8.072,10.616V107.475C1266,78.046,1257.39,56.273,1240.409,42.761z"
		/>
	<path fill="#637EA8" d="M1291.046,1054.512c-0.015-0.406-0.031-0.74-0.046-0.999V107.475c0-37.429-11.784-65.783-35.024-84.277
		c-44.556-35.455-114.334-19.903-117.282-19.222c-5.674,1.308-9.693,6.358-9.693,12.181v954.264c0,3.755,1.688,7.311,4.597,9.685
		c2.908,2.375,6.732,3.313,10.41,2.562c18.753-3.838,72.372-8.034,94.939,18.294c26.849,31.324,23.344,72.4,23.31,72.772
		c-0.152,1.514-0.026,2.992,0.334,4.384c-0.204,0.651-0.422,1.309-0.651,1.973h26.068
		C1291.055,1068.138,1291.191,1058.648,1291.046,1054.512z M1257.928,984.692c-20.958-24.451-55.72-29.837-82.285-29.837
		c-8.215,0-15.646,0.516-21.643,1.141V26.675c18.577-2.562,59.694-5.173,86.409,16.086C1257.39,56.273,1266,78.046,1266,107.475
		v887.832C1263.586,991.717,1260.904,988.165,1257.928,984.692z"/>
	<path fill="#2C3C68" d="M1137.197,1141.747c-6.903,0-12.5,5.596-12.5,12.5c0,6.903,5.597,12.5,12.5,12.5
		c43.649,0,78.975-8.324,104.993-24.74c20.114-12.691,34.363-29.819,42.351-50.909c1.453-3.836,2.577-7.521,3.466-11.007h-26.068
		c-0.245,0.711-0.503,1.428-0.777,2.153C1250.881,1109.389,1221.028,1141.747,1137.197,1141.747z"/>
</g>
<g>
	<path fill="#637EA8" d="M789.371,135.39c-4.434,0-8.728-2.364-10.993-6.534c-3.297-6.065-1.052-13.655,5.014-16.952l79.392-43.147
		L785.85,27.091H183v95c0,6.904-5.597,12.5-12.5,12.5s-12.5-5.596-12.5-12.5v-107.5c0-6.903,5.597-12.5,12.5-12.5h618.518
		c2.079,0,4.125,0.519,5.953,1.509l99.978,54.148c4.031,2.183,6.544,6.398,6.547,10.982c0.003,4.584-2.503,8.803-6.531,10.992
		l-99.635,54.149C793.434,134.901,791.388,135.39,789.371,135.39z"/>
</g>
<g>
	<g>
		<path fill="#637EA8" d="M789,135.091H170c-6.903,0-12.5-5.597-12.5-12.5s5.597-12.5,12.5-12.5h619c6.903,0,12.5,5.597,12.5,12.5
			S795.903,135.091,789,135.091z"/>
	</g>
</g>
</svg>
