<svg version="1.1" xmlns="http://www.w3.org/2000/svg" xmlns:xlink="http://www.w3.org/1999/xlink" x="0px" y="0px"
	 width="1185px" height="1177.317px" viewBox="0 0 1185 1177.317" enable-background="new 0 0 1185 1177.317" xml:space="preserve">
<g>
	<g>
		<path fill="#2C3C68" d="M983.157,668.339c-0.177,0-0.354-0.004-0.532-0.011c-6.897-0.289-12.255-6.115-11.966-13.013
			c0.28-6.674,0.416-12.659,0.416-18.297c0-18.845-1.235-37.804-3.672-56.353c-0.899-6.845,3.921-13.122,10.766-14.021
			c6.847-0.897,13.123,3.921,14.021,10.766c2.578,19.624,3.885,39.679,3.885,59.608c0,5.99-0.144,12.317-0.438,19.344
			C995.355,663.081,989.819,668.339,983.157,668.339z"/>
	</g>
	<g>
		<path fill="#2C3C68" d="M733.462,251.863c-1.806,0-3.639-0.397-5.375-1.236c-57.734-27.908-119.741-42.059-184.298-42.059
			c-3.917,0-8.168,0.07-12.995,0.216c-6.834,0.206-12.59-5.22-12.795-12.12c-0.205-6.9,5.19-12.662,12.051-12.868
			c5.077-0.153,9.571-0.228,13.739-0.228c68.315,0,133.945,14.98,195.066,44.525c6.187,2.991,8.792,10.459,5.818,16.682
			C742.534,249.251,738.09,251.863,733.462,251.863z"/>
	</g>
	<g>
		<path fill="#2C3C68" d="M414.354,296.869c-6.392,0-11.843-4.877-12.434-11.367c-0.626-6.875,4.439-12.956,11.314-13.582
			c9.167-0.835,18.496-1.398,27.728-1.675c6.873-0.193,12.662,5.219,12.869,12.12c0.207,6.9-5.22,12.662-12.121,12.868
			c-8.726,0.262-17.544,0.794-26.208,1.583C415.118,296.852,414.734,296.869,414.354,296.869z"/>
	</g>
	<g>
		<path fill="#2C3C68" d="M457.568,1177.317c-61.21,0-120.596-11.991-176.507-35.64c-53.998-22.839-102.49-55.532-144.13-97.173
			c-41.64-41.64-74.334-90.132-97.173-144.13c-23.649-55.912-35.64-115.297-35.64-176.507c0-168.687,91.625-322.407,239.118-401.175
			c6.089-3.25,13.663-0.952,16.915,5.138s0.952,13.663-5.138,16.915C115.675,419.157,29.118,564.429,29.118,723.868
			c0,236.248,192.202,428.449,428.45,428.449c91.967,0,179.619-28.701,253.48-83.002c5.563-4.092,13.387-2.896,17.476,2.667
			s2.895,13.387-2.667,17.476C647.673,1146.936,554.9,1177.317,457.568,1177.317z"/>
	</g>
	<g>
		<path fill="#2C3C68" d="M836.184,962.459c-2.184,0-4.396-0.572-6.406-1.775c-5.924-3.545-7.853-11.221-4.309-17.145
			c36.358-60.768,57.151-130.401,60.133-201.375c0.29-6.897,6.108-12.231,13.014-11.965c6.897,0.29,12.254,6.116,11.965,13.014
			c-3.155,75.122-25.168,148.832-63.658,213.162C844.58,960.289,840.435,962.459,836.184,962.459z"/>
	</g>
	<g>
		<path fill="#2C3C68" d="M442.332,282.918"/>
	</g>
	<g>
		<path fill="#2C3C68" d="M985,669.5H530.5c-6.903,0-12.5-5.597-12.5-12.5V196.5c0-6.903,5.597-12.5,12.5-12.5s12.5,5.597,12.5,12.5
			v448h442c6.903,0,12.5,5.597,12.5,12.5S991.903,669.5,985,669.5z"/>
	</g>
	<g>
		<path fill="#2C3C68" d="M897,753.5H441.5c-6.903,0-12.5-5.597-12.5-12.5V282.5c0-6.903,5.597-12.5,12.5-12.5s12.5,5.597,12.5,12.5
			v446h443c6.903,0,12.5,5.597,12.5,12.5S903.903,753.5,897,753.5z"/>
	</g>
	<g>
		<path fill="#637EA8" d="M380.503,403.588c-3.246,0-6.436-1.264-8.826-3.646L233.751,262.5H12.5C5.597,262.5,0,256.903,0,250V12.5
			C0,5.597,5.597,0,12.5,0c1.219,0,2.398,0.175,3.512,0.5H380.5c6.903,0,12.5,5.597,12.5,12.5v378.088
			c0,5.052-3.041,9.607-7.707,11.544C383.744,403.275,382.117,403.588,380.503,403.588z M25,237.5h213.916
			c3.308,0,6.48,1.311,8.823,3.646L368,360.985V25.5H25V237.5z"/>
	</g>
	<g>
		<path fill="#E8A15B" d="M306,104.5H86c-6.904,0-12.5-5.597-12.5-12.5S79.096,79.5,86,79.5h220c6.904,0,12.5,5.597,12.5,12.5
			S312.904,104.5,306,104.5z"/>
		<g>
			<path fill="#637EA8" d="M870.417,1154.911c-13.333,0-25.869-5.192-35.296-14.62L697.919,1003.09
				c-4.881-4.882-4.881-12.796,0-17.678c4.882-4.881,12.796-4.881,17.678,0l137.202,137.201c4.707,4.706,10.963,7.298,17.619,7.298
				s12.913-2.592,17.619-7.298s7.298-10.963,7.298-17.618s-2.592-12.913-7.298-17.619L750.834,950.174
				c-4.881-4.882-4.881-12.796,0-17.678c4.882-4.881,12.796-4.881,17.678,0l137.202,137.202c9.428,9.428,14.62,21.964,14.62,35.297
				s-5.192,25.868-14.62,35.296S883.75,1154.911,870.417,1154.911z"/>
		</g>
	</g>
	<g>
		<path fill="#E8A15B" d="M306,178.5H86c-6.904,0-12.5-5.597-12.5-12.5s5.596-12.5,12.5-12.5h220c6.904,0,12.5,5.597,12.5,12.5
			S312.904,178.5,306,178.5z"/>
	</g>
	<g>
		<path fill="#2C3C68" d="M1172.5,541.5h-128c-6.903,0-12.5-5.597-12.5-12.5V122c0-6.903,5.597-12.5,12.5-12.5h128
			c6.903,0,12.5,5.597,12.5,12.5v407C1185,535.903,1179.403,541.5,1172.5,541.5z M1057,516.5h103v-382h-103V516.5z"/>
	</g>
	<g>
		<path fill="#637EA8" d="M981.5,541.5h-128c-6.904,0-12.5-5.597-12.5-12.5V204c0-6.903,5.596-12.5,12.5-12.5h128
			c6.903,0,12.5,5.597,12.5,12.5v325C994,535.903,988.403,541.5,981.5,541.5z M866,516.5h103v-300H866V516.5z"/>
	</g>
	<g>
		<path fill="#E8A15B" d="M791.5,541.5h-129c-6.903,0-12.5-5.597-12.5-12.5V279c0-6.903,5.597-12.5,12.5-12.5h129
			c6.903,0,12.5,5.597,12.5,12.5v250C804,535.903,798.403,541.5,791.5,541.5z M675,516.5h104v-225H675V516.5z"/>
	</g>
	<g>
		<path fill="#E8A15B" d="M661.975,1015.286c-6.753,0-13.538-0.577-20.294-1.74c-24.154-4.159-46.11-15.546-63.496-32.932
			c-46.137-46.138-46.137-121.208,0-167.346c46.138-46.138,121.208-46.137,167.345,0c17.279,17.279,28.641,39.092,32.858,63.08
			c4.12,23.433,1.185,47.258-8.488,68.901c-2.817,6.304-10.211,9.13-16.512,6.313c-6.303-2.816-9.129-10.209-6.312-16.512
			c15.681-35.089,7.955-76.925-19.224-104.104c-36.389-36.39-95.6-36.391-131.989,0c-36.39,36.39-36.39,95.601,0,131.99
			c27.393,27.393,69.477,35.008,104.719,18.946c6.285-2.862,13.696-0.091,16.558,6.191c2.863,6.282,0.091,13.695-6.191,16.559
			C695.452,1011.694,678.813,1015.286,661.975,1015.286z"/>
	</g>
	<g>
		<path fill="none" stroke="#000000" stroke-width="25" stroke-linecap="round" stroke-linejoin="round" stroke-miterlimit="10" d="
			M757.405,939.068"/>
	</g>
	<g>
		<path fill="#E8A15B" d="M706.758,1006.751c-3.2,0-6.4-1.221-8.841-3.663l-0.993-0.993c-2.896-2.898-4.189-7.031-3.459-11.063
			c0.73-4.031,3.389-7.45,7.118-9.148c10.145-4.622,19.319-10.996,27.269-18.946c8.111-8.111,14.58-17.493,19.224-27.887
			c2.816-6.302,10.21-9.128,16.512-6.312c6.303,2.816,9.129,10.21,6.312,16.513c-5.894,13.188-14.094,25.087-24.371,35.363
			c-8.546,8.547-18.218,15.66-28.818,21.202c-0.338,0.443-0.71,0.87-1.116,1.275
			C713.154,1005.531,709.956,1006.751,706.758,1006.751z"/>
	</g>
	<g>
		<path fill="#637EA8" d="M340,912.5h-29c-6.904,0-12.5-5.597-12.5-12.5s5.596-12.5,12.5-12.5h29c6.904,0,12.5,5.597,12.5,12.5
			S346.904,912.5,340,912.5z"/>
	</g>
	<g>
		<path fill="#637EA8" d="M424,912.5h-30c-6.904,0-12.5-5.597-12.5-12.5s5.596-12.5,12.5-12.5h30c6.904,0,12.5,5.597,12.5,12.5
			S430.904,912.5,424,912.5z"/>
	</g>
	<g>
		<path fill="#637EA8" d="M507,912.5h-29c-6.904,0-12.5-5.597-12.5-12.5s5.596-12.5,12.5-12.5h29c6.904,0,12.5,5.597,12.5,12.5
			S513.904,912.5,507,912.5z"/>
	</g>
	<g>
		<path fill="#637EA8" d="M677,912.5h-30c-6.904,0-12.5-5.597-12.5-12.5s5.596-12.5,12.5-12.5h30c6.904,0,12.5,5.597,12.5,12.5
			S683.904,912.5,677,912.5z"/>
	</g>
	<g>
		<path fill="#E8A15B" d="M162.435,642.975c-27.135,0-49.211-22.076-49.211-49.211s22.076-49.211,49.211-49.211
			c27.135,0,49.211,22.076,49.211,49.211S189.569,642.975,162.435,642.975z M162.435,569.553c-13.35,0-24.211,10.861-24.211,24.211
			s10.861,24.211,24.211,24.211s24.211-10.861,24.211-24.211S175.785,569.553,162.435,569.553z"/>
	</g>
	<g>
		<path fill="#E8A15B" d="M307.239,787.78c-27.135,0-49.211-22.076-49.211-49.211c0-27.136,22.076-49.212,49.211-49.212
			c27.135,0,49.211,22.076,49.211,49.212C356.451,765.704,334.375,787.78,307.239,787.78z M307.239,714.357
			c-13.35,0-24.211,10.861-24.211,24.212c0,13.35,10.861,24.211,24.211,24.211s24.211-10.861,24.211-24.211
			C331.451,725.219,320.589,714.357,307.239,714.357z"/>
	</g>
	<g>
		<path fill="#E8A15B" d="M158.355,761.267c-3.199,0-6.398-1.221-8.839-3.661c-4.881-4.882-4.881-12.796,0-17.678l158.062-158.062
			c4.882-4.881,12.796-4.881,17.678,0c4.881,4.882,4.881,12.796,0,17.678L167.194,757.605
			C164.753,760.046,161.555,761.267,158.355,761.267z"/>
	</g>
</g>
</svg>