<svg version="1.1" xmlns="http://www.w3.org/2000/svg" xmlns:xlink="http://www.w3.org/1999/xlink" x="0px" y="0px"
	 width="1205px" height="1167.002px" viewBox="0 0 1205 1167.002" enable-background="new 0 0 1205 1167.002" xml:space="preserve">
<g id="_x31__3_">
	<g>
		<path fill="none" stroke="#000000" stroke-width="25" stroke-linecap="round" stroke-linejoin="round" stroke-miterlimit="10" d="
			M555.107,824.753"/>
	</g>
	<g>
		<path fill="#E8A15B" d="M806.885,837H652c-6.904,0-12.5-5.596-12.5-12.5S645.096,812,652,812h154.885
			c1.498,0,3.115-1.006,3.115-2.63V304.788c0-1.485-1.456-2.788-3.115-2.788H390.503c-1.729,0-2.503,1.4-2.503,2.788V809.37
			c0,1.271,0.658,2.63,2.503,2.63H548c6.904,0,12.5,5.596,12.5,12.5S554.904,837,548,837H390.503
			C375.081,837,363,824.863,363,809.37V304.788C363,289.206,375.081,277,390.503,277h416.382C822.388,277,835,289.466,835,304.788
			V809.37C835,824.605,822.388,837,806.885,837z"/>
	</g>
	<g>
		<path fill="#E8A15B" d="M600.491,945.32c-4.687,0-9.179-2.647-11.312-7.167l-51.017-108.064
			c-2.947-6.243-0.275-13.693,5.967-16.64c6.243-2.948,13.693-0.276,16.64,5.967l51.017,108.064
			c2.947,6.243,0.275,13.693-5.967,16.64C604.096,944.935,602.279,945.32,600.491,945.32z"/>
	</g>
	<g>
		<path fill="#E8A15B" d="M600.737,945.32c-1.788,0-3.604-0.385-5.328-1.199c-6.243-2.947-8.915-10.397-5.967-16.64l51.016-108.064
			c2.947-6.243,10.399-8.914,16.64-5.967c6.243,2.947,8.915,10.397,5.967,16.64l-51.016,108.064
			C609.916,942.672,605.423,945.32,600.737,945.32z"/>
	</g>
	<g>
		<path fill="#637EA8" d="M925.339,547.849"/>
	</g>
	<g>
		<path fill="#637EA8" d="M1177.116,560H1022c-6.903,0-12.5-5.596-12.5-12.5s5.597-12.5,12.5-12.5h155.116
			c1.389,0,2.884-0.793,2.884-2.535V27.884c0-1.59-1.294-2.884-2.884-2.884H760.734c-1.559,0-2.734,1.24-2.734,2.884V232
			c0,6.904-5.596,12.5-12.5,12.5S733,238.904,733,232V27.884C733,12.509,745.441,0,760.734,0h416.382
			C1192.491,0,1205,12.509,1205,27.884v504.581C1205,547.648,1192.491,560,1177.116,560z"/>
	</g>
	<g>
		<path fill="#637EA8" d="M918,560h-45c-6.903,0-12.5-5.596-12.5-12.5S866.097,535,873,535h45c6.903,0,12.5,5.596,12.5,12.5
			S924.903,560,918,560z"/>
	</g>
	<g>
		<path fill="#637EA8" d="M970.724,668.416c-4.687,0-9.179-2.647-11.313-7.167l-51.017-108.064
			c-2.947-6.243-0.275-13.693,5.968-16.64c6.243-2.949,13.692-0.275,16.64,5.967l51.017,108.064
			c2.947,6.243,0.275,13.693-5.968,16.64C974.327,668.031,972.511,668.416,970.724,668.416z"/>
	</g>
	<g>
		<path fill="#637EA8" d="M970.968,668.416c-1.788,0-3.604-0.385-5.327-1.199c-6.243-2.947-8.915-10.397-5.968-16.64l51.017-108.064
			c2.947-6.242,10.398-8.915,16.64-5.967c6.243,2.947,8.915,10.397,5.968,16.64L982.28,661.25
			C980.147,665.768,975.654,668.416,970.968,668.416z"/>
	</g>
	<g>
		<g>
			<path fill="#2C3C68" d="M860.208,380.958c-4.867,0-9.494-2.86-11.514-7.623c-2.695-6.356,0.271-13.693,6.627-16.389
				c19.625-8.323,41.365-14.771,42.281-15.041c6.621-1.956,13.571,1.828,15.526,8.447c1.955,6.621-1.826,13.573-8.446,15.529
				c-0.211,0.063-21.32,6.328-39.6,14.081C863.49,380.638,861.835,380.958,860.208,380.958z"/>
		</g>
		<g>
			<path fill="#2C3C68" d="M1111.5,479.5c-6.903,0-12.5-5.596-12.5-12.5v-55.69c0-8.404-2.48-17.594-4.534-19.601
				c-7.914-7.73-40.576-19.859-61.241-26.002c-6.616-1.967-10.387-8.926-8.421-15.542c1.966-6.617,8.925-10.391,15.54-8.422
				c9.297,2.761,56.441,17.285,71.592,32.084C1123.661,385.283,1124,408.68,1124,411.31V467
				C1124,473.904,1118.403,479.5,1111.5,479.5z"/>
		</g>
		<g>
			<path fill="#637EA8" d="M966.5,479.5c-6.903,0-12.5-5.597-12.5-12.5v-89c0-6.903,5.597-12.5,12.5-12.5S979,371.097,979,378v89
				C979,473.903,973.403,479.5,966.5,479.5z"/>
		</g>
		<g>
			<path fill="#637EA8" d="M1057.5,479.5c-6.903,0-12.5-5.596-12.5-12.5v-23c0-6.904,5.597-12.5,12.5-12.5s12.5,5.596,12.5,12.5v23
				C1070,473.904,1064.403,479.5,1057.5,479.5z"/>
		</g>
		<g>
			<path fill="#E8A15B" d="M1015.5,340.5c-6.903,0-12.5-5.596-12.5-12.5v-24c0-6.904,5.597-12.5,12.5-12.5s12.5,5.596,12.5,12.5v24
				C1028,334.904,1022.403,340.5,1015.5,340.5z"/>
		</g>
		<g>
			<path fill="#E8A15B" d="M916.5,340.5c-6.903,0-12.5-5.596-12.5-12.5v-24c0-6.904,5.597-12.5,12.5-12.5S929,297.096,929,304v24
				C929,334.904,923.403,340.5,916.5,340.5z"/>
		</g>
		<g>
			<path fill="#637EA8" d="M932.988,412.765c-0.423,0-0.847-0.021-1.271-0.065c-3.669-0.375-6.984-2.351-9.061-5.398l-35.069-51.489
				c-3.546-5.206-2.664-12.237,2.058-16.407l19.858-17.535c4.323-3.817,10.694-4.182,15.424-0.882l50.281,35.07
				c3.063,2.136,5.011,5.53,5.31,9.252c0.299,3.722-1.082,7.383-3.765,9.98l-35.07,33.955
				C939.339,411.514,936.216,412.765,932.988,412.765z M914.454,350.85l20.506,30.107l13.503-13.073l-29.778-20.77L914.454,350.85z"
				/>
		</g>
		<g>
			<path fill="#637EA8" d="M1002.07,412.765c-3.229,0-6.351-1.251-8.694-3.52l-35.07-33.955c-2.683-2.598-4.063-6.258-3.765-9.98
				c0.299-3.723,2.246-7.116,5.31-9.252l50.281-35.07c4.728-3.298,11.101-2.935,15.424,0.882l19.858,17.535
				c4.722,4.169,5.604,11.201,2.058,16.407l-35.069,51.489c-2.076,3.048-5.392,5.024-9.061,5.398
				C1002.917,412.744,1002.493,412.765,1002.07,412.765z M986.596,367.884l13.503,13.073l20.506-30.107l-4.23-3.735L986.596,367.884
				z"/>
		</g>
		<g>
			<path fill="#637EA8" d="M909.312,206.842c-6.345,0-11.778-4.811-12.423-11.257c-0.028-0.282-0.692-6.989-0.749-14.03
				c-0.062-7.664-0.177-21.929,11.027-26.003c6.895-2.507,41.246-10.621,67.275-6.969c26.622,3.736,60.016,25.983,61.425,26.929
				c5.732,3.847,7.261,11.612,3.414,17.345c-3.846,5.732-11.61,7.263-17.346,3.414c-8.287-5.549-33.611-20.494-50.968-22.93
				c-16.644-2.336-39.089,1.662-49.778,4.21c-0.16,4.076,0.038,10.182,0.574,15.547c0.688,6.869-4.324,12.995-11.193,13.682
				C910.147,206.822,909.728,206.842,909.312,206.842z"/>
		</g>
		<g>
			
				<path fill="none" stroke="#000000" stroke-width="25" stroke-linecap="round" stroke-linejoin="round" stroke-miterlimit="10" d="
				M1100.026,344.22"/>
		</g>
	</g>
	<g>
		<g>
			<path fill="#2C3C68" d="M67.5,481.5c-6.904,0-12.5-5.596-12.5-12.5v-56.775c0-2.659,0.37-26.316,13.185-38.08
				c15.767-14.474,75.409-37.488,87.205-41.955c6.458-2.445,13.671,0.807,16.116,7.263c2.445,6.456-0.807,13.671-7.263,16.117
				c-25.573,9.686-69.676,28.294-79.152,36.992C82.569,394.877,80,404.801,80,412.225V469C80,475.904,74.404,481.5,67.5,481.5z"/>
		</g>
		<g>
			<path fill="#E8A15B" d="M162.5,342.5c-6.904,0-12.5-5.596-12.5-12.5v-24c0-6.904,5.596-12.5,12.5-12.5S175,299.096,175,306v24
				C175,336.904,169.404,342.5,162.5,342.5z"/>
		</g>
		<g>
			<path fill="#E8A15B" d="M263.5,351.5c-6.904,0-12.5-5.596-12.5-12.5v-23c0-6.904,5.596-12.5,12.5-12.5S276,309.096,276,316v23
				C276,345.904,270.404,351.5,263.5,351.5z"/>
		</g>
		<g>
			<path fill="#637EA8" d="M292.695,225.065c-1.678,0-3.382-0.339-5.017-1.057c-6.321-2.774-9.197-10.148-6.422-16.47
				c0.16-0.371,17.13-40.466-0.045-74.727c-3.094-6.172-0.599-13.683,5.572-16.776c6.174-3.096,13.683-0.599,16.776,5.572
				c22.516,44.915,1.494,93.915,0.588,95.979C302.091,222.273,297.505,225.065,292.695,225.065z"/>
		</g>
		<g>
			<path fill="#E8A15B" d="M214.711,331.344c-26.785,0-48.803-8.517-65.443-25.315c-31.487-31.785-31.383-81.692-31.363-83.801
				c0.065-6.904,5.702-12.495,12.617-12.382c6.903,0.065,12.447,5.714,12.382,12.617c-0.002,0.389,0.07,41.796,24.217,66.065
				c11.762,11.822,27.774,17.816,47.59,17.816c18.546,0,32.785-5.573,43.531-17.037c24.876-26.539,22.019-75.426,21.987-75.917
				c-0.445-6.881,4.765-12.833,11.646-13.29c6.886-0.461,12.831,4.734,13.298,11.615c0.166,2.435,3.683,60.041-28.603,94.595
				C261.05,322.921,240.237,331.344,214.711,331.344z"/>
		</g>
		<g>
			<path fill="#637EA8" d="M102.691,265.323c-2.584,0-5.19-0.798-7.426-2.453c-5.549-4.107-6.718-11.935-2.612-17.484l47.941-64.78
				c0.852-1.15,1.894-2.146,3.083-2.943c1.407-0.944,34.751-23.158,61.335-26.889c25.994-3.649,60.293,4.455,67.179,6.959
				c6.488,2.359,9.834,9.531,7.476,16.02c-2.358,6.486-9.527,9.835-16.015,7.477c-4.816-1.703-34.479-8.605-55.165-5.698
				c-16.295,2.287-39.472,15.52-49.121,21.736l-46.617,62.991C110.297,263.571,106.518,265.323,102.691,265.323z"/>
		</g>
		<g>
			<path fill="#2C3C68" d="M214.808,384.951c-46.109,0-64.964-37.456-65.744-39.05c-3.034-6.201-0.466-13.688,5.735-16.721
				c6.177-3.022,13.631-0.486,16.687,5.664c0.611,1.195,13.227,25.107,43.323,25.107c26.474,0,41.12-25.427,41.264-25.684
				c3.391-6.014,11.015-8.139,17.028-4.748c6.013,3.391,8.139,11.015,4.748,17.028C276.964,348.116,255.721,384.951,214.808,384.951
				z"/>
		</g>
		<g>
			<path fill="#2C3C68" d="M311.496,376.441c-1.693,0-3.412-0.345-5.06-1.076l-45.48-20.164c-6.311-2.798-9.159-10.183-6.361-16.494
				c2.798-6.311,10.184-9.16,16.494-6.361l45.48,20.164c6.311,2.798,9.159,10.183,6.361,16.494
				C320.862,373.668,316.289,376.441,311.496,376.441z"/>
		</g>
		<g>
			<path fill="#637EA8" d="M106.931,378.508c-2.911,0-5.834-1.011-8.203-3.072l-29.404-25.6c-4.094-3.565-5.419-9.366-3.28-14.355
				c0.1-0.232,10.05-23.523,19.298-52.421c3-9.373,4.896-30.374,6.905-52.609c5.192-57.484,10.205-99.825,27.52-118.405
				C147.592,82.183,201.757,81,204.049,81c0.047,0,0.095,0,0.142,0c6.839,0,12.42,5.719,12.496,12.575
				c0.077,6.897-5.448,12.659-12.343,12.745l0,0c-0.456,0.006-45.801,0.941-66.289,22.928
				C125.242,143,120.37,196.974,117.145,232.672c-2.229,24.673-4.153,45.995-7.993,57.992c-6.299,19.686-12.791,36.59-16.647,46.2
				l22.639,19.713c5.207,4.533,5.753,12.43,1.22,17.637C113.892,377.053,110.421,378.508,106.931,378.508z"/>
		</g>
		<g>
			<path fill="#637EA8" d="M312.917,376.063c-3.49,0-6.961-1.453-9.433-4.292c-4.533-5.207-3.987-13.103,1.22-17.636l19.831-17.265
				c-3.856-9.61-10.348-26.506-16.647-46.193c-3.839-11.998-5.764-33.306-7.993-57.979c-3.225-35.698-8.098-89.645-20.911-103.396
				c-17.1-18.35-53.636-22.734-66.271-22.875c-6.903-0.077-12.437-5.735-12.36-12.638c0.077-6.903,5.702-12.41,12.638-12.36
				c2.292,0.025,56.457,0.968,84.283,30.83c17.314,18.581,22.327,60.707,27.52,118.19c2.008,22.235,3.906,43.236,6.905,52.609
				c9.27,28.967,19.198,52.188,19.297,52.42c2.142,4.99,0.816,10.792-3.279,14.357l-26.597,23.155
				C318.751,375.052,315.827,376.063,312.917,376.063z"/>
		</g>
	</g>
	<g>
		<path fill="none" stroke="#000000" stroke-width="25" stroke-linecap="round" stroke-linejoin="round" stroke-miterlimit="10" d="
			M279.228,547.849"/>
	</g>
	<g>
		<path fill="#2C3C68" d="M183,560H27.45C12.058,560,0,547.905,0,532.465V27.884C0,12.248,12.058,0,27.45,0h416.382
			C459.364,0,472,12.509,472,27.884V232c0,6.904-5.596,12.5-12.5,12.5S447,238.904,447,232V27.884c0-1.509-1.51-2.884-3.167-2.884
			H27.45C25.767,25,25,26.495,25,27.884v504.581c0,1.611,0.893,2.535,2.45,2.535H183c6.904,0,12.5,5.596,12.5,12.5
			S189.904,560,183,560z"/>
	</g>
	<g>
		<path fill="#2C3C68" d="M332,560h-46c-6.904,0-12.5-5.596-12.5-12.5S279.096,535,286,535h46c6.904,0,12.5,5.596,12.5,12.5
			S338.904,560,332,560z"/>
	</g>
	<g>
		<path fill="#637EA8" d="M767.5,1167.002c-6.903,0-12.5-5.551-12.5-12.398V996.898c0-6.847,5.597-12.398,12.5-12.398
			s12.5,5.551,12.5,12.398v157.706C780,1161.451,774.403,1167.002,767.5,1167.002z"/>
	</g>
	<g>
		<path fill="#2C3C68" d="M233.844,668.416c-1.788,0-3.604-0.385-5.328-1.199c-6.243-2.947-8.915-10.397-5.967-16.64l51.017-108.064
			c2.948-6.243,10.399-8.913,16.64-5.967c6.243,2.947,8.915,10.397,5.967,16.64L245.156,661.25
			C243.022,665.768,238.53,668.416,233.844,668.416z"/>
	</g>
	<g>
		<path fill="#2C3C68" d="M233.599,668.416c-4.687,0-9.179-2.647-11.312-7.167L171.27,553.185
			c-2.947-6.243-0.275-13.693,5.967-16.64c6.242-2.948,13.693-0.275,16.64,5.967l51.017,108.064
			c2.947,6.243,0.275,13.693-5.967,16.64C237.203,668.031,235.386,668.416,233.599,668.416z"/>
	</g>
	<g>
		<path fill="none" stroke="#000000" stroke-width="25" stroke-linecap="round" stroke-linejoin="round" stroke-miterlimit="10" d="
			M104.541,344.22"/>
	</g>
	<g>
		<path fill="#2C3C68" d="M1176.94,1167H27.626C12.135,1167,0,1154.98,0,1139.636v-128.773C0,995.799,12.135,984,27.626,984H1176.94
			c15.734,0,28.06,11.799,28.06,26.863v128.773C1205,1154.725,1192.412,1167,1176.94,1167z M27.626,1009
			c-0.79,0-2.626,0.182-2.626,1.863v128.773c0,1.414,1.055,2.364,2.626,2.364H1176.94c1.83,0,3.06-1.222,3.06-2.364v-128.773
			c0-1.166-1.556-1.863-3.06-1.863H27.626z"/>
	</g>
	<g>
		<path fill="#E8A15B" d="M884,1091h-33c-6.903,0-12.5-5.596-12.5-12.5s5.597-12.5,12.5-12.5h33c6.903,0,12.5,5.596,12.5,12.5
			S890.903,1091,884,1091z"/>
	</g>
	<g>
		<path fill="#E8A15B" d="M992,1091h-33c-6.903,0-12.5-5.596-12.5-12.5s5.597-12.5,12.5-12.5h33c6.903,0,12.5,5.596,12.5,12.5
			S998.903,1091,992,1091z"/>
	</g>
	<g>
		<path fill="#E8A15B" d="M1100,1091h-33c-6.903,0-12.5-5.596-12.5-12.5s5.597-12.5,12.5-12.5h33c6.903,0,12.5,5.596,12.5,12.5
			S1106.903,1091,1100,1091z"/>
	</g>
	<g>
		<g>
			<path fill="#2C3C68" d="M456.5,756.5c-6.904,0-12.5-5.596-12.5-12.5v-55.786c0-4.297,0.579-26.3,12.002-37.459
				c15.151-14.801,62.244-29.305,71.531-32.062c6.617-1.966,13.574,1.807,15.54,8.424c1.965,6.617-1.806,13.575-8.423,15.542
				c-20.639,6.134-53.264,18.249-61.178,25.979c-2.025,1.979-4.472,11.152-4.472,19.576V744C469,750.904,463.403,756.5,456.5,756.5z
				"/>
		</g>
		<g>
			<path fill="#2C3C68" d="M741.5,756.5c-6.903,0-12.5-5.596-12.5-12.5v-55.786c0-8.127-2.525-17.557-4.592-19.576
				c-7.912-7.729-40.604-19.843-61.291-25.977c-6.618-1.962-10.394-8.918-8.432-15.537c1.961-6.619,8.915-10.395,15.534-8.434
				c9.308,2.757,56.504,17.261,71.658,32.064C753.66,662.265,754,685.592,754,688.214V744C754,750.904,748.403,756.5,741.5,756.5z"
				/>
		</g>
		<g>
			<path fill="#637EA8" d="M506.5,756.5c-6.904,0-12.5-5.596-12.5-12.5v-23c0-6.904,5.596-12.5,12.5-12.5S519,714.096,519,721v23
				C519,750.904,513.404,756.5,506.5,756.5z"/>
		</g>
		<g>
			<path fill="#637EA8" d="M596.5,756.5c-6.903,0-12.5-5.597-12.5-12.5v-89c0-6.903,5.597-12.5,12.5-12.5S609,648.097,609,655v89
				C609,750.903,603.403,756.5,596.5,756.5z"/>
		</g>
		<g>
			<path fill="#637EA8" d="M686.5,756.5c-6.904,0-12.5-5.596-12.5-12.5v-23c0-6.904,5.596-12.5,12.5-12.5S699,714.096,699,721v23
				C699,750.904,693.404,756.5,686.5,756.5z"/>
		</g>
		<g>
			<path fill="#E8A15B" d="M644.5,617.5c-6.904,0-12.5-5.596-12.5-12.5v-24c0-6.904,5.596-12.5,12.5-12.5S657,574.096,657,581v24
				C657,611.904,651.404,617.5,644.5,617.5z"/>
		</g>
		<g>
			<path fill="#E8A15B" d="M546.5,617.5c-6.904,0-12.5-5.596-12.5-12.5v-24c0-6.904,5.596-12.5,12.5-12.5S559,574.096,559,581v24
				C559,611.904,553.404,617.5,546.5,617.5z"/>
		</g>
		<g>
			<path fill="#637EA8" d="M562.757,689.669c-0.422,0-0.846-0.021-1.271-0.065c-3.668-0.375-6.985-2.35-9.061-5.398l-35.07-51.489
				c-3.546-5.206-2.665-12.237,2.058-16.407l19.859-17.535c4.322-3.817,10.694-4.182,15.424-0.882l50.281,35.07
				c3.063,2.136,5.01,5.53,5.309,9.252c0.299,3.722-1.082,7.383-3.765,9.98l-35.07,33.955
				C569.108,688.418,565.985,689.669,562.757,689.669z M544.223,627.754l20.506,30.107l13.502-13.073l-29.777-20.77L544.223,627.754
				z"/>
		</g>
		<g>
			<path fill="#637EA8" d="M631.839,689.669c-3.229,0-6.352-1.251-8.694-3.52l-35.07-33.955c-2.683-2.598-4.064-6.258-3.765-9.98
				c0.299-3.723,2.246-7.116,5.309-9.252l50.281-35.07c4.73-3.3,11.103-2.934,15.424,0.882l19.859,17.535
				c4.722,4.169,5.604,11.201,2.058,16.407l-35.07,51.489c-2.076,3.048-5.392,5.024-9.061,5.398
				C632.686,689.648,632.261,689.669,631.839,689.669z M616.365,644.788l13.502,13.073l20.506-30.107l-4.23-3.735L616.365,644.788z"
				/>
		</g>
		<g>
			<path fill="#637EA8" d="M539.08,483.747c-6.344,0-11.778-4.811-12.423-11.257c-0.028-0.282-0.691-6.989-0.748-14.03
				c-0.062-7.664-0.177-21.929,11.027-26.003c6.895-2.507,41.244-10.623,67.275-6.969c26.622,3.737,60.016,25.983,61.424,26.929
				c5.732,3.847,7.261,11.612,3.414,17.345c-3.847,5.732-11.613,7.261-17.345,3.414c-8.288-5.549-33.613-20.494-50.968-22.93
				c-16.646-2.339-39.089,1.662-49.779,4.21c-0.16,4.076,0.038,10.182,0.575,15.547c0.687,6.869-4.325,12.995-11.194,13.682
				C539.916,483.727,539.496,483.747,539.08,483.747z"/>
		</g>
		<g>
			
				<path fill="none" stroke="#000000" stroke-width="25" stroke-linecap="round" stroke-linejoin="round" stroke-miterlimit="10" d="
				M729.794,621.125"/>
		</g>
	</g>
</g>
<g>
	<path fill="none" d="M673.882,477.415c0.882-2.062,3.406-10.088,1.693-31.729c-2.013-25.437-0.217-48.435,1.526-62.686h-89.664
		c-13.083,0.846-50.929,6.976-59.563,24.197c-17.216,34.342-0.195,74.784-0.021,75.189c0.757,1.761,1.101,3.7,1.003,5.614h140.128
		c0.022-0.541,0.029-0.854,0.03-0.88C669.075,483.234,670.927,479.693,673.882,477.415z"/>
	<path fill="none" d="M550.883,564.235c10.767,11.487,25.034,17.071,43.615,17.071c28.66,0,49.633-14.122,62.401-41.972H536.222
		C539.5,548.333,544.188,557.092,550.883,564.235z"/>
	<path fill="#2C3C68" d="M527.854,482.386c-0.174-0.405-17.195-40.847,0.021-75.189c8.633-17.222,46.48-23.351,59.563-24.197h89.664
		c-1.744,14.251-3.54,37.25-1.526,62.686c1.712,21.641-0.812,29.667-1.693,31.729c-2.955,2.278-4.807,5.82-4.867,9.706
		c0,0.026-0.007,0.339-0.03,0.88h27.546c0.42-0.914,0.823-1.891,1.2-2.953c3.322-9.361,4.227-22.882,2.766-41.334
		c-2.984-37.703,3.33-70.469,3.393-70.787c0.726-3.669-0.229-7.471-2.604-10.361c-2.374-2.89-5.918-4.565-9.659-4.565H587.052
		c-0.239,0-0.479,0.007-0.718,0.021c-6.51,0.375-64.088,4.621-80.808,37.973c-18.97,37.841-7.081,78.752-2.296,92.007h25.626
		C528.955,486.086,528.611,484.147,527.854,482.386z"/>
	<path fill="#E8A15B" d="M668.985,488c-0.188,4.541-1.534,26.194-10.512,47.756c-0.508,1.22-1.036,2.406-1.573,3.577
		c-12.768,27.85-33.741,41.972-62.401,41.972c-18.582,0-32.848-5.584-43.615-17.071c-6.695-7.143-11.383-15.902-14.661-24.902
		c-8.924-24.499-7.389-50.786-7.367-51.131c0.005-0.067-0.002-0.135,0.001-0.203H503.23c0.194,0.538,0.381,1.048,0.549,1.493
		c-0.22,7.557-0.09,28.052,6.201,49.841c4.2,14.546,11.142,29.668,22.574,41.904c15.542,16.634,36.382,25.068,61.943,25.068
		c40.352,0,70.454-21.073,87.054-60.94c0.839-2.016,1.622-4.029,2.352-6.032c7.08-19.421,9.205-37.795,9.84-46.537
		c0.977-1.325,1.921-2.913,2.787-4.796H668.985z"/>
</g>
<g>
	<path fill="none" d="M921.115,287.331c10.768,11.487,25.034,17.071,43.615,17.071c26.804,0,46.884-12.353,59.818-36.735H908.542
		C911.642,274.79,915.728,281.583,921.115,287.331z"/>
	<path fill="none" d="M1044.101,200.52c0.882-2.053,3.423-10.085,1.706-31.787c-2.014-25.448-0.216-48.47,1.528-62.733h-89.66
		c-13.089,0.858-50.934,7.021-59.567,24.245c-17.218,34.346-0.194,74.836-0.021,75.241c0.782,1.821,1.134,3.834,1,5.812
		c-0.003,0.044-0.031,0.521-0.059,1.369h140.109c0.091-1.536,0.109-2.406,0.11-2.451
		C1039.308,206.336,1041.153,202.799,1044.101,200.52z"/>
	<path fill="#637EA8" d="M899.087,211.298c0.134-1.978-0.218-3.991-1-5.812c-0.174-0.405-17.197-40.896,0.021-75.241
		c8.634-17.224,46.479-23.386,59.567-24.245h89.66c-1.744,14.263-3.542,37.286-1.528,62.733c1.717,21.701-0.824,29.734-1.706,31.787
		c-2.947,2.279-4.793,5.816-4.854,9.695c-0.001,0.045-0.019,0.916-0.11,2.451h26.842c0.709-1.336,1.38-2.844,1.987-4.556
		c3.319-9.375,4.223-22.9,2.763-41.35c-2.984-37.705,3.331-70.52,3.394-70.837c0.726-3.669-0.23-7.47-2.604-10.36
		c-2.375-2.889-5.918-4.564-9.658-4.564H957.283c-0.243,0-0.486,0.007-0.729,0.021c-6.51,0.38-64.081,4.675-80.797,38.02
		c-19.742,39.381-6.056,82.142-1.746,93.545c-0.001,0.025-0.001,0.056-0.002,0.081h25.019
		C899.056,211.819,899.084,211.342,899.087,211.298z"/>
	<path fill="#E8A15B" d="M1039.137,212.667c-0.403,6.766-2.244,26.517-10.432,46.184c-1.29,3.098-2.679,6.031-4.156,8.816
		c-12.934,24.381-33.014,36.735-59.818,36.735c-18.581,0-32.848-5.584-43.615-17.071c-5.387-5.747-9.474-12.541-12.574-19.664
		c-9.889-22.723-9.715-48.802-9.513-55H874.01c-0.235,8.224-0.041,31.398,7.833,55c4.299,12.884,10.878,25.894,20.944,36.667
		c15.542,16.634,36.383,25.068,61.943,25.068c40.352,0,70.454-21.073,87.054-60.94c0.11-0.265,0.215-0.529,0.323-0.794
		c8.715-21.301,11.179-42.27,11.87-51.789c0.688-0.936,1.361-2.004,2.002-3.211H1039.137z"/>
</g>
</svg>