<svg width="103" height="103" viewBox="0 0 103 103" fill="none" xmlns="http://www.w3.org/2000/svg">
<path d="M88.7854 13.2309C88.9968 13.0175 89.1136 12.7325 89.1136 12.4315C89.1136 12.1345 88.9938 11.8425 88.7844 11.6321C88.5729 11.4196 88.293 11.3018 87.994 11.3018H85.1174C84.8184 11.3018 84.5375 11.4186 84.3271 11.6321C84.1166 11.8425 83.9968 12.1345 83.9968 12.4315C83.9968 12.7325 84.1136 13.0175 84.3261 13.2309C84.5375 13.4434 84.8174 13.5602 85.1174 13.5602H87.994C88.292 13.5602 88.5739 13.4434 88.7854 13.2309Z" fill="#E8A15B"/>
<path d="M101.245 49.734C100.95 49.734 100.663 49.8538 100.456 50.0632C100.242 50.2767 100.125 50.5606 100.125 50.8627V55.2636C100.125 55.5656 100.241 55.8486 100.455 56.062C100.875 56.4859 101.619 56.4839 102.035 56.063C102.249 55.8496 102.366 55.5656 102.366 55.2636V50.8627C102.366 50.5616 102.249 50.2767 102.037 50.0632C101.825 49.8508 101.545 49.734 101.245 49.734Z" fill="#E8A15B"/>
<path d="M98.3001 0H4.06562C2.99535 0 1.94825 0.43697 1.19211 1.19714C0.423887 1.97039 0 2.99838 0 4.09181V98.9072C0 100.002 0.423887 101.029 1.19211 101.802C1.94925 102.564 2.99636 103 4.06562 103H98.3001C99.3693 103 100.416 102.562 101.174 101.802C101.942 101.028 102.366 100.001 102.366 98.9072V80.3158C102.366 80.0138 102.249 79.7299 102.036 79.5164C101.622 79.0996 100.874 79.0976 100.455 79.5164C100.242 79.7299 100.124 80.0138 100.124 80.3158V98.9082C100.124 99.3975 99.9352 99.8576 99.5918 100.205C99.2515 100.546 98.7803 100.742 98.3011 100.742H4.06664C3.58637 100.742 3.11618 100.546 2.77587 100.205C2.43153 99.8566 2.24324 99.3965 2.24324 98.9082V4.09181C2.24324 3.60248 2.43253 3.14236 2.77485 2.796C3.11617 2.45368 3.58637 2.25734 4.06664 2.25734H98.3011C98.7823 2.25734 99.2515 2.45368 99.5918 2.795C99.9362 3.14135 100.124 3.60148 100.124 4.09181V40.4922C100.124 40.7902 100.245 41.0812 100.455 41.2906C100.873 41.7135 101.619 41.7125 102.035 41.2906C102.246 41.0802 102.366 40.7882 102.366 40.4912V4.09181C102.366 3.01449 101.931 1.95932 101.174 1.19714C100.405 0.424888 99.3844 0 98.3001 0Z" fill="#3F496A"/>
<path d="M101.245 64.5034C100.951 64.5034 100.663 64.6242 100.455 64.8336C100.242 65.0471 100.125 65.331 100.125 65.633V69.9433C100.125 70.2454 100.242 70.5293 100.455 70.7428C100.874 71.1626 101.622 71.1616 102.037 70.7428C102.249 70.5293 102.366 70.2454 102.366 69.9433V65.633C102.366 65.331 102.249 65.0471 102.037 64.8336C101.828 64.6252 101.54 64.5034 101.245 64.5034Z" fill="#E8A15B"/>
<path d="M8.09888 91.9167C8.09888 92.2187 8.21568 92.5026 8.42813 92.7151C8.63654 92.9255 8.92449 93.0463 9.21849 93.0463H93.1459C93.4449 93.0463 93.7248 92.9285 93.9372 92.7151C94.1487 92.5026 94.2655 92.2197 94.2655 91.9167V23.3396C94.2655 23.0365 94.1487 22.7526 93.9372 22.5402C93.7248 22.3277 93.4449 22.2099 93.1459 22.2099H9.21849C8.92449 22.2099 8.63653 22.3297 8.42912 22.5402C8.21869 22.7506 8.09888 23.0426 8.09888 23.3396V91.9167ZM10.3401 24.8207C10.3401 24.6264 10.4972 24.4683 10.6925 24.4683H91.6749C91.8692 24.4683 92.0273 24.6264 92.0273 24.8207V90.4346C92.0273 90.6289 91.8702 90.787 91.6749 90.787H10.6925C10.4982 90.787 10.3401 90.6299 10.3401 90.4346V24.8207Z" fill="#637EA8"/>
<path d="M76.9377 13.2309C77.1491 13.0175 77.2659 12.7335 77.2659 12.4315C77.2659 12.1284 77.1491 11.8445 76.9377 11.6331C76.7253 11.4196 76.4454 11.3028 76.1463 11.3028H73.2698C72.9708 11.3028 72.6908 11.4196 72.4784 11.6331C72.269 11.8425 72.1492 12.1345 72.1492 12.4315C72.1492 12.7325 72.266 13.0175 72.4784 13.2309C72.6898 13.4434 72.9708 13.5602 73.2698 13.5602H76.1463C76.4454 13.5602 76.7263 13.4434 76.9377 13.2309Z" fill="#637EA8"/>
<path d="M65.0915 13.2309C65.303 13.0175 65.4197 12.7335 65.4197 12.4315C65.4197 12.1284 65.303 11.8445 65.0915 11.6331C64.8791 11.4196 64.5992 11.3028 64.3001 11.3028H61.4236C61.1246 11.3028 60.8447 11.4196 60.6322 11.6331C60.4228 11.8425 60.303 12.1345 60.303 12.4315C60.303 12.7325 60.4198 13.0175 60.6322 13.2309C60.8436 13.4434 61.1246 13.5602 61.4236 13.5602H64.3001C64.5982 13.5602 64.8801 13.4434 65.0915 13.2309Z" fill="#3F496A"/>
<path d="M57.1615 83.0101C57.3649 83.0101 57.5652 82.9527 57.7404 82.846C57.9156 82.7393 58.0576 82.5863 58.1532 82.404L60.7841 77.3235C60.8667 77.1644 61.057 77.0929 61.2231 77.1564L66.5302 79.1942C66.7305 79.2717 66.954 79.2878 67.1645 79.2425C67.3779 79.1952 67.5702 79.0895 67.7233 78.9334C67.8763 78.7784 67.981 78.582 68.0253 78.3666C68.0686 78.1521 68.0495 77.9296 67.97 77.7252L63.2368 65.6985L63.1049 65.3622L62.971 65.0229C62.383 65.0702 61.802 65.1769 61.2503 65.3934C61.1929 65.4156 61.1426 65.4538 61.1033 65.5021C61.0197 65.6079 60.9583 65.7267 60.8818 65.8374L61.0388 66.2361L61.1969 66.6369L64.6575 75.4296C64.7098 75.5595 64.6786 75.7065 64.5799 75.8062C64.4823 75.9058 64.3322 75.9371 64.2044 75.8877L60.7932 74.5778C60.5395 74.4802 60.2515 74.4792 59.9968 74.5768C59.74 74.6755 59.5286 74.8648 59.4007 75.1094L57.6518 78.4854C57.5884 78.6072 57.4787 78.6777 57.3206 78.6747C57.1826 78.6676 57.0618 78.58 57.0105 78.4511L54.0554 70.926L53.8601 70.4296L53.6396 69.8678C53.555 69.8104 53.4644 69.7631 53.3828 69.7007C53.0194 69.4359 52.6267 69.2265 52.2189 69.0493C52.1112 69.0029 51.9964 68.9717 51.8857 68.9314C51.7749 68.8912 51.6662 68.8479 51.5524 68.8136C51.4557 68.7845 51.3661 68.7381 51.2685 68.713C51.2403 68.7059 51.2111 68.7029 51.1829 68.7029C51.1537 68.7029 51.1245 68.7059 51.0963 68.714C50.9996 68.7381 50.911 68.7855 50.8164 68.8136C50.7036 68.8479 50.5949 68.8922 50.4841 68.9325C50.3734 68.9737 50.2596 69.0039 50.1509 69.0513C49.7391 69.2315 49.3414 69.4449 48.9658 69.7208C48.8842 69.7893 48.7967 69.8497 48.7111 69.9131L48.4865 70.486L48.2842 71.0015L45.3593 78.4572C45.3079 78.5861 45.1871 78.6727 45.0492 78.6807C44.9123 78.6747 44.7814 78.6143 44.7179 78.4914L42.9509 75.1074C42.8241 74.8628 42.6116 74.6735 42.3539 74.5758C42.0981 74.4781 41.8132 74.4792 41.5595 74.5768L38.1473 75.8877C38.0204 75.9381 37.8704 75.9079 37.7717 75.8062C37.6721 75.7065 37.6419 75.5595 37.6942 75.4296L41.1577 66.6298L41.3158 66.2291L41.4729 65.8294C41.3994 65.7247 41.343 65.6109 41.2624 65.5102C41.2242 65.4609 41.1728 65.4236 41.1155 65.4015C40.5617 65.185 39.9777 65.0783 39.3766 65.0309L39.2437 65.3692L39.1108 65.7075L34.3817 77.7252C34.3021 77.9286 34.283 78.1511 34.3263 78.3676C34.3706 78.582 34.4743 78.7774 34.6274 78.9324C34.7804 79.0885 34.9737 79.1952 35.1872 79.2425C35.3986 79.2878 35.6211 79.2717 35.8215 79.1942L41.1346 77.1543C41.1759 77.1382 41.2181 77.1322 41.2604 77.1322C41.3883 77.1322 41.5101 77.2017 41.5736 77.3215L44.2246 82.407C44.3192 82.5903 44.4612 82.7423 44.6374 82.849C44.8075 82.9527 45.0029 83.0081 45.2032 83.0111L45.2677 83.0061C45.4892 82.994 45.6946 82.9215 45.8698 82.7947C46.0439 82.6688 46.1789 82.4956 46.2584 82.2943L50.8053 70.7166L50.9946 70.2343L51.1839 69.752L51.3732 70.2343L51.5625 70.7166L56.1184 82.3013C56.197 82.5017 56.3319 82.6759 56.5071 82.8027C56.6812 82.9276 56.8866 83.0001 57.1021 83.0111" fill="#3F496A"/>
<path d="M70.4952 49.5598C70.0884 48.9316 69.5387 48.3899 68.9054 47.9942C68.2963 47.5472 67.7939 47.0186 67.3891 46.4084C67.3549 46.3571 67.3347 46.2977 67.3307 46.2363C67.2824 45.463 67.379 44.6988 67.6167 43.9628C67.8966 43.261 68.0204 42.516 67.9831 41.786C67.9469 41.0732 67.7556 40.3623 67.4304 39.726C66.9199 39.2105 66.3188 38.8178 65.6412 38.5581C64.9525 38.2963 64.2216 38.1886 63.4836 38.2389C63.4806 38.2389 63.4775 38.2389 63.4755 38.2389C62.6902 38.2389 61.9522 38.099 61.2494 37.8251C61.191 37.8029 61.1406 37.7647 61.1024 37.7164C60.6352 37.1294 60.2818 36.4719 60.0502 35.759C59.4904 34.4139 58.8471 32.8593 57.3912 32.3831C56.8112 32.2945 55.9947 32.3096 55.2979 32.4999C54.6052 32.6892 53.9488 33.0365 53.399 33.5027C52.7436 33.985 52.0337 34.3193 51.2675 34.5116C51.2122 34.5267 51.1528 34.5267 51.0954 34.5116C50.3312 34.3193 49.6214 33.985 48.986 33.5178C48.4081 33.0315 47.7678 32.6942 47.065 32.5009C46.3713 32.3106 45.6353 32.2734 44.9224 32.3962C43.5189 32.8583 42.8755 34.4109 42.3056 35.7812C42.0841 36.4739 41.7317 37.1364 41.2636 37.7254C41.2243 37.7748 41.1729 37.812 41.1156 37.8352C40.4108 38.11 39.6697 38.25 38.9146 38.25C38.7626 38.2409 38.6428 38.2359 38.5229 38.2359C37.9067 38.2359 37.3006 38.3476 36.7227 38.5691C36.0552 38.8249 35.438 39.2276 34.9335 39.7361C34.6093 40.3704 34.418 41.0812 34.3818 41.7961C34.3445 42.526 34.4684 43.2701 34.7392 43.9497C34.9859 44.7089 35.0826 45.4741 35.0332 46.2483C35.0292 46.3098 35.0101 46.3692 34.9748 46.4195C34.5721 47.0296 34.0697 47.5582 33.4807 47.9912C32.8182 48.407 32.2835 48.9346 31.8687 49.5719C31.47 50.1871 31.2042 50.8939 31.0955 51.6198C31.2032 52.3448 31.471 53.0516 31.8697 53.6688C32.2755 54.296 32.8252 54.8377 33.4585 55.2344C34.0687 55.6804 34.5711 56.209 34.9748 56.8202C35.0091 56.8715 35.0292 56.9309 35.0332 56.9913C35.0826 57.7656 34.9859 58.5298 34.7473 59.2668C34.4684 59.9676 34.3445 60.7126 34.3818 61.4426C34.418 62.1575 34.6093 62.8683 34.9335 63.5016C35.438 64.0111 36.0552 64.4138 36.7227 64.6685C37.3359 64.9031 37.9843 65.0038 38.6357 64.9927C38.7173 64.9917 38.7998 64.9947 38.8814 64.9897C38.8844 64.9897 38.8874 64.9897 38.8894 64.9897C38.9317 64.9897 38.97 64.9998 39.0123 65.0008C39.1371 65.0028 39.2559 65.0239 39.3787 65.034C39.9798 65.0813 40.5628 65.188 41.1176 65.4045C41.175 65.4267 41.2253 65.4649 41.2646 65.5133C41.3451 65.6139 41.4015 65.7277 41.475 65.8324C41.5576 65.9502 41.6381 66.069 41.7116 66.1909C41.7891 66.3197 41.8687 66.4466 41.9371 66.5815C42.0831 66.8685 42.216 67.1625 42.3157 67.4716C42.8745 68.8157 43.5179 70.3683 44.9738 70.8445C45.5537 70.9331 46.3713 70.917 47.067 70.7267C47.2945 70.6643 47.514 70.5797 47.7315 70.485C47.8926 70.4146 48.0487 70.337 48.2017 70.2505C48.3789 70.1508 48.5481 70.039 48.7112 69.9182C48.7968 69.8548 48.8843 69.7944 48.9659 69.7259C49.3415 69.451 49.7402 69.2366 50.151 69.0563C50.2587 69.009 50.3735 68.9778 50.4842 68.9375C50.594 68.8973 50.7037 68.853 50.8165 68.8187C50.9111 68.7895 50.9997 68.7432 51.0964 68.719C51.1246 68.711 51.1538 68.708 51.183 68.708C51.2112 68.708 51.2404 68.711 51.2686 68.718C51.3672 68.7422 51.4568 68.7895 51.5525 68.8187C51.6652 68.853 51.775 68.8963 51.8858 68.9365C51.9965 68.9768 52.1113 69.008 52.219 69.0543C52.6268 69.2315 53.0195 69.441 53.3829 69.7058C53.4655 69.7672 53.5551 69.8155 53.6397 69.8729C53.8058 69.9857 53.9709 70.0994 54.1451 70.1961C54.2961 70.2797 54.4542 70.3461 54.6113 70.4166C55.2355 70.6995 55.896 70.8958 56.5817 70.9724C56.8545 70.9703 57.1274 70.925 57.3912 70.8374C58.8481 70.3622 59.4924 68.8087 60.0613 67.4383C60.1539 67.1494 60.2838 66.8705 60.4218 66.5946C60.4892 66.4587 60.5667 66.3298 60.6453 66.1989C60.7188 66.0761 60.8003 65.9583 60.8819 65.8405C60.9584 65.7307 61.0188 65.6109 61.1034 65.5052C61.1417 65.4559 61.193 65.4186 61.2504 65.3965C61.8031 65.18 62.3831 65.0733 62.9711 65.026C63.0939 65.0159 63.2137 64.9947 63.3366 64.9917C63.3778 64.9907 63.4181 64.9806 63.4594 64.9806C63.5561 64.9867 63.6336 64.9877 63.7151 64.9897C63.7564 64.9907 63.8047 64.9947 63.845 64.9947C64.4612 64.9947 65.0673 64.883 65.6432 64.6625C66.3188 64.4027 66.9209 64.0111 67.4314 63.4945C67.7606 62.8502 67.9469 62.1575 67.9842 61.4345C68.0214 60.6915 67.9006 59.9666 67.6257 59.2799C67.3801 58.5207 67.2834 57.7555 67.3317 56.9833C67.3357 56.9219 67.3549 56.8625 67.3901 56.8111C67.7939 56.201 68.2963 55.6724 68.8843 55.2394C69.5397 54.8286 70.0895 54.287 70.4962 53.6587C70.8939 53.0445 71.1607 52.3367 71.2705 51.6108C71.1607 50.8828 70.8929 50.176 70.4952 49.5598ZM67.4042 53.5419C66.4215 54.2407 65.6694 55.1639 65.1992 56.2342C64.9697 57.3397 65.0381 58.56 65.4187 59.6977C65.4217 59.7088 65.4399 59.7833 65.4419 59.7934C65.749 61.1023 65.8607 61.8272 65.6241 62.1524C65.4086 62.4504 64.8066 62.5934 63.2429 62.7203C63.2329 62.7213 63.1423 62.7203 63.1342 62.7213C62.963 62.7213 62.7939 62.7424 62.6237 62.7555C62.4445 62.7696 62.2653 62.7867 62.0881 62.8159C61.7941 62.8643 61.5041 62.9327 61.2192 63.0213C61.1457 63.0344 61.0651 63.0344 60.9987 63.0626C60.9554 63.0797 60.9242 63.115 60.8829 63.1371C60.607 63.2388 60.3392 63.3586 60.0784 63.4966C59.9949 63.5409 59.9073 63.5751 59.8257 63.6234C59.7502 63.6929 59.6837 63.7755 59.6112 63.849C58.8964 64.5719 58.3235 65.4941 58.0073 66.5241C57.3932 68.0263 57.067 68.563 56.7055 68.6828C56.6421 68.7029 56.5726 68.706 56.5092 68.6888C55.7812 68.5046 55.1036 68.1864 54.4925 67.7444C54.1179 67.4675 53.7111 67.244 53.2923 67.0507C53.1171 66.9692 52.9419 66.8906 52.7607 66.8242C52.6469 66.7829 52.5311 66.7507 52.4154 66.7164C52.2784 66.6752 52.1445 66.6268 52.0066 66.5936C52.0046 66.5926 52.0036 66.5906 52.0005 66.5896C51.9582 66.5715 51.9119 66.5745 51.8686 66.5624C51.7659 66.5312 51.6632 66.4969 51.5545 66.4969C51.5354 66.4969 51.5183 66.507 51.4991 66.507C51.3823 66.4889 51.2675 66.4597 51.1497 66.4476C51.0692 66.4567 50.9886 66.4798 50.9081 66.4919C50.8014 66.4839 50.6997 66.498 50.594 66.5201C50.5225 66.5352 50.449 66.5372 50.3815 66.5664C50.3654 66.5735 50.3554 66.5876 50.3402 66.5956C50.2214 66.6248 50.1056 66.6681 49.9878 66.7044C49.86 66.7436 49.7321 66.7819 49.6053 66.8292C49.427 66.8957 49.2529 66.9762 49.0797 67.0578C48.6659 67.2521 48.2631 67.4766 47.8896 67.7535C47.8795 67.7605 47.8241 67.7948 47.8141 67.8008C46.8223 68.3958 46.2142 68.717 45.8397 68.717C45.8125 68.717 45.7299 68.708 45.7017 68.7009C45.2698 68.558 44.9224 67.8733 44.3828 66.5704C44.0545 65.5153 43.4806 64.592 42.7235 63.8389C42.6449 63.7614 42.5755 63.6758 42.4929 63.6013C42.4043 63.5499 42.3056 63.5117 42.215 63.4643C41.625 63.1613 40.9746 62.9458 40.293 62.8351C40.1107 62.8059 39.9275 62.7887 39.7432 62.7747C39.5771 62.7616 39.413 62.7414 39.2459 62.7414H39.1643C37.3842 62.5954 36.9361 62.4233 36.7519 62.1736C36.5707 61.9279 36.5405 61.4366 36.9482 59.7471C37.3379 58.5731 37.4043 57.3468 37.1486 56.1698C36.7005 55.1599 35.9474 54.2336 34.9909 53.557C33.8814 52.6015 33.3367 52.0498 33.3367 51.6057C33.3367 51.1587 33.8844 50.6049 34.9637 49.6756C35.9424 48.9799 36.6945 48.0566 37.1657 46.9864C37.3993 45.8758 37.3329 44.6485 36.9503 43.5047C36.9472 43.4946 36.9251 43.401 36.9221 43.3909C36.612 42.0659 36.5072 41.3772 36.7438 41.051C36.9593 40.755 37.5604 40.61 39.124 40.4811C39.1351 40.4811 39.2307 40.4811 39.2398 40.4801C40.3997 40.4801 41.5435 40.169 42.5443 39.58C43.3659 38.8309 44.0153 37.814 44.3636 36.6793C44.9899 35.158 45.304 34.6415 45.6655 34.5226C45.7007 34.5106 45.7672 34.5025 45.8044 34.5025C45.8235 34.5055 45.9162 34.5146 45.9353 34.5196C46.628 34.7311 47.2815 35.0512 47.8755 35.4691C48.8602 36.199 50.014 36.6471 51.2222 36.7709C52.3549 36.6441 53.5088 36.193 54.4824 35.4661C55.0956 35.023 55.7732 34.7049 56.5011 34.5186C56.5646 34.5015 56.635 34.5045 56.7005 34.5257C57.0599 34.6465 57.3861 35.1821 57.9892 36.6511C58.3487 37.8191 58.9981 38.84 59.8791 39.6324C60.8225 40.1791 61.9632 40.4912 63.1241 40.4912C63.1352 40.4912 63.2309 40.4902 63.2419 40.4922C64.9908 40.6412 65.4389 40.8134 65.6201 41.0601C65.8053 41.3108 65.8325 41.788 65.4258 43.4866C65.0341 44.6595 64.9677 45.8859 65.2234 47.0629C65.6724 48.0687 66.4245 48.991 67.377 49.6646C68.6054 50.7066 69.0313 51.2131 69.0313 51.6158C69.0282 52.0578 68.4815 52.6106 67.4042 53.5419Z" fill="#E8A15B"/>
<path d="M45.1943 60.628C46.9743 61.8242 49.0444 62.4565 51.183 62.4565C54.0605 62.4524 56.7669 61.3228 58.8017 59.2748C60.8366 57.2269 61.9612 54.5034 61.9652 51.6057C61.9662 49.4531 61.338 47.3679 60.1479 45.5767C58.9578 43.7866 57.2854 42.4042 55.309 41.5806C53.9941 41.0329 52.6056 40.754 51.182 40.754C50.4782 40.754 49.7714 40.8244 49.0797 40.9624C46.9814 41.3822 45.0724 42.4092 43.5591 43.9306C42.0459 45.4539 41.0249 47.374 40.6081 49.4863C40.1903 51.5997 40.4027 53.7674 41.2203 55.7569C42.0408 57.7475 43.4142 59.4309 45.1943 60.628ZM43.2913 48.3194C43.9407 46.7437 45.0281 45.4106 46.4367 44.4632C47.8463 43.5157 49.4874 43.0143 51.183 43.0143C53.4645 43.0173 55.609 43.9124 57.221 45.5345C58.834 47.1575 59.722 49.3141 59.724 51.6057C59.724 53.3113 59.2276 54.9615 58.2862 56.3792C57.3428 57.7968 56.0178 58.8912 54.4522 59.5447C53.4101 59.9786 52.3096 60.1981 51.1809 60.1981C50.6231 60.1981 50.0634 60.1427 49.5156 60.033C47.8533 59.6997 46.341 58.8862 45.1419 57.681C43.9448 56.4758 43.1353 54.9545 42.804 53.2811C42.4758 51.6107 42.6439 49.8941 43.2913 48.3194Z" fill="#637EA8"/>
</svg>
