<?xml version="1.0" encoding="utf-8"?>
<!-- Generator: Adobe Illustrator 17.0.0, SVG Export Plug-In . SVG Version: 6.00 Build 0)  -->
<!DOCTYPE svg PUBLIC "-//W3C//DTD SVG 1.1//EN" "http://www.w3.org/Graphics/SVG/1.1/DTD/svg11.dtd">
<svg version="1.1" id="Слой_2" xmlns="http://www.w3.org/2000/svg" xmlns:xlink="http://www.w3.org/1999/xlink" x="0px" y="0px"
	 width="1317.208px" height="1285.522px" viewBox="0 0 1317.208 1285.522" enable-background="new 0 0 1317.208 1285.522"
	 xml:space="preserve">
<g>
	<g>
		<g>
			<path fill="#E8A15B" d="M631.708,353.134h-25c-6.904,0-12.5-5.596-12.5-12.5s5.596-12.5,12.5-12.5h25
				c6.904,0,12.5,5.596,12.5,12.5S638.612,353.134,631.708,353.134z"/>
		</g>
		<g>
			<path fill="#E8A15B" d="M549.708,353.134h-26c-6.904,0-12.5-5.596-12.5-12.5s5.596-12.5,12.5-12.5h26
				c6.904,0,12.5,5.596,12.5,12.5S556.612,353.134,549.708,353.134z"/>
		</g>
		<g>
			<path fill="#E8A15B" d="M631.708,271.134h-25c-6.904,0-12.5-5.596-12.5-12.5s5.596-12.5,12.5-12.5h25
				c6.904,0,12.5,5.596,12.5,12.5S638.612,271.134,631.708,271.134z"/>
		</g>
	</g>
	<g>
		<path fill="#637EA8" d="M146.68,437.222C65.8,437.222,0,371.422,0,290.542s65.8-146.68,146.68-146.68
			c4.136,0,8.289,0.176,12.428,0.526c10.361-42.083,48.211-72.458,92.703-72.458c14.326,0,28.297,3.172,41.052,9.256
			c13.641-22.431,32.367-41.452,54.733-55.482C374.405,8.889,405.38,0,437.172,0c90.822,0,165.123,72.091,168.679,162.057
			c6.87-1.061,13.834-1.595,20.833-1.595c74.777,0,135.613,60.836,135.613,135.614c0,36.721-12.636,71.477-35.581,97.864
			c-24.091,27.706-57.098,42.965-92.941,42.965c-30.393,0-125.953,0.073-227.124,0.149
			C297.778,437.137,185.198,437.222,146.68,437.222z M146.68,168.863C79.585,168.863,25,223.448,25,290.542
			s54.585,121.68,121.68,121.68c38.509,0,151.084-0.085,259.953-0.168c101.175-0.077,196.74-0.149,227.143-0.149
			c58.049,0,103.521-50.878,103.521-115.829c0-60.992-49.621-110.614-110.613-110.614c-10.21,0-20.323,1.39-30.058,4.133
			c-3.885,1.094-8.059,0.246-11.207-2.278c-3.149-2.524-4.886-6.412-4.664-10.442c0.152-2.76,0.229-5.473,0.229-8.063
			C580.984,89.514,516.47,25,437.172,25c-54.508,0-103.692,30.231-128.357,78.895c-1.613,3.184-4.512,5.526-7.963,6.436
			c-3.453,0.91-7.128,0.3-10.101-1.674c-11.551-7.671-25.016-11.726-38.94-11.726c-36.021,0-66.144,26.958-70.067,62.706
			c-0.375,3.423-2.146,6.539-4.895,8.613c-2.748,2.074-6.229,2.923-9.625,2.347C160.45,169.446,153.538,168.863,146.68,168.863z"/>
	</g>
</g>
<g>
	<path fill="#E8A15B" d="M1290.932,795.73H532.566c-12.589,0-22.832-10.242-22.832-22.832V594.5
		c0-12.59,10.242-22.832,22.832-22.832h758.366c12.59,0,22.832,10.242,22.832,22.832v178.399
		C1313.764,785.488,1303.522,795.73,1290.932,795.73z M534.734,770.73h754.03V596.668h-754.03V770.73z"/>
</g>
<g>
	<path fill="#637EA8" d="M1290.932,1040.243H532.566c-12.589,0-22.832-10.242-22.832-22.832V839.012
		c0-12.59,10.242-22.832,22.832-22.832h758.366c12.59,0,22.832,10.242,22.832,22.832v178.398
		C1313.764,1030,1303.522,1040.243,1290.932,1040.243z M534.734,1015.243h754.03V841.18h-754.03V1015.243z"/>
</g>
<g>
	<path fill="#2C3C68" d="M1290.932,1285.522H532.566c-12.589,0-22.832-10.242-22.832-22.832v-178.398
		c0-12.59,10.242-22.832,22.832-22.832h758.366c12.59,0,22.832,10.242,22.832,22.832v178.398
		C1313.764,1275.28,1303.522,1285.522,1290.932,1285.522z M534.734,1260.522h754.03v-174.063h-754.03V1260.522z"/>
</g>
<g>
	<path fill="#637EA8" d="M656.708,696.134h-30c-6.904,0-12.5-5.596-12.5-12.5s5.596-12.5,12.5-12.5h30c6.904,0,12.5,5.596,12.5,12.5
		S663.612,696.134,656.708,696.134z"/>
</g>
<g>
	<path fill="#637EA8" d="M747.708,696.134h-32c-6.904,0-12.5-5.596-12.5-12.5s5.596-12.5,12.5-12.5h32c6.904,0,12.5,5.596,12.5,12.5
		S754.612,696.134,747.708,696.134z"/>
</g>
<g>
	<path fill="#637EA8" d="M836.708,696.134h-30c-6.904,0-12.5-5.596-12.5-12.5s5.596-12.5,12.5-12.5h30c6.904,0,12.5,5.596,12.5,12.5
		S843.612,696.134,836.708,696.134z"/>
</g>
<g>
	<path fill="#2C3C68" d="M656.708,940.134h-30c-6.904,0-12.5-5.596-12.5-12.5s5.596-12.5,12.5-12.5h30c6.904,0,12.5,5.596,12.5,12.5
		S663.612,940.134,656.708,940.134z"/>
</g>
<g>
	<path fill="#2C3C68" d="M747.708,940.134h-32c-6.904,0-12.5-5.596-12.5-12.5s5.596-12.5,12.5-12.5h32c6.904,0,12.5,5.596,12.5,12.5
		S754.612,940.134,747.708,940.134z"/>
</g>
<g>
	<path fill="#2C3C68" d="M836.708,940.134h-30c-6.904,0-12.5-5.596-12.5-12.5s5.596-12.5,12.5-12.5h30c6.904,0,12.5,5.596,12.5,12.5
		S843.612,940.134,836.708,940.134z"/>
</g>
<g>
	<path fill="#E8A15B" d="M656.708,1186.134h-30c-6.904,0-12.5-5.596-12.5-12.5s5.596-12.5,12.5-12.5h30
		c6.904,0,12.5,5.596,12.5,12.5S663.612,1186.134,656.708,1186.134z"/>
</g>
<g>
	<path fill="#E8A15B" d="M747.708,1186.134h-32c-6.904,0-12.5-5.596-12.5-12.5s5.596-12.5,12.5-12.5h32
		c6.904,0,12.5,5.596,12.5,12.5S754.612,1186.134,747.708,1186.134z"/>
</g>
<g>
	<path fill="#E8A15B" d="M836.708,1186.134h-30c-6.904,0-12.5-5.596-12.5-12.5s5.596-12.5,12.5-12.5h30
		c6.904,0,12.5,5.596,12.5,12.5S843.612,1186.134,836.708,1186.134z"/>
</g>
<g>
	<path fill="#2C3C68" d="M468.644,940.593H353.134c-38.167,0-69.565-12.433-93.325-36.954
		c-48.759-50.322-47.449-133.633-47.291-139.532V509.089c0-6.904,5.597-12.5,12.5-12.5s12.5,5.596,12.5,12.5v255.199
		c0,0.131-0.002,0.263-0.006,0.394c-0.022,0.764-1.798,78.257,40.326,121.637c18.862,19.425,44.196,29.274,75.297,29.274h115.509
		c6.904,0,12.5,5.596,12.5,12.5S475.547,940.593,468.644,940.593z"/>
</g>
<g>
	<path fill="#2C3C68" d="M1031.218,549.485c-6.903,0-12.5-5.596-12.5-12.5v-19.794c0-0.131,0.002-0.263,0.006-0.394
		c0.022-0.764,1.798-78.257-40.326-121.637c-18.862-19.425-44.196-29.274-75.297-29.274H787.592c-6.904,0-12.5-5.596-12.5-12.5
		s5.596-12.5,12.5-12.5h115.509c38.167,0,69.565,12.433,93.325,36.954c48.756,50.319,47.449,133.623,47.291,139.531v19.615
		C1043.718,543.889,1038.122,549.485,1031.218,549.485z"/>
</g>
<g>
	<path fill="#2C3C68" d="M340.393,640.939c-3.271,0-6.537-1.275-8.989-3.812L216.031,517.777
		c-4.798-4.963-4.664-12.877,0.299-17.675c4.964-4.799,12.877-4.664,17.675,0.3l115.374,119.351
		c4.798,4.963,4.664,12.877-0.299,17.675C346.653,639.772,343.521,640.939,340.393,640.939z"/>
</g>
<g>
	<path fill="#2C3C68" d="M108.872,640.939c-3.128,0-6.259-1.167-8.687-3.513c-4.963-4.798-5.098-12.712-0.299-17.675
		l115.374-119.351c4.798-4.963,12.711-5.098,17.675-0.3c4.963,4.798,5.098,12.712,0.299,17.675L117.86,637.127
		C115.408,639.664,112.142,640.939,108.872,640.939z"/>
</g>
<g>
	<path fill="#2C3C68" d="M1208.965,551.552c-6.904,0-12.5-5.596-12.5-12.5V205.674c0-6.904,5.596-12.5,12.5-12.5
		s12.5,5.596,12.5,12.5v333.378C1221.465,545.955,1215.869,551.552,1208.965,551.552z"/>
</g>
<g>
	<path fill="#637EA8" d="M1208.965,216.486c-59.686,0-108.243-48.557-108.243-108.243S1149.28,0,1208.965,0
		c59.685,0,108.243,48.557,108.243,108.243S1268.65,216.486,1208.965,216.486z M1208.965,25c-45.9,0-83.243,37.343-83.243,83.243
		s37.343,83.243,83.243,83.243s83.243-37.343,83.243-83.243S1254.866,25,1208.965,25z"/>
</g>
</svg>
