<svg width="95" height="85" viewBox="0 0 95 85" fill="none" xmlns="http://www.w3.org/2000/svg">
<g clip-path="url(#clip0)">
<path d="M86.2109 55.874C86.0469 55.574 85.7319 55.387 85.3899 55.387C85.2329 55.387 85.0829 55.425 84.9429 55.501C84.4909 55.748 84.3239 56.317 84.5709 56.769C85.6789 58.798 86.2649 61.101 86.2649 63.429C86.2649 71.102 80.0229 77.344 72.3499 77.344C64.6769 77.344 58.4349 71.102 58.4349 63.429C58.4349 55.756 64.6769 49.514 72.3499 49.514C75.6009 49.514 78.7639 50.658 81.2559 52.737C81.4239 52.877 81.6359 52.954 81.8539 52.954C82.1319 52.954 82.3939 52.832 82.5719 52.618C82.7319 52.426 82.8079 52.184 82.7849 51.935C82.7619 51.687 82.6439 51.461 82.4529 51.302C79.6259 48.944 76.0379 47.645 72.3499 47.645C63.6469 47.645 56.5669 54.726 56.5669 63.429C56.5669 72.132 63.6469 79.212 72.3499 79.212C81.0529 79.212 88.1329 72.132 88.1329 63.429C88.1329 60.79 87.4689 58.177 86.2109 55.874Z" fill="#637EA8"/>
<path d="M71.4158 71.315V72.765C71.4158 73.015 71.5128 73.249 71.6888 73.426C71.8658 73.602 72.0998 73.7 72.3498 73.7C72.8648 73.7 73.2838 73.281 73.2838 72.766V71.316V70.861H73.7388H74.1938C76.4998 70.861 78.3758 68.985 78.3758 66.679C78.3758 64.373 76.4998 62.497 74.1938 62.497H70.5068C69.2308 62.497 68.1928 61.459 68.1928 60.183C68.1928 58.907 69.2308 57.869 70.5068 57.869H75.9138C76.4288 57.869 76.8478 57.45 76.8478 56.935C76.8478 56.42 76.4288 56.001 75.9138 56.001H73.7398H73.2848V55.546V54.096C73.2848 53.581 72.8658 53.162 72.3508 53.162C71.8358 53.162 71.4168 53.581 71.4168 54.096V55.546V56.001H70.9598H70.5048C68.1988 56.001 66.3228 57.877 66.3228 60.183C66.3228 62.489 68.1988 64.366 70.5048 64.366H74.1918C75.4678 64.366 76.5058 65.404 76.5058 66.68C76.5058 67.956 75.4678 68.994 74.1918 68.994H68.7848C68.2698 68.994 67.8508 69.413 67.8508 69.928C67.8508 70.443 68.2698 70.862 68.7848 70.862H70.9588H71.4138V71.315H71.4158Z" fill="#3F496A"/>
<path d="M74.0829 31.303C73.8369 31.303 73.5909 31.209 73.4039 31.022L63.7559 21.374C63.3809 20.999 63.3809 20.391 63.7559 20.016C64.1309 19.641 64.7389 19.641 65.1139 20.016L74.7619 29.664C75.1369 30.039 75.1369 30.647 74.7619 31.022C74.5749 31.21 74.3289 31.303 74.0829 31.303Z" fill="#637EA8"/>
<path d="M74.0701 31.303C73.8241 31.303 73.5781 31.209 73.3911 31.022C73.0161 30.647 73.0161 30.039 73.3911 29.664L93.0201 10.035C93.3951 9.66 94.0031 9.66 94.3781 10.035C94.7531 10.41 94.7531 11.018 94.3781 11.393L74.7491 31.022C74.5621 31.21 74.3161 31.303 74.0701 31.303Z" fill="#637EA8"/>
<path d="M74.0829 23.899C73.8369 23.899 73.5909 23.805 73.4039 23.618L63.7559 13.97C63.3809 13.595 63.3809 12.987 63.7559 12.612C64.1309 12.237 64.7389 12.237 65.1139 12.612L74.7619 22.26C75.1369 22.635 75.1369 23.243 74.7619 23.618C74.5749 23.805 74.3289 23.899 74.0829 23.899Z" fill="#637EA8"/>
<path d="M74.0701 23.899C73.8241 23.899 73.5781 23.805 73.3911 23.618C73.0161 23.243 73.0161 22.635 73.3911 22.26L85.6311 10.019C86.0061 9.64401 86.6141 9.64401 86.9891 10.019C87.3641 10.394 87.3641 11.002 86.9891 11.377L74.7491 23.618C74.5621 23.805 74.3161 23.899 74.0701 23.899Z" fill="#637EA8"/>
<path d="M28.8328 20.277L19.7688 7.185C19.0388 6.129 18.9578 4.821 19.5538 3.684C20.1498 2.547 21.2708 1.868 22.5548 1.868H44.9028C46.1868 1.868 47.3078 2.547 47.9038 3.684C48.4998 4.82 48.4188 6.129 47.6888 7.184L38.6248 20.276L38.5238 20.421L38.5258 20.472H40.7618L49.2258 8.247C50.3428 6.634 50.4708 4.553 49.5598 2.815C48.6488 1.08 46.8648 0 44.9028 0H22.5548C20.5928 0 18.8088 1.08 17.8988 2.817C16.9888 4.554 17.1158 6.636 18.2328 8.249L24.0968 16.72L25.2798 18.429L28.9688 20.474L28.8328 20.277Z" fill="#3F496A"/>
<path d="M55.2419 43.748L40.7299 22.327H38.4839H26.6659L26.6419 22.342H26.7179L26.2369 23.052L20.7489 31.153C20.6089 31.36 20.5579 31.608 20.6049 31.853C20.6519 32.098 20.7919 32.31 20.9989 32.45C21.1539 32.555 21.3349 32.611 21.5219 32.611C21.8329 32.611 22.1229 32.458 22.2969 32.2L28.8409 22.541L28.9759 22.341H29.2169H38.2429H38.4839L38.6189 22.541L53.6959 44.795C53.8699 45.052 54.1599 45.206 54.4709 45.206C54.6569 45.206 54.8379 45.15 54.9939 45.045C55.4189 44.757 55.5309 44.175 55.2419 43.748Z" fill="#3F496A"/>
<path d="M38.4829 22.327H40.7289L40.2849 21.671L40.1099 21.413L40.2869 21.157L40.7609 20.473H38.5249L38.5229 20.422L38.4879 20.473H38.2499H29.2069H28.9689L25.2799 18.428L23.4919 17.369L11.6619 10.366C11.5169 10.281 11.3539 10.236 11.1869 10.236C10.8579 10.236 10.5489 10.412 10.3819 10.694C10.2549 10.909 10.2189 11.16 10.2809 11.402C10.3429 11.644 10.4949 11.847 10.7099 11.974L23.6379 19.626L25.0679 20.472H23.4069H9.68693C9.17193 20.472 8.75293 20.891 8.75293 21.406C8.75293 21.921 9.17193 22.34 9.68693 22.34H25.8599H26.6419L26.6659 22.325H38.4829V22.327Z" fill="#E8A15B"/>
<path d="M72.3498 41.86C60.4558 41.86 50.7798 51.537 50.7798 63.431C50.7798 69.749 53.5488 75.733 58.3778 79.849L58.8428 80.245L60.3668 81.434L60.4198 81.395L60.6828 81.564C64.1628 83.812 68.1978 85 72.3498 85C78.1018 85 83.5168 82.754 87.5948 78.675C91.6738 74.596 93.9198 69.182 93.9198 63.43C93.9188 51.536 84.2438 41.86 72.3498 41.86ZM72.3498 83.132C61.4858 83.132 52.6478 74.294 52.6478 63.431C52.6478 52.568 61.4858 43.729 72.3498 43.729C83.2128 43.729 92.0518 52.567 92.0518 63.431C92.0518 74.295 83.2128 83.132 72.3498 83.132Z" fill="#E8A15B"/>
<path d="M58.329 80.576C55.744 82.248 52.757 83.131 49.69 83.131H17.768C13.521 83.131 9.529 81.477 6.525 78.474C3.522 75.472 1.868 71.479 1.868 67.231C1.868 64.04 2.814 60.957 4.604 58.315L19.146 36.849C19.286 36.642 19.337 36.393 19.29 36.149C19.243 35.904 19.103 35.692 18.897 35.552C18.741 35.447 18.561 35.391 18.374 35.391C18.063 35.391 17.773 35.544 17.6 35.801L3.057 57.267C1.057 60.219 0 63.665 0 67.232C0 71.978 1.848 76.44 5.204 79.796C8.56 83.152 13.022 85 17.768 85H49.69C52.874 85 56.044 84.11 58.784 82.481L58.337 80.571L58.329 80.576Z" fill="#3F496A"/>
<path d="M58.3369 80.572L58.7839 82.482C59.2579 82.201 59.7219 81.904 60.1679 81.579L60.3669 81.434L58.8429 80.245L58.3369 80.572Z" fill="#3F496A"/>
</g>
<defs>
<clipPath id="clip0">
<rect width="94.659" height="85" fill="white"/>
</clipPath>
</defs>
</svg>
