<svg width="85" height="85" viewBox="0 0 85 85" fill="none" xmlns="http://www.w3.org/2000/svg">
<path d="M6.158 47.428H7.612C8.85 47.428 9.857 46.421 9.857 45.183V43.403H15.663C16.16 43.403 16.566 42.998 16.566 42.5C16.566 42.002 16.16 41.597 15.663 41.597H9.857V39.816C9.857 38.579 8.85 37.572 7.612 37.572H7.546V37.584H2.124C0.943 37.648 0 38.62 0 39.816V45.183C0 46.421 1.007 47.428 2.245 47.428H4.338L4.343 47.464H6.163L6.158 47.428ZM2.245 45.622C2.003 45.622 1.806 45.425 1.806 45.183V39.816C1.806 39.574 2.003 39.377 2.245 39.377H7.612C7.854 39.377 8.05 39.574 8.05 39.816V45.183C8.05 45.425 7.854 45.622 7.612 45.622H2.245Z" fill="#E8A15B"/>
<path d="M84.3421 38.23C83.9461 37.835 83.4291 37.614 82.8761 37.584H77.4471V37.572H77.3881C76.1501 37.572 75.1431 38.579 75.1431 39.816V41.597H69.3361C68.8381 41.597 68.4331 42.002 68.4331 42.5C68.4331 42.998 68.8381 43.403 69.3361 43.403H75.1431V45.184C75.1431 46.421 76.1501 47.428 77.3881 47.428H78.8411L78.8361 47.464H80.6561L80.6611 47.428H82.7551C83.9921 47.428 84.9991 46.421 84.9991 45.183V39.816C85.0001 39.217 84.7661 38.654 84.3421 38.23ZM83.1951 45.183C83.1951 45.425 82.9981 45.622 82.7561 45.622H77.3891C77.1471 45.622 76.9511 45.425 76.9511 45.183V39.816C76.9511 39.574 77.1471 39.377 77.3891 39.377H82.7561C82.9981 39.377 83.1951 39.574 83.1951 39.816V45.183Z" fill="#E8A15B"/>
<path d="M71.6919 64.694L71.5249 64.913L71.2719 64.805C70.6579 64.543 70.0069 64.409 69.3369 64.409C66.6189 64.409 64.4089 66.619 64.4089 69.337C64.4089 70.007 64.5429 70.658 64.8049 71.272L64.9129 71.525L64.6949 71.691C60.7009 74.733 56.1059 76.903 51.2539 78.096H51.3999V79.916C56.5909 78.682 61.5059 76.385 65.7749 73.138L65.9979 72.969L66.2129 73.146C67.0899 73.868 68.1999 74.266 69.3359 74.266C72.0539 74.266 74.2649 72.056 74.2649 69.338C74.2649 68.203 73.8669 67.093 73.1439 66.214L72.9669 65.998L73.1359 65.776C76.3779 61.516 78.6719 56.611 79.9069 51.428H78.0519C76.8519 56.214 74.6979 60.748 71.6919 64.694ZM69.3369 72.459C67.6149 72.459 66.2139 71.059 66.2139 69.337C66.2139 67.615 67.6139 66.214 69.3369 66.214C71.0599 66.214 72.4599 67.614 72.4599 69.337C72.4599 71.06 71.0599 72.459 69.3369 72.459Z" fill="#3F496A"/>
<path d="M13.3091 20.305L13.4761 20.086L13.7291 20.194C14.3421 20.457 14.9931 20.59 15.6641 20.59C18.3821 20.59 20.5921 18.38 20.5921 15.662C20.5921 14.992 20.4581 14.341 20.1961 13.727L20.0881 13.474L20.3061 13.308C24.2581 10.299 28.7991 8.14199 33.5941 6.94099V5.08499C28.4051 6.31999 23.4921 8.61499 19.2251 11.861L19.0021 12.03L18.7871 11.853C17.9091 11.131 16.8001 10.733 15.6631 10.733C12.9451 10.733 10.7351 12.943 10.7351 15.661C10.7351 16.796 11.1331 17.905 11.8551 18.785L12.0321 19.001L11.8631 19.223C8.61108 23.497 6.31308 28.42 5.08008 33.62H6.93408C8.13408 28.815 10.2931 24.264 13.3091 20.305ZM15.6631 12.54C17.3851 12.54 18.7861 13.941 18.7861 15.663C18.7861 17.385 17.3861 18.787 15.6631 18.787C13.9401 18.787 12.5401 17.386 12.5401 15.663C12.5411 13.941 13.9411 12.54 15.6631 12.54Z" fill="#3F496A"/>
<path d="M47.4291 78.842V77.388C47.4291 76.151 46.4221 75.144 45.1851 75.144H43.4041V69.337C43.4041 68.84 42.9981 68.434 42.5011 68.434C42.0041 68.434 41.5981 68.84 41.5981 69.337V75.144H39.8181C38.5801 75.144 37.5731 76.151 37.5731 77.388V78.842L37.5581 78.84V80.66L37.5721 80.662V82.755C37.5721 83.993 38.5791 85 39.8171 85H45.1851C46.4231 85 47.4301 83.993 47.4301 82.755V80.662L47.4381 80.661V78.841L47.4291 78.842ZM45.6231 82.755C45.6231 82.997 45.4261 83.194 45.1841 83.194H39.8171C39.5751 83.194 39.3781 82.997 39.3781 82.755V77.388C39.3781 77.146 39.5751 76.95 39.8171 76.95H45.1841C45.4261 76.95 45.6231 77.146 45.6231 77.388V82.755Z" fill="#E8A15B"/>
<path d="M37.5721 6.158V7.612C37.5721 8.849 38.5791 9.856 39.8161 9.856H41.5971V15.663C41.5971 16.161 42.0031 16.566 42.5001 16.566C42.9981 16.566 43.4031 16.161 43.4031 15.663V9.856H45.1831C46.4211 9.856 47.4281 8.849 47.4281 7.612V6.158L47.4361 6.159V4.339L47.4301 4.338V2.244C47.4291 1.007 46.4211 0 45.1841 0H39.8171C38.5791 0 37.5721 1.007 37.5721 2.244V4.338L37.5571 4.34V6.16L37.5721 6.158ZM39.3781 2.244C39.3781 2.002 39.5751 1.805 39.8171 1.805H45.1841C45.4261 1.805 45.6231 2.002 45.6231 2.244V7.611C45.6231 7.853 45.4261 8.051 45.1841 8.051H39.8171C39.5751 8.051 39.3781 7.853 39.3781 7.611V2.244Z" fill="#E8A15B"/>
<path d="M64.6949 13.308L64.9139 13.475L64.8049 13.728C64.5419 14.341 64.4089 14.992 64.4089 15.663C64.4089 18.38 66.6199 20.591 69.3379 20.591C70.0079 20.591 70.6589 20.458 71.2729 20.195L71.5259 20.087L71.6929 20.306C74.7069 24.265 76.8659 28.815 78.0659 33.621H79.9219C78.6889 28.421 76.3909 23.499 73.1389 19.225L72.9699 19.003L73.1469 18.787C73.8689 17.909 74.2669 16.799 74.2669 15.663C74.2669 12.946 72.0569 10.735 69.3389 10.735C68.2039 10.735 67.0949 11.132 66.2159 11.855L65.9999 12.032L65.7769 11.863C61.5079 8.61501 56.5929 6.31801 51.3999 5.08401V6.94001C56.1979 8.14101 60.7419 10.298 64.6949 13.308ZM69.3369 12.54C71.0589 12.54 72.4599 13.941 72.4599 15.663C72.4599 17.385 71.0599 18.787 69.3369 18.787C67.6139 18.787 66.2139 17.386 66.2139 15.663C66.2149 13.941 67.6149 12.54 69.3369 12.54Z" fill="#3F496A"/>
<path d="M33.7478 78.096C28.8958 76.903 24.2998 74.733 20.3058 71.691L20.0878 71.525L20.1958 71.272C20.4578 70.658 20.5918 70.008 20.5918 69.337C20.5918 66.619 18.3818 64.408 15.6638 64.408C14.9938 64.408 14.3428 64.542 13.7288 64.805L13.4758 64.914L13.3088 64.694C10.3048 60.749 8.14984 56.216 6.94684 51.427H5.08984C6.32584 56.608 8.61984 61.513 11.8618 65.775L12.0308 65.997L11.8538 66.213C11.1318 67.09 10.7338 68.2 10.7338 69.337C10.7338 72.055 12.9438 74.265 15.6618 74.265C16.7968 74.265 17.9068 73.867 18.7848 73.145L18.9998 72.968L19.2228 73.137C23.4908 76.383 28.4038 78.679 33.5928 79.914V78.096H33.7478ZM15.6628 72.459C13.9408 72.459 12.5398 71.059 12.5398 69.337C12.5398 67.615 13.9398 66.214 15.6628 66.214C17.3858 66.214 18.7858 67.614 18.7858 69.337C18.7858 71.06 17.3848 72.459 15.6628 72.459Z" fill="#3F496A"/>
<path d="M63.8438 38.887L60.2418 38.463L60.1578 38.123C59.7218 36.35 59.0238 34.66 58.0828 33.102L57.9018 32.803L60.1468 29.96C60.3598 29.691 60.3628 29.312 60.1538 29.039C59.4658 28.139 58.8498 27.423 58.2118 26.786C57.5728 26.148 56.8568 25.53 55.9588 24.844C55.6908 24.639 55.2998 24.644 55.0368 24.851L52.1948 27.095L51.8958 26.915C50.3378 25.974 48.6488 25.275 46.8758 24.84L46.5358 24.757L46.1128 21.154C46.0728 20.813 45.8068 20.543 45.4658 20.497C43.2228 20.197 41.7768 20.197 39.5328 20.497C39.1928 20.542 38.9268 20.813 38.8868 21.154L38.4628 24.757L38.1238 24.84C36.3508 25.276 34.6618 25.974 33.1038 26.915L32.8048 27.095L29.9628 24.851C29.6998 24.643 29.3048 24.641 29.0408 24.844C28.1398 25.533 27.4228 26.15 26.7878 26.786C26.1498 27.424 25.5328 28.14 24.8458 29.039C24.6368 29.312 24.6398 29.691 24.8528 29.961L27.0978 32.804L26.9168 33.103C25.9768 34.66 25.2778 36.349 24.8418 38.123L24.7578 38.463L21.1558 38.887C20.8148 38.927 20.5438 39.193 20.4978 39.534C20.3478 40.659 20.2778 41.602 20.2778 42.499C20.2778 43.397 20.3478 44.339 20.4988 45.466C20.5438 45.807 20.8148 46.073 21.1558 46.112L24.7578 46.536L24.8418 46.876C25.2778 48.649 25.9758 50.338 26.9168 51.895L27.0978 52.194L24.8528 55.037C24.6398 55.307 24.6368 55.686 24.8458 55.959C25.5338 56.86 26.1518 57.576 26.7878 58.213C27.4228 58.848 28.1388 59.465 29.0408 60.155C29.3088 60.359 29.6988 60.358 29.9618 60.147L32.8048 57.903L33.1038 58.084C34.6598 59.024 36.3488 59.723 38.1238 60.159L38.4628 60.243L38.8868 63.845C38.9268 64.186 39.1928 64.455 39.5328 64.501C41.7718 64.803 43.2308 64.801 45.4658 64.502C45.8068 64.456 46.0728 64.186 46.1128 63.845L46.5358 60.243L46.8758 60.159C48.6488 59.723 50.3378 59.025 51.8958 58.084L52.1948 57.903L55.0368 60.147C55.1688 60.251 55.3338 60.309 55.5028 60.309C55.6688 60.309 55.8268 60.256 55.9598 60.155C56.8568 59.469 57.5738 58.851 58.2128 58.212C58.8438 57.581 59.4618 56.866 60.1548 55.959C60.3638 55.686 60.3608 55.307 60.1468 55.037L57.9028 52.194L58.0838 51.895C59.0238 50.338 59.7228 48.649 60.1588 46.876L60.2428 46.536L63.8448 46.113C64.1858 46.073 64.4558 45.807 64.5008 45.466C64.6518 44.346 64.7218 43.404 64.7218 42.499C64.7218 41.594 64.6518 40.652 64.5018 39.533C64.4558 39.193 64.1858 38.927 63.8438 38.887ZM63.1268 44.284L63.0878 44.689L59.5268 45.107C59.2008 45.146 58.9388 45.388 58.8768 45.71C58.4468 47.912 57.5988 49.966 56.3528 51.814C56.1698 52.087 56.1828 52.442 56.3868 52.699L58.6048 55.509L58.3458 55.822C57.9368 56.319 57.5448 56.754 57.1498 57.149C56.7478 57.551 56.3138 57.942 55.8218 58.346L55.5078 58.603L52.6998 56.386C52.4518 56.189 52.0808 56.173 51.8138 56.354C49.9648 57.599 47.9118 58.448 45.7098 58.878C45.3878 58.94 45.1458 59.201 45.1068 59.527L44.6888 63.087L44.2858 63.127C43.6518 63.188 43.0678 63.219 42.4998 63.219C41.9328 63.219 41.3488 63.188 40.7148 63.127L40.3118 63.087L39.8918 59.527C39.8548 59.201 39.6118 58.94 39.2888 58.878C37.0858 58.448 35.0338 57.599 33.1848 56.354C32.9198 56.174 32.5498 56.189 32.2988 56.386L29.4888 58.605L29.1758 58.346C28.6838 57.941 28.2488 57.549 27.8498 57.15C27.4478 56.748 27.0568 56.314 26.6518 55.823L26.3948 55.509L28.6118 52.701C28.8148 52.443 28.8288 52.087 28.6448 51.815C27.3998 49.967 26.5518 47.913 26.1208 45.711C26.0588 45.389 25.7978 45.147 25.4728 45.108L21.9118 44.69L21.8728 44.286C21.8118 43.651 21.7808 43.067 21.7808 42.501C21.7808 41.934 21.8118 41.35 21.8728 40.717L21.9118 40.312L25.4728 39.893C25.7988 39.855 26.0588 39.613 26.1208 39.29C26.5518 37.088 27.3998 35.034 28.6448 33.186C28.8288 32.914 28.8148 32.558 28.6118 32.3L26.3948 29.491L26.6518 29.178C27.0598 28.683 27.4508 28.248 27.8488 27.851C28.2398 27.46 28.6738 27.068 29.1748 26.655L29.4888 26.396L32.2988 28.615C32.5488 28.813 32.9208 28.828 33.1838 28.648C35.0338 27.402 37.0868 26.553 39.2878 26.124C39.6098 26.061 39.8518 25.8 39.8918 25.474L40.3108 21.913L40.7148 21.874C41.9888 21.75 43.0048 21.75 44.2828 21.874L44.6868 21.913L45.1058 25.474C45.1448 25.8 45.3868 26.061 45.7088 26.124C47.9108 26.553 49.9628 27.402 51.8128 28.648C52.0798 28.827 52.4488 28.813 52.6978 28.615L55.5088 26.397L55.8218 26.655C56.3198 27.064 56.7538 27.456 57.1498 27.852C57.5458 28.248 57.9378 28.682 58.3458 29.179L58.6048 29.492L56.3868 32.302C56.1828 32.56 56.1688 32.915 56.3518 33.187C57.5978 35.036 58.4458 37.089 58.8768 39.291C58.9388 39.614 59.1998 39.855 59.5258 39.894L63.0858 40.313L63.1258 40.717C63.1868 41.351 63.2178 41.935 63.2178 42.502C63.2178 43.062 63.1878 43.646 63.1268 44.284Z" fill="#637EA8"/>
<path d="M42.5 33.858C43.935 33.858 45.357 34.217 46.61 34.896C46.968 35.089 47.438 34.946 47.629 34.593C47.826 34.229 47.69 33.772 47.326 33.574C45.854 32.776 44.185 32.355 42.5 32.355C36.906 32.355 32.356 36.906 32.356 42.499C32.356 44.185 32.777 45.854 33.575 47.325C33.765 47.677 34.237 47.823 34.595 47.627C34.77 47.533 34.899 47.374 34.956 47.181C35.013 46.989 34.992 46.786 34.896 46.61C34.217 45.355 33.858 43.935 33.858 42.499C33.859 37.735 37.735 33.858 42.5 33.858Z" fill="#3F496A"/>
<path d="M50.406 37.371C50.042 37.569 49.906 38.026 50.103 38.39C50.782 39.643 51.142 41.064 51.142 42.5C51.142 47.265 47.266 51.141 42.5 51.141C41.064 51.141 39.643 50.782 38.389 50.102C38.278 50.042 38.159 50.011 38.033 50.011C37.757 50.011 37.503 50.162 37.371 50.405C37.275 50.581 37.255 50.784 37.312 50.977C37.369 51.169 37.497 51.328 37.673 51.423C39.147 52.222 40.815 52.643 42.5 52.643C48.094 52.643 52.645 48.093 52.645 42.499C52.645 40.815 52.223 39.146 51.425 37.673C51.233 37.321 50.764 37.177 50.406 37.371Z" fill="#3F496A"/>
<path d="M47.832 6.21699C49.036 6.39199 50.224 6.64499 51.4 6.93999V5.08399C50.19 4.79599 48.97 4.54799 47.734 4.37999L47.436 4.33899V6.15799L47.832 6.21699Z" fill="#3F496A"/>
<path d="M37.1678 6.217L37.5558 6.16V4.341L37.2658 4.38C36.0278 4.548 34.8048 4.797 33.5928 5.086V6.942C34.7718 6.646 35.9628 6.392 37.1678 6.217Z" fill="#3F496A"/>
<path d="M51.254 78.096C50.125 78.374 48.986 78.615 47.832 78.783L47.437 78.84V80.66L47.734 80.62C48.97 80.452 50.191 80.203 51.401 79.916V78.096H51.254Z" fill="#3F496A"/>
<path d="M37.1678 78.784C36.0148 78.616 34.8758 78.374 33.7478 78.097H33.5928V79.915C34.8048 80.203 36.0268 80.452 37.2648 80.621L37.5558 80.661V78.841L37.1678 78.784Z" fill="#3F496A"/>
<path d="M78.7832 47.832C78.6072 49.045 78.3512 50.242 78.0542 51.428H79.9092C80.2002 50.209 80.4512 48.98 80.6202 47.734L80.6572 47.465H78.8372L78.7832 47.832Z" fill="#3F496A"/>
<path d="M78.7828 37.168L78.8408 37.572H77.4468V37.584H82.8758C82.8348 37.582 82.7958 37.572 82.7548 37.572H80.6618L80.6198 37.267C80.4528 36.038 80.2058 34.824 79.9198 33.621H78.0638C78.3568 34.791 78.6088 35.972 78.7828 37.168Z" fill="#3F496A"/>
<path d="M6.21577 47.832L6.16277 47.464H4.34277L4.37977 47.733C4.54877 48.978 4.79977 50.208 5.08977 51.427H6.94577C6.64877 50.242 6.39277 49.044 6.21577 47.832Z" fill="#3F496A"/>
<path d="M7.54602 37.572H6.15802L6.21602 37.168C6.39002 35.972 6.64202 34.791 6.93402 33.62H5.08002C4.79502 34.823 4.54802 36.037 4.38102 37.266L4.33902 37.571H2.24502C2.20302 37.571 2.16502 37.581 2.12402 37.583H7.54602V37.572Z" fill="#3F496A"/>
</svg>
