<?xml version="1.0" encoding="utf-8"?>
<!-- Generator: Adobe Illustrator 17.0.0, SVG Export Plug-In . SVG Version: 6.00 Build 0)  -->
<!DOCTYPE svg PUBLIC "-//W3C//DTD SVG 1.1//EN" "http://www.w3.org/Graphics/SVG/1.1/DTD/svg11.dtd">
<svg version="1.1" id="Слой_12" xmlns="http://www.w3.org/2000/svg" xmlns:xlink="http://www.w3.org/1999/xlink" x="0px"
	 y="0px" width="1169px" height="1166.186px" viewBox="0 0 1169 1166.186" enable-background="new 0 0 1169 1166.186"
	 xml:space="preserve">
<g>
	<g>
		<path fill="#E8A15B" d="M67.1,1037.506c-5.804,0-11.006-4.063-12.229-9.97c-0.423-2.045-10.408-50.419-14.495-80.051
			c-4.122-29.885-7.121-133.527-7.247-137.924c-0.027-0.948,0.054-1.896,0.241-2.827c1.096-5.433,27.105-133.643,51.989-184.448
			c25.66-52.389,95.148-98.782,98.094-100.731c5.758-3.81,13.514-2.23,17.322,3.526c3.811,5.757,2.231,13.513-3.525,17.323
			c-0.879,0.584-66.822,44.704-89.439,90.879c-22.163,45.249-46.741,162.858-49.649,177.002c0.383,12.819,3.294,107.06,6.98,133.783
			c3.974,28.809,14.109,77.909,14.212,78.401c1.398,6.761-2.948,13.375-9.709,14.773C68.791,1037.421,67.938,1037.506,67.1,1037.506
			z"/>
	</g>
	<g>
		<g>
			<path fill="#2C3C68" d="M197.5,904.686c-6.903,0-12.5-5.597-12.5-12.5v-761.42c-0.167-3.094-1.018-21.921,1.709-43.398
				c4.192-33.032,14.609-55.455,30.961-66.647c31.443-21.521,68.714-20.98,93.378-20.619c2.963,0.043,5.773,0.084,8.402,0.084H608
				c6.903,0,12.5,5.596,12.5,12.5c0,6.903-5.597,12.5-12.5,12.5H319.45c-2.742,0-5.675-0.042-8.766-0.087
				c-22.789-0.332-53.999-0.786-78.895,16.252c-18.996,13.002-23.462,61.061-21.813,88.299c0.016,0.251,0.023,0.511,0.023,0.763
				v761.773C210,899.089,204.403,904.686,197.5,904.686z"/>
		</g>
		<g>
			<path fill="#2C3C68" d="M1052.5,640.686c-6.903,0-12.5-5.596-12.5-12.5V130.412c0-0.233,0.007-0.465,0.02-0.698
				c1.489-27.248-3.238-75.341-22.265-88.364c-24.899-17.042-56.366-16.584-79.346-16.252c-3.097,0.045-6.03,0.087-8.769,0.087H605
				c-6.903,0-12.5-5.596-12.5-12.5c0-6.903,5.597-12.5,12.5-12.5h324.641c2.625,0,5.438-0.042,8.405-0.084
				c24.84-0.359,62.381-0.906,93.829,20.619c16.332,11.178,26.822,33.581,31.181,66.585c2.848,21.563,2.089,40.454,1.944,43.426
				v497.455C1065,635.09,1059.403,640.686,1052.5,640.686z"/>
		</g>
	</g>
	<g>
		<path fill="#E8A15B" d="M844.092,1037.556c-0.953,0-1.921-0.11-2.89-0.339c-4.997-1.183-49.322-12.298-66.505-38.074
			c-6.527-9.791-11.191-20.728-16.129-32.307c-7.234-16.963-14.715-34.503-29.159-51.609c-6.139-7.269-13.524-15.174-20.667-22.819
			c-27.407-29.334-51.077-54.669-41.713-76.52c5.367-12.525,16.726-21.715,31.982-25.878c13.229-3.608,28.57-3.017,42.089,1.624
			c16.343,5.61,51.57,26.639,73.899,40.46v-254.25c0-0.041,0-0.081,0.001-0.122c0.006-0.639,0.224-15.818,6.474-31.108
			c9.033-22.099,26.378-34.27,48.839-34.27c22.465,0,39.876,12.354,49.028,34.787c6.323,15.498,6.646,30.878,6.656,31.525
			c0.001,0.069,0.002,0.137,0.002,0.206v208.323c0,6.903-5.597,12.5-12.5,12.5s-12.5-5.597-12.5-12.5V579
			c-0.067-2.473-1.609-41.655-30.687-41.655c-7.745,0-18.835,1.941-25.698,18.729c-4.279,10.469-4.601,21.238-4.615,21.863v276.791
			c0,4.571-2.495,8.777-6.507,10.969s-8.899,2.019-12.746-0.45c-18.479-11.862-70.27-43.962-87.764-49.968
			c-17.877-6.137-37.958-1.251-42.976,10.456l0,0c0.006,0-0.874,4.102,8.436,16.85c7.288,9.98,18.105,21.558,28.566,32.755
			c7.354,7.87,14.957,16.009,21.499,23.756c16.868,19.975,25.468,40.141,33.056,57.933c4.664,10.938,8.692,20.385,13.934,28.247
			c9.973,14.959,41.28,25.204,51.462,27.613c6.718,1.59,10.875,8.325,9.285,15.042
			C854.885,1033.682,849.754,1037.556,844.092,1037.556z"/>
	</g>
	<g>
		<path fill="#E8A15B" d="M999.5,800.686c-6.903,0-12.5-5.596-12.5-12.5v-95.034c-0.066-2.464-1.605-41.656-30.687-41.656
			c-7.639,0-18.592,1.887-25.48,18.206c-4.442,10.523-4.812,21.589-4.833,22.408v52.076c0,6.904-5.597,12.5-12.5,12.5
			s-12.5-5.596-12.5-12.5v-52.191c0-0.041,0-0.081,0.001-0.122c0.006-0.639,0.224-15.818,6.474-31.107
			c9.033-22.099,26.378-34.27,48.839-34.27c22.465,0,39.876,12.354,49.028,34.787c6.323,15.498,6.646,30.877,6.656,31.524
			c0.001,0.069,0.002,0.138,0.002,0.206v95.172C1012,795.09,1006.403,800.686,999.5,800.686z"/>
	</g>
	<g>
		<path fill="#E8A15B" d="M1077.5,800.686c-6.903,0-12.5-5.597-12.5-12.5v-78.198c-0.013-0.456-0.313-9.369-4.212-17.75
			c-4.52-9.717-11.657-14.243-22.46-14.243c-10.8,0-17.882,4.393-22.288,13.826c-3.892,8.332-4.039,17.225-4.04,17.314v43.051
			c0,6.903-5.597,12.5-12.5,12.5s-12.5-5.597-12.5-12.5v-43.13c0.002-1.403,0.185-13.935,5.96-26.875
			c8.4-18.821,24.513-29.186,45.368-29.186c20.859,0,37.035,10.516,45.543,29.611c5.837,13.097,6.128,25.772,6.128,27.175
			c0,0.038,0,0.075,0,0.112v78.292C1090,795.089,1084.403,800.686,1077.5,800.686z"/>
	</g>
	<g>
		<path fill="#E8A15B" d="M1156.5,922.686c-6.903,0-12.5-5.596-12.5-12.5V724.911c-0.064-0.937-0.607-7.079-4.049-12.797
			c-4.463-7.416-12.026-11.02-23.123-11.02c-11.091,0-18.599,3.496-22.952,10.686c-3.381,5.584-3.831,11.604-3.876,12.382v35.024
			c0,6.904-5.597,12.5-12.5,12.5s-12.5-5.596-12.5-12.5v-35.258c0-0.065,0.001-0.131,0.002-0.197
			c0.019-1.229,0.373-12.337,6.737-23.614c8.743-15.492,24.756-24.023,45.089-24.023c20.338,0,36.414,8.655,45.267,24.372
			c6.414,11.386,6.87,22.589,6.901,23.829c0.003,0.104,0.004,0.208,0.004,0.312v185.579
			C1169,917.09,1163.403,922.686,1156.5,922.686z"/>
	</g>
	<g>
		<path fill="#E8A15B" d="M1097.457,1037.352c-4.05,0-8.023-1.965-10.43-5.593c-3.814-5.753-2.244-13.51,3.51-17.326
			c0.206-0.138,22.07-14.845,35.201-34.767c10.697-16.231,16.526-55.488,17.87-69.244c0.672-6.869,6.771-11.898,13.652-11.228
			c6.87,0.669,11.897,6.778,11.23,13.647c-0.553,5.688-5.858,56.274-21.879,80.583c-15.998,24.272-41.194,41.138-42.259,41.844
			C1102.229,1036.678,1099.829,1037.352,1097.457,1037.352z"/>
	</g>
	<g>
		<path fill="#E8A15B" d="M290.501,1039.078c-5.88,0-11.119-4.167-12.264-10.155c-1.296-6.775,3.143-13.318,9.914-14.622l0,0
			c10.187-1.975,38.773-10.325,48.59-25.05c5.241-7.862,9.269-17.3,13.933-28.227c7.587-17.777,16.186-37.926,33.053-57.901
			c6.551-7.757,14.162-15.902,21.523-23.779c10.456-11.188,21.268-22.757,28.551-32.728c9.313-12.75,8.418-16.842,8.408-16.881
			c-5.009-11.679-25.177-16.561-43.141-10.392c-17.509,6.011-69.43,38.122-87.958,49.988c-0.479,0.307-0.978,0.58-1.493,0.819
			l-84.461,39.07c-2.26,1.045-4.779,1.393-7.24,0.995l-23.151-3.737c-6.815-1.1-11.448-7.517-10.348-14.333
			s7.521-11.446,14.332-10.348l19.379,3.128l80.223-37.109c9.832-6.281,69.755-44.276,92.601-52.119
			c26.773-9.192,62.776-2.537,74.255,24.241c9.363,21.847-14.296,47.163-41.69,76.475c-7.15,7.651-14.544,15.563-20.688,22.838
			c-14.447,17.109-21.928,34.635-29.161,51.585c-4.937,11.567-9.6,22.494-16.125,32.281c-17.354,26.031-59.888,34.818-64.681,35.735
			C292.069,1039.005,291.279,1039.078,290.501,1039.078z"/>
	</g>
	<g>
		<path fill="#2C3C68" d="M672,912.186H461c-6.903,0-12.5-5.596-12.5-12.5s5.597-12.5,12.5-12.5h211c6.903,0,12.5,5.596,12.5,12.5
			S678.903,912.186,672,912.186z"/>
	</g>
	<g>
		<g>
			<path fill="#E8A15B" d="M437.373,282.186H319.627c-16.336,0-29.627-13.291-29.627-29.627V134.813
				c0-16.336,13.291-29.627,29.627-29.627h117.746c16.336,0,29.627,13.291,29.627,29.627v117.745
				C467,268.895,453.709,282.186,437.373,282.186z M319.627,130.186c-2.552,0-4.627,2.076-4.627,4.627v117.745
				c0,2.552,2.075,4.627,4.627,4.627h117.746c2.552,0,4.627-2.076,4.627-4.627V134.813c0-2.552-2.075-4.627-4.627-4.627H319.627z"/>
		</g>
		<g>
			<path fill="#637EA8" d="M929.373,282.186H811.627c-16.336,0-29.627-13.291-29.627-29.627V134.813
				c0-16.336,13.291-29.627,29.627-29.627h117.746c16.336,0,29.627,13.291,29.627,29.627v117.745
				C959,268.895,945.709,282.186,929.373,282.186z M811.627,130.186c-2.552,0-4.627,2.076-4.627,4.627v117.745
				c0,2.552,2.075,4.627,4.627,4.627h117.746c2.552,0,4.627-2.076,4.627-4.627V134.813c0-2.552-2.075-4.627-4.627-4.627H811.627z"/>
		</g>
		<g>
			<path fill="#637EA8" d="M684.373,282.186H566.627c-16.336,0-29.627-13.291-29.627-29.627V134.813
				c0-16.336,13.291-29.627,29.627-29.627h117.746c16.336,0,29.627,13.291,29.627,29.627v117.745
				C714,268.895,700.709,282.186,684.373,282.186z M566.627,130.186c-2.552,0-4.627,2.076-4.627,4.627v117.745
				c0,2.552,2.075,4.627,4.627,4.627h117.746c2.552,0,4.627-2.076,4.627-4.627V134.813c0-2.552-2.075-4.627-4.627-4.627H566.627z"/>
		</g>
	</g>
	<g>
		<path fill="#637EA8" d="M378.5,490.686c-6.903,0-12.5-5.597-12.5-12.5v-122c0-6.903,5.597-12.5,12.5-12.5s12.5,5.597,12.5,12.5
			v122C391,485.089,385.403,490.686,378.5,490.686z"/>
	</g>
	<g>
		<path fill="#637EA8" d="M378.5,751.686c-6.903,0-12.5-5.597-12.5-12.5v-148c0-6.903,5.597-12.5,12.5-12.5s12.5,5.597,12.5,12.5
			v148C391,746.089,385.403,751.686,378.5,751.686z"/>
	</g>
	<g>
		<path fill="#2C3C68" d="M421.431,601.186h-83.861c-13.548,0-24.569-11.022-24.569-24.569v-83.861
			c0-13.547,11.021-24.569,24.569-24.569h83.861c13.548,0,24.569,11.022,24.569,24.569v83.861
			C446,590.164,434.979,601.186,421.431,601.186z M338,576.186h83v-83h-83V576.186z"/>
	</g>
	<g>
		<path fill="#637EA8" d="M624.5,610.686c-6.903,0-12.5-5.597-12.5-12.5v-242c0-6.903,5.597-12.5,12.5-12.5s12.5,5.597,12.5,12.5
			v242C637,605.089,631.403,610.686,624.5,610.686z"/>
	</g>
	<g>
		<path fill="#637EA8" d="M624.5,751.686c-6.903,0-12.5-5.596-12.5-12.5v-32c0-6.904,5.597-12.5,12.5-12.5s12.5,5.596,12.5,12.5v32
			C637,746.09,631.403,751.686,624.5,751.686z"/>
	</g>
	<g>
		<path fill="#2C3C68" d="M667.431,720.186h-83.861c-13.548,0-24.569-11.022-24.569-24.569v-83.861
			c0-13.547,11.021-24.569,24.569-24.569h83.861c13.548,0,24.569,11.022,24.569,24.569v83.861
			C692,709.164,680.979,720.186,667.431,720.186z M584,695.186h83v-83h-83V695.186z"/>
	</g>
	<g>
		<path fill="#637EA8" d="M945,369.186H759c-6.903,0-12.5-5.596-12.5-12.5s5.597-12.5,12.5-12.5h186c6.903,0,12.5,5.596,12.5,12.5
			S951.903,369.186,945,369.186z"/>
	</g>
	<g>
		<path fill="#637EA8" d="M945,429.186H759c-6.903,0-12.5-5.596-12.5-12.5s5.597-12.5,12.5-12.5h186c6.903,0,12.5,5.596,12.5,12.5
			S951.903,429.186,945,429.186z"/>
	</g>
	<g>
		<path fill="#2C3C68" d="M945,489.186H759c-6.903,0-12.5-5.596-12.5-12.5s5.597-12.5,12.5-12.5h186c6.903,0,12.5,5.596,12.5,12.5
			S951.903,489.186,945,489.186z"/>
	</g>
	<g>
		<path fill="#637EA8" d="M1136.013,1166.186H793.374c-14.838,0-27.374-12.655-27.374-27.634v-97.423
			c0-14.856,12.28-26.943,27.374-26.943h342.639c15.133,0,26.987,11.834,26.987,26.943v97.423
			C1163,1153.789,1150.894,1166.186,1136.013,1166.186z M793.374,1039.186c-1.331,0-2.374,0.854-2.374,1.943v97.423
			c0,1.161,1.118,2.634,2.374,2.634h342.639c1.119,0,1.987-1.416,1.987-2.634v-97.423c0-0.939-0.522-1.943-1.987-1.943H793.374z"/>
	</g>
	<g>
		<path fill="#637EA8" d="M370.589,1166.186H27.95c-15.15,0-27.95-12.655-27.95-27.634v-97.423c0-14.856,12.538-26.943,27.95-26.943
			h342.639c15.114,0,27.411,12.086,27.411,26.943v97.423C398,1153.531,385.447,1166.186,370.589,1166.186z M27.95,1039.186
			c-1.704,0-2.95,1.278-2.95,1.943v97.423c0,0.944,1.487,2.634,2.95,2.634h342.639c1.276,0,2.411-1.473,2.411-2.634v-97.423
			c0-1.071-1.082-1.943-2.411-1.943H27.95z"/>
	</g>
</g>
</svg>
