<svg width="103" height="93" viewBox="0 0 103 93" fill="none" xmlns="http://www.w3.org/2000/svg">
<g clip-path="url(#clip0)">
<path d="M0.997225 92.7079C0.446517 92.7079 0 92.2627 0 91.7136V15.7158C0 15.1668 0.446517 14.7216 0.997225 14.7216H90.7076C91.2583 14.7216 91.7048 15.1668 91.7048 15.7158C91.7048 16.2649 91.2583 16.71 90.7076 16.71H1.99445V91.7136C1.99445 92.2627 1.54793 92.7079 0.997225 92.7079Z" fill="#2C3C68"/>
<path d="M90.7077 92.8272H1.03726C0.486556 92.8272 0.0400391 92.382 0.0400391 91.833C0.0400391 91.2839 0.486556 90.8387 1.03726 90.8387H90.7077C91.2584 90.8387 91.7049 91.2839 91.7049 91.833C91.7049 92.382 91.2584 92.8272 90.7077 92.8272Z" fill="#2C3C68"/>
<path d="M47.3483 53.2574C46.7976 53.2574 46.3511 52.8123 46.3511 52.2632V45.9798C46.3511 45.4307 46.7976 44.9855 47.3483 44.9855C47.899 44.9855 48.3455 45.4307 48.3455 45.9798V52.2632C48.3455 52.8123 47.899 53.2574 47.3483 53.2574Z" fill="#637EA8"/>
<path d="M24.8507 59.1432C24.3 59.1432 23.8535 58.698 23.8535 58.1489V52.5813C23.8535 52.0323 24.3 51.5871 24.8507 51.5871C25.4014 51.5871 25.848 52.0323 25.848 52.5813V58.1489C25.848 58.698 25.4014 59.1432 24.8507 59.1432Z" fill="#637EA8"/>
<path d="M69.8456 59.1432C69.2949 59.1432 68.8484 58.698 68.8484 58.1489V52.5813C68.8484 52.0323 69.2949 51.5871 69.8456 51.5871C70.3963 51.5871 70.8428 52.0323 70.8428 52.5813V58.1489C70.8428 58.698 70.3963 59.1432 69.8456 59.1432Z" fill="#637EA8"/>
<path d="M69.8058 53.4562H24.8908C24.3401 53.4562 23.8936 53.0111 23.8936 52.462C23.8936 51.9129 24.3401 51.4678 24.8908 51.4678H69.8058C70.3565 51.4678 70.803 51.9129 70.803 52.462C70.803 53.0111 70.3565 53.4562 69.8058 53.4562Z" fill="#637EA8"/>
<path d="M51.6163 27.7657H30.7145C30.1638 27.7657 29.7173 27.3206 29.7173 26.7715C29.7173 26.2225 30.1638 25.7773 30.7145 25.7773H51.6163C52.167 25.7773 52.6136 26.2225 52.6136 26.7715C52.6136 27.3206 52.167 27.7657 51.6163 27.7657Z" fill="#637EA8"/>
<path d="M64.0616 27.7657H56.3232C55.7724 27.7657 55.3259 27.3206 55.3259 26.7715C55.3259 26.2225 55.7724 25.7773 56.3232 25.7773H64.0616C64.6123 25.7773 65.0589 26.2225 65.0589 26.7715C65.0589 27.3206 64.6123 27.7657 64.0616 27.7657Z" fill="#637EA8"/>
<path d="M36.0596 78.6695H21.9389C21.3882 78.6695 20.9417 78.2245 20.9417 77.6753C20.9417 77.1262 21.3882 76.6811 21.9389 76.6811H36.0596C36.6103 76.6811 37.0568 77.1262 37.0568 77.6753C37.0568 78.2245 36.6103 78.6695 36.0596 78.6695Z" fill="#2C3C68"/>
<path d="M18.7478 78.6695H13.642C13.0913 78.6695 12.6448 78.2245 12.6448 77.6753C12.6448 77.1262 13.0913 76.6811 13.642 76.6811H18.7478C19.2985 76.6811 19.745 77.1262 19.745 77.6753C19.745 78.2245 19.2985 78.6695 18.7478 78.6695Z" fill="#2C3C68"/>
<path d="M81.0545 78.6695H67.0136C66.4629 78.6695 66.0164 78.2245 66.0164 77.6753C66.0164 77.1262 66.4629 76.6811 67.0136 76.6811H81.0545C81.6052 76.6811 82.0517 77.1262 82.0517 77.6753C82.0517 78.2245 81.6052 78.6695 81.0545 78.6695Z" fill="#2C3C68"/>
<path d="M63.8224 78.6695H58.557C58.0063 78.6695 57.5598 78.2245 57.5598 77.6753C57.5598 77.1262 58.0063 76.6811 58.557 76.6811H63.8224C64.3731 76.6811 64.8196 77.1262 64.8196 77.6753C64.8196 78.2245 64.3731 78.6695 63.8224 78.6695Z" fill="#2C3C68"/>
<path d="M21.8192 10.705C21.2685 10.705 20.822 10.2598 20.822 9.71078V1.2003C20.822 0.651255 21.2685 0.206085 21.8192 0.206085C22.37 0.206085 22.8165 0.651255 22.8165 1.2003V9.71078C22.8165 10.2598 22.37 10.705 21.8192 10.705Z" fill="#E8A15B"/>
<path d="M57.4145 46.8546H37.3162C36.1395 46.8546 35.1821 45.8618 35.1821 44.6414V33.938C35.1821 32.7274 36.1395 31.7425 37.3162 31.7425H57.4145C58.592 31.7425 59.5144 32.7069 59.5144 33.938V44.6414C59.5144 45.8825 58.592 46.8546 57.4145 46.8546ZM37.3162 33.731C37.2406 33.731 37.1766 33.8258 37.1766 33.938V44.6414C37.1766 44.7625 37.2533 44.8662 37.3162 44.8662H57.4145C57.4561 44.8662 57.52 44.7697 57.52 44.6414V33.938C57.52 33.838 57.4776 33.7309 57.4145 33.7309H37.3162V33.731Z" fill="#2C3C68"/>
<path d="M34.8812 72.3861H14.7829C13.6024 72.3861 12.605 71.3654 12.605 70.1573V59.4538C12.605 58.2519 13.582 57.274 14.7829 57.274H34.8812C36.059 57.274 37.017 58.2518 37.017 59.4538V70.1572C37.017 71.3862 36.0589 72.3861 34.8812 72.3861ZM14.7829 59.2625C14.6963 59.2625 14.5994 59.3443 14.5994 59.4539V70.1573C14.5994 70.2854 14.7138 70.3977 14.7829 70.3977H34.8812C34.9296 70.3977 35.0226 70.2962 35.0226 70.1573V59.4538C35.0226 59.361 34.9731 59.2624 34.8812 59.2624H14.7829V59.2625Z" fill="#637EA8"/>
<path d="M79.9477 72.3861H59.8493C58.6509 72.3861 57.5996 71.3446 57.5996 70.1573V59.4538C57.5996 58.2722 58.6299 57.274 59.8493 57.274H79.9477C81.1297 57.274 82.0914 58.2518 82.0914 59.4538V70.1572C82.0914 71.3862 81.1297 72.3861 79.9477 72.3861ZM59.8493 59.2625C59.731 59.2625 59.5941 59.3783 59.5941 59.4539V70.1573C59.5941 70.2539 59.7468 70.3977 59.8493 70.3977H79.9477C79.9988 70.3977 80.097 70.2962 80.097 70.1573V59.4538C80.097 59.3447 80.0328 59.2624 79.9477 59.2624H59.8493V59.2625Z" fill="#E8A15B"/>
<path d="M26.4464 10.705C25.8957 10.705 25.4492 10.2598 25.4492 9.71078V1.2003C25.4492 0.651255 25.8957 0.206085 26.4464 0.206085C26.9972 0.206085 27.4437 0.651255 27.4437 1.2003V9.71078C27.4437 10.2598 26.9972 10.705 26.4464 10.705Z" fill="#E8A15B"/>
<path d="M59.5544 10.705C59.0036 10.705 58.5571 10.2598 58.5571 9.71078V1.2003C58.5571 0.651255 59.0036 0.206085 59.5544 0.206085C60.1051 0.206085 60.5516 0.651255 60.5516 1.2003V9.71078C60.5516 10.2598 60.1051 10.705 59.5544 10.705Z" fill="#2C3C68"/>
<path d="M102.997 83.873C102.996 83.8407 102.994 83.8141 102.993 83.7935V8.54826C102.993 5.57126 102.053 3.31606 100.199 1.8451C96.6445 -0.974895 91.0778 0.262068 90.8426 0.316233C90.39 0.420268 90.0693 0.821931 90.0693 1.28508V77.1846C90.0693 77.4833 90.204 77.7661 90.4361 77.9549C90.6681 78.1438 90.9731 78.2184 91.2666 78.1587C92.7626 77.8534 97.0402 77.5197 98.8406 79.6137C100.983 82.1052 100.703 85.3722 100.7 85.4018C100.688 85.5222 100.698 85.6398 100.727 85.7505C100.711 85.8023 100.693 85.8546 100.675 85.9074H102.755C102.998 84.9567 103.008 84.2019 102.997 83.873ZM100.355 78.3197C98.6829 76.3749 95.9096 75.9465 93.7903 75.9465C93.135 75.9465 92.5421 75.9876 92.0637 76.0373V2.12165C93.5457 1.91787 96.826 1.7102 98.9572 3.40108C100.312 4.47579 100.999 6.20756 100.999 8.54826V79.164C100.806 78.8784 100.592 78.5959 100.355 78.3197Z" fill="#637EA8"/>
<path d="M90.7233 90.8114C90.1726 90.8114 89.7261 91.2565 89.7261 91.8056C89.7261 92.3547 90.1726 92.7998 90.7233 92.7998C94.2055 92.7998 97.0238 92.1378 99.0994 90.8321C100.704 89.8227 101.841 88.4604 102.478 86.7829C102.594 86.4778 102.684 86.1847 102.755 85.9074H100.675C100.655 85.964 100.635 86.021 100.613 86.0787C99.7928 88.2377 97.4112 90.8114 90.7233 90.8114Z" fill="#2C3C68"/>
<path d="M62.9745 10.7685C62.6208 10.7685 62.2782 10.5805 62.0975 10.2488C61.8345 9.76645 62.0136 9.16276 62.4975 8.90053L68.8312 5.46873L62.6936 2.15474H14.5994V9.71077C14.5994 10.2599 14.1529 10.705 13.6022 10.705C13.0515 10.705 12.605 10.2599 12.605 9.71077V1.16052C12.605 0.611475 13.0515 0.166306 13.6022 0.166306H62.9463C63.1122 0.166306 63.2754 0.207585 63.4213 0.286327L71.3973 4.59311C71.7189 4.76674 71.9194 5.10199 71.9196 5.46659C71.9198 5.83118 71.7199 6.16675 71.3986 6.34086L63.4499 10.6477C63.2986 10.7296 63.1354 10.7685 62.9745 10.7685Z" fill="#637EA8"/>
<path d="M62.9448 10.7448H13.5622C13.0115 10.7448 12.5649 10.2996 12.5649 9.75055C12.5649 9.2015 13.0115 8.75633 13.5622 8.75633H62.9448C63.4955 8.75633 63.942 9.2015 63.942 9.75055C63.942 10.2996 63.4955 10.7448 62.9448 10.7448Z" fill="#637EA8"/>
</g>
<defs>
<clipPath id="clip0">
<rect width="103" height="92.8272" fill="white"/>
</clipPath>
</defs>
</svg>
