<?xml version="1.0" encoding="utf-8"?>
<!-- Generator: Adobe Illustrator 17.0.0, SVG Export Plug-In . SVG Version: 6.00 Build 0)  -->
<!DOCTYPE svg PUBLIC "-//W3C//DTD SVG 1.1//EN" "http://www.w3.org/Graphics/SVG/1.1/DTD/svg11.dtd">
<svg version="1.1" id="Слой_2" xmlns="http://www.w3.org/2000/svg" xmlns:xlink="http://www.w3.org/1999/xlink" x="0px" y="0px"
	 width="1288px" height="1287px" viewBox="0 0 1288 1287" enable-background="new 0 0 1288 1287" xml:space="preserve">
<g>
	<path fill="#637EA8" d="M219,406H12.5C5.596,406,0,400.404,0,393.5v-159c0-6.904,5.596-12.5,12.5-12.5H309
		c6.903,0,12.5,5.596,12.5,12.5S315.903,247,309,247H25v134h194c6.903,0,12.5,5.596,12.5,12.5S225.903,406,219,406z"/>
</g>
<g>
	<path fill="#637EA8" d="M1069.5,406H1276c6.904,0,12-5.596,12-12.5v-159c0-6.904-5.096-12.5-12-12.5H979.5
		c-6.903,0-12.5,5.596-12.5,12.5s5.597,12.5,12.5,12.5H1263v134h-193.5c-6.903,0-12.5,5.596-12.5,12.5S1062.597,406,1069.5,406z"/>
</g>
<g>
	<path fill="none" stroke="#000000" stroke-width="25" stroke-linecap="round" stroke-linejoin="round" stroke-miterlimit="10" d="
		M219.156,394.178"/>
</g>
<g>
	<path fill="#637EA8" d="M1187.5,1208h-366c-6.903,0-12.5-5.596-12.5-12.5v-408c0-6.904,5.597-12.5,12.5-12.5h366
		c6.903,0,12.5,5.596,12.5,12.5v408C1200,1202.404,1194.403,1208,1187.5,1208z M834,1183h341V800H834V1183z"/>
</g>
<g>
	<path fill="#E8A15B" d="M473.5,1208h-365c-6.903,0-12.5-5.596-12.5-12.5v-169c0-6.904,5.597-12.5,12.5-12.5h365
		c6.903,0,12.5,5.596,12.5,12.5v169C486,1202.404,480.403,1208,473.5,1208z M121,1183h340v-144H121V1183z"/>
</g>
<g>
	<path fill="#E8A15B" d="M712,431H574c-6.903,0-12.5-5.596-12.5-12.5S567.097,406,574,406h138c6.903,0,12.5,5.596,12.5,12.5
		S718.903,431,712,431z"/>
</g>
<g>
	<path fill="#E8A15B" d="M712,506H574c-6.903,0-12.5-5.596-12.5-12.5S567.097,481,574,481h138c6.903,0,12.5,5.596,12.5,12.5
		S718.903,506,712,506z"/>
</g>
<g>
	<path fill="#637EA8" d="M712,1036H574c-6.903,0-12.5-5.596-12.5-12.5s5.597-12.5,12.5-12.5h138c6.903,0,12.5,5.596,12.5,12.5
		S718.903,1036,712,1036z"/>
</g>
<g>
	<path fill="#637EA8" d="M473.5,965h-365c-6.903,0-12.5-5.596-12.5-12.5v-169c0-6.904,5.597-12.5,12.5-12.5h365
		c6.903,0,12.5,5.596,12.5,12.5v169C486,959.404,480.403,965,473.5,965z M121,940h340V796H121V940z"/>
</g>
<g>
	<path fill="#637EA8" d="M473.5,724h-365c-6.903,0-12.5-5.596-12.5-12.5v-167c0-6.904,5.597-12.5,12.5-12.5H304
		c6.903,0,12.5,5.596,12.5,12.5S310.903,557,304,557H121v142h340v-2c0-6.904,5.597-12.5,12.5-12.5S486,690.096,486,697v14.5
		C486,718.404,480.403,724,473.5,724z"/>
</g>
<g>
	<path fill="#2C3C68" d="M1275.5,1287H12.5c-6.904,0-12.5-5.596-12.5-12.5v-817c0-6.904,5.596-12.5,12.5-12.5H219
		c6.903,0,12.5,5.596,12.5,12.5S225.903,470,219,470H25v792h1238V470h-192c-6.903,0-12.5-5.596-12.5-12.5s5.597-12.5,12.5-12.5
		h204.5c6.903,0,12.5,5.596,12.5,12.5v817C1288,1281.404,1282.403,1287,1275.5,1287z"/>
</g>
<g>
	<path fill="none" stroke="#000000" stroke-width="25" stroke-linecap="round" stroke-linejoin="round" stroke-miterlimit="10" d="
		M1071.271,456.793"/>
</g>
<g>
	<path fill="none" stroke="#000000" stroke-width="25" stroke-linecap="round" stroke-linejoin="round" stroke-miterlimit="10" d="
		M219.183,456.793"/>
</g>
<g>
	<path fill="#2C3C68" d="M119,327H86c-6.904,0-12.5-5.596-12.5-12.5S79.096,302,86,302h33c6.903,0,12.5,5.596,12.5,12.5
		S125.903,327,119,327z"/>
</g>
<g>
	<path fill="#2C3C68" d="M211,327h-32c-6.903,0-12.5-5.596-12.5-12.5S172.097,302,179,302h32c6.903,0,12.5,5.596,12.5,12.5
		S217.903,327,211,327z"/>
</g>
<g>
	<g>
		<path fill="#2C3C68" d="M642.738,1220c-4.563,0-8.765-2.575-10.96-6.578l-69.761-127.237c-3.319-6.053-1.104-13.673,4.949-16.993
			c6.049-3.319,13.649-1.116,16.971,4.938l58.75,107.111L700,1075.757V301H574c-6.903,0-12.5-5.596-12.5-12.5S567.097,276,574,276
			h138.5c6.903,0,12.5,5.596,12.5,12.5v790.433c0,2.085-0.521,4.136-1.517,5.968l-69.762,128.478
			c-2.184,4.018-6.386,6.62-10.959,6.62C642.755,1220,642.746,1220,642.738,1220z"/>
	</g>
</g>
<g>
	<g>
		<path fill="#2C3C68" d="M573.5,1091.5c-6.903,0-12.5-5.596-12.5-12.5V289c0-6.904,5.597-12.5,12.5-12.5S586,282.096,586,289v790
			C586,1085.904,580.403,1091.5,573.5,1091.5z"/>
	</g>
</g>
<g id="_x33__3_">
	<g>
		<g>
			<path fill="#E8A15B" d="M892.682,233.422c-2.396,0-4.819-0.688-6.958-2.125c-5.731-3.849-7.256-11.616-3.406-17.346l37.55-55.9
				l-57.948-57.949l-56.108,37.406c-5.745,3.831-13.506,2.276-17.334-3.467c-3.83-5.744-2.277-13.505,3.467-17.334l64.635-43.09
				c4.956-3.305,11.559-2.652,15.772,1.562l72.467,72.467c4.225,4.225,4.869,10.849,1.537,15.809l-43.285,64.438
				C900.657,231.482,896.706,233.422,892.682,233.422z"/>
		</g>
		<g>
			<path fill="#E8A15B" d="M420.424,684.542c-3.226,0-6.427-1.245-8.843-3.661l-72.467-72.467
				c-4.216-4.216-4.867-10.823-1.557-15.781l43.314-64.859c3.834-5.74,11.595-7.288,17.338-3.453
				c5.741,3.834,7.287,11.596,3.453,17.337l-37.619,56.33l57.939,57.94l56.012-37.657c5.729-3.852,13.496-2.33,17.348,3.399
				c3.853,5.729,2.33,13.496-3.398,17.348l-64.55,43.397C425.271,683.843,422.84,684.542,420.424,684.542z"/>
		</g>
		<g>
			<g>
				<path fill="#E8A15B" d="M798.553,141.245c-2.278,0-4.584-0.622-6.653-1.927c-26.848-16.922-56.193-29.088-87.223-36.161
					c-6.73-1.534-10.943-8.235-9.409-14.966c1.535-6.732,8.236-10.942,14.966-9.409c33.791,7.703,65.753,20.954,94.996,39.387
					c5.841,3.681,7.591,11.4,3.909,17.24C806.763,139.179,802.703,141.245,798.553,141.245z"/>
			</g>
			<g>
				<path fill="#E8A15B" d="M486.596,140.178c-4.181,0-8.265-2.096-10.632-5.909c-3.641-5.865-1.838-13.572,4.027-17.213
					c28.233-17.526,58.997-30.265,91.438-37.863c6.72-1.574,13.446,2.599,15.021,9.32c1.574,6.722-2.599,13.447-9.32,15.021
					c-29.788,6.977-58.034,18.673-83.953,34.762C491.124,139.57,488.846,140.178,486.596,140.178z"/>
			</g>
			<g>
				<path fill="#E8A15B" d="M355.093,322.819c-0.948,0-1.911-0.109-2.875-0.335c-6.72-1.582-10.885-8.312-9.303-15.032
					c7.717-32.784,20.68-63.837,38.527-92.296c3.668-5.849,11.383-7.616,17.231-3.948c5.849,3.668,7.616,11.383,3.948,17.231
					c-16.385,26.126-28.286,54.637-35.373,84.741C365.895,318.937,360.761,322.819,355.093,322.819z"/>
			</g>
			<g>
				<path fill="#E8A15B" d="M390.856,544.95c-4.193,0-8.29-2.11-10.652-5.942c-18.274-29.643-30.644-59.925-37.815-92.577
					c-1.481-6.743,2.784-13.41,9.527-14.891c6.747-1.48,13.41,2.785,14.891,9.527c6.65,30.279,17.67,57.231,34.679,84.822
					c3.623,5.876,1.796,13.577-4.081,17.2C395.36,544.349,393.094,544.95,390.856,544.95z"/>
			</g>
			<g>
				<path fill="#E8A15B" d="M891.831,546.166c-2.258,0-4.543-0.611-6.601-1.894c-5.858-3.652-7.647-11.361-3.996-17.22
					c18.127-29.082,29.573-56.44,36.021-86.096c1.467-6.746,8.121-11.026,14.871-9.559c6.746,1.467,11.025,8.125,9.559,14.871
					c-7.077,32.545-19.544,62.417-39.234,94.008C900.081,544.078,896.003,546.166,891.831,546.166z"/>
			</g>
			<g>
				<path fill="#E8A15B" d="M929.343,324.684c-5.75,0-10.926-3.991-12.201-9.839c-6.515-29.872-18.091-57.384-36.433-86.582
					c-3.672-5.846-1.91-13.562,3.936-17.234c5.847-3.671,13.562-1.91,17.234,3.936c19.928,31.723,32.539,61.768,39.688,94.553
					c1.471,6.745-2.805,13.405-9.55,14.876C931.121,324.59,930.225,324.684,929.343,324.684z"/>
			</g>
		</g>
		<g>
			<path fill="#E8A15B" d="M863.137,684.113c-2.414,0-4.842-0.697-6.965-2.123l-64.395-43.241
				c-5.731-3.849-7.257-11.615-3.408-17.346c3.849-5.731,11.612-7.257,17.346-3.409l55.857,37.509l57.952-57.952l-37.321-56.021
				c-3.828-5.745-2.273-13.506,3.472-17.333c5.747-3.828,13.506-2.272,17.333,3.472l43.002,64.546
				c3.304,4.958,2.648,11.557-1.563,15.769l-72.467,72.467C869.563,682.868,866.362,684.113,863.137,684.113z"/>
		</g>
		<g>
			<path fill="#E8A15B" d="M391.035,233.149c-4.022,0-7.971-1.937-10.384-5.525L337.21,163.03
				c-3.336-4.96-2.693-11.588,1.533-15.815l72.467-72.467c4.218-4.217,10.825-4.867,15.784-1.554l64.946,43.402
				c5.74,3.836,7.283,11.598,3.447,17.338c-3.835,5.739-11.598,7.284-17.338,3.448l-56.416-37.702l-57.937,57.937l37.698,56.055
				c3.853,5.729,2.332,13.496-3.396,17.348C395.859,232.46,393.434,233.149,391.035,233.149z"/>
		</g>
		<g>
			<path fill="#E8A15B" d="M575.711,101.59c-0.809,0-1.629-0.079-2.452-0.243c-6.771-1.347-11.168-7.927-9.821-14.698l15.234-76.588
				C579.835,4.213,584.968,0,590.932,0h102.484c5.978,0,11.118,4.232,12.267,10.098l14.957,76.379
				c1.327,6.775-3.09,13.342-9.864,14.669c-6.77,1.325-13.343-3.089-14.669-9.865L683.126,25H601.19l-13.233,66.526
				C586.774,97.474,581.552,101.59,575.711,101.59z"/>
		</g>
		<g>
			<path fill="#E8A15B" d="M931.043,456.546c-5.857,0-11.087-4.137-12.254-10.102c-1.325-6.775,3.092-13.342,9.867-14.668
				L995,418.795v-81.931l-66.651-13.236c-6.771-1.344-11.171-7.924-9.826-14.695c1.345-6.772,7.926-11.171,14.695-9.826
				l76.717,15.234c5.851,1.162,10.065,6.296,10.065,12.26v102.484c0,5.978-4.232,11.119-10.1,12.267l-76.443,14.957
				C932.646,456.47,931.839,456.546,931.043,456.546z"/>
		</g>
		<g>
			<path fill="#E8A15B" d="M353.794,456.546c-0.798,0-1.606-0.077-2.419-0.236l-76.28-14.957c-5.864-1.15-10.095-6.29-10.095-12.266
				V326.603c0-5.961,4.209-11.093,10.056-12.259l76.391-15.234c6.763-1.349,13.354,3.043,14.703,9.814
				c1.35,6.77-3.044,13.353-9.814,14.703L290,336.856V418.8l66.186,12.978c6.774,1.328,11.189,7.897,9.861,14.672
				C364.878,452.411,359.648,456.546,353.794,456.546z"/>
		</g>
		<g>
			<path fill="#637EA8" d="M821.326,198.667c-47.64-47.64-110.98-73.876-178.353-73.876c-67.373,0-130.714,26.236-178.354,73.876
				s-73.876,110.98-73.876,178.353c0,67.373,26.236,130.713,73.876,178.353c19.982,19.982,42.734,36.182,67.38,48.277v-28.236
				c-17.993-10.1-34.712-22.729-49.702-37.719c-88.597-88.597-88.597-232.754,0-321.351c42.918-42.918,99.98-66.554,160.676-66.554
				c60.694,0,117.757,23.636,160.675,66.554s66.554,99.98,66.554,160.676c0,60.695-23.636,117.757-66.554,160.675
				c-15.838,15.838-33.607,29.041-52.77,39.409c-0.103,9.331-0.042,18.664,0.093,27.999c25.794-12.235,49.57-28.944,70.355-49.73
				c47.64-47.64,73.876-110.98,73.876-178.353C895.202,309.647,868.966,246.307,821.326,198.667z"/>
		</g>
		<g>
			<path fill="#2C3C68" d="M857.157,193.74c-3.199,0-6.398-1.22-8.839-3.661l-17.456-17.457c-4.882-4.882-4.882-12.796,0-17.678
				s12.798-4.881,17.678,0l17.456,17.457c4.882,4.882,4.882,12.796,0,17.678C863.556,192.519,860.355,193.74,857.157,193.74z"/>
		</g>
		<g>
			<path fill="#2C3C68" d="M444.595,606.302c-3.199,0-6.398-1.22-8.839-3.661l-17.457-17.457c-4.882-4.882-4.882-12.796,0-17.678
				c4.881-4.881,12.797-4.881,17.678,0l17.457,17.457c4.882,4.882,4.882,12.796,0,17.678
				C450.993,605.082,447.794,606.302,444.595,606.302z"/>
		</g>
		<g>
			<path fill="#2C3C68" d="M427.138,192.576c-3.199,0-6.398-1.22-8.839-3.661c-4.882-4.882-4.882-12.796,0-17.678l16.875-16.875
				c4.881-4.881,12.797-4.881,17.678,0c4.882,4.882,4.882,12.796,0,17.678l-16.875,16.875
				C433.536,191.355,430.337,192.576,427.138,192.576z"/>
		</g>
		<g>
			<path fill="#2C3C68" d="M840.283,605.72c-3.199,0-6.397-1.22-8.839-3.661c-4.882-4.882-4.882-12.796,0-17.678l16.874-16.875
				c4.881-4.882,12.795-4.882,17.678,0c4.882,4.882,4.882,12.796,0,17.678l-16.874,16.875
				C846.682,604.5,843.482,605.72,840.283,605.72z"/>
		</g>
		<g>
			<path fill="#2C3C68" d="M654,100h-25c-6.903,0-12.5-5.596-12.5-12.5S622.097,75,629,75h25c6.903,0,12.5,5.596,12.5,12.5
				S660.903,100,654,100z"/>
		</g>
		<g>
			<path fill="#2C3C68" d="M350.5,401.5c-6.903,0-12.5-5.596-12.5-12.5v-23c0-6.904,5.597-12.5,12.5-12.5S363,359.096,363,366v23
				C363,395.904,357.403,401.5,350.5,401.5z"/>
		</g>
		<g>
			<path fill="#2C3C68" d="M934.5,401.5c-6.903,0-12.5-5.596-12.5-12.5v-23c0-6.904,5.597-12.5,12.5-12.5S947,359.096,947,366v23
				C947,395.904,941.403,401.5,934.5,401.5z"/>
		</g>
	</g>
	<g id="_x31__5_">
		<g>
			<path fill="#E8A15B" d="M921.874,510.204"/>
		</g>
		<g>
			<path fill="#E8A15B" d="M519.388,107.717"/>
		</g>
		<g>
			<path fill="#E8A15B" d="M419.573,683.694c-3.199,0-6.398-1.22-8.839-3.661l-62.845-62.844c-4.882-4.882-4.882-12.796,0-17.678
				c4.881-4.881,12.797-4.881,17.678,0l62.845,62.844c4.882,4.882,4.882,12.796,0,17.678
				C425.972,682.474,422.772,683.694,419.573,683.694z"/>
		</g>
	</g>
</g>
</svg>
