<svg width="81" height="85" viewBox="0 0 81 85" fill="none" xmlns="http://www.w3.org/2000/svg">
<path d="M5.97924 16.203C5.58624 16.329 5.32324 16.691 5.32324 17.103V35.846C5.32324 59.968 22.3332 71.833 32.4732 76.759C32.6032 76.822 32.7422 76.854 32.8852 76.854C33.2502 76.854 33.5762 76.65 33.7362 76.322C33.8472 76.095 33.8622 75.838 33.7792 75.6C33.6962 75.362 33.5262 75.169 33.2992 75.059C23.5562 70.326 7.21324 58.939 7.21324 35.847V18.01V17.791L7.42124 17.724L34.8342 8.91301V6.92801L5.97924 16.203Z" fill="#637EA8"/>
<path d="M57.2639 67.744C61.3789 63.928 64.6289 59.581 66.9239 54.824C69.6899 49.092 71.0919 42.707 71.0919 35.846V17.103C71.0919 16.691 70.8279 16.33 70.4359 16.203L43.8159 7.64601C43.7219 7.61601 43.6249 7.60001 43.5259 7.60001C43.1139 7.60001 42.7529 7.86401 42.6269 8.25601C42.4669 8.75201 42.7409 9.28601 43.2369 9.44501L68.9929 17.724L69.2009 17.791V18.01V35.846C69.2009 47.955 64.7519 58.221 55.9779 66.358C50.8849 71.081 45.3309 74.084 41.5879 75.768V77.835C45.6629 76.08 51.6989 72.905 57.2639 67.744Z" fill="#E8A15B"/>
<path d="M57.423 74.517C62.93 70.19 67.321 65.142 70.473 59.514C74.416 52.472 76.416 44.51 76.416 35.846V13.222C76.416 12.81 76.152 12.448 75.76 12.322L38.497 0.344988C38.404 0.314988 38.306 0.299988 38.207 0.299988C38.109 0.299988 38.011 0.314988 37.918 0.344988L0.656 12.323C0.264 12.449 0 12.81 0 13.222V35.846C0 44.509 2 52.472 5.943 59.514C9.095 65.142 13.485 70.19 18.993 74.517C28.342 81.863 37.561 84.553 37.949 84.664C38.033 84.688 38.121 84.7 38.208 84.7C38.296 84.7 38.384 84.688 38.468 84.664C38.855 84.553 48.074 81.863 57.423 74.517ZM37.262 61.131V82.026V82.453L36.861 82.308C34.129 81.323 27.027 78.442 20.092 72.976C14.799 68.804 10.584 63.948 7.567 58.544C3.8 51.8 1.891 44.163 1.891 35.846V14.13V13.911L2.099 13.844L36.871 2.66799L37.263 2.54199V2.95399V5.92999V6.14899L37.246 6.15399V8.13899L37.263 8.13399V8.54599V18.547C37.263 19.068 37.687 19.492 38.208 19.492C38.729 19.492 39.153 19.068 39.153 18.547V2.95299V2.54199L39.545 2.66799L74.317 13.845L74.525 13.912V14.131V35.847C74.525 44.164 72.615 51.801 68.849 58.545C65.831 63.95 61.617 68.805 56.324 72.977C49.389 78.443 42.287 81.324 39.555 82.309L39.154 82.454V82.027V79.026V78.818L39.178 78.809V76.787L39.153 76.797V76.354V61.131C39.153 60.61 38.729 60.186 38.208 60.186C37.687 60.186 37.262 60.61 37.262 61.131Z" fill="#3F496A"/>
<path d="M50.5701 39.839C50.5701 40.785 49.8001 41.555 48.8541 41.555H27.5611C26.6151 41.555 25.8451 40.785 25.8451 39.839V32.79H23.9551V39.838C23.9551 41.387 24.9431 42.76 26.4121 43.256L26.6161 43.325V43.54V45.161C26.6161 45.682 27.0401 46.106 27.5611 46.106C28.0821 46.106 28.5061 45.682 28.5061 45.161V43.745V43.445H28.8061H47.6091H47.9091V43.745V45.161C47.9091 45.682 48.3331 46.106 48.8541 46.106C49.3751 46.106 49.7991 45.682 49.7991 45.161V43.54V43.324L50.0031 43.255C51.4731 42.759 52.4611 41.386 52.4611 39.837V32.79H50.5701V39.839Z" fill="#E8A15B"/>
<path d="M57.7839 51.816V33.185C57.7839 30.462 55.5689 28.247 52.8459 28.247H45.6309H45.4449L45.3619 28.081L44.1479 25.653C43.3069 23.97 41.6139 22.924 39.7319 22.924H36.6819C34.7999 22.924 33.1079 23.97 32.2659 25.653L31.0519 28.081L30.9689 28.247H30.7829H23.5679C20.8449 28.247 18.6299 30.462 18.6299 33.185V51.816C18.6299 54.539 20.8449 56.754 23.5679 56.754H52.8449C55.5689 56.753 57.7839 54.539 57.7839 51.816ZM33.2999 27.813L33.9569 26.499C34.4769 25.46 35.5209 24.814 36.6829 24.814H39.7329C40.8949 24.814 41.9399 25.46 42.4589 26.498L43.1159 27.812L43.3329 28.246H42.8479H33.5689H33.0839L33.2999 27.813ZM20.5219 51.816V33.185C20.5219 31.505 21.8889 30.137 23.5689 30.137H23.6549H23.6779V30.134H52.9019V30.143C54.5559 30.174 55.8939 31.524 55.8939 33.185V51.816C55.8939 53.496 54.5269 54.864 52.8469 54.864H23.5689C21.8889 54.863 20.5219 53.496 20.5219 51.816Z" fill="#3F496A"/>
<path d="M34.834 6.92802V8.91401L36.871 8.25902L37.246 8.13801V6.15302L37.054 6.21502L34.834 6.92802Z" fill="#637EA8"/>
<path d="M41.5892 77.835V75.768C40.8362 76.107 40.1512 76.397 39.5642 76.632L39.1782 76.787V78.809L39.3472 78.745C39.9962 78.5 40.7542 78.195 41.5892 77.835Z" fill="#E8A15B"/>
<path d="M23.9552 30.437V32.79H25.8452V30.437V30.137H26.1452H50.2712H50.5712V30.437V32.79H52.4622V30.437V30.137H52.7622H52.8472C52.8662 30.137 52.8842 30.142 52.9032 30.143V30.134H23.6782V30.137H23.9552V30.437Z" fill="#E8A15B"/>
</svg>
