<svg version="1.1" xmlns="http://www.w3.org/2000/svg" xmlns:xlink="http://www.w3.org/1999/xlink" x="0px" y="0px"
	 width="1287px" height="1288px" viewBox="0 0 1287 1288" enable-background="new 0 0 1287 1288" xml:space="preserve">
<g>
	<path fill="#637EA8" d="M1218.674,1168H1154c-6.904,0-12.5-5.596-12.5-12.5s5.596-12.5,12.5-12.5h64.674
		c23.89,0,43.326-19.27,43.326-42.957V68.407C1262,44.472,1242.564,25,1218.674,25H191.391c-24.172,0-43.837,19.472-43.837,43.407
		c0,6.904-5.597,12.5-12.5,12.5c-6.904,0-12.5-5.596-12.5-12.5c0-37.72,30.88-68.407,68.837-68.407h1027.283
		C1256.349,0,1287,30.687,1287,68.407v1031.636C1287,1137.515,1256.349,1168,1218.674,1168z"/>
</g>
<g>
	<path fill="#637EA8" d="M132.5,142.5c-6.904,0-12.5-5.596-12.5-12.5V74c0-6.904,5.596-12.5,12.5-12.5S145,67.096,145,74v56
		C145,136.904,139.404,142.5,132.5,142.5z"/>
</g>
<g>
	<path fill="#637EA8" d="M1149,315H14c-6.904,0-12.5-5.596-12.5-12.5S7.096,290,14,290h1135c6.904,0,12.5,5.596,12.5,12.5
		S1155.904,315,1149,315z"/>
</g>
<g>
	<path fill="#E8A15B" d="M112,231H83c-6.904,0-12.5-5.596-12.5-12.5S76.096,206,83,206h29c6.904,0,12.5,5.596,12.5,12.5
		S118.904,231,112,231z"/>
</g>
<g>
	<path fill="#E8A15B" d="M200,231h-31c-6.904,0-12.5-5.596-12.5-12.5S162.096,206,169,206h31c6.904,0,12.5,5.596,12.5,12.5
		S206.904,231,200,231z"/>
</g>
<g>
	<path fill="#E8A15B" d="M286,231h-29c-6.904,0-12.5-5.596-12.5-12.5S250.096,206,257,206h29c6.904,0,12.5,5.596,12.5,12.5
		S292.904,231,286,231z"/>
</g>
<g>
	<path fill="#E8A15B" d="M1023,1161H133c-6.904,0-12.5-5.596-12.5-12.5s5.596-12.5,12.5-12.5h890c6.904,0,12.5,5.596,12.5,12.5
		S1029.904,1161,1023,1161z"/>
</g>
<g>
	<path fill="#637EA8" d="M1025,1046H134c-6.904,0-12.5-5.596-12.5-12.5s5.596-12.5,12.5-12.5h891c6.904,0,12.5,5.596,12.5,12.5
		S1031.904,1046,1025,1046z"/>
</g>
<g>
	<path fill="#637EA8" d="M1035.5,1064.5"/>
</g>
<g>
	<path fill="none" stroke="#000000" stroke-width="25" stroke-linecap="round" stroke-linejoin="round" stroke-miterlimit="10" d="
		M151.527,1064.5"/>
</g>
<g>
	<path fill="#637EA8" d="M1025,931H642c-6.903,0-12.5-5.596-12.5-12.5S635.097,906,642,906h383c6.903,0,12.5,5.596,12.5,12.5
		S1031.903,931,1025,931z"/>
</g>
<g>
	<path fill="#637EA8" d="M1035.5,949.5"/>
</g>
<g>
	<path fill="none" stroke="#000000" stroke-width="25" stroke-linecap="round" stroke-linejoin="round" stroke-miterlimit="10" d="
		M520,949.5"/>
</g>
<g>
	<path fill="none" stroke="#000000" stroke-width="25" stroke-linecap="round" stroke-linejoin="round" stroke-miterlimit="10" d="
		M322.122,489.652"/>
</g>
<g>
	<path fill="none" stroke="#000000" stroke-width="25" stroke-linecap="round" stroke-linejoin="round" stroke-miterlimit="10" d="
		M321.174,489.535"/>
</g>
<g>
	<path fill="none" stroke="#000000" stroke-width="25" stroke-linecap="round" stroke-linejoin="round" stroke-miterlimit="10" d="
		M321.5,489"/>
</g>
<g>
	<path fill="#E8A15B" d="M129.504,900.5c-3.429,0-6.843-1.402-9.312-4.156c-4.608-5.14-4.177-13.043,0.963-17.651l116-104
		c3.914-3.51,9.606-4.195,14.242-1.714l80.014,42.819l102.821-73.469c4.258-3.043,9.961-3.111,14.292-0.169l92,62.5
		c5.71,3.879,7.195,11.654,3.315,17.364s-11.653,7.195-17.364,3.315l-84.795-57.606l-102.052,72.919
		c-3.87,2.765-8.973,3.094-13.165,0.851l-79.139-42.351l-109.479,98.154C135.458,899.447,132.476,900.5,129.504,900.5z"/>
</g>
<g>
	<path fill="#637EA8" d="M1033.5,608h-904c-6.904,0-12.5-5.596-12.5-12.5v-197c0-6.904,5.596-12.5,12.5-12.5h904
		c6.904,0,12.5,5.596,12.5,12.5v197C1046,602.404,1040.404,608,1033.5,608z M142,583h879V411H142V583z"/>
</g>
<g>
	<path fill="#2C3C68" d="M1095.674,1288H68.391C30.68,1288,0,1257.515,0,1220.043V188.407C0,150.687,30.68,120,68.391,120h1027.283
		c37.675,0,68.326,30.687,68.326,68.407v1031.636C1164,1257.515,1133.349,1288,1095.674,1288z M68.391,145
		C44.465,145,25,164.472,25,188.407v1031.636C25,1243.73,44.465,1263,68.391,1263h1027.283c23.89,0,43.326-19.27,43.326-42.957
		V188.407c0-23.935-19.436-43.407-43.326-43.407H68.391z"/>
</g>
<g>
	<path fill="#E8A15B" d="M546,917.5c0,6.904-5.596,12.5-12.5,12.5h-404c-6.904,0-12.5-5.596-12.5-12.5v-243
		c0-6.904,5.596-12.5,12.5-12.5h404c6.904,0,12.5,5.596,12.5,12.5V917.5z M142,905h379V687H142V905z"/>
</g>
<g>
	<path fill="#2C3C68" d="M1033.5,824h-392c-6.904,0-12.5-5.596-12.5-12.5v-137c0-6.904,5.596-12.5,12.5-12.5h392
		c6.904,0,12.5,5.596,12.5,12.5v137C1046,818.404,1040.404,824,1033.5,824z M654,799h367V687H654V799z"/>
</g>
</svg>