<svg version="1.1" xmlns="http://www.w3.org/2000/svg" xmlns:xlink="http://www.w3.org/1999/xlink" x="0px" y="0px"
	 width="997px" height="1162px" viewBox="0 0 997 1162" enable-background="new 0 0 997 1162" xml:space="preserve">
<g id="_x32__1_">
	<g>
		<g>
			<path fill="#2C3C68" d="M12.5,1033.5c-6.904,0-12.5-5.597-12.5-12.5V770.525c0-2.192,0.267-53.957,23.504-76.657
				c14.816-14.474,47.059-31.03,95.83-49.208c35.518-13.238,66.474-22.375,67.774-22.758c6.625-1.947,13.571,1.842,15.519,8.464
				s-1.841,13.571-8.464,15.52c-34.138,10.045-128.206,41.459-153.189,65.865C29.956,722.514,25,752.6,25,770.525V1021
				C25,1027.903,19.403,1033.5,12.5,1033.5z"/>
		</g>
		<g>
			<path fill="#2C3C68" d="M633.759,690.863c-1.836,0-3.7-0.406-5.461-1.264c-47.625-23.182-117.236-43.866-117.934-44.072
				c-6.62-1.957-10.401-8.91-8.444-15.53c1.957-6.621,8.908-10.398,15.53-8.445c2.928,0.865,72.275,21.467,121.79,45.568
				c6.208,3.021,8.79,10.503,5.769,16.71C642.844,688.277,638.392,690.863,633.759,690.863z"/>
		</g>
		<g>
			<path fill="#E8A15B" d="M380,766h-64c-6.904,0-12.5-5.596-12.5-12.5S309.096,741,316,741h64c6.904,0,12.5,5.596,12.5,12.5
				S386.904,766,380,766z"/>
		</g>
		<g>
			<path fill="#637EA8" d="M132.5,1033.5c-6.904,0-12.5-5.597-12.5-12.5V848c0-6.904,5.596-12.5,12.5-12.5S145,841.096,145,848v173
				C145,1027.903,139.404,1033.5,132.5,1033.5z"/>
		</g>
		<g>
			<path fill="#2C3C68" d="M304.262,1031.41c-0.183,0-0.366-0.004-0.551-0.012c-6.897-0.299-12.246-6.133-11.946-13.03
				l14.059-324.07c0.299-6.896,6.129-12.241,13.03-11.946c6.897,0.299,12.246,6.133,11.946,13.03l-14.059,324.07
				C316.45,1026.164,310.916,1031.41,304.262,1031.41z"/>
		</g>
		<g>
			<path fill="#E8A15B" d="M461.5,584.5c-6.904,0-12.5-5.596-12.5-12.5v-56c0-6.904,5.596-12.5,12.5-12.5S474,509.096,474,516v56
				C474,578.904,468.404,584.5,461.5,584.5z"/>
		</g>
		<g>
			<path fill="#E8A15B" d="M228.5,584.5c-6.904,0-12.5-5.596-12.5-12.5v-56c0-6.904,5.596-12.5,12.5-12.5S241,509.096,241,516v56
				C241,578.904,235.404,584.5,228.5,584.5z"/>
		</g>
		<g>
			<path fill="#2C3C68" d="M209.893,265.369c-6.344,0-11.778-4.81-12.423-11.256c-0.064-0.641-1.571-15.875-1.7-31.89
				c-0.194-24.058,2.267-41.023,14.906-45.619c14.99-5.45,94.141-23.896,152.183-15.753c59.619,8.368,136.079,59.313,139.304,61.477
				c5.732,3.847,7.261,11.612,3.414,17.345c-3.847,5.732-11.613,7.261-17.345,3.414c-0.741-0.497-74.941-49.913-128.848-57.478
				c-50.007-7.02-118.482,7.929-137.02,13.471c-2.098,7.904-2.174,30.929-0.019,52.547c0.685,6.869-4.328,12.993-11.196,13.679
				C210.728,265.349,210.308,265.369,209.893,265.369z"/>
		</g>
		<g>
			
				<path fill="none" stroke="#000000" stroke-width="25" stroke-linecap="round" stroke-linejoin="round" stroke-miterlimit="10" d="
				M664.89,610.459"/>
		</g>
		<g>
			<path fill="#2C3C68" d="M391.623,1031.41c-6.654,0-12.188-5.245-12.479-11.958l-14.059-324.07
				c-0.299-6.897,5.049-12.73,11.946-13.03c6.904-0.305,12.731,5.05,13.03,11.946l14.059,324.07
				c0.299,6.897-5.049,12.731-11.946,13.03C391.989,1031.406,391.805,1031.41,391.623,1031.41z"/>
		</g>
		<g>
			<g>
				<path fill="#637EA8" d="M266.362,756.673c-0.423,0-0.847-0.021-1.271-0.065c-3.669-0.375-6.985-2.35-9.061-5.398
					l-83.672-122.846c-3.546-5.206-2.665-12.237,2.058-16.407l47.38-41.836c4.322-3.817,10.694-4.182,15.424-0.882l119.963,83.672
					c3.063,2.136,5.01,5.53,5.309,9.252c0.299,3.722-1.083,7.383-3.765,9.98l-83.671,81.01
					C272.713,755.422,269.59,756.673,266.362,756.673z M199.226,623.401l69.108,101.464l62.104-60.128l-99.459-69.372
					L199.226,623.401z"/>
			</g>
			<g>
				<path fill="#637EA8" d="M431.183,756.673c-3.228,0-6.351-1.251-8.694-3.52l-83.671-81.01c-2.683-2.598-4.064-6.258-3.765-9.98
					c0.299-3.723,2.246-7.116,5.309-9.252l119.963-83.672c4.73-3.3,11.102-2.933,15.424,0.882l47.38,41.836
					c4.722,4.169,5.604,11.201,2.058,16.407L441.515,751.21c-2.076,3.048-5.392,5.024-9.061,5.398
					C432.03,756.652,431.605,756.673,431.183,756.673z M367.108,664.736l62.104,60.129l69.108-101.464l-31.752-28.036
					L367.108,664.736z"/>
			</g>
		</g>
	</g>
	<g>
		<g>
			<path fill="#E8A15B" d="M348.773,463.208c-6.903,0-12.5-5.597-12.5-12.5c0-6.904,5.597-12.5,12.5-12.5
				c29.042,0,55.699-26.385,55.96-26.651c4.83-4.932,12.744-5.014,17.677-0.183c4.932,4.831,5.014,12.745,0.183,17.677
				C421.226,430.445,388.676,463.208,348.773,463.208z"/>
		</g>
		<g>
			<path fill="#E8A15B" d="M348.773,463.208c-40.055,0-71.471-32.942-72.789-34.344c-4.728-5.031-4.481-12.942,0.549-17.669
				c5.024-4.721,12.919-4.483,17.649,0.528c0.279,0.293,25.488,26.486,54.591,26.486c6.903,0,12.5,5.596,12.5,12.5
				C361.273,457.611,355.676,463.208,348.773,463.208z"/>
		</g>
		<g>
			<g>
				<path fill="#637EA8" d="M287,311h-26c-6.904,0-12.5-5.596-12.5-12.5S254.096,286,261,286h26c6.904,0,12.5,5.596,12.5,12.5
					S293.904,311,287,311z"/>
			</g>
			<g>
				<path fill="#637EA8" d="M437,311h-26c-6.904,0-12.5-5.596-12.5-12.5S404.096,286,411,286h26c6.904,0,12.5,5.596,12.5,12.5
					S443.904,311,437,311z"/>
			</g>
		</g>
	</g>
	<g>
		<g>
			<g>
				<path fill="#E8A15B" d="M822.072,795.811l-24.727-3.688l-0.024,0.174c0.045-0.366,1.095-9.372,0.265-45.305
					c-0.151-6.569-2.169-11.563-6.168-15.27c-8.598-7.969-24.854-9.005-29.866-8.74c-0.22,0.012-0.44,0.018-0.66,0.018H719
					c-6.903,0-12.5-5.596-12.5-12.5c0-6.903,5.597-12.5,12.5-12.5h41.602c4.444-0.185,30.609-0.555,47.811,15.387
					c8.962,8.306,13.86,19.727,14.168,33.028C823.455,784.324,822.311,794.213,822.072,795.811z"/>
			</g>
			<g>
				<path fill="#E8A15B" d="M647.668,804.635c-6.328,0-11.756-4.707-12.419-11.03c-0.098-0.935-0.932-10.223-0.045-48.008
					c0.307-13.077,5.206-24.305,14.167-32.47C666.573,697.452,692.744,698,697.182,698H738c6.903,0,12.5,5.713,12.5,12.5
					c0,6.787-5.597,12.5-12.5,12.5h-41.107c-0.22,0-0.44-0.217-0.66-0.229c-5.409-0.233-21.419,0.731-29.922,8.537
					c-3.962,3.638-5.962,8.479-6.113,14.909c-0.833,35.51-0.117,44.458-0.071,44.98c0.656,6.716-4.323,12.692-11.161,13.385
					C648.529,804.627,648.096,804.635,647.668,804.635z"/>
			</g>
		</g>
		<g>
			<path fill="#2C3C68" d="M924.668,1162H534.399c-26.777,0-49.399-21.906-49.399-47.837V940c0-6.903,5.597-12.5,12.5-12.5
				S510,933.097,510,940v174.163c0,11.952,11.629,22.837,24.399,22.837h390.269c12.734,0,24.332-10.885,24.332-22.837V932
				c0-6.903,5.597-12.5,12.5-12.5S974,925.097,974,932v182.163C974,1140.094,951.409,1162,924.668,1162z"/>
		</g>
		<g>
			<path fill="#637EA8" d="M473.5,923.5c-6.904,0-12.5-5.597-12.5-12.5v-82.657C461,802.681,485.444,781,514.379,781h430.354
				c13.467,0,26.321,4.754,36.194,13.386c10.214,8.93,16.072,21.307,16.072,33.958V910c0,6.903-5.597,12.5-12.5,12.5
				S972,916.903,972,910v-81.657C972,816.441,959.259,806,944.733,806H514.379C499.526,806,486,816.649,486,828.343V911
				C486,917.903,480.404,923.5,473.5,923.5z"/>
		</g>
		<g>
			<path fill="#637EA8" d="M734.026,1020.323c-13.204,0-38.921-1.028-79.79-6.749c-6.837-0.957-11.604-7.274-10.646-14.111
				c0.958-6.837,7.271-11.613,14.112-10.646c59.016,8.26,84.756,6.299,85.011,6.279c6.854-0.562,12.912,4.534,13.494,11.399
				c0.583,6.865-4.481,12.906-11.346,13.508C744.475,1020.037,740.991,1020.323,734.026,1020.323z"/>
		</g>
		<g>
			<path fill="#637EA8" d="M577.324,994.107c-1.655,0-3.336-0.33-4.952-1.028c-60.133-25.982-103.98-69.99-105.817-71.851
				c-4.85-4.912-4.8-12.827,0.113-17.677c4.912-4.853,12.826-4.802,17.677,0.112c0.679,0.683,42.585,42.547,97.943,66.466
				c6.337,2.738,9.255,10.096,6.517,16.433C586.765,991.284,582.161,994.107,577.324,994.107z"/>
		</g>
		<g>
			<path fill="#637EA8" d="M881.2,993.89c-4.827,0-9.424-2.812-11.471-7.521c-2.751-6.332,0.151-13.694,6.483-16.446
				c55.482-24.107,97.052-65.839,97.466-66.258c4.85-4.912,12.765-4.964,17.677-0.112c4.913,4.85,4.963,12.765,0.112,17.677
				c-1.826,1.851-45.425,45.609-105.292,71.623C884.554,993.556,882.863,993.89,881.2,993.89z"/>
		</g>
		<g>
			<path fill="#E8A15B" d="M614.249,1068.05c-37.993,0-48.826-40.192-49.246-61.444c-0.001-0.082-0.002-0.165-0.002-0.247V950
				c0-6.903,5.597-12.5,12.5-12.5S590,943.097,590,950v56.184c0.035,0.949,0.496,11.111,4.315,20.771
				c5.704,14.427,14.108,16.096,19.934,16.096c22.598,0,28.045-30.437,28.751-35.15V950c0-6.903,5.597-12.5,12.5-12.5
				S668,943.097,668,950v58.744c0,0.485-0.028,0.971-0.084,1.452C665.574,1030.207,651.345,1068.05,614.249,1068.05z"/>
		</g>
		<g>
			<path fill="#E8A15B" d="M654,963h-76c-6.903,0-12.5-5.597-12.5-12.5S571.097,938,578,938h76c6.903,0,12.5,5.597,12.5,12.5
				S660.903,963,654,963z"/>
		</g>
		<g>
			<path fill="#E8A15B" d="M837.749,1068.05c-38.092,0-48.749-40.275-48.749-61.571c0-0.04,0-0.08,0-0.12V950
				c0-6.903,5.597-12.5,12.5-12.5S814,943.097,814,950v56.266c0.014,0.602,0.312,10.96,4.099,20.792
				c5.522,14.334,13.859,15.992,19.65,15.992c6.153,0,15.16-1.647,22.314-15.895c4.167-8.297,5.614-16.964,5.937-19.215V950
				c0-6.903,5.597-12.5,12.5-12.5S891,943.097,891,950v58.744c0,0.441-0.024,0.883-0.071,1.321
				C888.798,1030.121,874.939,1068.05,837.749,1068.05z"/>
		</g>
		<g>
			<path fill="#E8A15B" d="M877,963h-75c-6.903,0-12.5-5.597-12.5-12.5S795.097,938,802,938h75c6.903,0,12.5,5.597,12.5,12.5
				S883.903,963,877,963z"/>
		</g>
	</g>
</g>
<g>
	<path fill="#2C3C68" d="M167.18,286.304c-0.451-1.032-44.519-104.263,0.474-194.011C196.594,34.563,317.614,25.48,324.727,25
		h234.297c-4.315,28.104-12.011,92.404-6.224,165.518c5.684,71.821-6.966,87.698-8.716,89.522c-2.897,1.456-5.09,3.981-6.16,6.994
		h31.24c7.336-15.145,12.878-43.913,8.558-98.489c-7.325-92.557,8.213-172.822,8.37-173.619c0.726-3.669-0.229-7.471-2.604-10.361
		C581.114,1.675,577.57,0,573.83,0H324.327c-0.24,0-0.479,0.007-0.718,0.021c-5.788,0.333-142.167,8.984-178.304,81.068
		c-20.841,41.572-27.625,91.974-19.619,145.756c4.037,27.119,10.815,48.642,14.978,60.189h26.784
		C167.359,286.79,167.284,286.542,167.18,286.304z"/>
	<path fill="#E8A15B" d="M147.613,367.263c8.819,56.989,29.342,104.087,59.351,136.204c33.672,36.039,79.137,54.313,135.13,54.313
		c88.715,0,155.005-46.589,191.705-134.731c22.507-54.056,27.191-107.413,28.154-125.377c2.414-2.447,4.901-5.868,7.211-10.637
		h-31.24c-0.445,1.253-0.701,2.589-0.724,3.971c-0.01,0.618-1.34,62.442-26.733,123.04
		c-33.014,78.787-89.663,118.734-168.372,118.734c-48.752,0-88.048-15.58-116.796-46.308
		c-64.648-69.101-57.187-193.084-57.104-194.321c0.119-1.742-0.151-3.481-0.747-5.116h-26.784c0.977,2.71,1.811,4.874,2.43,6.428
		C142.699,302.638,142.087,331.552,147.613,367.263z"/>
</g>
</svg>