<svg width="287" height="80" viewBox="0 0 287 80" fill="none" xmlns="http://www.w3.org/2000/svg">
    <path d="M16.4096 16.6346L35.4707 44.304L44.079 35.6957L16.4096 16.6346Z" fill="#2E64CC"/>
    <path d="M63.1401 16.6347L35.4707 35.6958L44.0789 44.3041L63.1401 16.6347Z" fill="#2E64CC"/>
    <path d="M63.1392 63.3654L44.0781 35.696L35.4698 44.3043L63.1392 63.3654Z" fill="#2E64CC"/>
    <path d="M16.4088 63.3653L44.0782 44.3042L35.4699 35.6959L16.4088 63.3653Z" fill="#2E64CC"/>
    <path d="M40.0003 0L31.3047 40H48.696L40.0003 0Z" fill="#2E64CC"/>
    <path d="M-3.80099e-07 39.9999L40 48.6956L40 31.3042L-3.80099e-07 39.9999Z" fill="#2E64CC"/>
    <path d="M39.9997 80L48.6953 40H31.304L39.9997 80Z" fill="#2E64CC"/>
    <path d="M80 40.0001L40 31.3044L40 48.6957L80 40.0001Z" fill="#2E64CC"/>
    <path d="M136.217 46.2926C136.091 49.0002 135.353 51.3961 134.004 53.4803C132.656 55.5466 130.758 57.1499 128.312 58.2899C125.885 59.43 123.106 60 119.977 60C114.815 60 110.751 58.3344 107.783 55.0033C104.816 51.6722 103.332 46.9695 103.332 40.8951V38.9713C103.332 35.1592 103.997 31.8281 105.328 28.978C106.677 26.11 108.61 23.9011 111.128 22.3514C113.646 20.7838 116.56 20 119.869 20C124.635 20 128.465 21.2469 131.361 23.7408C134.256 26.2169 135.902 29.6371 136.298 34.0013H126.856C126.784 31.6322 126.181 29.931 125.048 28.8978C123.915 27.8646 122.189 27.348 119.869 27.348C117.513 27.348 115.786 28.2209 114.689 29.9666C113.592 31.7123 113.017 34.5001 112.963 38.33V41.0822C112.963 45.2327 113.484 48.1986 114.527 49.98C115.588 51.7613 117.405 52.652 119.977 52.652C122.153 52.652 123.816 52.1443 124.967 51.1289C126.118 50.1136 126.73 48.5014 126.802 46.2926H136.217Z" fill="#2E64CC"/>
    <path d="M173.687 59.4656H164.218V27.8023H150.11V59.4656H140.641V20.5611H173.687V59.4656Z" fill="#2E64CC"/>
    <path d="M201.905 52.1977H188.929L186.663 59.4656H176.547L190.952 20.5611H199.854L214.368 59.4656H204.198L201.905 52.1977ZM191.195 44.9566H199.639L195.403 31.4629L191.195 44.9566Z" fill="#2E64CC"/>
    <path d="M226.723 46.2659V59.4656H217.254V20.5611H232.928C235.931 20.5611 238.584 21.1133 240.886 22.2178C243.206 23.3044 244.995 24.8631 246.254 26.8938C247.531 28.9067 248.17 31.1957 248.17 33.7609C248.17 37.5551 246.794 40.5923 244.042 42.8724C241.309 45.1347 237.55 46.2659 232.766 46.2659H226.723ZM226.723 39.0247H232.928C234.762 39.0247 236.156 38.5705 237.109 37.662C238.08 36.7535 238.566 35.4709 238.566 33.8143C238.566 31.9973 238.071 30.5455 237.082 29.4589C236.093 28.3723 234.744 27.8201 233.036 27.8023H226.723V39.0247Z" fill="#2E64CC"/>
    <path d="M267.134 44.0748H262.656V59.4656H253.187V20.5611H262.656V35.6045H266.298L273.851 20.5611H285.317L274.526 38.517L286.665 59.4656H275.47L267.134 44.0748Z" fill="#2E64CC"/>
</svg>
