<svg width="60" height="60" viewBox="0 0 60 60" fill="none" xmlns="http://www.w3.org/2000/svg">
    <path d="M47.6988 7.8C47.6988 7.4 48.0988 7 48.4988 7C48.8988 7 49.2988 7.4 49.2988 7.8V8.4C49.9988 8.5 50.5988 8.6 51.1988 8.8V7.8C51.1988 6.3 49.9988 5 48.4988 5C46.9988 5 45.7988 6.2 45.7988 7.7V8.7C46.3988 8.5 46.9988 8.3 47.6988 8.3V7.8Z" fill="#3F496A"/>
    <path d="M48.4992 29.4C47.7992 29.4 47.1992 28.8 47.0992 28.1H45.1992C45.3992 29.9 46.7992 31.3 48.5992 31.3C50.3992 31.3 51.6992 29.9 51.9992 28.1H49.9992C49.7992 28.8 49.1992 29.4 48.4992 29.4Z" fill="#E8A15B"/>
    <path d="M56.8992 23.4V16.7C56.8992 13.1 54.4992 9.90003 51.2992 8.80002C50.6992 8.60002 50.0992 8.40002 49.3992 8.40002C49.0992 8.40002 48.8992 8.40002 48.5992 8.40002C48.2992 8.40002 48.0992 8.40002 47.7992 8.40002C47.0992 8.50002 46.4992 8.60002 45.8992 8.80002C42.5992 9.90003 40.2992 13 40.2992 16.7V23.4C39.0992 24.1 38.1992 25.4 38.1992 26.9V27.1C38.1992 27.6 38.5992 28.1 39.1992 28.1H45.2992H47.1992H49.9992H51.8992H57.9992C58.4992 28.1 58.9992 27.7 58.9992 27.1V26.9C58.9992 25.3 58.0992 24 56.8992 23.4ZM56.5992 26.1H51.6992H49.5992H47.4992H45.3992H40.4992H40.0992C40.0992 26 40.1992 25.9 40.2992 25.8C40.6992 25.2 41.2992 24.8 42.0992 24.8H42.1992V24.5V22.9V16.6C42.1992 14 43.6992 11.8 45.8992 10.8C46.6992 10.4 47.5992 10.2 48.5992 10.2C49.5992 10.2 50.4992 10.4 51.2992 10.8C53.4992 11.8 54.9992 14.1 54.9992 16.6V22.9V24.5V24.8C55.7992 24.8 56.3992 25.2 56.7992 25.8C56.8992 25.9 56.8992 26 56.9992 26.1H56.5992Z" fill="#637EA8"/>
    <path d="M32.7 22H9C8.5 22 8 21.6 8 21C8 20.4 8.4 20 9 20H32.7C33.2 20 33.7 20.4 33.7 21C33.7 21.6 33.2 22 32.7 22Z" fill="#E8A15B"/>
    <path d="M32.7 36H9C8.5 36 8 35.6 8 35C8 34.4 8.4 34 9 34H32.7C33.2 34 33.7 34.4 33.7 35C33.7 35.6 33.2 36 32.7 36Z" fill="#E8A15B"/>
    <path d="M26 29H9C8.5 29 8 28.6 8 28C8 27.4 8.4 27 9 27H26C26.5 27 27 27.4 27 28C27 28.6 26.5 29 26 29Z" fill="#E8A15B"/>
    <path d="M48 40.9C48 42.1 47 43 45.9 43H21H18L15.6 45L7.5 51.6L8.9 45L9.3 43H7.4H5C3.8 43 2.9 42 2.9 40.9V15.1C2.9 13.9 3.9 13 5 13H38.1C38.6 13 39.1 12.6 39.1 12C39.1 11.5 38.7 11 38.1 11H5C2.8 11 1 12.8 1 15V40.9C1 43.1 2.8 44.9 5 44.9H6.9L5 53.8C4.9 54.2 5.1 54.6 5.4 54.8C5.6 54.9 5.8 55 6 55C6.2 55 6.4 54.9 6.6 54.8L18.6 45H45.9C48.1 45 49.9 43.2 49.9 41V35C49.9 34.5 49.5 34 48.9 34C48.4 34 47.9 34.4 47.9 35V40.9H48Z" fill="#3F496A"/>
</svg>
