<svg width="60" height="60" viewBox="0 0 60 60" fill="none" xmlns="http://www.w3.org/2000/svg">
    <path d="M14.1 27.4H9.7C8.8 27.4 8 26.6 8 25.7V21.2C8 20.3 8.8 19.5 9.7 19.5H14.1C15 19.5 15.8 20.3 15.8 21.2V25.7C15.9 26.7 15.1 27.4 14.1 27.4ZM9.9 25.5H14V21.4H9.9V25.5Z" fill="#3F496A"/>
    <path d="M28.9004 24.5H18.9004C18.4004 24.5 17.9004 24.1 17.9004 23.5C17.9004 22.9 18.3004 22.5 18.9004 22.5H28.9004C29.4004 22.5 29.9004 22.9 29.9004 23.5C29.9004 24.1 29.4004 24.5 28.9004 24.5Z" fill="#E8A15B"/>
    <path d="M14.1 39.9H9.7C8.8 39.9 8 39.1 8 38.2V33.7C8 32.8 8.8 32 9.7 32H14.1C15 32 15.8 32.8 15.8 33.7V38.2C15.9 39.2 15.1 39.9 14.1 39.9ZM9.9 38H14V34H9.9V38Z" fill="#3F496A"/>
    <path d="M24.8 36C24.8 35.5 24.4 35.1 23.9 35.1H23.8H22.8H21H20.9H19C18.5 35.1 18 35.5 18 36.1C18 36.7 18.4 37.1 19 37.1H20.9H21H22.9H23.9H24C24.4 36.9 24.8 36.5 24.8 36Z" fill="#E8A15B"/>
    <path d="M14.1 52.4H9.7C8.8 52.4 8 51.6 8 50.7V46.2C8 45.3 8.8 44.5 9.7 44.5H14.1C15 44.5 15.8 45.3 15.8 46.2V50.7C15.9 51.7 15.1 52.4 14.1 52.4ZM9.9 50.5H14V46.4H9.9V50.5Z" fill="#3F496A"/>
    <path d="M28.9004 49.5H18.9004C18.4004 49.5 17.9004 49.1 17.9004 48.5C17.9004 47.9 18.3004 47.5 18.9004 47.5H28.9004C29.4004 47.5 29.9004 47.9 29.9004 48.5C29.9004 49.1 29.4004 49.5 28.9004 49.5Z" fill="#E8A15B"/>
    <path d="M23.5 10.5C21.9 10.5 20.5 9.2 20.5 7.5C20.5 5.8 21.8 4.5 23.5 4.5C25.2 4.5 26.5 5.8 26.5 7.5C26.5 9.2 25.1 10.5 23.5 10.5ZM23.5 6.5C22.9 6.5 22.5 7 22.5 7.5C22.5 8 23 8.5 23.5 8.5C24 8.5 24.5 8 24.5 7.5C24.5 7 24.1 6.5 23.5 6.5Z" fill="#3F496A"/>
    <path d="M33.5996 12.5C33.3996 11.8 33.0996 11.2 32.7996 10.6C31.9996 9.19998 30.7996 8.09998 29.3996 7.39998C29.2996 4.19998 26.6996 1.59998 23.4996 1.59998C20.2996 1.59998 17.5996 4.19998 17.5996 7.39998C16.1996 8.09998 14.9996 9.19998 14.1996 10.6C13.8996 11.2 13.5996 11.8 13.3996 12.5C13.1996 13.2 13.0996 13.8 13.0996 14.5C13.0996 15 13.4996 15.5 14.0996 15.5H33.0996C33.5996 15.5 34.0996 15.1 34.0996 14.5C33.8996 13.8 33.7996 13.1 33.5996 12.5ZM14.9996 13.5C15.0996 13.1 15.1996 12.8 15.2996 12.4C15.5996 11.7 15.8996 11.1 16.3996 10.5C16.7996 9.99998 17.2996 9.59998 17.7996 9.29998C18.3996 8.99998 18.9996 8.79998 19.5996 8.59998C19.4996 8.19998 19.3996 7.89998 19.3996 7.49998C19.3996 7.19998 19.3996 6.99998 19.4996 6.69998C19.8996 4.89998 21.4996 3.49998 23.4996 3.49998C25.4996 3.49998 27.0996 4.89998 27.4996 6.69998C27.5996 6.99998 27.5996 7.19998 27.5996 7.49998C27.5996 7.89998 27.4996 8.29998 27.3996 8.59998C27.9996 8.79998 28.5996 8.99998 29.0996 9.29998C29.5996 9.59998 30.0996 9.99998 30.4996 10.5C30.9996 11.1 31.3996 11.7 31.5996 12.4C31.6996 12.8 31.7996 13.1 31.8996 13.5H14.9996Z" fill="#3F496A"/>
    <path d="M57.2984 31.1999C57.2984 31.1999 57.1984 31.1999 57.2984 31.1999C57.2984 30.9999 57.1984 30.8999 57.1984 30.7999C57.0984 30.6999 57.0984 30.5999 56.9984 30.5999C56.9984 30.5999 56.9984 30.5999 56.8984 30.4999C56.8984 30.4999 56.7984 30.4999 56.7984 30.3999L43.6984 23.2999C43.3984 23.1999 43.0984 23.0999 42.7984 23.2999L39.9984 24.6999L41.9984 25.7999L43.1984 25.1999L54.2984 31.1999L52.8984 31.9999L53.4984 32.2999C53.7984 32.4999 53.9984 32.7999 53.9984 33.0999V33.4999L55.3984 32.6999V42.2999L44.1984 48.6999V38.8999L47.7984 36.8999V35.7999L46.7984 35.1999L43.2984 37.0999L32.2984 30.2999L35.5984 28.6999L33.5984 27.5999L29.8984 29.3999C29.8984 29.3999 29.7984 29.3999 29.7984 29.4999C29.7984 29.4999 29.6984 29.4999 29.6984 29.5999C29.5984 29.6999 29.4984 29.6999 29.4984 29.7999C29.3984 29.8999 29.3984 29.9999 29.3984 30.0999V30.1999V30.2999V42.4999C29.3984 42.7999 29.5984 43.0999 29.8984 43.2999L42.8984 51.0999H42.9984H43.0984C43.1984 51.0999 43.2984 51.1999 43.3984 51.1999C43.4984 51.1999 43.5984 51.1999 43.6984 51.0999H43.7984C43.7984 51.0999 43.7984 51.0999 43.8984 51.0999L56.9984 43.5999C57.2984 43.3999 57.4984 43.0999 57.4984 42.7999L57.2984 31.1999C57.2984 31.2999 57.2984 31.1999 57.2984 31.1999ZM42.1984 48.7999L31.0984 42.1999V32.1999L42.1984 38.9999V48.7999Z" fill="#3F496A"/>
    <path d="M53.3984 32.3999L52.7984 32.0999L41.9984 25.8999L39.9984 24.7999L37.8984 25.7999L39.8984 26.8999L50.8984 33.1999L51.9984 33.7999V34.6999V37.8999L49.5984 38.9999V35.9999V35.3999C49.5984 35.0999 49.3984 34.6999 49.0984 34.5999L48.5984 34.2999L37.4984 27.9999L35.4984 26.8999L33.3984 27.8999L35.3984 28.9999L46.6984 35.4999L47.6984 36.0999V37.1999V40.5999C47.6984 40.8999 47.8984 41.1999 48.0984 41.3999C48.2984 41.4999 48.3984 41.5999 48.5984 41.5999C48.6984 41.5999 48.8984 41.5999 48.9984 41.4999L53.3984 39.4999C53.6984 39.2999 53.9984 38.9999 53.9984 38.5999V33.7999V33.3999C53.8984 32.8999 53.6984 32.5999 53.3984 32.3999Z" fill="#E8A15B"/>
    <path d="M42.2992 56.5H4.59922V12.5H13.2992C13.4992 11.8 13.7992 11.2 14.0992 10.6H3.69922C3.19922 10.6 2.69922 11 2.69922 11.6V57.6C2.69922 58.1 3.09922 58.6 3.69922 58.6H43.2992C43.7992 58.6 44.2992 58.2 44.2992 57.6V54.5C44.2992 54 43.8992 53.5 43.2992 53.5C42.7992 53.5 42.2992 53.9 42.2992 54.5V56.5Z" fill="#637EA8"/>
    <path d="M44.1988 11.5C44.1988 11 43.7988 10.5 43.1988 10.5H32.7988C33.0988 11.1 33.3988 11.7 33.5988 12.4H42.2988V20.5C42.2988 21 42.6988 21.5 43.2988 21.5C43.7988 21.5 44.2988 21.1 44.2988 20.5V11.5H44.1988Z" fill="#637EA8"/>
</svg>
