<svg width="60" height="60" viewBox="0 0 60 60" fill="none" xmlns="http://www.w3.org/2000/svg">
    <path d="M0.20039 42.5C0.90039 40.7 4.00039 40 7.00039 40C10.0004 40 13.1004 40.7 13.8004 42.5C13.9004 42.6 13.9004 42.8 13.9004 43V52.4C13.9004 52.7 13.8004 52.9 13.6004 53.1C13.3004 53.6 12.6004 54.2 11.4004 54.6C10.2004 55 8.60039 55.2 7.00039 55.2C4.20039 55.2 1.30039 54.6 0.400391 53.1C0.200391 52.9 0.100391 52.7 0.100391 52.4V43C0.100391 42.8 0.20039 42.7 0.20039 42.5ZM2.00039 48C2.00039 48.4 3.80039 49.3 7.00039 49.3C10.2004 49.3 12.0004 48.4 12.0004 48V46.3C11.8004 46.4 11.6004 46.5 11.4004 46.5C10.2004 46.9 8.60039 47.1 7.00039 47.1C5.20039 47.1 3.30039 46.9 2.00039 46.2V48ZM7.10039 42C5.60039 42 4.30039 42.2 3.30039 42.5C2.40039 42.8 2.10039 43.1 2.10039 43.3V44C2.10039 44.4 3.90039 45.3 7.10039 45.3C10.3004 45.3 12.1004 44.4 12.1004 44V43.2C12.1004 42.8 10.3004 42 7.10039 42ZM7.10039 53.3C10.4004 53.3 12.1004 52.4 12.1004 52V50.3C11.9004 50.4 11.7004 50.5 11.5004 50.5C10.3004 50.9 8.70039 51.1 7.10039 51.1C5.30039 51.1 3.40039 50.9 2.10039 50.2V52C2.00039 52.5 3.80039 53.3 7.10039 53.3Z" fill="#E8A15B"/>
    <path d="M12.2004 32.5C12.9004 30.7 16.0004 30 19.0004 30C22.0004 30 25.1004 30.7 25.8004 32.5C25.9004 32.6 25.9004 32.8 25.9004 33V38V50.4C25.9004 50.7 25.8004 50.9 25.6004 51.1C25.3004 51.6 24.6004 52.2 23.4004 52.6C22.2004 53 20.6004 53.2 19.0004 53.2C18.1004 53.2 17.1004 53.1 16.2004 53C15.8004 52.9 15.4004 52.5 15.4004 52.1C15.4004 51.5 15.9004 51.1 16.5004 51.2C17.2004 51.3 18.0004 51.4 19.0004 51.4C22.3004 51.4 24.0004 50.5 24.0004 50.1V48.4C23.8004 48.5 23.6004 48.6 23.4004 48.6C22.2004 49 20.6004 49.2 19.0004 49.2C18.0004 49.2 17.1004 49.1 16.2004 49C15.8004 48.9 15.4004 48.5 15.4004 48.1C15.4004 47.5 15.9004 47.1 16.5004 47.2C17.2004 47.3 18.0004 47.4 19.0004 47.4C22.3004 47.4 24.0004 46.5 24.0004 46.1V44.4C23.8004 44.5 23.6004 44.6 23.4004 44.6C22.2004 45 20.6004 45.2 19.0004 45.2C18.0004 45.2 17.1004 45.1 16.2004 45C15.8004 44.9 15.4004 44.5 15.4004 44.1C15.4004 43.5 15.9004 43.1 16.5004 43.2C17.2004 43.3 18.0004 43.4 19.0004 43.4C22.3004 43.4 24.0004 42.5 24.0004 42.1V40.4C23.8004 40.5 23.6004 40.6 23.4004 40.6C22.2004 41 20.6004 41.2 19.0004 41.2C18.6004 41.2 18.1004 41.2 17.7004 41.2C17.7004 41.2 17.7004 41.2 17.6004 41.2C17.2004 41.2 16.7004 41.1 16.3004 41.1C15.9004 41 15.5004 40.9 15.1004 40.8C14.7004 40.7 14.3004 40.6 14.0004 40.4C12.9004 39.9 12.1004 39.1 12.1004 38.1V33.1C12.1004 32.8 12.2004 32.7 12.2004 32.5ZM14.0004 38C14.0004 38.4 15.8004 39.3 19.0004 39.3C22.2004 39.3 24.0004 38.4 24.0004 38V36.3C23.8004 36.4 23.6004 36.5 23.4004 36.5C22.2004 36.9 20.6004 37.1 19.0004 37.1C17.2004 37.1 15.3004 36.9 14.0004 36.2V38ZM14.0004 34C14.0004 34.4 15.8004 35.3 19.0004 35.3C22.2004 35.3 24.0004 34.4 24.0004 34V33.2C24.0004 32.8 22.2004 31.9 19.0004 31.9C17.5004 31.9 16.2004 32.1 15.2004 32.4C14.3004 32.7 14.0004 33 14.0004 33.2V34Z" fill="#E8A15B"/>
    <path d="M53.9004 17.6H32.9004C32.4004 17.6 31.9004 17.2 31.9004 16.6V11.6C31.9004 11.1 32.3004 10.6 32.9004 10.6H53.9004C54.4004 10.6 54.9004 11 54.9004 11.6V16.6C54.8004 17.2 54.4004 17.6 53.9004 17.6ZM33.8004 15.7H52.9004V12.6H33.8004V15.7Z" fill="#E8A15B"/>
    <path d="M37.4004 29.1H32.9004C32.4004 29.1 31.9004 28.7 31.9004 28.1V23.6C31.9004 23.1 32.3004 22.6 32.9004 22.6H37.4004C37.9004 22.6 38.4004 23 38.4004 23.6V28.1C38.4004 28.7 37.9004 29.1 37.4004 29.1ZM33.8004 27.2H36.4004V24.6H33.8004V27.2Z" fill="#637EA8"/>
    <path d="M45.6016 29.1H41.1016C40.6016 29.1 40.1016 28.7 40.1016 28.1V23.6C40.1016 23.1 40.5016 22.6 41.1016 22.6H45.6016C46.1016 22.6 46.6016 23 46.6016 23.6V28.1C46.6016 28.7 46.2016 29.1 45.6016 29.1ZM42.1016 27.2H44.7016V24.6H42.1016V27.2Z" fill="#637EA8"/>
    <path d="M53.9004 29.1H49.4004C48.9004 29.1 48.4004 28.7 48.4004 28.1V23.6C48.4004 23.1 48.8004 22.6 49.4004 22.6H53.9004C54.4004 22.6 54.9004 23 54.9004 23.6V28.1C54.8004 28.7 54.4004 29.1 53.9004 29.1ZM50.3004 27.2H52.9004V24.6H50.3004V27.2Z" fill="#637EA8"/>
    <path d="M37.4004 38.7999H32.9004C32.4004 38.7999 31.9004 38.3999 31.9004 37.7999V33.2999C31.9004 32.7999 32.3004 32.2999 32.9004 32.2999H37.4004C37.9004 32.2999 38.4004 32.6999 38.4004 33.2999V37.7999C38.4004 38.3999 37.9004 38.7999 37.4004 38.7999ZM33.8004 36.8999H36.4004V34.2999H33.8004V36.8999Z" fill="#637EA8"/>
    <path d="M45.6016 38.7999H41.1016C40.6016 38.7999 40.1016 38.3999 40.1016 37.7999V33.2999C40.1016 32.7999 40.5016 32.2999 41.1016 32.2999H45.6016C46.1016 32.2999 46.6016 32.6999 46.6016 33.2999V37.7999C46.6016 38.3999 46.2016 38.7999 45.6016 38.7999ZM42.1016 36.8999H44.7016V34.2999H42.1016V36.8999Z" fill="#637EA8"/>
    <path d="M53.9004 38.7999H49.4004C48.9004 38.7999 48.4004 38.3999 48.4004 37.7999V33.2999C48.4004 32.7999 48.8004 32.2999 49.4004 32.2999H53.9004C54.4004 32.2999 54.9004 32.6999 54.9004 33.2999V37.7999C54.8004 38.3999 54.4004 38.7999 53.9004 38.7999ZM50.3004 36.8999H52.9004V34.2999H50.3004V36.8999Z" fill="#637EA8"/>
    <path d="M37.4004 48.5H32.9004C32.4004 48.5 31.9004 48.1 31.9004 47.5V43C31.9004 42.5 32.3004 42 32.9004 42H37.4004C37.9004 42 38.4004 42.4 38.4004 43V47.5C38.4004 48.1 37.9004 48.5 37.4004 48.5ZM33.8004 46.6H36.4004V44H33.8004V46.6Z" fill="#637EA8"/>
    <path d="M45.6016 48.5H41.1016C40.6016 48.5 40.1016 48.1 40.1016 47.5V43C40.1016 42.5 40.5016 42 41.1016 42H45.6016C46.1016 42 46.6016 42.4 46.6016 43V47.5C46.6016 48.1 46.2016 48.5 45.6016 48.5ZM42.1016 46.6H44.7016V44H42.1016V46.6Z" fill="#637EA8"/>
    <path d="M53.9004 48.5H49.4004C48.9004 48.5 48.4004 48.1 48.4004 47.5V43C48.4004 42.5 48.8004 42 49.4004 42H53.9004C54.4004 42 54.9004 42.4 54.9004 43V47.5C54.8004 48.1 54.4004 48.5 53.9004 48.5ZM50.3004 46.6H52.9004V44H50.3004V46.6Z" fill="#637EA8"/>
    <path d="M55.8004 55.0999H30.9004C28.7004 55.0999 26.9004 53.2999 26.9004 51.0999V8.19995C26.9004 5.99995 28.7004 4.19995 30.9004 4.19995H55.8004C58.0004 4.19995 59.8004 5.99995 59.8004 8.19995V51C59.8004 53.2999 58.0004 55.0999 55.8004 55.0999ZM30.9004 6.09995C29.8004 6.09995 28.8004 6.99995 28.8004 8.19995V51C28.8004 52.2 29.7004 53.0999 30.9004 53.0999H55.8004C57.0004 53.0999 57.9004 52.2 57.9004 51V8.19995C57.9004 6.99995 57.0004 6.09995 55.8004 6.09995H30.9004Z" fill="#3F496A"/>
</svg>
