<svg width="60" height="60" viewBox="0 0 60 60" fill="none" xmlns="http://www.w3.org/2000/svg">
    <path d="M20.5 30.9C15 30.9 10.5 26.4 10.5 20.9C10.5 15.4 15 10.9 20.5 10.9C26 10.9 30.5 15.4 30.5 20.9C30.5 26.4 26 30.9 20.5 30.9ZM20.5 12.9C16.1 12.9 12.5 16.5 12.5 20.9C12.5 25.3 16.1 28.9 20.5 28.9C24.9 28.9 28.5 25.3 28.5 20.9C28.5 16.5 24.9 12.9 20.5 12.9Z" fill="#E8A15B"/>
    <path d="M58.9996 20.6H39.7996H39.4996H37.5996C37.2996 20.6 37.0996 20.7 36.8996 20.9L35.2996 22.5L32.4996 25.3L30.8996 26.9C30.6996 27.1 30.5996 27.3 30.5996 27.6V29.9V58.6C30.5996 59.1 30.9996 59.6 31.5996 59.6H58.9996C59.4996 59.6 59.9996 59.2 59.9996 58.6V21.6C59.9996 21 59.5996 20.6 58.9996 20.6ZM37.5996 22.8V26.6H33.7996L37.5996 22.8ZM58.0996 57.6H32.4996V28.5H38.4996C38.9996 28.5 39.4996 28.1 39.4996 27.5V22.5H58.0996V57.6Z" fill="#3F496A"/>
    <path d="M25.3 33.6C24.7 33.8 24 34 23.3 34.2L23 36.2L22.5 39.5H18.4L18 36.2L17.7 34.2C17 34.1 16.3 33.9 15.7 33.6C15.5 33.5 15.4 33.5 15.2 33.4C14.5 33.1 13.9 32.8 13.3 32.5L11.7 33.8L9.1 35.8L6.1 33L7.9 30.4L9.1 28.8C8.7 28.3 8.3 27.7 8 27.1C7.8 26.8 7.6 26.4 7.5 26C7.2 25.4 7 24.7 6.8 24L4.8 23.8L2 23.5L1.9 19.4L4.6 19L6.6 18.7C6.7 18 6.8 17.4 7 16.7C7.1 16.2 7.3 15.7 7.5 15.2C7.8 14.6 8.1 13.9 8.5 13.3L7.2 11.7L5.6 9.69998L8.4 6.69998L10.4 8.09998L12 9.29998C12.5 8.89998 13.1 8.49998 13.7 8.19998C14.4 7.79998 15.1 7.49998 15.8 7.29998C16.4 7.09998 17.1 6.89998 17.8 6.79998L18.1 4.79998L18.4 2.49998H22.5L22.8 4.79998L23.1 6.79998C23.8 6.89998 24.5 7.09998 25.1 7.29998C25.6 7.49998 26.1 7.69998 26.5 7.89998C27.1 8.19998 27.7 8.49997 28.3 8.89997L29.8 7.69998L31.7 6.19998L34.7 8.99998L33.2 11.1L32 12.7C32.4 13.3 32.7 13.9 33 14.5C33.2 15 33.4 15.5 33.6 16C33.8 16.6 34 17.3 34.1 18L36.1 18.2L36.8 18.3C37.3 18.4 37.8 18 37.9 17.4C37.9 16.9 37.6 16.4 37.1 16.4L35.8 16.2C35.5 15 35 13.8 34.4 12.7L36.5 9.79998C36.9 9.19998 36.9 8.29998 36.3 7.79998L32.9 4.59998C32.3 4.09998 31.5 3.99998 30.9 4.49998L28.3 6.59998C27.2 5.99998 26.1 5.59998 24.9 5.19998L24.4 1.89998C24.3 1.09998 23.6 0.599976 22.9 0.599976H18.2C17.4 0.599976 16.8 1.19998 16.7 1.89998L16.2 5.19998C14.7 5.59998 13.4 6.19998 12.1 6.99998L9.3 4.99998C8.7 4.59998 7.8 4.59998 7.3 5.19998L4 8.59998C3.5 9.09998 3.5 9.99998 4 10.6L6.2 13.4C5.7 14.5 5.2 15.7 4.9 16.9L1.2 17.5C0.5 17.7 0 18.4 0 19.1L0.1 23.8C0.1 24.6 0.7 25.2 1.5 25.3L5.5 25.8C5.9 26.9 6.4 27.9 6.9 28.8L4.5 32.2C4.1 32.8 4.1 33.7 4.7 34.2L8.1 37.4C8.4 37.7 8.8 37.8 9.2 37.8C9.5 37.8 9.9 37.7 10.2 37.5L13.6 34.8C14.4 35.2 15.2 35.5 16 35.8L16.6 40.1C16.7 40.9 17.4 41.4 18.1 41.4H22.8C23.6 41.4 24.2 40.8 24.3 40.1L24.9 35.8C25.6 35.6 26.3 35.3 27 35C27.5 34.8 27.7 34.2 27.5 33.7C27.3 33.2 26.7 33 26.2 33.2C25.9 33.4 25.5 33.6 25.3 33.6Z" fill="#637EA8"/>
    <path d="M53.1241 30H42.8759C42.438 30 42 29.6 42 29C42 28.4 42.3504 28 42.8759 28H53.1241C53.562 28 54 28.4 54 29C54 29.6 53.562 30 53.1241 30Z" fill="#637EA8"/>
    <path d="M54.1083 37H41.8917C41.4459 37 41 36.6 41 36C41 35.4 41.3567 35 41.8917 35H54.1083C54.5541 35 55 35.4 55 36C55 36.6 54.5541 37 54.1083 37Z" fill="#E8A15B"/>
    <path d="M38 37H36C35.5 37 35 36.6 35 36C35 35.4 35.4 35 36 35H38C38.5 35 39 35.4 39 36C39 36.6 38.5 37 38 37Z" fill="#637EA8"/>
    <path d="M54.1083 44H41.8917C41.4459 44 41 43.6 41 43C41 42.4 41.3567 42 41.8917 42H54.1083C54.5541 42 55 42.4 55 43C55 43.6 54.5541 44 54.1083 44Z" fill="#E8A15B"/>
    <path d="M38 44H36C35.5 44 35 43.6 35 43C35 42.4 35.4 42 36 42H38C38.5 42 39 42.4 39 43C39 43.6 38.5 44 38 44Z" fill="#637EA8"/>
    <path d="M54.1083 51H41.8917C41.4459 51 41 50.6 41 50C41 49.4 41.3567 49 41.8917 49H54.1083C54.5541 49 55 49.4 55 50C55 50.6 54.5541 51 54.1083 51Z" fill="#E8A15B"/>
    <path d="M38 51H36C35.5 51 35 50.6 35 50C35 49.4 35.4 49 36 49H38C38.5 49 39 49.4 39 50C39 50.6 38.5 51 38 51Z" fill="#637EA8"/>
</svg>
