<?xml version="1.0" encoding="utf-8"?>
<!-- Generator: Adobe Illustrator 17.0.0, SVG Export Plug-In . SVG Version: 6.00 Build 0)  -->
<!DOCTYPE svg PUBLIC "-//W3C//DTD SVG 1.1//EN" "http://www.w3.org/Graphics/SVG/1.1/DTD/svg11.dtd">
<svg version="1.1" id="Layer_1" xmlns="http://www.w3.org/2000/svg" xmlns:xlink="http://www.w3.org/1999/xlink" x="0px" y="0px"
	 width="93.822px" height="36px" viewBox="0 0 93.822 36" enable-background="new 0 0 93.822 36" xml:space="preserve">
<title  id="svg-fzuftiujv1-title"></title>
<g>
	<path fill="#1E1E1E" d="M55,21.006V2.004H35.006v5.6c0,1.2,0,4.6-0.6,7.3c-0.3,1.2-1.3,4.4-2.5,6.1H29.7L26.604,27H58v-5.993
		L55,21.006L55,21.006z M40.3,15.404c0.6-2.5,0.7-5,0.7-7.419h8v13.019H38.6C39.4,19.004,39.9,17.404,40.3,15.404z"/>
	<polygon fill="#1E1E1E" points="18,2 18,21 5.99,21 5.99,2 0,2 0,27 23.997,27 23.997,2 	"/>
	<path fill="#1E1E1E" d="M72.8,21.8c-3.9,0-7.1-3.2-7.1-7.1s3.2-7.1,7.1-7.1c2.1,0,3.9,0.9,5.2,2.3l2.7-5.2
		c-2.2-1.7-4.9-2.8-7.9-2.8c-7,0-12.8,5.7-12.8,12.8s5.7,12.8,12.8,12.8c4.2,0,8-2.1,10.3-5.3l-4.6-3.3
		C77.3,20.6,75.2,21.8,72.8,21.8z"/>
	<polygon fill="#ED2D23" points="20.343,36 9.8,36 17.7,21 28.243,21 	"/>
	<polygon fill="#00ADEF" points="85.922,15 75.378,15 83.278,0 93.822,0 	"/>
</g>
</svg>
