<svg width="60" height="60" viewBox="0 0 60 60" fill="none" xmlns="http://www.w3.org/2000/svg">
<path d="M20.5 34.7H11.5C11 34.7 10.5 34.3 10.5 33.7C10.5 33.1 10.9 32.7 11.5 32.7H20.5C21 32.7 21.5 33.1 21.5 33.7C21.5 34.3 21 34.7 20.5 34.7Z" fill="#E8A15B"/>
<path d="M28.5 43.2H11.5C11 43.2 10.5 42.8 10.5 42.2C10.5 41.6 10.9 41.2 11.5 41.2H28.5C29 41.2 29.5 41.6 29.5 42.2C29.5 42.8 29 43.2 28.5 43.2Z" fill="#637EA8"/>
<path d="M28.5 39H11.5C11 39 10.5 38.6 10.5 38C10.5 37.4 10.9 37 11.5 37H28.5C29 37 29.5 37.4 29.5 38C29.5 38.6 29 39 28.5 39Z" fill="#637EA8"/>
<path d="M48.5 43.2H35.5C35 43.2 34.5 42.8 34.5 42.2V33.7C34.5 33.2 34.9 32.7 35.5 32.7H48.5C49 32.7 49.5 33.1 49.5 33.7V42.2C49.5 42.8 49 43.2 48.5 43.2ZM36.5 41.2999H47.6V34.7H36.5V41.2999Z" fill="#E8A15B"/>
<path d="M58 49.2999H55.5V18.2999C55.5 17.7999 55.1 17.2999 54.5 17.2999H45.9C45.4 17.2999 44.9 17.6999 44.9 18.2999C44.9 18.7999 45.3 19.2999 45.9 19.2999H53.5V49.4H6.5V19.2H14.1C14.6 19.2 15.1 18.8 15.1 18.2C15.1 17.7 14.7 17.2 14.1 17.2H5.5C5 17.2 4.5 17.6 4.5 18.2V49.2H2C1.5 49.2 1 49.6 1 50.2V51.2C1 54.5 3.7 57.2 7 57.2H53C56.3 57.2 59 54.5 59 51.2V50.2C59 49.7 58.5 49.2999 58 49.2999ZM57 51.2999C57 53.5 55.2 55.2999 53 55.2999H7C4.8 55.2999 3 53.5 3 51.2999H5.5H54.5H57Z" fill="#3F496A"/>
<path d="M29.8008 30.7C22.1008 30.7 15.8008 24.4 15.8008 16.7C15.8008 8.99995 22.1008 2.69995 29.8008 2.69995C37.5008 2.69995 43.8008 8.99995 43.8008 16.7C43.8008 24.4 37.4008 30.7 29.8008 30.7ZM29.8008 4.69995C23.2008 4.69995 17.8008 10.1 17.8008 16.7C17.8008 23.3 23.2008 28.7 29.8008 28.7C36.4008 28.7 41.8008 23.3 41.8008 16.7C41.8008 10.1 36.4008 4.69995 29.8008 4.69995Z" fill="#637EA8"/>
<path d="M34.7004 11.4999L36.1004 12.8999L27.9004 21.9999L23.5004 17.5999L24.9004 16.1999L27.9004 19.1999L34.7004 11.4999ZM34.7004 9.59985C34.6004 9.59985 34.6004 9.59985 34.7004 9.59985C34.1004 9.59985 33.6004 9.89985 33.3004 10.2999L27.9004 16.4999L26.3004 14.8999C25.9004 14.4999 25.5004 14.2999 25.0004 14.2999C24.5004 14.2999 24.0004 14.4999 23.7004 14.8999L22.3004 16.2999C21.6004 16.9999 21.6004 18.1999 22.3004 18.9999L26.7004 23.3999C27.1004 23.7999 27.5004 23.9999 28.0004 23.9999C28.0004 23.9999 28.0004 23.9999 28.1004 23.9999C28.6004 23.9999 29.1004 23.7999 29.5004 23.3999L37.6004 14.2999C38.3004 13.4999 38.2004 12.3999 37.5004 11.6999L36.0004 10.1999C35.6004 9.79985 35.2004 9.59985 34.7004 9.59985Z" fill="#E8A15B"/>
</svg>
