<svg width="60" height="60" viewBox="0 0 60 60" fill="none" xmlns="http://www.w3.org/2000/svg">
<path d="M20.5 30.9001C15 30.9001 10.5 26.4001 10.5 20.9001C10.5 15.4001 15 10.9001 20.5 10.9001C26 10.9001 30.5 15.4001 30.5 20.9001C30.5 26.4001 26 30.9001 20.5 30.9001ZM20.5 12.9001C16.1 12.9001 12.5 16.5001 12.5 20.9001C12.5 25.3001 16.1 28.9001 20.5 28.9001C24.9 28.9001 28.5 25.3001 28.5 20.9001C28.5 16.5001 24.9 12.9001 20.5 12.9001Z" fill="#E8A15B"/>
<path d="M58.9996 20.6001H39.7996H39.4996H37.5996C37.2996 20.6001 37.0996 20.7001 36.8996 20.9001L35.2996 22.5001L32.4996 25.3001L30.8996 26.9001C30.6996 27.1001 30.5996 27.3001 30.5996 27.6001V29.9001V58.6001C30.5996 59.1001 30.9996 59.6001 31.5996 59.6001H58.9996C59.4996 59.6001 59.9996 59.2001 59.9996 58.6001V21.6001C59.9996 21.0001 59.5996 20.6001 58.9996 20.6001ZM37.5996 22.8001V26.6001H33.7996L37.5996 22.8001ZM58.0996 57.6001H32.4996V28.5001H38.4996C38.9996 28.5001 39.4996 28.1001 39.4996 27.5001V22.5001H58.0996V57.6001Z" fill="#3F496A"/>
<path d="M25.3 33.6001C24.7 33.8001 24 34.0001 23.3 34.2001L23 36.2001L22.5 39.5001H18.4L18 36.2001L17.7 34.2001C17 34.1001 16.3 33.9001 15.7 33.6001C15.5 33.5001 15.4 33.5001 15.2 33.4001C14.5 33.1001 13.9 32.8001 13.3 32.5001L11.7 33.8001L9.1 35.8001L6.1 33.0001L7.9 30.4001L9.1 28.8001C8.7 28.3001 8.3 27.7001 8 27.1001C7.8 26.8001 7.6 26.4001 7.5 26.0001C7.2 25.4001 7 24.7001 6.8 24.0001L4.8 23.8001L2 23.5001L1.9 19.4001L4.6 19.0001L6.6 18.7001C6.7 18.0001 6.8 17.4001 7 16.7001C7.1 16.2001 7.3 15.7001 7.5 15.2001C7.8 14.6001 8.1 13.9001 8.5 13.3001L7.2 11.7001L5.6 9.7001L8.4 6.7001L10.4 8.1001L12 9.3001C12.5 8.9001 13.1 8.5001 13.7 8.2001C14.4 7.8001 15.1 7.5001 15.8 7.3001C16.4 7.1001 17.1 6.9001 17.8 6.8001L18.1 4.8001L18.4 2.5001H22.5L22.8 4.8001L23.1 6.8001C23.8 6.9001 24.5 7.1001 25.1 7.3001C25.6 7.5001 26.1 7.7001 26.5 7.9001C27.1 8.2001 27.7 8.5001 28.3 8.9001L29.8 7.7001L31.7 6.2001L34.7 9.0001L33.2 11.1001L32 12.7001C32.4 13.3001 32.7 13.9001 33 14.5001C33.2 15.0001 33.4 15.5001 33.6 16.0001C33.8 16.6001 34 17.3001 34.1 18.0001L36.1 18.2001L36.8 18.3001C37.3 18.4001 37.8 18.0001 37.9 17.4001C37.9 16.9001 37.6 16.4001 37.1 16.4001L35.8 16.2001C35.5 15.0001 35 13.8001 34.4 12.7001L36.5 9.8001C36.9 9.2001 36.9 8.3001 36.3 7.8001L32.9 4.6001C32.3 4.1001 31.5 4.0001 30.9 4.5001L28.3 6.6001C27.2 6.0001 26.1 5.6001 24.9 5.2001L24.4 1.9001C24.3 1.1001 23.6 0.600098 22.9 0.600098H18.2C17.4 0.600098 16.8 1.2001 16.7 1.9001L16.2 5.2001C14.7 5.6001 13.4 6.2001 12.1 7.0001L9.3 5.0001C8.7 4.6001 7.8 4.6001 7.3 5.2001L4 8.6001C3.5 9.1001 3.5 10.0001 4 10.6001L6.2 13.4001C5.7 14.5001 5.2 15.7001 4.9 16.9001L1.2 17.5001C0.5 17.7001 0 18.4001 0 19.1001L0.1 23.8001C0.1 24.6001 0.7 25.2001 1.5 25.3001L5.5 25.8001C5.9 26.9001 6.4 27.9001 6.9 28.8001L4.5 32.2001C4.1 32.8001 4.1 33.7001 4.7 34.2001L8.1 37.4001C8.4 37.7001 8.8 37.8001 9.2 37.8001C9.5 37.8001 9.9 37.7001 10.2 37.5001L13.6 34.8001C14.4 35.2001 15.2 35.5001 16 35.8001L16.6 40.1001C16.7 40.9001 17.4 41.4001 18.1 41.4001H22.8C23.6 41.4001 24.2 40.8001 24.3 40.1001L24.9 35.8001C25.6 35.6001 26.3 35.3001 27 35.0001C27.5 34.8001 27.7 34.2001 27.5 33.7001C27.3 33.2001 26.7 33.0001 26.2 33.2001C25.9 33.4001 25.5 33.6001 25.3 33.6001Z" fill="#637EA8"/>
<path d="M54.7 28.5H43C42.5 28.5 42 28.1 42 27.5C42 26.9 42.4 26.5 43 26.5H54.7C55.2 26.5 55.7 26.9 55.7 27.5C55.7 28.1 55.2 28.5 54.7 28.5Z" fill="#637EA8"/>
<path d="M54.7 35.5H41C40.5 35.5 40 35.1 40 34.5C40 33.9 40.4 33.5 41 33.5H54.7C55.2 33.5 55.7 33.9 55.7 34.5C55.7 35.1 55.2 35.5 54.7 35.5Z" fill="#E8A15B"/>
<path d="M37 35.5H35C34.5 35.5 34 35.1 34 34.5C34 33.9 34.4 33.5 35 33.5H37C37.5 33.5 38 33.9 38 34.5C38 35.1 37.5 35.5 37 35.5Z" fill="#637EA8"/>
<path d="M54.7 42.7002H41C40.5 42.7002 40 42.3002 40 41.7002C40 41.1002 40.4 40.7002 41 40.7002H54.7C55.2 40.7002 55.7 41.1002 55.7 41.7002C55.7 42.3002 55.2 42.7002 54.7 42.7002Z" fill="#E8A15B"/>
<path d="M37 42.7002H35C34.5 42.7002 34 42.3002 34 41.7002C34 41.1002 34.4 40.7002 35 40.7002H37C37.5 40.7002 38 41.1002 38 41.7002C38 42.3002 37.5 42.7002 37 42.7002Z" fill="#637EA8"/>
<path d="M54.7 50H41C40.5 50 40 49.6 40 49C40 48.4 40.4 48 41 48H54.7C55.2 48 55.7 48.4 55.7 49C55.7 49.6 55.2 50 54.7 50Z" fill="#E8A15B"/>
<path d="M37 50H35C34.5 50 34 49.6 34 49C34 48.4 34.4 48 35 48H37C37.5 48 38 48.4 38 49C38 49.6 37.5 50 37 50Z" fill="#637EA8"/>
</svg>
