<svg width="60" height="60" viewBox="0 0 60 60" fill="none" xmlns="http://www.w3.org/2000/svg">
<path d="M22.8996 30.8H15.5996C15.0996 30.8 14.5996 30.4 14.5996 29.8C14.5996 29.2 14.9996 28.8 15.5996 28.8H22.8996C23.3996 28.8 23.8996 29.2 23.8996 29.8C23.8996 30.4 23.3996 30.8 22.8996 30.8Z" fill="#637EA8"/>
<path d="M49.1992 13.6001H10.6992C10.1992 13.6001 9.69922 13.2001 9.69922 12.6001C9.69922 12.0001 10.0992 11.6001 10.6992 11.6001H49.1992C49.6992 11.6001 50.1992 12.0001 50.1992 12.6001C50.1992 13.2001 49.6992 13.6001 49.1992 13.6001Z" fill="#E8A15B"/>
<path d="M48.4984 18.1001H10.8984C10.3984 18.1001 9.89844 17.7001 9.89844 17.1001C9.89844 16.5001 10.2984 16.1001 10.8984 16.1001H48.4984C48.9984 16.1001 49.4984 16.5001 49.4984 17.1001C49.4984 17.7001 48.9984 18.1001 48.4984 18.1001Z" fill="#E8A15B"/>
<path d="M46.8992 35.9001H12.9992C11.1992 35.9001 9.69922 34.4001 9.69922 32.6001V9.4001C9.69922 7.6001 11.1992 6.1001 12.9992 6.1001H46.8992C48.6992 6.1001 50.1992 7.6001 50.1992 9.4001V32.7001C50.0992 34.5001 48.6992 35.9001 46.8992 35.9001ZM12.9992 8.0001C12.1992 8.0001 11.5992 8.6001 11.5992 9.4001V32.7001C11.5992 33.5001 12.1992 34.1001 12.9992 34.1001H46.8992C47.6992 34.1001 48.2992 33.5001 48.2992 32.7001V9.4001C48.2992 8.6001 47.6992 8.0001 46.8992 8.0001H12.9992Z" fill="#637EA8"/>
<path d="M22.8996 27.2002H15.5996C15.0996 27.2002 14.5996 26.8002 14.5996 26.2002C14.5996 25.6002 14.9996 25.2002 15.5996 25.2002H22.8996C23.3996 25.2002 23.8996 25.6002 23.8996 26.2002C23.8996 26.8002 23.3996 27.2002 22.8996 27.2002Z" fill="#637EA8"/>
<path d="M42.8988 30.8001H38.2988C37.7988 30.8001 37.2988 30.4001 37.2988 29.8001V26.1001C37.2988 25.6001 37.6988 25.1001 38.2988 25.1001H42.8988C43.3988 25.1001 43.8988 25.5001 43.8988 26.1001V29.8001C43.8988 30.4001 43.3988 30.8001 42.8988 30.8001ZM39.2988 28.9001H41.9988V27.1001H39.2988V28.9001Z" fill="#E8A15B"/>
<path d="M55 42.2002H5C4.5 42.2002 4 41.8002 4 41.2002C4 40.6002 4.4 40.2002 5 40.2002H55C55.5 40.2002 56 40.6002 56 41.2002C56 41.8002 55.5 42.2002 55 42.2002Z" fill="#3F496A"/>
<path d="M53.4 16.2001C52.8 15.9001 52.1 16.4001 52.1 17.1001C52.1 17.5001 52.3 17.8001 52.7 18.0001C53.5 18.4001 54.1 19.2001 54.1 20.2001V43.5001C54.1 44.8001 53 45.9001 51.7 45.9001H10.1H8.4C8.3 45.9001 8.3 45.9001 8.3 45.9001C7 45.7001 6 44.7001 6 43.4001V20.1001C6 19.1001 6.7 18.2001 7.6 17.8001C8 17.7001 8.3 17.3001 8.3 16.9001C8.3 16.3001 7.7 15.8001 7.1 16.0001C5.3 16.6001 4 18.2001 4 20.1001V43.4001C4 45.8001 5.9 47.7001 8.3 47.7001H9.1H51.6C54 47.7001 55.9 45.8001 55.9 43.4001V20.1001C56 18.4001 54.9 16.9001 53.4 16.2001Z" fill="#3F496A"/>
<path d="M27 52.9002C26.5 52.9002 26 52.5002 26 51.9002V46.7002C26 46.2002 26.4 45.7002 27 45.7002C27.6 45.7002 28 46.1002 28 46.7002V52.0002C28 52.5002 27.5 52.9002 27 52.9002Z" fill="#3F496A"/>
<path d="M33 52.9002C32.5 52.9002 32 52.5002 32 51.9002V46.7002C32 46.2002 32.4 45.7002 33 45.7002C33.6 45.7002 34 46.1002 34 46.7002V52.0002C34 52.5002 33.5 52.9002 33 52.9002Z" fill="#3F496A"/>
<path d="M40.2008 53.9001H19.8008C19.3008 53.9001 18.8008 53.5001 18.8008 52.9001C18.8008 52.3001 19.2008 51.9001 19.8008 51.9001H40.2008C40.7008 51.9001 41.2008 52.3001 41.2008 52.9001C41.2008 53.5001 40.7008 53.9001 40.2008 53.9001Z" fill="#3F496A"/>
</svg>
