<svg width="60" height="60" viewBox="0 0 60 60" fill="none" xmlns="http://www.w3.org/2000/svg">
<path d="M41.5996 56.3001C41.4996 56.3001 41.4996 56.3001 41.3996 56.3001C29.1996 56.8001 6.29959 35.8001 4.79959 22.7001C4.59959 20.4001 6.79959 16.8001 11.5996 11.8001C12.2996 11.0001 13.2996 10.7001 14.3996 10.8001C15.3996 10.9001 16.3996 11.5001 16.8996 12.4001L22.3996 21.1001C23.2996 22.5001 22.9996 24.4001 21.6996 25.5001C21.5996 25.5001 21.5996 25.6001 21.4996 25.6001C19.8996 26.4001 18.3996 27.5001 18.1996 27.9001C18.0996 30.3001 20.5996 34.2001 24.3996 37.7001C28.1996 41.2001 32.2996 43.4001 34.7996 43.1001C35.1996 42.9001 36.1996 41.2001 36.7996 39.6001C36.7996 39.5001 36.8996 39.5001 36.8996 39.4001C37.7996 38.0001 39.6996 37.5001 41.1996 38.3001L49.3996 42.3001C50.2996 42.7001 50.8996 43.5001 51.1996 44.4001C51.4996 45.3001 51.2996 46.3001 50.7996 47.2001C47.0996 53.0001 43.8996 56.0001 41.5996 56.3001ZM13.8996 12.6001C13.5996 12.6001 13.1996 12.8001 12.9996 13.1001C8.89959 17.4001 6.59959 21.0001 6.69959 22.5001C7.99959 34.6001 30.0996 54.9001 41.3996 54.4001C42.5996 54.3001 45.3996 52.1001 49.2996 46.1001C49.4996 45.7001 49.5996 45.3001 49.4996 44.9001C49.3996 44.5001 49.0996 44.1001 48.6996 44.0001L40.4996 40.0001C39.8996 39.7001 39.0996 39.9001 38.6996 40.4001C37.9996 42.1001 36.6996 44.8001 35.1996 45.0001C31.5996 45.4001 26.6996 42.2001 23.2996 39.1001C19.8996 36.0001 16.3996 31.4001 16.4996 27.7001C16.4996 26.2001 19.0996 24.6001 20.6996 23.8001C21.1996 23.3001 21.2996 22.5001 20.8996 21.9001L15.3996 13.2001C15.1996 12.8001 14.6996 12.6001 14.2996 12.5001C14.0996 12.6001 13.9996 12.6001 13.8996 12.6001Z" fill="#637EA8"/>
<path d="M45.1988 29.6C44.8988 29.6 44.6988 29.5 44.4988 29.2999C43.5988 28.1999 35.2988 18.9 35.2988 13.7C35.2988 8.19995 39.7988 3.69995 45.2988 3.69995C50.7988 3.69995 55.2988 8.19995 55.2988 13.7C55.2988 18.9 46.9988 28.2999 46.0988 29.2999C45.6988 29.5 45.4988 29.6 45.1988 29.6ZM45.1988 5.59995C40.7988 5.59995 37.1988 9.19995 37.1988 13.6C37.1988 17.1 42.4988 23.9 45.1988 27.2C47.9988 24 53.1988 17.1 53.1988 13.6C53.2988 9.19995 49.6988 5.59995 45.1988 5.59995Z" fill="#3F496A"/>
<path d="M45.1992 17.5999C42.9992 17.5999 41.1992 15.7999 41.1992 13.5999C41.1992 11.3999 42.9992 9.59985 45.1992 9.59985C47.3992 9.59985 49.1992 11.3999 49.1992 13.5999C49.1992 15.7999 47.3992 17.5999 45.1992 17.5999ZM45.1992 11.5999C44.0992 11.5999 43.1992 12.4999 43.1992 13.5999C43.1992 14.6999 44.0992 15.5999 45.1992 15.5999C46.2992 15.5999 47.1992 14.6999 47.1992 13.5999C47.1992 12.4999 46.2992 11.5999 45.1992 11.5999Z" fill="#E8A15B"/>
</svg>
