<svg width="604" height="243" viewBox="0 0 604 243" fill="none" xmlns="http://www.w3.org/2000/svg">
<rect x="2.5" y="2.5" width="599" height="238" rx="2.5" fill="white" stroke="#CBDBE5" stroke-width="5"/>
<rect x="17.5" y="17.5" width="569" height="208" rx="3.5" fill="white" stroke="#CBDBE5" stroke-width="3"/>
<g clip-path="url(#clip0)">
<path d="M302.07 181.76C305.954 181.76 309.102 178.612 309.102 174.729C309.102 170.846 305.954 167.698 302.07 167.698C298.187 167.698 295.039 170.846 295.039 174.729C295.039 178.612 298.187 181.76 302.07 181.76Z" fill="#E78488"/>
<path d="M335.891 126H268.109C266.944 126 266 126.944 266 128.109V178.732C266 179.897 266.944 180.841 268.109 180.841H292.633C287.798 173.402 293.162 163.479 302.07 163.479C310.979 163.479 316.343 173.402 311.507 180.841H335.891C337.056 180.841 338 179.897 338 178.732V128.109C338 126.944 337.056 126 335.891 126V126ZM293.562 134.578H310.438C311.602 134.578 312.547 135.522 312.547 136.687C312.547 137.852 311.602 138.796 310.438 138.796H293.562C292.398 138.796 291.453 137.852 291.453 136.687C291.453 135.522 292.398 134.578 293.562 134.578ZM323.094 159.889H280.906C279.741 159.889 278.797 158.945 278.797 157.78C278.797 156.615 279.741 155.67 280.906 155.67H323.094C324.259 155.67 325.203 156.615 325.203 157.78C325.203 158.945 324.259 159.889 323.094 159.889ZM323.094 151.452H280.906C279.741 151.452 278.797 150.508 278.797 149.343C278.797 148.178 279.741 147.233 280.906 147.233H323.094C324.259 147.233 325.203 148.178 325.203 149.343C325.203 150.508 324.259 151.452 323.094 151.452Z" fill="#7E95C0"/>
<path d="M293.668 182.198V195.887C293.668 197.56 295.535 198.578 296.943 197.645L302.141 194.199L307.338 197.645C308.724 198.564 310.613 197.579 310.613 195.887V182.036C306.169 187.223 298.214 187.306 293.668 182.198Z" fill="#E78488"/>
</g>
<g clip-path="url(#clip1)">
<path d="M514.511 66.3957C513.324 65.4062 511.246 64.4661 509.217 65.3567C505.358 67.979 522.774 78.7157 513.967 114.636C512.136 122.058 507.634 118.199 502.29 116.566C490.119 112.756 477.106 111.915 464.489 110.579C460.036 110.084 455.484 109.738 451.18 108.551C446.628 107.314 446.43 107.066 447.568 102.91C450.734 98.9025 449.448 93.4105 449.3 91.1345C451.675 85.8899 452.565 81.338 450.685 79.0125C445.589 72.9763 444.748 88.6112 438.118 88.6607C435.1 88.3638 433.12 88.6112 432.378 86.9784C431.042 84.1582 428.964 80.4969 426.293 78.7651C422.186 76.0439 421.345 83.5645 423.076 90.6892C422.532 95.0433 422.928 98.0119 425.155 101.179C426.293 102.762 426.54 104.741 426.886 106.621C427.529 109.887 427.925 113.944 427.925 117.259C427.925 119.139 428.272 124.977 428.568 126.857C429.954 135.368 430.399 137.05 436.782 143.284C439.454 145.906 443.511 148.182 445.193 151.695C446.43 154.367 447.518 157.286 448.656 159.958C450.883 165.104 452.268 170.348 453.208 175.84C453.753 178.809 446.677 179.452 447.865 183.559C448.805 186.923 457.81 186.874 458.354 183.014C458.7 180.837 459.739 176.879 460.234 173.861C462.856 162.531 458.997 158.127 462.015 147.836C462.807 144.125 477.304 151.299 479.283 152.635C483.291 155.356 487.595 157.534 491.652 160.156C497.936 164.213 493.582 167.775 489.525 171.09C487.348 172.872 487.348 172.971 484.577 172.327C482.301 171.882 480.52 173.267 480.025 174.9C479.283 177.226 482.648 178.809 484.973 178.512C491.949 177.77 501.597 170.497 504.616 164.213C506.644 166.588 505.803 168.814 504.665 171.833C504.17 173.119 503.626 174.356 503.181 175.642C502.191 178.562 501.251 177.77 498.876 178.314C495.363 179.452 496.947 184.598 500.806 184.004C502.142 183.806 507.188 183.212 507.733 180.887C507.98 179.848 509.019 177.72 509.514 176.681C510.602 174.109 516.639 160.651 513.967 158.078C512.582 156.791 511.493 155.455 510.454 153.872C508.821 151.299 509.563 151.002 510.998 148.825C512.483 146.549 513.818 143.878 515.105 141.503C518.024 135.862 515.847 131.014 518.42 123.493C526.386 99.3973 522.428 73.0257 514.511 66.3957Z" fill="#7E95C0"/>
</g>
<g clip-path="url(#clip2)">
<path d="M90.4889 66.3957C91.6763 65.4062 93.7544 64.4661 95.783 65.3567C99.6422 67.979 82.2261 78.7157 91.0331 114.636C92.8638 122.058 97.3663 118.199 102.71 116.566C114.881 112.756 127.894 111.915 140.511 110.579C144.964 110.084 149.516 109.738 153.82 108.551C158.372 107.314 158.57 107.066 157.432 102.91C154.266 98.9025 155.552 93.4105 155.7 91.1345C153.325 85.8899 152.435 81.338 154.315 79.0125C159.411 72.9763 160.252 88.6112 166.882 88.6607C169.9 88.3638 171.88 88.6112 172.622 86.9784C173.958 84.1582 176.036 80.4969 178.707 78.7651C182.814 76.0439 183.655 83.5645 181.924 90.6892C182.468 95.0433 182.072 98.0119 179.845 101.179C178.707 102.762 178.46 104.741 178.114 106.621C177.471 109.887 177.075 113.944 177.075 117.259C177.075 119.139 176.728 124.977 176.432 126.857C175.046 135.368 174.601 137.05 168.218 143.284C165.546 145.906 161.489 148.182 159.807 151.695C158.57 154.367 157.482 157.286 156.344 159.958C154.117 165.104 152.732 170.348 151.792 175.84C151.247 178.809 158.323 179.452 157.135 183.559C156.195 186.923 147.19 186.874 146.646 183.014C146.3 180.837 145.261 176.879 144.766 173.861C142.144 162.531 146.003 158.127 142.985 147.836C142.193 144.125 127.696 151.299 125.717 152.635C121.709 155.356 117.405 157.534 113.348 160.156C107.064 164.213 111.418 167.775 115.475 171.09C117.652 172.872 117.652 172.971 120.423 172.327C122.699 171.882 124.48 173.267 124.975 174.9C125.717 177.226 122.352 178.809 120.027 178.512C113.051 177.77 103.403 170.497 100.384 164.213C98.3558 166.588 99.1969 168.814 100.335 171.833C100.83 173.119 101.374 174.356 101.819 175.642C102.809 178.562 103.749 177.77 106.124 178.314C109.637 179.452 108.053 184.598 104.194 184.004C102.858 183.806 97.8116 183.212 97.2673 180.887C97.0199 179.848 95.9809 177.72 95.4861 176.681C94.3976 174.109 88.3613 160.651 91.0331 158.078C92.4185 156.791 93.507 155.455 94.546 153.872C96.1788 151.299 95.4366 151.002 94.0018 148.825C92.5174 146.549 91.1816 143.878 89.8951 141.503C86.976 135.862 89.153 131.014 86.5801 123.493C78.6142 99.3973 82.5724 73.0257 90.4889 66.3957Z" fill="#7E95C0"/>
</g>
<path d="M247.608 65.28C245.354 65.28 243.634 64.6533 242.448 63.4C241.274 62.1467 240.688 60.3667 240.688 58.06C240.688 56.9133 240.868 55.8933 241.228 55C241.588 54.0933 242.081 53.3333 242.708 52.72C243.334 52.0933 244.081 51.62 244.948 51.3C245.814 50.98 246.754 50.82 247.768 50.82C248.354 50.82 248.888 50.8667 249.368 50.96C249.848 51.04 250.268 51.14 250.628 51.26C250.988 51.3667 251.288 51.48 251.528 51.6C251.768 51.72 251.941 51.8133 252.048 51.88L251.148 54.4C250.721 54.1733 250.221 53.98 249.648 53.82C249.088 53.66 248.448 53.58 247.728 53.58C247.248 53.58 246.774 53.66 246.308 53.82C245.854 53.98 245.448 54.24 245.088 54.6C244.741 54.9467 244.461 55.4 244.248 55.96C244.034 56.52 243.928 57.2 243.928 58C243.928 58.64 243.994 59.24 244.128 59.8C244.274 60.3467 244.501 60.82 244.808 61.22C245.128 61.62 245.541 61.94 246.048 62.18C246.554 62.4067 247.168 62.52 247.888 62.52C248.341 62.52 248.748 62.4933 249.108 62.44C249.468 62.3867 249.788 62.3267 250.068 62.26C250.348 62.18 250.594 62.0933 250.808 62C251.021 61.9067 251.214 61.82 251.388 61.74L252.248 64.24C251.808 64.5067 251.188 64.7467 250.388 64.96C249.588 65.1733 248.661 65.28 247.608 65.28ZM253.556 59.82C253.556 58.8867 253.696 58.0733 253.976 57.38C254.27 56.6733 254.65 56.0867 255.116 55.62C255.583 55.1533 256.116 54.8 256.716 54.56C257.33 54.32 257.956 54.2 258.596 54.2C260.09 54.2 261.27 54.66 262.136 55.58C263.003 56.4867 263.436 57.8267 263.436 59.6C263.436 59.7733 263.43 59.9667 263.416 60.18C263.403 60.38 263.39 60.56 263.376 60.72H256.616C256.683 61.3333 256.97 61.82 257.476 62.18C257.983 62.54 258.663 62.72 259.516 62.72C260.063 62.72 260.596 62.6733 261.116 62.58C261.65 62.4733 262.083 62.3467 262.416 62.2L262.816 64.62C262.656 64.7 262.443 64.78 262.176 64.86C261.91 64.94 261.61 65.0067 261.276 65.06C260.956 65.1267 260.61 65.18 260.236 65.22C259.863 65.26 259.49 65.28 259.116 65.28C258.17 65.28 257.343 65.14 256.636 64.86C255.943 64.58 255.363 64.2 254.896 63.72C254.443 63.2267 254.103 62.6467 253.876 61.98C253.663 61.3133 253.556 60.5933 253.556 59.82ZM260.556 58.68C260.543 58.4267 260.496 58.18 260.416 57.94C260.35 57.7 260.236 57.4867 260.076 57.3C259.93 57.1133 259.736 56.96 259.496 56.84C259.27 56.72 258.983 56.66 258.636 56.66C258.303 56.66 258.016 56.72 257.776 56.84C257.536 56.9467 257.336 57.0933 257.176 57.28C257.016 57.4667 256.89 57.6867 256.796 57.94C256.716 58.18 256.656 58.4267 256.616 58.68H260.556ZM272.476 59.82C272.476 58.9 272.269 58.1667 271.856 57.62C271.443 57.06 270.829 56.78 270.016 56.78C269.749 56.78 269.503 56.7933 269.276 56.82C269.049 56.8333 268.863 56.8533 268.716 56.88V62.26C268.903 62.38 269.143 62.48 269.436 62.56C269.743 62.64 270.049 62.68 270.356 62.68C271.769 62.68 272.476 61.7267 272.476 59.82ZM275.516 59.74C275.516 60.5533 275.416 61.2933 275.216 61.96C275.016 62.6267 274.723 63.2 274.336 63.68C273.949 64.16 273.469 64.5333 272.896 64.8C272.323 65.0667 271.663 65.2 270.916 65.2C270.503 65.2 270.116 65.16 269.756 65.08C269.396 65 269.049 64.8867 268.716 64.74V68.7H265.736V54.84C266.003 54.76 266.309 54.6867 266.656 54.62C267.003 54.54 267.363 54.4733 267.736 54.42C268.123 54.3667 268.509 54.3267 268.896 54.3C269.296 54.26 269.676 54.24 270.036 54.24C270.903 54.24 271.676 54.3733 272.356 54.64C273.036 54.8933 273.609 55.26 274.076 55.74C274.543 56.2067 274.896 56.78 275.136 57.46C275.389 58.14 275.516 58.9 275.516 59.74ZM286.506 56.92H283.146V65H280.166V56.92H276.806V54.48H286.506V56.92ZM297.894 54.48V65H294.894C294.894 64.3333 294.901 63.6733 294.914 63.02C294.927 62.3533 294.941 61.74 294.954 61.18C294.967 60.62 294.981 60.1333 294.994 59.72C295.021 59.2933 295.034 58.98 295.034 58.78C294.647 59.3267 294.261 59.88 293.874 60.44C293.487 61 293.114 61.5533 292.754 62.1C292.407 62.6333 292.074 63.1467 291.754 63.64C291.447 64.1333 291.174 64.5867 290.934 65H288.314V54.48H291.294C291.294 55.1467 291.287 55.7867 291.274 56.4C291.274 57 291.267 57.5467 291.254 58.04C291.241 58.5333 291.227 58.9667 291.214 59.34C291.201 59.7 291.194 59.98 291.194 60.18C291.994 59.0067 292.727 57.9533 293.394 57.02C294.074 56.0867 294.734 55.24 295.374 54.48H297.894ZM305.777 57.06C304.977 57.1267 304.344 57.3733 303.877 57.8C303.424 58.2267 303.197 58.9 303.197 59.82C303.197 60.7 303.417 61.3467 303.857 61.76C304.297 62.1733 304.937 62.4267 305.777 62.52V57.06ZM308.677 62.52C308.984 62.52 309.29 62.4733 309.597 62.38C309.904 62.2867 310.177 62.14 310.417 61.94C310.67 61.7267 310.87 61.4467 311.017 61.1C311.177 60.7533 311.257 60.32 311.257 59.8C311.257 59.28 311.177 58.8467 311.017 58.5C310.87 58.1533 310.67 57.88 310.417 57.68C310.177 57.4667 309.904 57.3133 309.597 57.22C309.29 57.1267 308.984 57.0733 308.677 57.06V62.52ZM308.677 68.7H305.777V65.04C304.857 64.9733 304.044 64.7933 303.337 64.5C302.644 64.2067 302.064 63.8267 301.597 63.36C301.13 62.8933 300.777 62.3533 300.537 61.74C300.31 61.1267 300.197 60.4733 300.197 59.78C300.197 59.1133 300.304 58.4867 300.517 57.9C300.744 57.3133 301.084 56.7933 301.537 56.34C301.99 55.8733 302.57 55.4933 303.277 55.2C303.984 54.8933 304.817 54.6867 305.777 54.58V49.98L308.677 49.48V54.58C309.424 54.6467 310.137 54.8 310.817 55.04C311.497 55.28 312.09 55.6133 312.597 56.04C313.117 56.4667 313.524 56.9933 313.817 57.62C314.124 58.2333 314.277 58.96 314.277 59.8C314.277 60.6533 314.124 61.3933 313.817 62.02C313.524 62.6467 313.124 63.1733 312.617 63.6C312.11 64.0267 311.517 64.36 310.837 64.6C310.157 64.8267 309.437 64.9733 308.677 65.04V68.7ZM326.156 54.48V65H323.156C323.156 64.3333 323.162 63.6733 323.176 63.02C323.189 62.3533 323.202 61.74 323.216 61.18C323.229 60.62 323.242 60.1333 323.256 59.72C323.282 59.2933 323.296 58.98 323.296 58.78C322.909 59.3267 322.522 59.88 322.136 60.44C321.749 61 321.376 61.5533 321.016 62.1C320.669 62.6333 320.336 63.1467 320.016 63.64C319.709 64.1333 319.436 64.5867 319.196 65H316.576V54.48H319.556C319.556 55.1467 319.549 55.7867 319.536 56.4C319.536 57 319.529 57.5467 319.516 58.04C319.502 58.5333 319.489 58.9667 319.476 59.34C319.462 59.7 319.456 59.98 319.456 60.18C320.256 59.0067 320.989 57.9533 321.656 57.02C322.336 56.0867 322.996 55.24 323.636 54.48H326.156ZM331.939 58.16C332.232 57.88 332.539 57.5733 332.859 57.24C333.192 56.9067 333.512 56.58 333.819 56.26C334.125 55.9267 334.419 55.6067 334.699 55.3C334.979 54.9933 335.225 54.72 335.439 54.48H339.059C338.792 54.76 338.459 55.1067 338.059 55.52C337.672 55.9333 337.259 56.3667 336.819 56.82C336.379 57.26 335.932 57.7 335.479 58.14C335.039 58.58 334.619 58.9733 334.219 59.32C334.619 59.6267 335.045 60.0067 335.499 60.46C335.952 60.9133 336.392 61.4 336.819 61.92C337.259 62.44 337.672 62.9667 338.059 63.5C338.459 64.0333 338.799 64.5333 339.079 65H335.679C335.439 64.64 335.165 64.2667 334.859 63.88C334.552 63.48 334.232 63.0933 333.899 62.72C333.565 62.3333 333.225 61.9733 332.879 61.64C332.545 61.3067 332.232 61.02 331.939 60.78V65H328.959V54.48H331.939V58.16ZM344.502 62.92C344.795 62.92 345.075 62.9133 345.342 62.9C345.609 62.8867 345.822 62.8667 345.982 62.84V60.58C345.862 60.5533 345.682 60.5267 345.442 60.5C345.202 60.4733 344.982 60.46 344.782 60.46C344.502 60.46 344.235 60.48 343.982 60.52C343.742 60.5467 343.529 60.6067 343.342 60.7C343.155 60.7933 343.009 60.92 342.902 61.08C342.795 61.24 342.742 61.44 342.742 61.68C342.742 62.1467 342.895 62.4733 343.202 62.66C343.522 62.8333 343.955 62.92 344.502 62.92ZM344.262 54.2C345.142 54.2 345.875 54.3 346.462 54.5C347.049 54.7 347.515 54.9867 347.862 55.36C348.222 55.7333 348.475 56.1867 348.622 56.72C348.769 57.2533 348.842 57.8467 348.842 58.5V64.7C348.415 64.7933 347.822 64.9 347.062 65.02C346.302 65.1533 345.382 65.22 344.302 65.22C343.622 65.22 343.002 65.16 342.442 65.04C341.895 64.92 341.422 64.7267 341.022 64.46C340.622 64.18 340.315 63.82 340.102 63.38C339.889 62.94 339.782 62.4 339.782 61.76C339.782 61.1467 339.902 60.6267 340.142 60.2C340.395 59.7733 340.729 59.4333 341.142 59.18C341.555 58.9267 342.029 58.7467 342.562 58.64C343.095 58.52 343.649 58.46 344.222 58.46C344.609 58.46 344.949 58.48 345.242 58.52C345.549 58.5467 345.795 58.5867 345.982 58.64V58.36C345.982 57.8533 345.829 57.4467 345.522 57.14C345.215 56.8333 344.682 56.68 343.922 56.68C343.415 56.68 342.915 56.72 342.422 56.8C341.929 56.8667 341.502 56.9667 341.142 57.1L340.762 54.7C340.935 54.6467 341.149 54.5933 341.402 54.54C341.669 54.4733 341.955 54.42 342.262 54.38C342.569 54.3267 342.889 54.2867 343.222 54.26C343.569 54.22 343.915 54.2 344.262 54.2ZM360.237 56.92H356.877V65H353.897V56.92H350.537V54.48H360.237V56.92ZM222.877 80.34C222.744 81.66 222.644 82.98 222.577 84.3C222.51 85.6067 222.457 86.84 222.417 88H220.637C220.664 87.1867 220.704 86.34 220.757 85.46C220.81 84.5667 220.87 83.6733 220.937 82.78C221.004 81.8733 221.077 80.9867 221.157 80.12C221.237 79.24 221.324 78.4 221.417 77.6H223.117C223.544 78.2933 224.044 79.2467 224.617 80.46C225.19 81.66 225.85 83.0467 226.597 84.62C227.344 83.0467 228.004 81.66 228.577 80.46C229.15 79.2467 229.65 78.2933 230.077 77.6H231.797C231.89 78.4 231.977 79.24 232.057 80.12C232.137 80.9867 232.21 81.8733 232.277 82.78C232.344 83.6733 232.404 84.5667 232.457 85.46C232.51 86.34 232.55 87.1867 232.577 88H230.737C230.697 86.84 230.644 85.6067 230.577 84.3C230.51 82.98 230.41 81.66 230.277 80.34C230.064 80.7533 229.817 81.2533 229.537 81.84C229.257 82.4133 228.977 83 228.697 83.6C228.43 84.2 228.177 84.7733 227.937 85.32C227.697 85.8667 227.51 86.3 227.377 86.62H225.817C225.67 86.2867 225.47 85.8467 225.217 85.3C224.977 84.7533 224.717 84.18 224.437 83.58C224.17 82.9667 223.897 82.3733 223.617 81.8C223.337 81.2133 223.09 80.7267 222.877 80.34ZM244.706 82.8C244.706 83.6267 244.586 84.3733 244.346 85.04C244.106 85.7067 243.766 86.28 243.326 86.76C242.899 87.24 242.386 87.6133 241.786 87.88C241.186 88.1333 240.532 88.26 239.826 88.26C239.119 88.26 238.466 88.1333 237.866 87.88C237.266 87.6133 236.746 87.24 236.306 86.76C235.879 86.28 235.546 85.7067 235.306 85.04C235.066 84.3733 234.946 83.6267 234.946 82.8C234.946 81.9867 235.066 81.2467 235.306 80.58C235.546 79.9 235.879 79.32 236.306 78.84C236.746 78.36 237.266 77.9933 237.866 77.74C238.466 77.4733 239.119 77.34 239.826 77.34C240.532 77.34 241.186 77.4733 241.786 77.74C242.386 77.9933 242.899 78.36 243.326 78.84C243.766 79.32 244.106 79.9 244.346 80.58C244.586 81.2467 244.706 81.9867 244.706 82.8ZM242.766 82.8C242.766 81.6267 242.499 80.7 241.966 80.02C241.446 79.3267 240.732 78.98 239.826 78.98C238.919 78.98 238.199 79.3267 237.666 80.02C237.146 80.7 236.886 81.6267 236.886 82.8C236.886 83.9733 237.146 84.9067 237.666 85.6C238.199 86.28 238.919 86.62 239.826 86.62C240.732 86.62 241.446 86.28 241.966 85.6C242.499 84.9067 242.766 83.9733 242.766 82.8ZM246.743 82.82C246.743 81.9 246.876 81.1 247.143 80.42C247.409 79.7267 247.763 79.1533 248.203 78.7C248.643 78.2467 249.149 77.9067 249.723 77.68C250.296 77.4533 250.883 77.34 251.483 77.34C252.883 77.34 253.956 77.78 254.703 78.66C255.449 79.5267 255.823 80.8533 255.823 82.64C255.823 82.72 255.823 82.8267 255.823 82.96C255.823 83.08 255.816 83.1933 255.803 83.3H248.683C248.763 84.38 249.076 85.2 249.623 85.76C250.169 86.32 251.023 86.6 252.183 86.6C252.836 86.6 253.383 86.5467 253.823 86.44C254.276 86.32 254.616 86.2067 254.843 86.1L255.103 87.66C254.876 87.78 254.476 87.9067 253.903 88.04C253.343 88.1733 252.703 88.24 251.983 88.24C251.076 88.24 250.289 88.1067 249.623 87.84C248.969 87.56 248.429 87.18 248.003 86.7C247.576 86.22 247.256 85.6533 247.043 85C246.843 84.3333 246.743 83.6067 246.743 82.82ZM253.883 81.8C253.896 80.96 253.683 80.2733 253.243 79.74C252.816 79.1933 252.223 78.92 251.463 78.92C251.036 78.92 250.656 79.0067 250.323 79.18C250.003 79.34 249.729 79.5533 249.503 79.82C249.276 80.0867 249.096 80.3933 248.963 80.74C248.843 81.0867 248.763 81.44 248.723 81.8H253.883ZM264.935 79.16H260.355V88H258.495V77.6H264.935V79.16ZM276.034 82.8C276.034 83.6267 275.914 84.3733 275.674 85.04C275.434 85.7067 275.094 86.28 274.654 86.76C274.227 87.24 273.714 87.6133 273.114 87.88C272.514 88.1333 271.861 88.26 271.154 88.26C270.447 88.26 269.794 88.1333 269.194 87.88C268.594 87.6133 268.074 87.24 267.634 86.76C267.207 86.28 266.874 85.7067 266.634 85.04C266.394 84.3733 266.274 83.6267 266.274 82.8C266.274 81.9867 266.394 81.2467 266.634 80.58C266.874 79.9 267.207 79.32 267.634 78.84C268.074 78.36 268.594 77.9933 269.194 77.74C269.794 77.4733 270.447 77.34 271.154 77.34C271.861 77.34 272.514 77.4733 273.114 77.74C273.714 77.9933 274.227 78.36 274.654 78.84C275.094 79.32 275.434 79.9 275.674 80.58C275.914 81.2467 276.034 81.9867 276.034 82.8ZM274.094 82.8C274.094 81.6267 273.827 80.7 273.294 80.02C272.774 79.3267 272.061 78.98 271.154 78.98C270.247 78.98 269.527 79.3267 268.994 80.02C268.474 80.7 268.214 81.6267 268.214 82.8C268.214 83.9733 268.474 84.9067 268.994 85.6C269.527 86.28 270.247 86.62 271.154 86.62C272.061 86.62 272.774 86.28 273.294 85.6C273.827 84.9067 274.094 83.9733 274.094 82.8ZM291.64 88H289.78V79.16H285.14V88H283.28V77.6H291.64V88ZM303.582 77.6V88H301.782V80.08C301.382 80.5867 300.942 81.18 300.462 81.86C299.982 82.54 299.502 83.2467 299.022 83.98C298.542 84.7 298.082 85.4133 297.642 86.12C297.202 86.8267 296.822 87.4533 296.502 88H294.842V77.6H296.642V85.08C296.989 84.5067 297.382 83.88 297.822 83.2C298.262 82.5067 298.716 81.8267 299.182 81.16C299.662 80.48 300.136 79.8333 300.602 79.22C301.082 78.5933 301.529 78.0533 301.942 77.6H303.582ZM314.116 77.6V79.16H310.736V88H308.876V79.16H305.496V77.6H314.116ZM325.214 82.8C325.214 83.6267 325.094 84.3733 324.854 85.04C324.614 85.7067 324.274 86.28 323.834 86.76C323.407 87.24 322.894 87.6133 322.294 87.88C321.694 88.1333 321.04 88.26 320.334 88.26C319.627 88.26 318.974 88.1333 318.374 87.88C317.774 87.6133 317.254 87.24 316.814 86.76C316.387 86.28 316.054 85.7067 315.814 85.04C315.574 84.3733 315.454 83.6267 315.454 82.8C315.454 81.9867 315.574 81.2467 315.814 80.58C316.054 79.9 316.387 79.32 316.814 78.84C317.254 78.36 317.774 77.9933 318.374 77.74C318.974 77.4733 319.627 77.34 320.334 77.34C321.04 77.34 321.694 77.4733 322.294 77.74C322.894 77.9933 323.407 78.36 323.834 78.84C324.274 79.32 324.614 79.9 324.854 80.58C325.094 81.2467 325.214 81.9867 325.214 82.8ZM323.274 82.8C323.274 81.6267 323.007 80.7 322.474 80.02C321.954 79.3267 321.24 78.98 320.334 78.98C319.427 78.98 318.707 79.3267 318.174 80.02C317.654 80.7 317.394 81.6267 317.394 82.8C317.394 83.9733 317.654 84.9067 318.174 85.6C318.707 86.28 319.427 86.62 320.334 86.62C321.24 86.62 321.954 86.28 322.474 85.6C323.007 84.9067 323.274 83.9733 323.274 82.8ZM329.81 80.34C329.677 81.66 329.577 82.98 329.51 84.3C329.444 85.6067 329.39 86.84 329.35 88H327.57C327.597 87.1867 327.637 86.34 327.69 85.46C327.744 84.5667 327.804 83.6733 327.87 82.78C327.937 81.8733 328.01 80.9867 328.09 80.12C328.17 79.24 328.257 78.4 328.35 77.6H330.05C330.477 78.2933 330.977 79.2467 331.55 80.46C332.124 81.66 332.784 83.0467 333.53 84.62C334.277 83.0467 334.937 81.66 335.51 80.46C336.084 79.2467 336.584 78.2933 337.01 77.6H338.73C338.824 78.4 338.91 79.24 338.99 80.12C339.07 80.9867 339.144 81.8733 339.21 82.78C339.277 83.6733 339.337 84.5667 339.39 85.46C339.444 86.34 339.484 87.1867 339.51 88H337.67C337.63 86.84 337.577 85.6067 337.51 84.3C337.444 82.98 337.344 81.66 337.21 80.34C336.997 80.7533 336.75 81.2533 336.47 81.84C336.19 82.4133 335.91 83 335.63 83.6C335.364 84.2 335.11 84.7733 334.87 85.32C334.63 85.8667 334.444 86.3 334.31 86.62H332.75C332.604 86.2867 332.404 85.8467 332.15 85.3C331.91 84.7533 331.65 84.18 331.37 83.58C331.104 82.9667 330.83 82.3733 330.55 81.8C330.27 81.2133 330.024 80.7267 329.81 80.34ZM350.979 88H349.119V83.4H344.319V88H342.459V77.6H344.319V81.84H349.119V77.6H350.979V88ZM362.918 77.6V88H361.118V80.08C360.718 80.5867 360.278 81.18 359.798 81.86C359.318 82.54 358.838 83.2467 358.358 83.98C357.878 84.7 357.418 85.4133 356.978 86.12C356.538 86.8267 356.158 87.4533 355.838 88H354.178V77.6H355.978V85.08C356.325 84.5067 356.718 83.88 357.158 83.2C357.598 82.5067 358.051 81.8267 358.518 81.16C358.998 80.48 359.471 79.8333 359.938 79.22C360.418 78.5933 360.865 78.0533 361.278 77.6H362.918ZM369.912 82.34C370.325 82.6333 370.772 83.0067 371.252 83.46C371.732 83.9 372.198 84.38 372.652 84.9C373.118 85.42 373.552 85.9533 373.952 86.5C374.352 87.0333 374.692 87.5333 374.972 88H372.772C372.478 87.5467 372.132 87.0867 371.732 86.62C371.345 86.14 370.938 85.68 370.512 85.24C370.085 84.8 369.652 84.3933 369.212 84.02C368.772 83.6467 368.358 83.3333 367.972 83.08V88H366.112V77.6H367.972V82.06C368.292 81.7533 368.658 81.4 369.072 81C369.485 80.5867 369.898 80.1733 370.312 79.76C370.738 79.3333 371.132 78.9333 371.492 78.56C371.852 78.1733 372.145 77.8533 372.372 77.6H374.532C374.238 77.92 373.892 78.2867 373.492 78.7C373.105 79.1 372.698 79.5133 372.272 79.94C371.858 80.3667 371.445 80.7933 371.032 81.22C370.618 81.6333 370.245 82.0067 369.912 82.34ZM380.374 86.66C380.814 86.66 381.201 86.6533 381.534 86.64C381.881 86.6133 382.167 86.5733 382.394 86.52V83.42C382.261 83.3533 382.041 83.3 381.734 83.26C381.441 83.2067 381.081 83.18 380.654 83.18C380.374 83.18 380.074 83.2 379.754 83.24C379.447 83.28 379.161 83.3667 378.894 83.5C378.641 83.62 378.427 83.7933 378.254 84.02C378.081 84.2333 377.994 84.52 377.994 84.88C377.994 85.5467 378.207 86.0133 378.634 86.28C379.061 86.5333 379.641 86.66 380.374 86.66ZM380.214 77.34C380.961 77.34 381.587 77.44 382.094 77.64C382.614 77.8267 383.027 78.1 383.334 78.46C383.654 78.8067 383.881 79.2267 384.014 79.72C384.147 80.2 384.214 80.7333 384.214 81.32V87.82C384.054 87.8467 383.827 87.8867 383.534 87.94C383.254 87.98 382.934 88.02 382.574 88.06C382.214 88.1 381.821 88.1333 381.394 88.16C380.981 88.2 380.567 88.22 380.154 88.22C379.567 88.22 379.027 88.16 378.534 88.04C378.041 87.92 377.614 87.7333 377.254 87.48C376.894 87.2133 376.614 86.8667 376.414 86.44C376.214 86.0133 376.114 85.5 376.114 84.9C376.114 84.3267 376.227 83.8333 376.454 83.42C376.694 83.0067 377.014 82.6733 377.414 82.42C377.814 82.1667 378.281 81.98 378.814 81.86C379.347 81.74 379.907 81.68 380.494 81.68C380.681 81.68 380.874 81.6933 381.074 81.72C381.274 81.7333 381.461 81.76 381.634 81.8C381.821 81.8267 381.981 81.8533 382.114 81.88C382.247 81.9067 382.341 81.9267 382.394 81.94V81.42C382.394 81.1133 382.361 80.8133 382.294 80.52C382.227 80.2133 382.107 79.9467 381.934 79.72C381.761 79.48 381.521 79.2933 381.214 79.16C380.921 79.0133 380.534 78.94 380.054 78.94C379.441 78.94 378.901 78.9867 378.434 79.08C377.981 79.16 377.641 79.2467 377.414 79.34L377.194 77.8C377.434 77.6933 377.834 77.5933 378.394 77.5C378.954 77.3933 379.561 77.34 380.214 77.34Z" fill="#7E95C0"/>
<defs>
<clipPath id="clip0">
<rect width="72" height="72" fill="white" transform="translate(266 126)"/>
</clipPath>
<clipPath id="clip1">
<rect width="121" height="121" fill="white" transform="translate(412 65)"/>
</clipPath>
<clipPath id="clip2">
<rect width="121" height="121" fill="white" transform="matrix(-1 0 0 1 193 65)"/>
</clipPath>
</defs>
</svg>
