<svg width="163" height="45" viewBox="0 0 163 45" fill="none" xmlns="http://www.w3.org/2000/svg">
    <path d="M9.33018 9.357L20.1685 24.921L25.0632 20.0789L9.33018 9.357Z" fill="#2E64CC"/>
    <path d="M35.9024 9.35711L20.1694 20.079L25.0641 24.9211L35.9024 9.35711Z" fill="#2E64CC"/>
    <path d="M35.9022 35.643L25.0639 20.079L20.1692 24.9211L35.9022 35.643Z" fill="#2E64CC"/>
    <path d="M9.32998 35.6429L25.063 24.921L20.1683 20.0789L9.32998 35.6429Z" fill="#2E64CC"/>
    <path d="M22.7452 0L17.8008 22.5H27.6896L22.7452 0Z" fill="#2E64CC"/>
    <path d="M-2.15292e-07 22.5001L22.7444 27.3914L22.7444 17.6087L-2.15292e-07 22.5001Z" fill="#2E64CC"/>
    <path d="M22.745 45L27.6895 22.5H17.8006L22.745 45Z" fill="#2E64CC"/>
    <path d="M45.4883 22.4999L22.7439 17.6086L22.7439 27.3913L45.4883 22.4999Z" fill="#2E64CC"/>
    <path d="M77.4523 26.0396C77.3808 27.5626 76.9615 28.9103 76.1945 30.0827C75.4276 31.245 74.3487 32.1468 72.958 32.7881C71.5774 33.4294 69.9975 33.75 68.2182 33.75C65.2833 33.75 62.9722 32.8131 61.2849 30.9394C59.5976 29.0656 58.7539 26.4203 58.7539 23.0035V21.9213C58.7539 19.7771 59.1323 17.9033 59.889 16.3001C60.656 14.6869 61.7553 13.4444 63.1869 12.5726C64.6186 11.6909 66.2752 11.25 68.1568 11.25C70.8667 11.25 73.0449 11.9514 74.6913 13.3542C76.3377 14.747 77.2734 16.6708 77.4984 19.1258H72.1297C72.0888 17.7931 71.7462 16.8362 71.1019 16.255C70.4577 15.6738 69.476 15.3833 68.1568 15.3833C66.8172 15.3833 65.8355 15.8742 65.2117 16.8562C64.5879 17.8382 64.2607 19.4063 64.23 21.5606V23.1087C64.23 25.4434 64.5265 27.1117 65.1197 28.1137C65.723 29.1157 66.7558 29.6167 68.2182 29.6167C69.4555 29.6167 70.4014 29.3312 71.0559 28.76C71.7104 28.1889 72.0581 27.2821 72.099 26.0396H77.4523Z" fill="#2E64CC"/>
    <path d="M98.7584 33.4494H93.3744V15.6388H85.352V33.4494H79.968V11.5656H98.7584V33.4494Z" fill="#2E64CC"/>
    <path d="M114.803 29.3612H107.425L106.137 33.4494H100.384L108.576 11.5656H113.637L121.89 33.4494H116.107L114.803 29.3612ZM108.714 25.2881H113.515L111.106 17.6979L108.714 25.2881Z" fill="#2E64CC"/>
    <path d="M128.915 26.0245V33.4494H123.531V11.5656H132.443C134.151 11.5656 135.659 11.8763 136.968 12.4975C138.287 13.1087 139.305 13.9855 140.021 15.1278C140.747 16.26 141.11 17.5476 141.11 18.9905C141.11 21.1248 140.328 22.8332 138.763 24.1157C137.209 25.3883 135.071 26.0245 132.351 26.0245H128.915ZM128.915 21.9514H132.443C133.486 21.9514 134.279 21.6959 134.821 21.1849C135.373 20.6738 135.649 19.9524 135.649 19.0205C135.649 17.9985 135.368 17.1819 134.805 16.5706C134.243 15.9594 133.476 15.6488 132.505 15.6388H128.915V21.9514Z" fill="#2E64CC"/>
    <path d="M151.893 24.7921H149.347V33.4494H143.963V11.5656H149.347V20.0276H151.418L155.713 11.5656H162.232L156.096 21.6658L162.999 33.4494H156.633L151.893 24.7921Z" fill="#2E64CC"/>
</svg>
