<svg width="288" height="23" viewBox="0 0 288 23" fill="none" xmlns="http://www.w3.org/2000/svg">
<path d="M18.3027 0.508992V22.5546H13.2935V4.70816H5.00916V22.5546H0V0.508992H18.3027Z" fill="#4E5D70"/>
<path d="M30.1342 0.254496C33.4523 0.254496 35.9996 0.837714 37.7764 2.00415C39.5532 3.14938 40.4415 5.03688 40.4415 7.66667C40.4415 10.3177 39.5424 12.237 37.7443 13.4246C35.9461 14.5911 33.3773 15.1743 30.0379 15.1743H28.4645V22.5546H23.4553V0.82711C24.5471 0.615031 25.703 0.466575 26.9232 0.381744C28.1434 0.296912 29.2137 0.254496 30.1342 0.254496ZM30.4553 4.48548C30.0914 4.48548 29.7275 4.49608 29.3636 4.51729C29.0211 4.5385 28.7214 4.55971 28.4645 4.58091V10.9433H30.0379C31.7718 10.9433 33.0776 10.71 33.9553 10.2434C34.833 9.77686 35.2718 8.90733 35.2718 7.63486C35.2718 7.01983 35.1541 6.51084 34.9186 6.10788C34.7045 5.70493 34.3834 5.38682 33.9553 5.15353C33.5486 4.89903 33.0455 4.72937 32.4461 4.64454C31.8468 4.5385 31.1831 4.48548 30.4553 4.48548Z" fill="#4E5D70"/>
<path d="M48.3263 11.5159C48.3263 12.5975 48.4547 13.5731 48.7116 14.4426C48.9899 15.3121 49.3752 16.065 49.8676 16.7012C50.3813 17.3163 51.0021 17.7935 51.7299 18.1328C52.4578 18.4721 53.2926 18.6418 54.2345 18.6418C55.155 18.6418 55.9792 18.4721 56.707 18.1328C57.4562 17.7935 58.077 17.3163 58.5694 16.7012C59.0831 16.065 59.4685 15.3121 59.7253 14.4426C60.0036 13.5731 60.1428 12.5975 60.1428 11.5159C60.1428 10.4343 60.0036 9.45874 59.7253 8.58921C59.4685 7.69848 59.0831 6.9456 58.5694 6.33057C58.077 5.69433 57.4562 5.20655 56.707 4.86722C55.9792 4.52789 55.155 4.35823 54.2345 4.35823C53.2926 4.35823 52.4578 4.5385 51.7299 4.89903C51.0021 5.23836 50.3813 5.72614 49.8676 6.36238C49.3752 6.97741 48.9899 7.73029 48.7116 8.62102C48.4547 9.49055 48.3263 10.4555 48.3263 11.5159ZM65.3125 11.5159C65.3125 13.4034 65.0235 15.0682 64.4455 16.5104C63.8889 17.9313 63.1183 19.1296 62.1336 20.1051C61.1489 21.0595 59.9715 21.7805 58.6015 22.2683C57.2529 22.7561 55.7972 23 54.2345 23C52.7146 23 51.2804 22.7561 49.9318 22.2683C48.5832 21.7805 47.4058 21.0595 46.3997 20.1051C45.3936 19.1296 44.6015 17.9313 44.0235 16.5104C43.4456 15.0682 43.1566 13.4034 43.1566 11.5159C43.1566 9.6284 43.4563 7.97418 44.0557 6.55325C44.655 5.11111 45.4578 3.90226 46.4639 2.92669C47.4914 1.95113 48.6688 1.21946 49.996 0.731674C51.3446 0.243892 52.7575 0 54.2345 0C55.7544 0 57.1886 0.243892 58.5373 0.731674C59.8859 1.21946 61.0632 1.95113 62.0694 2.92669C63.0755 3.90226 63.8675 5.11111 64.4455 6.55325C65.0235 7.97418 65.3125 9.6284 65.3125 11.5159Z" fill="#4E5D70"/>
<path d="M69.488 22.5546V0.508992H84.5155V4.67635H74.4972V9.00277H83.3916V13.0747H74.4972V18.3873H85.254V22.5546H69.488Z" fill="#4E5D70"/>
<path d="M102.094 22.5546C101.644 21.8336 101.109 21.0595 100.488 20.2324C99.8891 19.384 99.2255 18.5463 98.4976 17.7192C97.7912 16.8709 97.0527 16.065 96.282 15.3015C95.5114 14.5168 94.7408 13.8276 93.9701 13.2337V22.5546H88.961V0.508992H93.9701V8.84371C95.2759 7.4864 96.5817 6.07607 97.8875 4.61273C99.2148 3.12817 100.446 1.76026 101.58 0.508992H107.521C106.001 2.29046 104.47 4.0083 102.929 5.66252C101.409 7.31674 99.8034 8.98156 98.1123 10.657C99.8891 12.1203 101.602 13.8594 103.25 15.8741C104.92 17.8889 106.514 20.1157 108.034 22.5546H102.094Z" fill="#4E5D70"/>
<path d="M128.168 0.508992V4.73997H121.457V22.5546H116.448V4.73997H109.737V0.508992H128.168Z" fill="#4E5D70"/>
<path d="M127.865 10.9115H137.177V15.2061H127.865V10.9115Z" fill="#4E5D70"/>
<path d="M146.452 0.508992C146.837 1.20885 147.276 2.07838 147.769 3.11757C148.282 4.13555 148.807 5.24896 149.342 6.45781C149.899 7.64546 150.444 8.86492 150.98 10.1162C151.515 11.3675 152.018 12.5445 152.489 13.6473C152.96 12.5445 153.463 11.3675 153.998 10.1162C154.533 8.86492 155.068 7.64546 155.604 6.45781C156.16 5.24896 156.685 4.13555 157.177 3.11757C157.691 2.07838 158.14 1.20885 158.525 0.508992H163.085C163.299 1.97234 163.492 3.61595 163.663 5.43983C163.856 7.24251 164.016 9.13002 164.145 11.1024C164.295 13.0535 164.423 15.0152 164.53 16.9876C164.659 18.9599 164.766 20.8156 164.851 22.5546H159.97C159.906 20.4126 159.821 18.0798 159.714 15.556C159.607 13.0323 159.446 10.4873 159.232 7.92116C158.847 8.8119 158.418 9.79806 157.948 10.8797C157.477 11.9613 157.006 13.0429 156.535 14.1245C156.085 15.2061 155.646 16.2453 155.218 17.242C154.79 18.2176 154.426 19.0553 154.126 19.7552H150.626C150.327 19.0553 149.963 18.2176 149.535 17.242C149.107 16.2453 148.657 15.2061 148.186 14.1245C147.737 13.0429 147.276 11.9613 146.805 10.8797C146.334 9.79806 145.906 8.8119 145.521 7.92116C145.307 10.4873 145.146 13.0323 145.039 15.556C144.932 18.0798 144.847 20.4126 144.782 22.5546H139.902C139.987 20.8156 140.084 18.9599 140.191 16.9876C140.319 15.0152 140.448 13.0535 140.576 11.1024C140.726 9.13002 140.886 7.24251 141.058 5.43983C141.25 3.61595 141.454 1.97234 141.668 0.508992H146.452Z" fill="#4E5D70"/>
<path d="M173.568 11.5159C173.568 12.5975 173.696 13.5731 173.953 14.4426C174.231 15.3121 174.617 16.065 175.109 16.7012C175.623 17.3163 176.244 17.7935 176.971 18.1328C177.699 18.4721 178.534 18.6418 179.476 18.6418C180.396 18.6418 181.221 18.4721 181.948 18.1328C182.698 17.7935 183.319 17.3163 183.811 16.7012C184.325 16.065 184.71 15.3121 184.967 14.4426C185.245 13.5731 185.384 12.5975 185.384 11.5159C185.384 10.4343 185.245 9.45874 184.967 8.58921C184.71 7.69848 184.325 6.9456 183.811 6.33057C183.319 5.69433 182.698 5.20655 181.948 4.86722C181.221 4.52789 180.396 4.35823 179.476 4.35823C178.534 4.35823 177.699 4.5385 176.971 4.89903C176.244 5.23836 175.623 5.72614 175.109 6.36238C174.617 6.97741 174.231 7.73029 173.953 8.62102C173.696 9.49055 173.568 10.4555 173.568 11.5159ZM190.554 11.5159C190.554 13.4034 190.265 15.0682 189.687 16.5104C189.13 17.9313 188.36 19.1296 187.375 20.1051C186.39 21.0595 185.213 21.7805 183.843 22.2683C182.494 22.7561 181.039 23 179.476 23C177.956 23 176.522 22.7561 175.173 22.2683C173.825 21.7805 172.647 21.0595 171.641 20.1051C170.635 19.1296 169.843 17.9313 169.265 16.5104C168.687 15.0682 168.398 13.4034 168.398 11.5159C168.398 9.6284 168.698 7.97418 169.297 6.55325C169.897 5.11111 170.699 3.90226 171.705 2.92669C172.733 1.95113 173.91 1.21946 175.237 0.731674C176.586 0.243892 177.999 0 179.476 0C180.996 0 182.43 0.243892 183.779 0.731674C185.127 1.21946 186.305 1.95113 187.311 2.92669C188.317 3.90226 189.109 5.11111 189.687 6.55325C190.265 7.97418 190.554 9.6284 190.554 11.5159Z" fill="#4E5D70"/>
<path d="M208.151 0.508992H213.161V22.5546H208.151V13.2019H199.739V22.5546H194.73V0.508992H199.739V8.93914H208.151V0.508992Z" fill="#4E5D70"/>
<path d="M234.815 0.508992V4.73997H228.104V22.5546H223.095V4.73997H216.384V0.508992H234.815Z" fill="#4E5D70"/>
<path d="M250.299 22.5546C250.064 21.7911 249.796 21.0065 249.496 20.2006C249.218 19.3947 248.94 18.5888 248.661 17.7829H239.992C239.714 18.5888 239.425 19.3947 239.125 20.2006C238.847 21.0065 238.59 21.7911 238.354 22.5546H233.152C233.987 20.1793 234.779 17.9843 235.529 15.9696C236.278 13.9548 237.006 12.0567 237.712 10.2752C238.44 8.49378 239.146 6.80775 239.831 5.21715C240.538 3.60535 241.265 2.03596 242.015 0.508992H246.799C247.527 2.03596 248.244 3.60535 248.951 5.21715C249.657 6.80775 250.363 8.49378 251.07 10.2752C251.798 12.0567 252.536 13.9548 253.285 15.9696C254.035 17.9843 254.827 20.1793 255.661 22.5546H250.299ZM244.295 5.50346C244.188 5.82158 244.027 6.25634 243.813 6.80775C243.599 7.35915 243.353 7.99539 243.074 8.71646C242.796 9.43753 242.486 10.2328 242.143 11.1024C241.822 11.9719 241.49 12.8838 241.148 13.8382H247.473C247.131 12.8838 246.799 11.9719 246.478 11.1024C246.157 10.2328 245.847 9.43753 245.547 8.71646C245.269 7.99539 245.022 7.35915 244.808 6.80775C244.594 6.25634 244.423 5.82158 244.295 5.50346Z" fill="#4E5D70"/>
<path d="M257.078 22.5546C257.699 21.473 258.362 20.3914 259.069 19.3098C259.775 18.2282 260.492 17.189 261.22 16.1923C261.97 15.1743 262.729 14.2305 263.5 13.361C264.292 12.4703 265.084 11.675 265.876 10.9751C264.977 10.0632 264.142 9.17243 263.372 8.30291C262.601 7.43338 261.862 6.57446 261.156 5.72614C260.471 4.87782 259.797 4.02951 259.133 3.18119C258.47 2.31167 257.795 1.42093 257.11 0.508992H263.147C263.789 1.39972 264.388 2.21623 264.945 2.95851C265.523 3.70078 266.08 4.42185 266.615 5.12172C267.171 5.82158 267.728 6.51084 268.284 7.18949C268.841 7.86814 269.44 8.58921 270.083 9.3527V0.508992H274.963V9.3527C275.606 8.568 276.216 7.82573 276.794 7.12587C277.393 6.4048 277.971 5.69433 278.528 4.99447C279.084 4.29461 279.641 3.58414 280.197 2.86307C280.754 2.12079 281.321 1.3361 281.899 0.508992H287.904C287.133 1.50576 286.405 2.43891 285.72 3.30844C285.057 4.17796 284.382 5.02628 283.697 5.85339C283.012 6.6805 282.306 7.50761 281.578 8.33472C280.872 9.16183 280.09 10.0314 279.234 10.9433C280.968 12.5339 282.552 14.326 283.986 16.3195C285.421 18.2918 286.758 20.3702 288 22.5546H282.413C281.749 21.5579 281.128 20.6353 280.55 19.787C279.973 18.9387 279.395 18.1222 278.817 17.3375C278.239 16.5528 277.639 15.7893 277.018 15.047C276.398 14.2835 275.713 13.4988 274.963 12.6929V22.5546H270.083V12.6929C269.312 13.5837 268.616 14.4108 267.995 15.1743C267.375 15.9378 266.775 16.7012 266.197 17.4647C265.641 18.2282 265.073 19.0235 264.495 19.8506C263.918 20.6565 263.297 21.5579 262.633 22.5546H257.078Z" fill="#4E5D70"/>
</svg>
