<?xml version="1.0" encoding="iso-8859-1"?>
<!-- Generator: Adobe Illustrator 17.0.0, SVG Export Plug-In . SVG Version: 6.00 Build 0)  -->
<!DOCTYPE svg PUBLIC "-//W3C//DTD SVG 1.1//EN" "http://www.w3.org/Graphics/SVG/1.1/DTD/svg11.dtd">
<svg version="1.1" id="&#x421;&#x43B;&#x43E;&#x439;_1"
	 xmlns="http://www.w3.org/2000/svg" xmlns:xlink="http://www.w3.org/1999/xlink" x="0px" y="0px" width="127.942px"
	 height="116.459px" viewBox="0 0 127.942 116.459" style="enable-background:new 0 0 127.942 116.459;" xml:space="preserve">
<g>
	<g>
		<polygon style="fill:#0098C8;" points="0,102.848 0,105.57 2.722,105.57 3.339,105.57 16.333,105.57 16.333,108.292 
			3.339,108.292 2.722,108.292 0,108.292 0,116.459 2.722,116.459 2.722,111.014 19.055,111.014 19.055,102.848 		"/>
	</g>
	<g>
		<polygon style="fill:#0098C8;" points="46.277,102.848 43.555,102.848 43.555,116.459 46.277,116.459 46.277,108.292 
			49.698,113.423 51.499,110.682 		"/>
		<polygon style="fill:#0098C8;" points="59.888,102.848 53.082,113.056 53.079,113.05 51.262,115.769 51.721,116.459 
			54.443,116.459 59.888,108.292 59.888,116.459 62.61,116.459 62.61,102.848 		"/>
	</g>
	<g>
		<polygon style="fill:#0098C8;" points="21.778,108.292 21.778,116.459 40.833,116.459 40.833,113.736 24.5,113.736 24.5,111.014 
			40.833,111.014 40.833,108.292 25.301,108.292 24.5,108.292 		"/>
		<polygon style="fill:#0098C8;" points="25.301,105.57 40.833,105.57 40.833,102.848 21.778,102.848 21.778,105.57 24.5,105.57 		
			"/>
	</g>
	<g>
		<polygon style="fill:#A6A6A6;" points="65.332,102.848 65.332,105.57 72.403,105.57 73.498,105.57 76.22,105.57 77.316,105.57 
			84.387,105.57 84.387,102.848 		"/>
		<rect x="73.498" y="108.292" style="fill:#A6A6A6;" width="2.722" height="8.167"/>
	</g>
	<g>
		<polygon style="fill:#A6A6A6;" points="91.054,105.57 106.165,105.57 106.165,102.848 87.109,102.848 87.109,105.57 
			89.831,105.57 		"/>
		<polygon style="fill:#A6A6A6;" points="87.109,108.292 87.109,116.459 106.165,116.459 106.165,113.736 89.831,113.736 
			89.831,111.014 106.165,111.014 106.165,108.292 91.054,108.292 89.831,108.292 		"/>
	</g>
	<g>
		<polygon style="fill:#A6A6A6;" points="120.674,109.653 120.679,109.656 121.243,109.227 		"/>
		<polygon style="fill:#A6A6A6;" points="125.22,116.459 127.942,116.459 127.942,115.098 122.982,111.382 120.703,113.08 		"/>
		<g>
			<polygon style="fill:#A6A6A6;" points="111.609,102.848 108.887,102.848 108.887,104.209 113.86,107.948 116.113,106.234 			"/>
			<polygon style="fill:#A6A6A6;" points="125.22,102.848 118.866,107.626 118.869,107.628 114.354,110.993 114.351,110.989 
				108.887,115.098 108.887,116.459 111.609,116.459 118.415,111.368 118.422,111.373 120.679,109.656 120.674,109.653 
				121.243,109.227 121.57,108.978 121.573,108.98 127.942,104.209 127.942,102.848 			"/>
		</g>
		<polygon style="fill:#A6A6A6;" points="121.243,109.227 121.573,108.98 121.57,108.978 		"/>
	</g>
</g>
<g>
	<rect x="69.883" y="68.371" style="fill:#A6A6A6;" width="7.528" height="7.528"/>
	<rect x="69.883" y="79.562" style="fill:#A6A6A6;" width="5.032" height="5.032"/>
	<rect x="77.411" y="79.562" style="fill:#A6A6A6;" width="3.341" height="3.341"/>
	<polygon style="fill:#A6A6A6;" points="15.036,8.746 10.663,8.746 10.663,13.119 10.663,17.492 15.036,17.492 19.41,17.492 
		19.41,13.119 19.41,8.746 	"/>
	<rect x="2.8" y="9.629" style="fill:#A6A6A6;" width="6.307" height="6.307"/>
	<rect x="4.89" y="2.344" style="fill:#A6A6A6;" width="4.216" height="4.216"/>
	<rect x="0" y="3.76" style="fill:#A6A6A6;" width="2.8" height="2.8"/>
	<polygon style="fill:#A6A6A6;" points="15.036,0 10.663,0 10.663,6.56 15.036,6.56 19.41,6.56 19.41,0 	"/>
</g>
<g>
	<path style="fill:#0098C8;" d="M111.975,17.502c-0.093-0.372-0.165-0.774-0.269-1.131c-1.257-3.778-3.021-6.928-5.413-9.32
		c-2.394-2.391-5.542-4.156-9.446-5.29C93.07,0.63,88.285,0,82.743,0H23.055v0.614v16.888v2.657v67.233h20.904V61.575h10.026V44.2
		H43.959V17.502H57.56h20.904h0.501c5.164,0,8.689,1.008,10.58,3.15c2.013,2.139,2.895,5.413,2.895,10.072
		c0,3.148-0.378,5.794-1.134,7.807c-0.879,1.89-2.265,3.399-4.282,4.282c-1.275,0.681-2.982,1.056-4.985,1.24v17.522h0.956
		c7.054,0,12.971-1.005,17.379-3.022c4.534-2.139,7.807-5.416,9.823-9.946c2.139-4.66,3.147-10.58,3.147-17.883
		C113.344,25.575,112.902,21.194,111.975,17.502z"/>
</g>
<g>
	<path style="fill:#A6A6A6;" d="M127.847,0h-12.489h-13.032c2.633,1.141,4.881,2.603,6.701,4.421
		c2.563,2.563,4.454,5.94,5.801,9.988c0.111,0.383,0.188,0.814,0.288,1.212c0.15,0.598,0.266,1.247,0.392,1.88h12.339V0z"/>
</g>
<g>
	<polygon style="fill:#A6A6A6;" points="57.56,79.562 57.56,87.391 57.586,87.391 62.805,87.391 68.025,87.391 68.025,79.562 
		62.805,79.562 58.462,79.562 57.586,79.562 	"/>
	<polygon style="fill:#A6A6A6;" points="57.56,21.076 57.56,44.2 57.56,61.575 57.56,76.952 57.586,76.952 58.462,76.952 
		62.805,76.952 68.025,76.952 68.025,71.732 68.025,66.513 73.245,66.513 78.464,66.513 78.464,61.575 78.464,44.2 78.464,21.076 	
		"/>
	<line style="fill:#A6A6A6;" x1="58.462" y1="76.952" x2="57.586" y2="76.952"/>
	<line style="fill:#A6A6A6;" x1="57.586" y1="79.562" x2="58.462" y2="79.562"/>
	<line style="fill:#A6A6A6;" x1="57.56" y1="79.562" x2="57.586" y2="79.562"/>
	<line style="fill:#A6A6A6;" x1="57.586" y1="76.952" x2="57.56" y2="76.952"/>
</g>
</svg>
