<?xml version="1.0" encoding="iso-8859-1"?>
<!-- Generator: Adobe Illustrator 17.0.0, SVG Export Plug-In . SVG Version: 6.00 Build 0)  -->
<!DOCTYPE svg PUBLIC "-//W3C//DTD SVG 1.1//EN" "http://www.w3.org/Graphics/SVG/1.1/DTD/svg11.dtd">
<svg version="1.1" id="&#x421;&#x43B;&#x43E;&#x439;_2"
	 xmlns="http://www.w3.org/2000/svg" xmlns:xlink="http://www.w3.org/1999/xlink" x="0px" y="0px" width="1037.709px"
	 height="1049.01px" viewBox="-1492.906 -965.826 1037.709 1049.01"
	 style="enable-background:new -1492.906 -965.826 1037.709 1049.01;" xml:space="preserve">
<g>
	<path style="fill:#FFFFFF;" d="M-1153.049-964.872h-253.938v168.019h253.938v139.38v153.699v170.883h-21.002h-64.917
		c-46.778,0-85.919-38.186-85.919-85.919c0-46.778,38.186-85.919,85.919-85.919h64.917V-665.11v-8.592h-64.917
		c-140.334,0-253.938,113.604-253.938,253.938c0,140.334,113.604,253.938,253.938,253.938h85.919h168.019v-800L-1153.049-964.872
		L-1153.049-964.872z M-1153.049-178.237L-1153.049-178.237L-1153.049-178.237L-1153.049-178.237z"/>
	<path style="fill:#FFFFFF;" d="M-710.09-670.839h-84.964v-124.105h253.938v-168.019h-253.938h-168.019v461.098h15.275h153.699
		h84.964c46.778,0,85.919,38.186,85.919,85.919c0,46.778-38.186,85.919-85.919,85.919c-46.778,0-85.919-38.186-85.919-85.919l0,0
		v-21.003v-21.003v-22.912h-168.019v22.912v21.003v21.003c0,140.334,113.604,253.938,253.938,253.938
		s253.938-113.604,253.938-253.938C-455.197-557.235-569.755-670.839-710.09-670.839z M-796.008-656.519L-796.008-656.519
		L-796.008-656.519C-795.054-656.519-795.054-656.519-796.008-656.519z"/>
	<g>
		<path style="fill:#FFFFFF;" d="M-1492.906,50.707V-57.232c0-1.91,0.955-2.866,2.866-2.866h61.133c1.91,0,2.866,0.955,2.866,2.866
			v7.642c0,1.91-0.955,2.866-2.866,2.866h-43.94v28.656h19.104c11.462,0,20.059,3.821,26.746,10.507
			c5.731,6.686,8.597,14.328,8.597,24.835c0,10.507-3.821,18.149-10.507,25.791c-6.686,6.687-15.283,10.507-25.791,10.507h-35.343
			C-1490.995,54.527-1492.906,52.617-1492.906,50.707z M-1472.846,41.155h13.373c14.328,0,21.97-7.642,21.97-21.97
			c0-9.552-3.821-16.238-11.463-20.059c-2.866-0.955-6.686-1.91-10.507-1.91h-13.373V41.155z"/>
		<path style="fill:#FFFFFF;" d="M-1403.116,50.707V-57.232c0-1.91,0.955-2.866,2.866-2.866h13.373c1.91,0,2.866,0.955,2.866,2.866
			v73.551l0,0l44.895-74.506c0.955-1.91,2.866-2.866,5.731-2.866h11.462c1.91,0,2.866,0.955,2.866,2.866V49.751
			c0,1.911-0.955,2.866-2.866,2.866h-13.373c-1.91,0-2.866-0.955-2.866-2.866V-23.8l0,0l-44.895,74.506
			c-0.955,1.911-2.866,2.866-4.776,2.866h-11.463C-1402.161,54.527-1403.116,52.617-1403.116,50.707z"/>
		<path style="fill:#FFFFFF;" d="M-1304.73,46.886c0-0.955,0-0.955,0.955-2.866l2.866-6.687c0-0.955,0.955-0.955,2.866-0.955
			s3.821,0.955,5.731,0.955c1.91,0,4.776,0.955,6.686,0.955c6.686,0.955,11.462,1.911,16.239,1.911
			c3.821,0,7.642-0.955,10.507-1.911c2.866-0.955,5.731-2.866,6.686-4.776c2.866-2.866,4.776-7.642,4.776-13.373
			c0-8.597-3.821-14.328-11.462-17.194c-2.866-0.955-6.687-1.91-10.507-1.91h-10.507c-1.91,0-2.866-0.955-2.866-2.866v-6.686
			c0-1.91,0.955-2.866,2.866-2.866h6.687c8.597,0,15.283-3.821,19.104-10.507c0.955-1.91,1.91-4.776,1.91-7.642
			c0-4.776-1.91-9.552-4.776-12.418c-2.866-2.866-8.597-4.776-15.283-4.776c-5.731,0-12.418,0.955-20.059,3.821
			c-2.866,0.955-3.821,0.955-3.821,0l-2.866-6.686c-0.955-1.91-0.955-2.866,0-3.821c0.955-0.955,1.91-1.91,3.821-2.866
			s3.821-1.91,6.686-2.866c5.731-1.91,11.462-2.866,17.194-2.866s11.463,0.955,16.239,1.91c4.776,1.91,9.552,3.821,12.418,6.686
			c7.642,5.731,10.507,13.373,10.507,22.925c0,10.507-5.731,19.104-18.149,23.88l0,0c7.642,0.955,13.373,3.821,17.194,9.552
			c3.821,4.776,5.731,11.462,5.731,18.149c0,9.552-3.821,18.149-12.418,24.835c-8.597,6.687-18.149,9.552-30.567,9.552
			c-9.552,0-19.104-1.911-28.656-5.731C-1302.819,48.796-1304.73,47.841-1304.73,46.886z"/>
		<path style="fill:#FFFFFF;" d="M-1213.03,50.707V-57.232c0-1.91,0.955-2.866,2.866-2.866h13.373c1.91,0,2.866,0.955,2.866,2.866
			v44.895h41.074v-44.895c0-1.91,0.955-2.866,2.866-2.866h13.373c1.91,0,2.866,0.955,2.866,2.866V50.707
			c0,1.911-0.955,2.866-2.866,2.866h-13.373c-1.91,0-2.866-0.955-2.866-2.866V2.946h-41.074v47.76c0,1.911-0.955,2.866-2.866,2.866
			h-13.373C-1212.075,54.527-1213.03,52.617-1213.03,50.707z"/>
		<path style="fill:#FFFFFF;" d="M-1116.554,50.707V-57.232c0-1.91,0.955-2.866,2.866-2.866h56.357c1.91,0,2.866,0.955,2.866,2.866
			v7.642c0,1.91-0.955,2.866-2.866,2.866h-39.164v35.343h31.522c1.91,0,2.866,0.955,2.866,2.866v8.597
			c0,1.91-0.955,2.866-2.866,2.866h-31.522v36.298h39.164c1.91,0,2.866,0.955,2.866,2.866v7.642c0,1.911-0.955,2.866-2.866,2.866
			h-56.357C-1115.599,54.527-1116.554,52.617-1116.554,50.707z"/>
		<path style="fill:#FFFFFF;" d="M-1042.048-2.785c0-19.104,5.731-33.432,16.239-43.94c9.552-9.552,22.925-14.328,40.119-14.328
			c9.552,0,18.149,1.91,26.746,5.731c3.821,0.955,5.731,2.866,5.731,3.821c0,0.955,0,0.955-0.955,2.866l-2.866,6.686
			c-0.955,0.955-1.91,0.955-4.776,0c-10.507-2.866-18.149-3.821-23.88-3.821s-10.507,0.955-14.328,1.91
			c-3.821,0.955-7.642,3.821-11.462,7.642c-6.686,7.642-10.507,19.104-10.507,34.388s3.821,26.746,10.507,34.388
			c5.731,6.687,14.328,9.552,24.835,9.552c6.686,0,15.283-0.955,24.835-3.821c1.91-0.955,3.821-0.955,3.821,0l2.866,5.731
			c0.955,1.911,0.955,3.821,0,4.776c-0.955,0.955-2.866,1.911-4.776,2.866c-1.91,0.955-4.776,1.911-7.642,2.866
			c-14.328,3.821-28.656,3.821-41.074-0.955c-14.328-4.776-23.88-15.283-29.612-29.611
			C-1040.137,15.364-1042.048,6.767-1042.048-2.785z"/>
		<path style="fill:#FFFFFF;" d="M-938.885,0.08v-7.642c0-1.91,0.955-2.866,2.866-2.866h36.298c1.91,0,2.866,0.955,2.866,2.866V0.08
			c0,1.91-0.955,2.866-2.866,2.866h-36.298C-937.93,3.901-938.885,2.946-938.885,0.08z"/>
		<path style="fill:#FFFFFF;" d="M-880.618,50.707V-57.232c0-1.91,0.955-2.866,2.866-2.866h13.373c1.91,0,2.866,0.955,2.866,2.866
			v96.476h41.074v-96.476c0-1.91,0.955-2.866,2.866-2.866h13.373c1.91,0,2.866,0.955,2.866,2.866v96.476h8.597
			c1.91,0,2.866,0.955,2.866,2.866v38.208c0,1.911-0.955,2.866-2.866,2.866h-10.507c-1.91,0-2.866-0.955-2.866-2.866l-2.866-26.746
			h-69.73C-879.663,54.527-880.618,52.617-880.618,50.707z"/>
		<path style="fill:#FFFFFF;" d="M-778.411,50.707V-57.232c0-1.91,0.955-2.866,2.866-2.866h56.357c1.91,0,2.866,0.955,2.866,2.866
			v7.642c0,1.91-0.955,2.866-2.866,2.866h-39.164v35.343h31.522c1.91,0,2.866,0.955,2.866,2.866v8.597
			c0,1.91-0.955,2.866-2.866,2.866h-31.522v36.298h39.164c1.91,0,2.866,0.955,2.866,2.866v7.642c0,1.911-0.955,2.866-2.866,2.866
			h-56.357C-777.455,54.527-778.411,52.617-778.411,50.707z"/>
		<path style="fill:#FFFFFF;" d="M-701.994,50.707V-57.232c0-1.91,0.955-2.866,2.866-2.866h13.373c1.91,0,2.866,0.955,2.866,2.866
			v44.895h41.074v-44.895c0-1.91,0.955-2.866,2.866-2.866h13.373c1.91,0,2.866,0.955,2.866,2.866V50.707
			c0,1.911-0.955,2.866-2.866,2.866h-13.373c-1.91,0-2.866-0.955-2.866-2.866V2.946h-41.074v47.76c0,1.911-0.955,2.866-2.866,2.866
			h-13.373C-701.039,54.527-701.994,52.617-701.994,50.707z"/>
		<path style="fill:#FFFFFF;" d="M-612.205-48.635v-8.597c0-1.91,0.955-2.866,2.866-2.866h66.865c1.91,0,2.866,0.955,2.866,2.866
			v7.642c0,1.91-0.955,2.866-2.866,2.866h-22.925v96.476c0,1.911-0.955,2.866-2.866,2.866h-13.373c-1.91,0-2.866-0.955-2.866-2.866
			v-95.521h-22.925C-611.249-45.769-612.205-46.725-612.205-48.635z"/>
		<path style="fill:#FFFFFF;" d="M-530.057,50.707V-57.232c0-1.91,0.955-2.866,2.866-2.866h29.611
			c11.462,0,21.97,3.821,29.611,11.462c7.642,7.642,11.462,17.194,11.462,28.656c0,10.507-3.821,20.059-11.462,27.701
			c-7.642,7.642-17.194,11.462-29.611,11.462h-13.373v31.522c0,1.911-0.955,2.866-2.866,2.866h-13.373
			C-529.102,54.527-530.057,52.617-530.057,50.707z M-509.997,4.857h10.507c16.238,0,23.88-8.597,23.88-25.791
			s-7.642-24.835-23.88-25.791h-10.507V4.857z"/>
	</g>
</g>
</svg>
