<svg width="87" height="86" viewBox="0 0 87 86" fill="none" xmlns="http://www.w3.org/2000/svg">
<path d="M79.2554 63.807H6.74728C6.68051 63.807 6.61778 63.7928 6.56011 63.7695H4.03379C3.97612 63.7928 3.9134 63.807 3.84662 63.807C1.72599 63.807 0.00195312 65.532 0.00195312 67.6516V70.5523C0.00195312 72.6729 1.72701 74.397 3.84662 74.397H19.1564C19.2414 74.397 19.3234 74.4192 19.3962 74.4587H22.0561C22.1198 74.4303 22.1816 74.397 22.2544 74.397H27.8575C27.9425 74.397 28.0244 74.4192 28.0973 74.4587H30.7572C30.8209 74.4303 30.8826 74.397 30.9554 74.397H37.201C37.285 74.397 37.3608 74.4223 37.4317 74.4587H39.872C39.9418 74.4223 40.0177 74.397 40.1027 74.397H45.9031C45.987 74.397 46.0629 74.4223 46.1337 74.4587H48.5741C48.6439 74.4223 48.7197 74.397 48.8047 74.397H55.0503C55.1231 74.397 55.1849 74.4303 55.2486 74.4587H57.9085C57.9813 74.4192 58.0623 74.397 58.1483 74.397H63.7524C63.8252 74.397 63.8869 74.4303 63.9506 74.4587H66.6105C66.6834 74.4192 66.7643 74.397 66.8503 74.397H82.1591C84.2797 74.397 86.0038 72.6719 86.0038 70.5523V67.6516C86.0038 65.531 84.2787 63.807 82.1591 63.807C82.0923 63.807 82.0296 63.7928 81.9719 63.7695H79.4456C79.3849 63.7928 79.3222 63.807 79.2554 63.807ZM82.1561 65.6969C83.2346 65.6969 84.1128 66.5741 84.1128 67.6526V70.5533C84.1128 71.6318 83.2356 72.51 82.1561 72.51H3.84761C2.76909 72.51 1.8909 71.6329 1.8909 70.5533V67.6526C1.8909 66.5751 2.76807 65.6969 3.84761 65.6969H82.1561Z" fill="#3F496A"/>
<path d="M82.1562 5.80006H60.4035C60.3671 5.80006 60.3347 5.7869 60.3003 5.77881H57.605C57.5706 5.78589 57.5392 5.80006 57.5018 5.80006H28.499C28.4626 5.80006 28.4302 5.7869 28.3958 5.77881H25.7005C25.6661 5.78589 25.6347 5.80006 25.5973 5.80006H3.84465C1.72403 5.80006 0 7.52509 0 9.64471V12.5454C0 14.665 1.72504 16.39 3.84465 16.39C3.91649 16.39 3.98326 16.4052 4.04498 16.4325H6.544C6.60572 16.4062 6.6735 16.39 6.74433 16.39H79.2524C79.3243 16.39 79.391 16.4052 79.4528 16.4325H81.9518C82.0135 16.4062 82.0813 16.39 82.1521 16.39C84.2727 16.39 85.9967 14.665 85.9967 12.5454V9.64471C86.0008 7.52509 84.2768 5.80006 82.1562 5.80006ZM84.1129 12.5454C84.1129 13.6239 83.2357 14.5011 82.1562 14.5011H3.84768C2.76915 14.5011 1.89096 13.6239 1.89096 12.5454V9.64471C1.89096 8.56618 2.76814 7.68798 3.84768 7.68798H82.1562C83.2347 7.68798 84.1129 8.56517 84.1129 9.64471V12.5454Z" fill="#3F496A"/>
<path d="M44.454 33.7924H48.8045C49.3256 33.7924 49.7495 33.3685 49.7495 32.8475V21.2467C49.7495 20.7257 49.3256 20.3018 48.8045 20.3018H37.2028C36.6817 20.3018 36.2578 20.7257 36.2578 21.2467V32.8475C36.2578 33.3685 36.6817 33.7924 37.2028 33.7924H41.5533C41.6181 33.7924 41.6798 33.8066 41.7374 33.8299H44.2709C44.3275 33.8066 44.3892 33.7924 44.454 33.7924ZM38.6526 31.9035C38.3734 31.9035 38.1468 31.6769 38.1468 31.3976V22.6966C38.1468 22.4173 38.3734 22.1907 38.6526 22.1907H47.3547C47.6339 22.1907 47.8606 22.4173 47.8606 22.6966V31.3976C47.8606 31.6769 47.6339 31.9035 47.3547 31.9035H38.6526Z" fill="#637EA8"/>
<path d="M67.6558 46.405H63.3053C62.7843 46.405 62.3613 46.829 62.3613 47.35V58.9507C62.3613 59.4718 62.7843 59.8947 63.3053 59.8947H74.907C75.4281 59.8947 75.851 59.4718 75.851 58.9507V47.35C75.851 46.829 75.4281 46.405 74.907 46.405H70.5565C70.4806 46.405 70.4098 46.3858 70.3461 46.3555H67.8673C67.8025 46.3858 67.7317 46.405 67.6558 46.405ZM73.4572 48.294C73.7364 48.294 73.9631 48.5206 73.9631 48.7999V57.5009C73.9631 57.7802 73.7364 58.0068 73.4572 58.0068H64.7561C64.4769 58.0068 64.2503 57.7802 64.2503 57.5009V48.7999C64.2503 48.5206 64.4769 48.294 64.7561 48.294H73.4572Z" fill="#637EA8"/>
<path d="M41.5533 46.405H37.2028C36.6817 46.405 36.2578 46.829 36.2578 47.35V58.9507C36.2578 59.4718 36.6817 59.8947 37.2028 59.8947H48.8045C49.3256 59.8947 49.7495 59.4718 49.7495 58.9507V47.35C49.7495 46.829 49.3256 46.405 48.8045 46.405H44.454C44.3781 46.405 44.3073 46.3858 44.2436 46.3555H41.7648C41.699 46.3858 41.6292 46.405 41.5533 46.405ZM47.3547 48.294C47.6339 48.294 47.8606 48.5206 47.8606 48.7999V57.5009C47.8606 57.7802 47.6339 58.0068 47.3547 58.0068H38.6526C38.3734 58.0068 38.1468 57.7802 38.1468 57.5009V48.7999C38.1468 48.5206 38.3734 48.294 38.6526 48.294H47.3547Z" fill="#E8A15B"/>
<path d="M70.5565 33.7924H74.907C75.4281 33.7924 75.851 33.3685 75.851 32.8475V21.2467C75.851 20.7257 75.4281 20.3018 74.907 20.3018H63.3053C62.7843 20.3018 62.3613 20.7257 62.3613 21.2467V32.8475C62.3613 33.3685 62.7843 33.7924 63.3053 33.7924H67.6558C67.7206 33.7924 67.7823 33.8066 67.84 33.8299H70.3724C70.43 33.8066 70.4907 33.7924 70.5565 33.7924ZM64.7551 31.9035C64.4759 31.9035 64.2493 31.6769 64.2493 31.3976V22.6966C64.2493 22.4173 64.4759 22.1907 64.7551 22.1907H73.4562C73.7354 22.1907 73.9621 22.4173 73.9621 22.6966V31.3976C73.9621 31.6769 73.7354 31.9035 73.4562 31.9035H64.7551Z" fill="#E8A15B"/>
<path d="M11.0973 59.8957H22.699C23.22 59.8957 23.643 59.4728 23.643 58.9518V47.35C23.643 46.829 23.22 46.405 22.699 46.405H18.3485C18.2726 46.405 18.2018 46.3858 18.138 46.3555H15.6592C15.5945 46.3858 15.5247 46.405 15.4488 46.405H11.0983C10.5772 46.405 10.1543 46.829 10.1543 47.35V58.9507C10.1533 59.4718 10.5772 59.8957 11.0973 59.8957ZM12.0422 48.7999C12.0422 48.5206 12.2689 48.294 12.5481 48.294H21.2492C21.5284 48.294 21.755 48.5206 21.755 48.7999V57.5009C21.755 57.7802 21.5284 58.0068 21.2492 58.0068H12.5481C12.2689 58.0068 12.0422 57.7802 12.0422 57.5009V48.7999Z" fill="#637EA8"/>
<path d="M18.3495 33.7924H22.7C23.221 33.7924 23.644 33.3685 23.644 32.8475V21.2467C23.644 20.7257 23.221 20.3018 22.7 20.3018H11.0983C10.5772 20.3018 10.1543 20.7257 10.1543 21.2467V32.8475C10.1543 33.3685 10.5772 33.7924 11.0983 33.7924H15.4488C15.5135 33.7924 15.5753 33.8066 15.6329 33.8299H18.1653C18.223 33.8066 18.2837 33.7924 18.3495 33.7924ZM12.5491 31.9035C12.2699 31.9035 12.0432 31.6769 12.0432 31.3976V22.6966C12.0432 22.4173 12.2699 22.1907 12.5491 22.1907H21.2502C21.5294 22.1907 21.756 22.4173 21.756 22.6966V31.3976C21.756 31.6769 21.5294 31.9035 21.2502 31.9035H12.5491Z" fill="#E8A15B"/>
<path d="M57.6076 5.77912H60.3029C60.0742 5.73055 59.9002 5.53731 59.9002 5.29449V3.84465C59.9002 3.66254 59.8709 3.48852 59.8466 3.31348C59.5835 1.44579 57.9931 0 56.0555 0H29.9524C28.0149 0 26.4234 1.44579 26.1614 3.31348C26.1371 3.48852 26.1077 3.66254 26.1077 3.84465V5.29449C26.1077 5.53731 25.9327 5.73055 25.7051 5.77912H28.4004C28.1717 5.73055 27.9977 5.53731 27.9977 5.29449V3.84465C27.9977 3.6595 28.0321 3.48346 28.0807 3.31348C28.3134 2.49396 29.061 1.88793 29.9544 1.88793H56.0576C56.95 1.88793 57.6976 2.49396 57.9303 3.31348C57.9789 3.48346 58.0133 3.6595 58.0133 3.84465V5.29449C58.0103 5.53731 57.8362 5.73055 57.6076 5.77912Z" fill="#E8A15B"/>
<path d="M4.35386 61.977V63.3014C4.35386 63.5149 4.22132 63.695 4.03516 63.7699H6.56151C6.37534 63.696 6.2428 63.5149 6.2428 63.3014V61.977V18.2249V16.8965C6.2428 16.6881 6.36927 16.51 6.54835 16.4331H4.04933C4.22841 16.511 4.35488 16.6891 4.35488 16.8965V18.2249V61.977H4.35386Z" fill="#637EA8"/>
<path d="M46.1337 74.459C46.2956 74.543 46.4089 74.7079 46.4089 74.9031V76.2518V83.6042C46.4089 83.8834 46.1823 84.1101 45.903 84.1101H40.1026C39.8234 84.1101 39.5968 83.8834 39.5968 83.6042V76.2518V74.9031C39.5968 74.7079 39.7111 74.544 39.872 74.459H37.4316C37.5935 74.543 37.7068 74.7079 37.7068 74.9031V76.2518V83.6042C37.7068 84.9245 38.7813 85.999 40.1016 85.999H45.902C47.2223 85.999 48.2968 84.9245 48.2968 83.6042V76.2518V74.9031C48.2968 74.7079 48.4111 74.544 48.572 74.459H46.1337Z" fill="#637EA8"/>
<path d="M28.0995 74.4585C28.1683 74.496 28.23 74.5476 28.2765 74.6143C28.3706 74.7509 28.3929 74.9249 28.3342 75.0797L27.8951 76.2503L25.0713 83.7808C24.9974 83.9781 24.8082 84.1086 24.5978 84.1086H18.9937C18.8278 84.1086 18.673 84.0267 18.5779 83.8911C18.4838 83.7545 18.4615 83.5805 18.5202 83.4257L21.2104 76.2513L21.7831 74.7246C21.8317 74.5951 21.9369 74.5132 22.0583 74.4585H19.3984C19.4672 74.496 19.5289 74.5476 19.5755 74.6143C19.6695 74.7509 19.6918 74.9249 19.6331 75.0797L19.194 76.2503L16.7507 82.765C16.4765 83.4985 16.5797 84.3221 17.0269 84.9676C17.4741 85.6121 18.2096 85.9975 18.9937 85.9975H24.5978C25.5883 85.9945 26.4898 85.3682 26.8398 84.4394L29.9115 76.2503L30.4842 74.7236C30.5327 74.5941 30.6379 74.5122 30.7594 74.4575H28.0995V74.4585Z" fill="#637EA8"/>
<path d="M69.2577 82.7664L66.8153 76.2528L66.3762 75.0812C66.3175 74.9264 66.3398 74.7524 66.4339 74.6158C66.4804 74.549 66.5411 74.4974 66.6109 74.46H63.9511C64.0725 74.5136 64.1777 74.5965 64.2263 74.7261L64.7979 76.2518L67.4871 83.4271C67.5458 83.5819 67.5235 83.7559 67.4294 83.8925C67.3343 84.0291 67.1796 84.11 67.0136 84.11H61.4116C61.2011 84.11 61.0119 83.9795 60.9381 83.7822L58.1143 76.2518L57.6752 75.0812C57.6165 74.9254 57.6388 74.7513 57.7328 74.6158C57.7794 74.549 57.8401 74.4974 57.9099 74.46H55.25C55.3714 74.5136 55.4766 74.5965 55.5252 74.7261L56.0979 76.2528L59.1695 84.4419C59.5196 85.3697 60.4211 85.9959 61.4136 86H67.0156C67.7997 86 68.5353 85.6155 68.9825 84.97C69.4287 84.3245 69.5319 83.501 69.2577 82.7664Z" fill="#637EA8"/>
<path d="M70.0508 45.8992V44.5637V35.6219V34.2985C70.0508 34.084 70.1844 33.9039 70.3726 33.8301H67.8402C68.0283 33.9039 68.1619 34.084 68.1619 34.2985V35.6219V38.649C68.1619 38.9283 67.9353 39.1549 67.656 39.1549H44.4535C44.1743 39.1549 43.9476 38.9283 43.9476 38.649V35.6229V34.2985C43.9476 34.084 44.0812 33.9039 44.2694 33.8301H41.736C41.9242 33.9039 42.0577 34.084 42.0577 34.2985V35.6219V38.649C42.0577 38.9283 41.8311 39.1549 41.5518 39.1549H18.3494C18.0701 39.1549 17.8435 38.9283 17.8435 38.649V35.6229V34.2985C17.8435 34.084 17.9771 33.9039 18.1652 33.8301H15.6328C15.821 33.9039 15.9545 34.084 15.9545 34.2985V35.6219V44.5637V45.8992C15.9545 46.1026 15.8331 46.2756 15.6591 46.3555H18.1379C17.9649 46.2756 17.8425 46.1026 17.8425 45.8992V44.5637V41.5487C17.8425 41.2695 18.0691 41.0428 18.3484 41.0428H41.5508C41.8301 41.0428 42.0567 41.2695 42.0567 41.5487V44.5637V45.8992C42.0567 46.1026 41.9353 46.2756 41.7613 46.3555H44.24C44.067 46.2756 43.9446 46.1026 43.9446 45.8992V44.5637V41.5487C43.9446 41.2695 44.1713 41.0428 44.4505 41.0428H67.653C67.9322 41.0428 68.1589 41.2695 68.1589 41.5487V44.5637V45.8992C68.1589 46.1026 68.0374 46.2756 67.8634 46.3555H70.3422C70.1722 46.2756 70.0508 46.1026 70.0508 45.8992Z" fill="#E8A15B"/>
<path d="M79.7621 61.977V63.3014C79.7621 63.5149 79.6295 63.695 79.4434 63.7699H81.9697C81.7835 63.696 81.651 63.5149 81.651 63.3014V61.977V18.2249V16.8965C81.651 16.6881 81.7775 16.51 81.9566 16.4331H79.4575C79.6366 16.511 79.7631 16.6891 79.7631 16.8965V18.2249V61.977H79.7621Z" fill="#637EA8"/>
</svg>
