<svg width="87" height="86" viewBox="0 0 87 86" fill="none" xmlns="http://www.w3.org/2000/svg">
<path d="M82.1561 69.6102H79.2554C79.1602 69.6102 79.0763 69.5768 79.0004 69.5312H76.6096C76.5337 69.5768 76.4497 69.6102 76.3546 69.6102H9.64524C9.55013 69.6102 9.46617 69.5768 9.39029 69.5312H7.00048C6.92459 69.5768 6.8406 69.6102 6.74549 69.6102H3.84476C1.72408 69.6102 0 71.3352 0 73.4539C0 81.193 5.91888 85.9999 15.4468 85.9999H70.5551C80.083 85.9999 86.0019 81.193 86.0019 73.4539C86.0009 71.3352 84.2768 69.6102 82.1561 69.6102ZM70.5551 84.1119H15.4468C12.2657 84.1119 1.88899 83.343 1.88899 73.4539C1.88899 72.3753 2.76619 71.4981 3.84575 71.4981H24.6165C24.7136 71.4981 24.8037 71.5305 24.8826 71.5801H27.4788C27.5577 71.5315 27.6457 71.4981 27.7408 71.4981H41.5495C41.6467 71.4981 41.7316 71.5325 41.8085 71.5801H44.1913C44.2682 71.5325 44.3532 71.4981 44.4503 71.4981H58.26C58.3551 71.4981 58.4431 71.5305 58.5221 71.5801H61.1173C61.1962 71.5305 61.2862 71.4981 61.3834 71.4981H82.1551C83.2337 71.4981 84.1119 72.3753 84.1119 73.4539C84.1129 83.344 73.7351 84.1119 70.5551 84.1119Z" fill="#637EA8"/>
<path d="M20.776 28.2083L25.0467 29.0784C25.2299 29.1158 25.3776 29.2504 25.4302 29.4305C25.7813 30.6153 26.2598 31.7657 26.8527 32.8483C26.9428 33.0132 26.9347 33.2156 26.8305 33.3724L24.4225 36.9874C23.7881 37.9355 23.9125 39.2083 24.7179 40.0147L27.1381 42.4328C27.9262 43.22 29.2324 43.3495 30.1612 42.7303L33.7895 40.3344C33.8734 40.2788 33.9706 40.2504 34.0677 40.2504C34.1497 40.2504 34.2326 40.2707 34.3075 40.3111C35.3962 40.8959 36.5496 41.3664 37.7364 41.7094C37.9185 41.762 38.0551 41.9118 38.0925 42.0969L38.9445 46.3737C39.1711 47.4806 40.1565 48.29 41.2877 48.295H44.7085C45.8437 48.292 46.8322 47.4826 47.0579 46.3706L47.928 42.0999C47.9654 41.9168 48.1 41.7691 48.2791 41.7165C49.4629 41.3644 50.6122 40.8858 51.6948 40.2929C51.8608 40.2029 52.0621 40.211 52.2189 40.3162L55.83 42.7313C56.7588 43.3495 58.068 43.22 58.8572 42.4328L61.2753 40.0157C62.0807 39.2103 62.2051 37.9385 61.5718 36.9905L59.1759 33.3633C59.0737 33.2085 59.0646 33.0091 59.1526 32.8452C59.6555 31.9073 60.0784 30.9249 60.4113 29.9162L61.0629 29.0359L65.2212 28.2073C66.3312 27.9816 67.1406 26.9931 67.1446 25.8589V22.4361C67.1416 21.3029 66.3312 20.3144 65.2192 20.0878L60.9495 19.2187C60.7664 19.1812 60.6187 19.0467 60.5651 18.8666C60.215 17.6838 59.7364 16.5334 59.1425 15.4468C59.0524 15.2818 59.0605 15.0805 59.1648 14.9237L61.5728 11.3086C62.2072 10.3606 62.0817 9.08978 61.2774 8.2834L58.8632 5.86222C58.0751 5.0781 56.7659 4.94758 55.8401 5.57083L52.2119 7.96671C52.0571 8.0689 51.8567 8.07801 51.6938 7.98998C50.6031 7.40417 49.4497 6.93369 48.2649 6.59171C48.0828 6.5391 47.9462 6.38936 47.9088 6.2042L47.0569 1.92743C46.8323 0.814479 45.8437 0.0040471 44.7085 0H41.2847C40.1515 0.00303532 39.163 0.813467 38.9364 1.92541L38.0662 6.1951C38.0288 6.37823 37.8942 6.52595 37.7141 6.57957C36.5324 6.92964 35.381 7.40821 34.2954 8.00213C34.1314 8.09217 33.9301 8.08408 33.7723 7.97987L30.1572 5.57184C29.2264 4.9496 27.9201 5.07911 27.132 5.86728L24.7108 8.2834C23.9085 9.08776 23.786 10.3596 24.4194 11.3056L26.8153 14.9338C26.9175 15.0886 26.9266 15.2879 26.8386 15.4518C26.2528 16.5415 25.7833 17.6949 25.4403 18.8807C25.3877 19.0628 25.2379 19.1994 25.0528 19.2369L20.771 20.0878C19.6621 20.3144 18.8526 21.3029 18.8496 22.4371V25.861C18.8547 26.9931 19.6641 27.9816 20.776 28.2083ZM20.7396 22.4351C20.7396 22.1943 20.9096 21.9869 21.1463 21.9393L25.419 21.0844C26.2942 20.9063 26.9934 20.2618 27.2412 19.4008C27.5569 18.3364 27.9809 17.3084 28.5029 16.3391C28.9309 15.555 28.8904 14.609 28.3987 13.8664L25.9856 10.2564C25.8511 10.056 25.8774 9.78791 26.0484 9.61793L28.4685 7.19675C28.6395 7.02576 28.9077 6.99946 29.107 7.13402L32.719 9.55014C33.4434 10.0257 34.4228 10.0692 35.1898 9.65233C36.1641 9.12823 37.1931 8.70329 38.2504 8.38964C39.1124 8.14074 39.7569 7.44261 39.936 6.56743L40.7899 2.29572C40.8375 2.05997 41.0449 1.88898 41.2857 1.88898H44.7116C44.9524 1.88898 45.1598 2.05896 45.2073 2.29572L46.0613 6.56844C46.2393 7.44363 46.8839 8.14276 47.7449 8.38964C48.8072 8.70531 49.8362 9.12924 50.8065 9.65132C51.5775 10.0732 52.5528 10.0287 53.2793 9.54711L56.8893 7.13402C57.0886 6.99946 57.3567 7.02576 57.5277 7.19675L59.9479 9.61793C60.1189 9.78892 60.1452 10.056 60.0106 10.2564L57.5945 13.8684C57.1078 14.609 57.0674 15.557 57.4923 16.3391C58.0164 17.3115 58.4413 18.3415 58.756 19.3988C59.0049 20.2618 59.702 20.9063 60.5772 21.0854L64.8489 21.9393C65.0847 21.9869 65.2557 22.1943 65.2557 22.4351V25.8599C65.2557 26.1007 65.0857 26.3082 64.8489 26.3557L60.5762 27.2107C59.702 27.3887 59.0039 28.0332 58.757 28.8922C58.4403 29.9556 58.0164 30.9836 57.4943 31.9529C57.0663 32.737 57.1068 33.683 57.5985 34.4256L60.0126 38.0367C60.1472 38.237 60.1209 38.5051 59.9499 38.6751L57.5297 41.0953C57.3587 41.2662 57.0917 41.2925 56.8913 41.158L53.2783 38.7419C52.5559 38.2643 51.5734 38.2228 50.8085 38.6397C49.8332 39.1628 48.8052 39.5867 47.7499 39.9024C46.8859 40.1513 46.2414 40.8494 46.0623 41.7246L45.2073 45.9993C45.1598 46.2361 44.9524 46.4061 44.7116 46.4061H41.2857C41.0449 46.4061 40.8375 46.2361 40.7899 45.9993L39.936 41.7266C39.7579 40.8514 39.1124 40.1523 38.2514 39.9044C37.19 39.5877 36.1621 39.1648 35.1908 38.6427C34.8336 38.4515 34.4319 38.3493 34.0282 38.3493H34.0212C33.5547 38.3493 33.1025 38.4859 32.7139 38.7459L29.1019 41.16C28.9016 41.2936 28.6335 41.2673 28.4635 41.0973L26.0433 38.6781C25.8723 38.5081 25.846 38.24 25.9806 38.0397L28.3967 34.4277C28.8844 33.687 28.9249 32.74 28.4999 31.9569C27.9758 30.9836 27.5508 29.9546 27.2362 28.8973C26.9873 28.0343 26.2892 27.3898 25.414 27.2107L21.1463 26.3567C20.9096 26.3092 20.7396 26.1018 20.7396 25.861V22.4351Z" fill="#637EA8"/>
<path d="M43.0015 35.243C49.1186 35.243 54.0966 30.2651 54.0966 24.1469C54.0966 18.0287 49.1186 13.0518 43.0004 13.0518C36.8822 13.0518 31.9043 18.0287 31.9043 24.1469C31.9114 30.258 36.8893 35.2359 43.0015 35.243ZM43.0004 14.9407C48.0775 14.9407 52.2076 19.0708 52.2076 24.1479C52.2076 29.225 48.0775 33.355 43.0004 33.355C37.9234 33.355 33.7933 29.224 33.7933 24.1479C33.7994 19.0749 37.9294 14.9448 43.0004 14.9407Z" fill="#E8A15B"/>
<path d="M43.0006 25.0921C43.522 25.0921 43.9446 24.6694 43.9446 24.1481C43.9446 23.6267 43.522 23.2041 43.0006 23.2041C42.4793 23.2041 42.0566 23.6267 42.0566 24.1481C42.0566 24.6694 42.4793 25.0921 43.0006 25.0921Z" fill="#637EA8"/>
<path d="M67.653 77.2996C68.1743 77.2996 68.597 76.877 68.597 76.3556C68.597 75.8343 68.1743 75.4116 67.653 75.4116C67.1316 75.4116 66.709 75.8343 66.709 76.3556C66.709 76.877 67.1316 77.2996 67.653 77.2996Z" fill="#E8A15B"/>
<path d="M73.4538 77.2996C73.9751 77.2996 74.3977 76.877 74.3977 76.3556C74.3977 75.8343 73.9751 75.4116 73.4538 75.4116C72.9324 75.4116 72.5098 75.8343 72.5098 76.3556C72.5098 76.877 72.9324 77.2996 73.4538 77.2996Z" fill="#E8A15B"/>
<path d="M42.0566 74.755V76.3546C42.0566 76.5509 41.9413 76.7169 41.7773 76.8008H44.2238C44.0599 76.7169 43.9446 76.5509 43.9446 76.3546V74.755V73.6249V72.004C43.9446 71.8209 44.0467 71.6681 44.1914 71.5801H41.8087C41.9534 71.6691 42.0556 71.8219 42.0556 72.004V73.6249V74.755H42.0566Z" fill="#3F496A"/>
<path d="M58.5223 71.5801C58.582 71.6175 58.6387 71.6611 58.6791 71.7207C58.7732 71.8594 58.7924 72.0364 58.7297 72.1922L58.156 73.6259L56.9895 76.5429C56.9126 76.7351 56.7264 76.8606 56.52 76.8606H44.4505C44.3676 76.8606 44.2927 76.8363 44.2239 76.8009H41.7774C41.7086 76.8363 41.6338 76.8606 41.5508 76.8606H29.4824C29.2749 76.8606 29.0898 76.7341 29.0129 76.5429L27.8453 73.6259L27.2716 72.1922C27.2089 72.0364 27.2291 71.8594 27.3222 71.7207C27.3627 71.6611 27.4193 71.6165 27.479 71.5801H24.8828C24.9718 71.6358 25.0457 71.7147 25.0862 71.8159L25.8116 73.6249L27.2615 77.24C27.6237 78.1577 28.4928 78.7485 29.4753 78.7485H56.521C57.5136 78.7485 58.3817 78.1587 58.7439 77.244L60.1917 73.6249L60.9151 71.8159C60.9566 71.7137 61.0305 71.6347 61.1195 71.5791H58.5223V71.5801Z" fill="#3F496A"/>
<path d="M13.9954 17.4028H11.0946C8.97498 17.4028 7.25091 19.1279 7.25091 21.2476V67.4867V69.1045C7.25091 69.2887 7.14671 69.4435 7 69.5315H9.38981C9.24209 69.4435 9.13887 69.2887 9.13887 69.1045V67.4867V66.2048C9.13887 66.1006 9.17834 66.0095 9.23197 65.9296V63.5792C9.17834 63.4993 9.13887 63.4082 9.13887 63.304V21.2476C9.13887 20.169 10.0161 19.2908 11.0946 19.2908H13.9954C14.5165 19.2908 14.9404 18.8679 14.9404 18.3468C14.9404 17.8268 14.5165 17.4028 13.9954 17.4028Z" fill="#3F496A"/>
<path d="M76.8591 69.1045C76.8591 69.2887 76.7549 69.4435 76.6082 69.5315H78.999C78.8513 69.4435 78.7481 69.2887 78.7481 69.1045V67.4867V21.2476C78.7481 19.1269 77.023 17.4028 74.9033 17.4028H72.0036C71.4825 17.4028 71.0586 17.8268 71.0586 18.3478C71.0586 18.8679 71.4825 19.2918 72.0036 19.2918H74.9033C75.9819 19.2918 76.8591 20.17 76.8591 21.2486V63.304C76.8591 63.3506 76.8439 63.393 76.8328 63.4355V66.0732C76.8449 66.1157 76.8591 66.1582 76.8591 66.2048V67.4867V69.1045Z" fill="#3F496A"/>
<path d="M76.3546 63.8084H73.8818H12.1848H9.64522C9.47018 63.8084 9.32247 63.7133 9.23242 63.5778V65.9281C9.32348 65.7925 9.47018 65.6974 9.64522 65.6974H12.1848H73.8818H76.3546C76.5873 65.6974 76.7755 65.8573 76.8341 66.0718V63.4341C76.7745 63.6486 76.5873 63.8084 76.3546 63.8084Z" fill="#E8A15B"/>
</svg>
