<svg width="86" height="86" viewBox="0 0 86 86" fill="none" xmlns="http://www.w3.org/2000/svg">
<path d="M80.7054 0H5.29454C2.37559 0 0 2.37562 0 5.29456V80.7054C0 83.6254 2.37559 86 5.29454 86H80.7054C83.6254 86 86 83.6244 86 80.7054V5.29456C86.001 2.37562 83.6254 0 80.7054 0ZM84.112 11.095C84.112 11.1689 84.0948 11.2377 84.0665 11.3004V13.7893C84.0948 13.8521 84.112 13.9219 84.112 13.9947V80.7044C84.112 82.5823 82.5843 84.111 80.7054 84.111H5.29454C3.4167 84.111 1.88897 82.5833 1.88897 80.7044V13.9957C1.88897 13.9269 1.9031 13.8622 1.92738 13.8035V11.2883C1.9031 11.2286 1.88897 11.1638 1.88897 11.096V5.29456C1.88897 3.41673 3.4167 1.88795 5.29454 1.88795H80.7054C82.5832 1.88795 84.112 3.41572 84.112 5.29456V11.095Z" fill="#3F496A"/>
<path d="M6.77529 5.80029C6.2431 5.80232 5.8222 6.22827 5.82423 6.74933C5.82625 7.26735 6.25016 7.68825 6.76819 7.68825H6.77325C7.29633 7.68825 7.7203 7.26533 7.7203 6.74427C7.7203 6.22321 7.29533 5.80029 6.77529 5.80029Z" fill="#637EA8"/>
<path d="M12.5478 5.80029C12.0156 5.80232 11.5937 6.22827 11.5957 6.74933C11.5977 7.26735 12.0217 7.68825 12.5407 7.68825H12.5458C13.0689 7.68825 13.4928 7.26533 13.4928 6.74427C13.4928 6.22321 13.0679 5.80029 12.5478 5.80029Z" fill="#637EA8"/>
<path d="M18.3571 5.80029C18.1001 5.8013 17.8634 5.90147 17.6853 6.08055C17.5072 6.25963 17.4111 6.4974 17.4121 6.74933C17.4141 7.26634 17.8361 7.68723 18.3531 7.68926C18.3541 7.68926 18.3551 7.68926 18.3571 7.68926C18.8772 7.68926 19.3011 7.26634 19.3011 6.74528C19.3011 6.22422 18.8772 5.80029 18.3571 5.80029Z" fill="#637EA8"/>
<path d="M79.2579 78.3106H77.808C77.7635 78.3106 77.7231 78.2965 77.6816 78.2853H75.0338C74.9923 78.2965 74.9518 78.3106 74.9073 78.3106H69.1068C69.0623 78.3106 69.0218 78.2965 68.9804 78.2853H66.3326C66.2911 78.2965 66.2506 78.3106 66.2061 78.3106H63.3054C63.2608 78.3106 63.2204 78.2965 63.1789 78.2853H60.5311C60.4896 78.2965 60.4491 78.3106 60.4046 78.3106H53.1533C53.1088 78.3106 53.0683 78.2965 53.0268 78.2853H50.3791C50.3376 78.2965 50.2971 78.3106 50.2526 78.3106H44.4522C44.4076 78.3106 44.3672 78.2965 44.3257 78.2853H41.6769C41.6354 78.2965 41.595 78.3106 41.5504 78.3106H38.6497C38.6052 78.3106 38.5647 78.2965 38.5232 78.2853H35.8754C35.834 78.2965 35.7935 78.3106 35.749 78.3106H28.4977C28.4531 78.3106 28.4127 78.2965 28.3712 78.2853H25.7234C25.6819 78.2965 25.6414 78.3106 25.5969 78.3106H19.7955C19.7509 78.3106 19.7105 78.2965 19.669 78.2853H17.0212C16.9797 78.2965 16.9392 78.3106 16.8947 78.3106H13.994C13.9495 78.3106 13.909 78.2965 13.8675 78.2853H11.2197C11.1782 78.2965 11.1378 78.3106 11.0933 78.3106H8.19759C7.91834 78.3106 7.6917 78.084 7.6917 77.8047V18.3464C7.6917 17.8253 7.2688 17.4014 6.74774 17.4014C6.22669 17.4014 5.80273 17.8253 5.80273 18.3464V79.2546C5.80273 79.7757 6.22669 80.1996 6.74774 80.1996H79.2579C79.7789 80.1996 80.2029 79.7757 80.2029 79.2546C80.2029 78.7335 79.7789 78.3106 79.2579 78.3106Z" fill="#637EA8"/>
<path d="M18.009 48.2325C18.2407 48.3225 18.5048 48.3155 18.7315 48.2143C18.9601 48.1131 19.1412 47.9219 19.2302 47.6902L25.8603 30.4477C25.9139 30.3081 26.0273 30.1998 26.1679 30.1512C26.3095 30.1027 26.4653 30.1189 26.5928 30.1958L38.3313 37.2376C38.8817 37.5675 39.5606 37.6626 40.1819 37.4967C40.8051 37.3297 41.3423 36.9108 41.656 36.3473L47.3451 26.1062C47.4169 25.9757 47.5434 25.8846 47.6891 25.8553C47.8348 25.8259 47.9866 25.8634 48.1029 25.9565L53.0586 29.9206C53.9418 30.6268 55.3027 30.5914 56.1445 29.8406L64.7718 22.1725C64.9377 22.0248 65.1795 22.0035 65.3697 22.1178C65.5599 22.2322 65.652 22.4578 65.5994 22.6733L65.2888 23.9178C65.2271 24.1636 65.2645 24.4166 65.394 24.6331C65.5235 24.8496 65.7299 25.0024 65.9748 25.0641C66.4584 25.1845 66.9946 24.8708 67.1181 24.3761L68.5689 18.5756C68.572 18.5564 68.5771 18.5129 68.5791 18.4704C68.5801 18.4522 68.5882 18.3804 68.5902 18.3622C68.5932 18.2711 68.5801 18.1679 68.5487 18.0677C68.485 17.9099 68.4354 17.8249 68.3747 17.7511C68.3625 17.7369 68.3494 17.7177 68.3362 17.6974C68.3291 17.6893 68.3221 17.6812 68.316 17.6732C68.2685 17.6246 68.1865 17.5649 68.0954 17.5204L68.0013 17.4779C67.9052 17.4344 67.804 17.4071 67.7008 17.3979C67.6067 17.399 67.5308 17.404 67.4691 17.4162L60.2178 18.866C59.7362 18.9803 59.4256 19.465 59.5257 19.9668C59.6239 20.4575 60.0964 20.7975 60.6053 20.7135L62.5904 20.3159C62.8181 20.2714 63.0406 20.3816 63.1428 20.587C63.245 20.7914 63.1965 21.0383 63.0255 21.19L54.8889 28.4232C54.7047 28.5871 54.4295 28.5941 54.2363 28.4403L49.2806 24.4763C48.7363 24.0402 48.0159 23.8581 47.3199 23.9957C46.6258 24.1312 46.0319 24.5653 45.6889 25.1835L39.9987 35.4256C39.9319 35.546 39.8196 35.633 39.6871 35.6684C39.5556 35.7018 39.4129 35.6836 39.2955 35.6138L27.5591 28.5709C27.1878 28.3483 26.7618 28.2309 26.3298 28.2309C26.0626 28.2309 25.8006 28.2744 25.5487 28.3624C24.8779 28.5941 24.3477 29.1061 24.0938 29.7678L17.4637 47.0103C17.3736 47.242 17.3797 47.506 17.4819 47.7337C17.5861 47.9644 17.7733 48.1424 18.009 48.2325Z" fill="#637EA8"/>
<path d="M83.6065 11.6008H81.6204H4.37421H2.39521C2.18375 11.6008 2.00362 11.4713 1.92773 11.2871V13.8024C2.00362 13.6182 2.18375 13.4887 2.39521 13.4887H4.37421H81.6204H83.6065C83.8129 13.4887 83.9879 13.6121 84.0669 13.7892V11.3003C83.9879 11.4773 83.8129 11.6008 83.6065 11.6008Z" fill="#E8A15B"/>
<path d="M26.1057 77.8047C26.1057 78.0394 25.9428 78.2276 25.7262 78.2853H28.374C28.1575 78.2286 27.9946 78.0394 27.9946 77.8047V73.6827V60.4023C27.9946 58.2827 26.2696 56.5576 24.1499 56.5576H15.4488C13.3281 56.5576 11.604 58.2827 11.604 60.4023V73.6827V77.8047C11.604 78.0394 11.4411 78.2276 11.2246 78.2853H13.8724C13.6559 78.2286 13.493 78.0394 13.493 77.8047V73.6827V60.4023C13.493 59.3238 14.3702 58.4466 15.4498 58.4466H24.1509C25.2295 58.4466 26.1077 59.3238 26.1077 60.4023V73.6827V77.8047H26.1057Z" fill="#E8A15B"/>
<path d="M68.6004 77.8047V73.6828V40.0993C68.6004 39.5782 68.1765 39.1543 67.6555 39.1543C67.1344 39.1543 66.7114 39.5782 66.7114 40.0993V73.6818V77.8047C66.7114 78.0395 66.5485 78.2276 66.332 78.2853H68.9798C68.7633 78.2276 68.6004 78.0395 68.6004 77.8047Z" fill="#637EA8"/>
<path d="M19.2918 77.805V73.683V67.6539C19.2918 67.1339 18.8689 66.71 18.3479 66.71C17.8268 66.71 17.4028 67.1329 17.4028 67.6539V73.683V77.805C17.4028 78.0397 17.24 78.2279 17.0234 78.2856H19.6712C19.4547 78.2279 19.2918 78.0397 19.2918 77.805Z" fill="#637EA8"/>
<path d="M43.9452 77.805V73.6831V54.6012C43.9452 54.0801 43.5213 53.6572 43.0002 53.6572C42.4791 53.6572 42.0552 54.0801 42.0552 54.6012V73.6821V77.805C42.0552 78.0397 41.8923 78.2279 41.6758 78.2856H44.3246C44.1091 78.2279 43.9452 78.0397 43.9452 77.805Z" fill="#E8A15B"/>
<path d="M50.758 77.8047C50.758 78.0394 50.5951 78.2276 50.3786 78.2853H53.0264C52.8099 78.2286 52.647 78.0394 52.647 77.8047V73.6827V47.3506C52.647 45.2299 50.9219 43.5059 48.8022 43.5059H40.1011C37.9804 43.5059 36.2564 45.2309 36.2564 47.3506V73.6817V77.8047C36.2564 78.0394 36.0935 78.2276 35.877 78.2853H38.5247C38.3082 78.2286 38.1453 78.0394 38.1453 77.8047V73.6827V47.3506C38.1453 46.272 39.0225 45.3938 40.102 45.3938H48.8033C49.8818 45.3938 50.76 46.272 50.76 47.3506V73.6817V77.8047H50.758Z" fill="#637EA8"/>
<path d="M75.4103 77.8047C75.4103 78.0394 75.2474 78.2276 75.0309 78.2853H77.6787C77.4622 78.2286 77.2993 78.0394 77.2993 77.8047V73.6828V34.2988C77.2993 32.1781 75.5742 30.4541 73.4546 30.4541H64.7534C62.6327 30.4541 60.9087 32.1792 60.9087 34.2988V73.6828V77.8047C60.9087 78.0394 60.7458 78.2276 60.5293 78.2853H63.1771C62.9606 78.2286 62.7977 78.0394 62.7977 77.8047V73.6828V34.2988C62.7977 33.2203 63.6748 32.3421 64.7544 32.3421H73.4556C74.5341 32.3421 75.4123 33.2193 75.4123 34.2988V73.6828V77.8047H75.4103Z" fill="#E8A15B"/>
</svg>
