<svg width="82" height="87" viewBox="0 0 82 87" fill="none" xmlns="http://www.w3.org/2000/svg">
<path d="M6.73804 55.8574C6.22301 55.8574 5.80273 56.2767 5.80273 56.7927V59.6934C5.80273 60.2084 6.22198 60.6277 6.73804 60.6277C7.25411 60.6277 7.67232 60.2084 7.67232 59.6934V56.7927C7.67232 56.2767 7.25411 55.8574 6.73804 55.8574Z" fill="#3F496A"/>
<path d="M6.73804 64.5576C6.22301 64.5576 5.80273 64.9769 5.80273 65.4919V74.1929C5.80273 74.7079 6.22198 75.1282 6.73804 75.1282C7.25411 75.1282 7.67232 74.709 7.67232 74.1929V65.4919C7.67232 64.9769 7.25411 64.5576 6.73804 64.5576Z" fill="#E8A15B"/>
<path d="M63.9737 54.0305C63.7399 53.1859 63.2928 52.4061 62.683 51.7767C61.7076 50.7219 60.3911 50.1142 58.9676 50.0575H47.1629L39.7011 50.0493C39.5219 50.0493 39.356 49.9555 39.2623 49.8031C39.1686 49.6506 39.1613 49.4601 39.2417 49.3004C39.3354 49.1171 39.4075 48.977 39.4374 48.9234C40.3933 47.4741 41.5748 46.2607 42.9675 45.2862L44.1737 44.3169C44.6063 43.9657 45.0575 43.6381 45.5169 43.3085C49.3312 40.5685 54.976 34.9958 54.976 31.7418C55.0162 29.7734 53.9017 27.9604 52.1361 27.1116C51.7365 26.9633 51.275 26.8799 50.8042 26.8799C49.6537 26.8799 48.5669 27.3826 47.8212 28.2581C43.7493 32.3269 38.7071 34.6724 33.3682 37.1548C27.9099 39.696 22.296 42.3104 17.9563 46.8499C17.3382 47.5328 16.6502 48.1756 15.9188 48.7493C14.3644 49.7495 12.5886 50.1966 10.7911 50.0637C10.6757 50.0555 10.5779 49.9978 10.4944 49.9226H7.9306C7.83789 50.0019 7.72871 50.0586 7.6051 50.0586H3.76808C1.66364 50.2491 -0.0122929 52.0919 6.79371e-05 54.252V77.0938C0.0113987 79.1993 1.67086 80.8855 3.77839 80.9288H11.6852C12.6864 80.9288 12.9676 81.1049 13.3024 81.6364C13.4219 81.8342 13.5527 82.0134 13.699 82.1793C17.4794 86.3088 23.2797 86.7559 25.5974 86.7559C26.0485 86.7559 26.3287 86.7384 26.3843 86.7322L50.3809 86.7291C52.6944 86.6725 54.7144 85.2242 55.5148 83.0394C55.9268 81.6488 55.7558 80.0913 55.0368 78.7945C54.9482 78.6348 54.9513 78.4401 55.043 78.2836C55.1357 78.1259 55.3036 78.0291 55.4869 78.0291H55.6322C57.9107 78.024 59.9781 76.585 60.7743 74.4486C61.2533 72.7984 60.9556 71.0082 59.9441 69.5712C59.8534 69.4424 59.8266 69.2807 59.8709 69.1293C59.9152 68.9789 60.0254 68.8563 60.1717 68.7976C61.4727 68.2702 62.475 67.2041 62.921 65.8722C63.4484 64.0397 63.0405 62.0404 61.8229 60.5447C61.7271 60.4273 61.688 60.2727 61.7158 60.1234C61.7436 59.974 61.8373 59.8442 61.9702 59.7701C62.9385 59.2262 63.6575 58.3445 63.9933 57.2866C64.0427 57.1084 64.0881 56.9127 64.121 56.7139C64.1437 56.5769 64.222 56.4646 64.327 56.3873V54.3601C64.1653 54.3097 64.0221 54.2025 63.9737 54.0305ZM62.1989 56.753C61.5582 58.0262 60.3551 58.7627 59.0242 58.7627L58.8398 58.7585C58.8419 58.7627 58.776 58.7761 58.7111 58.7967C58.6348 58.8203 58.5566 58.8276 58.4772 58.8152C58.2836 58.7864 58.0889 58.7668 57.8932 58.7585H51.343C50.8269 58.7585 50.4077 59.1778 50.4077 59.6938C50.4077 60.2089 50.8269 60.6281 51.343 60.6281H57.9138C58.8151 60.6281 59.6598 60.9794 60.2933 61.617C61.2008 62.6646 61.5036 64.049 61.1256 65.3469C60.4962 66.6613 59.223 67.4585 57.852 67.4585H49.1911C48.6751 67.4585 48.2558 67.8778 48.2558 68.3938C48.2558 68.9089 48.6751 69.3291 49.1911 69.3291H55.7651C56.6561 69.3291 57.5203 69.6897 58.1435 70.318C59.0407 71.3038 59.3538 72.6861 58.9758 73.9428C58.3609 75.2963 57.065 76.141 55.6487 76.1595H47.164C46.6489 76.1595 46.2287 76.5788 46.2287 77.0938C46.2287 77.6099 46.6479 78.0291 47.164 78.0291H50.5117C51.4007 78.0291 52.2659 78.3897 52.8901 79.017C53.7873 79.9605 54.1025 81.3068 53.7214 82.5388C53.1301 83.9057 51.8374 84.7946 50.4066 84.8585H26.3411C26.34 84.8595 26.0815 84.877 25.6643 84.877C23.5743 84.877 18.359 84.4908 15.0814 80.9041C14.9917 80.7928 14.931 80.7032 14.8795 80.6084C14.2511 79.5372 13.013 78.9109 11.747 79.0561L3.77013 79.0592C2.69371 79.0098 1.87069 78.1465 1.87275 77.0928V54.254C1.87275 53.2065 2.7483 51.9281 3.77013 51.9281L10.3605 51.9415C12.5824 51.9415 14.9268 51.8117 17.0169 50.2615C17.8265 49.6352 18.596 48.9234 19.2964 48.154C23.4105 43.8493 28.6278 41.4214 34.15 38.8514C39.4281 36.3936 44.8484 33.8699 49.1139 29.6085C49.9204 28.803 50.7373 28.5465 51.4511 28.8525C52.5317 29.4695 53.1456 30.5717 53.1075 31.7573C53.1075 33.6979 48.8883 38.5815 44.426 41.7891C43.9419 42.1363 43.4619 42.4855 43.0004 42.8614L41.7849 43.84C40.2213 44.9504 38.9193 46.3029 37.8882 47.88C37.8305 47.9696 37.6585 48.2889 37.4483 48.7092C37.0961 49.3859 37.1228 50.2038 37.5132 50.8486C37.9407 51.5213 38.6824 51.9292 39.4899 51.9292H58.9871C59.9482 52.0167 60.7836 52.4432 61.3882 53.1302C62.272 54.1201 62.5759 55.4757 62.1989 56.753Z" fill="#637EA8"/>
<path d="M13.5197 22.7982L17.915 25.359C18.1189 25.4785 18.2158 25.7216 18.1498 25.9492L16.41 31.8794C16.2957 32.2708 16.4554 32.7014 16.7994 32.9238C17.1373 33.1422 17.606 33.1113 17.9129 32.8528L22.3536 29.0807C22.5462 28.9169 22.8284 28.9169 23.02 29.0807L27.4586 32.8507C27.7645 33.1093 28.2332 33.1412 28.5721 32.9218C28.9203 32.6952 29.0779 32.2749 28.9615 31.8752L27.2217 25.9461C27.1558 25.7185 27.2526 25.4754 27.4576 25.3559L31.8539 22.7962C32.2175 22.584 32.3947 22.1524 32.2865 21.7455C32.1773 21.3397 31.8076 21.0554 31.3863 21.0533H25.8373C25.6065 21.0533 25.4046 20.9009 25.3418 20.6784L23.5876 14.4845C23.4732 14.0849 23.1034 13.8047 22.6873 13.8047C22.2711 13.8047 21.9013 14.0838 21.788 14.4845L20.0338 20.6784C19.971 20.8998 19.7691 21.0533 19.5384 21.0533H13.9873C13.5681 21.0543 13.1983 21.3397 13.0891 21.7465C12.9789 22.1545 13.156 22.5871 13.5197 22.7982ZM18.8544 23.3071C18.9152 23.0825 19.1191 22.926 19.3519 22.926H20.6333C21.0495 22.926 21.4193 22.6458 21.5326 22.2451L22.1918 19.9223C22.3175 19.4783 23.0571 19.4794 23.1828 19.9223L23.841 22.242C23.9543 22.6437 24.3241 22.9229 24.7402 22.9229H26.0165C26.2483 22.9229 26.4522 23.0774 26.513 23.3019C26.5738 23.5265 26.478 23.7634 26.2781 23.8819L25.5437 24.3176C25.1677 24.536 24.9926 24.9758 25.1131 25.3899L25.8074 27.7611C25.8713 27.9795 25.7847 28.2133 25.5931 28.338C25.5076 28.3936 25.4098 28.4214 25.313 28.4214C25.1935 28.4214 25.075 28.3802 24.9792 28.2988L23.2909 26.866C22.9531 26.5786 22.4174 26.5786 22.0816 26.866L20.3933 28.2988C20.2203 28.4461 19.971 28.4616 19.7794 28.338C19.5888 28.2133 19.5013 27.9795 19.5652 27.7611L20.2605 25.3889C20.381 24.9758 20.2059 24.536 19.833 24.3197L19.0913 23.8881C18.8905 23.7696 18.7936 23.5317 18.8544 23.3071Z" fill="#E8A15B"/>
<path d="M35.2712 15.5492L39.6665 18.1089C39.8715 18.2284 39.9684 18.4715 39.9024 18.6991L38.1626 24.6303C38.0483 25.0217 38.208 25.4523 38.552 25.6748C38.7034 25.7726 38.8796 25.8252 39.0609 25.8252C39.2823 25.8252 39.4966 25.7458 39.6655 25.6037L44.1051 21.8326C44.2977 21.6688 44.58 21.6688 44.7716 21.8326L49.2112 25.6027C49.5171 25.8633 49.9858 25.8931 50.3247 25.6748C50.6677 25.4523 50.8274 25.0217 50.713 24.6282L48.9732 18.6991C48.9073 18.4715 49.0041 18.2284 49.2091 18.1089L53.6055 15.5502C53.9691 15.338 54.1473 14.9064 54.0381 14.4995C53.9289 14.0926 53.5591 13.8083 53.1378 13.8063H47.5888C47.3581 13.8063 47.1562 13.6538 47.0934 13.4313L45.3391 7.23649C45.2248 6.83682 44.855 6.55664 44.4389 6.55664C44.0238 6.55664 43.654 6.83579 43.5396 7.23649L41.7844 13.4303C41.7215 13.6518 41.5196 13.8053 41.2889 13.8053H35.7389C35.3196 13.8063 34.9498 14.0916 34.8407 14.4985C34.7315 14.9054 34.9076 15.338 35.2712 15.5492ZM40.6049 16.0591C40.6647 15.8335 40.8686 15.6769 41.1025 15.6769H42.3849C42.8011 15.6769 43.1708 15.3967 43.2842 14.996L43.9424 12.6732C44.0052 12.4517 44.2071 12.2983 44.4378 12.2983C44.6686 12.2983 44.8705 12.4507 44.9333 12.6722L45.5925 14.9919C45.7059 15.3936 46.0756 15.6738 46.4928 15.6738H47.7681C48.0009 15.6738 48.2048 15.8293 48.2656 16.0549C48.3264 16.2795 48.2285 16.5174 48.0276 16.6349L47.2932 17.0634C46.9203 17.2797 46.7452 17.7195 46.8657 18.1326L47.56 20.5038C47.6239 20.7222 47.5373 20.957 47.3457 21.0807C47.2602 21.1363 47.1624 21.1641 47.0655 21.1641C46.9461 21.1641 46.8276 21.1229 46.7318 21.0415L45.0445 19.6087C44.7077 19.3223 44.171 19.3223 43.8342 19.6087L42.147 21.0415C41.9739 21.1898 41.7246 21.2043 41.533 21.0807C41.3425 20.957 41.2549 20.7222 41.3188 20.5038L42.013 18.1316C42.1336 17.7185 41.9585 17.2787 41.5856 17.0623L40.847 16.639C40.6441 16.5226 40.5442 16.2846 40.6049 16.0591Z" fill="#E8A15B"/>
<path d="M57.0227 22.7982L61.417 25.359C61.6209 25.4785 61.7178 25.7216 61.6518 25.9492L59.912 31.8794C59.7967 32.278 59.9522 32.6972 60.3014 32.9238C60.6403 33.1422 61.108 33.1124 61.4149 32.8528L65.8556 29.0807C66.0482 28.9169 66.3304 28.9169 66.522 29.0807L70.9616 32.8507C71.2676 33.1093 71.7352 33.1391 72.0741 32.9218C72.4223 32.6952 72.5788 32.2749 72.4624 31.8752L70.7226 25.9461C70.6567 25.7185 70.7535 25.4754 70.9585 25.3559L75.3559 22.7962C75.7195 22.584 75.8967 22.1524 75.7875 21.7465C75.6783 21.3397 75.3085 21.0554 74.8883 21.0533H69.3382C69.1075 21.0533 68.9056 20.9009 68.8428 20.6784L67.0885 14.4845C66.9752 14.0849 66.6054 13.8047 66.1893 13.8047C65.7731 13.8047 65.4034 14.0838 65.289 14.4845L63.5348 20.6784C63.472 20.8998 63.2701 21.0533 63.0393 21.0533H57.4883C57.069 21.0543 56.6992 21.3397 56.5901 21.7465C56.4819 22.1545 56.6591 22.5871 57.0227 22.7982ZM62.3564 23.3071C62.4172 23.0825 62.6211 22.926 62.8539 22.926H64.1364C64.5525 22.926 64.9223 22.6458 65.0356 22.2441L65.6938 19.9213C65.8195 19.4773 66.5591 19.4783 66.6848 19.9213L67.343 22.241C67.4563 22.6427 67.8261 22.9219 68.2422 22.9219H69.5185C69.7503 22.9219 69.9542 23.0774 70.015 23.3009C70.0758 23.5244 69.98 23.7614 69.7801 23.8798L69.0447 24.3155C68.6687 24.5339 68.4936 24.9738 68.6141 25.3868L69.3094 27.758C69.3732 27.9764 69.2867 28.2102 69.0951 28.3349C68.9035 28.4585 68.6553 28.442 68.4812 28.2957L66.7929 26.8629C66.455 26.5765 65.9204 26.5765 65.5836 26.8629L63.8953 28.2957C63.7995 28.3771 63.6811 28.4183 63.5616 28.4183C63.4648 28.4183 63.3669 28.3905 63.2814 28.3349C63.0908 28.2102 63.0033 27.9764 63.0672 27.758L63.7614 25.3858C63.8819 24.9727 63.7058 24.5329 63.3339 24.3166L62.5923 23.885C62.3935 23.7696 62.2956 23.5317 62.3564 23.3071Z" fill="#E8A15B"/>
<path d="M70.5375 0.755859H18.3366C12.2313 0.76204 7.25813 5.73523 7.25195 11.8415V45.1911C7.25504 45.942 7.33746 46.6826 7.49094 47.4099C7.62897 48.0681 7.82365 48.716 8.08323 49.3454C8.14812 49.504 8.13061 49.6853 8.03482 49.8285C8.00804 49.8676 7.96786 49.8913 7.93284 49.9212H10.4967C10.4586 49.8872 10.4163 49.8563 10.3896 49.812C9.94457 49.0611 9.62215 48.2504 9.40995 47.4109C9.2266 46.6878 9.12257 45.9441 9.12257 45.1921V11.8415C9.12772 6.7653 13.2614 2.63162 18.3366 2.62544H70.5385C75.6158 2.63162 79.7494 6.7653 79.7546 11.8405V45.1911C79.7494 50.2683 75.6157 54.402 70.5396 54.4071H69.7165H64.4714C64.4189 54.4071 64.3787 54.3742 64.3303 54.3598V56.3869C64.4158 56.3241 64.5188 56.2829 64.6321 56.2829H69.7165H70.5385C76.6448 56.2757 81.618 51.3025 81.6242 45.1962V11.8415C81.617 5.73523 76.6438 0.76204 70.5375 0.755859Z" fill="#3F496A"/>
</svg>
