<svg width="58" height="50" viewBox="0 0 58 50" fill="none" xmlns="http://www.w3.org/2000/svg">
<path d="M56.171 18.2241H44.727V18.0991H42.772V18.2241H10.562C10.023 18.2241 9.58398 18.6621 9.58398 19.2021V39.0831C9.58398 39.6221 10.022 40.0611 10.562 40.0611H42.772V40.1151H44.727V40.0601H56.171C56.71 40.0601 57.149 39.6221 57.149 39.0821V19.2021C57.149 18.6621 56.71 18.2241 56.171 18.2241ZM55.193 38.1051H11.541V20.1791H55.193V38.1051Z" fill="#E8A15B"/>
<path d="M27.5762 32.9372C26.7012 32.9372 25.9902 32.2252 25.9902 31.3512C25.9902 30.9502 25.6642 30.6232 25.2632 30.6232C24.8622 30.6232 24.5352 30.9492 24.5352 31.3512C24.5352 33.0282 25.9002 34.3932 27.5772 34.3932C29.2542 34.3932 30.6192 33.0292 30.6192 31.3512C30.6192 29.6742 29.2542 28.3102 27.5772 28.3102C26.7022 28.3102 25.9922 27.5982 25.9922 26.7232C25.9922 25.8482 26.7022 25.1372 27.5772 25.1372C28.4522 25.1372 29.1632 25.8492 29.1632 26.7232C29.1632 27.1242 29.4902 27.4512 29.8912 27.4512C30.2922 27.4512 30.6192 27.1252 30.6192 26.7232C30.6192 25.0462 29.2542 23.6812 27.5772 23.6812C25.9002 23.6812 24.5352 25.0462 24.5352 26.7232C24.5352 28.4002 25.9002 29.7642 27.5772 29.7642C28.4522 29.7642 29.1632 30.4762 29.1632 31.3512C29.1622 32.2252 28.4512 32.9372 27.5762 32.9372Z" fill="#637EA8"/>
<path d="M19.9298 34.3918C21.2878 34.3918 22.3938 33.2868 22.3938 31.9288V24.9868C22.3938 24.5858 22.0668 24.2598 21.6658 24.2598C21.2648 24.2598 20.9378 24.5858 20.9378 24.9868V31.9288C20.9378 32.4848 20.4858 32.9368 19.9298 32.9368C19.3738 32.9368 18.9218 32.4848 18.9218 31.9288C18.9218 31.5278 18.5948 31.2018 18.1938 31.2018C17.7928 31.2018 17.4668 31.5278 17.4668 31.9288C17.4668 33.2868 18.5718 34.3918 19.9298 34.3918Z" fill="#637EA8"/>
<path d="M35.3898 34.3922H35.9688C37.3268 34.3922 38.4318 33.2872 38.4318 31.9292V26.1442C38.4318 24.7862 37.3268 23.6812 35.9688 23.6812H35.3898C34.0318 23.6812 32.9258 24.7862 32.9258 26.1442V31.9292C32.9258 33.2862 34.0308 34.3922 35.3898 34.3922ZM34.3818 26.1442C34.3818 25.5882 34.8338 25.1362 35.3898 25.1362H35.9688C36.5238 25.1362 36.9748 25.5882 36.9748 26.1442V31.9292C36.9748 32.4852 36.5238 32.9372 35.9688 32.9372H35.3898C34.8338 32.9372 34.3818 32.4852 34.3818 31.9292V26.1442Z" fill="#637EA8"/>
<path d="M41.6714 34.3922C42.0724 34.3922 42.3994 34.0662 42.3994 33.6642V26.9452L46.8394 34.0492C46.9734 34.2632 47.2034 34.3912 47.4554 34.3912C47.5234 34.3912 47.5904 34.3812 47.6564 34.3622C47.9674 34.2742 48.1834 33.9862 48.1834 33.6632V24.4072C48.1834 24.0062 47.8564 23.6792 47.4554 23.6792C47.0544 23.6792 46.7284 24.0052 46.7284 24.4072V31.1262L42.2884 24.0222C42.1194 23.7512 41.7814 23.6182 41.4714 23.7092C41.1604 23.7982 40.9434 24.0852 40.9434 24.4082V33.6642C40.9434 34.0652 41.2704 34.3922 41.6714 34.3922Z" fill="#637EA8"/>
<path d="M29.1411 11.8949H37.9411L36.5451 9.9399H30.1191V3.4679L28.1641 2.1499V10.9179C28.1641 11.4569 28.6031 11.8949 29.1411 11.8949Z" fill="#E8A15B"/>
<path d="M38.105 42.03V48.045H1.955V1.955H28.164V2.15L30.119 3.467V3.337L36.722 9.941H36.546L37.942 11.896H38.105V16.183V18.1H40.06V16.183V10.893L40.057 10.852C40.055 10.813 40.05 10.774 40.041 10.728C40.033 10.685 40.021 10.643 39.997 10.575C39.983 10.539 39.967 10.502 39.946 10.46C39.925 10.422 39.903 10.385 39.859 10.325C39.833 10.291 39.805 10.257 39.775 10.227L29.834 0.286C29.803 0.256 29.77 0.228 29.711 0.184C29.678 0.16 29.642 0.137 29.588 0.108C29.557 0.092 29.523 0.077 29.492 0.066L29.455 0.053C29.417 0.04 29.378 0.029 29.343 0.022L29.303 0.016C29.276 0.012 29.249 0.008 29.221 0.006L0.978 0C0.439 0 0 0.438 0 0.977V49.023C0 49.562 0.439 50 0.978 50H39.083C39.622 50 40.061 49.562 40.061 49.023V42.03V40.113H38.106V42.03H38.105Z" fill="#637EA8"/>
</svg>
