<svg width="87" height="86" viewBox="0 0 87 86" fill="none" xmlns="http://www.w3.org/2000/svg">
<path d="M47.392 72.5106H38.6915C38.6145 72.5106 38.5437 72.4903 38.4789 72.4609H36.004C35.9392 72.4913 35.8683 72.5106 35.7914 72.5106H31.4411C25.3309 72.5176 20.3528 77.4947 20.3457 83.6059C20.3457 84.9254 21.4201 85.9998 22.7396 85.9998H63.3439C64.6644 85.9998 65.7378 84.9254 65.7378 83.6059C65.7307 77.4957 60.7536 72.5176 54.6424 72.5106H50.2921C50.2152 72.5106 50.1443 72.4903 50.0795 72.4609H47.6046C47.5388 72.4903 47.468 72.5106 47.392 72.5106ZM54.6424 74.3981C59.7126 74.4052 63.8421 78.5347 63.8492 83.6049C63.8492 83.7386 63.7965 83.8682 63.7013 83.9634C63.6061 84.0586 63.4775 84.1112 63.3429 84.1112H29.2953C29.2609 84.1112 29.2335 84.0899 29.2011 84.0839H25.8868C25.8514 84.091 25.821 84.1112 25.7835 84.1112H22.7375C22.6028 84.1112 22.4742 84.0575 22.3791 83.9634C22.2839 83.8692 22.2312 83.7396 22.2312 83.6049C22.2363 78.5326 26.3658 74.4032 31.4381 74.3981H54.6424Z" fill="#3F496A"/>
<path d="M65.5336 36.1143C65.3736 35.9999 65.2946 35.8035 65.3311 35.609C65.4739 34.8455 65.5792 34.0577 65.643 33.2678C65.6521 33.1635 65.6987 33.0734 65.7625 32.9944V29.3955C65.7564 29.3631 65.7382 29.3338 65.7382 29.3004V17.3574C65.7382 17.32 65.7544 17.2845 65.7625 17.2481V12.2042C65.7584 12.1779 65.7382 12.1566 65.7382 12.1282V9.18554C65.7382 9.14301 65.7514 9.1025 65.7625 9.062V5.41047C65.7574 5.3811 65.7382 5.3568 65.7382 5.32642V3.84697C65.8263 2.88194 65.5367 1.94931 64.9473 1.24249C64.3489 0.524541 63.5064 0.0830354 62.5747 0L23.4641 0.00202525C22.5912 0.0820228 21.7264 0.533654 21.136 1.24249C20.5457 1.95133 20.257 2.88295 20.3431 3.80039L20.3451 5.32743C20.3451 5.37502 20.3198 5.41553 20.3066 5.46008V8.99415C20.332 9.05491 20.3451 9.11972 20.3451 9.18554V12.1282C20.3451 12.1718 20.3178 12.2072 20.3066 12.2477V17.1893C20.3269 17.245 20.3451 17.3017 20.3451 17.3615V29.3024C20.3451 29.355 20.3228 29.4026 20.3066 29.4512V32.9894C20.3775 33.0704 20.4312 33.1645 20.4403 33.2749C20.5041 34.0607 20.6095 34.8506 20.7532 35.6202C20.7897 35.8136 20.7097 36.01 20.5497 36.1255C20.4707 36.1822 20.3866 36.2277 20.3066 36.2814V38.4525C20.4585 38.3745 20.6115 38.2986 20.7593 38.2125C20.8899 38.1355 21.0499 38.1224 21.1927 38.176C21.3355 38.2307 21.4458 38.3451 21.4934 38.491C23.7486 45.2877 29.1529 50.6911 35.9497 52.9452C36.1573 53.0141 36.2971 53.2075 36.2971 53.4262V54.1047H38.2018C38.22 53.9831 38.2717 53.8687 38.3679 53.7897C38.4833 53.6925 38.6352 53.6551 38.7841 53.6814C39.7147 53.8545 40.6696 53.969 41.6205 54.0226C41.7085 54.0277 41.7855 54.0611 41.8554 54.1047H44.228C44.2978 54.0611 44.3758 54.0277 44.4629 54.0226C45.4138 53.969 46.3686 53.8535 47.2992 53.6814C47.4491 53.6561 47.6 53.6935 47.7154 53.7897C47.8106 53.8687 47.8633 53.9831 47.8815 54.1047H49.7862V53.4262C49.7862 53.2085 49.926 53.0141 50.1336 52.9452C56.9303 50.6911 62.3337 45.2877 64.5878 38.491C64.6354 38.3462 64.7468 38.2307 64.8896 38.176C65.0334 38.1224 65.1924 38.1355 65.323 38.2125C65.4668 38.2965 65.6157 38.3694 65.7625 38.4464V36.2612C65.6866 36.2105 65.6076 36.167 65.5336 36.1143ZM63.8507 31.3995C63.8507 42.8736 54.5163 52.208 43.0422 52.208C31.5681 52.208 22.2337 42.8736 22.2337 31.3995V3.84697C22.2337 2.69359 22.8828 1.88956 23.465 1.88956H62.6203C63.2025 1.88956 63.8516 2.69258 63.8516 3.84697V31.3995H63.8507Z" fill="#3F496A"/>
<path d="M43.0402 46.4075C34.7762 46.3963 28.0442 39.6644 28.032 31.4003C28.032 30.8788 27.6087 30.4556 27.0882 30.4556C26.5678 30.4556 26.1445 30.8788 26.1445 31.4003C26.1557 40.7044 33.7352 48.2839 43.0402 48.296C43.5607 48.296 43.9839 47.8728 43.9839 47.3523C43.9849 46.8308 43.5607 46.4075 43.0402 46.4075Z" fill="#637EA8"/>
<path d="M52.9702 18.854H47.5476C47.3228 18.854 47.1253 18.7062 47.0626 18.4915L45.336 12.6446C45.0383 11.634 44.0935 10.9292 43.0404 10.9292C41.9873 10.9292 41.0435 11.635 40.7448 12.6446L39.0183 18.4915C38.9545 18.7062 38.757 18.854 38.5332 18.854H33.1096C32.0625 18.855 31.1461 19.5264 30.8302 20.5249C30.5132 21.5233 30.8757 22.6007 31.7314 23.2043L36.0978 26.2857C36.2771 26.4123 36.354 26.6401 36.2892 26.8487L34.5171 32.5873C34.1992 33.5786 34.5748 34.6733 35.4305 35.2545C35.8406 35.5472 36.3136 35.6981 36.8057 35.6981C37.3282 35.6981 37.8416 35.5209 38.2537 35.1998L42.7326 31.7762C42.9148 31.6374 43.167 31.6374 43.3472 31.7762L47.8241 35.2029C48.6352 35.8226 49.8078 35.85 50.6473 35.2636C51.505 34.6652 51.8736 33.5928 51.5657 32.5933L49.7936 26.8487C49.7288 26.6391 49.8057 26.4123 49.985 26.2857L54.3505 23.2043C55.2061 22.6007 55.5686 21.5233 55.2527 20.5249C54.9347 19.5264 54.0183 18.855 52.9702 18.854ZM53.2619 21.662L48.8944 24.7435C48.0418 25.3419 47.6782 26.4123 47.9881 27.4057L49.7592 33.1442C49.824 33.3548 49.746 33.5827 49.5658 33.7093C49.3855 33.8358 49.1455 33.8308 48.9683 33.6961L44.4905 30.2754C43.65 29.6334 42.4288 29.6324 41.5853 30.2754L37.1125 33.6951C37.0224 33.765 36.913 33.7994 36.8046 33.7994C36.7034 33.7994 36.6021 33.769 36.515 33.7083C36.3348 33.5817 36.2558 33.3538 36.3216 33.1432L38.0937 27.4067C38.4046 26.4113 38.0411 25.3419 37.1885 24.7435L32.819 21.662C32.6387 21.5355 32.5618 21.3056 32.6286 21.095C32.6954 20.8843 32.8909 20.7416 33.1116 20.7416H38.5353C39.6026 20.7385 40.526 20.0469 40.8318 19.0241L42.5564 13.159C42.6272 12.917 42.8723 12.7661 43.1143 12.8005C43.3391 12.8329 43.5123 13.0112 43.5437 13.2309L45.254 19.0241C45.5598 20.0479 46.4834 20.7385 47.5517 20.7426H52.9733C53.194 20.7426 53.3895 20.8853 53.4563 21.096C53.5201 21.3056 53.4431 21.5344 53.2619 21.662Z" fill="#E8A15B"/>
<path d="M12.0569 10.842C12.3485 10.7883 12.5824 10.767 12.8153 10.765C12.8164 10.765 12.8184 10.765 12.8204 10.765C14.2756 10.765 16.1712 11.7088 17.8593 13.5123C18.7656 14.4803 19.6151 15.6844 20.2976 17.1486C20.3037 17.1618 20.3017 17.177 20.3068 17.1901V12.2485C20.2642 12.4095 20.167 12.5503 20.005 12.607C19.8014 12.6799 19.5756 12.611 19.4409 12.4429C18.9771 11.8546 18.4405 11.3371 17.8582 10.8805C16.4071 9.74125 14.6421 9.02735 12.7779 8.87646C12.4782 8.88052 12.1278 8.91191 11.7824 8.97064C10.0974 9.38177 8.60282 10.5017 7.71778 12.0359C5.82923 15.335 5.32289 19.3318 6.32944 23.0006C7.96989 29.7629 12.8923 33.7942 16.7058 33.7942C17.0461 33.7942 17.3874 33.7598 17.7195 33.6919C17.7671 33.6828 17.8106 33.6605 17.8582 33.6504C18.5022 33.5056 19.1078 33.2605 19.6536 32.896C19.8025 32.7967 19.9938 32.7846 20.1549 32.8616C20.2166 32.8919 20.2612 32.9416 20.3057 32.9912V29.452C20.2956 29.4834 20.2976 29.5168 20.2814 29.5462C19.7518 30.5143 18.879 31.2474 17.8572 31.6494C17.6982 31.7122 17.5453 31.7882 17.3793 31.8327C17.1403 31.8844 16.9216 31.9066 16.7039 31.9066C14.0741 31.9066 9.64379 28.6591 8.16637 22.5611C7.26412 19.3744 7.65805 16.0064 9.27826 13.0971C9.87469 12.0045 10.862 11.2025 12.0569 10.842Z" fill="#637EA8"/>
<path d="M10.384 5.16338C12.8589 4.62162 15.4704 5.24641 17.8582 6.85852C18.6693 7.40635 19.4551 8.06557 20.2014 8.83415C20.247 8.88073 20.2814 8.93541 20.3057 8.99516V5.46109C20.2662 5.59881 20.1883 5.72235 20.0556 5.78614C19.8794 5.86918 19.6708 5.84488 19.5189 5.72235C19.0005 5.30109 18.4394 4.94262 17.8582 4.62061C15.4836 3.30116 12.6695 2.80801 9.98401 3.31938C7.03726 4.01405 4.43685 5.91475 2.87133 8.52935C0.110906 13.2867 -0.694117 18.8571 0.608121 24.2089C1.64505 29.6497 4.68697 34.3918 9.17899 37.5867C11.0827 38.8636 13.3136 39.5623 15.6203 39.5967C16.3504 39.5967 17.0917 39.5168 17.8126 39.3608C17.8278 39.3578 17.843 39.3527 17.8582 39.3487C18.7118 39.1583 19.531 38.8545 20.3057 38.4555V36.2844C19.5523 36.7857 18.7321 37.1573 17.8582 37.3953C17.7114 37.4358 17.5666 37.4814 17.4167 37.5138C16.8142 37.6302 16.2097 37.6879 15.6072 37.6879C13.6508 37.6879 11.7693 37.0956 10.1653 35.9746C6.10262 33.0451 3.36652 28.7262 2.45414 23.8089C1.25114 18.9898 1.94985 13.9287 4.42673 9.58755C5.731 7.37698 7.90004 5.76792 10.384 5.16338Z" fill="#637EA8"/>
<path d="M83.2134 8.5198C81.6499 5.91128 79.0485 4.01058 76.0795 3.31288C75.3808 3.18022 74.6446 3.11035 73.9115 3.11035C71.9105 3.11035 69.9419 3.63185 68.2083 4.60195C67.6311 4.92599 67.0793 5.29864 66.5618 5.71888C66.4109 5.84242 66.2013 5.86571 66.0251 5.78267C65.8762 5.71179 65.7892 5.568 65.7608 5.40901V9.06055C65.7821 8.97549 65.8175 8.89549 65.8793 8.83169C66.6185 8.06919 67.4003 7.41402 68.2083 6.87024C70.6133 5.25105 73.2492 4.62625 75.6866 5.16092C78.1807 5.76748 80.3497 7.37655 81.6479 9.57597C84.1278 13.9222 84.8255 18.9843 83.6154 23.8338C82.7111 28.7207 79.9761 33.0406 75.9185 35.966C74.3084 37.087 72.4279 37.6774 70.4736 37.6774C69.867 37.6774 69.2574 37.6187 68.662 37.5032C68.5071 37.4698 68.3582 37.4212 68.2073 37.3797C67.3304 37.1377 66.5121 36.764 65.7598 36.2597V38.445C66.5344 38.847 67.3537 39.1518 68.2073 39.3432C68.2246 39.3472 68.2407 39.3533 68.258 39.3563C68.98 39.5143 69.7242 39.5943 70.4705 39.5953C72.7672 39.5588 74.997 38.8611 76.9108 37.5771C81.3937 34.3904 84.4356 29.6473 85.4665 24.2307C86.7779 18.8567 85.9759 13.2852 83.2134 8.5198Z" fill="#637EA8"/>
<path d="M78.3629 12.0392C77.4667 10.4929 75.9528 9.36992 74.2101 8.9588C73.9184 8.91221 73.5863 8.88487 73.2582 8.88184C71.4213 9.03069 69.6603 9.74763 68.2092 10.8919C67.633 11.3456 67.1014 11.86 66.6407 12.4432C66.507 12.6124 66.2822 12.6802 66.0777 12.6073C65.9005 12.5455 65.7911 12.3855 65.7617 12.2053V17.2492C65.7698 17.2137 65.7698 17.1763 65.785 17.1439C66.4645 15.6887 67.309 14.4908 68.2103 13.5257C69.9024 11.7111 71.8051 10.7613 73.2633 10.7613C73.2653 10.7613 73.2663 10.7613 73.2683 10.7613C73.479 10.7633 73.6906 10.7805 73.8992 10.8119C75.168 11.1704 76.2029 11.9997 76.8034 13.1004C78.4226 16.0067 78.8155 19.3737 77.9082 22.5786C76.4358 28.6584 72.0056 31.9059 69.3768 31.9059C69.151 31.9059 68.9242 31.8816 68.7014 31.833C68.5303 31.7854 68.3733 31.7075 68.2103 31.6427C67.1855 31.2325 66.3227 30.5034 65.8002 29.5435C65.7759 29.4979 65.7729 29.4463 65.7628 29.3956V32.9945C65.8083 32.9378 65.86 32.8851 65.9288 32.8527C66.0919 32.7727 66.2822 32.7889 66.4311 32.8892C66.9728 33.2537 67.5733 33.5008 68.2113 33.6446C68.2538 33.6547 68.2943 33.674 68.3378 33.6831C68.6801 33.756 69.0285 33.7925 69.3788 33.7935C73.1904 33.7935 78.1127 29.7622 79.7491 23.0141C80.7699 19.2805 80.2778 15.388 78.3629 12.0392Z" fill="#637EA8"/>
<path d="M41.8535 54.1045C41.9973 54.1946 42.0955 54.3475 42.0955 54.5278V58.7109V63.3032C42.0955 63.8237 42.5188 64.247 43.0393 64.247C43.5598 64.247 43.9841 63.8237 43.9841 63.3032V58.7109V54.5278C43.9841 54.3475 44.0833 54.1946 44.2261 54.1045H41.8535Z" fill="#637EA8"/>
<path d="M49.7857 72.0047V67.8539V58.7119V54.1055H47.881C47.885 54.1308 47.8972 54.1541 47.8972 54.1794V58.7119V67.8539V72.0047C47.8972 72.2082 47.7757 72.3804 47.6035 72.4614H50.0783C49.9072 72.3804 49.7857 72.2072 49.7857 72.0047Z" fill="#E8A15B"/>
<path d="M38.1842 72.0047V67.8539V58.7119V54.1794C38.1842 54.1531 38.1963 54.1308 38.2004 54.1055H36.2957V58.7119V67.8539V72.0047C36.2957 72.2082 36.1741 72.3804 36.002 72.4614H38.4768C38.3057 72.3804 38.1842 72.2072 38.1842 72.0047Z" fill="#E8A15B"/>
<path d="M35.7892 78.3115C34.0546 78.3115 32.3919 78.7368 30.8962 79.4771C28.9651 80.433 27.3176 81.9276 26.2239 83.8546C26.152 83.9812 26.0254 84.0531 25.8867 84.0835H29.2011C29.0431 84.0511 28.9013 83.963 28.8334 83.8121C28.7514 83.6298 28.7838 83.4172 28.9165 83.2683C30.0922 81.9428 31.6202 81.0132 33.2941 80.5454C34.0849 80.3246 34.9052 80.197 35.7416 80.197C36.3107 80.197 36.733 79.7738 36.733 79.2533C36.733 78.7348 36.3097 78.3115 35.7892 78.3115Z" fill="#E8A15B"/>
</svg>
