<svg width="50" height="50" viewBox="0 0 50 50" fill="none" xmlns="http://www.w3.org/2000/svg">
<path d="M44.573 0H5.425C2.434 0 0 2.434 0 5.425V44.573C0 47.564 2.434 49.997 5.425 49.997H44.573C47.564 49.997 49.999 47.564 49.999 44.573V5.425C49.999 2.434 47.564 0 44.573 0ZM47.848 44.573C47.848 46.379 46.379 47.848 44.574 47.848H5.425C3.619 47.848 2.151 46.379 2.151 44.573V5.425C2.151 3.619 3.62 2.15 5.425 2.15H44.573C46.379 2.15 47.847 3.619 47.847 5.425V44.573H47.848Z" fill="#637EA8"/>
<path d="M38.0492 10.875H20.6492C20.0562 10.875 19.5742 11.357 19.5742 11.95C19.5742 12.543 20.0562 13.025 20.6492 13.025H38.0482C38.6412 13.025 39.1232 12.543 39.1232 11.95C39.1232 11.357 38.6422 10.875 38.0492 10.875Z" fill="#E8A15B"/>
<path d="M14.483 10.875H11.95C11.357 10.875 10.875 11.357 10.875 11.95C10.875 12.543 11.357 13.025 11.95 13.025H14.483C15.076 13.025 15.558 12.543 15.558 11.95C15.558 11.357 15.075 10.875 14.483 10.875Z" fill="#637EA8"/>
<path d="M14.483 23.9238H11.95C11.357 23.9238 10.875 24.4058 10.875 24.9988C10.875 25.5918 11.357 26.0738 11.95 26.0738H14.483C15.076 26.0738 15.558 25.5918 15.558 24.9988C15.558 24.4058 15.075 23.9238 14.483 23.9238Z" fill="#E8A15B"/>
<path d="M14.483 36.9731H11.95C11.357 36.9731 10.875 37.4551 10.875 38.0481C10.875 38.6411 11.357 39.1231 11.95 39.1231H14.483C15.076 39.1231 15.558 38.6411 15.558 38.0481C15.558 37.4551 15.075 36.9731 14.483 36.9731Z" fill="#637EA8"/>
<path d="M38.0492 23.9238H20.6492C20.0562 23.9238 19.5742 24.4058 19.5742 24.9988C19.5742 25.5918 20.0562 26.0738 20.6492 26.0738H38.0482C38.6412 26.0738 39.1232 25.5918 39.1232 24.9988C39.1232 24.4058 38.6422 23.9238 38.0492 23.9238Z" fill="#637EA8"/>
<path d="M38.0492 36.9731H20.6492C20.0562 36.9731 19.5742 37.4551 19.5742 38.0481C19.5742 38.6411 20.0562 39.1231 20.6492 39.1231H38.0482C38.6412 39.1231 39.1232 38.6411 39.1232 38.0481C39.1232 37.4551 38.6422 36.9731 38.0492 36.9731Z" fill="#E8A15B"/>
</svg>
