<svg width="50" height="50" viewBox="0 0 50 50" fill="none" xmlns="http://www.w3.org/2000/svg">
<path d="M49.7157 0.287282C49.5308 0.102388 49.2853 0 49.0228 0H35.7691C35.2303 0 34.7919 0.438378 34.7919 0.977157V6.63731C34.3227 6.70888 33.9629 7.11545 33.9629 7.60353C33.9629 8.09161 34.3227 8.49818 34.7919 8.57075V14.2319C34.7919 14.7707 35.2303 15.2091 35.7691 15.2091H41.4183V15.888C41.4183 16.4268 41.8567 16.8651 42.3955 16.8651C42.9352 16.8651 43.3736 16.4268 43.3736 15.888V15.2091H49.0228C49.5616 15.2091 50 14.7707 50 14.2319V0.978151C50.001 0.716714 49.8996 0.472176 49.7157 0.287282ZM48.0457 1.95431V13.2537H36.7472V1.95431H48.0457Z" fill="#637EA8"/>
<path d="M3.46253 12.7241H6.6266V13.4041C6.6266 13.9428 7.06498 14.3812 7.60376 14.3812C8.14254 14.3812 8.58092 13.9428 8.58092 13.4041V12.7241H11.746C12.2848 12.7241 12.7231 12.2857 12.7231 11.747V8.58189H13.4021C13.9419 8.58189 14.3802 8.14352 14.3802 7.60474C14.3802 7.06596 13.9419 6.62758 13.4021 6.62758H12.7231V3.46251C12.7231 2.92373 12.2848 2.48535 11.746 2.48535H3.46253C2.92275 2.48535 2.48438 2.92373 2.48438 3.46251V11.746C2.48438 12.2857 2.92275 12.7241 3.46253 12.7241ZM4.44068 10.7688V4.43966H10.7688V10.7688H4.44068Z" fill="#E8A15B"/>
<path d="M46.5389 37.2773H43.3639C43.2923 36.8081 42.8857 36.4492 42.3967 36.4492C41.9076 36.4492 41.503 36.8091 41.4304 37.2773H38.2554C37.7166 37.2773 37.2783 37.7156 37.2783 38.2544V41.4304C36.8091 41.502 36.4492 41.9076 36.4492 42.3967C36.4492 42.8857 36.8091 43.2913 37.2783 43.3629V46.5389C37.2783 47.0777 37.7166 47.516 38.2554 47.516H46.5389C47.0777 47.516 47.516 47.0777 47.516 46.5389V38.2554C47.517 37.7156 47.0777 37.2773 46.5389 37.2773ZM39.2336 45.5607V39.2316H45.5617V45.5607H39.2336Z" fill="#E8A15B"/>
<path d="M8.58226 17.545C8.58226 17.0062 8.14388 16.5679 7.6051 16.5679C7.06533 16.5679 6.62695 17.0062 6.62695 17.545V19.2021C6.62695 19.7409 7.06533 20.1793 7.6051 20.1793C8.14388 20.1793 8.58226 19.7409 8.58226 19.2021V17.545Z" fill="#E8A15B"/>
<path d="M7.6051 28.1646C7.06533 28.1646 6.62695 28.6029 6.62695 29.1417V30.7988C6.62695 31.3376 7.06533 31.776 7.6051 31.776C8.14388 31.776 8.58226 31.3376 8.58226 30.7988V29.1417C8.58326 28.6029 8.14388 28.1646 7.6051 28.1646Z" fill="#E8A15B"/>
<path d="M8.58226 23.3434C8.58226 22.8046 8.14388 22.3662 7.6051 22.3662C7.06533 22.3662 6.62695 22.8046 6.62695 23.3434V25.0005C6.62695 25.5392 7.06533 25.9776 7.6051 25.9776C8.14388 25.9776 8.58226 25.5392 8.58226 25.0005V23.3434Z" fill="#637EA8"/>
<path d="M42.3961 22.6646C42.9349 22.6646 43.3733 22.2262 43.3733 21.6875V20.0304C43.3733 19.4916 42.9349 19.0532 42.3961 19.0532C41.8563 19.0532 41.418 19.4916 41.418 20.0304V21.6875C41.418 22.2262 41.8563 22.6646 42.3961 22.6646Z" fill="#E8A15B"/>
<path d="M41.418 27.4858C41.418 28.0246 41.8563 28.463 42.3961 28.463C42.9349 28.463 43.3733 28.0246 43.3733 27.4858V25.8287C43.3733 25.2899 42.9349 24.8516 42.3961 24.8516C41.8563 24.8516 41.418 25.2899 41.418 25.8287V27.4858Z" fill="#637EA8"/>
<path d="M41.418 33.2841C41.418 33.8229 41.8563 34.2613 42.3961 34.2613C42.9349 34.2613 43.3733 33.8229 43.3733 33.2841V31.6271C43.3733 31.0883 42.9349 30.6499 42.3961 30.6499C41.8563 30.6499 41.418 31.0883 41.418 31.6271V33.2841Z" fill="#E8A15B"/>
<path d="M23.3453 8.58176H25.0014C25.5412 8.58176 25.9796 8.14338 25.9796 7.6046C25.9796 7.06582 25.5412 6.62744 25.0014 6.62744H23.3453C22.8056 6.62744 22.3672 7.06582 22.3672 7.6046C22.3672 8.14338 22.8056 8.58176 23.3453 8.58176Z" fill="#E8A15B"/>
<path d="M17.5446 8.58176H19.2007C19.7404 8.58176 20.1788 8.14338 20.1788 7.6046C20.1788 7.06582 19.7404 6.62744 19.2007 6.62744H17.5446C17.0048 6.62744 16.5664 7.06582 16.5664 7.6046C16.5664 8.14338 17.0048 8.58176 17.5446 8.58176Z" fill="#637EA8"/>
<path d="M29.1422 8.58176H30.7983C31.3381 8.58176 31.7765 8.14338 31.7765 7.6046C31.7765 7.06582 31.3381 6.62744 30.7983 6.62744H29.1422C28.6024 6.62744 28.1641 7.06582 28.1641 7.6046C28.1641 8.14338 28.6024 8.58176 29.1422 8.58176Z" fill="#637EA8"/>
<path d="M27.4858 41.4194H25.8297C25.2899 41.4194 24.8516 41.8578 24.8516 42.3966C24.8516 42.9354 25.2899 43.3737 25.8297 43.3737H27.4858C28.0256 43.3737 28.464 42.9354 28.464 42.3966C28.465 41.8568 28.0256 41.4194 27.4858 41.4194Z" fill="#E8A15B"/>
<path d="M21.687 41.4194H20.0309C19.4911 41.4194 19.0527 41.8578 19.0527 42.3966C19.0527 42.9354 19.4911 43.3737 20.0309 43.3737H21.687C22.2268 43.3737 22.6651 42.9354 22.6651 42.3966C22.6661 41.8568 22.2268 41.4194 21.687 41.4194Z" fill="#637EA8"/>
<path d="M33.2846 41.4194H31.6285C31.0888 41.4194 30.6504 41.8578 30.6504 42.3966C30.6504 42.9354 31.0888 43.3737 31.6285 43.3737H33.2846C33.8244 43.3737 34.2628 42.9354 34.2628 42.3966C34.2638 41.8568 33.8244 41.4194 33.2846 41.4194Z" fill="#637EA8"/>
<path d="M15.889 41.4193H15.209V35.7691C15.209 35.2303 14.7707 34.7919 14.2319 34.7919H8.57174C8.50017 34.3227 8.0936 33.9639 7.60452 33.9639C7.11545 33.9639 6.71087 34.3227 6.6393 34.7919H0.978151C0.438379 34.7919 0 35.2303 0 35.7691V49.0228C0 49.5616 0.438379 50 0.978151 50H14.2319C14.7707 50 15.209 49.5616 15.209 49.0228V43.3726H15.888C16.4278 43.3726 16.8661 42.9342 16.8661 42.3954C16.8671 41.8567 16.4278 41.4193 15.889 41.4193ZM13.2547 36.7462V48.0457H1.9563V36.7462H13.2547Z" fill="#637EA8"/>
<path d="M15.8893 35.09C16.1507 35.09 16.3962 34.9886 16.5801 34.8037L28.315 23.0689L32.5944 27.3483C32.8717 27.6247 33.3041 27.7072 33.66 27.5611C34.0258 27.41 34.2624 27.0551 34.2624 26.6575V16.7169C34.2624 16.1781 33.824 15.7397 33.2852 15.7397H23.3447C22.949 15.7397 22.5942 15.9763 22.4411 16.3431C22.29 16.7099 22.3735 17.1284 22.6538 17.4078L26.9332 21.6872L15.1984 33.422C15.0135 33.6069 14.9121 33.8524 14.9121 34.1129C14.9121 34.3733 15.0145 34.6188 15.1984 34.8037C15.3833 34.9886 15.6288 35.09 15.8893 35.09ZM25.7046 17.6941H32.3081V24.2976L25.7046 17.6941Z" fill="#E8A15B"/>
</svg>
