<svg width="86" height="86" viewBox="0 0 86 86" fill="none" xmlns="http://www.w3.org/2000/svg">
<path d="M83.6046 47.8564L73.7429 47.8452C73.5618 47.8452 73.3959 47.7481 73.3048 47.5923C73.2148 47.4355 73.2148 47.2432 73.3048 47.0864C74.5038 45.0113 74.7294 42.5264 73.9251 40.2691C73.9099 40.2266 73.9149 40.1811 73.9119 40.1376L72.5227 37.6699C72.4418 37.6416 72.3659 37.6001 72.3083 37.5353C70.7866 35.8214 68.6062 34.8329 66.3166 34.8076H63.4502C63.4077 34.9351 63.3703 35.0636 63.3197 35.188C63.2691 35.3145 63.169 35.4147 63.0435 35.4663C59.9789 36.728 58.0019 39.6843 58.0069 42.9979C58.0009 44.4447 58.4005 45.8561 59.1624 47.0834C59.2595 47.2392 59.2646 47.4355 59.1745 47.5963C59.0845 47.7572 58.9165 47.8564 58.7324 47.8564H48.7999C48.1645 47.8564 47.5473 48.1144 47.1021 48.5656C47.005 48.6648 46.8745 48.7164 46.7419 48.7164C46.6681 48.7164 46.5932 48.7002 46.5234 48.6668C46.4778 48.6456 46.4303 48.6294 46.3848 48.6091V50.9443C46.3898 50.9736 46.408 50.9999 46.408 51.0303V58.228C46.4131 58.8937 46.7035 59.5342 47.2043 59.9804C47.2974 60.0644 47.348 60.1797 47.3621 60.3031L49.6609 60.7716C49.7276 60.6775 49.8025 60.5915 49.8652 60.4933C49.9239 60.4023 50.0099 60.3325 50.1101 60.294C50.6038 60.1048 50.8821 60.0107 51.0055 59.9692L51.0075 59.9723C51.0692 59.9389 51.138 59.9197 51.2099 59.9146C54.3595 59.7052 57.2127 61.8744 57.8825 64.9239C58.271 66.8098 57.7914 68.7352 56.5672 70.2134C54.8988 72.1823 52.1073 72.9745 49.6568 72.1712C49.3857 72.0781 49.1115 72.0315 48.8332 72.0315C48.3152 72.0315 47.8174 72.1894 47.3935 72.4868C46.7702 72.9259 46.401 73.6433 46.405 74.4051V83.6051C46.405 84.9255 47.4795 86 48.7988 86H79.253C82.9682 85.9959 85.9944 82.9687 85.9985 79.2545V50.2512C85.9995 48.9309 84.925 47.8564 83.6046 47.8564ZM84.1105 79.2545C84.1105 81.9327 81.9322 84.111 79.254 84.111H48.7999C48.6653 84.111 48.5358 84.0574 48.4407 83.9613C48.3456 83.8662 48.293 83.7356 48.294 83.6011L48.3628 74.4314C48.3638 74.2685 48.4437 74.1168 48.5763 74.0227C48.7088 73.9286 48.8808 73.9053 49.0326 73.9569C49.8895 74.2513 50.7829 74.4001 51.6874 74.4001C54.0529 74.4001 56.3021 73.3792 57.8592 71.5985C60.0588 69.0812 60.5131 65.5238 59.0177 62.5351C57.5274 59.5585 54.4212 57.7818 51.0692 58.0327C50.3863 58.142 49.6831 58.3626 49.0214 58.6833C48.8646 58.7582 48.6805 58.747 48.5327 58.656C48.385 58.5639 48.296 58.402 48.296 58.228V50.2512C48.296 49.972 48.5226 49.7453 48.8019 49.7453H58.7344C59.5863 49.7453 60.3512 49.3022 60.7599 48.5869C61.1819 47.8361 61.1758 46.9023 60.7397 46.1546C59.7856 44.4943 59.6339 42.5213 60.3229 40.7376C61.0109 38.9548 62.4486 37.595 64.2677 37.0072C64.291 36.9991 64.3163 36.993 64.3406 36.989C64.9426 36.7937 65.5679 36.6935 66.2022 36.6925C68.1752 36.6986 70.0601 37.6416 71.2479 39.2139C72.0705 40.2954 72.5187 41.6411 72.5106 43.0029C72.5096 44.1017 72.2182 45.1894 71.6678 46.1434C71.2317 46.8962 71.2267 47.8321 71.6557 48.5889C72.0634 49.3012 72.8293 49.7453 73.6529 49.7453H83.6067C83.8859 49.7453 84.1125 49.972 84.1125 50.2512V79.2545H84.1105Z" fill="#637EA8"/>
<path d="M6.74577 43.5059C6.22471 43.5059 5.80078 43.9298 5.80078 44.4508V67.6537C5.80078 68.1748 6.22471 68.5987 6.74577 68.5987C7.26582 68.5987 7.68975 68.1748 7.68975 67.6537V44.4508C7.68975 43.9298 7.26582 43.5059 6.74577 43.5059Z" fill="#637EA8"/>
<path d="M6.74577 7.25146C6.22471 7.25146 5.80078 7.67438 5.80078 8.19544V28.4986C5.80078 29.0196 6.22471 29.4425 6.74577 29.4425C7.26582 29.4425 7.68975 29.0196 7.68975 28.4986V8.19544C7.68975 7.67438 7.26582 7.25146 6.74577 7.25146Z" fill="#E8A15B"/>
<path d="M37.2016 37.7126L35.1933 37.7227L27.2985 37.7622C27.2975 37.7622 27.2975 37.7622 27.2965 37.7622C27.1164 37.7622 26.9494 37.6661 26.8584 37.5092C26.7673 37.3524 26.7673 37.1581 26.8584 37.0023C26.8907 36.9467 26.915 36.887 26.9403 36.8283C26.9717 36.7545 27.0041 36.6806 27.0415 36.6098C28.1676 34.4891 28.3001 31.9991 27.4077 29.7753C26.5154 27.5494 24.6982 25.8415 22.4228 25.0888C22.0929 24.9755 21.756 24.8834 21.414 24.8136C21.1206 24.7579 20.8151 24.7175 20.5095 24.6932C20.2657 24.674 20.0411 24.6608 19.8154 24.6608C19.7922 24.6628 19.6981 24.6709 19.688 24.6719C19.3045 24.678 18.919 24.7114 18.5406 24.7691C18.4506 24.7832 18.3636 24.8014 18.2755 24.8197C18.2745 24.8197 18.1754 24.8409 18.1744 24.8409C17.8536 24.9046 17.538 24.9876 17.2284 25.0878L16.9734 25.1657C16.6081 25.3023 16.2439 25.4682 15.8949 25.6584C15.8048 25.709 15.7097 25.7636 15.6166 25.8203C15.2615 26.0257 14.9236 26.2584 14.6028 26.5164C14.3489 26.7238 14.1222 26.9322 13.9077 27.1518C12.4174 28.6856 11.5979 30.7091 11.6009 32.849C11.5999 34.1299 11.9247 35.3997 12.5408 36.5228L12.6339 36.7039C12.6754 36.7858 12.7169 36.8678 12.7634 36.9497C12.8525 37.1065 12.8525 37.2988 12.7624 37.4546C12.6714 37.6104 12.5054 37.7065 12.3243 37.7065H2.39485C2.1156 37.7065 1.88897 37.4799 1.88897 37.2006V32.5587V30.092V6.74545C1.88897 4.0673 4.0673 1.88897 6.74545 1.88897H35.1741H37.1986C37.3919 1.88897 37.5548 2.00127 37.6397 2.16113V0H35.1731H6.74545C3.03024 0.00404707 0.00404707 3.03024 0 6.74545V30.091V32.5576V39.6188H2.26939C2.31088 39.6086 2.35033 39.5935 2.39485 39.5935H12.3284C12.5338 39.5935 12.7412 39.5672 12.9435 39.5135C13.5314 39.3577 14.0423 38.9652 14.3458 38.435C14.6777 37.8482 14.7475 37.1409 14.5361 36.4954C14.4804 36.3022 14.4096 36.1292 14.3216 35.9622C14.1941 35.7488 14.0727 35.5049 13.9685 35.254C13.074 33.0878 13.4474 30.6242 14.9408 28.8222C16.4169 27.0405 18.8108 26.2027 21.0771 26.6712C21.3726 26.7289 21.6731 26.8108 21.9614 26.914C23.6834 27.5393 25.0422 28.8778 25.6908 30.5887C26.3413 32.2986 26.2139 34.2028 25.3407 35.8105C25.2901 35.9248 25.2628 35.9855 25.2274 36.0452C25.1363 36.2041 25.0615 36.3821 25.0099 36.5673H25.0088C25.0038 36.5855 24.9977 36.6037 24.9916 36.6219C24.9886 36.6806 24.9765 36.7423 24.9542 36.7959C24.852 37.2775 24.94 37.8654 25.2284 38.3682C25.2405 38.3814 25.3053 38.4562 25.3154 38.4714C25.7727 39.1746 26.5255 39.5884 27.341 39.5945H35.1923H37.1986C37.404 39.5945 37.579 39.7179 37.659 39.894V37.4141C37.5801 37.5882 37.406 37.7116 37.2016 37.7126Z" fill="#637EA8"/>
<path d="M47.3628 60.3027C47.3648 60.3209 47.374 60.3371 47.374 60.3563C47.374 60.4999 47.3143 60.6365 47.207 60.7337C46.6991 61.193 46.1183 61.5441 45.5022 61.8142C44.7181 62.1582 43.8722 62.3575 42.9991 62.3596C42.9991 62.3596 42.9991 62.3596 42.9981 62.3596C42.2746 62.3596 41.5968 62.2452 40.9472 62.0196C40.1914 61.7555 39.3446 61.8759 38.696 62.3353C38.0687 62.7764 37.6984 63.4948 37.7035 64.2576V73.4546C37.7035 73.7339 37.4768 73.9605 37.1976 73.9605H6.74342C4.06528 73.9605 1.88694 71.7822 1.88694 69.105V42.0858V40.1007C1.88694 39.866 2.05085 39.6768 2.26737 39.6201H0V42.0868V69.104C0.00404707 72.8182 3.03024 75.8444 6.74545 75.8484H37.1986C38.519 75.8484 39.5935 74.7739 39.5935 73.4536L39.6481 64.2769C39.6491 64.114 39.729 63.9612 39.8616 63.8671C39.9941 63.773 40.1661 63.7497 40.3199 63.8024C41.1698 64.0978 42.0571 64.2465 42.9556 64.2465C44.6331 64.2445 46.2094 63.7416 47.5358 62.8543C48.3574 62.3039 49.0757 61.6028 49.6605 60.7711L47.3628 60.3027Z" fill="#3F496A"/>
<path d="M70.5514 0H37.6387V2.16012C37.6761 2.23095 37.7034 2.30784 37.7034 2.39384V11.5908C37.6984 12.3557 38.0656 13.073 38.6869 13.5132C39.3364 13.9725 40.1873 14.0929 40.9401 13.8309C43.346 13.0386 46.0505 13.7681 47.725 15.6186C48.6224 16.6233 49.1758 17.9133 49.2871 19.2509C49.3256 19.7042 49.3165 20.1605 49.2608 20.6087C48.8592 23.4932 46.5635 25.7383 43.6779 26.0763C42.7268 26.1764 41.8163 26.0661 40.9411 25.7616C40.1893 25.5006 39.3405 25.621 38.6919 26.0793C38.0687 26.5194 37.6994 27.2357 37.7034 27.9976V37.2067C37.7034 37.2806 37.6862 37.3494 37.6579 37.4131V39.6825H39.8291C39.9081 39.6309 39.9971 39.5945 40.0983 39.5945H50.0308C50.8817 39.5945 51.6476 39.1503 52.0574 38.436C52.4793 37.6853 52.4722 36.7524 52.0361 36.0037C50.7734 33.8244 50.9272 31.1108 52.4256 29.0873C53.8968 27.1032 56.5162 26.136 58.9273 26.7015C60.7373 27.0951 62.2631 28.2728 63.1079 29.9311C63.4883 30.6919 63.7008 31.5125 63.7595 32.3431C63.8181 33.1718 63.7149 34.0085 63.4488 34.8098H66.3152C66.2858 34.8098 66.2575 34.8048 66.2282 34.8048H66.0875C65.9439 34.8078 65.7941 34.7431 65.696 34.6297C65.5978 34.5164 65.5553 34.3647 65.5796 34.2169C65.6828 33.5896 65.6899 32.9634 65.6525 32.3421C65.5847 31.217 65.3155 30.1132 64.7995 29.0863C63.6967 26.917 61.6995 25.3721 59.3198 24.849C56.9057 24.3057 54.3096 24.9056 52.3872 26.4425C50.4294 28.0067 49.3054 30.3419 49.3043 32.85C49.2983 34.2969 49.6979 35.7083 50.4598 36.9335C50.5569 37.0893 50.562 37.2866 50.4719 37.4465C50.3829 37.6074 50.2139 37.7065 50.0298 37.7065H40.1054C39.9708 37.7065 39.8413 37.6529 39.7472 37.5578C39.6531 37.4627 39.5995 37.3322 39.5995 37.1986L39.6551 28.0259C39.6561 27.863 39.7361 27.7103 39.8686 27.6162C40.0011 27.5231 40.1721 27.4978 40.3259 27.5514C41.188 27.8489 42.0844 27.9996 42.9899 27.9996C46.2104 27.9996 49.1384 26.0995 50.4507 23.1573C50.7997 22.4127 51.0294 21.6336 51.1367 20.8303C51.4948 18.0307 50.3505 15.1876 48.1499 13.414C45.9716 11.6576 42.91 11.1335 40.2662 12.0714C40.1114 12.127 39.9394 12.1028 39.8049 12.0076C39.6703 11.9125 39.5914 11.7588 39.5914 11.5948V2.39789C39.5914 2.11864 39.818 1.892 40.0973 1.892H70.5514C73.2296 1.892 75.4079 4.07034 75.4079 6.74848V37.2027C75.4079 37.3322 75.3553 37.4485 75.2754 37.5386C75.1823 37.6418 75.0518 37.7085 74.902 37.7085H72.6853C72.6276 37.7085 72.574 37.6913 72.5214 37.6731L73.9105 40.1408C73.9014 40.0245 73.9186 39.9091 73.9874 39.811C74.0825 39.6764 74.2363 39.5965 74.4012 39.5965H74.903C75.3867 39.5965 75.8359 39.4498 76.2133 39.2019C76.8649 38.7739 77.2979 38.0384 77.2979 37.2016V6.74747C77.2939 3.03024 74.2677 0.00404707 70.5514 0Z" fill="#E8A15B"/>
<path d="M43.918 47.9306C42.6907 47.79 41.4331 47.9114 40.2655 48.3201C40.1107 48.3758 39.9397 48.3515 39.8062 48.2554C39.6726 48.1603 39.5927 48.0065 39.5927 47.8426V41.4098V40.0985C39.5927 39.9205 39.6898 39.7717 39.8295 39.6807H37.6582V39.8911C37.6865 39.9548 37.7037 40.0237 37.7037 40.0975V41.4088V47.8416C37.6987 48.6085 38.067 49.3268 38.6892 49.768C39.3408 50.2293 40.1967 50.3487 40.9464 50.0816C41.9147 49.7639 42.9336 49.6921 43.918 49.8358C44.6981 49.9501 45.4579 50.198 46.15 50.5875C46.2825 50.6624 46.3574 50.7959 46.3837 50.9416V48.6065C45.6036 48.2523 44.7689 48.0277 43.918 47.9306Z" fill="#3F496A"/>
</svg>
