<svg width="51" height="50" viewBox="0 0 51 50" fill="none" xmlns="http://www.w3.org/2000/svg">
<g clip-path="url(#clip0)">
<path d="M46.629 0.0571819C42.555 -0.161818 34.657 0.074182 27.162 3.95018C23.32 5.93718 19.255 9.31018 16.008 13.2022L15.805 13.4512L15.576 13.5092L8.12104 14.0852C7.03404 14.1692 6.06404 14.7392 5.46304 15.6492L0.377037 23.3412C-0.0529632 23.9912 -0.120963 24.8042 0.193037 25.5162C0.509037 26.2292 1.15704 26.7252 1.92704 26.8442L8.66504 27.8872L8.51604 28.7032C8.33204 29.8102 8.70004 30.9502 9.50004 31.7492L18.248 40.4982C19.036 41.2872 20.18 41.6682 21.296 41.4812L22.11 41.3332L23.153 48.0722C23.273 48.8422 23.77 49.4892 24.482 49.8052C25.187 50.1182 26.015 50.0482 26.657 49.6222L34.35 44.5362C35.26 43.9342 35.83 42.9662 35.914 41.8782L36.503 34.2362L36.726 34.0492C40.689 30.7452 44.061 26.6792 46.049 22.8382C49.949 15.2982 50.161 7.40418 49.941 3.37018C49.847 1.58118 48.422 0.156182 46.629 0.0571819ZM9.26404 25.4792L9.15304 25.8572L1.94804 24.7412L7.20104 16.7972C7.44604 16.4272 7.84004 16.1942 8.28204 16.1602L14.064 15.7132L13.548 16.4842C11.609 19.3822 10.168 22.4082 9.26404 25.4792ZM20.954 39.4292C20.879 39.4422 20.802 39.4482 20.727 39.4482C20.355 39.4482 19.989 39.2952 19.722 39.0282L10.973 30.2802C10.647 29.9532 10.497 29.4922 10.572 29.0472C10.821 27.5512 11.22 26.0342 11.757 24.5392L11.997 23.8702L26.129 38.0022L25.459 38.2422C23.95 38.7822 22.434 39.1822 20.954 39.4292ZM33.84 41.7202C33.806 42.1622 33.574 42.5572 33.205 42.8012L25.26 48.0542L24.144 40.8492L24.522 40.7382C27.594 39.8352 30.62 38.3942 33.516 36.4552L34.287 35.9392L33.84 41.7202ZM44.202 21.8832C42.34 25.4852 39.155 29.3172 35.466 32.3952C33.242 34.2502 30.889 35.7892 28.471 36.9692L28.183 37.1102L12.89 21.8192L13.032 21.5302C14.221 19.1042 15.759 16.7512 17.606 14.5362C20.683 10.8482 24.515 7.66318 28.117 5.79918C35.18 2.14718 42.651 1.92518 46.515 2.13618C47.244 2.17518 47.825 2.75518 47.865 3.48618C48.074 7.30918 47.874 14.7842 44.202 21.8832Z" fill="#637EA8"/>
<path d="M34.4172 8.58105C32.5432 8.58105 30.7842 9.30905 29.4632 10.6301C28.1402 11.9531 27.4102 13.7131 27.4102 15.5841C27.4102 17.4551 28.1392 19.2151 29.4632 20.5381C30.7842 21.8591 32.5432 22.5871 34.4172 22.5871C36.2912 22.5871 38.0502 21.8591 39.3712 20.5381C40.6942 19.2151 41.4242 17.4551 41.4242 15.5841C41.4242 13.7131 40.6952 11.9541 39.3712 10.6301C38.0502 9.30805 36.2912 8.58105 34.4172 8.58105ZM37.8992 19.0661C36.9702 19.9951 35.7342 20.5061 34.4172 20.5061C33.1002 20.5061 31.8642 19.9951 30.9342 19.0661C30.0042 18.1351 29.4922 16.8991 29.4922 15.5831C29.4922 14.2671 30.0042 13.0311 30.9342 12.1011C31.8642 11.1721 33.1012 10.6601 34.4172 10.6601C35.7342 10.6601 36.9702 11.1721 37.8992 12.1001C38.8302 13.0301 39.3422 14.2661 39.3422 15.5821C39.3422 16.8981 38.8292 18.1351 37.8992 19.0661Z" fill="#E8A15B"/>
<path d="M1.8058 40.7432L6.6748 35.8742C7.0808 35.4682 7.0808 34.8082 6.6748 34.4022C6.4788 34.2062 6.2178 34.0972 5.9388 34.0972C5.6598 34.0972 5.3988 34.2052 5.2028 34.4022L0.333797 39.2712C-0.0722031 39.6772 -0.0722031 40.3372 0.333797 40.7432C0.726797 41.1372 1.4128 41.1372 1.8058 40.7432Z" fill="#E8A15B"/>
<path d="M10.4025 38.5601C10.1235 38.5601 9.8625 38.6681 9.6665 38.8641L0.3045 48.2251C-0.1015 48.6311 -0.1015 49.2911 0.3045 49.6981C0.6975 50.0911 1.3835 50.0911 1.7765 49.6981L11.1375 40.3371C11.3335 40.1411 11.4425 39.8791 11.4425 39.6011C11.4425 39.3231 11.3345 39.0621 11.1375 38.8651C10.9405 38.6681 10.6795 38.5601 10.4025 38.5601Z" fill="#E8A15B"/>
<path d="M14.8641 43.022C14.5851 43.022 14.3241 43.13 14.1281 43.326L9.25812 48.196C9.06212 48.392 8.95312 48.654 8.95312 48.932C8.95312 49.21 9.06112 49.471 9.25812 49.668C9.65112 50.062 10.3371 50.062 10.7301 49.668L15.5991 44.799C15.7951 44.603 15.9041 44.342 15.9041 44.063C15.9041 43.784 15.7961 43.523 15.5991 43.327C15.4021 43.13 15.1411 43.022 14.8641 43.022Z" fill="#E8A15B"/>
</g>
<defs>
<clipPath id="clip0">
<rect width="50.004" height="50" fill="white"/>
</clipPath>
</defs>
</svg>
