<svg width="50" height="50" viewBox="0 0 50 50" fill="none" xmlns="http://www.w3.org/2000/svg">
<path d="M46.0184 0H3.98155C1.78614 0 0 1.78614 0 3.98155V46.0174C0 48.2129 1.78614 50 3.98155 50H46.0184C48.2139 50 50 48.2129 50 46.0174V3.98155C50.001 1.78614 48.2149 0 46.0184 0ZM48.0127 46.0184C48.0127 47.1182 47.1172 48.0137 46.0184 48.0137H29.9792V47.9547H27.9909V48.0137H22.0101V47.9547H20.0218V48.0137H3.98155C2.88184 48.0137 1.98727 47.1182 1.98727 46.0184V13.9409H2.00228V11.9537H1.98727V3.98155C1.98727 2.88184 2.88284 1.98727 3.98155 1.98727H26.3979L26.3819 2.0263H28.5353L28.5513 1.98727H46.0174C47.1172 1.98727 48.0117 2.88184 48.0117 3.98155V46.0184H48.0127Z" fill="#637EA8"/>
<path d="M6.9702 7.96432C7.51897 7.96432 7.96383 7.51946 7.96383 6.97069C7.96383 6.42192 7.51897 5.97705 6.9702 5.97705C6.42143 5.97705 5.97656 6.42192 5.97656 6.97069C5.97656 7.51946 6.42143 7.96432 6.9702 7.96432Z" fill="#E8A15B"/>
<path d="M12.9468 7.96432C13.4955 7.96432 13.9404 7.51946 13.9404 6.97069C13.9404 6.42192 13.4955 5.97705 12.9468 5.97705C12.398 5.97705 11.9531 6.42192 11.9531 6.97069C11.9531 7.51946 12.398 7.96432 12.9468 7.96432Z" fill="#E8A15B"/>
<path d="M18.9253 7.96432C19.474 7.96432 19.9189 7.51946 19.9189 6.97069C19.9189 6.42192 19.474 5.97705 18.9253 5.97705C18.3765 5.97705 17.9316 6.42192 17.9316 6.97069C17.9316 7.51946 18.3765 7.96432 18.9253 7.96432Z" fill="#E8A15B"/>
<path d="M10.9547 17.9297H6.9702C6.42185 17.9297 5.97656 18.375 5.97656 18.9233C5.97656 19.4717 6.42185 19.918 6.9702 19.918H10.9547C11.5031 19.918 11.9484 19.4717 11.9484 18.9233C11.9484 18.375 11.5031 17.9297 10.9547 17.9297Z" fill="#E8A15B"/>
<path d="M26.3845 2.02637L25.635 3.82452L22.2479 11.9537H3.80206H2.00391V13.941H3.80206H22.9103C23.3125 13.941 23.6738 13.7008 23.8289 13.3286L27.7894 3.82452L28.5389 2.02637H26.3845Z" fill="#637EA8"/>
<path d="M28.3215 18.0868C28.0213 17.9807 27.6781 18.0267 27.4169 18.2118C27.1527 18.398 26.9956 18.7011 26.9956 19.0234V25.9988H23.0071V19.0234C23.0071 18.7011 22.85 18.398 22.5868 18.2118C22.3256 18.0267 21.9834 17.9797 21.6822 18.0868C17.7107 19.4927 15.043 23.2621 15.043 27.4678C15.043 30.95 16.8151 34.115 19.784 35.9352L20.0222 36.0813V46.1557V47.9539H22.0104V46.1557V35.4819C22.0104 35.1026 21.7993 34.7614 21.4591 34.5923C18.7273 33.2334 17.0292 30.5037 17.0292 27.4678C17.0292 24.9812 18.221 22.6006 20.2173 21.1007L21.0188 20.4993V26.9925C21.0188 27.5408 21.4641 27.9861 22.0124 27.9861H27.9893C28.5376 27.9861 28.9829 27.5408 28.9829 26.9925V20.4983L29.7844 21.1007C31.7797 22.6016 32.9724 24.9812 32.9724 27.4678C32.9724 30.5037 31.2754 33.2345 28.5426 34.5933C28.2024 34.7624 27.9913 35.1036 27.9913 35.4839V46.1577V47.9559H29.9795V46.1577V36.0823L30.2177 35.9362C33.1866 34.116 34.9587 30.951 34.9587 27.4688C34.9597 23.2621 32.292 19.4927 28.3215 18.0868Z" fill="#E8A15B"/>
</svg>
