<svg width="65" height="50" viewBox="0 0 65 50" fill="none" xmlns="http://www.w3.org/2000/svg">
<path d="M38.5688 48.0122H26.0448C25.4958 48.0122 25.0508 48.4572 25.0508 49.0062C25.0508 49.5552 25.4958 50.0002 26.0448 50.0002H38.5698C39.1188 50.0002 39.5638 49.5552 39.5638 49.0062C39.5638 48.4572 39.1178 48.0122 38.5688 48.0122Z" fill="#637EA8"/>
<path d="M36.6296 35.2212L36.9356 34.6072C37.2936 33.8852 37.4756 33.1112 37.4756 32.3052C37.4756 30.1682 36.1716 28.3302 34.3186 27.5452C33.7006 27.2832 33.0216 27.1382 32.3086 27.1382C31.4996 27.1382 30.7256 27.3202 30.0076 27.6782L29.4516 27.9562L27.9226 29.3272L27.9866 29.3912L27.6806 30.0062C27.3226 30.7252 27.1406 31.4972 27.1406 32.3052C27.1406 32.8222 27.2396 33.3112 27.3816 33.7832C27.4346 33.9612 27.4756 34.1452 27.5466 34.3152C27.7806 34.8682 28.1206 35.3612 28.5216 35.7962C28.5686 35.8482 28.6056 35.9082 28.6546 35.9582C28.7046 36.0082 28.7646 36.0442 28.8166 36.0922C29.2516 36.4932 29.7446 36.8332 30.2976 37.0672C30.4666 37.1392 30.6516 37.1792 30.8296 37.2322C31.3006 37.3742 31.7906 37.4732 32.3076 37.4732C32.6846 37.4732 33.0526 37.4292 33.4136 37.3512C33.5336 37.3252 33.6506 37.2902 33.7686 37.2552C34.0546 37.1702 34.3356 37.0692 34.6076 36.9342L35.1276 36.6742L36.6836 35.2782L36.6296 35.2212ZM35.4866 32.3062C35.4866 34.0592 34.0606 35.4852 32.3076 35.4852C30.5546 35.4852 29.1276 34.0592 29.1276 32.3062C29.1276 30.5532 30.5546 29.1272 32.3076 29.1272C34.0616 29.1262 35.4866 30.5522 35.4866 32.3062Z" fill="#637EA8"/>
<path d="M32.307 0C14.492 0 0 14.493 0 32.307C0 37.983 1.497 43.57 4.33 48.462C4.463 48.691 4.687 48.849 4.935 48.915C5.183 48.981 5.456 48.957 5.686 48.823L6.136 48.564L5.568 46.597L5.553 46.606H5.552L5.1 45.692C3.346 42.13 2.322 38.304 2.056 34.32L1.989 33.301H1.99H2.082L2.117 31.314H1.99H1.989L2.055 30.296C2.318 26.317 3.343 22.491 5.105 18.926L5.556 18.013H5.557L5.685 18.087L6.651 16.348L6.553 16.292L7.122 15.444C9.34 12.143 12.138 9.343 15.439 7.125L16.288 6.555H16.289L16.344 6.65L18.072 5.667L18.009 5.559L18.922 5.108C22.488 3.346 26.313 2.321 30.292 2.058L31.31 1.992H31.311V2.087L33.297 2.094V1.991H33.298L34.316 2.057C38.295 2.32 42.12 3.345 45.686 5.107L46.6 5.559L46.524 5.691L48.252 6.674L48.321 6.555H48.322L49.171 7.125C52.473 9.344 55.271 12.142 57.489 15.444L58.058 16.292L57.918 16.373L58.884 18.111L59.055 18.012L59.505 18.925C61.267 22.491 62.292 26.317 62.555 30.296L62.621 31.314H62.62H62.436L62.471 33.301H62.619H62.62L62.553 34.32C62.288 38.303 61.264 42.129 59.511 45.691L59.061 46.605H59.06L58.995 46.567L58.426 48.536L58.925 48.824C59.04 48.89 59.166 48.929 59.295 48.942C59.68 48.983 60.085 48.801 60.282 48.46C63.113 43.571 64.611 37.984 64.611 32.306C64.613 14.493 50.12 0 32.307 0Z" fill="#637EA8"/>
<path d="M11.4734 44.3339C11.2764 43.9919 10.8734 43.8059 10.4874 43.8489C10.3584 43.8629 10.2324 43.9029 10.1154 43.9709L9.05136 44.5849L5.56836 46.5969L6.13636 48.5639L9.62036 46.5529L11.1114 45.6919C11.5844 45.4189 11.7474 44.8089 11.4734 44.3339Z" fill="#E8A15B"/>
<path d="M7.25603 31.314H6.02303H2.11703L2.08203 33.301H5.98803H7.25703C7.80503 33.301 8.25003 32.856 8.25003 32.308C8.24903 31.759 7.80403 31.314 7.25603 31.314Z" fill="#E8A15B"/>
<path d="M11.1085 18.9211L10.0335 18.3011L6.65155 16.3481L5.68555 18.0871L9.06755 20.0401L10.1145 20.6451C10.2295 20.7111 10.3555 20.7491 10.4845 20.7631C10.8695 20.8041 11.2755 20.6221 11.4725 20.2811C11.7455 19.8051 11.5825 19.1961 11.1085 18.9211Z" fill="#E8A15B"/>
<path d="M20.6427 10.116L20.0267 9.04899L18.0737 5.66699L16.3457 6.64999L18.2987 10.032L18.9207 11.11C19.0537 11.34 19.2777 11.498 19.5257 11.566C19.7737 11.633 20.0457 11.609 20.2777 11.475C20.5077 11.341 20.6737 11.127 20.7417 10.871C20.8107 10.613 20.7757 10.347 20.6427 10.116Z" fill="#E8A15B"/>
<path d="M29.3913 27.9858L26.6383 25.2328L19.7253 18.3198C19.3503 17.9448 18.6953 17.9448 18.3203 18.3198C18.1263 18.5138 18.0293 18.7678 18.0293 19.0218C18.0293 19.2758 18.1263 19.5308 18.3203 19.7238L25.1573 26.5608L27.9223 29.3258L29.4513 27.9548L29.3913 27.9858Z" fill="#E8A15B"/>
<path d="M39.4889 38.1889C39.4719 38.1469 39.4359 38.1149 39.4129 38.0759C39.3709 38.0039 39.3339 37.9289 39.2729 37.8669L36.6849 35.2769L35.1289 36.6729L35.2219 36.6259L37.8669 39.2709C37.9029 39.3069 37.9499 39.3219 37.9899 39.3509C38.3739 39.6269 38.9309 39.6109 39.2719 39.2719C39.3659 39.1779 39.4389 39.0689 39.4879 38.9499C39.5369 38.8309 39.5629 38.7019 39.5629 38.5689C39.5639 38.4359 39.5379 38.3079 39.4889 38.1889Z" fill="#E8A15B"/>
<path d="M55.5123 44.5569L54.4963 43.9709C54.3423 43.8809 54.1763 43.8369 54.0013 43.8359C53.6463 43.8359 53.3163 44.0269 53.1383 44.3349C53.0023 44.5719 52.9743 44.8429 53.0393 45.0889C53.0813 45.2459 53.1733 45.3829 53.2883 45.5049C53.3523 45.5739 53.4163 45.6439 53.5013 45.6939L54.9433 46.5269L58.4273 48.5379L58.9963 46.5689L55.5123 44.5569Z" fill="#E8A15B"/>
<path d="M62.4373 31.314H58.5323H57.3543C56.8063 31.314 56.3613 31.759 56.3613 32.307C56.3613 32.856 56.8063 33.301 57.3543 33.301H58.5673H62.4733L62.4373 31.314Z" fill="#E8A15B"/>
<path d="M57.9182 16.373L54.5352 18.325L53.5012 18.922C53.0282 19.196 52.8652 19.806 53.1382 20.281C53.2702 20.51 53.4942 20.667 53.7422 20.734C53.8342 20.759 53.9302 20.758 54.0252 20.757C54.0582 20.757 54.0912 20.768 54.1242 20.765C54.2522 20.751 54.3782 20.711 54.4952 20.644L55.5012 20.064L58.8832 18.112L57.9182 16.373Z" fill="#E8A15B"/>
<path d="M46.5241 5.69092L44.5711 9.07292L43.9691 10.1159C43.8321 10.3539 43.8041 10.6249 43.8701 10.8709C43.9131 11.0319 44.0091 11.1709 44.1281 11.2949C44.1911 11.3599 44.2511 11.4279 44.3331 11.4759C44.4491 11.5429 44.5761 11.5819 44.7041 11.5959C44.7411 11.5999 44.7771 11.5869 44.8131 11.5869C44.9051 11.5869 44.9981 11.5889 45.0861 11.5649C45.3341 11.4979 45.5581 11.3389 45.6911 11.1109L46.2991 10.0569L48.2511 6.67492L46.5241 5.69092Z" fill="#E8A15B"/>
<path d="M31.3125 2.08594V5.99094V7.25894C31.3125 7.80594 31.7575 8.25194 32.3055 8.25194C32.8525 8.25194 33.2985 7.80594 33.2985 7.25894V5.99894V2.09294L31.3125 2.08594Z" fill="#E8A15B"/>
</svg>
