<svg width="50" height="50" viewBox="0 0 50 50" fill="none" xmlns="http://www.w3.org/2000/svg">
<path d="M47.313 13.743C47.3 13.714 47.29 13.694 47.279 13.675L47.258 13.637C42.946 5.226 34.417 0 25 0C15.58 0 7.051 5.229 2.739 13.645L2.72 13.679C2.711 13.696 2.701 13.712 2.695 13.73C0.906 17.264 0 21.052 0 25C0 28.949 0.906 32.737 2.69 36.259C2.702 36.288 2.711 36.304 2.72 36.321L2.739 36.355C7.05 44.771 15.579 50 25 50C34.417 50 42.946 44.774 47.258 36.363L47.279 36.323C47.29 36.305 47.3 36.287 47.307 36.268C49.095 32.736 49.999 28.949 49.999 25C49.999 21.051 49.096 17.264 47.313 13.743ZM19.259 47.264C13.492 45.775 8.58 42.15 5.431 37.057L5.336 36.903H5.424L4.446 34.922H4.262L4.236 34.865C2.923 32.116 2.185 29.166 2.039 26.096L2.034 25.991H2.133L2.106 24.009H2.034L2.039 23.904C2.185 20.835 2.923 17.885 4.236 15.135L4.262 15.078H4.302L5.348 13.097H5.335L5.43 12.943C8.58 7.85 13.492 4.225 19.259 2.736L19.583 2.653L19.359 2.9C17.291 5.194 15.613 8.694 14.508 13.021L14.489 13.096H14.461L14.016 15.198C13.473 17.939 13.167 20.871 13.108 23.911L13.106 24.01H13.038L13.011 25.992H13.107L13.109 26.091C13.169 29.136 13.474 32.068 14.017 34.804L14.041 34.924H14.005L14.423 36.905H14.489L14.508 36.98C15.612 41.306 17.29 44.806 19.359 47.101L19.583 47.349L19.259 47.264ZM25 48.018C21.653 48.018 18.434 43.808 16.599 37.03L16.565 36.903H16.691L16.16 34.922H16.094L16.077 34.842C15.494 32.073 15.167 29.13 15.103 26.093L15.1 25.99H15.195L15.153 24.008H15.1L15.103 23.905C15.167 20.867 15.495 17.924 16.077 15.156L16.094 15.076H16.137L16.6 13.095H16.566L16.6 12.968C18.434 6.192 21.653 1.981 25 1.981C28.348 1.981 31.567 6.191 33.401 12.969L33.435 13.095H33.368L33.836 15.076H33.907L33.924 15.156C34.506 17.918 34.834 20.862 34.898 23.905L34.901 24.008H34.835L34.78 25.99H34.902L34.899 26.093C34.835 29.133 34.507 32.076 33.926 34.842L33.909 34.922H33.822L33.327 36.903H33.436L33.402 37.029C31.568 43.808 28.349 48.018 25 48.018ZM47.963 26.096C47.817 29.165 47.078 32.115 45.766 34.865L45.74 34.922H45.537L44.56 36.903H44.666L44.571 37.057C41.422 42.15 36.51 45.775 30.742 47.264L30.418 47.347L30.642 47.099C32.712 44.803 34.389 41.303 35.493 36.978L35.512 36.903H35.56L35.979 34.922H35.96L35.984 34.802C36.527 32.064 36.832 29.133 36.891 26.089L36.893 25.99H36.971L36.944 24.008H36.893L36.891 23.909C36.831 20.86 36.526 17.929 35.984 15.197H35.965L35.521 13.095H35.51L35.491 13.02C34.388 8.695 32.711 5.196 30.64 2.899L30.416 2.651L30.74 2.734C36.509 4.223 41.421 7.848 44.57 12.941L44.665 13.095H44.633L45.679 15.076H45.738L45.764 15.133C47.076 17.882 47.815 20.832 47.961 23.902L47.966 24.007H47.875L47.848 25.989H47.966L47.963 26.096Z" fill="#637EA8"/>
<path d="M14.0177 15.1982L14.4627 13.0962H5.34973L4.30273 15.0772H14.0427L14.0177 15.1982Z" fill="#E8A15B"/>
<path d="M13.0395 24.0088H2.10547L2.13347 25.9908H13.0125L13.0395 24.0088Z" fill="#E8A15B"/>
<path d="M14.0043 34.9219H4.44531L5.42331 36.9039H14.4233L14.0043 34.9219Z" fill="#E8A15B"/>
<path d="M35.9605 15.0772H45.6815L44.6345 13.0962H35.5215L35.9665 15.1982H35.9855L35.9605 15.0772Z" fill="#E8A15B"/>
<path d="M47.8764 24.0088H36.9434L36.9704 25.9908H47.8504L47.8764 24.0088Z" fill="#E8A15B"/>
<path d="M35.5586 36.9039H44.5596L45.5366 34.9219H35.9776L35.5586 36.9039Z" fill="#E8A15B"/>
<path d="M33.3687 13.0962H16.5997L16.1367 15.0772H33.8367L33.3687 13.0962Z" fill="#E8A15B"/>
<path d="M34.8333 24.0088H15.1523L15.1943 25.9908H34.7783L34.8333 24.0088Z" fill="#E8A15B"/>
<path d="M33.8222 34.9219H16.1602L16.6912 36.9039H33.3272L33.8222 34.9219Z" fill="#E8A15B"/>
</svg>
