<svg width="60" height="60" viewBox="0 0 60 60" fill="none" xmlns="http://www.w3.org/2000/svg">
<path d="M29.8999 40.5C29.3999 40.5 28.8999 40.1 28.8999 39.5V19C28.8999 18.5 29.2999 18 29.8999 18C30.4999 18 30.8999 18.4 30.8999 19V39.6C30.7999 40.1 30.3999 40.5 29.8999 40.5Z" fill="#3F496A"/>
<path d="M36.6002 54.0001H23.2002C22.7002 54.0001 22.2002 53.6001 22.2002 53.0001V39.6001C22.2002 39.1001 22.6002 38.6001 23.2002 38.6001H36.6002C37.1002 38.6001 37.6002 39.0001 37.6002 39.6001V53.0001C37.6002 53.5001 37.1002 54.0001 36.6002 54.0001ZM24.1002 52.0001H35.6002V40.5001H24.1002V52.0001Z" fill="#E8A15B"/>
<path d="M36.6002 19.4H23.2002C22.7002 19.4 22.2002 19 22.2002 18.4V5C22.2002 4.5 22.6002 4 23.2002 4H36.6002C37.1002 4 37.6002 4.4 37.6002 5V18.4C37.6002 19 37.1002 19.4 36.6002 19.4ZM24.1002 17.5H35.6002V6H24.1002V17.5Z" fill="#637EA8"/>
<path d="M52.3001 40.5001C51.8001 40.5001 51.3001 40.1001 51.3001 39.5001V30.0001H8.1001V39.5001C8.1001 40.0001 7.7001 40.5001 7.1001 40.5001C6.5001 40.5001 6.1001 40.1001 6.1001 39.5001V29.1001C6.1001 28.6001 6.5001 28.1001 7.1001 28.1001H52.3001C52.8001 28.1001 53.3001 28.5001 53.3001 29.1001V39.5001C53.2001 40.1001 52.8001 40.5001 52.3001 40.5001Z" fill="#3F496A"/>
<path d="M59.0001 54.0001H45.6001C45.1001 54.0001 44.6001 53.6001 44.6001 53.0001V39.6001C44.6001 39.1001 45.0001 38.6001 45.6001 38.6001H59.0001C59.5001 38.6001 60.0001 39.0001 60.0001 39.6001V53.0001C60.0001 53.5001 59.5001 54.0001 59.0001 54.0001ZM46.5001 52.0001H58.0001V40.5001H46.5001V52.0001Z" fill="#E8A15B"/>
<path d="M14.4 54.0001H1C0.5 54.0001 0 53.6001 0 53.0001V39.6001C0 39.1001 0.4 38.6001 1 38.6001H14.4C14.9 38.6001 15.4 39.0001 15.4 39.6001V53.0001C15.4 53.5001 15 54.0001 14.4 54.0001ZM2 52.0001H13.5V40.5001H2V52.0001Z" fill="#E8A15B"/>
</svg>
