<svg width="60" height="60" viewBox="0 0 60 60" fill="none" xmlns="http://www.w3.org/2000/svg">
<path d="M55.9 17.5H4C3.5 17.5 3 17.1 3 16.5C3 15.9 3.4 15.5 4 15.5H55.9C56.4 15.5 56.9 15.9 56.9 16.5C56.9 17.1 56.4 17.5 55.9 17.5Z" fill="#637EA8"/>
<path d="M53.0002 53.5H7.00017C4.80017 53.5 3.10017 51.7 3.10017 49.6V10.5C3.00017 8.3 4.80017 6.5 7.00017 6.5H53.0002C55.2002 6.5 56.9002 8.3 56.9002 10.4V49.5C57.0002 51.7 55.2002 53.5 53.0002 53.5ZM7.00017 8.5C5.90017 8.5 5.00017 9.4 5.00017 10.5V49.6C5.00017 50.7 5.90017 51.6 7.00017 51.6H53.0002C54.1002 51.6 55.0002 50.7 55.0002 49.6V10.5C55.0002 9.4 54.1002 8.5 53.0002 8.5H7.00017Z" fill="#3F496A"/>
<path d="M8.5 11C7.9 11 7.5 11.4 7.5 12C7.5 12.6 7.9 13 8.5 13C9.1 13 9.5 12.6 9.5 12C9.5 11.4 9.1 11 8.5 11Z" fill="#637EA8"/>
<path d="M12.5 11C11.9 11 11.5 11.4 11.5 12C11.5 12.6 11.9 13 12.5 13C13.1 13 13.5 12.6 13.5 12C13.5 11.4 13.1 11 12.5 11Z" fill="#637EA8"/>
<path d="M16.5 11C15.9 11 15.5 11.4 15.5 12C15.5 12.6 15.9 13 16.5 13C17.1 13 17.5 12.6 17.5 12C17.5 11.4 17.1 11 16.5 11Z" fill="#637EA8"/>
<path d="M11.8999 27.2C9.9999 27.2 8.3999 25.7 8.3999 23.7C8.3999 21.7 9.8999 20.2 11.8999 20.2C13.8999 20.2 15.3999 21.7 15.3999 23.7C15.3999 25.7 13.7999 27.2 11.8999 27.2ZM11.8999 22.2C10.9999 22.2 10.3999 22.9 10.3999 23.7C10.3999 24.5 11.0999 25.2 11.8999 25.2C12.6999 25.2 13.3999 24.5 13.3999 23.7C13.3999 22.9 12.7999 22.2 11.8999 22.2Z" fill="#E8A15B"/>
<path d="M24.3003 27.2C23.8003 27.2 23.3003 26.8 23.3003 26.2V21.2C23.3003 20.7 23.7003 20.2 24.3003 20.2C24.9003 20.2 25.3003 20.6 25.3003 21.2V26.2C25.2003 26.7 24.8003 27.2 24.3003 27.2Z" fill="#3F496A"/>
<path d="M43.5001 27.2H19.1001C18.6001 27.2 18.1001 26.8 18.1001 26.2V21.2C18.1001 20.7 18.5001 20.2 19.1001 20.2H43.5001C44.0001 20.2 44.5001 20.6 44.5001 21.2V26.2C44.5001 26.7 44.0001 27.2 43.5001 27.2ZM20.1001 25.2999H42.6001V22.2H20.1001V25.2999Z" fill="#637EA8"/>
<path d="M11.8999 37.7C9.9999 37.7 8.3999 36.2 8.3999 34.2C8.3999 32.2 9.8999 30.7 11.8999 30.7C13.8999 30.7 15.3999 32.2 15.3999 34.2C15.3999 36.2 13.7999 37.7 11.8999 37.7ZM11.8999 32.7C10.9999 32.7 10.3999 33.4 10.3999 34.2C10.3999 35 11.0999 35.7 11.8999 35.7C12.6999 35.7 13.3999 35 13.3999 34.2C13.3999 33.4 12.7999 32.7 11.8999 32.7Z" fill="#E8A15B"/>
<path d="M36.2998 37.7C35.7998 37.7 35.2998 37.3 35.2998 36.7V31.7C35.2998 31.2 35.6998 30.7 36.2998 30.7C36.8998 30.7 37.2998 31.1 37.2998 31.7V36.7C37.1998 37.2 36.7998 37.7 36.2998 37.7Z" fill="#3F496A"/>
<path d="M41.5 37.7H21.5C21 37.7 20.5 37.3 20.5 36.7V31.7C20.5 31.2 20.9 30.7 21.5 30.7H41.5C42 30.7 42.5 31.1 42.5 31.7V36.7C42.5 37.2 42 37.7 41.5 37.7ZM22.5 35.7999H40.6V32.7H22.5V35.7999Z" fill="#637EA8"/>
<path d="M11.8999 48.2C9.9999 48.2 8.3999 46.7 8.3999 44.7C8.3999 42.7 9.8999 41.2 11.8999 41.2C13.8999 41.2 15.3999 42.7 15.3999 44.7C15.3999 46.7 13.7999 48.2 11.8999 48.2ZM11.8999 43.2C10.9999 43.2 10.3999 43.9 10.3999 44.7C10.3999 45.5 11.0999 46.2 11.8999 46.2C12.6999 46.2 13.3999 45.5 13.3999 44.7C13.3999 43.9 12.7999 43.2 11.8999 43.2Z" fill="#E8A15B"/>
<path d="M38.3003 48.2C37.8003 48.2 37.3003 47.8 37.3003 47.2V42.2C37.3003 41.7 37.7003 41.2 38.3003 41.2C38.9003 41.2 39.3003 41.6 39.3003 42.2V47.2C39.2003 47.7 38.8003 48.2 38.3003 48.2Z" fill="#3F496A"/>
<path d="M50.5001 48.2H33.1001C32.6001 48.2 32.1001 47.8 32.1001 47.2V42.2C32.1001 41.7 32.5001 41.2 33.1001 41.2H50.5001C51.0001 41.2 51.5001 41.6 51.5001 42.2V47.2C51.5001 47.7 51.0001 48.2 50.5001 48.2ZM34.1001 46.2999H49.6001V43.2H34.1001V46.2999Z" fill="#637EA8"/>
</svg>
