<svg width="60" height="60" viewBox="0 0 60 60" fill="none" xmlns="http://www.w3.org/2000/svg">
<path d="M48.9001 3H11.1001C7.5001 3 4.6001 6 4.6001 9.5C4.6001 9.5 4.6001 9.5 4.6001 9.6V14.8V20.3V22.2V37.8V39.8V48.6V50.5C4.6001 54.1 7.5001 57.1 11.2001 57.1H49.0001C52.6001 57.1 55.6001 54.2 55.6001 50.5V9.6C55.5001 6 52.5001 3 48.9001 3ZM53.5001 50.4C53.5001 53 51.4001 55.1 48.8001 55.1H11.1001C8.6001 55.1 6.5001 53 6.4001 50.5C6.4001 50.5 6.4001 50.5 6.4001 50.4V48.6V40V38V22V20.1V11.5V9.6C6.4001 9.6 6.4001 9.6 6.4001 9.5C6.5001 7 8.6001 5 11.1001 5H48.9001C51.5001 5 53.6001 7.1 53.6001 9.7V50.4H53.5001Z" fill="#637EA8"/>
<path d="M33.5999 17.2C34.0999 17.2 34.5999 16.8 34.5999 16.2C34.5999 15.6 34.1999 15.2 33.5999 15.2H23.8999L25.7999 17.1H33.5999V17.2Z" fill="#3F496A"/>
<path d="M43.6 31.2H31C30.5 31.2 30 30.8 30 30.2C30 29.6 30.4 29.2 31 29.2H43.6C44.1 29.2 44.6 29.6 44.6 30.2C44.6 30.8 44.1 31.2 43.6 31.2Z" fill="#3F496A"/>
<path d="M46.1001 33.3C44.5001 33.3 43.1001 32 43.1001 30.3C43.1001 28.6 44.4001 27.3 46.1001 27.3C47.8001 27.3 49.1001 28.6 49.1001 30.3C49.1001 32 47.8001 33.3 46.1001 33.3ZM46.1001 29.3C45.5001 29.3 45.1001 29.8 45.1001 30.3C45.1001 30.8 45.6001 31.3 46.1001 31.3C46.6001 31.3 47.1001 30.8 47.1001 30.3C47.1001 29.8 46.7001 29.3 46.1001 29.3Z" fill="#E8A15B"/>
<path d="M36.1001 19.3C34.5001 19.3 33.1001 18 33.1001 16.3C33.1001 14.6 34.4001 13.3 36.1001 13.3C37.8001 13.3 39.1001 14.6 39.1001 16.3C39.1001 18 37.8001 19.3 36.1001 19.3ZM36.1001 15.3C35.5001 15.3 35.1001 15.8 35.1001 16.3C35.1001 16.8 35.6001 17.3 36.1001 17.3C36.6001 17.3 37.1001 16.8 37.1001 16.3C37.1001 15.8 36.7001 15.3 36.1001 15.3Z" fill="#E8A15B"/>
<path d="M33.5998 42.3H25.9998C25.8998 42.5 25.7998 42.7 25.6998 42.8L24.2998 44.2001H33.5998C34.0998 44.2001 34.5998 43.8001 34.5998 43.2001C34.5998 42.6001 34.0998 42.3 33.5998 42.3Z" fill="#3F496A"/>
<path d="M36.1001 46.3C34.5001 46.3 33.1001 45 33.1001 43.3C33.1001 41.6 34.4001 40.3 36.1001 40.3C37.8001 40.3 39.1001 41.6 39.1001 43.3C39.1001 45 37.8001 46.3 36.1001 46.3ZM36.1001 42.3C35.5001 42.3 35.1001 42.8 35.1001 43.3C35.1001 43.8 35.6001 44.3 36.1001 44.3C36.6001 44.3 37.1001 43.8 37.1001 43.3C37.1001 42.8 36.7001 42.3 36.1001 42.3Z" fill="#E8A15B"/>
<path d="M20.6 30.3001C20.8 24.9001 16.5 20.3001 11.1 20.1001C11.1 20.1001 11.1 20.1001 11 20.1001H10C9.5 20.1001 9 20.5001 9 21.1001C9 21.7001 9.4 22.1001 10 22.1001H10.5C10.6 22.1001 10.8 22.1001 10.9 22.1001C15.3 22.2001 18.8 25.9001 18.7 30.4001C18.6 34.8001 14.9 38.3001 10.5 38.2001H10C9.5 38.2001 9 38.6001 9 39.2001C9 39.8001 9.4 40.2001 10 40.2001H11C11.1 40.2001 11.1 40.2001 11.2 40.2001C16.3 39.6001 20.4 35.5001 20.6 30.3001Z" fill="#3F496A"/>
<path d="M29.7 25.6L25.7 25C25.4 23.9 24.9 22.9 24.3 22L26.8 18.7C27.3 18.1 27.2 17.2 26.7 16.7L24.8 14.8L23.4 13.4C23.1 13.1 22.7 13 22.4 13C22.1 13 21.7 13.1 21.4 13.3L17.9 15.9C17.1 15.5 16.3 15.1 15.5 14.9L15 10.4C14.9 9.6 14.3 9.1 13.5 9H11.7H11.1H11H10C9.5 9 9 9.4 9 10C9 10.6 9.4 11 10 11H10.5H10.7H11.7H13.2L13.6 14.3L13.8 16.3C14.5 16.5 15.1 16.7 15.8 16.9C16 17 16.1 17 16.3 17.1C16.9 17.4 17.6 17.7 18.1 18.1L19.7 16.9L21.1 15.9L22.3 15L24 16.8L25.1 17.9L23.2 20.4L22 22C22.4 22.6 22.8 23.1 23.1 23.7C23.3 24 23.4 24.4 23.6 24.8C23.9 25.4 24.1 26.1 24.2 26.8L26.2 27.1L29.1 27.5V31.6L26.4 32L24.4 32.3C24.3 33 24.1 33.6 23.9 34.3C23.7 34.8 23.6 35.3 23.3 35.8C23 36.4 22.7 37 22.3 37.6L23.5 39.2L25 41.2L24.4 41.8L22.5 43.7L22.2 44L21.6 43.6L21.2 43.3L20.3 42.6L18.7 41.4C18.1 41.8 17.6 42.2 17 42.5C16.3 42.9 15.6 43.1 14.8 43.4C14.1 43.6 13.5 43.8 12.8 43.9L12.5 45.9L12.1 48H10.6H10.5V48.1H10.1C9.6 48.1 9.1 48.5 9.1 49C9.1 49.5 9.5 50 10 50H11C11.1 50 11.1 50 11.2 50H12.4C13.2 50 13.8 49.5 14 48.7L14.6 45.4C16.1 45 17.5 44.4 18.8 43.7L21.5 45.7C22.1 46.2 23 46.1 23.5 45.6L25.4 43.7L26.8 42.3C26.9 42.2 27.1 42 27.1 41.8C27.3 41.3 27.2 40.7 26.9 40.3L24.7 37.4C25.3 36.3 25.7 35.1 26.1 33.9L29.8 33.4C30.6 33.3 31.1 32.6 31.1 31.9V27.2C31.1 26.4 30.5 25.7 29.7 25.6Z" fill="#E8A15B"/>
</svg>
