<svg width="250" height="81" viewBox="0 0 250 81" fill="none" xmlns="http://www.w3.org/2000/svg">
<g clip-path="url(#clip0)">
<path d="M235.462 65.215V57.0118H244.564V65.215H250V37.7437H229.978L229.987 65.215H235.462ZM235.462 51.5186L235.426 43.2369H244.564V51.5186H235.462ZM226.497 65.215L226.467 54.2658L223.768 51.5186L226.467 48.7726L226.497 37.7437H206.452V65.215H226.497ZM211.929 43.2369H221.03V48.7726H211.929V43.2369ZM211.929 54.2658H221.03V59.7225H211.929V54.2658ZM202.548 65.215V37.7437H182.512V65.215H202.548ZM188.005 43.2369H197.106V59.7225H188.005V43.2369ZM166.582 65.215V43.2369H179.79V37.7437H161.108V65.215H166.582ZM157.197 65.215L157.188 37.7437H137.179L137.18 65.215H157.197ZM142.658 43.2369H151.76V59.7225H142.658V43.2369ZM119.125 65.215V57.0118H133.669V37.7432H113.649V65.2145H119.125V65.215ZM119.125 43.2369H128.227V51.5186H119.125V43.2369ZM95.1996 65.215L104.302 46.8876V65.215H109.738V37.7437H104.302L95.1996 56.032V37.7432H89.7257V65.2145H95.1996V65.215ZM71.2756 65.215V43.2369H80.3771V65.215H85.8135V37.7437H65.8005V65.215H71.2756Z" fill="#4DC6E3"/>
<path d="M247.334 1.71962V0H234.68V1.71962L234.693 4.20034H247.328L247.334 1.71962ZM65.7908 31.4322H83.3136L83.3231 24.0315H78.4171V26.4747H70.7404V11.6004H78.4171V14.0812H83.3231L83.3321 6.64292H65.7925L65.7908 31.4322ZM98.7655 19.0734H91.0865L91.0837 11.5999H98.7655V19.0734ZM98.7655 31.4322H103.672V6.64236H86.1403L86.1464 31.4322H91.0865V24.0315H98.7655V31.4322ZM119.819 31.4322H124.724V6.64236H119.819V16.5933H112.14V6.64236H107.2V31.4322H112.14V21.5519H119.819V31.4322ZM140.52 19.0734H132.842L132.836 11.5999H140.52V19.0734ZM140.52 31.4322H145.425V6.64236H127.891L127.9 31.4322H132.842V24.0315H140.52V31.4322ZM159.938 11.5999H166.966V6.64236H147.896V11.5999H154.997V31.4322H159.938V11.5999ZM182.056 26.4741H174.379V11.5999H182.056V26.4741ZM186.952 31.4322L186.964 6.64236H169.436L169.444 31.4322H186.952ZM203.108 19.0734H195.432V11.5999H203.108V19.0734ZM207.987 24.0315V6.64236H190.49V31.4322H195.432V24.0315H207.987ZM223.809 31.4322H228.715V6.64236H223.809L216.133 21.5934V6.64236H211.192V31.4322H216.133L223.809 16.4463V31.4322ZM237.186 6.64236H232.246V31.4322H237.186L244.863 16.4463V31.4322H249.769V6.64236H244.863L237.186 21.5934V6.64236Z" fill="#4DC6E3"/>
<path d="M230.162 71.2061H229.292L228.293 75.2258H227.779V71.2061H226.871V80.8468H227.779V76.066H228.136L229.372 80.8468H230.307L229.015 75.8209L230.162 71.2061Z" fill="#00A8DD"/>
<path d="M86.2661 71.2061H85.3595C84.6591 71.2061 84.0677 71.7849 84.0677 72.4989V79.554C84.0677 80.268 84.6591 80.8468 85.3595 80.8468H86.2661C86.9805 80.8468 87.5568 80.268 87.5568 79.554V72.4989C87.5568 71.7849 86.9805 71.2061 86.2661 71.2061ZM86.6513 79.554C86.6513 79.7739 86.4724 79.9382 86.2661 79.9382H85.3595C85.1527 79.9382 84.9749 79.7739 84.9749 79.554V72.4989C84.9749 72.2919 85.1527 72.1152 85.3595 72.1152H86.2661C86.4724 72.1152 86.6513 72.2919 86.6513 72.4989V79.554Z" fill="#00A8DD"/>
<path d="M47.6661 79.1794L47.5706 79.153L47.831 75.5859V71.2061H46.9227V80.8468H48.1614L50.0551 73.0092L50.1524 73.0384L49.8914 76.467V80.8468H50.7969V71.2061H49.5756L47.6661 79.1794Z" fill="#00A8DD"/>
<path d="M76.6355 71.2061H74.4651V80.8468H76.6355C77.3505 80.8468 77.9279 80.268 77.9279 79.554V76.8518C77.9279 76.3834 77.6814 75.8461 77.1442 75.6543C77.6814 75.4322 77.9279 74.7995 77.9279 74.3312V72.4983C77.9279 71.7849 77.3505 71.2061 76.6355 71.2061ZM77.0207 79.554C77.0207 79.7739 76.8563 79.9382 76.6355 79.9382H75.3728V76.066H76.2241C76.7322 76.066 77.0207 76.1372 77.0207 76.7559V79.554ZM77.0207 74.2897C77.0207 74.8147 76.8563 75.2258 76.3197 75.2258H75.3728V72.1152H76.6355C76.8563 72.1152 77.0207 72.2919 77.0207 72.4989V74.2897Z" fill="#00A8DD"/>
<path d="M57.6796 79.1794L57.5841 79.153L57.8451 75.5859V71.2061H56.9396V80.8468H58.1749L60.0697 73.0092L60.1659 73.0384L59.9048 76.467V80.8468H60.8115V71.2061H59.5896L57.6796 79.1794Z" fill="#00A8DD"/>
<path d="M39.8218 75.8063L40.9648 71.2061H40.0968L39.0973 75.2258H38.601V71.2061H37.6932V80.8468H38.601V76.066H38.9559L40.1929 80.8468H41.1275L39.8357 75.8192L39.8218 75.8063Z" fill="#00A8DD"/>
<path d="M134.521 70.5162H135.401C135.95 70.5162 136.335 70.1023 136.335 69.5526V69.4421H135.662V69.5925C135.662 69.7444 135.537 69.883 135.388 69.883H134.535C134.385 69.883 134.262 69.7444 134.262 69.5925V69.4421H133.588V69.5526C133.587 70.1023 133.972 70.5162 134.521 70.5162Z" fill="#00A8DD"/>
<path d="M58.4348 70.5162H59.314C59.8629 70.5162 60.2486 70.1023 60.2486 69.5526V69.4421H59.5756V69.5925C59.5756 69.7444 59.4526 69.883 59.3 69.883H58.4493C58.2978 69.883 58.1743 69.7444 58.1743 69.5925V69.4421H57.4996V69.5526C57.5008 70.1023 57.887 70.5162 58.4348 70.5162Z" fill="#00A8DD"/>
<path d="M30.261 71.2061H29.6701C28.9698 71.2061 28.3806 71.7849 28.3806 72.4989V79.554C28.3806 80.268 28.9698 80.8468 29.6701 80.8468H30.261C30.9748 80.8468 31.5533 80.268 31.5533 79.554V78.0784H30.6466V79.554C30.6466 79.7739 30.4661 79.9382 30.2615 79.9382H29.6707C29.4644 79.9382 29.2867 79.7739 29.2867 79.554V72.4989C29.2867 72.2919 29.4644 72.1152 29.6707 72.1152H30.2615C30.4812 72.1152 30.6466 72.2919 30.6466 72.4989V73.5752H31.5533V72.4989C31.5527 71.7849 30.9742 71.2061 30.261 71.2061Z" fill="#00A8DD"/>
<path d="M247.614 70.5162H248.493C249.042 70.5162 249.428 70.1023 249.428 69.5526V69.4421H248.755V69.5925C248.755 69.7444 248.631 69.883 248.48 69.883H247.628C247.478 69.883 247.354 69.7444 247.354 69.5925V69.4421H246.68V69.5526C246.679 70.1023 247.067 70.5162 247.614 70.5162Z" fill="#00A8DD"/>
<path d="M1.88146 71.2061H1.29232C0.590821 71.2061 0 71.7849 0 72.4989V79.554C0 80.268 0.590821 80.8468 1.29232 80.8468H1.88146C2.59749 80.8468 3.17378 80.268 3.17378 79.554V78.0784H2.26602V79.554C2.26602 79.7739 2.08939 79.9382 1.88146 79.9382H1.29232C1.0855 79.9382 0.906633 79.7739 0.906633 79.554V72.4989C0.906633 72.2919 1.0855 72.1152 1.29232 72.1152H1.88146C2.10225 72.1152 2.26602 72.2919 2.26602 72.4989V73.5752H3.17322V72.4989C3.17378 71.7849 2.59805 71.2061 1.88146 71.2061Z" fill="#00A8DD"/>
<path d="M21.2827 75.8108L22.4263 71.2061H21.5582L20.5588 75.2258H20.0558V71.2061H19.1486V80.8468H20.0558V76.066H20.4124L21.6488 80.8468H22.5823L21.2899 75.8192L21.2827 75.8108Z" fill="#00A8DD"/>
<path d="M10.3439 71.2061L9.03821 80.8468H9.95937L10.3574 78.0088H11.9649L12.3763 80.8468H13.2824L11.9783 71.2061H10.3439ZM10.4529 77.1692L11.1265 72.0995H11.1969L11.8688 77.1692H10.4529Z" fill="#00A8DD"/>
<path d="M170.387 79.1794L170.291 79.153L170.553 75.5859V71.2061H169.644V80.8468H170.881L172.777 73.0092L172.874 73.0384L172.613 76.467V80.8468H173.52V71.2061H172.296L170.387 79.1794Z" fill="#00A8DD"/>
<path d="M201.887 76.066H200.61C200.401 76.066 200.223 75.8882 200.223 75.6812V71.2061H199.319V75.6279C199.319 76.3419 199.894 76.9207 200.61 76.9207H201.888V80.8474H202.793V71.2066H201.888V76.066H201.887Z" fill="#00A8DD"/>
<path d="M208.931 80.8468H211.542V79.9377H209.839V76.066H211.338V75.2258H209.839V72.1152H211.555V71.2061H208.931V80.8468Z" fill="#00A8DD"/>
<path d="M93.6969 80.8468H96.3078V79.9377H94.6035V76.066H96.1015V75.2258H94.6035V72.1152H96.3212V71.2061H93.6969V80.8468Z" fill="#00A8DD"/>
<path d="M190.045 79.1794L189.949 79.153L190.21 75.5859V71.2061H189.302V80.8468H190.539L192.435 73.0092L192.531 73.0384L192.27 76.467V80.8468H193.177V71.2061H191.954L190.045 79.1794Z" fill="#00A8DD"/>
<path d="M182.256 75.2258H180.566V71.2061H179.659V80.8468H180.566V76.066H182.256V80.8468H183.162V71.2061H182.256V75.2258Z" fill="#00A8DD"/>
<path d="M248.767 71.2061L246.858 79.1794L246.762 79.153L247.023 75.5859V71.2061H246.116V80.8468H247.352L249.248 73.0092L249.344 73.0384L249.083 76.467V80.8468H249.989V71.2061H248.767Z" fill="#00A8DD"/>
<path d="M236.845 79.1794L236.747 79.153L237.009 75.5859V71.2061H236.103V80.8468H237.338L239.235 73.0092L239.329 73.0384L239.069 76.467V80.8468H239.975V71.2061H238.753L236.845 79.1794Z" fill="#00A8DD"/>
<path d="M219.441 71.2061H218.849C218.148 71.2061 217.558 71.7849 217.558 72.4989V79.554C217.558 80.268 218.148 80.8468 218.849 80.8468H219.441C220.153 80.8468 220.731 80.268 220.731 79.554V78.0784H219.826V79.554C219.826 79.7739 219.648 79.9382 219.441 79.9382H218.849C218.643 79.9382 218.464 79.7739 218.464 79.554V72.4989C218.464 72.2919 218.642 72.1152 218.849 72.1152H219.441C219.659 72.1152 219.826 72.2919 219.826 72.4989V73.5752H220.731V72.4989C220.73 71.7849 220.153 71.2061 219.441 71.2061Z" fill="#00A8DD"/>
<path d="M114.561 75.2258H112.873V71.2061H111.967V80.8468H112.873V76.066H114.561V80.8468H115.468V71.2061H114.561V75.2258Z" fill="#00A8DD"/>
<path d="M160.262 77.2948C160.262 77.9819 160.262 80.0907 159.508 80.0907V80.9999C161.171 80.9999 161.171 78.6291 161.171 76.9504V72.1146H162.599V80.8462H163.505V71.2054H160.262V77.2948Z" fill="#00A8DD"/>
<path d="M104.919 75.2258H103.229V71.2061H102.324V80.8468H103.229V76.066H104.919V80.8468H105.826V71.2061H104.919V75.2258Z" fill="#00A8DD"/>
<path d="M123.781 74.3856H122.516V71.2054H121.61V80.8462H123.781C124.495 80.8462 125.072 80.2674 125.072 79.5534V75.6806C125.072 74.9801 124.535 74.3856 123.781 74.3856ZM124.164 79.554C124.164 79.7587 124 79.9382 123.781 79.9382H122.516V75.2257H123.781C124 75.2257 124.164 75.408 124.164 75.615V79.554Z" fill="#00A8DD"/>
<path d="M152.689 75.8136L153.835 71.2061H152.963L151.965 75.2258H151.458V71.2061H150.553V80.8468H151.458V76.066H151.815L153.053 80.8468H153.986L152.695 75.8192L152.689 75.8136Z" fill="#00A8DD"/>
<path d="M133.766 79.1794L133.67 79.153L133.929 75.5859V71.2061H133.023V80.8468H134.261L136.155 73.0092L136.253 73.0384L135.991 76.467V80.8468H136.898V71.2061H135.674L133.766 79.1794Z" fill="#00A8DD"/>
<path d="M126.884 71.2061H125.977V80.8468H126.884V71.2061Z" fill="#00A8DD"/>
<path d="M0.0294189 6.7688V6.77272L16.0464 22.8562L16.0241 6.7688H0.0294189Z" fill="#4DC6E3"/>
<path d="M0.024292 6.76172V28.6642L11.5674 18.3515L0.024292 6.76172Z" fill="#00A8DD"/>
<path d="M16.0182 6.75439L16.0405 22.6488L16.0534 22.8457V22.8384H16.0696L33.332 6.75439H16.0182Z" fill="#E1E319"/>
<path d="M33.3327 6.75439L28.3087 11.4354L42.3554 22.8384H42.3571V6.75439H33.3327Z" fill="#87D3E8"/>
<path d="M0.0286865 52.2402L16.0105 65.4403H16.0535V43.323L0.0286865 52.2402Z" fill="#00A8DD"/>
<path d="M42.3566 6.75439V22.8384H42.3722L58.4015 6.75608V6.75439H42.3566Z" fill="#4DC6E3"/>
<path d="M58.402 28.6731V6.7561L46.8298 18.3661L58.402 28.6731Z" fill="#00A8DD"/>
<path d="M42.3732 43.2715V65.4375L58.4014 52.2656L42.3732 43.2715Z" fill="#00A8DD"/>
<path d="M58.4019 65.4403V52.2644L42.3732 65.4375V65.4403H58.4019Z" fill="#4DC6E3"/>
<path d="M42.3752 43.2726L58.4017 52.2656L57.4107 53.0794L58.4023 52.2645V28.6704L42.3752 43.2726Z" fill="#87D3E8"/>
<path d="M42.3748 43.2724L58.4014 28.6702V28.668H42.3732V43.2735H42.3771L42.3748 43.2724Z" fill="#4DC6E3"/>
<path d="M58.3972 28.6681L46.8301 18.3661L48.8054 16.3845L42.3729 22.8384H42.3735V28.6681H58.3972Z" fill="#00B9E1"/>
<path d="M28.3089 11.4355L16.0704 22.8386H42.3555L28.3089 11.4355Z" fill="#29B473"/>
<path d="M16.053 22.853L16.0419 22.8417L11.5674 18.3486L0.024292 28.6613V28.668H16.053" fill="#00B9E1"/>
<path d="M0.024292 65.4404H16.01L0.024292 52.2375V65.4404Z" fill="#4DC6E3"/>
<path d="M0.024292 28.677V52.2374L0.0282047 52.2402L16.053 43.3229V43.3196L0.024292 28.677Z" fill="#87D3E8"/>
<path d="M0.024292 28.668V28.6769L16.0525 43.3184H16.053V28.668H0.024292Z" fill="#4DC6E3"/>
</g>
<defs>
<clipPath id="clip0">
<rect width="250" height="81" fill="white"/>
</clipPath>
</defs>
</svg>
