<svg width="60" height="60" viewBox="0 0 60 60" fill="none" xmlns="http://www.w3.org/2000/svg">
<path d="M37.1001 9.70005H22.9001C21.3001 9.70005 20.1001 8.40005 20.1001 6.90005V3.60005C20.1001 2.00005 21.4001 0.800049 22.9001 0.800049H37.1001C38.7001 0.800049 39.9001 2.10005 39.9001 3.60005V6.80005C40.0001 8.40005 38.7001 9.70005 37.1001 9.70005ZM22.9001 2.70005C22.4001 2.70005 22.0001 3.10005 22.0001 3.60005V6.80005C22.0001 7.30005 22.4001 7.70005 22.9001 7.70005H37.1001C37.6001 7.70005 38.0001 7.30005 38.0001 6.80005V3.60005C38.0001 3.10005 37.6001 2.70005 37.1001 2.70005H22.9001Z" fill="#637EA8"/>
<path d="M21.1001 23.3H16.1001C15.0001 23.3 14.1001 22.4 14.1001 21.3V17.2C14.1001 16.1 15.0001 15.2 16.1001 15.2H21.1001C22.2001 15.2 23.1001 16.1 23.1001 17.2V21.3C23.1001 22.4 22.2001 23.3 21.1001 23.3ZM16.1001 17.2V21.4H21.1001V17.3L16.1001 17.2Z" fill="#E8A15B"/>
<path d="M44.9 18.2H27.5C27 18.2 26.5 17.8 26.5 17.2C26.5 16.6 26.9 16.2 27.5 16.2H44.9C45.4 16.2 45.9 16.6 45.9 17.2C45.9 17.8 45.4 18.2 44.9 18.2Z" fill="#3F496A"/>
<path d="M37.5 22.3H27.5C27 22.3 26.5 21.9 26.5 21.3C26.5 20.7 26.9 20.3 27.5 20.3H37.5C38 20.3 38.5 20.7 38.5 21.3C38.5 21.9 38 22.3 37.5 22.3Z" fill="#3F496A"/>
<path d="M21.1001 37.2999H16.1001C15.0001 37.2999 14.1001 36.3999 14.1001 35.2999V31.2C14.1001 30.1 15.0001 29.2 16.1001 29.2H21.1001C22.2001 29.2 23.1001 30.1 23.1001 31.2V35.2999C23.1001 36.3999 22.2001 37.2999 21.1001 37.2999ZM16.1001 31.2V35.4H21.1001V31.2999L16.1001 31.2Z" fill="#E8A15B"/>
<path d="M44.9 32.2H27.5C27 32.2 26.5 31.8 26.5 31.2C26.5 30.6 26.9 30.2 27.5 30.2H44.9C45.4 30.2 45.9 30.6 45.9 31.2C45.9 31.8 45.4 32.2 44.9 32.2Z" fill="#3F496A"/>
<path d="M37.5 36.3H27.5C27 36.3 26.5 35.9 26.5 35.3C26.5 34.7 26.9 34.3 27.5 34.3H37.5C38 34.3 38.5 34.7 38.5 35.3C38.5 35.9 38 36.3 37.5 36.3Z" fill="#3F496A"/>
<path d="M21.1001 51.2999H16.1001C15.0001 51.2999 14.1001 50.3999 14.1001 49.2999V45.2C14.1001 44.1 15.0001 43.2 16.1001 43.2H21.1001C22.2001 43.2 23.1001 44.1 23.1001 45.2V49.2999C23.1001 50.3999 22.2001 51.2999 21.1001 51.2999ZM16.1001 45.2V49.4H21.1001V45.2999L16.1001 45.2Z" fill="#E8A15B"/>
<path d="M44.9 46.2H27.5C27 46.2 26.5 45.8 26.5 45.2C26.5 44.6 26.9 44.2 27.5 44.2H44.9C45.4 44.2 45.9 44.6 45.9 45.2C45.9 45.8 45.4 46.2 44.9 46.2Z" fill="#3F496A"/>
<path d="M37.5 50.3H27.5C27 50.3 26.5 49.9 26.5 49.3C26.5 48.7 26.9 48.3 27.5 48.3H37.5C38 48.3 38.5 48.7 38.5 49.3C38.5 49.9 38 50.3 37.5 50.3Z" fill="#3F496A"/>
<path d="M45.1001 4.29995H43.0001C42.5001 4.29995 42.0001 4.69995 42.0001 5.29995C42.0001 5.79995 42.4001 6.29995 43.0001 6.29995H45.1001C47.6001 6.29995 49.5001 8.29995 49.5001 10.7V52.9C49.5001 55.4 47.5001 57.2999 45.1001 57.2999H14.9001C12.4001 57.2999 10.5001 55.3 10.5001 52.9V10.6C10.5001 8.09995 12.5001 6.19995 14.9001 6.19995H17.3001C17.8001 6.19995 18.3001 5.79995 18.3001 5.19995C18.3001 4.69995 17.9001 4.19995 17.3001 4.19995H14.9001C11.4001 4.19995 8.6001 6.99995 8.6001 10.5V52.7C8.6001 56.2 11.4001 59 14.9001 59H45.1001C48.6001 59 51.4001 56.2 51.4001 52.7V10.6C51.5001 7.09995 48.6001 4.29995 45.1001 4.29995Z" fill="#3F496A"/>
</svg>
