<svg width="60" height="60" viewBox="0 0 60 60" fill="none" xmlns="http://www.w3.org/2000/svg">
<g clip-path="url(#clip0_56_10)">
<path d="M2 24.3999C1.5 24.3999 1 23.9999 1 23.3999V11.3999C1 9.1999 2.8 7.3999 5 7.3999H35.6C36.1 7.3999 36.6 7.7999 36.6 8.3999C36.6 8.9999 36.2 9.3999 35.6 9.3999H5C3.9 9.3999 3 10.2999 3 11.3999V23.3999C2.9 23.8999 2.5 24.3999 2 24.3999Z" fill="#E8A15B"/>
<path d="M28 49.0999H2C1.5 49.0999 1 48.6999 1 48.0999V18.0999C1 15.8999 2.8 14.0999 5 14.0999H28.4C30.2 14.0999 31.9 13.0999 32.8 11.4999L34.8 7.9999C36 5.7999 38.4 4.3999 40.9 4.3999H49.8C52.5 4.3999 54.8 6.5999 54.8 9.3999V24.2999C54.8 24.7999 54.4 25.2999 53.8 25.2999C53.2 25.2999 52.8 24.8999 52.8 24.2999V9.2999C52.8 7.5999 51.4 6.2999 49.8 6.2999H40.9C39.1 6.2999 37.4 7.2999 36.5 8.8999L34.6 12.3999C33.3 14.5999 31 15.9999 28.4 15.9999H5C3.9 15.9999 3 16.8999 3 17.9999V47.1999H28C28.5 47.1999 29 47.5999 29 48.1999C29 48.7999 28.5 49.0999 28 49.0999Z" fill="#3F496A"/>
<path d="M17.6 22.0999H7C6.5 22.0999 6 21.6999 6 21.0999C6 20.4999 6.4 20.0999 7 20.0999H17.6C18.1 20.0999 18.6 20.4999 18.6 21.0999C18.6 21.6999 18.1 22.0999 17.6 22.0999Z" fill="#637EA8"/>
<path d="M17.6 26.0999H7C6.5 26.0999 6 25.6999 6 25.0999C6 24.4999 6.4 24.0999 7 24.0999H17.6C18.1 24.0999 18.6 24.4999 18.6 25.0999C18.6 25.6999 18.1 26.0999 17.6 26.0999Z" fill="#637EA8"/>
<path d="M44.7998 48.2C40.9998 48.2 37.7998 45.1 37.7998 41.2C37.7998 37.3 40.8998 34.2 44.7998 34.2C48.6998 34.2 51.7998 37.3 51.7998 41.2C51.7998 45.1 48.5998 48.2 44.7998 48.2ZM44.7998 36.2C41.9998 36.2 39.7998 38.5 39.7998 41.2C39.7998 43.9 42.0998 46.2 44.7998 46.2C47.4998 46.2 49.7998 43.9 49.7998 41.2C49.7998 38.5 47.5998 36.2 44.7998 36.2Z" fill="#637EA8"/>
<path d="M57.1 37.7H55.6C55.4 37 55.1 36.4 54.8 35.7999L56.1 34.5L56.7 33.9C57.1 33.5 57.1 32.9 56.7 32.5L56 31.9L53.8 29.7L53.2 29C52.8 28.6 52.2 28.6 51.8 29L51.2 29.6L49.8 31C49.2 30.7 48.6 30.4999 48 30.2999V28.6V27.7C48 27.1 47.6 26.7 47 26.7H46.1H42.1C41.5 26.7 41.1 27.1 41.1 27.7V28.6V30.5C40.5 30.7 40 30.9 39.5 31.2L38.4 30.1L37.8 29.5C37.4 29.1 36.8 29.1 36.4 29.5L35.8 30.1L33.6 32.2999L32.9 33C32.5 33.4 32.5 34 32.9 34.4L33.5 35L34.6 36.0999C34.3 36.5999 34.1 37.1 33.9 37.7H31.9H31C30.4 37.7 30 38.1 30 38.7V39.5999V42.7V43.5999C30 44.1999 30.4 44.5999 31 44.5999H32H33.9C34.1 45.1999 34.3 45.7 34.6 46.2L33.5 47.2999L32.9 48C32.5 48.4 32.5 49 32.9 49.4L33.5 50L35.7 52.2L36.3 52.7999C36.7 53.1999 37.3 53.1999 37.7 52.7999L39.3 51.2C39.9 51.5 40.4 51.7 41 52V54.5999C41 55.1999 41.4 55.5999 42 55.5999H43H47C47.6 55.5999 48 55.1999 48 54.5999V52.0999C48.7 51.8999 49.3 51.5999 49.9 51.2999L51.8 53.2C52.2 53.6 52.8 53.6 53.2 53.2L56.7 49.7C57.1 49.3 57.1 48.6999 56.7 48.2999L54.8 46.4C55.1 45.8 55.4 45.1 55.6 44.4H57H58C58.6 44.4 59 44 59 43.4V42.5V39.4V38.5C59 37.9 58.6 37.5 58 37.5H57.1V37.7ZM57.1 42.7H56.1H55C54.5 42.7 54.1 43 54 43.4C53.9 43.8 53.8 44.1999 53.6 44.5999C53.5 44.7999 53.5 44.9999 53.4 45.0999C53.2 45.4999 53 45.8 52.8 46.2C52.6 46.6 52.6 47.1 53 47.4L53.8 48.2L54.7 49.0999L52.5 51.2999L51.5 50.2999L50.7 49.5C50.4 49.2 49.9 49.0999 49.5 49.2999C49.1 49.5 48.8 49.7 48.4 49.9C48.2 50 48.1 49.9999 47.9 50.0999C47.5 50.1999 47.1 50.3 46.8 50.4C46.4 50.5 46 50.9 46 51.4V52.5V53.7H43V52.4V51.2999C43 50.9 42.7 50.5 42.3 50.2999C41.9 50.1999 41.5 50.1 41.1 49.9C41 49.9 40.9 49.8 40.8 49.7C40.4 49.5 40.1 49.2999 39.8 49.0999C39.4 48.8999 38.9 48.9 38.6 49.2L37.8 50L37 50.9L34.8 48.7L35.5 48L36.3 47.2C36.6 46.9 36.7 46.4 36.5 46C36.3 45.6 36.1 45.3 36 44.9C36 44.8 36 44.8 35.9 44.7C35.8 44.3 35.6 43.9 35.5 43.5C35.4 43.1 35 42.7999 34.5 42.7999H33.4H32V39.7H33.6H34.7C35.1 39.7 35.5 39.4 35.7 39C35.8 38.6 35.9 38.1999 36.1 37.7999C36.1 37.7999 36.1 37.7 36.2 37.7C36.4 37.3 36.5 36.9999 36.8 36.5999C37 36.1999 37 35.7 36.6 35.4L35.8 34.5999L35 33.7999L37.2 31.6L38 32.4L38.8 33.2C39.1 33.5 39.6 33.6 40 33.4C40.3 33.2 40.7 32.9999 41.1 32.7999C41.2 32.7999 41.2 32.7 41.3 32.7C41.7 32.5 42.1 32.3999 42.5 32.2999C42.9 32.1999 43.2 31.7999 43.2 31.2999V30.2V28.7999H46.3V30V31.1C46.3 31.6 46.6 31.9999 47.1 32.0999C47.5 32.1999 47.9 32.3 48.2 32.4C48.3 32.4 48.4 32.5 48.6 32.5C49 32.7 49.4 32.8 49.7 33C50.1 33.2 50.6 33.0999 50.9 32.7999L51.7 32L52.8 30.9L55 33.0999L54 34.0999L52.9 35C52.6 35.3 52.5 35.8 52.8 36.2C53 36.5 53.2 36.9 53.4 37.2C53.5 37.4 53.5 37.5 53.6 37.7C53.8 38.1 53.9 38.5 54 38.9C54.1 39.3 54.5 39.5999 55 39.5999H56.1H57.2V42.7H57.1Z" fill="#E8A15B"/>
</g>
<defs>
<clipPath id="clip0_56_10">
<rect width="60" height="60" fill="white"/>
</clipPath>
</defs>
</svg>
