<svg width="60" height="60" viewBox="0 0 60 60" fill="none" xmlns="http://www.w3.org/2000/svg">
<g clip-path="url(#clip0_56_1305)">
<path d="M27.2999 7.69995H25.3999V12H27.2999V7.69995Z" fill="#3F496A"/>
<path d="M34.2999 7.69995H32.3999V12H34.2999V7.69995Z" fill="#3F496A"/>
<path d="M38.7998 8.69995H20.7998C20.2998 8.69995 19.7998 8.29995 19.7998 7.69995V1.69995C19.7998 1.19995 20.1998 0.699951 20.7998 0.699951H38.7998C39.2998 0.699951 39.7998 1.09995 39.7998 1.69995V7.69995C39.7998 8.19995 39.2998 8.69995 38.7998 8.69995ZM21.7998 6.79995H37.8998V2.69995H21.7998V6.79995Z" fill="#3F496A"/>
<path d="M15.7 13.1999L9.19998 18.5999C8.79998 18.8999 8.19998 18.8999 7.89998 18.4999L5.99998 16.3999C5.69998 15.9999 5.69998 15.3999 6.09998 15.0999L12.6 9.69993C13 9.39993 13.6 9.39993 13.9 9.79993L15.7 11.9999C16.2 12.2999 16.1 12.8999 15.7 13.1999ZM8.69998 16.5999L13.7 12.3999L13.1 11.6999L8.09998 15.8999L8.69998 16.5999Z" fill="#637EA8"/>
<path d="M13.5 19.5997C13.1 19.8997 12.5 19.8997 12.2 19.4997L9.99998 16.7997C9.69998 16.3997 9.69998 15.7997 10.1 15.4997C10.5 15.1997 11.1 15.1997 11.4 15.5997L13.7 18.2997C14 18.6997 13.9 19.2997 13.5 19.5997Z" fill="#637EA8"/>
<path d="M15.8002 17.6998C15.4002 17.9998 14.8002 17.9998 14.5002 17.5998L12.2002 14.8998C11.9002 14.4998 11.9002 13.8998 12.3002 13.5998C12.7002 13.2998 13.3002 13.2998 13.6002 13.6998L15.9002 16.3998C16.3002 16.6998 16.2002 17.2998 15.8002 17.6998Z" fill="#637EA8"/>
<path d="M44.2 11.9001L46 9.7001C46.3 9.3001 46.9 9.2001 47.3 9.6001L53.8 15.0001C54.2 15.3001 54.3 15.9001 53.9 16.3001L52.1 18.5001C51.8 18.9001 51.2 19.0001 50.8 18.6001L44.3 13.2001C43.9 12.9001 43.8 12.3001 44.2 11.9001ZM51.9 15.9001L46.9 11.7001L46.3 12.4001L51.3 16.6001L51.9 15.9001Z" fill="#637EA8"/>
<path d="M46.5001 19.6C46.9001 19.9 47.5001 19.9 47.8001 19.5L50.1001 16.8C50.4001 16.4 50.4001 15.8 50.0001 15.5C49.6001 15.2 49.0001 15.2 48.7001 15.6L46.4001 18.3C46.0001 18.7 46.1001 19.3 46.5001 19.6Z" fill="#637EA8"/>
<path d="M44.2001 17.7001C44.6001 18.0001 45.2001 18.0001 45.5001 17.6001L47.8001 14.9001C48.1001 14.5001 48.1001 13.9001 47.7001 13.6001C47.3001 13.3001 46.7001 13.3001 46.4001 13.7001L44.0001 16.3001C43.7001 16.7001 43.8001 17.3001 44.2001 17.7001Z" fill="#637EA8"/>
<path d="M30.1001 59.2C16.9001 59.2 6.1001 48.5 6.1001 35.2C6.1001 21.9 16.8001 11.2 30.1001 11.2C43.4001 11.2 54.1001 21.9 54.1001 35.2C54.1001 48.5 43.3001 59.2 30.1001 59.2ZM30.1001 13.2C17.9001 13.2 8.1001 23.1 8.1001 35.2C8.1001 47.2999 18.0001 57.2 30.1001 57.2C42.2001 57.2 52.1001 47.2999 52.1001 35.2C52.1001 23.1 42.3001 13.2 30.1001 13.2Z" fill="#3F496A"/>
<path d="M30.1001 52.9001C29.6001 52.9001 29.1001 52.5001 29.1001 51.9001V50.1001C29.1001 49.6001 29.5001 49.1001 30.1001 49.1001C30.7001 49.1001 31.1001 49.5001 31.1001 50.1001V51.9001C31.1001 52.4001 30.6001 52.9001 30.1001 52.9001Z" fill="#E8A15B"/>
<path d="M30.1001 20.9001C29.6001 20.9001 29.1001 20.5001 29.1001 19.9001V18.1001C29.1001 17.6001 29.5001 17.1001 30.1001 17.1001C30.7001 17.1001 31.1001 17.5001 31.1001 18.1001V19.9001C31.1001 20.4001 30.6001 20.9001 30.1001 20.9001Z" fill="#E8A15B"/>
<path d="M15.0002 36H13.2002C12.7002 36 12.2002 35.6 12.2002 35C12.2002 34.4 12.6002 34 13.2002 34H15.0002C15.5002 34 16.0002 34.4 16.0002 35C16.0002 35.6 15.5002 36 15.0002 36Z" fill="#E8A15B"/>
<path d="M47.0002 36H45.2002C44.7002 36 44.2002 35.6 44.2002 35C44.2002 34.4 44.6002 34 45.2002 34H47.0002C47.5002 34 48.0002 34.4 48.0002 35C48.0002 35.6 47.5002 36 47.0002 36Z" fill="#E8A15B"/>
<path d="M18.2002 47.9002C18.0002 47.9002 17.7002 47.8002 17.5002 47.6002C17.1002 47.2002 17.1002 46.6002 17.5002 46.3002L18.8002 45.0002C19.2002 44.6002 19.8002 44.6002 20.1002 45.0002C20.4002 45.4002 20.5002 46.0002 20.1002 46.3002L18.8002 47.6002C18.7002 47.8002 18.4002 47.9002 18.2002 47.9002Z" fill="#E8A15B"/>
<path d="M40.8003 25.3001C40.6003 25.3001 40.3003 25.2001 40.1003 25.0001C39.7003 24.6001 39.7003 24.0001 40.1003 23.7001L41.4003 22.4001C41.8003 22.0001 42.4003 22.0001 42.7003 22.4001C43.0003 22.8001 43.1003 23.4001 42.7003 23.7001L41.5003 25.0001C41.3003 25.2001 41.0003 25.3001 40.8003 25.3001Z" fill="#E8A15B"/>
<path d="M19.4001 25.3001C19.2001 25.3001 18.9001 25.2001 18.7001 25.0001L17.4001 23.7001C17.0001 23.3001 17.0001 22.7001 17.4001 22.4001C17.8001 22.1001 18.4001 22.0001 18.7001 22.4001L20.0001 23.7001C20.4001 24.1001 20.4001 24.7001 20.0001 25.0001C19.9001 25.2001 19.7001 25.3001 19.4001 25.3001Z" fill="#E8A15B"/>
<path d="M42.1003 47.9002C41.9003 47.9002 41.6003 47.8002 41.4003 47.6002L40.1003 46.3002C39.7003 45.9002 39.7003 45.3002 40.1003 45.0002C40.5003 44.7002 41.1003 44.6002 41.4003 45.0002L42.7003 46.3002C43.1003 46.7002 43.1003 47.3002 42.7003 47.6002C42.5003 47.8002 42.3003 47.9002 42.1003 47.9002Z" fill="#E8A15B"/>
<path d="M30.1 53.8001C19.9 53.8001 11.5 45.5001 11.5 35.2001C11.5 25.0001 19.8 16.6001 30.1 16.6001C40.4 16.6001 48.7 24.9001 48.7 35.2001C48.7 45.5001 40.3 53.8001 30.1 53.8001ZM30.1 18.6001C20.9 18.6001 13.4 26.1001 13.4 35.3001C13.4 44.5001 20.9 52.0001 30.1 52.0001C39.3 52.0001 46.8 44.5001 46.8 35.3001C46.8 26.1001 39.3 18.6001 30.1 18.6001Z" fill="#637EA8"/>
<path d="M37.6 41.3L32.8 36.5C32.5 37.1 32.1 37.6 31.5 37.9L36.3 42.7C36.5 42.9 36.7 43 37 43C37.3 43 37.5 42.9 37.7 42.7C37.9 42.3 37.9 41.7 37.6 41.3Z" fill="#E8A15B"/>
<path d="M31 32.5V25.7C31 25.2 30.6 24.7 30 24.7C29.4 24.7 29 25.1 29 25.7V32.5C29.3 32.4 29.6 32.2999 30 32.2999C30.4 32.2999 30.7 32.4 31 32.5Z" fill="#E8A15B"/>
<path d="M31.0001 32.5C30.7001 32.4 30.4001 32.3 30.1001 32.3C29.7001 32.3 29.4001 32.4 29.1001 32.5C28.0001 32.9 27.1001 34 27.1001 35.3C27.1001 36.9 28.4001 38.3 30.1001 38.3C30.6001 38.3 31.0001 38.2 31.4001 38C32.0001 37.7 32.4001 37.2 32.7001 36.6C32.9001 36.2 33.0001 35.8 33.0001 35.3C33.1001 34 32.2001 32.9 31.0001 32.5ZM31.2001 35.3C31.2001 35.9 30.7001 36.3 30.2001 36.3C30.1001 36.3 30.0001 36.3001 29.9001 36.2001C29.5001 36.1001 29.1001 35.7001 29.1001 35.2001C29.1001 35.1001 29.1001 35.0001 29.2001 34.9001C29.3001 34.4001 29.7001 34.1 30.2001 34.1C30.6001 34.1 30.9001 34.3 31.1001 34.6C31.1001 34.9 31.2001 35.1 31.2001 35.3Z" fill="#E8A15B"/>
</g>
<defs>
<clipPath id="clip0_56_1305">
<rect width="60" height="60" fill="white"/>
</clipPath>
</defs>
</svg>
