<svg width="60" height="60" viewBox="0 0 60 60" fill="none" xmlns="http://www.w3.org/2000/svg">
<path d="M49.2001 57.5001H22.8001C19.4001 57.5001 16.6001 54.7001 16.6001 51.3001V17.8001C16.6001 14.4001 19.4001 11.6001 22.8001 11.6001H49.2001C52.6001 11.6001 55.4001 14.4001 55.4001 17.8001V51.2001C55.5001 54.7001 52.7001 57.5001 49.2001 57.5001ZM22.8001 13.5001C20.4001 13.5001 18.5001 15.4001 18.5001 17.8001V51.2001C18.5001 53.6001 20.4001 55.5001 22.8001 55.5001H49.2001C51.6001 55.5001 53.5001 53.6001 53.5001 51.2001V17.8001C53.5001 15.4001 51.6001 13.5001 49.2001 13.5001H22.8001Z" fill="#E8A15B"/>
<path d="M45.5 22.5H26.5C26 22.5 25.5 22.1 25.5 21.5C25.5 20.9 25.9 20.5 26.5 20.5H45.5C46 20.5 46.5 20.9 46.5 21.5C46.5 22.1 46 22.5 45.5 22.5Z" fill="#637EA8"/>
<path d="M45.5 31.5H26.5C26 31.5 25.5 31.1 25.5 30.5C25.5 29.9 25.9 29.5 26.5 29.5H45.5C46 29.5 46.5 29.9 46.5 30.5C46.5 31.1 46 31.5 45.5 31.5Z" fill="#637EA8"/>
<path d="M45.5 40.5H26.5C26 40.5 25.5 40.1 25.5 39.5C25.5 38.9 25.9 38.5 26.5 38.5H45.5C46 38.5 46.5 38.9 46.5 39.5C46.5 40.1 46 40.5 45.5 40.5Z" fill="#637EA8"/>
<path d="M45.5 49.5H26.5C26 49.5 25.5 49.1 25.5 48.5C25.5 47.9 25.9 47.5 26.5 47.5H45.5C46 47.5 46.5 47.9 46.5 48.5C46.5 49.1 46 49.5 45.5 49.5Z" fill="#637EA8"/>
<path d="M10.8001 46.5001C8.4001 46.5001 6.5001 44.6001 6.5001 42.2001V8.8001C6.5001 6.4001 8.4001 4.5001 10.8001 4.5001H37.2001C39.2001 4.5001 41.0001 5.9001 41.4001 7.8001C41.5001 8.2001 41.9001 8.6001 42.3001 8.6001C42.9001 8.6001 43.4001 8.1001 43.2001 7.5001C42.6001 4.7001 40.1001 2.6001 37.1001 2.6001H10.8001C7.4001 2.6001 4.6001 5.4001 4.6001 8.8001V42.2001C4.6001 45.6001 7.4001 48.4001 10.8001 48.4001H13.1001C13.6001 48.4001 14.1001 48.0001 14.1001 47.4001C14.1001 46.9001 13.7001 46.4001 13.1001 46.4001H10.8001V46.5001Z" fill="#3F496A"/>
</svg>
