<svg version="1.1" xmlns="http://www.w3.org/2000/svg" xmlns:xlink="http://www.w3.org/1999/xlink" x="0px" y="0px"
	 width="274.483px" height="58.18px" viewBox="0 0 274.483 58.18" style="enable-background:new 0 0 274.483 58.18;"
	 xml:space="preserve">
<path style="fill: #000000" d="M99.013,41.943h15.48l6.953-20.619h-15.481L99.013,41.943z M119.806,22.494l-6.131,18.221h-13.028l6.132-18.221H119.806z
	 M243.474,32.245l3.681-10.921h-15.484l-6.891,20.619c13.201,0,26.403,0.115,39.664,0.115l3.215-9.814H243.474z M263.623,40.714
	h-37.266l6.136-18.221h13.085l-3.742,10.922h24.244L263.623,40.714z M88.263,21.324l-3.677,10.921h-8.759l3.736-10.921h-15.48
	l-5.379,15.95c-0.231,0.697-0.231,1.343-0.172,2.103c0.408,1.688,1.695,2.449,3.327,2.566h30.494
	c2.045-0.171,3.799-1.169,5.026-2.751c0.464-0.634,0.76-1.221,0.991-1.918l5.373-15.95H88.263z M97.142,37.388
	c-0.639,1.871-2.683,3.326-4.554,3.326H62.153c-1.876,0-2.86-1.522-2.278-3.326l5.026-14.894h13.021l-3.674,10.922h11.156
	l3.678-10.922h13.028l-3.678,10.922L97.142,37.388z M66.419,14.37l-1.638,4.85h39.669l1.633-4.908
	c0.404-1.634,0.292-3.035-1.17-4.028c-0.702-0.353-1.285-0.469-2.044-0.53H72.083L84.12,0H57.541L35.104,19.22L41.59,0H19.627
	L0,58.126h22.022l7.887-23.486l8.935,23.54h26.873L51.818,26.232L66.419,14.37z M72.202,10.928h30.377
	c1.926,0,2.975,1.459,2.335,3.272l-1.285,3.852h-37.21l1.287-3.852 M18.224,52.457H7.593L23.426,5.664h10.574L18.224,52.457z
	 M56.197,52.517h-12.62l-9.754-25.821L58.413,5.664h11.041c-8.296,6.722-16.646,13.495-24.887,20.159L56.197,52.517z M189.91,14.312
	c0.232-0.934,0.289-1.694,0-2.567c-0.59-1.402-1.754-1.931-3.215-1.992h-30.432c-2.865,0.177-4.964,1.873-6.02,4.446
	c-0.409,1.106-0.756,2.275-1.168,3.44c-0.119,0.529-0.347,1.057-0.467,1.58h39.669L189.91,14.312z M150.185,18.052l1.289-3.852
	c0.639-1.813,2.683-3.272,4.549-3.272H186.4c1.929,0,2.92,1.459,2.339,3.272l-1.286,3.852H150.185z M189.791,21.324l-6.951,20.619
	h15.476l3.858-11.743h8.702l-3.795,11.743h15.418l6.953-20.619H189.791z M221.683,40.714h-13.026l3.856-11.743h-11.16l-3.85,11.743
	h-13.026l6.131-18.221h37.21l-1.283,3.971L221.683,40.714z M182.726,21.324h-34.821l-1.4,4.203c-0.466,1.636-0.35,3.273,1.223,4.206
	c0.528,0.288,0.998,0.409,1.58,0.466h19.808l-0.706,2.045h-24.18l-1.696,5.03c-0.238,0.927-0.295,1.63-0.059,2.559
	c0.581,1.405,1.754,1.993,3.212,2.109h30.492c3.215-0.171,4.964-1.46,6.014-4.669l4.091-12.219
	C187.164,21.787,184.938,21.324,182.726,21.324z M185.117,24.945l-2.861,8.47l-1.342,3.973c-0.592,1.805-2.627,3.326-4.558,3.326
	H145.98c-1.869,0-2.924-1.522-2.279-3.326l1.343-3.973h24.184l1.524-4.444h-21.149c-1.697,0-2.573-1.516-1.927-3.328l1.052-3.149
	h33.644C184.707,22.494,185.702,23.306,185.117,24.945z M251.066,9.753h-15.479l-3.155,9.467h15.421L251.066,9.753z M234.01,18.052
	l2.399-7.124h13.023l-2.392,7.124H234.01z M148.025,14.312c0.232-0.934,0.293-1.634,0-2.567c-0.649-1.402-1.755-1.868-3.213-1.992
	h-30.495c-1.109,0.061-2.161,0.358-3.152,0.943c-1.052,0.581-1.754,1.401-2.337,2.389c-0.88,1.933-1.463,4.087-2.16,6.134h39.718
	L148.025,14.312z M108.299,18.052l1.293-3.852c0.752-2.169,2.622-3.272,4.555-3.272h30.369c1.87,0,2.923,1.459,2.342,3.272
	l-1.286,3.852H108.299z M130.209,21.324l-6.958,20.619h15.481l6.894-20.619H130.209z M137.918,40.714h-13.085l6.193-18.221h13.023
	L137.918,40.714z M231.845,14.312c0.118-0.642,0.176-1.165,0.176-1.81c-0.292-1.806-1.633-2.625-3.384-2.749h-30.494
	c-2.803,0.177-4.963,1.873-5.959,4.446l-1.696,5.021h39.662L231.845,14.312z M192.127,18.052l1.289-3.852
	c0.581-1.813,2.625-3.272,4.493-3.272h30.434c1.873,0,2.923,1.459,2.283,3.272l-1.291,3.852H192.127z"/>
<path style="fill: #000000" d="M273.826,10.804c-0.441-0.785-1.056-1.4-1.845-1.824c-0.781-0.421-1.591-0.638-2.419-0.638
	c-0.824,0-1.634,0.216-2.419,0.638c-0.785,0.424-1.4,1.035-1.841,1.824c-0.441,0.785-0.666,1.613-0.666,2.469
	c0,0.849,0.221,1.667,0.653,2.444c0.432,0.785,1.047,1.4,1.828,1.833c0.777,0.428,1.595,0.644,2.444,0.644
	c0.857,0,1.672-0.217,2.452-0.644c0.777-0.433,1.388-1.048,1.821-1.833c0.424-0.777,0.648-1.595,0.648-2.444
	C274.483,12.417,274.259,11.589,273.826,10.804z M272.88,15.175c-0.335,0.607-0.806,1.077-1.413,1.413
	c-0.611,0.344-1.243,0.509-1.905,0.509c-0.658,0-1.29-0.165-1.901-0.505c-0.607-0.34-1.073-0.806-1.417-1.417
	c-0.339-0.607-0.505-1.239-0.505-1.901c0-0.666,0.17-1.303,0.514-1.922c0.348-0.611,0.823-1.081,1.429-1.413
	c0.611-0.331,1.239-0.496,1.88-0.496c0.64,0,1.264,0.165,1.88,0.496c0.611,0.332,1.086,0.802,1.43,1.413
	c0.339,0.619,0.513,1.256,0.513,1.922C273.385,13.935,273.215,14.567,272.88,15.175z M270.509,13.774
	c-0.032-0.029-0.066-0.059-0.102-0.086c0.287-0.083,0.536-0.227,0.734-0.435c0.297-0.306,0.454-0.679,0.454-1.091
	c0-0.293-0.098-0.578-0.267-0.836c-0.183-0.263-0.429-0.454-0.725-0.556c-0.306-0.106-0.752-0.153-1.363-0.153h-1.921v5.448h1.132
	v-2.185l0.336,0.004l0.012-0.105v0.101c0.263,0,0.441,0.056,0.556,0.145c0.182,0.127,0.474,0.522,0.827,1.149l0.458,0.81
	l0.042,0.081h1.379l-0.776-1.243C270.984,14.343,270.725,13.995,270.509,13.774z M269.308,12.871h-0.857v-1.243h0.794
	c0.399-0.004,0.674,0.03,0.78,0.077c0.132,0.051,0.216,0.114,0.284,0.212c0.072,0.097,0.102,0.194,0.102,0.322
	c-0.004,0.199-0.068,0.331-0.208,0.45C270.085,12.79,269.775,12.871,269.308,12.871z"/>
<path style="fill: #000000" d="M186.343,48.721h-16.765l-0.773,1.814h16.76L186.343,48.721z M167.419,49.243c-0.704-0.351-1.986-0.522-3.915-0.522h-13.435
	l-0.78,1.814h18.759C168.17,49.952,167.983,49.505,167.419,49.243z M122.321,48.721h-8.646l0.103,1.814h8.229L122.321,48.721z
	 M148.256,48.721h-13.375l-0.781,1.814h13.374L148.256,48.721z M133.94,48.721h-8.637l-1.246,1.814h8.23L133.94,48.721z
	 M247.506,48.721h-7.597l-0.777,1.814h7.593L247.506,48.721z M215.261,51.644l0.175-0.418h-8.472l-0.116,0.418H215.261z
	 M195.812,48.721h-8.246l-0.773,1.814h8.238L195.812,48.721z M111.396,49.189c-0.639-0.351-1.925-0.467-3.798-0.467H94.048
	l-0.779,1.814h18.755C112.221,49.923,112.036,49.456,111.396,49.189z M236.696,48.721h-8.18l-0.776,1.814h9.683L236.696,48.721z
	 M226.536,48.721H218.3l-0.779,1.814h8.236L226.536,48.721z M215.783,50.414c0.234-0.583,0-1.053-0.756-1.343
	c-0.063,0-0.12,0-0.178-0.06c-0.764-0.232-1.928-0.351-3.505-0.351h-8.523c-1.698,0-3.043,0.119-4.033,0.411
	c-1.053,0.289-1.639,0.76-1.928,1.343l-0.04,0.121h18.905L215.783,50.414z M194.753,51.226h-8.291l-2.865,6.9h8.238l2.687-6.311
	L194.753,51.226z M246.391,51.226h-7.531l-0.588,1.35l-0.524-1.35h-10.341l-2.393,5.73l-0.528,1.17h7.591l1.873-4.439l1.749,4.439
	h7.774l2.745-6.423L246.391,51.226z M212.335,53.099l-1.924-0.35l-4.206-0.874c-0.641-0.119-0.991-0.231-1.165-0.289
	c-0.116-0.119-0.116-0.233-0.116-0.359h-8.418l-0.058,0.179c-0.174,0.469-0.111,0.875,0.235,1.112
	c0.351,0.292,1.111,0.582,2.337,0.819l5.316,0.987c0.588,0.123,0.936,0.238,1.055,0.356c0.116,0.112,0.059,0.352-0.062,0.643
	c-0.115,0.232-0.231,0.408-0.471,0.522c-0.23,0.117-0.522,0.178-0.87,0.178c-0.35,0-0.591-0.061-0.703-0.118
	c-0.118-0.119-0.118-0.291,0-0.523l0.233-0.647h-8.468l-0.526,1.289l-0.173,0.411c-0.181,0.345-0.119,0.699,0.173,0.933
	c0.117,0.119,0.348,0.29,0.579,0.351c0.764,0.291,1.991,0.462,3.687,0.462h8.527c1.225,0,2.217-0.054,3.096-0.232
	c0.351-0.06,0.698-0.171,0.991-0.231c0.991-0.351,1.636-0.875,1.933-1.522l0.465-1.052c0.229-0.583,0.229-1.051,0-1.343
	C213.623,53.508,213.094,53.272,212.335,53.099z M68.639,58.126h8.527l1.346-2.05h2.394l-0.411,2.05h8.586l0.177-6.9h-7.361
	l-0.471,2.747h-1.75l2.043-2.805l0.461-0.632h7.084l0.052-1.814H76.348L68.639,58.126z M266.837,49.132
	c-0.7-0.352-1.986-0.471-3.852-0.471h-8.645c-1.754,0-3.1,0.119-4.034,0.471c-0.883,0.277-1.489,0.761-1.804,1.403h9.271h0.07
	c0.353,0,0.597,0.06,0.774,0.177c0.259,0.324-0.068,0.873-0.068,0.873h8.411l0.403-0.941
	C267.659,49.944,267.478,49.425,266.837,49.132z M256.088,54.792h1.114l-0.232,0.59c-0.118,0.232-0.234,0.404-0.465,0.523
	c-0.179,0.058-0.474,0.118-0.88,0.118c-0.35,0-0.587-0.061-0.761-0.118c-0.116-0.119-0.116-0.291,0-0.523l1.641-3.916
	c0.053-0.113,0.053-0.179,0.112-0.24h-8.413l-1.986,4.679c0,0,0,0,0,0.058c-0.24,0.585-0.24,1.052,0,1.35
	c0.115,0.173,0.232,0.286,0.408,0.345c0.583,0.352,1.812,0.523,3.679,0.523h4.501c1.048,0,1.983-0.054,2.627-0.112
	c0.177,0,0.293-0.059,0.466-0.059c0.701-0.12,1.23-0.291,1.636-0.59l0.411,0.707h4.266l2.275-5.43h-9.518L256.088,54.792z
	 M225.477,51.226h-8.286l-2.341,5.553l-0.582,1.347h8.294l2.453-5.73L225.477,51.226z M103.22,51.525l-1.573,3.744
	c-0.119,0.286-0.298,0.462-0.529,0.517c-0.177,0.119-0.527,0.177-0.994,0.177h-0.874l1.986-4.736h-8.295l-2.924,6.9h13.556
	c1.983,0,3.446-0.178,4.324-0.528c0.933-0.352,1.576-0.934,1.926-1.753l1.925-4.619h-8.467
	C103.279,51.353,103.279,51.405,103.22,51.525z M169.872,58.126h8.179l2.92-6.9h-8.238L169.872,58.126z M131.609,51.226h-8.061
	l-2.28,3.454l0.583-3.454h-8.059l0.411,6.9h11.212l5.843-6.483L131.609,51.226z M159.298,51.525
	c-0.116,0.232-0.29,0.411-0.528,0.522c-0.171,0.06-0.522,0.125-0.934,0.125h-0.934l0.414-0.946h-8.296l-2.514,5.961l-0.408,0.939
	h8.294l1.631-3.916h0.935c0.412,0,0.708,0.054,0.878,0.174c0.116,0.122,0.116,0.295,0,0.527l-1.342,3.215h8.41l0.996-2.452
	c0.351-0.763,0.351-1.41,0-1.813c-0.35-0.405-1.169-0.642-2.341-0.763c1.289-0.174,2.279-0.403,2.923-0.702
	c0.584-0.29,0.997-0.64,1.286-1.17h-8.408C159.359,51.353,159.359,51.405,159.298,51.525z M145.98,54.033l0.525-1.224l0.41-0.934
	h-5.141l0.293-0.648h-8.294l-2.515,6.02l-0.348,0.88h13.32l0.934-2.164h-5.085l0.819-1.93H145.98z"/>
</svg>