<svg width="375" height="75" viewBox="0 0 375 75" fill="none" xmlns="http://www.w3.org/2000/svg">
    <path d="M16.9187 37.5L8.49998 45.9219L0 37.5L8.49683 29.0032L16.9187 37.5ZM37.5 16.9187L52 31.4188L60.5 22.925L37.5 0L14.5 23L23 31.4938L37.5 16.9187ZM66.5032 29.0032L58.0812 37.5L66.578 45.9968L75.0718 37.5L66.5032 29.0032ZM37.5 58.0813L23 43.5062L14.5 52.0031L37.5 75L60.5 52L52 43.5062L37.5 58.0813ZM37.5 45.925L45.9968 37.425L37.5 29.0063L29.0032 37.5L37.5 45.9219V45.925ZM126.856 46.8V46.6562C126.856 41.1625 123.925 38.3781 119.166 36.5469C122.094 34.9375 124.584 32.2969 124.584 27.6844V27.5406C124.584 21.0938 119.384 16.9187 111.034 16.9187H91.9187V58.0094H111.475C120.775 58.0813 126.856 54.2719 126.856 46.8031L126.856 46.8ZM115.575 29.225C115.575 32.3 113.084 33.5438 109.056 33.5438H100.709V24.8281H109.644C113.453 24.8281 115.575 26.3657 115.575 29.0781L115.575 29.225ZM117.847 45.6313C117.847 48.7063 115.431 50.1 111.472 50.1H100.709V41.0875H111.181C115.797 41.0875 117.847 42.775 117.847 45.5563V45.6313ZM145.825 58.0813V16.9187H136.744V58.0094H145.825L145.825 58.0813ZM194.459 58.0813V16.9187H185.522V42.2625L166.259 16.9187H157.909V58.0094H166.847V31.9344L186.769 58.0813H194.456H194.459ZM244.553 58.0813L226.906 16.7H218.559L200.906 58.0813H210.209L213.944 48.8531H231.303L235.037 58.0813H244.559H244.553ZM228.075 40.8688H217.162L222.656 27.5405L228.075 40.8688ZM287.697 58.0813V16.9187H278.759V42.2625L259.497 16.9187H251.147V58.0094H260.084V31.9344L280.006 58.0813H287.694H287.697ZM334.35 51.4156L328.566 45.6313C325.341 48.5593 322.484 50.4625 317.725 50.4625C310.694 50.4625 305.788 44.6031 305.788 37.5719V37.3531C305.788 30.3219 310.766 24.5375 317.725 24.5375C321.825 24.5375 325.05 26.2937 328.272 29.15L334.056 22.4844C330.25 18.75 325.634 16.1125 317.872 16.1125C305.275 16.1125 296.413 25.7063 296.413 37.3531V37.5C296.413 49.2906 305.419 58.6656 317.506 58.6656C325.416 58.7406 330.103 55.9562 334.35 51.4156ZM372.95 58.0813V50.025H350.609V41.3812H370.019V33.325H350.609V24.975H372.656V16.9187H341.675V58.0094H372.95V58.0813Z" fill="#F0B90B"/>
</svg>
