<svg width="265" height="85" viewBox="0 0 265 85" xmlns="http://www.w3.org/2000/svg">
    <path d="M32.3231 42.3841L31.6356 41.6803C31.1079 41.1524 30.2125 41.5203 30.2125 42.2721V52.2382C30.2125 52.7021 30.5963 53.07 31.044 53.07H41.0053C41.7408 53.07 42.1246 52.1742 41.5969 51.6463C41.2771 51.3263 41.2771 50.7984 41.5969 50.4625L52.1819 39.8406C52.5017 39.5207 52.5017 38.9928 52.1819 38.6569L51.2225 37.6971C50.6949 37.1692 51.0786 36.2733 51.8141 36.2733H61.7595C62.2232 36.2733 62.5909 36.6413 62.5909 37.1052V47.0712C62.5909 47.807 61.6955 48.191 61.1679 47.6631L60.4963 46.9912C60.1605 46.6553 59.6489 46.6553 59.3131 46.9912L41.453 64.8436C41.1332 65.1636 40.6056 65.1636 40.2698 64.8436L18.4284 42.976C18.1086 42.6561 18.0926 42.1282 18.4284 41.7922L48.6642 11.5423C48.984 11.2224 48.984 10.6785 48.6642 10.3585L41.549 3.23995C41.2292 2.92002 40.7015 2.92002 40.3657 3.23995L1.23984 42.4161C0.920053 42.736 0.920053 43.2799 1.23984 43.5999L40.3817 82.76C40.7015 83.08 41.2452 83.08 41.5649 82.76L80.7068 43.5999C81.0266 43.2799 81.0266 42.752 80.7068 42.4161L57.6822 19.3807C57.3624 19.0608 56.8348 19.0608 56.499 19.3807L33.5063 42.3841C33.1865 42.7041 32.6589 42.7041 32.3231 42.3841ZM213.003 52.2861C211.995 52.2861 211.116 52.6541 210.396 53.3739C209.677 54.1098 209.309 54.9576 209.309 55.9494C209.309 57.4691 210.077 58.6529 211.612 59.4847C213.29 59.9486 214.634 59.6447 215.641 58.6049C216.376 57.869 216.728 56.9892 216.728 55.9654C216.728 54.9256 216.36 54.0618 215.641 53.3579C214.905 52.6541 214.042 52.2861 213.003 52.2861ZM153.522 24.1318H150.756C149.557 24.1318 148.598 25.0916 148.598 26.2913V27.827C145.656 24.7716 142.346 23.2519 138.62 23.2519C134.335 23.2519 130.753 24.8516 127.907 28.035C125.045 31.2184 123.622 35.2016 123.622 39.9686C123.622 44.8316 125.045 48.8788 127.891 52.1422C130.769 55.3255 134.415 56.9252 138.812 56.9252C142.298 56.9252 145.56 55.5015 148.582 52.6701V55.7095C148.582 57.1812 149.781 58.3969 151.252 58.3969H155.969V26.6113C155.985 25.2516 154.881 24.1318 153.522 24.1318ZM146.551 47.5191C144.872 49.3907 142.666 50.3345 139.947 50.3345C137.389 50.3345 135.278 49.3587 133.6 47.4231C131.969 45.5035 131.137 43.008 131.137 39.9686C131.137 37.1212 131.985 34.7057 133.664 32.77C135.358 30.8504 137.485 29.8906 140.011 29.8906C142.698 29.8906 144.872 30.8344 146.551 32.7381C148.23 34.6737 149.077 37.1372 149.077 40.1286C149.061 43.12 148.214 45.5835 146.551 47.5191ZM123.622 29.5067V26.3553C123.622 25.1236 122.631 24.1318 121.4 24.1318H118.49C117.258 24.1318 116.267 25.1236 116.267 26.3553V27.7311C113.613 24.7397 110.271 23.236 106.258 23.236C101.685 23.236 97.9913 24.9636 95.2092 28.4029C92.6189 31.6503 91.3238 35.6015 91.3238 40.2406C91.3238 45.0236 92.7149 49.0068 95.513 52.1742C98.2791 55.3255 101.829 56.8772 106.178 56.8772C109.983 56.8772 113.357 55.3895 116.283 52.3981V56.8452C116.283 63.4519 113.597 66.7632 108.209 66.7632C105.282 66.7632 103.06 65.7714 101.541 63.7878C101.157 63.2919 100.821 62.6521 100.566 61.9002C100.198 60.8444 99.2065 60.1566 98.1032 60.1566H95.3211C93.914 60.1566 92.8747 61.5003 93.2265 62.86C93.994 65.7555 95.465 68.107 97.6555 69.9306C100.406 72.2182 103.907 73.3699 108.145 73.3699C113.181 73.3699 117.131 71.7063 120.009 68.3949C121.528 66.6673 122.551 64.6037 123.079 62.2042C123.254 61.3403 123.398 60.3165 123.494 59.1808C123.59 58.045 123.638 56.7173 123.638 55.2136V50.5905C121.576 47.6151 120.536 44.0798 120.536 39.9366C120.52 35.9054 121.56 32.4341 123.622 29.5067ZM114.3 47.2631C112.67 49.3107 110.447 50.3345 107.633 50.3345C104.819 50.3345 102.612 49.3267 101.029 47.2951C99.5743 45.4395 98.8388 43.072 98.8388 40.1606C98.8388 37.2172 99.5743 34.8176 101.029 32.962C102.644 30.8984 104.851 29.8586 107.633 29.8586C110.255 29.8586 112.398 30.8024 114.077 32.7061C115.739 34.5617 116.571 37.0412 116.571 40.1286C116.555 43.024 115.803 45.4075 114.3 47.2631ZM184.781 24.1638V24.1318H169.528V14.7896C169.528 13.5899 168.552 12.6141 167.353 12.6141H164.379C163.164 12.6141 162.173 13.6059 162.173 14.8216V24.1318H159.039V30.9944H162.173V58.3649H166.362C168.105 58.3649 169.512 56.9572 169.528 55.2136V55.1976V31.0104H177.075C177.666 29.8746 178.402 28.8188 179.249 27.859C180.8 26.1474 182.655 24.9156 184.781 24.1638ZM222.324 12.6141C221.013 12.6141 219.894 13.078 218.967 14.0218C218.039 14.9656 217.56 16.0694 217.56 17.3651C217.56 18.7249 218.023 19.8606 218.967 20.8044C219.91 21.7482 221.045 22.2122 222.372 22.2122C223.699 22.2122 224.819 21.7482 225.73 20.8044C226.674 19.8606 227.137 18.7409 227.137 17.3971C227.137 16.0694 226.674 14.9496 225.73 14.0378C224.787 13.078 223.652 12.6141 222.324 12.6141ZM223.811 27.7471H221.141C219.766 27.7471 218.663 28.8508 218.663 30.2266V53.5979C219.222 54.2537 219.494 55.0376 219.494 55.9334C219.494 56.8292 219.222 57.6291 218.663 58.2849V59.5967H223.396C224.851 59.5967 226.018 58.4129 226.018 56.9732V29.9386C226.018 28.7229 225.027 27.7471 223.811 27.7471ZM258.396 32.2581C255.087 29.0108 251.041 27.3791 246.292 27.3791C241.56 27.3791 237.546 28.9948 234.252 32.2262C230.959 35.4575 229.312 39.3607 229.312 43.9678C229.312 48.8468 230.927 52.91 234.157 56.1414C237.386 59.4047 241.384 61.0524 246.149 61.0524C250.961 61.0524 255.039 59.4527 258.348 56.2374C261.626 53.006 263.289 49.0068 263.289 44.2238C263.289 39.4887 261.658 35.5055 258.396 32.2581ZM253.184 51.6943C251.473 53.5499 249.171 54.4617 246.292 54.4617C243.43 54.4617 241.128 53.5339 239.385 51.6463C237.69 49.7906 236.827 47.2631 236.827 44.0958C236.827 41.1364 237.706 38.7049 239.449 36.8332C241.192 34.9616 243.462 34.0178 246.276 34.0178C249.123 34.0178 251.425 34.9616 253.168 36.8332C254.895 38.6889 255.758 41.1684 255.758 44.2557C255.774 47.3591 254.911 49.8226 253.184 51.6943Z"/>
    <path d="M187.516 50.3982C185.997 48.8625 185.149 46.7669 184.957 44.1594H206.047C207.007 44.1594 207.806 43.3916 207.822 42.4318C207.822 37.1688 206.463 33.0577 203.777 30.0982C201.043 27.1068 197.333 25.6191 192.648 25.6191C188.011 25.6191 184.286 27.1548 181.472 30.2262C178.674 33.3456 177.283 37.4248 177.283 42.4638C177.283 47.5507 178.722 51.6299 181.6 54.7013C183.614 56.8449 186.077 58.2206 188.987 58.8605C190.218 59.1484 191.481 59.2924 192.76 59.2764C198.005 59.3884 202.562 59.5004 207.79 59.5963V58.8285C207.151 58.1246 206.831 57.2928 206.831 56.317C206.831 55.3572 207.167 54.5413 207.822 53.8375V52.9097C203.681 52.8137 193.672 52.7017 193.272 52.7017C190.953 52.7017 189.019 51.9339 187.516 50.3982ZM186.492 35.6811C186.956 34.9613 187.5 34.3534 188.139 33.8415C188.779 33.3296 189.498 32.9297 190.282 32.6577C191.065 32.3858 191.913 32.2418 192.808 32.2418C196.726 32.2418 199.204 34.2094 200.227 38.1286H185.437C185.693 37.2168 186.045 36.401 186.492 35.6811Z"/>
</svg>
