<svg width="436" height="54" viewBox="0 0 436 54" fill="none" xmlns="http://www.w3.org/2000/svg">
    <path d="M85.1694 37.6609L66.4509 5.04316C62.3473 -1.75518 52.34 -1.82751 48.3803 5.33244L28.7261 39.2519C25.0543 45.4716 29.5898 53.2824 36.9334 53.2824H76.314C83.7295 53.2824 89.2731 45.2545 85.1694 37.6609Z" fill="#00B897"/>
    <path d="M58.1716 40.1913L57.0198 38.1663C55.9399 36.2858 53.564 32.2357 53.564 32.2357L37.7254 4.6085C33.6217 -1.53895 23.9026 -2.04521 19.7989 5.69333L1.36843 37.7323C-2.44726 44.4583 2.08837 53.2093 10.3677 53.2819H49.5323H66.235H76.1703C66.0191 53.3541 62.7795 48.0744 58.1716 40.1913Z" fill="#76FCB2"/>
    <path d="M58.1717 40.1904L57.0199 38.1656C55.94 36.2851 53.5641 32.235 53.5641 32.235L43.341 14.1543L28.6542 39.3227C24.9826 45.5424 29.5182 53.3532 36.8617 53.3532H49.4605H66.1632H76.1704C65.9473 53.2809 62.7794 48.0737 58.1717 40.1904Z" fill="url(#paint0_linear_613_12322)"/>
    <path d="M432.298 50.7498C429.634 50.7498 427.545 50.1712 425.963 49.1587C424.305 48.0739 423.442 46.4826 423.442 44.3129V12.7803H427.618C429.131 12.7803 430.426 14.0098 430.426 15.6009V43.3727C430.426 43.4453 430.426 44.7469 431.506 45.8317C432.152 46.4826 432.945 46.8443 434.024 46.8443H434.817C435.106 46.8443 435.393 47.1337 435.393 47.4228V50.8221L432.298 50.7498Z" fill="#00B897"/>
    <path d="M342.305 50.7492C337.985 50.7492 334.457 49.5921 331.793 47.2776C330.427 46.1206 329.491 44.8186 328.915 43.3721C328.338 41.9259 328.049 39.8283 328.049 37.0078C328.049 34.2597 328.338 32.0898 328.915 30.6433C329.418 29.2693 330.354 28.0397 331.722 26.8826C334.384 24.5683 337.912 23.4111 342.232 23.4111C346.552 23.4111 350.079 24.5683 352.744 26.8826C354.113 28.0397 355.049 29.3416 355.552 30.6433C356.128 32.1621 356.415 34.2597 356.415 37.0078C356.415 39.8283 356.128 41.9259 355.552 43.3721C354.976 44.8186 354.04 46.1206 352.671 47.2776C350.152 49.5921 346.625 50.7492 342.305 50.7492ZM342.305 27.3889C337.552 27.3889 335.177 30.6433 335.177 37.0801C335.177 43.5892 337.552 46.8437 342.305 46.8437C347.055 46.8437 349.433 43.5892 349.433 37.1524C349.433 30.6433 346.985 27.3889 342.305 27.3889Z" fill="#00B897"/>
    <path d="M372.11 50.7498C368.366 50.7498 364.911 49.7373 361.96 47.7845C361.671 47.4951 361.094 47.1337 360.375 46.6997C360.231 46.6274 360.088 46.4103 360.088 46.1934V12.7803H364.335C365.847 12.7803 367.143 14.0821 367.143 15.6009V25.3644L368.439 24.6412C369.951 23.8457 371.966 23.4841 374.558 23.4841C379.094 23.4841 382.549 24.8582 384.853 27.534C386.869 29.9208 387.878 33.1029 387.878 37.0084C387.878 40.9139 386.725 44.0961 384.421 46.4103C381.756 49.3033 377.582 50.7498 372.11 50.7498ZM372.829 27.3894C371.247 27.3894 369.445 27.968 367.43 29.1976L367.143 29.3422V45.0363L367.43 45.2532C369.015 46.2657 370.887 46.772 372.829 46.772C375.421 46.772 377.439 45.6872 378.805 43.5175C379.957 41.7816 380.606 39.5397 380.606 37.0084C380.606 30.6439 377.942 27.3894 372.829 27.3894Z" fill="#00B897"/>
    <path d="M404.508 50.6769C396.588 50.6769 391.621 45.4697 391.621 37.0078C391.621 28.6185 396.515 23.4111 404.362 23.4111C407.387 23.4111 409.978 24.2067 412.067 25.7255L412.499 26.0148V23.9174H418.042C418.402 23.9174 418.618 24.2067 418.618 24.496V50.1706H412.426V47.8562L411.994 48.2179C410.268 49.809 407.53 50.6769 404.508 50.6769ZM405.948 28.0397C400.978 28.0397 398.027 31.8729 398.027 37.0078C398.027 42.1427 400.978 46.1206 405.948 46.1206C407.53 46.1206 410.268 45.976 412.426 43.8061L412.499 43.7338V30.571L412.426 30.4987C410.914 28.7631 408.683 28.0397 405.948 28.0397Z" fill="#00B897"/>
    <path d="M148.712 50.3872V12.707H179.886V15.0937C179.886 16.9741 178.374 18.4928 176.502 18.4928H156.488V28.618H176.502V34.4039H156.488V44.5289H176.502C178.374 44.5289 179.886 46.0477 179.886 47.9282V50.3149L148.712 50.3872Z" fill="white"/>
    <path d="M224.666 12.707H217.323C215.955 12.707 214.731 13.2856 213.867 14.3704L205.012 25.5805L196.156 14.4428C195.293 13.3579 194.069 12.7793 192.701 12.7793H185.357L200.26 31.5832L185.357 50.3872H192.701C194.069 50.3872 195.293 49.8087 196.156 48.7239L205.012 37.5861L213.939 48.7961C214.803 49.8087 216.027 50.4595 217.395 50.4595H224.738L209.835 31.6555L224.666 12.707Z" fill="white"/>
    <path d="M124.307 46.4124L134.53 28.4764V50.3179H142.305V12.6377H137.481C135.97 12.6377 134.53 13.4332 133.81 14.8074L121.571 37.2274L109.332 14.8074C108.612 13.4332 107.172 12.6377 105.66 12.6377H100.836V50.3179H108.612V28.4764L118.835 46.4124H124.307Z" fill="white"/>
    <path d="M244.968 50.8217C234.169 50.9662 225.386 42.4321 225.314 31.5837C225.314 25.6532 227.114 20.7353 230.498 17.3361C233.882 14.0093 238.777 12.2012 244.609 12.2012C251.448 12.2012 256.848 14.5878 260.735 19.2165L258.288 21.3139C256.776 22.6157 254.544 22.688 252.888 21.4585C250.728 19.7951 247.992 18.9995 244.897 18.9995C237.265 18.9995 232.73 23.6282 232.73 31.4391C232.73 39.3222 237.409 44.168 244.897 44.168C248.064 44.168 250.728 43.3 252.888 41.7089C254.472 40.4793 256.703 40.5518 258.288 41.8535L260.735 43.9508C256.848 48.5072 251.664 50.8217 244.968 50.8217Z" fill="white"/>
    <path d="M292.845 50.8224C280.75 50.8224 273.262 43.4456 273.262 31.5844C273.262 19.7236 280.75 12.3467 292.701 12.3467C298.46 12.3467 303.284 14.0101 307.028 17.4093L305.229 19.4343C304.436 20.3022 303.284 20.8085 302.131 20.8085C301.485 20.8085 300.836 20.6638 300.259 20.3745C298.028 19.2173 295.436 18.6388 292.701 18.6388C284.924 18.6388 280.101 23.629 280.101 31.657C280.101 39.7569 285.141 44.7472 293.204 44.7472C297.092 44.7472 300.116 44.0241 302.348 42.433L302.491 42.3608V34.622H293.924V32.0907C293.924 30.2105 295.436 28.6917 297.308 28.6917H307.891C308.18 28.6917 308.467 28.9808 308.467 29.2702V45.9769C304.796 49.159 299.54 50.8224 292.845 50.8224Z" fill="#00B897"/>
    <path d="M322.363 50.7498C319.698 50.7498 317.61 50.1712 316.027 49.1587C314.372 48.0739 313.506 46.4826 313.506 44.3129V12.7803H317.683C319.195 12.7803 320.491 14.0098 320.491 15.6009V43.3727C320.491 43.4453 320.491 44.7469 321.57 45.8317C322.219 46.4826 323.009 46.8443 324.089 46.8443H324.881C325.171 46.8443 325.458 47.1337 325.458 47.4228V50.8221L322.363 50.7498Z" fill="#00B897"/>
    <defs>
        <linearGradient id="paint0_linear_613_12322" x1="23.4272" y1="27.8871" x2="68.9758" y2="44.6422" gradientUnits="userSpaceOnUse">
            <stop stop-color="#53E57A" stop-opacity="0"/>
            <stop offset="1" stop-color="#00A977"/>
        </linearGradient>
    </defs>
</svg>
