<svg width="60" height="60" viewBox="0 0 60 60" fill="none" xmlns="http://www.w3.org/2000/svg">
    <g clip-path="url(#clip0_367_3123)">
        <path d="M20.5996 18.1L10.0996 6.69995C9.59961 7.09995 9.09961 7.49995 8.59961 7.89995L19.0996 19.3L20.5996 18.1Z" fill="#3F496A"/>
        <path d="M39.9996 39.2C39.4996 39.6 39.0996 40.1 38.5996 40.5L49.1996 52.0999C49.5996 51.6999 50.0996 51.2 50.4996 50.7L39.9996 39.2Z" fill="#3F496A"/>
        <path d="M51.1001 53C51.2001 52.9 51.4001 52.7 51.5001 52.6C52.3001 51.8 53.0001 51 53.6001 50.3C54.5001 49.3 54.5001 47.9 53.6001 46.9L43.9001 36.4C43.4001 35.9 42.8001 35.6 42.1001 35.6C41.4001 35.6 40.8001 35.8 40.3001 36.3C39.8001 36.8 39.2001 37.3 38.8001 37.8C38.3001 38.3 37.8001 38.7 37.4001 39.1C36.3001 40.1 35.5001 40.8 35.0001 41.1C32.6001 42.6 26.0001 38.3 21.2001 32C18.0001 27.8 16.8001 24.2 18.1001 22.9L20.5001 20.7L21.9001 19.4L23.6001 17.9C24.6001 17 24.7001 15.4 23.7001 14.4L14.2001 4.1C13.3001 3.2 11.9001 3 10.9001 3.8C10.1001 4.3 9.30007 5 8.40007 5.7C8.20007 5.8 8.10007 5.9 7.90007 6.1C6.10007 7.6 4.20007 9.4 3.40007 10.9C-0.799926 18.1 6.70007 31.7 16.1001 41.9C25.5001 52.1 38.3001 60.8 45.9001 57.2C47.4001 56.4 49.4001 54.6 51.1001 53ZM45.1001 55.4C39.4001 58.1 28.1001 52 17.5001 40.6C6.90007 29.2 1.80007 17.3 5.00007 11.8C5.60007 10.8 6.80007 9.5 8.60007 7.9C9.10007 7.5 9.50007 7.1 10.1001 6.7C10.7001 6.2 11.3001 5.8 11.9001 5.3C12.1001 5.1 12.5001 5.1 12.7001 5.4L22.2001 15.8C22.4001 16 22.4001 16.4 22.2001 16.6L20.5001 18.1L19.1001 19.4L16.7001 21.6C14.4001 23.7 15.5001 27.9 19.5001 33.2C23.8001 38.8 31.7001 45.4 35.8001 42.7C36.4001 42.3 37.4001 41.5 38.5001 40.5C39.0001 40.1 39.4001 39.6 39.9001 39.2C40.4001 38.7 41.0001 38.1 41.5001 37.6C41.6001 37.5 41.8001 37.4 41.9001 37.4C42.1001 37.4 42.2001 37.5 42.3001 37.6L52.0001 48.1C52.2001 48.3 52.2001 48.7 52.0001 48.9C51.5001 49.5 50.9001 50.1 50.4001 50.6C49.9001 51.1 49.5001 51.5 49.1001 52C47.5001 53.7 46.1001 54.9 45.1001 55.4Z" fill="#637EA8"/>
        <path d="M36.4154 0.540954C36.2154 0.0409539 35.5154 -0.159046 35.0154 0.140954C31.9154 2.04095 29.8154 5.04095 29.0154 8.34095C28.9154 8.94095 29.3154 9.44095 29.8154 9.54095C30.3154 9.54095 30.7154 9.24095 30.8154 8.84095C31.5154 5.94095 33.3154 3.44095 36.0154 1.84095C36.5154 1.54095 36.6154 0.940954 36.4154 0.540954Z" fill="#E8A15B"/>
        <path d="M37.8157 3.44098C37.6157 2.94098 36.9157 2.74098 36.4157 3.04098C34.4157 4.34098 32.9157 6.34098 32.3157 8.54098C32.1157 9.04098 32.5157 9.64098 33.1157 9.64098H33.3157C33.7157 9.64098 34.1157 9.44098 34.2157 9.04098C34.8157 7.24098 35.9157 5.64098 37.6157 4.54098C37.9157 4.44098 38.0157 3.84098 37.8157 3.44098Z" fill="#E8A15B"/>
        <path d="M52.3163 0.64093C52.5163 0.14093 53.2163 -0.0590705 53.7163 0.24093C56.8163 2.04093 59.0163 5.04093 59.9163 8.34093C60.1163 8.94093 59.7163 9.44093 59.1163 9.54093C58.6163 9.54093 58.2163 9.24093 58.1163 8.84093C57.3163 5.94093 55.5163 3.44093 52.8163 1.84093C52.2163 1.54093 52.1163 1.04093 52.3163 0.64093Z" fill="#E8A15B"/>
        <path d="M50.9159 3.54095C51.1159 3.04095 51.8158 2.84095 52.3158 3.14095C54.4158 4.44095 55.8158 6.44095 56.5158 8.64095C56.7158 9.14095 56.3159 9.74095 55.7159 9.74095H55.5158C55.1158 9.74095 54.7158 9.54095 54.6158 9.14095C54.0158 7.34095 52.8158 5.74095 51.1158 4.74095C50.9158 4.44095 50.7159 3.94095 50.9159 3.54095Z" fill="#E8A15B"/>
        <path d="M43.5156 5.44092V3.94092C43.5156 3.64092 43.7156 3.44092 44.0156 3.44092C44.3156 3.44092 44.5156 3.64092 44.5156 3.94092V5.44092H44.7156C45.3156 5.44092 45.8156 5.54092 46.4156 5.64092V3.94092C46.4156 2.54092 45.3156 1.44092 43.9156 1.44092C42.5156 1.44092 41.5156 2.54092 41.5156 3.94092V5.64092C42.0156 5.54092 42.6156 5.44092 43.2156 5.44092H43.5156Z" fill="#637EA8"/>
        <path d="M44.0152 25.4409C43.3152 25.4409 42.7152 24.9409 42.5152 24.3409H40.6152C40.8152 26.0409 42.3152 27.3409 44.0152 27.3409C45.7152 27.3409 47.2152 26.0409 47.4152 24.3409H45.5152C45.3152 25.0409 44.7152 25.4409 44.0152 25.4409Z" fill="#E8A15B"/>
        <path d="M52.5152 19.6409V13.1409C52.5152 9.44092 49.9152 6.44092 46.5152 5.64092C46.0152 5.54092 45.4152 5.44092 44.8152 5.44092H44.6152H43.5152H43.3152C42.7152 5.44092 42.2152 5.54092 41.6152 5.64092C38.2152 6.44092 35.6152 9.44092 35.6152 13.1409V19.6409C34.4152 20.0409 33.6152 21.0409 33.6152 22.3409V23.4409C33.6152 23.9409 34.0152 24.4409 34.6152 24.4409H35.6152H37.5152H40.6152H42.5152H45.5152H47.4152H50.5152H52.4152H53.4152C53.9152 24.4409 54.4152 24.0409 54.4152 23.4409V22.3409C54.5152 21.0409 53.6152 20.0409 52.5152 19.6409ZM52.5152 22.4409H50.5152H47.1152H44.5152H43.4152H40.8152H37.4152H35.5152H35.4152V22.3409C35.4152 22.2409 35.4152 22.0409 35.5152 21.9409C35.7152 21.6409 36.0152 21.3409 36.4152 21.3409H37.4152V19.4409V13.1409C37.4152 10.5409 39.1152 8.34092 41.5152 7.64092C42.0152 7.44092 42.6152 7.44092 43.2152 7.44092H43.4152H44.5152H44.7152C45.3152 7.44092 45.8152 7.54092 46.4152 7.64092C48.8152 8.34092 50.5152 10.5409 50.5152 13.1409V19.4409V21.3409H51.5152C51.9152 21.3409 52.2152 21.5409 52.4152 21.9409C52.5152 22.0409 52.5152 22.2409 52.5152 22.3409V22.4409Z" fill="#3F496A"/>
    </g>
    <defs>
        <clipPath id="clip0_367_3123">
            <rect width="60" height="60" fill="white"/>
        </clipPath>
    </defs>
</svg>
