<svg width="60" height="60" viewBox="0 0 60 60" fill="none" xmlns="http://www.w3.org/2000/svg">
    <path d="M41.9998 25.1H7.7998C7.2998 25.1 6.7998 24.7 6.7998 24.1V18.1C6.7998 17.6 7.1998 17.1 7.7998 17.1H41.9998C42.4998 17.1 42.9998 17.5 42.9998 18.1V24.1C42.8998 24.7 42.4998 25.1 41.9998 25.1ZM8.6998 23.2H40.9998V19.1H8.6998V23.2Z" fill="#3F496A"/>
    <path d="M49.2998 11.7999H1.7998C1.2998 11.7999 0.799805 11.3999 0.799805 10.7999C0.799805 10.1999 1.1998 9.79993 1.7998 9.79993H49.3998C49.8998 9.79993 50.3998 10.1999 50.3998 10.7999C50.3998 11.3999 49.8998 11.7999 49.2998 11.7999Z" fill="#637EA8"/>
    <path d="M34.7998 6.19995C34.1998 6.19995 33.7998 6.59995 33.7998 7.19995C33.7998 7.79995 34.1998 8.19995 34.7998 8.19995C35.3998 8.19995 35.7998 7.79995 35.7998 7.19995C35.7998 6.59995 35.2998 6.19995 34.7998 6.19995Z" fill="#E8A15B"/>
    <path d="M39.7998 6.19995C39.1998 6.19995 38.7998 6.59995 38.7998 7.19995C38.7998 7.79995 39.1998 8.19995 39.7998 8.19995C40.3998 8.19995 40.7998 7.79995 40.7998 7.19995C40.7998 6.59995 40.2998 6.19995 39.7998 6.19995Z" fill="#E8A15B"/>
    <path d="M44.7998 6.19995C44.1998 6.19995 43.7998 6.59995 43.7998 7.19995C43.7998 7.79995 44.1998 8.19995 44.7998 8.19995C45.3998 8.19995 45.7998 7.79995 45.7998 7.19995C45.7998 6.59995 45.2998 6.19995 44.7998 6.19995Z" fill="#E8A15B"/>
    <path d="M27.8998 31.1H7.7998C7.2998 31.1 6.7998 30.7 6.7998 30.1C6.7998 29.5 7.1998 29.1 7.7998 29.1H27.8998C28.3998 29.1 28.8998 29.5 28.8998 30.1C28.8998 30.7 28.3998 31.1 27.8998 31.1Z" fill="#E8A15B"/>
    <path d="M24.7998 36.1H7.7998C7.2998 36.1 6.7998 35.7 6.7998 35.1C6.7998 34.5 7.1998 34.1 7.7998 34.1H24.7998C25.2998 34.1 25.7998 34.5 25.7998 35.1C25.7998 35.7 25.2998 36.1 24.7998 36.1Z" fill="#E8A15B"/>
    <path d="M5.7998 42.2C4.0998 42.2 2.6998 40.7999 2.6998 39.0999V7.19995C2.6998 5.49995 4.0998 4.09995 5.7998 4.09995H45.6998C47.3998 4.09995 48.7998 5.49995 48.7998 7.19995V25.7C48.7998 26.2 49.1998 26.7 49.7998 26.7C50.2998 26.7 50.7998 26.3 50.7998 25.7V7.19995C50.7998 4.39995 48.5998 2.19995 45.7998 2.19995H5.7998C2.9998 2.19995 0.799805 4.39995 0.799805 7.19995V39.0999C0.799805 41.8999 2.9998 44.0999 5.7998 44.0999H25.7998C26.2998 44.0999 26.7998 43.6999 26.7998 43.0999C26.7998 42.5999 26.3998 42.0999 25.7998 42.0999H5.7998V42.2Z" fill="#3F496A"/>
    <path d="M44.2002 57.7999C36.0002 57.7999 29.2002 51.0999 29.2002 42.7999C29.2002 34.4999 35.9002 27.7999 44.2002 27.7999C52.5002 27.7999 59.2002 34.4999 59.2002 42.7999C59.2002 51.0999 52.5002 57.7999 44.2002 57.7999ZM44.2002 29.7999C37.0002 29.7999 31.2002 35.6999 31.2002 42.7999C31.2002 49.8999 37.1002 55.7999 44.2002 55.7999C51.3002 55.7999 57.2002 49.8999 57.2002 42.7999C57.2002 35.6999 51.4002 29.7999 44.2002 29.7999Z" fill="#637EA8"/>
    <path d="M49.3006 52.3C46.0006 52.3 41.5006 48.9 38.6006 45.8C37.0006 44 34.4006 40.6 34.7006 37.7C34.9006 36.2 38.4006 33.7 38.4006 33.6C38.9006 33.2 39.6006 33.3 40.1006 33.7L43.5006 37.1C43.8006 37.4 43.9006 37.7 43.9006 38.1C43.9006 38.5 43.7006 38.8 43.4006 39C42.9006 39.4 41.9006 40.3 41.6006 40.7C41.6006 41 41.9006 41.6 42.7006 42.5C44.0006 43.9 45.5006 44.9 46.1006 45.1C46.5006 44.8 47.3006 43.9 47.7006 43.4C47.9006 43.1 48.3006 42.9 48.7006 42.8C49.1006 42.8 49.5006 42.9 49.8006 43.2L53.4006 46.8C53.8006 47.2 53.9006 47.9 53.6006 48.4C53.5006 48.6 50.9006 52.3 49.3006 52.3ZM39.1006 35.4C38.1006 36.2 36.7006 37.5 36.6006 37.9C36.4006 39.4 37.7006 41.9 40.0006 44.5C43.0006 47.8 46.9006 50.4 49.2006 50.4C49.7006 50.2 50.9006 48.9 51.6006 47.9L48.7006 45C48.1006 45.7 46.9006 47 46.1006 47C44.8006 47 42.6006 45.4 41.2006 43.8C40.0006 42.5 39.5006 41.3 39.6006 40.3C39.7006 39.5 40.9006 38.4 41.6006 37.8L39.1006 35.4Z" fill="#E8A15B"/>
</svg>
