<svg width="60" height="60" viewBox="0 0 60 60" fill="none" xmlns="http://www.w3.org/2000/svg">
    <path d="M20.8 18.6L9.9 7.59998C9.4 8.09998 9 8.49998 8.5 8.89998L19.4 19.9L20.8 18.6Z" fill="#637EA8"/>
    <path d="M40.9992 39C40.5992 39.5 40.0992 39.9 39.6992 40.4L50.7992 51.6C51.1992 51.2 51.5992 50.7 52.0992 50.2L40.9992 39Z" fill="#637EA8"/>
    <path d="M52.4996 52.3C52.5996 52.2 52.7996 52 52.8996 51.9C53.6996 51 54.3996 50.2 54.8996 49.6C55.6996 48.6 55.6996 47.1 54.7996 46.2L44.6996 36C44.1996 35.5 43.5996 35.2 42.8996 35.3C42.1996 35.3 41.5996 35.6 41.0996 36.1C40.5996 36.7 40.0996 37.2 39.5996 37.7C39.0996 38.2 38.6996 38.6 38.2996 39.1C37.1996 40.1 36.3996 40.9 35.9996 41.2C33.6996 42.8 26.8996 38.7 21.8996 32.7C18.4996 28.7 17.1996 25.1 18.4996 23.8L20.7996 21.5L22.1996 20.2L23.7996 18.6C24.7996 17.6 24.7996 16.1 23.7996 15.1L13.8996 5.1C12.9996 4.2 11.5996 4.1 10.5996 4.9C9.79963 5.2 8.99963 5.9 8.09963 6.7C7.99963 6.8 7.89963 6.9 7.69963 7C5.99963 8.6 4.19963 10.5 3.39963 12C-0.600374 19.4 7.49963 32.6 17.1996 42.5C26.8996 52.4 40.0996 60.6 47.4996 56.7C48.9996 55.8 50.8996 54.1 52.4996 52.3ZM46.6996 54.9C41.0996 57.8 29.4996 52.2 18.5996 41.1C7.69963 30 1.99963 18.5 4.99963 12.9C5.49963 11.9 6.79963 10.5 8.49963 8.9C8.99963 8.5 9.39963 8.1 9.89963 7.6C10.4996 7.1 10.9996 6.6 11.6996 6.1C11.8996 5.9 12.2996 5.9 12.4996 6.1L22.3996 16.1C22.5996 16.3 22.5996 16.7 22.3996 16.9L20.7996 18.5L19.3996 19.8L17.0996 22.1C14.8996 24.3 16.0996 28.5 20.3996 33.6C24.8996 39 32.9996 45.3 37.0996 42.5C37.6996 42.1 38.6996 41.2 39.6996 40.2C40.0996 39.8 40.5996 39.3 40.9996 38.8C41.4996 38.3 42.0996 37.7 42.4996 37.2C42.5996 37.1 42.7996 37 42.8996 37C43.0996 37 43.1996 37.1 43.3996 37.2L53.4996 47.4C53.6996 47.6 53.6996 48 53.4996 48.2C52.9996 48.8 52.4996 49.4 51.9996 49.9C51.5996 50.4 51.0996 50.9 50.6996 51.3C49.0996 53.2 47.5996 54.4 46.6996 54.9Z" fill="#3F496A"/>
    <path d="M43.6994 2.39996C36.5994 2.99996 31.2994 9.19996 31.7994 16.3C31.9994 18.7 32.7994 20.9 34.0994 22.7L31.2994 28.9C31.0994 29.3 31.1994 29.7 31.4994 30C31.6994 30.2 31.9994 30.3 32.1994 30.3C32.2994 30.3 32.3994 30.3 32.4994 30.2L39.1994 27.1C41.0994 28 43.2994 28.4 45.5994 28.2C52.6994 27.7 58.0994 21.4 57.4994 14.3C57.0994 7.19997 50.8994 1.89996 43.6994 2.39996ZM45.5994 26.3C44.2994 26.4 42.9994 26.3 41.7994 25.9C40.9994 25.7 40.0994 25.3 39.3994 24.9L37.2994 25.8L34.0994 27.3L35.4994 24.2L36.2994 22.3C35.7994 21.7 35.3994 21.1 34.9994 20.5C34.2994 19.2 33.7994 17.7 33.6994 16.1C33.1994 9.99997 37.7994 4.69996 43.8994 4.19996C49.9994 3.69996 55.2994 8.29996 55.7994 14.4C56.2994 20.5 51.5994 25.9 45.5994 26.3Z" fill="#E8A15B"/>
    <path d="M51.9998 12.1H38.7998C38.2998 12.1 37.7998 11.7 37.7998 11.1C37.7998 10.5 38.1998 10.1 38.7998 10.1H51.9998C52.4998 10.1 52.9998 10.5 52.9998 11.1C52.9998 11.7 52.4998 12.1 51.9998 12.1Z" fill="#637EA8"/>
    <path d="M48.7998 16.6H38.7998C38.2998 16.6 37.7998 16.2 37.7998 15.6C37.7998 15.1 38.1998 14.6 38.7998 14.6H48.7998C49.2998 14.6 49.7998 15 49.7998 15.6C49.6998 16.2 49.2998 16.6 48.7998 16.6Z" fill="#637EA8"/>
    <path d="M46.7998 21.1H38.7998C38.2998 21.1 37.7998 20.7 37.7998 20.1C37.7998 19.5 38.1998 19.1 38.7998 19.1H46.7998C47.2998 19.1 47.7998 19.5 47.7998 20.1C47.7998 20.7 47.2998 21.1 46.7998 21.1Z" fill="#637EA8"/>
</svg>
