<svg width="60" height="60" viewBox="0 0 60 60" fill="none" xmlns="http://www.w3.org/2000/svg">
    <path d="M56.1 22.5H52.4C51.8 20.8 51.1 19.2 50.2 17.7L53.2 14.7C54.1 13.8 54.1 12.2 53.2 11.3L47.5 5.6C46.6 4.7 45 4.7 44.1 5.6L40.7 9C39.2 8.3 37.7 7.7 36.1 7.2V3.9C36.1 2.6 35 1.5 33.7 1.5H25.6C24.3 1.5 23.2 2.6 23.2 3.9V7.5C21.8 7.9 20.5 8.5 19.2 9.2L16.8 6.8C15.9 5.9 14.3 5.9 13.4 6.8L7.7 12.5C6.8 13.4 6.8 15 7.7 15.9L9.9 18.1C8.9 19.8 8.1 21.6 7.6 23.5H3.9C2.6 23.5 1.5 24.6 1.5 25.9V34C1.5 35.3 2.6 36.4 3.9 36.4H7.5C8 38.2 8.7 39.8 9.6 41.4L7.8 43.2C6.9 44.1 6.9 45.7 7.8 46.6L13.5 52.3C14 52.8 14.6 53 15.2 53C15.8 53 16.4 52.8 16.9 52.3L18.7 50.5C20.4 51.4 22.1 52.1 24 52.6V56C24 57.3 25.1 58.4 26.4 58.4H34.5C35.8 58.4 36.9 57.3 36.9 56V52.3C38.9 51.7 40.9 50.8 42.6 49.6L45.1 52.1C45.6 52.6 46.2 52.8 46.8 52.8C47.4 52.8 48 52.6 48.5 52.1L54.2 46.4C55.1 45.5 55.1 43.9 54.2 43L51.2 40C51.9 38.6 52.4 37.1 52.8 35.5H56C57.3 35.5 58.4 34.4 58.4 33.1V25C58.5 23.6 57.4 22.5 56.1 22.5ZM56.5 33.1C56.5 33.4 56.3 33.6 56 33.6H53.2H51.3C51.2 34.2 51.1 34.9 50.9 35.5C50.6 36.6 50.3 37.6 49.8 38.6C49.5 39.2 49.2 39.8 48.9 40.4L50.3 41.8L52.9 44.4C53.1 44.6 53.1 44.9 52.9 45.1L47.2 50.8C47 51 46.7 51 46.5 50.8L44.3 48.6L43 47.2C42.5 47.6 42 47.9 41.4 48.3C40 49.1 38.6 49.8 37.1 50.3C36.5 50.5 35.8 50.7 35.2 50.8V52.8V56C35.2 56.3 35 56.5 34.7 56.5H26.6C26.3 56.5 26.1 56.3 26.1 56V53V51.1C25.5 51 24.8 50.8 24.2 50.6C22.8 50.2 21.5 49.7 20.3 49C19.7 48.7 19.1 48.4 18.6 48L17.2 49.4L15.6 51C15.4 51.2 15.1 51.2 14.9 51L9.2 45.3C9 45.1 9 44.8 9.2 44.6L10.7 43.1L12.1 41.7C11.7 41.2 11.4 40.6 11.1 40C10.5 38.9 10 37.7 9.6 36.4C9.4 35.8 9.2 35.1 9.1 34.5H7.1H3.9C3.6 34.5 3.4 34.3 3.4 34V25.9C3.4 25.6 3.6 25.4 3.9 25.4H7H9C9.1 24.8 9.3 24.1 9.5 23.5C9.9 22.1 10.5 20.8 11.2 19.5C11.5 18.9 11.9 18.4 12.2 17.8L10.8 16.4L9 14.6C8.8 14.4 8.8 14.1 9 13.9L14.7 8.2C14.9 8 15.2 8 15.4 8.2L17.4 10.2L18.8 11.6C19.4 11.3 19.9 10.9 20.5 10.6C21.3 10.2 22.2 9.8 23.1 9.5C23.8 9.4 24.4 9.2 25 9V7V3.9C25 3.6 25.2 3.4 25.5 3.4H33.6C33.9 3.4 34.1 3.6 34.1 3.9V6.8V8.7C34.7 8.8 35.4 9 36 9.2C37.1 9.5 38.2 9.9 39.3 10.4C39.9 10.7 40.4 11 41 11.3C41 11.3 41 11.3 41 11.2L42.3 9.9L45.3 6.9C45.5 6.7 45.8 6.7 46 6.9L51.7 12.6C51.9 12.8 51.9 13.1 51.7 13.3L49 16L47.6 17.4C48 17.9 48.3 18.5 48.6 19C49.2 20.1 49.7 21.2 50.2 22.4C50.4 23 50.6 23.7 50.8 24.3H52.8H56C56.3 24.3 56.5 24.5 56.5 24.8V33.1Z" fill="#637EA8"/>
    <path d="M33.7002 32.1C35.2002 31 36.2002 29.3 36.2002 27.3C36.2002 24 33.5002 21.3 30.2002 21.3C26.9002 21.3 24.2002 24 24.2002 27.3C24.2002 29.3 25.2002 31 26.7002 32.1C23.8002 33.4 21.7002 36.4 21.7002 39.8V40C22.3002 40.5 22.9002 41.0001 23.6002 41.4001C23.6002 41.2001 23.6002 41.0001 23.6002 40.9001V39.9001C23.6002 36.3001 26.5002 33.4001 30.1002 33.4001C33.7002 33.4001 36.6002 36.3001 36.6002 39.9001V40.9001C36.6002 41.1001 36.6002 41.3001 36.6002 41.4001C37.3002 41.0001 37.9002 40.6 38.5002 40V39.8C38.7002 36.3 36.7002 33.4 33.7002 32.1ZM26.2002 27.3C26.2002 25.1 28.0002 23.3 30.2002 23.3C32.4002 23.3 34.2002 25.1 34.2002 27.3C34.2002 29.5 32.4002 31.3 30.2002 31.3C28.0002 31.3 26.2002 29.5 26.2002 27.3Z" fill="#E8A15B"/>
    <path d="M30.2998 15C22.0998 15 15.2998 21.7 15.2998 30C15.2998 35.2 17.9998 39.8 21.9998 42.4C22.7998 42.9 23.5998 43.4 24.4998 43.7C26.2998 44.5 28.1998 44.9 30.2998 44.9C32.3998 44.9 34.2998 44.5 36.0998 43.7C36.9998 43.3 37.7998 42.9 38.5998 42.4C42.5998 39.7 45.2998 35.1 45.2998 30C45.1998 21.8 38.4998 15 30.2998 15ZM38.6998 39.9C38.0998 40.4 37.4998 40.9 36.7998 41.3C34.8998 42.4 32.6998 43.1 30.2998 43.1C27.8998 43.1 25.6998 42.5 23.7998 41.3C23.0998 40.9 22.4998 40.5 21.8998 39.9C19.0998 37.5 17.2998 33.9 17.2998 30C17.2998 22.8 23.1998 17 30.2998 17C37.3998 17 43.2998 22.9 43.2998 30C43.2998 34 41.4998 37.5 38.6998 39.9Z" fill="#3F496A"/>
</svg>
