<svg width="60" height="60" viewBox="0 0 60 60" fill="none" xmlns="http://www.w3.org/2000/svg">
    <path d="M59 48H17C16.5 48 16 47.6 16 47V17C16 16.5 16.4 16 17 16H59C59.5 16 60 16.4 60 17V47C60 47.5 59.5 48 59 48ZM18 46H58V18H18V46Z" fill="#3F496A"/>
    <path d="M38.5998 33.6C37.7998 33.6 36.8998 33.3 36.1998 32.8L16.3998 17.8C15.9998 17.5 15.8998 16.9 16.1998 16.5C16.4998 16.1 17.0998 16 17.4998 16.3L37.2998 31.3C37.9998 31.9 39.0998 31.8 39.7998 31.3L58.3998 16.3C58.7998 16 59.3998 16 59.6998 16.4C59.9998 16.8 59.9998 17.4 59.5998 17.7L40.9998 32.7C40.2998 33.3 39.3998 33.6 38.5998 33.6Z" fill="#3F496A"/>
    <path d="M17 48C16.7 48 16.5 47.9 16.3 47.7C15.9 47.3 16 46.7 16.3 46.4L29.3 34C29.7 33.6 30.3 33.6 30.6 34C31 34.4 30.9 35 30.6 35.3L17.6 47.7C17.5 47.9 17.2 48 17 48Z" fill="#3F496A"/>
    <path d="M58.9998 48C58.6998 48 58.4998 47.9 58.2998 47.7L47.2998 34.7C46.9998 34.3 46.9998 33.7 47.3998 33.4C47.7998 33.1 48.3998 33.1 48.6998 33.5L59.6998 46.5C59.9998 46.9 59.9998 47.5 59.5998 47.8C59.3998 47.9 59.1998 48 58.9998 48Z" fill="#3F496A"/>
    <path d="M13.1004 25H9.30039C8.80039 25 8.40039 24.6 8.40039 24C8.40039 23.4 8.80039 23 9.30039 23H13.0004C13.5004 23 13.9004 23.4 13.9004 24C13.9004 24.6 13.6004 25 13.1004 25Z" fill="#E8A15B"/>
    <path d="M13.1002 30H6.6002C6.1002 30 5.7002 29.6 5.7002 29C5.7002 28.4 6.1002 28 6.6002 28H13.0002C13.5002 28 13.9002 28.4 13.9002 29C13.9002 29.6 13.6002 30 13.1002 30Z" fill="#637EA8"/>
    <path d="M13.1004 35H3.80039C3.30039 35 2.90039 34.6 2.90039 34C2.90039 33.4 3.30039 33 3.80039 33H13.1004C13.6004 33 14.0004 33.4 14.0004 34C14.0004 34.6 13.6004 35 13.1004 35Z" fill="#E8A15B"/>
    <path d="M13.1 40H0.9C0.4 40 0 39.5 0 39C0 38.5 0.4 38 0.9 38H13.1C13.6 38 14 38.4 14 39C14 39.6 13.6 40 13.1 40Z" fill="#637EA8"/>
</svg>
