<svg width="59" height="60" viewBox="0 0 59 60" fill="none" xmlns="http://www.w3.org/2000/svg">
    <path d="M52 10H11V1C11 0.5 10.6 0 10 0H7.1C3.2 0 0 3.2 0 7.1V11V42.3C0 43.8 0.8 45.2 1.9 46C2.7 46.6 3.6 46.9 4.6 46.9H9H10.9H25C25.5 46.9 26 46.5 26 45.9C26 45.4 25.6 44.9 25 44.9H10.9H9H4.7C3.4 44.9 2.2 44 1.9 42.7C1.6 41 2.9 39.4 4.6 39.4H9H10.9V37.5V11.9H51V29C51 29.5 51.4 30 52 30C52.5 30 53 29.6 53 29V11C52.9 10.4 52.5 10 52 10ZM9 10V11.9V37.7H4.6C3.6 37.7 2.6 38 1.9 38.6V11.9V10V7.1C1.9 4.2 4.2 1.9 7.1 1.9H9V10Z" fill="#3F496A"/>
    <path d="M43 52C39.2 52 36 48.9 36 45C36 41.1 39.1 38 43 38C46.9 38 50 41.1 50 45C50 48.9 46.9 52 43 52ZM43 40C40.2 40 38 42.3 38 45C38 47.7 40.3 50 43 50C45.7 50 48 47.7 48 45C48 42.3 45.8 40 43 40Z" fill="#3F496A"/>
    <path d="M57.1996 42.1L54.3996 41.5C54.0996 40.5 53.6996 39.6 53.0996 38.7L54.4996 36.3C54.6996 35.9 54.5996 35.4 54.2996 35.1L51.2996 32.5C50.9996 32.2 50.4996 32.2 50.0996 32.5L47.8996 34.2C47.3996 34 46.9996 33.8 46.4996 33.7L45.9996 30.9C45.8996 30.5 45.4996 30.1 45.0996 30.1H41.0996C40.5996 30.1 40.2996 30.4 40.1996 30.9L39.5996 33.7C38.5996 34 37.6996 34.4 36.7996 35L34.3996 33.6C33.9996 33.4 33.4996 33.5 33.1996 33.8L30.5996 36.8C30.2996 37.1 30.2996 37.6 30.5996 38L32.2996 40.2C32.0996 40.7 31.8996 41.1 31.6996 41.6L28.8996 42.2C28.4996 42.3 28.0996 42.7 28.0996 43.1V47.1C28.0996 47.6 28.3996 47.9 28.8996 48L31.6996 48.6C31.9996 49.6 32.3996 50.5 32.9996 51.4L31.5996 53.8C31.3996 54.2 31.4996 54.7 31.7996 55L34.7996 57.6C34.9996 57.8 35.1996 57.8 35.3996 57.8C35.5996 57.8 35.7996 57.7 35.9996 57.6L38.1996 55.9C38.6996 56.1 39.0996 56.3 39.5996 56.4L40.1996 59.2C40.2996 59.6 40.6996 60 41.0996 60H45.0996C45.5996 60 45.8996 59.7 45.9996 59.2L46.5996 56.4C47.5996 56.1 48.4996 55.7 49.3996 55.1L51.7996 56.5C51.8996 56.6 52.0996 56.6 52.2996 56.6C52.5996 56.6 52.7996 56.5 52.9996 56.3L55.5996 53.3C55.8996 53 55.8996 52.5 55.5996 52.1L53.8996 50C54.0996 49.5 54.2996 49.1 54.4996 48.6L57.2996 48C57.6996 47.9 58.0996 47.5 58.0996 47.1V43.1C57.9996 42.6 57.6996 42.2 57.1996 42.1ZM56.0996 46.3L54.8996 46.5L52.9996 46.9C52.9996 46.9 52.7996 47.6 52.5996 48.2C52.4996 48.5 52.3996 48.7 52.2996 49C52.0996 49.6 51.6996 50.3 51.6996 50.3L52.8996 51.8L53.5996 52.8L51.9996 54.6L50.9996 54L49.2996 53C49.2996 53 48.1996 53.7 47.3996 54.1C47.2996 54.2 47.0996 54.2 46.9996 54.3C46.1996 54.6 44.8996 55 44.8996 55L44.4996 56.9L44.2996 58.1H41.8996L41.6996 56.9L41.1996 55C41.1996 55 40.4996 54.8 39.8996 54.6C39.5996 54.5 39.3996 54.4 39.0996 54.3C38.4996 54.1 37.7996 53.7 37.7996 53.7L36.2996 54.9L35.2996 55.6L33.4996 54L34.0996 52.9L35.0996 51.2C35.0996 51.2 34.3996 50.1 33.9996 49.3C33.8996 49.2 33.8996 49 33.7996 48.9C33.4996 48.1 33.0996 46.8 33.0996 46.8L31.1996 46.4L29.9996 46.3V43.9L31.1996 43.7L33.0996 43.3C33.0996 43.3 33.2996 42.6 33.4996 42C33.5996 41.7 33.6996 41.5 33.7996 41.2C33.9996 40.6 34.3996 39.9 34.3996 39.9L33.1996 38.4L32.4996 37.4L34.0996 35.6L35.1996 36.2L36.8996 37.2C36.8996 37.2 37.9996 36.5 38.7996 36.1C38.8996 36 39.0996 36 39.1996 35.9C39.9996 35.6 41.2996 35.2 41.2996 35.2L41.6996 33.3L41.8996 32.1H44.2996L44.4996 33.3L44.8996 35.2C44.8996 35.2 45.5996 35.4 46.1996 35.6C46.4996 35.7 46.6996 35.8 46.9996 35.9C47.5996 36.1 48.2996 36.5 48.2996 36.5L49.7996 35.3L50.7996 34.6L52.5996 36.2L51.9996 37.3L50.9996 39C50.9996 39 51.6996 40.1 52.0996 40.9C52.1996 41 52.1996 41.2 52.2996 41.3C52.5996 42.1 52.9996 43.4 52.9996 43.4L54.8996 43.8L56.0996 44V46.3Z" fill="#E8A15B"/>
    <path d="M33.7998 16H25.7998C25.2998 16 24.7998 15.6 24.7998 15C24.7998 14.4 25.1998 14 25.7998 14H33.7998C34.2998 14 34.7998 14.4 34.7998 15C34.7998 15.6 34.2998 16 33.7998 16Z" fill="#E8A15B"/>
    <path d="M45.1998 21.9C45.1998 19.7 43.4998 18 41.2998 18H18.1998C15.9998 18 14.2998 19.7 14.2998 21.9V34.2C14.2998 36.4 15.9998 38.1 18.1998 38.1H27.0998C27.5998 38.1 28.0998 37.7 28.0998 37.1C28.0998 36.6 27.6998 36.1 27.0998 36.1H25.8998V32.2H36.0998C36.5998 32.2 37.0998 31.8 37.0998 31.2C37.0998 30.7 36.6998 30.2 36.0998 30.2H25.8998V26.1H43.2998V27.4C43.2998 27.9 43.6998 28.4 44.2998 28.4C44.7998 28.4 45.2998 28 45.2998 27.4V21.9H45.1998ZM23.9998 36.3H18.1998C17.0998 36.3 16.1998 35.4 16.1998 34.3V32.4C16.2998 32.4 16.2998 32.4 16.3998 32.4H23.9998V36.3ZM23.9998 30.5H16.3998C16.2998 30.5 16.2998 30.5 16.1998 30.5V26.4H23.9998V30.5ZM23.9998 24.5H16.1998V21.9C16.1998 20.8 17.0998 19.9 18.1998 19.9H23.9998V24.5ZM43.2998 24.5H25.8998V20H41.2998C42.3998 20 43.2998 20.9 43.2998 22V24.5Z" fill="#637EA8"/>
</svg>
