<svg width="60" height="60" viewBox="0 0 60 60" fill="none" xmlns="http://www.w3.org/2000/svg">
    <path d="M16.5 58H9.5C7.3 58 5.5 56.2 5.5 54V6C5.5 3.8 7.3 2 9.5 2H16.5C18.7 2 20.5 3.8 20.5 6V54C20.5 56.2 18.7 58 16.5 58ZM9.5 4C8.4 4 7.5 4.9 7.5 6V54C7.5 55.1 8.4 56 9.5 56H16.5C17.6 56 18.5 55.1 18.5 54V6C18.5 4.9 17.6 4 16.5 4H9.5Z" fill="#3F496A"/>
    <path d="M50.5004 2H22.9004C22.4004 2 21.9004 2.4 21.9004 3C21.9004 3.5 22.3004 4 22.9004 4H50.5004C51.6004 4 52.5004 4.9 52.5004 6V54C52.5004 55.1 51.6004 56 50.5004 56H22.9004C22.4004 56 21.9004 56.4 21.9004 57C21.9004 57.5 22.3004 58 22.9004 58H50.5004C52.7004 58 54.5004 56.2 54.5004 54V6C54.5004 3.8 52.7004 2 50.5004 2Z" fill="#3F496A"/>
    <path d="M28.5 33.1C26.6 33.1 25 31.5 25 29.6C25 27.7 26.6 26.1 28.5 26.1C30.4 26.1 32 27.7 32 29.6C32 31.5 30.4 33.1 28.5 33.1ZM28.5 28C27.6 28 26.9 28.7 26.9 29.6C26.9 30.5 27.6 31.2 28.5 31.2C29.4 31.2 30.1 30.5 30.1 29.6C30.1 28.7 29.4 28 28.5 28Z" fill="#E8A15B"/>
    <path d="M37 33.1C35.1 33.1 33.5 31.5 33.5 29.6C33.5 27.7 35.1 26 37 26C38.9 26 40.5 27.6 40.5 29.5C40.5 31.4 38.9 33.1 37 33.1ZM37 28C36.1 28 35.4 28.7 35.4 29.6C35.4 30.5 36.1 31.2 37 31.2C37.9 31.2 38.6 30.5 38.6 29.6C38.6 28.7 37.9 28 37 28Z" fill="#E8A15B"/>
    <path d="M45.5 33.1C43.6 33.1 42 31.5 42 29.6C42 27.7 43.6 26.1 45.5 26.1C47.4 26.1 49 27.7 49 29.6C49 31.5 47.5 33.1 45.5 33.1ZM45.5 28C44.6 28 43.9 28.7 43.9 29.6C43.9 30.5 44.6 31.2 45.5 31.2C46.4 31.2 47.1 30.5 47.1 29.6C47.1 28.7 46.4 28 45.5 28Z" fill="#E8A15B"/>
    <path d="M28.5 42C26.6 42 25 40.4 25 38.5C25 36.6 26.6 35 28.5 35C30.4 35 32 36.6 32 38.5C32 40.4 30.4 42 28.5 42ZM28.5 36.9C27.6 36.9 26.9 37.6 26.9 38.5C26.9 39.4 27.6 40.1 28.5 40.1C29.4 40.1 30.1 39.4 30.1 38.5C30.1 37.6 29.4 36.9 28.5 36.9Z" fill="#E8A15B"/>
    <path d="M37 42C35.1 42 33.5 40.4 33.5 38.5C33.5 36.6 35.1 35 37 35C38.9 35 40.5 36.6 40.5 38.5C40.5 40.4 38.9 42 37 42ZM37 36.9C36.1 36.9 35.4 37.6 35.4 38.5C35.4 39.4 36.1 40.1 37 40.1C37.9 40.1 38.6 39.4 38.6 38.5C38.6 37.6 37.9 36.9 37 36.9Z" fill="#E8A15B"/>
    <path d="M45.5 42C43.6 42 42 40.4 42 38.5C42 36.6 43.6 35 45.5 35C47.4 35 49 36.6 49 38.5C49 40.4 47.5 42 45.5 42ZM45.5 36.9C44.6 36.9 43.9 37.6 43.9 38.5C43.9 39.4 44.6 40.1 45.5 40.1C46.4 40.1 47.1 39.4 47.1 38.5C47.1 37.6 46.4 36.9 45.5 36.9Z" fill="#E8A15B"/>
    <path d="M28.5 51C26.6 51 25 49.4 25 47.5C25 45.6 26.6 44 28.5 44C30.4 44 32 45.6 32 47.5C32 49.4 30.4 51 28.5 51ZM28.5 45.8C27.6 45.8 26.9 46.5 26.9 47.4C26.9 48.3 27.6 49 28.5 49C29.4 49 30.1 48.3 30.1 47.4C30.1 46.5 29.4 45.8 28.5 45.8Z" fill="#E8A15B"/>
    <path d="M37 51C35.1 51 33.5 49.4 33.5 47.5C33.5 45.6 35.1 44 37 44C38.9 44 40.5 45.6 40.5 47.5C40.5 49.4 38.9 51 37 51ZM37 45.8C36.1 45.8 35.4 46.5 35.4 47.4C35.4 48.3 36.1 49 37 49C37.9 49 38.6 48.3 38.6 47.4C38.6 46.5 37.9 45.8 37 45.8Z" fill="#E8A15B"/>
    <path d="M45.5 51C43.6 51 42 49.4 42 47.5C42 45.6 43.6 44 45.5 44C47.4 44 49 45.6 49 47.5C49 49.4 47.5 51 45.5 51ZM45.5 45.8C44.6 45.8 43.9 46.5 43.9 47.4C43.9 48.3 44.6 49 45.5 49C46.4 49 47.1 48.3 47.1 47.4C47.1 46.5 46.4 45.8 45.5 45.8Z" fill="#E8A15B"/>
    <path d="M47.1001 20H25.9001C24.4001 20 23.1001 18.7 23.1001 17.2V8.9C23.0001 7.3 24.3001 6 25.9001 6H47.2001C48.7001 6 50.0001 7.3 50.0001 8.9V17.2C50.0001 18.7 48.7001 20 47.1001 20ZM25.9001 8C25.4001 8 25.0001 8.4 25.0001 8.9V17.2C25.0001 17.7 25.4001 18.1 25.9001 18.1H47.2001C47.7001 18.1 48.1001 17.7 48.1001 17.2V8.9C48.0001 8.4 47.6001 8 47.1001 8H25.9001Z" fill="#637EA8"/>
    <path d="M41.9 15C41.4 15 41 15.4 41 15.9C41 16.4 41.4 16.8 41.9 16.8C42.4 16.8 42.8 16.4 42.8 15.9C42.8 15.4 42.5 15 41.9 15Z" fill="#E8A15B"/>
    <path d="M38.9 15C38.4 15 38 15.4 38 15.9C38 16.4 38.4 16.8 38.9 16.8C39.4 16.8 39.8 16.4 39.8 15.9C39.8 15.4 39.5 15 38.9 15Z" fill="#E8A15B"/>
    <path d="M44.9 15C44.4 15 44 15.4 44 15.9C44 16.4 44.4 16.8 44.9 16.8C45.4 16.8 45.8 16.4 45.8 15.9C45.8 15.4 45.5 15 44.9 15Z" fill="#E8A15B"/>
</svg>
