<svg width="151" height="49" viewBox="0 0 151 49" fill="none" xmlns="http://www.w3.org/2000/svg">
<g clip-path="url(#clip0)">
<path d="M142.219 39.451V34.4885H147.717V39.451H151.001V22.8326H138.907L138.913 39.451H142.219ZM142.219 31.1655L142.198 26.1556H147.717V31.1655H142.219ZM136.805 39.451L136.787 32.8274L135.157 31.1655L136.787 29.5044L136.805 22.8326H124.698V39.451H136.805ZM128.006 26.1556H133.503V29.5044H128.006V26.1556ZM128.006 32.8274H133.503V36.1283H128.006V32.8274ZM122.34 39.451V22.8326H110.238V39.451H122.34ZM113.556 26.1556H119.053V36.1283H113.556V26.1556ZM100.616 39.451V26.1556H108.594V22.8326H97.31V39.451H100.616ZM94.9477 39.451L94.942 22.8326H82.8565L82.8572 39.451H94.9477ZM86.1658 26.1556H91.6634V36.1283H86.1658V26.1556ZM71.9523 39.451V34.4885H80.7366V22.8322H68.6444V39.4507H71.9523V39.451ZM71.9523 26.1556H77.4496V31.1655H71.9523V26.1556ZM57.5012 39.451L62.9988 28.364V39.451H66.2825V22.8326H62.9988L57.5012 33.8958V22.8322H54.1949V39.4507H57.5012V39.451ZM43.051 39.451V26.1556H48.5484V39.451H51.832V22.8326H39.7441V39.451H43.051Z" fill="#4DC6E3"/>
<path d="M149.391 1.04026V0H141.747V1.04026L141.756 2.54095H149.387L149.391 1.04026ZM39.7383 19.0145H50.3221L50.3278 14.5376H47.3646V16.0155H42.7278V7.01755H47.3646V8.51823H50.3278L50.3332 4.01856H39.7393L39.7383 19.0145ZM59.655 11.5383H55.0169L55.0152 7.01721H59.655V11.5383ZM59.655 19.0145H62.6186V4.01822H52.0294L52.0331 19.0145H55.0169V14.5376H59.655V19.0145ZM72.3712 19.0145H75.3341V4.01822H72.3712V10.0379H67.7334V4.01822H64.7496V19.0145H67.7334V13.0376H72.3712V19.0145ZM84.8746 11.5383H80.2372L80.2338 7.01721H84.8746V11.5383ZM84.8746 19.0145H87.8375V4.01822H77.247L77.252 19.0145H80.2372V14.5376H84.8746V19.0145ZM96.603 7.01721H100.848V4.01822H89.3298V7.01721H93.6188V19.0145H96.603V7.01721ZM109.962 16.0152H105.326V7.01721H109.962V16.0152ZM112.919 19.0145L112.927 4.01822H102.34L102.345 19.0145H112.919ZM122.678 11.5383H118.042V7.01721H122.678V11.5383ZM125.625 14.5376V4.01822H115.057V19.0145H118.042V14.5376H125.625ZM135.181 19.0145H138.144V4.01822H135.181L130.545 13.0627V4.01822H127.561V19.0145H130.545L135.181 9.94902V19.0145ZM143.261 4.01822H140.277V19.0145H143.261L147.898 9.94902V19.0145H150.861V4.01822H147.898L143.261 13.0627V4.01822Z" fill="#4DC6E3"/>
<path d="M139.017 43.0753H138.492L137.888 45.507H137.578V43.0753H137.029V48.9074H137.578V46.0153H137.793L138.54 48.9074H139.105L138.324 45.867L139.017 43.0753Z" fill="#00A8DD"/>
<path d="M52.1052 43.0753H51.5576C51.1345 43.0753 50.7773 43.4255 50.7773 43.8574V48.1253C50.7773 48.5572 51.1345 48.9074 51.5576 48.9074H52.1052C52.5366 48.9074 52.8847 48.5572 52.8847 48.1253V43.8574C52.8847 43.4255 52.5366 43.0753 52.1052 43.0753ZM52.3378 48.1253C52.3378 48.2583 52.2298 48.3577 52.1052 48.3577H51.5576C51.4327 48.3577 51.3253 48.2583 51.3253 48.1253V43.8574C51.3253 43.7322 51.4327 43.6253 51.5576 43.6253H52.1052C52.2298 43.6253 52.3378 43.7322 52.3378 43.8574V48.1253Z" fill="#00A8DD"/>
<path d="M28.7908 47.8987L28.7331 47.8827L28.8904 45.7248V43.0753H28.3418V48.9074H29.0899L30.2338 44.1661L30.2925 44.1838L30.1349 46.2579V48.9074H30.6818V43.0753H29.9441L28.7908 47.8987Z" fill="#00A8DD"/>
<path d="M46.2875 43.0753H44.9766V48.9074H46.2875C46.7193 48.9074 47.0681 48.5572 47.0681 48.1253V46.4906C47.0681 46.2073 46.9192 45.8823 46.5947 45.7662C46.9192 45.6319 47.0681 45.2492 47.0681 44.9659V43.857C47.0681 43.4255 46.7193 43.0753 46.2875 43.0753ZM46.5201 48.1253C46.5201 48.2583 46.4209 48.3577 46.2875 48.3577H45.5248V46.0153H46.039C46.3459 46.0153 46.5201 46.0584 46.5201 46.4326V48.1253ZM46.5201 44.9407C46.5201 45.2583 46.4209 45.507 46.0968 45.507H45.5248V43.6253H46.2875C46.4209 43.6253 46.5201 43.7322 46.5201 43.8574V44.9407Z" fill="#00A8DD"/>
<path d="M34.8376 47.8987L34.7799 47.8827L34.9376 45.7248V43.0753H34.3906V48.9074H35.1367L36.2812 44.1661L36.3393 44.1838L36.1816 46.2579V48.9074H36.7293V43.0753H35.9912L34.8376 47.8987Z" fill="#00A8DD"/>
<path d="M24.0512 45.8582L24.7417 43.0753H24.2174L23.6137 45.507H23.3139V43.0753H22.7656V48.9074H23.3139V46.0153H23.5283L24.2754 48.9074H24.8399L24.0597 45.866L24.0512 45.8582Z" fill="#00A8DD"/>
<path d="M81.2513 42.658H81.7824C82.1143 42.658 82.3465 42.4076 82.3465 42.0751V42.0082H81.9404V42.0992C81.9404 42.1911 81.8651 42.2749 81.7746 42.2749H81.2594C81.1689 42.2749 81.0947 42.1911 81.0947 42.0992V42.0082H80.6875V42.0751C80.6872 42.4076 80.9194 42.658 81.2513 42.658Z" fill="#00A8DD"/>
<path d="M35.2953 42.658H35.8264C36.1579 42.658 36.3908 42.4076 36.3908 42.0751V42.0082H35.9844V42.0992C35.9844 42.1911 35.9101 42.2749 35.8179 42.2749H35.3041C35.2126 42.2749 35.138 42.1911 35.138 42.0992V42.0082H34.7305V42.0751C34.7311 42.4076 34.9644 42.658 35.2953 42.658Z" fill="#00A8DD"/>
<path d="M18.2783 43.0753H17.9215C17.4984 43.0753 17.1426 43.4255 17.1426 43.8574V48.1253C17.1426 48.5572 17.4984 48.9074 17.9215 48.9074H18.2783C18.7094 48.9074 19.0589 48.5572 19.0589 48.1253V47.2327H18.5113V48.1253C18.5113 48.2583 18.4022 48.3577 18.2786 48.3577H17.9218C17.7972 48.3577 17.6898 48.2583 17.6898 48.1253V43.8574C17.6898 43.7322 17.7972 43.6253 17.9218 43.6253H18.2786C18.4113 43.6253 18.5113 43.7322 18.5113 43.8574V44.5085H19.0589V43.8574C19.0585 43.4255 18.7091 43.0753 18.2783 43.0753Z" fill="#00A8DD"/>
<path d="M149.558 42.658H150.089C150.421 42.658 150.654 42.4076 150.654 42.0751V42.0082H150.247V42.0992C150.247 42.1911 150.172 42.2749 150.081 42.2749H149.567C149.476 42.2749 149.401 42.1911 149.401 42.0992V42.0082H148.994V42.0751C148.994 42.4076 149.228 42.658 149.558 42.658Z" fill="#00A8DD"/>
<path d="M1.1364 43.0753H0.780559C0.356856 43.0753 0 43.4255 0 43.8574V48.1253C0 48.5572 0.356856 48.9074 0.780559 48.9074H1.1364C1.56888 48.9074 1.91696 48.5572 1.91696 48.1253V47.2327H1.36868V48.1253C1.36868 48.2583 1.26199 48.3577 1.1364 48.3577H0.780559C0.655643 48.3577 0.547607 48.2583 0.547607 48.1253V43.8574C0.547607 43.7322 0.655643 43.6253 0.780559 43.6253H1.1364C1.26976 43.6253 1.36868 43.7322 1.36868 43.8574V44.5085H1.91662V43.8574C1.91696 43.4255 1.56922 43.0753 1.1364 43.0753Z" fill="#00A8DD"/>
<path d="M12.8554 45.8609L13.5462 43.0753H13.0219L12.4182 45.507H12.1144V43.0753H11.5664V48.9074H12.1144V46.0153H12.3297L13.0765 48.9074H13.6404L12.8598 45.866L12.8554 45.8609Z" fill="#00A8DD"/>
<path d="M6.24765 43.0753L5.45898 48.9074H6.01537L6.25575 47.1906H7.22672L7.4752 48.9074H8.02247L7.23482 43.0753H6.24765ZM6.31348 46.6827L6.7203 43.6158H6.76284L7.16865 46.6827H6.31348Z" fill="#00A8DD"/>
<path d="M102.914 47.8987L102.855 47.8827L103.013 45.7248V43.0753H102.465V48.9074H103.212L104.357 44.1661L104.416 44.1838L104.258 46.2579V48.9074H104.805V43.0753H104.066L102.914 47.8987Z" fill="#00A8DD"/>
<path d="M121.94 46.0153H121.168C121.042 46.0153 120.935 45.9077 120.935 45.7825V43.0753H120.389V45.7503C120.389 46.1822 120.736 46.5324 121.169 46.5324H121.94V48.9077H122.487V43.0757H121.94V46.0153H121.94Z" fill="#00A8DD"/>
<path d="M126.195 48.9074H127.772V48.3574H126.743V46.0153H127.649V45.507H126.743V43.6253H127.78V43.0753H126.195V48.9074Z" fill="#00A8DD"/>
<path d="M56.5938 48.9074H58.1707V48.3574H57.1413V46.0153H58.0461V45.507H57.1413V43.6253H58.1788V43.0753H56.5938V48.9074Z" fill="#00A8DD"/>
<path d="M114.787 47.8987L114.729 47.8827L114.887 45.7248V43.0753H114.338V48.9074H115.085L116.23 44.1661L116.288 44.1838L116.131 46.2579V48.9074H116.678V43.0753H115.94L114.787 47.8987Z" fill="#00A8DD"/>
<path d="M110.083 45.507H109.062V43.0753H108.514V48.9074H109.062V46.0153H110.083V48.9074H110.63V43.0753H110.083V45.507Z" fill="#00A8DD"/>
<path d="M150.256 43.0753L149.103 47.8987L149.045 47.8827L149.202 45.7248V43.0753H148.654V48.9074H149.401L150.546 44.1661L150.604 44.1838L150.446 46.2579V48.9074H150.994V43.0753H150.256Z" fill="#00A8DD"/>
<path d="M143.053 47.8987L142.994 47.8827L143.152 45.7248V43.0753H142.605V48.9074H143.351L144.497 44.1661L144.554 44.1838L144.397 46.2579V48.9074H144.944V43.0753H144.206L143.053 47.8987Z" fill="#00A8DD"/>
<path d="M132.542 43.0753H132.184C131.761 43.0753 131.404 43.4255 131.404 43.8574V48.1253C131.404 48.5572 131.761 48.9074 132.184 48.9074H132.542C132.972 48.9074 133.321 48.5572 133.321 48.1253V47.2327H132.774V48.1253C132.774 48.2583 132.666 48.3577 132.542 48.3577H132.184C132.059 48.3577 131.952 48.2583 131.952 48.1253V43.8574C131.952 43.7322 132.059 43.6253 132.184 43.6253H132.542C132.673 43.6253 132.774 43.7322 132.774 43.8574V44.5085H133.321V43.8574C133.32 43.4255 132.972 43.0753 132.542 43.0753Z" fill="#00A8DD"/>
<path d="M69.1958 45.507H68.1762V43.0753H67.6289V48.9074H68.1762V46.0153H69.1958V48.9074H69.7434V43.0753H69.1958V45.507Z" fill="#00A8DD"/>
<path d="M96.7972 46.7586C96.7972 47.1743 96.7972 48.45 96.3418 48.45V49C97.3462 49 97.3462 47.5658 97.3462 46.5503V43.6249H98.2091V48.907H98.7561V43.075H96.7972V46.7586Z" fill="#00A8DD"/>
<path d="M63.3703 45.507H62.3493V43.0753H61.8027V48.9074H62.3493V46.0153H63.3703V48.9074H63.9179V43.0753H63.3703V45.507Z" fill="#00A8DD"/>
<path d="M74.7644 44.9987H74.0001V43.075H73.4531V48.907H74.7644C75.1952 48.907 75.5443 48.5569 75.5443 48.125V45.7822C75.5443 45.3584 75.2195 44.9987 74.7644 44.9987ZM74.9957 48.1253C74.9957 48.2491 74.8964 48.3577 74.7644 48.3577H74.0001V45.507H74.7644C74.8964 45.507 74.9957 45.6173 74.9957 45.7425V48.1253Z" fill="#00A8DD"/>
<path d="M92.2236 45.8626L92.9157 43.0753H92.3894L91.7864 45.507H91.4802V43.0753H90.9336V48.9074H91.4802V46.0153H91.6959L92.4437 48.9074H93.0072L92.2273 45.866L92.2236 45.8626Z" fill="#00A8DD"/>
<path d="M80.7947 47.8987L80.7363 47.8827L80.893 45.7248V43.0753H80.3457V48.9074H81.0935L82.2377 44.1661L82.2964 44.1838L82.1384 46.2579V48.9074H82.6864V43.0753H81.947L80.7947 47.8987Z" fill="#00A8DD"/>
<path d="M76.6378 43.0753H76.0898V48.9074H76.6378V43.0753Z" fill="#00A8DD"/>
<path d="M0.0195312 4.09613V4.09851L9.6938 13.828L9.6803 4.09613H0.0195312Z" fill="#4DC6E3"/>
<path d="M0.015625 4.09229V17.3419L6.98765 11.1034L0.015625 4.09229Z" fill="#00A8DD"/>
<path d="M9.67578 4.08606L9.68929 13.7012L9.69705 13.8203V13.8159H9.70684L20.1333 4.08606H9.67578Z" fill="#E1E319"/>
<path d="M20.1341 4.08606L17.0996 6.91778L25.5838 13.8159H25.5848V4.08606H20.1341Z" fill="#87D3E8"/>
<path d="M0.0175781 31.6022L9.67058 39.5874H9.69658V26.2078L0.0175781 31.6022Z" fill="#00A8DD"/>
<path d="M25.584 4.08606V13.8159H25.5934L35.2751 4.08708V4.08606H25.584Z" fill="#4DC6E3"/>
<path d="M35.2767 17.3456V4.0871L28.2871 11.1104L35.2767 17.3456Z" fill="#00A8DD"/>
<path d="M25.5938 26.1766V39.5857L35.2748 31.6175L25.5938 26.1766Z" fill="#00A8DD"/>
<path d="M35.2751 39.5874V31.6168L25.5938 39.5857V39.5874H35.2751Z" fill="#4DC6E3"/>
<path d="M25.5957 26.1772L35.2757 31.6174L34.6771 32.1097L35.276 31.6168V17.3438L25.5957 26.1772Z" fill="#87D3E8"/>
<path d="M25.5948 26.1772L35.2748 17.3438V17.3424H25.5938V26.1779H25.5961L25.5948 26.1772Z" fill="#4DC6E3"/>
<path d="M35.2724 17.3424L28.2859 11.1103L29.479 9.91162L25.5938 13.8158H25.5941V17.3424H35.2724Z" fill="#00B9E1"/>
<path d="M17.099 6.91779L9.70703 13.8159H25.5832L17.099 6.91779Z" fill="#29B473"/>
<path d="M9.69699 13.8248L9.69023 13.818L6.98765 11.0999L0.015625 17.3385V17.3425H9.69699" fill="#00B9E1"/>
<path d="M0.015625 39.5874H9.67099L0.015625 31.6005V39.5874Z" fill="#4DC6E3"/>
<path d="M0.015625 17.3478V31.6004L0.0179883 31.6021L9.69699 26.2077V26.2057L0.015625 17.3478Z" fill="#87D3E8"/>
<path d="M0.015625 17.3424V17.3478L9.69665 26.205H9.69699V17.3424H0.015625Z" fill="#4DC6E3"/>
</g>
<defs>
<clipPath id="clip0">
<rect width="151" height="49" fill="white"/>
</clipPath>
</defs>
</svg>
