<?xml version="1.0" encoding="iso-8859-1"?>
<!-- Generator: Adobe Illustrator 17.0.0, SVG Export Plug-In . SVG Version: 6.00 Build 0)  -->
<!DOCTYPE svg PUBLIC "-//W3C//DTD SVG 1.1//EN" "http://www.w3.org/Graphics/SVG/1.1/DTD/svg11.dtd">
<svg version="1.1" id="&#x421;&#x43B;&#x43E;&#x439;_1"
	 xmlns="http://www.w3.org/2000/svg" xmlns:xlink="http://www.w3.org/1999/xlink" x="0px" y="0px" width="27.326px"
	 height="15.146px" viewBox="0 0 27.326 15.146" style="enable-background:new 0 0 27.326 15.146;" xml:space="preserve">
<path style="fill:#314567;" d="M2.82,15.146L2.82,15.146h0.281v-2.983H2.82V15.146L2.82,15.146z M5.826,15.146L5.826,15.146
	l-1.058-1.261c-0.058-0.068-0.144-0.17-0.144-0.268c0-0.026,0.012-0.089,0.113-0.222l0.945-1.231H4.641L3.91,13.288
	c-0.059,0.09-0.125,0.221-0.125,0.332c0,0.128,0.093,0.277,0.159,0.371l0.825,1.155H5.826L5.826,15.146z M8.211,15.146L8.211,15.146
	v-0.741H7.456c-0.292,0-0.544,0-0.661-0.234c-0.023-0.051-0.066-0.162-0.066-0.494c0-0.145,0.012-0.388,0.09-0.537
	c0.12-0.239,0.334-0.234,0.622-0.234h0.727v-0.741H7.017c-0.307,0-0.704,0.038-0.953,0.388c-0.194,0.268-0.237,0.643-0.237,1.142
	c0,0.571,0.086,0.865,0.249,1.087c0.222,0.302,0.505,0.366,0.929,0.366H8.211L8.211,15.146z M9.783,13.391L9.783,13.391v1.755H9.117
	L9.783,13.391L9.783,13.391z M3.101,15.146L3.101,15.146h0.598v-2.983H3.101V15.146L3.101,15.146z M10.836,12.131L10.836,12.131
	v1.134l-0.054-0.168c-0.008-0.021-0.023-0.064-0.035-0.064s-0.027,0.042-0.035,0.064l-0.245,0.754h0.37v0.682h-0.58l-0.214,0.614
	h-0.26v-1.755l0.342-0.9c0.086-0.222,0.202-0.362,0.622-0.362C10.777,12.129,10.807,12.13,10.836,12.131L10.836,12.131z
	 M14.202,12.206L14.202,12.206v1.998l-0.344-1.031c-0.008-0.017-0.023-0.073-0.043-0.073c-0.02,0-0.035,0.056-0.043,0.073
	l-0.657,1.973h-0.739h-0.195h-0.731l-0.214-0.614h-0.4v-0.682h0.19l-0.19-0.586v-1.134c0.224,0.009,0.419,0.067,0.533,0.361
	l0.911,2.4l0.948-2.455c0.113-0.29,0.42-0.307,0.587-0.307C13.917,12.129,14.071,12.136,14.202,12.206L14.202,12.206z
	 M15.255,14.644L15.255,14.644v0.502h-0.74l-0.314-0.942v-1.998c0.083,0.045,0.157,0.117,0.201,0.23L15.255,14.644L15.255,14.644z
	 M15.255,15.146L15.255,15.146v-0.502l0.194,0.502H15.255L15.255,15.146z M16.889,13.241L16.889,13.241v0.673h-0.484v0.311
	c0,0.043,0,0.098,0.023,0.132c0.031,0.047,0.093,0.047,0.144,0.047h0.317v0.741h-0.974c-0.117,0-0.218-0.073-0.276-0.145
	c-0.097-0.124-0.113-0.281-0.113-0.418v-2.42h0.879v1.078H16.889L16.889,13.241z M16.889,15.146L16.889,15.146v-0.741h0.138
	c0.136,0,0.206,0.008,0.257-0.026c0.043-0.026,0.089-0.098,0.089-0.239c0-0.077-0.008-0.166-0.105-0.209
	c-0.054-0.021-0.12-0.017-0.226-0.017h-0.154v-0.673h0.737c0.16,0,0.405,0.022,0.544,0.341c0.09,0.205,0.105,0.413,0.105,0.626
	c0,0.209-0.019,0.469-0.128,0.648c-0.074,0.119-0.253,0.29-0.544,0.29H16.889L16.889,15.146z M19.651,12.432L19.651,12.432v0.754
	c-0.092,0.02-0.166,0.067-0.204,0.162c-0.023,0.055-0.035,0.136-0.035,0.29c0,0.102,0.008,0.179,0.031,0.247
	c0.034,0.095,0.093,0.162,0.208,0.191v0.759h-0.286c-0.284,0-0.587-0.021-0.735-0.349c-0.097-0.213-0.121-0.609-0.121-0.869
	c0-0.567,0.105-0.793,0.148-0.873c0.163-0.294,0.439-0.311,0.817-0.311H19.651L19.651,12.432z M21.008,12.432L21.008,12.432v0.754
	c-0.041-0.009-0.085-0.013-0.13-0.013h-0.109v0.92h0.078c0.063,0,0.117-0.006,0.161-0.018v0.759h-0.239v0.311H19.89v-0.311h-0.239
	v-0.759c0.045,0.012,0.098,0.018,0.161,0.018h0.078v-0.92h-0.109c-0.046,0-0.09,0.004-0.13,0.013v-0.754h0.239v-0.268h0.879v0.268
	H21.008L21.008,12.432z M21.572,12.454L21.572,12.454v2.364c-0.091,0.014-0.185,0.017-0.278,0.017h-0.286v-0.759
	c0.115-0.03,0.175-0.096,0.208-0.191c0.023-0.068,0.031-0.145,0.031-0.247c0-0.154-0.012-0.234-0.035-0.29
	c-0.038-0.094-0.113-0.142-0.204-0.162v-0.754h0.177C21.329,12.432,21.459,12.434,21.572,12.454L21.572,12.454z M21.572,14.818
	L21.572,14.818v-2.364c0.185,0.031,0.329,0.107,0.43,0.289c0.043,0.081,0.148,0.307,0.148,0.873c0,0.26-0.024,0.656-0.121,0.869
	C21.93,14.706,21.76,14.788,21.572,14.818L21.572,14.818z M23.819,12.129L23.819,12.129v0.903h0c-0.011,0-0.027,0.042-0.035,0.064
	l-0.245,0.754h0.28v0.682h-0.49l-0.214,0.614h-0.926l1.008-2.655C23.282,12.27,23.399,12.129,23.819,12.129L23.819,12.129
	L23.819,12.129z M23.819,14.532v-0.682h0.28l-0.245-0.754c-0.008-0.021-0.023-0.063-0.035-0.064v-0.903
	c0.261,0,0.494,0.03,0.622,0.362l1.007,2.655h-0.926l-0.214-0.614H23.819L23.819,14.532z"/>
<path style="fill:#314567;" d="M0,11.961l0.604,0.893L1.18,12.55l-0.667-0.858L0,11.961L0,11.961z M1.062,11.961l0.604,0.893
	l0.576-0.304l-0.667-0.858L1.062,11.961L1.062,11.961z"/>
<path style="fill:#314567;" d="M27.326,11.961l-0.604,0.893l-0.576-0.304l0.667-0.858L27.326,11.961L27.326,11.961z M26.265,11.961
	l-0.604,0.893l-0.576-0.304l0.667-0.858L26.265,11.961L26.265,11.961z"/>
<path style="fill-rule:evenodd;clip-rule:evenodd;fill:#314567;" d="M11.049,3.216h0.636c0.079,0,0.144,0.065,0.144,0.144v0.636
	c0,0.079-0.065,0.144-0.144,0.144h-0.636c-0.079,0-0.144-0.065-0.144-0.144V3.36C10.905,3.281,10.97,3.216,11.049,3.216
	L11.049,3.216z"/>
<path style="fill-rule:evenodd;clip-rule:evenodd;fill:#314567;" d="M12.407,3.216h0.636c0.079,0,0.144,0.065,0.144,0.144v0.636
	c0,0.079-0.065,0.144-0.144,0.144h-0.636c-0.079,0-0.144-0.065-0.144-0.144V3.36C12.263,3.281,12.328,3.216,12.407,3.216
	L12.407,3.216z"/>
<path style="fill:#314567;" d="M14.026,4.527h7.013l0,0v0.001c0.098,0,0.186,0.04,0.25,0.104c0.064,0.064,0.103,0.152,0.103,0.25h0
	v0v1.46l0,0h0c0,0.098-0.04,0.186-0.104,0.25c-0.064,0.064-0.152,0.103-0.249,0.103v0l0,0h-7.013V6.468h7.013l0,0v0
	c0.035,0,0.067-0.014,0.09-0.038c0.023-0.023,0.037-0.054,0.037-0.089h0l0,0v-1.46v0h0c0-0.035-0.014-0.066-0.038-0.09
	c-0.023-0.023-0.055-0.037-0.089-0.037v0.001l0,0h-7.013V4.527L14.026,4.527z M7.014,4.527L7.014,4.527h7.012v0.227H7.014h0V4.754
	c-0.035,0-0.066,0.014-0.09,0.038C6.901,4.815,6.886,4.846,6.886,4.881h0.001v0v1.46v0H6.886c0,0.035,0.014,0.066,0.038,0.09
	c0.023,0.023,0.055,0.037,0.089,0.037v0h0h7.012v0.227H7.014h0v0c-0.097,0-0.186-0.04-0.25-0.104C6.7,6.526,6.66,6.438,6.66,6.341h0
	v0v-1.46v0h0c0-0.097,0.04-0.186,0.104-0.25C6.828,4.567,6.916,4.528,7.014,4.527L7.014,4.527L7.014,4.527L7.014,4.527z"/>
<path style="fill:#314567;" d="M11.895,2.588h2.801h0v0.001c0.099,0,0.19,0.04,0.255,0.106c0.065,0.065,0.105,0.155,0.105,0.255
	h0.001l0,0V5.41l0,0h-0.001c0,0.1-0.041,0.19-0.106,0.255c-0.065,0.065-0.155,0.105-0.255,0.105v0.001h0h-2.801V5.544h2.801h0v0.001
	c0.037,0,0.07-0.015,0.095-0.04c0.024-0.024,0.039-0.058,0.04-0.094H14.83l0,0V2.949l0,0h0.001c0-0.037-0.015-0.07-0.04-0.095
	c-0.024-0.024-0.058-0.04-0.094-0.04v0.001h0h-2.801V2.588L11.895,2.588z M9.094,2.588L9.094,2.588h2.801v0.227H9.094h0V2.815
	c-0.037,0-0.07,0.015-0.095,0.04C8.974,2.879,8.959,2.912,8.959,2.949h0l0,0V5.41l0,0h0c0,0.037,0.015,0.07,0.04,0.095
	C9.023,5.53,9.057,5.545,9.094,5.545V5.544l0,0h2.801v0.227H9.094l0,0V5.771c-0.1,0-0.19-0.04-0.255-0.106
	C8.773,5.6,8.733,5.51,8.733,5.41h0l0,0V2.949l0,0h0c0-0.1,0.041-0.19,0.106-0.255C8.904,2.629,8.994,2.588,9.094,2.588L9.094,2.588
	L9.094,2.588L9.094,2.588z"/>
<path style="fill:#314567;" d="M15.782,0.001h1.647V0l0,0v0.001c0.099,0,0.189,0.04,0.254,0.104
	c0.066,0.064,0.106,0.153,0.106,0.251h0.001v0v6.855l0,0h-0.001c0,0.098-0.041,0.187-0.106,0.252
	c-0.065,0.064-0.155,0.104-0.253,0.104v0.001h0V7.566h-1.647V7.34h1.647V7.339h0V7.34c0.037,0,0.07-0.015,0.095-0.039
	c0.024-0.023,0.039-0.055,0.039-0.09h-0.001l0,0V0.356v0h0.001c0-0.035-0.015-0.067-0.039-0.09
	c-0.024-0.024-0.058-0.039-0.095-0.039v0.001l0,0V0.227h-1.647V0.001L15.782,0.001z M14.134,0.001L14.134,0.001h1.647v0.226h-1.647
	v0.001l0,0V0.227c-0.037,0-0.071,0.015-0.095,0.039c-0.024,0.024-0.039,0.056-0.039,0.09h0l0,0v6.855l0,0h0
	c0,0.035,0.015,0.067,0.039,0.09c0.024,0.024,0.058,0.039,0.095,0.039V7.339l0,0V7.34h1.647v0.226h-1.647v0.001l0,0V7.566
	c-0.099,0-0.189-0.04-0.254-0.104c-0.065-0.064-0.106-0.153-0.106-0.252h-0.001l0,0V0.356l0,0h0.001
	c0-0.099,0.041-0.188,0.106-0.252C13.946,0.04,14.035,0.001,14.134,0.001L14.134,0.001L14.134,0.001L14.134,0.001L14.134,0.001z"/>
<path style="fill:#314567;" d="M19.497,1.928h0.667l0,0v0c0.103,0,0.198,0.036,0.268,0.094c0.075,0.063,0.122,0.151,0.122,0.249
	h0.001v0v3.235l0,0h-0.001c0,0.099-0.047,0.187-0.122,0.25c-0.069,0.058-0.164,0.094-0.268,0.094v0h0h-0.667V5.624h0.667h0v0
	c0.049,0,0.092-0.016,0.123-0.041c0.025-0.021,0.041-0.048,0.041-0.076h-0.001l0,0V2.272v0h0.001c0-0.028-0.016-0.055-0.041-0.075
	c-0.031-0.026-0.074-0.042-0.123-0.042v0.001l0,0h-0.667V1.928L19.497,1.928z M18.83,1.928L18.83,1.928h0.667v0.227H18.83h0V2.155
	c-0.049,0-0.092,0.016-0.123,0.041c-0.025,0.021-0.041,0.048-0.041,0.076h0.001v0v3.235l0,0h-0.001c0,0.028,0.016,0.055,0.041,0.076
	c0.031,0.025,0.074,0.041,0.123,0.041v0l0,0h0.667v0.227H18.83l0,0v0c-0.103,0-0.198-0.036-0.268-0.094
	c-0.075-0.063-0.122-0.151-0.122-0.25h-0.001l0,0V2.272v0h0.001c0-0.099,0.047-0.187,0.122-0.249
	C18.631,1.964,18.726,1.928,18.83,1.928L18.83,1.928L18.83,1.928L18.83,1.928z"/>
<path style="fill-rule:evenodd;clip-rule:evenodd;fill:#314567;" d="M9.691,3.216h0.636c0.079,0,0.144,0.065,0.144,0.144v0.636
	c0,0.079-0.065,0.144-0.144,0.144H9.691c-0.079,0-0.144-0.065-0.144-0.144V3.36C9.547,3.281,9.612,3.216,9.691,3.216L9.691,3.216z"
	/>
<path style="fill-rule:evenodd;clip-rule:evenodd;fill:#314567;" d="M14.757,0.973h0.636c0.079,0,0.144,0.065,0.144,0.144v0.636
	c0,0.079-0.065,0.144-0.144,0.144h-0.636c-0.079,0-0.144-0.065-0.144-0.144V1.116C14.614,1.037,14.678,0.973,14.757,0.973
	L14.757,0.973z"/>
<path style="fill-rule:evenodd;clip-rule:evenodd;fill:#314567;" d="M19.179,2.847h0.636c0.079,0,0.144,0.065,0.144,0.144v0.636
	c0,0.079-0.065,0.144-0.144,0.144h-0.636c-0.079,0-0.144-0.065-0.144-0.144V2.99C19.035,2.911,19.1,2.847,19.179,2.847L19.179,2.847
	z"/>
<path style="fill-rule:evenodd;clip-rule:evenodd;fill:#314567;" d="M7.483,5.156H8.12c0.079,0,0.144,0.065,0.144,0.144v0.636
	c0,0.079-0.065,0.144-0.144,0.144H7.483c-0.079,0-0.144-0.065-0.144-0.144V5.299C7.339,5.22,7.404,5.156,7.483,5.156L7.483,5.156z"
	/>
<path style="fill-rule:evenodd;clip-rule:evenodd;fill:#314567;" d="M16.116,0.973h0.636c0.079,0,0.144,0.065,0.144,0.144v0.636
	c0,0.079-0.065,0.144-0.144,0.144h-0.636c-0.079,0-0.144-0.065-0.144-0.144V1.116C15.972,1.037,16.036,0.973,16.116,0.973
	L16.116,0.973z"/>
<path style="fill:#EF7D00;stroke:#EF7D00;stroke-width:0.216;stroke-miterlimit:22.9256;" d="M7,10.079V8.922
	c0-0.025,0-0.054,0.011-0.069c0.019-0.025,0.069-0.021,0.096-0.021h0.748V8.74H7.046c-0.033,0-0.075,0.006-0.111,0.042
	C6.901,8.817,6.897,8.857,6.897,8.891v1.188H7L7,10.079z M12.937,10.079h0.103V8.74h-0.103V10.079L12.937,10.079z M14.058,10.079
	l-0.74-0.57c-0.042-0.032-0.099-0.074-0.099-0.116c0-0.04,0.059-0.078,0.084-0.098l0.685-0.555h-0.149l-0.627,0.505
	c-0.044,0.035-0.095,0.092-0.095,0.145s0.048,0.117,0.117,0.17l0.672,0.518H14.058L14.058,10.079z"/>
<path style="fill:#314567;stroke:#2E4C6D;stroke-width:0.216;stroke-miterlimit:22.9256;" d="M7.668,10.079h0.287
	c0.164,0,0.279-0.031,0.359-0.151c0.073-0.111,0.081-0.243,0.081-0.371c0-0.12-0.004-0.266-0.107-0.375
	C8.188,9.075,8.052,9.065,7.986,9.065H7.729c-0.029,0-0.075,0.002-0.113,0.031C7.601,9.107,7.568,9.138,7.568,9.192v1.213h0.099
	V10.079L7.668,10.079z M7.668,9.989V9.205c0-0.013,0.002-0.025,0.015-0.036c0.008-0.006,0.021-0.013,0.031-0.013h0.293
	c0.092,0,0.197,0.04,0.245,0.147C8.274,9.354,8.288,9.431,8.288,9.57c0,0.132-0.012,0.233-0.057,0.304
	C8.178,9.953,8.087,9.989,7.995,9.989H7.668L7.668,9.989z M9.422,9.065H9.315l-0.4,0.889L8.54,9.065H8.433l0.429,1.008l-0.153,0.333
	h0.107L9.422,9.065L9.422,9.065z M9.623,9.065c-0.063,0-0.092,0.027-0.103,0.044C9.5,9.138,9.498,9.18,9.498,9.213v0.867h0.099
	V9.213c0-0.017,0.002-0.04,0.01-0.048c0.006-0.006,0.025-0.01,0.032-0.01h0.52c0.008,0,0.027,0.004,0.032,0.01
	c0.008,0.008,0.01,0.031,0.01,0.048v0.867h0.1V9.213c0-0.032-0.002-0.075-0.021-0.103c-0.012-0.017-0.04-0.044-0.103-0.044H9.623
	L9.623,9.065z M10.617,9.065c-0.063,0-0.092,0.027-0.103,0.044c-0.019,0.029-0.021,0.071-0.021,0.103v0.867h0.1V9.213
	c0-0.017,0.002-0.04,0.009-0.048c0.006-0.006,0.025-0.01,0.033-0.01h0.52c0.008,0,0.027,0.004,0.033,0.01
	c0.008,0.008,0.01,0.031,0.01,0.048v0.867h0.099V9.213c0-0.032-0.002-0.075-0.021-0.103c-0.012-0.017-0.04-0.044-0.103-0.044H10.617
	L10.617,9.065z M11.526,9.065v0.09h0.492c0.048,0,0.086,0.021,0.107,0.046c0.025,0.031,0.038,0.088,0.038,0.12v0.151h-0.44
	c-0.058,0-0.134,0.008-0.19,0.054c-0.073,0.061-0.084,0.157-0.084,0.239c0,0.061,0.006,0.199,0.09,0.268
	c0.055,0.044,0.126,0.046,0.184,0.046h0.39c0.034,0,0.084,0,0.115-0.029c0.033-0.031,0.034-0.079,0.034-0.105V9.339
	c0-0.061-0.008-0.145-0.061-0.203c-0.04-0.044-0.109-0.071-0.178-0.071H11.526L11.526,9.065z M12.163,9.563v0.381
	c0,0.013,0,0.023-0.013,0.034c-0.013,0.012-0.032,0.012-0.044,0.012h-0.409c-0.042,0-0.079-0.019-0.1-0.044
	c-0.034-0.042-0.04-0.115-0.04-0.176c0-0.071,0.008-0.124,0.033-0.157c0.015-0.021,0.052-0.05,0.111-0.05H12.163L12.163,9.563z
	 M13.982,9.567c0,0.22,0.061,0.344,0.126,0.409c0.111,0.109,0.285,0.115,0.375,0.115c0.09,0,0.264-0.006,0.375-0.115
	c0.065-0.065,0.126-0.189,0.126-0.409c0-0.113-0.015-0.293-0.126-0.402c-0.1-0.097-0.247-0.111-0.375-0.111
	s-0.275,0.014-0.375,0.111C13.997,9.274,13.982,9.454,13.982,9.567L13.982,9.567z M14.089,9.576c0-0.088,0-0.249,0.081-0.338
	c0.078-0.086,0.218-0.094,0.314-0.094c0.096,0,0.235,0.008,0.314,0.094c0.08,0.09,0.08,0.251,0.08,0.338
	c0,0.082,0.002,0.235-0.082,0.327c-0.08,0.088-0.208,0.098-0.312,0.098c-0.103,0-0.231-0.009-0.312-0.098
	C14.087,9.811,14.089,9.658,14.089,9.576L14.089,9.576z M16.122,9.194c0.002-0.006,0.008-0.017,0.013-0.017
	c0.008,0,0.008,0.01,0.008,0.013v0.89h0.099v-0.92c0-0.067-0.034-0.105-0.095-0.105c-0.054,0-0.079,0.023-0.098,0.069l-0.339,0.815
	c-0.009,0.021-0.015,0.034-0.021,0.034c-0.006,0-0.011-0.013-0.021-0.034L15.33,9.123c-0.019-0.046-0.044-0.069-0.098-0.069
	c-0.061,0-0.095,0.038-0.095,0.105v0.92h0.099V9.19c0-0.004,0-0.013,0.008-0.013c0.006,0,0.011,0.012,0.013,0.017l0.34,0.824
	c0.021,0.052,0.063,0.073,0.092,0.073s0.071-0.022,0.092-0.073L16.122,9.194L16.122,9.194z M16.558,9.065
	c-0.063,0-0.092,0.027-0.103,0.044c-0.019,0.029-0.021,0.071-0.021,0.103v0.867h0.1V9.213c0-0.017,0.002-0.04,0.01-0.048
	c0.006-0.006,0.025-0.01,0.032-0.01h0.52c0.008,0,0.027,0.004,0.032,0.01c0.008,0.008,0.01,0.031,0.01,0.048v0.867h0.099V9.213
	c0-0.032-0.002-0.075-0.021-0.103c-0.012-0.017-0.04-0.044-0.103-0.044H16.558L16.558,9.065z M17.467,9.065v0.09h0.492
	c0.048,0,0.086,0.021,0.107,0.046c0.025,0.031,0.038,0.088,0.038,0.12v0.151h-0.44c-0.058,0-0.134,0.008-0.189,0.054
	c-0.073,0.061-0.084,0.157-0.084,0.239c0,0.061,0.006,0.199,0.09,0.268c0.056,0.044,0.126,0.046,0.184,0.046h0.39
	c0.035,0,0.084,0,0.115-0.029c0.033-0.031,0.034-0.079,0.034-0.105V9.339c0-0.061-0.007-0.145-0.061-0.203
	c-0.04-0.044-0.109-0.071-0.178-0.071H17.467L17.467,9.065z M18.104,9.563v0.381c0,0.013,0,0.023-0.014,0.034
	c-0.013,0.012-0.032,0.012-0.044,0.012h-0.409c-0.042,0-0.078-0.019-0.099-0.044c-0.034-0.042-0.04-0.115-0.04-0.176
	c0-0.071,0.008-0.124,0.032-0.157c0.015-0.021,0.052-0.05,0.111-0.05H18.104L18.104,9.563z M19.202,10.079V9.065h-0.1v0.446h-0.608
	V9.065h-0.1v1.014h0.1V9.601h0.608v0.478H19.202L19.202,10.079z M20.24,10.079V9.171c0-0.029-0.002-0.117-0.088-0.117
	c-0.046,0-0.08,0.021-0.105,0.061l-0.522,0.832c-0.008,0.014-0.013,0.025-0.021,0.025c-0.012,0-0.012-0.015-0.012-0.025V9.065
	h-0.099v0.92c0,0.067,0.034,0.106,0.092,0.106c0.05,0,0.077-0.023,0.109-0.073l0.516-0.821c0.013-0.021,0.019-0.023,0.021-0.023
	c0.012,0,0.01,0.012,0.01,0.023v0.882H20.24L20.24,10.079z M21.279,10.079V9.171c0-0.029-0.002-0.117-0.088-0.117
	c-0.046,0-0.08,0.021-0.105,0.061l-0.522,0.832c-0.008,0.014-0.013,0.025-0.021,0.025c-0.012,0-0.012-0.015-0.012-0.025V9.065
	h-0.099v0.92c0,0.067,0.034,0.106,0.092,0.106c0.05,0,0.077-0.023,0.109-0.073l0.516-0.821c0.013-0.021,0.019-0.023,0.021-0.023
	c0.012,0,0.01,0.012,0.01,0.023v0.882H21.279L21.279,10.079z M20.862,8.918c-0.058,0-0.099-0.015-0.124-0.038
	c-0.019-0.017-0.04-0.052-0.05-0.082h-0.115c0.015,0.05,0.048,0.113,0.094,0.151c0.055,0.048,0.126,0.061,0.195,0.061
	s0.139-0.013,0.195-0.061c0.046-0.038,0.079-0.101,0.094-0.151h-0.115c-0.01,0.031-0.031,0.065-0.05,0.082
	C20.961,8.903,20.919,8.918,20.862,8.918L20.862,8.918z"/>
</svg>
