<svg width="60" height="60" viewBox="0 0 60 60" fill="none" xmlns="http://www.w3.org/2000/svg">
    <path d="M48.4 15.2001C48.1 15.1001 47.8 15.1001 47.5 15.1001C47.2 15.1001 46.8 15.2001 46.5 15.2001C44.8 15.6001 43.5 17.2001 43.5 19.0001C43.5 20.1001 43.9 21.0001 44.6 21.7001C45 22.2001 45.6 22.5001 46.2 22.7001C46.6 22.8001 47 22.9001 47.5 22.9001C49.7 22.9001 51.5 21.1001 51.5 18.9001C51.5 17.1001 50.2 15.6001 48.4 15.2001ZM47.5 21.0001C47.4 21.0001 47.3 21.0001 47.2 21.0001C46.5 20.9001 45.9 20.5001 45.6 19.8001C45.5 19.5001 45.4 19.2001 45.4 18.9001C45.4 18.2001 45.8 17.5001 46.3 17.2001C46.6 17.0001 47 16.9001 47.4 16.9001C47.7 16.9001 48 17.0001 48.2 17.1001C48.9 17.4001 49.4 18.1001 49.4 19.0001C49.5 20.1001 48.6 21.0001 47.5 21.0001Z" fill="#E8A15B"/>
    <path d="M56.6 51.8001H51.5V49.0001H52.3C54.1 49.0001 55.5 47.6001 55.5 45.8001V45.2001C55.5 43.4001 54.1 42.0001 52.3 42.0001H51.5V32.2001C55.6 30.6001 58.5 26.6001 58.5 22.0001C58.5 16.0001 53.7 11.1001 47.7 11.1001C47.9 11.7001 48.1 12.4001 48.2 13.0001C52.9 13.4001 56.6 17.3001 56.6 22.0001C56.6 25.6001 54.5 28.7001 51.5 30.1001C50.9 30.4001 50.3 30.6001 49.6 30.8001V32.7001V43.0001C49.6 43.5001 50 44.0001 50.6 44.0001H52.3C53 44.0001 53.6 44.6001 53.6 45.3001V45.9001C53.6 46.6001 53 47.2001 52.3 47.2001H50.6C50.1 47.2001 49.6 47.6001 49.6 48.2001V52.9001C49.6 53.4001 50 53.9001 50.6 53.9001H56.6V56.3001H45.6V32.8001V30.9001C44.9 30.8001 44.3 30.5001 43.7 30.3001C42.4 29.7001 41.3 28.8001 40.4 27.7001C40 27.2001 39.7 26.7001 39.4 26.1001C38.8 24.9001 38.4 23.5001 38.4 22.1001C38.4 17.5001 41.8 13.7001 46.2 13.1001C46.1 12.5001 45.9 11.9001 45.6 11.3001C40.4 12.2001 36.5 16.7001 36.5 22.1001C36.5 23.8001 36.9 25.3001 37.5 26.7001C37.8 27.3001 38.1 27.9001 38.5 28.4001C39.8 30.2001 41.6 31.6001 43.7 32.3001V57.0001C43.7 57.5001 44.1 58.0001 44.7 58.0001H56.6C57.6 58.0001 58.5 57.2001 58.5 56.1001V53.7001C58.5 52.7001 57.6 51.8001 56.6 51.8001Z" fill="#E8A15B"/>
    <path d="M16.5 58C16 58 15.5 57.6 15.5 57V41C15.5 40.5 15.9 40 16.5 40H26.5C27 40 27.5 40.4 27.5 41V56C27.5 56.5 27.1 57 26.5 57C25.9 57 25.5 56.6 25.5 56V42H17.4V57C17.5 57.5 17.1 58 16.5 58Z" fill="#637EA8"/>
    <path d="M36.5 58.0001H6.29999C5.79999 58.0001 5.29999 57.6001 5.29999 57.0001V36.1001C5.29999 35.6001 5.69999 35.1001 6.29999 35.1001C6.89999 35.1001 7.29999 35.5001 7.29999 36.1001V56.1001H35.6V36.1001C35.6 35.6001 36 35.1001 36.6 35.1001C37.2 35.1001 37.6 35.5001 37.6 36.1001V57.0001C37.5 57.5001 37 58.0001 36.5 58.0001Z" fill="#3F496A"/>
    <path d="M41.1 35.3L34.7 28.9L32.7 26.9L22.5 16.7L22.1 16.3C21.7 15.9 21.1 15.9 20.8 16.3L20.6 16.5L1.79999 35.3C1.49999 35.6 1.39999 36 1.59999 36.3C1.79999 36.6 2.09999 36.9 2.49999 36.9L11.9 37C12.2 37 12.4 36.9 12.6 36.7L21.9 27.4L31.1 36.6C31.3 36.8 31.5 36.9 31.8 36.9H40.4C40.8 36.9 41.1 36.7 41.3 36.3C41.4 36 41.4 35.6 41.1 35.3ZM32.2 35L22.6 25.4C22.2 25 21.6 25 21.3 25.4L11.6 35.1L4.89999 35L21 18.8L21.5 18.3L23.7 20.5L28.7 25.5L31.8 28.6L38.1 34.9H32.2V35Z" fill="#3F496A"/>
    <path d="M19.5 48C18.9 48 18.5 48.4 18.5 49C18.5 49.6 18.9 50 19.5 50C20.1 50 20.5 49.6 20.5 49C20.5 48.4 20.1 48 19.5 48Z" fill="#E8A15B"/>
    <path d="M48.4 15.2001C48.4 14.5001 48.3 13.7001 48.2 13.0001C48.1 12.3001 47.9 11.7001 47.7 11.1001C45.8 5.9001 40.6 2.1001 34.5 2.1001C26.8 2.1001 20.5 8.1001 20.5 15.6001C20.5 16.0001 20.5 16.3001 20.6 16.7001L20.8 16.5001C21.2 16.1001 21.8 16.1001 22.1 16.5001L22.5 16.9001C22.5 16.5001 22.4 16.1001 22.4 15.7001C22.4 9.3001 27.8 4.2001 34.4 4.2001C39.5 4.2001 43.8 7.2001 45.6 11.5001C45.8 12.1001 46 12.7001 46.2 13.3001C46.3 13.9001 46.4 14.6001 46.4 15.2001V17.1001C46.4 17.6001 46.8 18.1001 47.4 18.1001C48 18.1001 48.4 17.7001 48.4 17.1001V15.6001C48.5 15.3001 48.4 15.2001 48.4 15.2001Z" fill="#637EA8"/>
</svg>
