<svg width="60" height="60" viewBox="0 0 60 60" fill="none" xmlns="http://www.w3.org/2000/svg">
    <path d="M17.2 13.5H12.8C12.3 13.5 11.8 13.1 11.8 12.5V8.5C11.8 8 12.2 7.5 12.8 7.5H17.2C17.7 7.5 18.2 7.9 18.2 8.5V12.5C18.2 13 17.7 13.5 17.2 13.5ZM13.7 11.5H16.2V9.5H13.7V11.5Z" fill="#E8A15B"/>
    <path d="M28.2001 13.5H23.8C23.3 13.5 22.8 13.1 22.8 12.5V8.5C22.8 8 23.2 7.5 23.8 7.5H28.2001C28.7001 7.5 29.2001 7.9 29.2001 8.5V12.5C29.2001 13 28.7001 13.5 28.2001 13.5ZM24.7001 11.5H27.2001V9.5H24.7001V11.5Z" fill="#E8A15B"/>
    <path d="M17.2 22.5H12.8C12.3 22.5 11.8 22.1 11.8 21.5V17.5C11.8 17 12.2 16.5 12.8 16.5H17.2C17.7 16.5 18.2 16.9 18.2 17.5V21.5C18.2 22 17.7 22.5 17.2 22.5ZM13.7 20.5H16.2V18.4H13.7V20.5Z" fill="#E8A15B"/>
    <path d="M28.2001 22.5H23.8C23.3 22.5 22.8 22.1 22.8 21.5V17.5C22.8 17 23.2 16.5 23.8 16.5H28.2001C28.7001 16.5 29.2001 16.9 29.2001 17.5V21.5C29.2001 22 28.7001 22.5 28.2001 22.5ZM24.7001 20.5H27.2001V18.4H24.7001V20.5Z" fill="#E8A15B"/>
    <path d="M17.2 31.5H12.8C12.3 31.5 11.8 31.1 11.8 30.5V26.5C11.8 26 12.2 25.5 12.8 25.5H17.2C17.7 25.5 18.2 25.9 18.2 26.5V30.5C18.2 31 17.7 31.5 17.2 31.5ZM13.7 29.5H16.2V27.4H13.7V29.5Z" fill="#E8A15B"/>
    <path d="M28.2001 31.5H23.8C23.3 31.5 22.8 31.1 22.8 30.5V26.5C22.8 26 23.2 25.5 23.8 25.5H28.2001C28.7001 25.5 29.2001 25.9 29.2001 26.5V30.5C29.2001 31 28.7001 31.5 28.2001 31.5ZM24.7001 29.5H27.2001V27.4H24.7001V29.5Z" fill="#E8A15B"/>
    <path d="M17.2 40.5H12.8C12.3 40.5 11.8 40.1 11.8 39.5V35.5C11.8 35 12.2 34.5 12.8 34.5H17.2C17.7 34.5 18.2 34.9 18.2 35.5V39.5C18.2 40 17.7 40.5 17.2 40.5ZM13.7 38.5H16.2V36.4H13.7V38.5Z" fill="#E8A15B"/>
    <path d="M28.2001 40.5H23.8C23.3 40.5 22.8 40.1 22.8 39.5V35.5C22.8 35 23.2 34.5 23.8 34.5H28.2001C28.7001 34.5 29.2001 34.9 29.2001 35.5V39.5C29.2001 40 28.7001 40.5 28.2001 40.5ZM24.7001 38.5H27.2001V36.4H24.7001V38.5Z" fill="#E8A15B"/>
    <path d="M46.2001 22.5H41.8C41.3 22.5 40.8 22.1 40.8 21.5V17.5C40.8 17 41.2 16.5 41.8 16.5H46.2001C46.7001 16.5 47.2001 16.9 47.2001 17.5V21.5C47.2001 22 46.7001 22.5 46.2001 22.5ZM42.7001 20.5H45.2001V18.4H42.7001V20.5Z" fill="#E8A15B"/>
    <path d="M46.2001 31.5H41.8C41.3 31.5 40.8 31.1 40.8 30.5V26.5C40.8 26 41.2 25.5 41.8 25.5H46.2001C46.7001 25.5 47.2001 25.9 47.2001 26.5V30.5C47.2001 31 46.7001 31.5 46.2001 31.5ZM42.7001 29.5H45.2001V27.4H42.7001V29.5Z" fill="#E8A15B"/>
    <path d="M46.2001 40.5H41.8C41.3 40.5 40.8 40.1 40.8 39.5V35.5C40.8 35 41.2 34.5 41.8 34.5H46.2001C46.7001 34.5 47.2001 34.9 47.2001 35.5V39.5C47.2001 40 46.7001 40.5 46.2001 40.5ZM42.7001 38.5H45.2001V36.4H42.7001V38.5Z" fill="#E8A15B"/>
    <path d="M46.2001 49.5H41.8C41.3 49.5 40.8 49.1 40.8 48.5V44.5C40.8 44 41.2 43.5 41.8 43.5H46.2001C46.7001 43.5 47.2001 43.9 47.2001 44.5V48.5C47.2001 49 46.7001 49.5 46.2001 49.5ZM42.7001 47.5H45.2001V45.4H42.7001V47.5Z" fill="#E8A15B"/>
    <path d="M54 10H53H35V11.9H53V57.9H55V11C55 10.5 54.5 10 54 10Z" fill="#3F496A"/>
    <path d="M34 1H33H7C6.5 1 6 1.5 6 2V57H8V3H33V47C33 47.5 33.4 48 34 48C34.6 48 35 47.6 35 47V13.9V12V3V2C35 1.5 34.5 1 34 1Z" fill="#3F496A"/>
    <path d="M16 46H26V57H28V45C28 44.5 27.6 44 27 44H15C14.5 44 14 44.4 14 45V57H16V46Z" fill="#637EA8"/>
    <path d="M57.5 57H55H53H28H26H16H14H8H6H2.5C2 57 1.5 57.4 1.5 58C1.5 58.6 1.9 59 2.5 59H6H8H14H16H26H28H53H55H57.5C58 59 58.5 58.6 58.5 58C58.5 57.4 58 57 57.5 57Z" fill="#3F496A"/>
</svg>
