<svg width="60" height="60" viewBox="0 0 60 60" fill="none" xmlns="http://www.w3.org/2000/svg">
    <path d="M21.1999 23.2999C18.2999 25.7999 13.8999 25.5999 11.3999 22.6999C8.89993 19.7999 9.09993 15.3999 11.9999 12.8999C14.8999 10.3999 19.2999 10.5999 21.7999 13.4999C24.2999 16.3999 23.9999 20.6999 21.1999 23.2999ZM13.1999 14.2999C11.0999 16.0999 10.8999 19.2999 12.7999 21.3999C14.6999 23.4999 17.7999 23.6999 19.8999 21.7999C21.9999 19.9999 22.1999 16.7999 20.2999 14.6999C18.4999 12.5999 15.2999 12.3999 13.1999 14.2999Z" fill="#3F496A"/>
    <path d="M25.2 6.5L22.8 7.9C21.9 7.3 21 6.9 20 6.6L19.4 3.8C19.3 3.4 18.9 3 18.5 3H14.5C14 3 13.7 3.3 13.6 3.8L13 6.7C12.5 6.9 12 7 11.6 7.2L9.29998 5.5C8.99998 5.2 8.49998 5.2 8.09998 5.5L5.09998 8.2C4.79998 8.5 4.69998 9 4.99998 9.4L6.39998 11.8C5.89998 12.7 5.39998 13.6 5.19998 14.6L2.39998 15.2C1.99998 15.3 1.59998 15.7 1.59998 16.1V20.1C1.59998 20.6 1.89998 20.9 2.39998 21L5.19998 21.5C5.39998 22 5.49998 22.5 5.69998 22.9L3.99998 25.3C3.69998 25.7 3.69998 26.2 3.99998 26.5L6.69998 29.5C6.99998 29.8 7.49998 29.9 7.89998 29.7L10.3 28.3C11.2 28.8 12.1 29.2 13.1 29.5L13.7 32.3C13.8 32.7 14.2 33.1 14.6 33.1H18.6C18.8 33.1 19.1 33 19.2 32.9C19.4 32.8 19.5 32.6 19.5 32.4L20 29.6C20.5 29.4 21 29.3 21.4 29.1L23.6 30.8C24 31.1 24.5 31.1 24.8 30.8L27.8 28.1C28.1 27.8 28.2 27.3 28 26.9L26.6 24.5C27.1 23.6 27.6 22.7 27.8 21.7L30.6 21.1C30.8 21.1 30.9 21 31 20.9C31.2 20.7 31.3 20.5 31.3 20.2V16.2C31.3 15.7 31 15.4 30.5 15.3L28 14.5C27.8 14 27.7 13.5 27.5 13.1L29.2 10.9C29.5 10.5 29.5 10 29.2 9.7L26.5 6.7C26.1 6.3 25.6 6.2 25.2 6.5ZM27.1 10.3L26.4 11.3L25.2 12.8C25.2 12.8 25.5 13.5 25.8 14.1C25.9 14.3 26 14.6 26.1 14.9C26.3 15.5 26.5 16.2 26.5 16.2L28.4 16.6L29.6 16.8V19.2L28.4 19.4L26.5 19.8C26.5 19.8 26.2 21 25.8 21.9C25.7 22 25.7 22.2 25.6 22.3C25.2 23.1 24.5 24.2 24.5 24.2L25.5 25.9L26.1 27L24.3 28.6L23.3 27.9L21.8 26.7C21.8 26.7 21.1 27 20.5 27.3C20.3 27.4 20 27.5 19.7 27.6C19.1 27.8 18.4 28 18.4 28L18 29.9L17.8 31.1H15.4L15.2 29.9L14.8 28C14.8 28 13.6 27.6 12.7 27.3C12.6 27.2 12.4 27.2 12.3 27.1C11.5 26.7 10.4 26 10.4 26L8.69998 27L7.59998 27.6L5.99998 25.8L6.69998 24.8L7.89998 23.3C7.89998 23.3 7.59998 22.6 7.29998 22C7.19998 21.8 7.09998 21.5 6.99998 21.2C6.79998 20.6 6.59998 19.9 6.59998 19.9L4.69998 19.5L3.49998 19.3V16.9L4.69998 16.7L6.59998 16.3C6.59998 16.3 6.89998 15.1 7.29998 14.2C7.39998 14.1 7.39998 13.9 7.49998 13.8C7.89998 13 8.59998 11.9 8.59998 11.9L7.59998 10.2L6.99998 9.1L8.79998 7.5L9.79998 8.2L11.3 9.4C11.3 9.4 12 9.1 12.6 8.8C12.8 8.7 13.1 8.6 13.4 8.5C14 8.3 14.7 8.1 14.7 8.1L15 6.2L15.3 5H17.7L18 6.2L18.4 8.1C18.4 8.1 19.6 8.5 20.5 8.8C20.6 8.9 20.8 8.9 20.9 9C21.7 9.4 22.8 10.1 22.8 10.1L24.5 9.1L25.6 8.5L27.1 10.3Z" fill="#E8A15B"/>
    <path d="M46.2 49.4998C42.7 50.9998 38.6 49.2998 37.1 45.6998C35.6 42.0998 37.3 38.0998 40.9 36.5998C44.5 35.0998 48.5 36.7998 50 40.3998C51.5 43.9998 49.8 47.9998 46.2 49.4998ZM41.6 38.3999C39 39.4999 37.8 42.3998 38.9 44.9998C40 47.5998 42.9 48.7998 45.5 47.6998C48.1 46.5998 49.3 43.6998 48.2 41.0998C47.2 38.4998 44.2 37.2999 41.6 38.3999Z" fill="#E8A15B"/>
    <path d="M55.5 34.8999L52.7 35.3999C52 34.5999 51.3 33.8999 50.5 33.2999L50.9 30.4999C51 30.0999 50.7 29.5999 50.3 29.4999L46.5 28.1999C46.1 28.0999 45.6 28.1999 45.4 28.5999L44 30.9999C43.5 30.9999 43 30.9999 42.5 30.9999L40.9 28.6999C40.6 28.2999 40.2 28.1999 39.7 28.3999L36 29.9999C35.6 30.1999 35.3 30.5999 35.4 31.0999L35.9 33.8999C35.1 34.5999 34.4 35.2999 33.8 36.0999L31 35.6999C30.6 35.5999 30.1 35.8999 30 36.2999L28.7 40.0999C28.6 40.4999 28.7 40.9999 29.1 41.1999L31.5 42.5999C31.5 43.0999 31.5 43.5999 31.5 44.0999L29.2 45.6999C29 45.9999 28.8 46.4999 29 46.8999L30.5 50.5999C30.7 50.9999 31.1 51.2999 31.6 51.1999L34.4 50.6999C35.1 51.4999 35.8 52.1999 36.6 52.7999L36.2 55.5999C36.1 55.9999 36.4 56.4999 36.8 56.5999L40.6 57.8999C40.8 57.9999 41.1 57.9999 41.3 57.8999C41.5 57.7999 41.7 57.6999 41.8 57.4999L43.2 55.0999C43.7 55.0999 44.2 55.0999 44.7 55.0999L46.3 57.3999C46.6 57.7999 47 57.8999 47.5 57.6999L51.2 56.1999C51.6 55.9999 51.9 55.5999 51.8 55.0999L51.3 52.2999C52.1 51.5999 52.8 50.8999 53.4 50.0999L56.2 50.4999C56.4 50.4999 56.5 50.4999 56.7 50.3999C56.9 50.2999 57.1 50.0999 57.2 49.7999L58.5 45.9999C58.6 45.5999 58.5 45.0999 58.1 44.8999L55.7 43.4999C55.7 42.9999 55.7 42.4999 55.7 41.9999L58 40.3999C58.4 40.0999 58.5 39.6999 58.3 39.1999L56.8 35.4999C56.4 35.0999 56 34.7999 55.5 34.8999ZM56.1 39.1999L55.1 39.8999L53.5 40.9999C53.5 40.9999 53.6 41.7999 53.6 42.3999C53.6 42.6999 53.6 42.8999 53.6 43.1999C53.6 43.7999 53.6 44.5999 53.6 44.5999L55.3 45.5999L56.4 46.1999L55.6 48.4999L54.4 48.2999L52.4 47.9999C52.4 47.9999 51.7 49.0999 51.1 49.6999C51 49.7999 50.9 49.8999 50.8 50.0999C50.2 50.6999 49.1 51.4999 49.1 51.4999L49.5 53.3999L49.7 54.5999L47.4 55.4999L46.7 54.4999L45.7 52.9999C45.7 52.9999 44.9 53.0999 44.3 53.0999C44 53.0999 43.8 53.0999 43.5 53.0999C42.9 53.0999 42.1 53.0999 42.1 53.0999L41.1 54.7999L40.5 55.8999L38.2 54.9999L38.4 53.7999L38.7 51.8999C38.7 51.8999 37.6 51.1999 37 50.5999C36.9 50.4999 36.8 50.3999 36.6 50.2999C36 49.6999 35.2 48.5999 35.2 48.5999L33.3 48.9999L32 49.1999L31 46.8999L32 46.1999L33.6 45.0999C33.6 45.0999 33.5 44.2999 33.5 43.6999C33.5 43.3999 33.5 43.1999 33.5 42.8999C33.5 42.2999 33.5 41.4999 33.5 41.4999L31.8 40.4999L30.8 39.9999L31.6 37.6999L32.8 37.8999L34.7 38.1999C34.7 38.1999 35.4 37.0999 36 36.4999C36.1 36.3999 36.2 36.2999 36.3 36.0999C36.9 35.4999 38 34.6999 38 34.6999L37.6 32.7999L37.4 31.5999L39.7 30.6999L40.4 31.6999L41.5 33.2999C41.5 33.2999 42.3 33.1999 42.9 33.1999C43.2 33.1999 43.4 33.1999 43.7 33.1999C44.3 33.1999 45.1 33.1999 45.1 33.1999L46.1 31.4999L46.7 30.3999L49 31.1999L48.8 32.3999L48.5 34.2999C48.5 34.2999 49.6 34.9999 50.2 35.5999C50.3 35.6999 50.4 35.7999 50.6 35.8999C51.2 36.4999 52 37.5999 52 37.5999L53.9 37.1999L55.1 36.9999L56.1 39.1999Z" fill="#3F496A"/>
    <path d="M8.30002 36.9C8.90002 36.9 9.30002 37.3 9.30002 37.9C9.30002 38.5 8.90002 38.9 8.30002 38.9C7.70002 38.9 7.30002 38.5 7.30002 37.9C7.30002 37.3 7.70002 36.9 8.30002 36.9ZM8.30002 35C6.70002 35 5.40002 36.3 5.40002 37.9C5.40002 39.5 6.70002 40.8 8.30002 40.8C9.90002 40.8 11.2 39.5 11.2 37.9C11.2 36.3 9.90002 35 8.30002 35Z" fill="#637EA8"/>
    <path d="M8.30005 40V53.1H28.3" stroke="#637EA8" stroke-width="1.9" stroke-miterlimit="10" stroke-linecap="round" stroke-linejoin="round"/>
    <path d="M56.2999 25.1C56.8999 25.1 57.2999 25.5 57.2999 26.1C57.2999 26.7 56.8999 27.1 56.2999 27.1C55.6999 27.1 55.2999 26.7 55.2999 26.1C55.2999 25.5 55.6999 25.1 56.2999 25.1ZM56.2999 23.2C54.6999 23.2 53.3999 24.5 53.3999 26.1C53.3999 27.7 54.6999 29 56.2999 29C57.8999 29 59.1999 27.7 59.1999 26.1C59.1999 24.5 57.8999 23.2 56.2999 23.2Z" fill="#637EA8"/>
    <path d="M56.2999 23.9999V4.8999H33.2999" stroke="#637EA8" stroke-width="1.9" stroke-miterlimit="10" stroke-linecap="round" stroke-linejoin="round"/>
</svg>
