<svg width="60" height="60" viewBox="0 0 60 60" fill="none" xmlns="http://www.w3.org/2000/svg">
    <path d="M49.7 41.2H10.7C10.2 41.2 9.70001 40.8 9.70001 40.2C9.70001 39.6 10.1 39.2 10.7 39.2H49.7C50.2 39.2 50.7 39.6 50.7 40.2C50.7 40.8 50.2 41.2 49.7 41.2Z" fill="#E8A15B"/>
    <path d="M10.6 58.2C10.1 58.2 9.60001 57.7999 9.60001 57.2V23.2C9.60001 22.7 10 22.2 10.6 22.2C11.2 22.2 11.6 22.6 11.6 23.2V57.2C11.6 57.7 11.1 58.2 10.6 58.2Z" fill="#3F496A"/>
    <path d="M49.7 58.2C49.2 58.2 48.7 57.7999 48.7 57.2V23.2C48.7 22.7 49.1 22.2 49.7 22.2C50.3 22.2 50.7 22.6 50.7 23.2V57.2C50.7 57.7 50.2 58.2 49.7 58.2Z" fill="#3F496A"/>
    <path d="M30.2 58.2C29.7 58.2 29.2 57.7999 29.2 57.2V23.2C29.2 22.7 29.6 22.2 30.2 22.2C30.8 22.2 31.2 22.6 31.2 23.2V57.2C31.1 57.7 30.7 58.2 30.2 58.2Z" fill="#E8A15B"/>
    <path d="M53.7 24.2H5.70001C5.30001 24.2 4.90001 24 4.80001 23.6C4.70001 23.2 4.80001 22.8 5.10001 22.5L29.1 2.1C29.5 1.8 30 1.8 30.3 2.1L37.7 8.3V3.3C37.7 2.8 38.1 2.3 38.7 2.3H45.7C46.2 2.3 46.7 2.7 46.7 3.3V15.9L54.4 22.6C54.7 22.9 54.8 23.3 54.7 23.6C54.5 23.9 54.1 24.2 53.7 24.2ZM8.30001 22.3H51.2L45.1 17C44.9 16.8 44.8 16.6 44.8 16.3V4.3H39.7V10.3C39.7 10.7 39.5 11 39.2 11.2C38.9 11.4 38.5 11.3 38.2 11.1L29.7 4L8.30001 22.3Z" fill="#3F496A"/>
    <path d="M56.3 58.2H3.70001C3.20001 58.2 2.70001 57.8 2.70001 57.2C2.70001 56.6 3.10001 56.2 3.70001 56.2H56.3C56.8 56.2 57.3 56.6 57.3 57.2C57.3 57.8 56.8 58.2 56.3 58.2Z" fill="#3F496A"/>
    <path d="M36 32C34.4 32 33 30.7 33 29C33 27.3 34.3 26 36 26C37.7 26 39 27.3 39 29C39 30.7 37.6 32 36 32ZM36 28C35.4 28 35 28.5 35 29C35 29.5 35.5 30 36 30C36.5 30 37 29.5 37 29C37 28.5 36.6 28 36 28Z" fill="#637EA8"/>
    <path d="M43.7 38C42.1 38 40.7 36.7 40.7 35C40.7 33.3 42 32 43.7 32C45.4 32 46.7 33.3 46.7 35C46.7 36.7 45.3 38 43.7 38ZM43.7 34C43.1 34 42.7 34.5 42.7 35C42.7 35.5 43.2 36 43.7 36C44.2 36 44.7 35.5 44.7 35C44.7 34.5 44.3 34 43.7 34Z" fill="#637EA8"/>
    <path d="M35.9546 37.8546C35.7546 37.8546 35.5546 37.7546 35.3546 37.6546C34.9546 37.3546 34.8546 36.7546 35.2546 36.3546L43.2546 26.3546C43.5546 25.9546 44.1546 25.8546 44.5546 26.2546C44.9546 26.5546 45.0546 27.1546 44.6546 27.5546L36.6546 37.5546C36.5546 37.7546 36.2546 37.8546 35.9546 37.8546Z" fill="#637EA8"/>
    <path d="M44.4 47.8999H36.8C36.3 47.8999 35.8 47.4999 35.8 46.8999C35.8 46.2999 36.2 45.8999 36.8 45.8999H44.4C44.9 45.8999 45.4 46.2999 45.4 46.8999C45.4 47.4999 44.9 47.8999 44.4 47.8999Z" fill="#637EA8"/>
    <path d="M44.4 51.8999H36.8C36.3 51.8999 35.8 51.4999 35.8 50.8999C35.8 50.2999 36.2 49.8999 36.8 49.8999H44.4C44.9 49.8999 45.4 50.2999 45.4 50.8999C45.4 51.4999 44.9 51.8999 44.4 51.8999Z" fill="#637EA8"/>
    <path d="M23.8 31.2999H20.5V28.1C20.5 27.6 20.1 27.2 19.5 27.2C18.9 27.2 18.5 27.6 18.5 28.1V31.2999H15.2C14.7 31.2999 14.2 31.6999 14.2 32.2999C14.2 32.8999 14.6 33.2999 15.2 33.2999H18.5V36.4C18.5 36.9 18.9 37.2999 19.5 37.2999C20.1 37.2999 20.5 36.9 20.5 36.4V33.2999H23.8C24.3 33.2999 24.8 32.8999 24.8 32.2999C24.8 31.6999 24.4 31.2999 23.8 31.2999Z" fill="#637EA8"/>
    <path d="M23.3 51.5999L21 49.2999L23.2 47.0999C23.6 46.6999 23.6 46.0999 23.2 45.7999C22.8 45.4999 22.2 45.3999 21.9 45.7999L19.7 47.9999L17.4 45.6999C17 45.2999 16.4 45.2999 16.1 45.6999C15.8 46.0999 15.7 46.6999 16.1 46.9999L18.4 49.2999L16 51.4999C15.6 51.8999 15.6 52.4999 16 52.7999C16.2 52.9999 16.4 53.0999 16.7 53.0999C17 53.0999 17.2 52.9999 17.4 52.7999L19.6 50.5999L21.9 52.8999C22.1 53.0999 22.3 53.1999 22.6 53.1999C22.9 53.1999 23.1 53.0999 23.3 52.8999C23.6 52.5999 23.6 51.9999 23.3 51.5999Z" fill="#637EA8"/>
</svg>
