<svg width="60" height="60" viewBox="0 0 60 60" fill="none" xmlns="http://www.w3.org/2000/svg">
    <g clip-path="url(#clip0_12_1282)">
        <path d="M46 52.8999C44.4 52.8999 43 51.5999 43 49.8999C43 48.1999 44.3 46.8999 46 46.8999C47.7 46.8999 49 48.1999 49 49.8999C49 51.5999 47.7 52.8999 46 52.8999ZM46 48.8999C45.4 48.8999 45 49.3999 45 49.8999C45 50.3999 45.5 50.8999 46 50.8999C46.5 50.8999 47 50.3999 47 49.8999C47 49.3999 46.6 48.8999 46 48.8999Z" fill="#3F496A"/>
        <path d="M59 40.5H38H36.1H33.1C32.6 40.5 32.1 40.9 32.1 41.5V43.5V45.4V58.4C32.1 58.9 32.5 59.4 33.1 59.4H59.1C59.6 59.4 60.1 59 60.1 58.4V41.4C60 41 59.6 40.5 59 40.5ZM58.1 57.5H34V45.4V43.5V42.4H35.7H37.8H58.1V57.5Z" fill="#637EA8"/>
        <path d="M23.1 57.7C22.7 57.7 22.4 57.5 22.2 57.1L19 49.4C18.9 49.2 18.9 49 19 48.8L20.7 42.8C20.8 42.3 21.4 42 21.9 42.1C22.4 42.2 22.7 42.8 22.6 43.3L20.9 49L23 54.2L24.9 49.1L23 43.3C22.8 42.8 23.1 42.3 23.6 42.1C24.1 41.9 24.6 42.2 24.8 42.7L26.8 48.7C26.9 48.9 26.9 49.1 26.8 49.3L24 57.1C23.8 57.5 23.5 57.7 23.1 57.7Z" fill="#E8A15B"/>
        <path d="M23.9 44H21.9C21.5 44 21.2 43.8 21.1 43.5L20.1 41.5C19.9 41 20.1 40.5 20.5 40.2C21 40 21.5 40.2 21.8 40.6L22.5 42.1H23.3L24 40.6C24.2 40.1 24.8 39.9 25.3 40.2C25.8 40.4 26 41 25.7 41.5L24.7 43.5C24.6 43.8 24.2 44 23.9 44Z" fill="#E8A15B"/>
        <path d="M17.8 43.0001C17.5 43.0001 17.3 42.9001 17.1 42.6001C16.8 42.2001 16.9 41.6001 17.3 41.3001L27.6 33.2001C28 32.9001 28.6 33.0001 28.8 33.4001C29.1 33.8001 29 34.4001 28.6 34.7001L18.3 42.8001C18.2 42.9001 18 43.0001 17.8 43.0001Z" fill="#637EA8"/>
        <path d="M27.7 42.7999C27.5 42.7999 27.3 42.6999 27.1 42.5999L16.3 34.7999C15.9 34.4999 15.8 33.8999 16.1 33.4999C16.4 33.0999 17 32.9999 17.4 33.2999L28.2 41.0999C28.6 41.3999 28.7 41.9999 28.4 42.3999C28.2 42.6999 28 42.7999 27.7 42.7999Z" fill="#637EA8"/>
        <path d="M17.8 31.9999C17.8 31.4999 17.3 31.0999 16.8 31.0999C16.3 31.0999 15.9 31.5999 15.9 32.0999L17.7 58.4999C17.7 58.9999 18.1 59.3999 18.6 59.3999C19.1 59.3999 19.6 58.8999 19.5 58.3999L17.8 31.9999Z" fill="#3F496A"/>
        <path d="M29.8 32.0999C29.8 31.5999 29.4 31.0999 28.9 31.0999C28.4 31.0999 27.9 31.4999 27.9 31.9999L26.1 58.3999C26.1 58.8999 26.5 59.3999 27 59.3999C27.5 59.3999 27.9 58.9999 27.9 58.4999L29.8 32.0999Z" fill="#3F496A"/>
        <path d="M5.69999 40.5C6.19999 39.5 10.4 37.9 14.1 37C14.6 36.9 14.9 36.4 14.8 35.8C14.7 35.3 14.2 35 13.6 35.1C11.6 35.6 5.09999 37.4 3.99999 39.6C3.09999 41.3 0.699995 54.3 -5.45103e-06 58.3C-0.100005 58.9 0.299995 59.4 0.899995 59.4C1.39999 59.4 1.79999 59.1 1.79999 58.6C2.59999 55.2 5.09999 41.7 5.69999 40.5Z" fill="#3F496A"/>
        <path d="M10.1 47C10.1 46.5 9.69998 46 9.09998 46C8.49998 46 8.09998 46.4 8.09998 47V58.4C8.09998 58.9 8.49998 59.4 9.09998 59.4C9.59998 59.4 10.1 59 10.1 58.4V47Z" fill="#3F496A"/>
        <path d="M30.2 34.1C29.7 34 29.2 34.3 29 34.8C28.9 35.3 29.2 35.8 29.7 36C31.8 36.5 34.2 37.3 35.8 38.1C36.2 38.3 36.7 38.1 37 37.8C37.3 37.3 37.1 36.6 36.6 36.4C34.3 35.2 31.4 34.4 30.2 34.1Z" fill="#3F496A"/>
        <path d="M17.9 55.3001C17.6 55.3001 17.3 55.2001 17.2 54.9001L12.9 49.4001C12.2 48.5001 12.3 47.3001 13.1 46.6001L14.5 45.2001C14.6 45.1001 14.6 45.0001 14.5 44.9001L12.8 43.2001C12.3 42.7001 12.1 42.0001 12.2 41.3001L13 36.4001C13.1 35.8001 13.4 35.3001 13.9 35.0001L16.5 33.2001C16.9 32.9001 17.5 33.0001 17.8 33.4001C18.1 33.8001 18 34.4001 17.6 34.7001L15 36.5001C14.9 36.5001 14.9 36.6001 14.9 36.7001L14.1 41.6001C14.1 41.7001 14.1 41.8001 14.2 41.8001L15.9 43.5001C16.7 44.3001 16.7 45.7001 15.9 46.5001L14.3 48.0001C14.2 48.1001 14.2 48.2001 14.3 48.3001L18.6 53.8001C18.9 54.2001 18.9 54.8001 18.4 55.1001C18.3 55.3001 18.1 55.3001 17.9 55.3001Z" fill="#3F496A"/>
        <path d="M8.9 19C8.4 19 8 18.7 8 18.2C7.9 17.9 6.6 10.7 10.8 5.49995C13.3 2.39995 17.2 0.699953 22.4 0.599953C25.4 0.499953 26.8 1.49995 28.1 2.39995C29.3 3.19995 30.5 3.99995 33 4.19995C33.9 4.29995 34.7 4.69995 35.4 5.49995C37.9 8.59995 37.2 16.3 37.1 17.1C37 17.6 36.6 18 36.1 17.9C35.6 17.8 35.2 17.4 35.3 16.9C35.5 14.8 35.7 8.79995 34 6.69995C33.7 6.29995 33.3 6.09995 32.9 6.09995C29.9 5.79995 28.4 4.79995 27.1 3.99995C25.8 3.19995 24.8 2.49995 22.5 2.59995C17.9 2.69995 14.5 4.19995 12.3 6.79995C8.7 11.3 9.9 17.9 9.9 18C10 18.5 9.7 19 9.1 19.1C9 19 8.9 19 8.9 19Z" fill="#3F496A"/>
        <path d="M11.4 22.6C10.3 22.6 9.40002 21.7 9.40002 20.6C9.40002 19.5 10.3 18.6 11.4 18.6V16.7C9.20002 16.7 7.40002 18.5 7.40002 20.7C7.40002 22.9 9.20002 24.7 11.4 24.7H11.7C11.6 23.9 11.5 23.2 11.4 22.6Z" fill="#E8A15B"/>
        <path d="M34.4 16.5999V18.4999C35.5 18.4999 36.4 19.3999 36.4 20.4999C36.4 21.5999 35.5 22.4999 34.4 22.4999H34.3C34.3 23.0999 34.2 23.7999 34.1 24.3999H34.4C36.6 24.3999 38.4 22.5999 38.4 20.3999C38.4 18.1999 36.6 16.5999 34.4 16.5999Z" fill="#E8A15B"/>
        <path d="M34.3 16.5H32.4C32.4 16.8 32.4 17.1 32.4 17.5V18.5V22C32.4 22.2 32.4 22.4 32.4 22.5C32.4 23.2 32.3 23.8 32.1 24.4C31.5 26.6 30.2 28.5 28.3 29.8C27.7 30.2 27.1 30.6 26.4 30.8C25.3 31.2 24.1 31.5 22.9 31.5C21.3 31.5 19.7 31.1 18.4 30.3C17.6 30 17 29.6 16.4 29C15.1 27.8 14.1 26.2 13.6 24.4C13.4 23.8 13.3 23.2 13.3 22.5C13.3 22.3 13.3 22.1 13.3 22V18.5V17.6C13.3 17.4 13.3 17 13.5 16.6H11.5H11.4V18.5V22C11.4 22.2 11.4 22.4 11.4 22.5C11.4 23.1 11.5 23.8 11.6 24.4C12.2 27.3 14 29.8 16.3 31.4C16.9 31.8 17.5 32.2 18.2 32.4C19.6 33 21.1 33.4 22.7 33.4C23.9 33.4 25.1 33.2 26.2 32.8C26.9 32.6 27.5 32.3 28.1 32C31 30.4 33.1 27.7 33.8 24.4C33.9 23.8 34 23.1 34 22.5C34 22.3 34 22.1 34 22V18.5L34.3 16.5C34.3 16.5 34.3 16.6 34.3 16.5Z" fill="#E8A15B"/>
        <path d="M15.4 15.4999C16 15.4999 16.6 15.5999 17.3 15.6999C20.1 15.9999 23.7 16.4999 27.8 13.1999C28.5 14.2999 29.9 15.4999 32.2 15.5999C32.3 15.7999 32.3 16.0999 32.4 16.6999H34.3C34.2 15.3999 34 14.5999 33.5 14.0999C33.2 13.7999 32.9 13.6999 32.6 13.6999C29.7 13.6999 29.1 11.6999 29.1 11.3999C29 11.0999 28.8 10.7999 28.4 10.6999C28.1 10.5999 27.7 10.6999 27.5 10.8999C23.7 14.5999 20.3 14.0999 17.5 13.7999C16.7 13.6999 16 13.5999 15.4 13.5999C13.1 13.5999 11.9 15.0999 11.6 16.5999H13.6C13.8 15.9999 14.3 15.4999 15.4 15.4999Z" fill="#3F496A"/>
    </g>
    <defs>
        <clipPath id="clip0_12_1282">
            <rect width="60" height="60" fill="white"/>
        </clipPath>
    </defs>
</svg>
