<svg width="60" height="60" viewBox="0 0 60 60" fill="none" xmlns="http://www.w3.org/2000/svg">
    <path d="M29.9 12.5999C25 12.5999 20.9 16.2999 20.2 20.9999C20.1 21.5999 20.6 22.0999 21.1 22.0999C21.6 22.0999 22 21.7999 22 21.2999C22.6 17.4999 25.9 14.4999 29.9 14.4999C33.9 14.4999 37.3 17.3999 37.9 21.2999C38 21.6999 38.4 22.0999 38.8 22.0999C39.4 22.0999 39.8 21.5999 39.7 20.9999C39.1 16.1999 34.9 12.4999 29.9 12.5999Z" fill="#E8A15B"/>
    <path d="M11.5 21.1V20.7L14.8 20.2L16.8 19.9C16.9 19.2 17.1 18.5 17.4 17.9C17.5 17.7 17.5 17.6 17.6 17.4C17.9 16.7 18.2 16.1 18.5 15.5L17.2 13.9L15 11.4L17.8 8.4L20.4 10.2L22 11.3C22.5 10.9 23.1 10.5 23.7 10.2C24 10 24.4 9.8 24.8 9.7C25.4 9.4 26.1 9.2 26.8 9L27 7L27.3 4.1L31.4 3.9L31.9 6.6L32.3 8.6C33 8.7 33.7 8.8 34.3 9C34.8 9.1 35.3 9.3 35.8 9.5C36.5 9.8 37.1 10.1 37.7 10.4L39.3 9.1L41.3 7.5L44.3 10.3L42.9 12.3L41.6 14C42 14.5 42.4 15.1 42.7 15.7C43.1 16.4 43.4 17.1 43.7 17.8C43.9 18.4 44.1 19.1 44.3 19.8L46.3 20.1L48.6 20.4V21.2C48.6 21.7 49 22.1 49.6 22.1C50.1 22.1 50.6 21.7 50.6 21.1V20C50.6 19.2 50 18.6 49.3 18.5L46 18.1C45.6 16.6 44.9 15.3 44.1 14L46 11.2C46.4 10.6 46.3 9.7 45.8 9.2L42.2 6C41.6 5.5 40.8 5.5 40.2 5.9L37.4 8.2C36.3 7.7 35.1 7.2 33.8 7L33.1 3.3C33 2.5 32.4 2 31.6 2L26.9 2.2C26.1 2.2 25.5 2.8 25.4 3.6L25 7.6C24 8 23 8.5 22 9.1L18.6 6.7C18 6.3 17.1 6.4 16.6 6.9L13.4 10.3C13.2 10.6 13 11 13 11.4C13 11.7 13.1 12.1 13.3 12.3L16 15.7C15.6 16.5 15.3 17.3 15.1 18.2L10.8 18.9C10 19 9.5 19.7 9.5 20.4V21.1C9.5 21.6 9.9 22.1 10.5 22.1C11 22.1 11.5 21.6 11.5 21.1Z" fill="#637EA8"/>
    <path d="M3 57V25C3 24.5 3.4 24 4 24H56C56.5 24 57 24.4 57 25V57C57 57.5 56.6 58 56 58H4C3.5 58 3 57.5 3 57ZM5 26V56.1H55V26H5Z" fill="#3F496A"/>
    <path d="M32.1 34.1001H11.4C10.9 34.1001 10.4 34.5001 10.4 35.1001C10.4 35.7001 10.8 36.1001 11.4 36.1001H32.2C32.1 35.8001 32.1 35.5001 32.1 35.1001C32.1 34.7001 32.1 34.4001 32.1 34.1001Z" fill="#637EA8"/>
    <path d="M43.9 36H49.2C49.7 36 50.2 35.6 50.2 35C50.2 34.4 49.8 34 49.2 34H43.9C44 34.3 44 34.6 44 35C44 35.4 43.9 35.7 43.9 36Z" fill="#637EA8"/>
    <path d="M17.1 46.6001H11.3C10.8 46.6001 10.3 47.0001 10.3 47.6001C10.3 48.2001 10.7 48.6001 11.3 48.6001H17.1C17 48.3001 17 48.0001 17 47.6001C17 47.2001 17.1 46.9001 17.1 46.6001Z" fill="#637EA8"/>
    <path d="M28.9 48.5H49.2C49.7 48.5 50.2 48.1 50.2 47.5C50.2 46.9 49.8 46.5 49.2 46.5H28.9C29 46.8 29 47.1 29 47.5C29 47.9 28.9 48.2 28.9 48.5Z" fill="#637EA8"/>
    <path d="M43.9 36C44 35.7 44 35.4 44 35C44 34.6 44 34.4 43.9 34C43.4 31.2 41 29 38 29C35 29 32.6 31.2 32.1 34C32 34.3 32 34.6 32 35C32 35.4 32 35.6 32.1 36C32.6 38.8 35 41 38 41C41 41 43.4 38.8 43.9 36ZM34.1 36C34 35.7 34 35.4 34 35C34 34.6 34.1 34.4 34.1 34C34.5 32.2 36.1 30.9 38 30.9C39.9 30.9 41.5 32.2 41.9 34C42 34.3 42 34.6 42 35C42 35.4 41.9 35.6 41.9 36C41.5 37.8 39.9 39.1 38 39.1C36.1 39.1 34.5 37.7 34.1 36Z" fill="#E8A15B"/>
    <path d="M28.9 48.5C29 48.2 29 47.9 29 47.5C29 47.1 29 46.9 28.9 46.5C28.4 43.7 26 41.5 23 41.5C20 41.5 17.6 43.7 17.1 46.5C17 46.8 17 47.1 17 47.5C17 47.9 17 48.1 17.1 48.5C17.6 51.3 20 53.5 23 53.5C26 53.5 28.4 51.3 28.9 48.5ZM19.1 48.5C19 48.2 19 47.9 19 47.5C19 47.1 19.1 46.9 19.1 46.5C19.5 44.7 21.1 43.4 23 43.4C24.9 43.4 26.5 44.7 26.9 46.5C27 46.8 27 47.1 27 47.5C27 47.9 26.9 48.1 26.9 48.5C26.5 50.3 24.9 51.6 23 51.6C21.1 51.6 19.5 50.2 19.1 48.5Z" fill="#E8A15B"/>
</svg>
