<svg width="60" height="60" viewBox="0 0 60 60" fill="none" xmlns="http://www.w3.org/2000/svg">
    <path d="M53 10H12V1C12 0.5 11.6 0 11 0H8.1C4.2 0 1 3.2 1 7.1V11V42.3C1 43.8 1.8 45.2 2.9 46C3.7 46.6 4.6 46.9 5.6 46.9H10H11.9H26C26.5 46.9 27 46.5 27 45.9C27 45.4 26.6 44.9 26 44.9H11.9H10H5.7C4.4 44.9 3.2 44 2.9 42.7C2.6 41 3.9 39.4 5.6 39.4H10H11.9V37.5V11.9H52V29C52 29.5 52.4 30 53 30C53.5 30 54 29.6 54 29V11C53.9 10.4 53.5 10 53 10ZM10 10V11.9V37.7H5.6C4.6 37.7 3.6 38 2.9 38.6V11.9V10V7.1C2.9 4.2 5.2 1.9 8.1 1.9H10V10Z" fill="#3F496A"/>
    <path d="M44 52C40.2 52 37 48.9 37 45C37 41.1 40.1 38 44 38C47.9 38 51 41.1 51 45C51 48.9 47.9 52 44 52ZM44 40C41.2 40 39 42.3 39 45C39 47.7 41.3 50 44 50C46.7 50 49 47.7 49 45C49 42.3 46.8 40 44 40Z" fill="#3F496A"/>
    <path d="M58.2 42.1001L55.4 41.5001C55.1 40.5001 54.7 39.6001 54.1 38.7001L55.5 36.3001C55.7 35.9001 55.6 35.4001 55.3 35.1001L52.3 32.5001C52 32.2001 51.5 32.2001 51.1 32.5001L48.9 34.2001C48.4 34.0001 48 33.8001 47.5 33.7001L47 30.9001C46.9 30.5001 46.5 30.1001 46.1 30.1001H42.1C41.6 30.1001 41.3 30.4001 41.2 30.9001L40.6 33.7001C39.6 34.0001 38.7 34.4001 37.8 35.0001L35.4 33.6001C35 33.4001 34.5 33.5001 34.2 33.8001L31.6 36.8001C31.3 37.1001 31.3 37.6001 31.6 38.0001L33.3 40.2001C33.1 40.7001 32.9 41.1001 32.7 41.6001L29.9 42.2001C29.5 42.3001 29.1 42.7001 29.1 43.1001V47.1001C29.1 47.6001 29.4 47.9001 29.9 48.0001L32.7 48.6001C33 49.6001 33.4 50.5001 34 51.4001L32.6 53.8001C32.4 54.2001 32.5 54.7001 32.8 55.0001L35.8 57.6001C36 57.8001 36.2 57.8001 36.4 57.8001C36.6 57.8001 36.8 57.7001 37 57.6001L39.2 55.9001C39.7 56.1001 40.1 56.3001 40.6 56.4001L41.2 59.2001C41.3 59.6001 41.7 60.0001 42.1 60.0001H46.1C46.6 60.0001 46.9 59.7001 47 59.2001L47.6 56.4001C48.6 56.1001 49.5 55.7001 50.4 55.1001L52.8 56.5001C52.9 56.6001 53.1 56.6001 53.3 56.6001C53.6 56.6001 53.8 56.5001 54 56.3001L56.6 53.3001C56.9 53.0001 56.9 52.5001 56.6 52.1001L54.9 50.0001C55.1 49.5001 55.3 49.1001 55.5 48.6001L58.3 48.0001C58.7 47.9001 59.1 47.5001 59.1 47.1001V43.1001C59 42.6001 58.7 42.2001 58.2 42.1001ZM57.1 46.3001L55.9 46.5001L54 46.9001C54 46.9001 53.8 47.6001 53.6 48.2001C53.5 48.5001 53.4 48.7001 53.3 49.0001C53.1 49.6001 52.7 50.3001 52.7 50.3001L53.9 51.8001L54.6 52.8001L53 54.6001L52 54.0001L50.3 53.0001C50.3 53.0001 49.2 53.7001 48.4 54.1001C48.3 54.2001 48.1 54.2001 48 54.3001C47.2 54.6001 45.9 55.0001 45.9 55.0001L45.5 56.9001L45.3 58.1001H42.9L42.7 56.9001L42.2 55.0001C42.2 55.0001 41.5 54.8001 40.9 54.6001C40.6 54.5001 40.4 54.4001 40.1 54.3001C39.5 54.1001 38.8 53.7001 38.8 53.7001L37.3 54.9001L36.3 55.6001L34.5 54.0001L35.1 52.9001L36.1 51.2001C36.1 51.2001 35.4 50.1001 35 49.3001C34.9 49.2001 34.9 49.0001 34.8 48.9001C34.5 48.1001 34.1 46.8001 34.1 46.8001L32.2 46.4001L31 46.3001V43.9001L32.2 43.7001L34.1 43.3001C34.1 43.3001 34.3 42.6001 34.5 42.0001C34.6 41.7001 34.7 41.5001 34.8 41.2001C35 40.6001 35.4 39.9001 35.4 39.9001L34.2 38.4001L33.5 37.4001L35.1 35.6001L36.2 36.2001L37.9 37.2001C37.9 37.2001 39 36.5001 39.8 36.1001C39.9 36.0001 40.1 36.0001 40.2 35.9001C41 35.6001 42.3 35.2001 42.3 35.2001L42.7 33.3001L42.9 32.1001H45.3L45.5 33.3001L45.9 35.2001C45.9 35.2001 46.6 35.4001 47.2 35.6001C47.5 35.7001 47.7 35.8001 48 35.9001C48.6 36.1001 49.3 36.5001 49.3 36.5001L50.8 35.3001L51.8 34.6001L53.6 36.2001L53 37.3001L52 39.0001C52 39.0001 52.7 40.1001 53.1 40.9001C53.2 41.0001 53.2 41.2001 53.3 41.3001C53.6 42.1001 54 43.4001 54 43.4001L55.9 43.8001L57.1 44.0001V46.3001Z" fill="#E8A15B"/>
    <path d="M34.8 16H26.8C26.3 16 25.8 15.6 25.8 15C25.8 14.4 26.2 14 26.8 14H34.8C35.3 14 35.8 14.4 35.8 15C35.8 15.6 35.3 16 34.8 16Z" fill="#E8A15B"/>
    <path d="M46.2001 21.9C46.2001 19.7 44.5 18 42.3 18H19.2C17 18 15.3 19.7 15.3 21.9V34.2C15.3 36.4 17 38.1 19.2 38.1H28.1C28.6 38.1 29.1 37.7 29.1 37.1C29.1 36.6 28.7 36.1 28.1 36.1H26.9V32.2H37.1C37.6 32.2 38.1 31.8 38.1 31.2C38.1 30.7 37.7 30.2 37.1 30.2H26.9V26.1H44.3V27.4C44.3 27.9 44.7 28.4 45.3 28.4C45.8 28.4 46.3 28 46.3 27.4V21.9H46.2001ZM25 36.3H19.2C18.1 36.3 17.2 35.4 17.2 34.3V32.4C17.3 32.4 17.3 32.4 17.4 32.4H25V36.3ZM25 30.5H17.4C17.3 30.5 17.3 30.5 17.2 30.5V26.4H25V30.5ZM25 24.5H17.2V21.9C17.2 20.8 18.1 19.9 19.2 19.9H25V24.5ZM44.3 24.5H26.9V20H42.3C43.4 20 44.3 20.9 44.3 22V24.5Z" fill="#637EA8"/>
</svg>
