<svg width="60" height="60" viewBox="0 0 60 60" fill="none" xmlns="http://www.w3.org/2000/svg">
    <path d="M34.8 35.0001L29.8 33.5001C29.3 33.4001 28.8 33.6001 28.6 34.2001C28.5 34.7001 28.7 35.2001 29.3 35.4001L34.3 36.9001C34.4 36.9001 34.5 36.9001 34.6 36.9001C35 36.9001 35.4 36.6001 35.5 36.2001C35.6 35.7001 35.3 35.2001 34.8 35.0001Z" fill="#3F496A"/>
    <path d="M19.9 35C19.7 34.5 19.2 34.2 18.7 34.4L11.7 36.8C8 38 5.5 41.4 5.5 45.3V49.9V51.8H7.4H12.5V58.6C12.5 59.1 12.9 59.5 13.5 59.5C14.1 59.5 14.5 59.1 14.5 58.6V48.7C14.5 48.2 14.1 47.8 13.5 47.8C12.9 47.8 12.5 48.2 12.5 48.7V49.9H7.5V45.3C7.5 42.3 9.4 39.6 12.3 38.6L19.3 36.2C19.8 36 20.1 35.5 19.9 35Z" fill="#3F496A"/>
    <path d="M5.5 58.5C5.5 59 5.9 59.5 6.5 59.5C7.1 59.5 7.5 59.1 7.5 58.5V51.8H5.5V58.5Z" fill="#E8A15B"/>
    <path d="M11 18.9001C10.6 18.9001 10.2 18.6001 10.1 18.1001C10 17.8001 8.70001 10.6001 12.9 5.4001C15.4 2.3001 19.3 0.600099 24.5 0.500099C27.5 0.400099 28.9 1.4001 30.2 2.3001C31.4 3.1001 32.6 3.9001 35.1 4.1001C36 4.2001 36.8 4.6001 37.5 5.4001C40 8.5001 39.3 16.2001 39.2 17.0001C39.1 17.5001 38.7 17.9001 38.2 17.8001C37.7 17.7001 37.3 17.3001 37.4 16.8001C37.6 14.7001 37.8 8.7001 36.1 6.6001C35.7 6.3001 35.4 6.1001 35 6.0001C32 5.7001 30.5 4.7001 29.2 3.9001C27.9 3.1001 26.9 2.4001 24.6 2.5001C20 2.6001 16.6 4.1001 14.4 6.7001C10.8 11.2001 12 17.8001 12 17.9001C12.1 18.4001 11.8 18.9001 11.2 19.0001C11.1 18.9001 11.1 18.9001 11 18.9001Z" fill="#637EA8"/>
    <path d="M13.5 22.5001C12.4 22.5001 11.5 21.6001 11.5 20.5001C11.5 19.4001 12.4 18.5001 13.5 18.5001V16.6001C11.3 16.6001 9.5 18.4001 9.5 20.6001C9.5 22.8001 11.3 24.6001 13.5 24.6001H13.8C13.7 23.8001 13.6 23.2001 13.5 22.5001Z" fill="#E8A15B"/>
    <path d="M36.5 16.5V18.4C37.6 18.4 38.5 19.3 38.5 20.4C38.5 21.5 37.6 22.4 36.5 22.4H36.4C36.4 23 36.3 23.7 36.2 24.3H36.5C38.7 24.3 40.5 22.5 40.5 20.3C40.5 18.1 38.7 16.5 36.5 16.5Z" fill="#E8A15B"/>
    <path d="M29.5 35.5002C30 35.5002 30.5 35.1002 30.5 34.5002V32.0002C29.9 32.3002 29.3 32.6002 28.6 32.8002V34.5002C28.5 35.1002 29 35.5002 29.5 35.5002Z" fill="#E8A15B"/>
    <path d="M22.8 38.5001C21.5 38.5001 20.4 37.4001 20.4 36.1001V32.4001C19.7 32.1001 19.1 31.8001 18.5 31.4001V36.1001C18.5 38.5001 20.4 40.4001 22.8 40.4001H23.6C24.1 40.4001 24.6 40.0001 24.6 39.4001C24.6 38.9001 24.2 38.4001 23.6 38.4001H22.8V38.5001Z" fill="#E8A15B"/>
    <path d="M36.4 16.5H34.5C34.5 16.8 34.5 17.1 34.5 17.5V18.5V22C34.5 22.2 34.5 22.4 34.5 22.5C34.5 23.2 34.4 23.8 34.2 24.4C33.6 26.6 32.3 28.5 30.4 29.8C29.8 30.2 29.2 30.6 28.5 30.8C27.4 31.2 26.2 31.5 25 31.5C23.4 31.5 21.8 31.1 20.5 30.3C19.8 29.9 19.2 29.5 18.6 28.9C17.3 27.7 16.3 26.1 15.8 24.3C15.6 23.7 15.5 23.1 15.5 22.4C15.5 22.2 15.5 22 15.5 21.9V18.4V17.5C15.5 17.3 15.5 16.9 15.7 16.5H13.7H13.6V18.4V22C13.6 22.2 13.6 22.4 13.6 22.5C13.6 23.1 13.7 23.8 13.8 24.4C14.4 27.3 16.2 29.8 18.5 31.4C19.1 31.8 19.7 32.2 20.4 32.4C21.8 33 23.3 33.4 24.9 33.4C26.1 33.4 27.3 33.2 28.4 32.8C29.1 32.6 29.7 32.3 30.3 32C33.2 30.4 35.3 27.7 36 24.4C36.1 23.8 36.2 23.1 36.2 22.5C36.2 22.3 36.2 22.1 36.2 22V18.5L36.4 16.5Z" fill="#E8A15B"/>
    <path d="M17.5 15.4C18.1 15.4 18.7 15.5 19.4 15.6C22.2 15.9 25.8 16.4 29.9 13.1C30.6 14.2 32 15.4 34.3 15.5C34.4 15.7 34.4 16 34.5 16.6H36.4C36.3 15.3 36.1 14.5 35.6 14C35.3 13.7 35 13.6 34.7 13.6C31.8 13.6 31.2 11.6 31.2 11.3C31.1 11 30.9 10.7 30.5 10.6C30.2 10.5 29.8 10.6 29.6 10.8C25.8 14.5 22.4 14 19.6 13.7C18.8 13.6 18.1 13.5 17.5 13.5C15.2 13.5 14 15 13.7 16.5H15.7C15.9 15.9 16.4 15.4 17.5 15.4Z" fill="#637EA8"/>
    <path d="M40.5 49.3999C38.9 49.3999 37.5 48.0999 37.5 46.3999C37.5 44.6999 38.8 43.3999 40.5 43.3999C42.2 43.3999 43.5 44.6999 43.5 46.3999C43.5 48.0999 42.1 49.3999 40.5 49.3999ZM40.5 45.3999C39.9 45.3999 39.5 45.8999 39.5 46.3999C39.5 46.8999 40 47.3999 40.5 47.3999C41 47.3999 41.5 46.8999 41.5 46.3999C41.5 45.8999 41.1 45.3999 40.5 45.3999Z" fill="#3F496A"/>
    <path d="M53.5 37.5H32.5H30.6H27.6C27.1 37.5 26.6 37.9 26.6 38.5V40.5V42.4V55.4C26.6 55.9 27 56.4 27.6 56.4H53.6C54.1 56.4 54.6 56 54.6 55.4V38.4C54.5 38 54 37.5 53.5 37.5ZM52.5 54.5H28.5V42.4V40.5V39.4H30.2H32.3H52.6V54.5H52.5Z" fill="#637EA8"/>
    <path d="M50.5 59.4H23.5C23.1 59.4 22.7 59.1 22.6 58.8C22.5 58.4 22.6 58 22.9 57.7L26.9 54.7C27.1 54.6 27.3 54.5 27.5 54.5H53.5C53.9 54.5 54.2 54.7 54.4 55.1C54.5 55.5 54.5 55.9 54.2 56.1L51.2 59.1C51 59.3 50.8 59.4 50.5 59.4ZM26.3 57.5H50.1L51.2 56.4H27.8L26.3 57.5Z" fill="#637EA8"/>
</svg>
