<svg width="12" height="10" viewBox="0 0 12 10" fill="none" xmlns="http://www.w3.org/2000/svg">
<path d="M9.11029 5.52209C8.89745 5.26333 8.55375 5.26333 8.34091 5.52209L7.08589 7.05699L4.74502 4.19407C4.53218 3.93531 4.18848 3.93531 3.97564 4.19407L0.156034 8.8655C-0.0549315 9.12868 -0.0515553 9.5512 0.163639 9.80921C0.263733 9.92925 0.397794 9.99757 0.537994 9.99999H11.4512C11.7525 10.0021 11.9982 9.7051 12 9.33652C12.0008 9.15721 11.9427 8.98508 11.8386 8.85883L9.11029 5.52209Z" fill="white"/>
<path d="M7.63665 3.27273C8.48014 3.27273 9.16392 2.5401 9.16392 1.63636C9.16392 0.732625 8.48014 0 7.63665 0C6.79316 0 6.10938 0.732625 6.10938 1.63636C6.10938 2.5401 6.79316 3.27273 7.63665 3.27273Z" fill="white"/>
</svg>
