<svg width="93" height="52" viewBox="0 0 93 52" fill="none" xmlns="http://www.w3.org/2000/svg">
<path d="M89.0251 0.910283C88.5325 0.49337 87.6704 0.0973028 86.8289 0.472524C85.2279 1.57734 92.4528 6.10085 88.7993 21.2348C88.0399 24.3616 86.1721 22.7357 83.9554 22.0478C78.9062 20.4427 73.5081 20.0883 68.2741 19.5254C66.4269 19.317 64.5386 19.1711 62.7529 18.6708C60.8645 18.1496 60.7824 18.0454 61.2545 16.2944C62.5681 14.6059 62.0345 12.292 61.9729 11.3331C62.9581 9.12347 63.3276 7.20567 62.5476 6.22592C60.4335 3.68275 60.0846 10.27 57.3342 10.2908C56.0822 10.1658 55.2612 10.27 54.9533 9.58207C54.3991 8.39387 53.5371 6.85129 52.4287 6.1217C50.7251 4.97518 50.3762 8.14372 51.0946 11.1455C50.8688 12.9799 51.033 14.2307 51.9566 15.5648C52.4287 16.2318 52.5313 17.0657 52.675 17.8578C52.9418 19.2336 53.106 20.943 53.106 22.3396C53.106 23.1317 53.2497 25.5915 53.3729 26.3837C53.9476 29.9691 54.1323 30.6779 56.78 33.3044C57.8884 34.4092 59.5715 35.3681 60.2693 36.8482C60.7824 37.9738 61.234 39.2037 61.7061 40.3294C62.6297 42.4974 63.2044 44.707 63.5944 47.0209C63.8202 48.2716 60.8851 48.5426 61.3777 50.2728C61.7677 51.6903 65.5032 51.6694 65.729 50.0435C65.8727 49.1263 66.3037 47.4586 66.509 46.187C67.5968 41.4134 65.9958 39.5581 67.2479 35.2222C67.5763 33.6588 73.5902 36.6814 74.4112 37.2442C76.0737 38.3908 77.8594 39.308 79.5425 40.4128C82.1492 42.1221 80.3429 43.623 78.6599 45.0197C77.7568 45.7701 77.7568 45.8118 76.6074 45.5408C75.6632 45.3532 74.9243 45.9369 74.719 46.6248C74.4112 47.6045 75.8069 48.2716 76.7716 48.1465C79.6656 47.8338 83.668 44.7695 84.9201 42.1221C85.7616 43.1227 85.4127 44.0608 84.9406 45.3324C84.7353 45.8743 84.5096 46.3955 84.3248 46.9375C83.9143 48.1674 83.5243 47.8338 82.5391 48.0631C81.0819 48.5426 81.7387 50.7105 83.3396 50.4604C83.8938 50.377 85.9874 50.1269 86.2131 49.1471C86.3158 48.7094 86.7468 47.813 86.9521 47.3752C87.4036 46.2913 89.9077 40.6212 88.7993 39.5373C88.2246 38.9953 87.7731 38.4324 87.342 37.7654C86.6647 36.6814 86.9726 36.5563 87.5678 35.6391C88.1836 34.6802 88.7377 33.5546 89.2714 32.554C90.4824 30.1776 89.5793 28.1347 90.6466 24.9662C93.9511 14.8143 92.3091 3.7036 89.0251 0.910283Z" fill="white"/>
<path d="M41.736 13.1681L21.6444 8.16603C21.4457 8.11653 21.2386 8.11653 21.04 8.16603L0.948309 13.1681C0.391112 13.3068 0 13.8074 0 14.3815C0 14.9559 0.391112 15.4565 0.948309 15.5952L21.04 20.5973C21.1393 20.6217 21.2406 20.6341 21.3422 20.6341C21.4438 20.6341 21.545 20.6217 21.6444 20.5973L40.1833 15.9814V21.8846C40.1833 22.5753 40.7431 23.1351 41.4338 23.1351C42.1245 23.1351 42.6843 22.5753 42.6843 21.8846V14.3815C42.6843 13.8074 42.2932 13.3068 41.736 13.1681Z" fill="white"/>
<path d="M22.2484 23.8042C21.9524 23.8778 21.6476 23.9152 21.3421 23.9152C21.0367 23.9152 20.7319 23.8778 20.4355 23.8042L6.33594 20.2939V32.252H36.3484V20.2939L22.2484 23.8042Z" fill="#7E95C0"/>
<path d="M42.6843 38.2632C42.6843 37.5725 42.1245 37.0127 41.4338 37.0127H6.25259C2.80487 37.0127 0 39.8176 0 43.2653C0 46.713 2.80487 49.5179 6.25259 49.5179H41.4338C42.1245 49.5179 42.6843 48.9581 42.6843 48.2673C42.6843 47.5766 42.1245 47.0168 41.4338 47.0168H6.25259C4.18402 47.0168 2.50103 45.3338 2.50103 43.2653C2.50103 41.1967 4.18402 39.5137 6.25259 39.5137H41.4338C42.1245 39.5137 42.6843 38.9539 42.6843 38.2632Z" fill="white"/>
<path d="M5.00195 43.2652C5.00195 43.9549 5.56306 44.5157 6.25247 44.5157H40.1832V42.0146H6.25247C5.56306 42.0146 5.00195 42.5758 5.00195 43.2652Z" fill="#DF242C"/>
</svg>
