<svg width="134" height="77" viewBox="0 0 134 77" fill="none" xmlns="http://www.w3.org/2000/svg">
<rect width="134" height="77" />
<path d="M80.4133 43.7735C79.4253 43.7735 78.5393 43.0799 78.3354 42.075C78.1005 40.9257 78.8422 39.8046 79.9915 39.5697C87.7224 37.9958 95.9177 28.4785 96.6424 13.7384H87.2667C86.0947 13.7384 85.1436 12.7873 85.1436 11.6153C85.1436 10.4433 86.0947 9.49219 87.2667 9.49219H98.8164C99.9884 9.49219 100.94 10.4433 100.94 11.6153C100.94 30.0128 90.8279 41.6956 80.8407 43.731C80.6963 43.7593 80.5548 43.7735 80.4133 43.7735Z" fill="white"/>
<path d="M53.045 43.7168C52.8921 43.7168 52.7364 43.6999 52.5779 43.6659C42.7379 41.4578 32.7734 29.7411 32.7734 11.6153C32.7734 10.4433 33.7246 9.49219 34.8966 9.49219H46.2199C47.3918 9.49219 48.343 10.4433 48.343 11.6153C48.343 12.7873 47.3918 13.7384 46.2199 13.7384H37.0735C37.7953 28.2719 45.8802 37.8117 53.5092 39.5216C54.6529 39.7792 55.3719 40.9143 55.1171 42.058C54.8935 43.0459 54.0159 43.7168 53.045 43.7168Z" fill="white"/>
<path d="M70.2822 46.6045C69.1102 46.6045 68.1591 47.5556 68.1591 48.7276H65.3283C65.3283 47.5556 64.3771 46.6045 63.2051 46.6045C62.0332 46.6045 61.082 47.5556 61.082 48.7276V59.0318C61.082 60.2038 62.0332 61.1549 63.2051 61.1549H70.2822C71.4542 61.1549 72.4053 60.2038 72.4053 59.0318V48.7276C72.4053 47.5556 71.4542 46.6045 70.2822 46.6045Z" fill="white"/>
<path d="M73.1123 57.6162H60.3736C56.0793 57.6162 52.5889 61.1066 52.5889 65.401V66.8164C52.5889 67.9884 53.54 68.9395 54.712 68.9395H78.774C79.9459 68.9395 80.8971 67.9884 80.8971 66.8164V65.401C80.8971 61.1066 77.4067 57.6162 73.1123 57.6162Z" fill="white"/>
<path d="M84.4359 1H49.0506C46.3189 1 44.0967 3.2222 44.0967 5.95394V26.4916C44.2184 44.7674 65.1552 52.2379 66.0469 52.5465C66.2734 52.6257 66.5083 52.6654 66.7433 52.6654C66.9782 52.6654 67.2132 52.6257 67.4368 52.5493C68.3314 52.2379 89.3899 44.7645 89.3899 26.4774V5.95394C89.3899 3.2222 87.1677 1 84.4359 1Z" fill="white"/>
<path d="M59.3987 34.1079C61.6184 35.2426 64.1093 35.8342 66.6002 35.8836C66.7235 35.8836 66.8715 35.8836 66.9948 35.8836C69.5104 35.8836 72.0013 35.341 74.2702 34.2558C76.3416 33.2694 78.2162 31.7896 79.5975 29.9399C81.1757 27.8187 81.9896 25.2787 81.9896 22.6396C81.9896 20.9625 81.9896 19.3101 81.9896 17.6331C81.9896 15.8081 81.9896 14.0077 81.9896 12.1827C81.9896 11.5415 81.9896 10.9002 81.9896 10.2837C81.9896 9.12455 80.8307 8.36001 79.7699 8.77928L74.1469 11.1222C73.777 11.2702 73.3577 11.2948 72.9878 11.1469C71.1627 10.4317 69.1404 10.0617 66.9948 10.0617C64.8491 10.0617 62.8268 10.4563 61.0018 11.1469C60.6319 11.2948 60.2126 11.2702 59.8427 11.1222L54.2196 8.85351C53.1591 8.40959 52 9.19878 52 10.3579C52 11.2211 52 12.109 52 12.9721C52 14.7725 52 16.5729 52 18.3979C52 19.927 52 21.4314 52 22.9604C52 25.402 52.7892 27.7696 54.195 29.7426C55.5267 31.5923 57.3518 33.0721 59.3987 34.1079ZM72.4698 22.6892C73.8263 22.6892 74.9361 23.799 74.9361 25.1554C74.9361 26.5118 73.8263 27.6216 72.4698 27.6216C71.1134 27.6216 70.0036 26.5118 70.0036 25.1554C70.0036 23.7745 71.1134 22.6892 72.4698 22.6892ZM61.5197 22.6892C62.8761 22.6892 63.986 23.799 63.986 25.1554C63.986 26.5118 62.8761 27.6216 61.5197 27.6216C60.1633 27.6216 59.0535 26.5118 59.0535 25.1554C59.0535 23.7745 60.1633 22.6892 61.5197 22.6892Z" fill="#DF242C"/>
<path d="M108.399 62.4448C110.618 63.5795 113.109 64.1712 115.6 64.2205C115.723 64.2205 115.871 64.2205 115.995 64.2205C118.51 64.2205 121.001 63.6779 123.27 62.5928C125.342 61.6063 127.216 60.1265 128.598 58.2768C130.176 56.1556 130.99 53.6156 130.99 50.9765C130.99 49.2994 130.99 47.6471 130.99 45.97C130.99 44.145 130.99 42.3446 130.99 40.5196C130.99 39.8784 130.99 39.2372 130.99 38.6206C130.99 37.4615 129.831 36.6969 128.77 37.1162L123.147 39.4591C122.777 39.6071 122.358 39.6318 121.988 39.4838C120.163 38.7686 118.14 38.3986 115.995 38.3986C113.849 38.3986 111.827 38.7932 110.002 39.4838C109.632 39.6318 109.213 39.6071 108.843 39.4591L103.22 37.1904C102.159 36.7465 101 37.5357 101 38.6948C101 39.558 101 40.4459 101 41.3091C101 43.1094 101 44.9098 101 46.7348C101 48.2639 101 49.7683 101 51.2974C101 53.7389 101.789 56.1065 103.195 58.0795C104.527 59.9292 106.352 61.409 108.399 62.4448ZM121.47 51.0261C122.826 51.0261 123.936 52.1359 123.936 53.4923C123.936 54.8487 122.826 55.9586 121.47 55.9586C120.113 55.9586 119.004 54.8487 119.004 53.4923C119.004 52.1115 120.113 51.0261 121.47 51.0261ZM110.52 51.0261C111.876 51.0261 112.986 52.1359 112.986 53.4923C112.986 54.8487 111.876 55.9586 110.52 55.9586C109.163 55.9586 108.053 54.8487 108.053 53.4923C108.053 52.1115 109.163 51.0261 110.52 51.0261Z" fill="#7E95C0"/>
<path d="M10.3987 62.4448C12.6184 63.5795 15.1093 64.1712 17.6002 64.2205C17.7235 64.2205 17.8715 64.2205 17.9948 64.2205C20.5104 64.2205 23.0013 63.6779 25.2702 62.5928C27.3416 61.6063 29.2162 60.1265 30.5975 58.2768C32.1757 56.1556 32.9896 53.6156 32.9896 50.9765C32.9896 49.2994 32.9896 47.6471 32.9896 45.97C32.9896 44.145 32.9896 42.3446 32.9896 40.5196C32.9896 39.8784 32.9896 39.2372 32.9896 38.6206C32.9896 37.4615 31.8307 36.6969 30.7699 37.1162L25.1469 39.4591C24.777 39.6071 24.3577 39.6318 23.9878 39.4838C22.1627 38.7686 20.1404 38.3986 17.9948 38.3986C15.8491 38.3986 13.8268 38.7932 12.0018 39.4838C11.6319 39.6318 11.2126 39.6071 10.8427 39.4591L5.21962 37.1904C4.15914 36.7465 3 37.5357 3 38.6948C3 39.558 3 40.4459 3 41.3091C3 43.1094 3 44.9098 3 46.7348C3 48.2639 3 49.7683 3 51.2974C3 53.7389 3.7892 56.1065 5.19496 58.0795C6.52673 59.9292 8.35176 61.409 10.3987 62.4448ZM23.4698 51.0261C24.8263 51.0261 25.9361 52.1359 25.9361 53.4923C25.9361 54.8487 24.8263 55.9586 23.4698 55.9586C22.1134 55.9586 21.0036 54.8487 21.0036 53.4923C21.0036 52.1115 22.1134 51.0261 23.4698 51.0261ZM12.5197 51.0261C13.8761 51.0261 14.986 52.1359 14.986 53.4923C14.986 54.8487 13.8761 55.9586 12.5197 55.9586C11.1633 55.9586 10.0535 54.8487 10.0535 53.4923C10.0535 52.1115 11.1633 51.0261 12.5197 51.0261Z" fill="#7E95C0"/>
<rect x="45" y="72" width="44" height="5" rx="2.5" fill="#7E95C0"/>
</svg>
