<svg width="22" height="19" viewBox="0 0 22 19" xmlns="http://www.w3.org/2000/svg">
<path d="M7.34991 1.00003C8.52991 0.830028 9.77991 2.12003 10.1399 3.90003C10.4999 5.67003 9.84991 7.25003 8.66991 7.43003C7.49991 7.61003 6.23991 6.32003 5.86991 4.54003C5.49991 2.77003 6.16991 1.19003 7.34991 1.00003ZM14.4999 1.00003C15.6899 1.19003 16.3499 2.77003 15.9999 4.54003C15.6199 6.32003 14.3699 7.61003 13.1899 7.43003C11.9999 7.25003 11.3499 5.67003 11.7199 3.90003C12.0799 2.12003 13.3299 0.830028 14.4999 1.00003ZM1.99991 5.60003C3.13991 5.11003 4.68991 6.00003 5.49991 7.55003C6.25991 9.13003 5.99991 10.79 4.86991 11.28C3.73991 11.77 2.19991 10.89 1.40991 9.32003C0.619906 7.75003 0.899906 6.08003 1.99991 5.60003ZM19.9999 5.60003C21.0999 6.08003 21.3799 7.75003 20.5899 9.32003C19.7999 10.89 18.2599 11.77 17.1299 11.28C15.9999 10.79 15.7399 9.13003 16.4999 7.55003C17.3099 6.00003 18.8599 5.11003 19.9999 5.60003ZM18.3299 16.38C18.3699 17.32 17.6499 18.36 16.7899 18.75C14.9999 19.57 12.8799 17.87 10.8899 17.87C8.89991 17.87 6.75991 19.64 4.99991 18.75C3.99991 18.26 3.30991 16.96 3.43991 15.88C3.61991 14.39 5.40991 13.59 6.46991 12.5C7.87991 11.09 8.87991 8.44003 10.8899 8.44003C12.8899 8.44003 13.9499 11.05 15.2999 12.5C16.4099 13.72 18.2599 14.75 18.3299 16.38Z"/>
</svg>
