<svg width="134" height="76" viewBox="0 0 134 76" fill="none" xmlns="http://www.w3.org/2000/svg">
<path d="M120.842 23.391C120.842 22.1007 120.339 20.886 119.426 19.9733L114.869 15.4162C113.969 14.5162 112.691 14 111.42 14H111.143V23.668H120.842L120.842 23.391Z" fill="#204995"/>
<path d="M108.507 51.483C108.817 50.4275 109.356 49.4449 110.06 48.6484L121 36.3994V28.5312H109.647C108.754 28.5312 108.083 27.7188 108.083 26.7148V14H83.8472C81.1744 14 79 16.4444 79 19.4492V70.5508C79 73.5556 81.1744 76 83.8472 76H116.11C118.783 76 121 73.5556 121 70.5508V56.9942L119.224 58.9419C118.505 59.7436 117.662 60.3272 116.712 60.6838L111.575 62.612L110.792 62.66C109.498 62.66 108.274 61.9522 107.513 60.7673C106.759 59.5877 106.554 58.0586 106.964 56.6768L108.507 51.483ZM87.0787 46.6953H103.184C104.077 46.6953 104.799 47.5077 104.799 48.5117C104.799 49.5157 104.077 50.3281 103.184 50.3281H87.0787C86.1856 50.3281 85.463 49.5157 85.463 48.5117C85.463 47.5077 86.1856 46.6953 87.0787 46.6953ZM85.463 41.2461C85.463 40.2421 86.1856 39.4297 87.0787 39.4297H103.184C104.077 39.4297 104.799 40.2421 104.799 41.2461C104.799 42.2501 104.077 43.0625 103.184 43.0625H87.0787C86.1856 43.0625 85.463 42.2501 85.463 41.2461ZM85.463 55.7773C85.463 54.7734 86.1856 53.9609 87.0787 53.9609H103.184C104.077 53.9609 104.799 54.7734 104.799 55.7773C104.799 56.7813 104.077 57.5938 103.184 57.5938H87.0787C86.1856 57.5938 85.463 56.7813 85.463 55.7773ZM109.647 64.8594C110.54 64.8594 111.262 65.6718 111.262 66.6758C111.262 67.6798 110.54 68.4922 109.647 68.4922H99.9522C99.0592 68.4922 98.3365 67.6798 98.3365 66.6758C98.3365 65.6718 99.0592 64.8594 99.9522 64.8594H109.647ZM87.0787 35.7969C86.1856 35.7969 85.463 34.9845 85.463 33.9805C85.463 32.9765 86.1856 32.1641 87.0787 32.1641H109.647C110.54 32.1641 111.262 32.9765 111.262 33.9805C111.262 34.9845 110.54 35.7969 109.647 35.7969H87.0787Z" fill="white"/>
<path d="M111.818 53.4727L110.699 57.7622C110.531 58.4047 111.169 58.9629 111.784 58.7111L115.884 57.0313L111.818 53.4727Z" fill="#DF242C"/>
<path d="M123.424 39.4041L113.54 50.6976L118.411 54.9602C120.644 52.4073 124.991 47.4401 128.294 43.6663L123.424 39.4041Z" fill="#DF242C"/>
<path d="M132.289 34.1825C131.686 33.6517 130.833 33.3821 129.95 33.4408C129.068 33.4996 128.257 33.8799 127.727 34.4878L125.546 36.9796L130.416 41.2415C131.61 39.8773 132.435 38.9344 132.597 38.7495C133.769 37.4081 133.632 35.3594 132.289 34.1825Z" fill="#7E95C0"/>
<path d="M133.056 35.3669C133.056 35.3669 133.056 35.3667 133.057 35.3666C133.061 35.3622 133.063 35.3603 133.066 35.3567C133.063 35.3604 133.061 35.3624 133.056 35.3669Z" fill="white"/>
<path d="M133.066 35.3572C133.072 35.3519 133.078 35.3457 133.081 35.3425C133.078 35.3458 133.072 35.3519 133.066 35.3572Z" fill="white"/>
<path d="M133.08 35.3434C133.093 35.331 133.093 35.3307 133.08 35.3434V35.3434Z" fill="white"/>
<path d="M129.85 15.1367C128.956 14.4906 128.433 13.7542 128.25 13.053C127.573 10.4354 125.305 8.60669 122.852 8.60669C120.399 8.60669 118.212 10.4354 117.535 13.0543C117.352 13.7533 116.83 14.4906 115.935 15.138C114.846 15.9269 114.348 17.1467 114.635 18.3236C114.98 19.7387 116.552 20.9976 118.702 20.9976C119.611 20.9976 120.474 20.7647 121.197 20.3239C121.677 20.0296 122.249 19.8736 122.849 19.8736C123.45 19.8736 124.102 20.0286 124.588 20.3227C125.313 20.7657 126.172 21.0001 127.073 21.0001C129.221 21.0001 130.803 19.7474 131.15 18.3236C131.437 17.1467 130.938 15.9257 129.85 15.1367Z" fill="#7E95C0"/>
<path d="M116.704 8.607C116.704 7.18415 115.579 4.91821 114.245 4.91821C112.911 4.91821 111.785 7.18415 111.785 8.607C111.785 9.96259 112.889 11.0661 114.245 11.0661C115.6 11.0661 116.704 9.96259 116.704 8.607Z" fill="#7E95C0"/>
<path d="M131.541 4.91797C130.207 4.91797 129.082 7.1839 129.082 8.60676C129.082 9.96235 130.185 11.0658 131.541 11.0658C132.897 11.0658 134 9.96235 134 8.60676C134 7.1839 132.875 4.91797 131.541 4.91797Z" fill="#7E95C0"/>
<path d="M124.164 3.68879C124.164 5.04438 125.267 6.14788 126.623 6.14788C127.978 6.14788 129.082 5.04438 129.082 3.68879C129.082 2.26593 127.957 0 126.623 0C125.289 0 124.164 2.26593 124.164 3.68879Z" fill="#7E95C0"/>
<path d="M116.704 3.68879C116.704 5.04438 117.808 6.14788 119.163 6.14788C120.519 6.14788 121.622 5.04438 121.622 3.68879C121.622 2.26593 120.497 0 119.163 0C117.829 0 116.704 2.26593 116.704 3.68879Z" fill="#7E95C0"/>
<path d="M3.98081 36.3338C6.95591 31.8642 10.8389 29.6293 15.6298 29.6293C20.1553 29.6293 22.4041 30.7468 22.4041 32.9816C22.4041 34.6856 21.58 35.5376 19.9318 35.5376C19.4569 35.5376 18.7446 35.398 17.8227 35.0907C16.8869 34.7974 16.1606 34.6577 15.6298 34.6577C12.3334 34.6577 9.67959 36.4176 7.65429 39.9235C5.95024 42.8427 5.09822 46.1111 5.09822 49.7287C5.09822 54.9386 6.87211 59.4222 10.4059 63.1656C13.9397 66.9228 18.3116 68.7945 23.5215 68.7945L23.9265 68.8085C23.5075 67.5933 23.1025 66.2384 22.7253 64.9394C22.3482 63.6405 22.1666 62.4253 22.1666 61.3079C22.1666 57.6903 22.6555 53.5977 24.4573 49.0164C26.5245 43.9601 31.916 38.1775 40.2686 37.4512C43.7326 37.0741 45.4506 36.8366 45.9255 35.4538C46.8334 32.9536 49.0822 30.9004 51.1354 30.4674C51.4148 30.3696 53.7613 30.2858 53.5239 27.0733C53.1188 21.5002 54.3759 19 54.3759 19C54.3759 19 58.0773 24.154 61.4715 24.154C62.0302 24.154 62.6028 24.0423 63.1755 23.8607C66.0947 22.9528 69 20.1314 69 20.1314C69 21.137 68.4972 23.5115 67.4775 27.2269C68.2178 28.931 68.5949 30.2858 68.5949 31.2915C68.5949 32.6743 67.715 34.504 65.969 36.7528C64.2091 39.0156 62.9101 40.6218 63.818 45.2451C64.237 47.3822 62.8822 49.184 61.0245 51.3071C59.4322 53.0111 57.8539 54.6872 56.3174 56.3354C55.7308 57.1316 55.4375 58.5143 55.4375 60.4838C55.4375 61.2241 55.5492 62.6348 55.7587 64.716C56.0241 67.0066 56.2615 68.2777 56.4711 68.5431C57.0577 68.8643 57.6723 69.2135 58.3008 69.5767C59.2646 70.1633 59.7395 70.8477 59.7395 71.6439C59.7395 72.5518 58.8316 72.9987 57.0298 72.9987C54.6413 72.9987 53.035 72.4959 52.2389 71.4763C51.5964 70.7919 51.0377 69.1856 50.5628 66.6854C50.1856 71.3087 48.3 75.6247 36.8466 75.6247C35.6174 75.6247 33.7039 75.6107 31.3713 74.9961C29.0247 74.3815 27.3765 73.8228 26.1614 73.8647H24.7227C17.697 74.0743 11.8306 71.8394 7.09558 67.1603C2.37453 62.523 4.57764e-05 56.6986 4.57764e-05 49.7287C4.57764e-05 44.6724 1.32697 40.2028 3.98081 36.3338ZM63.7761 33.3866C63.7761 33.3866 63.413 33.0654 62.6587 33.3587C62.8403 33.6939 63.0079 33.8895 63.2174 33.9034C63.5107 33.9034 63.7761 33.3866 63.7761 33.3866ZM60.2144 32.1575C60.7451 32.1575 61.4016 32.0038 61.9883 31.6267C61.7089 30.6071 60.7172 30.1182 60.7172 30.1182L60.0747 31.7105L59.9909 30.0344C59.1808 30.0204 58.4126 30.621 58.4126 30.621C58.4126 30.621 58.9852 32.1575 60.2144 32.1575ZM67.2121 30.6071C67.2121 30.6071 66.4439 30.0065 65.6338 30.0204L65.55 31.6965L64.9075 30.1042C64.9075 30.1042 63.9158 30.6071 63.6364 31.6127C64.2231 31.9899 64.8656 32.1435 65.4103 32.1435C66.6255 32.1575 67.2121 30.6071 67.2121 30.6071Z" fill="white"/>
<circle r="5.41176" transform="matrix(-1 0 0 1 62.2352 31.0775)" fill="white"/>
</svg>
