<svg width="30" height="22" viewBox="0 0 30 22" fill="none" xmlns="http://www.w3.org/2000/svg">
<path d="M29.5887 4.83518C29.2343 4.53266 28.7342 4.46891 28.3151 4.67293L21.9024 7.79481L15.8853 0.857188C15.6627 0.600547 15.3397 0.453125 15 0.453125C14.6603 0.453125 14.3373 0.600547 14.1147 0.857188L8.09758 7.79475L1.68485 4.67287C1.26572 4.46891 0.765686 4.5326 0.411193 4.83512C0.0567011 5.13764 -0.0848614 5.6215 0.050666 6.0674L4.50379 20.7158C4.65385 21.2095 5.10906 21.5469 5.62498 21.5469H24.375C24.8908 21.5469 25.3461 21.2095 25.4961 20.7159L29.9492 6.06746C30.0848 5.62156 29.9433 5.1377 29.5887 4.83518ZM23.5063 19.2031H6.49352L3.07451 7.95617L7.88049 10.2959C8.35768 10.5281 8.93108 10.4108 9.27871 10.0101L15 3.41357L20.7213 10.0101C21.0689 10.4109 21.6425 10.5281 22.1195 10.2959L26.9255 7.95617L23.5063 19.2031Z" fill="#204995"/>
</svg>
