<svg width="134" height="78" viewBox="0 0 134 78" fill="none" xmlns="http://www.w3.org/2000/svg">
<path d="M119.351 5.70581V47.2131L133.615 9.97679C133.884 9.27577 133.456 8.50174 132.72 8.35583L119.351 5.70581Z" fill="#7E95C0"/>
<path d="M114.773 0H73.2273C72.5498 0 72 0.56875 72 1.26953V63.7305C72 64.4313 72.5498 65 73.2273 65H114.773C115.45 65 116 64.4313 116 63.7305V1.26953C116 0.56875 115.45 0 114.773 0ZM108.042 56.3888H79.9566C78.9404 56.3888 78.1156 55.5356 78.1156 54.4845C78.1156 53.4333 78.9404 52.5802 79.9566 52.5802H108.042C109.058 52.5802 109.883 53.4333 109.883 54.4845C109.883 55.5356 109.058 56.3888 108.042 56.3888ZM94.0018 42.3985H93.9969C85.0033 42.3985 77.6677 34.8689 77.6677 25.5049C77.6677 16.1434 84.9996 8.61123 93.9969 8.61123H94.0018C103.007 8.6125 110.331 16.1916 110.331 25.5049C110.331 34.8194 103.007 42.3973 94.0018 42.3985Z" fill="white"/>
<path d="M89.7795 12.5818C85.3983 14.1536 82.3153 17.9777 81.6602 22.5115H87.3588C87.5695 18.7152 88.4341 15.2446 89.7795 12.5818Z" fill="black"/>
<path d="M106.36 22.5115C105.686 17.916 102.5 14.127 98.2451 12.5867C99.5893 15.2507 100.453 18.7189 100.662 22.5115H106.36Z" fill="black"/>
<path d="M89.7783 36.074C88.4317 33.4099 87.5683 29.9394 87.3588 26.1443H81.6602C82.3153 30.678 85.3983 34.5022 89.7783 36.074Z" fill="black"/>
<path d="M106.36 26.1443H100.662C100.453 29.9369 99.5893 33.4051 98.2451 36.0691C102.5 34.5288 105.686 30.7398 106.36 26.1443Z" fill="black"/>
<path d="M97.0257 26.1443C96.3881 26.1443 91.6342 26.1443 90.9953 26.1443C91.2738 30.6914 92.5719 34.1377 94.0105 36.0413C95.4491 34.1377 96.7472 30.6914 97.0257 26.1443Z" fill="black"/>
<path d="M97.0257 22.5113C96.7472 17.9642 95.4491 14.5191 94.0105 12.6155C92.5731 14.5179 91.275 17.9642 90.9965 22.5113H97.0257Z" fill="black"/>
<rect x="74.1754" y="5.43848" width="39.7018" height="53.8421" fill="white"/>
<rect x="77.9825" y="44.5088" width="31.5439" height="3.80701" rx="1.90351" fill="#7E95C0"/>
<rect x="77.9825" y="53.1228" width="23.9298" height="3.80702" rx="1.90351" fill="#7E95C0"/>
<path d="M88.0576 31.0828C89.7222 31.9338 91.5903 32.3775 93.4584 32.4145C93.5509 32.4145 93.6619 32.4145 93.7544 32.4145C95.641 32.4145 97.5091 32.0076 99.2107 31.1937C100.764 30.4539 102.17 29.3441 103.206 27.9569C104.39 26.3661 105 24.4612 105 22.4819C105 21.2242 105 19.9849 105 18.7272C105 17.3585 105 16.0083 105 14.6396C105 14.1587 105 13.6778 105 13.2154C105 12.3461 104.131 11.7727 103.335 12.0871L99.1182 13.8443C98.8408 13.9552 98.5264 13.9737 98.2489 13.8628C96.8802 13.3264 95.3635 13.0489 93.7544 13.0489C92.1452 13.0489 90.6285 13.3449 89.2598 13.8628C88.9824 13.9737 88.668 13.9552 88.3905 13.8443L84.1734 12.1428C83.3781 11.8099 82.5088 12.4018 82.5088 13.2711C82.5088 13.9184 82.5088 14.5843 82.5088 15.2316C82.5088 16.5819 82.5088 17.9321 82.5088 19.3008C82.5088 20.4475 82.5088 21.5758 82.5088 22.7225C82.5088 24.5537 83.1007 26.3293 84.1549 27.809C85.1537 29.1962 86.5224 30.3059 88.0576 31.0828ZM97.8605 22.5191C98.8778 22.5191 99.7101 23.3514 99.7101 24.3687C99.7101 25.386 98.8778 26.2183 97.8605 26.2183C96.8432 26.2183 96.0109 25.386 96.0109 24.3687C96.0109 23.3331 96.8432 22.5191 97.8605 22.5191ZM89.6483 22.5191C90.6655 22.5191 91.4979 23.3514 91.4979 24.3687C91.4979 25.386 90.6655 26.2183 89.6483 26.2183C88.631 26.2183 87.7987 25.386 87.7987 24.3687C87.7987 23.3331 88.631 22.5191 89.6483 22.5191Z" fill="#DF242C"/>
<path d="M4.06326 52.6622C3.21923 56.1377 3.81528 58.7681 5.55259 61.0021C7.28989 63.2361 5.35384 64.5267 3.91465 65.2219C2.47547 65.9171 1.92865 66.3639 1.82946 67.3565C1.73026 68.3491 3.0708 72.222 3.71609 72.8672C4.36138 73.5125 5.80147 74.9025 6.74397 76.3426C7.68738 77.7818 8.92801 76.8392 8.92801 76.8392C9.82127 77.5345 10.7153 76.8392 10.7153 76.8392C12.304 77.5839 13.2472 76.5413 13.2472 76.5413C14.0411 75.5981 12.3539 74.6054 12.3539 74.6054C11.3113 72.7688 10.5172 74.2581 10.2193 73.8608C9.92137 73.4635 9.67339 73.4141 8.08469 71.5776C6.49599 69.7411 10.6166 70.3362 12.056 69.9889C13.4954 69.6415 16.226 67.805 16.226 67.805C16.226 69.9889 16.9707 69.6417 18.0627 70.7837C19.1547 71.9256 19.6514 72.6703 21.0906 73.2656C22.5298 73.8617 23.2252 73.7623 24.516 74.6063C25.8067 75.4504 28.4873 75.3016 28.4873 75.3016C29.6785 75.6991 30.8206 75.3016 30.8206 75.3016C33.6999 75.3016 32.5085 74.309 31.4659 72.9682C30.4233 71.6275 28.3386 72.7695 27.3954 72.1242C26.4522 71.4789 24.1188 70.4863 22.9274 69.7909C21.7362 69.0956 22.9274 67.855 22.9274 66.713C22.9274 65.5711 23.8207 64.6778 23.8207 64.6778H28.4373C28.4373 64.6778 32.0111 64.4298 32.9545 66.3657C33.8979 68.3015 35.3371 68.699 35.3871 69.7416C35.4372 70.7842 34.543 70.8836 34.543 70.8836C32.557 70.3377 32.5078 73.5149 32.5078 73.5149C34.9403 76.7417 39.6565 72.1742 39.6565 72.1742C45.1169 71.6775 44.7196 63.6357 44.7196 63.6357C45.8116 62.8418 47.5494 60.7565 48.6909 58.8697C49.8329 56.983 53.0595 55.5438 55.9388 56.9338C58.818 58.3237 59.3147 55.9906 59.3147 55.9906C60.3074 56.1392 60.6053 54.8486 60.6053 54.8486C61.8959 53.4094 59.6127 53.0613 59.5627 49.4874C59.5127 45.9134 56.5348 45.2674 56.6834 44.2255C56.832 43.1829 59.8606 39.8569 59.116 40.1549C58.4662 40.4146 55.7364 41.7715 55.0527 42.1122C55.03 42.0224 54.9851 41.8943 54.8962 41.6943C54.4987 40.8011 50.1301 43.6302 50.1301 43.6302C50.1301 43.6302 43.2054 47.7257 41.8647 48.0238C40.5238 48.3218 40.6735 47.4278 39.0353 47.5771C37.3972 47.7257 36.5775 47.8751 29.2061 44.7471C21.834 41.6198 8.40734 46.649 8.40734 46.649C8.40734 46.649 -2.31407 29.5583 6.62098 22.1867C15.556 14.8151 3.60554 8.67263 0.70119 24.7554C-2.20298 40.8384 4.9073 49.1878 4.06326 52.6622Z" fill="white"/>
<rect x="72" y="72" width="44" height="5" rx="2.5" fill="#7E95C0"/>
</svg>
