<svg width="112" height="64" viewBox="0 0 112 64" fill="none" xmlns="http://www.w3.org/2000/svg">
<rect width="112" height="64"/>
<g clip-path="url(#clip0)">
<path d="M5.73195 15.125C4.68498 15.125 3.73828 15.9497 3.73828 17C3.73828 18.0498 4.68498 18.875 5.73195 18.875H7.60102V15.125H5.73195Z" fill="#DF242C"/>
<path d="M35.6364 18.875C36.6834 18.875 37.5055 18.0498 37.5055 17C37.5055 15.9497 36.6834 15.125 35.6364 15.125H33.7673V18.875H35.6364Z" fill="#DF242C"/>
<path d="M5.73195 30.1245C4.68498 30.1245 3.73828 30.9497 3.73828 31.9995C3.73828 33.0498 4.68498 33.8745 5.73195 33.8745H7.60102V30.1245H5.73195Z" fill="#DF242C"/>
<path d="M5.73195 45.1245C4.68498 45.1245 3.73828 45.9492 3.73828 46.9995C3.73828 48.0493 4.68498 48.8745 5.73195 48.8745H7.60102V45.1245H5.73195Z" fill="#DF242C"/>
<path d="M63.797 62.1246C63.797 61.088 62.9608 60.2496 61.9279 60.2496H56.1961V37.7106L60.7666 41.0597C61.6407 41.6412 62.9194 41.3888 63.483 40.5397C64.0559 39.6774 63.8242 38.5148 62.9647 37.9396L42.2803 22.9401C41.6524 22.5187 40.8347 22.5187 40.2068 22.9401L19.6476 37.9396C18.788 38.5148 18.5558 39.6774 19.1292 40.5397C19.6967 41.3986 20.8557 41.6295 21.7211 41.0597L26.291 37.7106V60.2496H22.5534V48.8746H7.60087V60.2496H1.86907C0.835726 60.2496 0 61.088 0 62.1246C0 63.1608 0.835726 63.9996 1.86907 63.9996H61.9279C62.9608 63.9996 63.797 63.1608 63.797 62.1246ZM41.2436 56.3746C36.091 56.3746 31.8982 52.1686 31.8982 46.9996C31.8982 41.8307 36.091 37.6246 41.2436 37.6246C46.3962 37.6246 50.5889 41.8307 50.5889 46.9996C50.5889 52.1686 46.3962 56.3746 41.2436 56.3746Z" fill="white"/>
<path d="M16.0116 42.6118C14.2404 39.9468 15.1082 36.4175 17.5814 34.812L18.8522 33.8745H7.60083V45.1245H20.6843C18.8152 45.1245 17.0581 44.187 16.0116 42.6118Z" fill="#7E95C0"/>
<path d="M33.7673 3.75H39.3745C40.4079 3.75 41.2436 2.91162 41.2436 1.875C41.2436 0.838867 40.4079 0 39.3745 0H1.86907C0.835726 0 0 0.838867 0 1.875C0 2.91162 0.835726 3.75 1.86907 3.75H7.60087V15.125H33.7673V3.75Z" fill="#7E95C0"/>
<path d="M33.7673 23V18.875H7.60083V30.1245H24.0111L33.7673 23Z" fill="white"/>
<path d="M41.2434 41.3745C38.1517 41.3745 35.6362 43.8979 35.6362 46.9995C35.6362 50.1011 38.1517 52.6245 41.2434 52.6245C44.3352 52.6245 46.8506 50.1011 46.8506 46.9995C46.8506 43.8979 44.3352 41.3745 41.2434 41.3745Z" fill="#DF242C"/>
</g>
<path d="M108.331 9.87596C107.803 9.42816 106.88 9.00276 105.979 9.40577C104.265 10.5924 112 15.451 108.089 31.7061C107.276 35.0646 105.276 33.3181 102.902 32.5793C97.4964 30.8553 91.7167 30.4746 86.1129 29.8701C84.1351 29.6462 82.1133 29.4895 80.2014 28.9521C78.1796 28.3924 78.0917 28.2804 78.5971 26.3997C80.0036 24.5861 79.4322 22.1008 79.3663 21.0709C80.4211 18.6976 80.8167 16.6377 79.9816 15.5854C77.7181 12.8538 77.3445 19.929 74.3997 19.9514C73.0592 19.8171 72.1802 19.929 71.8505 19.1901C71.2572 17.9139 70.3342 16.2571 69.1475 15.4734C67.3235 14.242 66.9499 17.6452 67.7191 20.8694C67.4773 22.8397 67.6532 24.1831 68.6421 25.616C69.1475 26.3325 69.2574 27.2281 69.4112 28.0789C69.6969 29.5567 69.8727 31.3926 69.8727 32.8927C69.8727 33.7436 70.0265 36.3856 70.1584 37.2364C70.7737 41.0874 70.9715 41.8487 73.8064 44.6698C74.9931 45.8565 76.7951 46.8864 77.5423 48.4761C78.0917 49.6851 78.5752 51.0061 79.0806 52.2152C80.0695 54.5437 80.6849 56.9171 81.1024 59.4023C81.3441 60.7457 78.2016 61.0368 78.729 62.8952C79.1465 64.4177 83.1462 64.3953 83.3879 62.6489C83.5417 61.6637 84.0032 59.8725 84.223 58.5067C85.3877 53.3795 83.6736 51.3868 85.0141 46.7297C85.3657 45.0504 91.8047 48.297 92.6837 48.9015C94.4637 50.1329 96.3756 51.1181 98.1777 52.3048C100.969 54.1407 99.0347 55.7528 97.2327 57.2529C96.2658 58.0589 96.2658 58.1037 95.0351 57.8127C94.0242 57.6112 93.2331 58.2381 93.0133 58.9769C92.6837 60.0293 94.178 60.7457 95.2109 60.6114C98.3095 60.2755 102.595 56.9842 103.935 54.1407C104.836 55.2154 104.463 56.223 103.957 57.5888C103.738 58.1709 103.496 58.7306 103.298 59.3128C102.859 60.6338 102.441 60.2755 101.386 60.5218C99.8259 61.0368 100.529 63.3653 102.243 63.0967C102.837 63.0071 105.078 62.7384 105.32 61.6861C105.43 61.2159 105.891 60.2532 106.111 59.783C106.594 58.6187 109.275 52.5287 108.089 51.3644C107.473 50.7822 106.99 50.1777 106.528 49.4612C105.803 48.297 106.133 48.1626 106.77 47.1775C107.43 46.1475 108.023 44.9385 108.594 43.8638C109.891 41.3113 108.924 39.1171 110.067 35.7139C113.605 24.81 111.847 12.8762 108.331 9.87596Z" fill="white"/>
<defs>
<clipPath id="clip0">
<rect width="63.7975" height="64" fill="white"/>
</clipPath>
</defs>
</svg>
