<svg width="60" height="60" viewBox="0 0 60 60" fill="none" xmlns="http://www.w3.org/2000/svg">
<g clip-path="url(#clip0_56_1426)">
<path d="M58 18.6001H2C1.5 18.6001 1 18.2001 1 17.6001C1 17.0001 1.4 16.6001 2 16.6001H58C58.5 16.6001 59 17.0001 59 17.6001C59 18.2001 58.5 18.6001 58 18.6001Z" fill="#E8A15B"/>
<path d="M10.7 39.5001C10.6 39.5001 10.5 39.5001 10.4 39.5001C9.89995 39.4001 9.59995 38.8001 9.79995 38.3001L13 27.3001C13.1 26.8001 13.7 26.5001 14.2 26.7001C14.7 26.8001 15 27.4001 14.8 27.9001L11.6 38.9001C11.5 39.2001 11.1 39.5001 10.7 39.5001Z" fill="#E8A15B"/>
<path d="M16.7 39.5001C16.6 39.5001 16.5 39.5001 16.4 39.5001C15.9 39.4001 15.6 38.8001 15.8 38.3001L19 27.3001C19.1 26.8001 19.7 26.5001 20.2 26.7001C20.7 26.8001 20.9999 27.4001 20.8 27.9001L17.6 38.9001C17.5 39.2001 17.1 39.5001 16.7 39.5001Z" fill="#E8A15B"/>
<path d="M22.7 39.5001C22.6 39.5001 22.5 39.5001 22.4 39.5001C21.9 39.4001 21.6 38.8001 21.8 38.3001L25 27.3001C25.1 26.8001 25.7 26.5001 26.2 26.7001C26.7 26.8001 27 27.4001 26.8 27.9001L23.6 38.9001C23.5 39.2001 23.1 39.5001 22.7 39.5001Z" fill="#E8A15B"/>
<path d="M28.7 39.5001C28.6 39.5001 28.5 39.5001 28.4 39.5001C27.9 39.4001 27.6 38.8001 27.8 38.3001L31 27.3001C31.1 26.8001 31.7 26.5001 32.2 26.7001C32.7 26.8001 33 27.4001 32.8 27.9001L29.6 38.9001C29.5 39.2001 29.1 39.5001 28.7 39.5001Z" fill="#E8A15B"/>
<path d="M34.7 39.5001C34.6 39.5001 34.5 39.5001 34.4 39.5001C33.9 39.4001 33.6 38.8001 33.8 38.3001L37 27.3001C37.1 26.8001 37.7 26.5001 38.2 26.7001C38.7 26.8001 39 27.4001 38.8 27.9001L35.5999 38.9001C35.4999 39.2001 35.1 39.5001 34.7 39.5001Z" fill="#E8A15B"/>
<path d="M40.7 39.5001C40.6 39.5001 40.5 39.5001 40.4 39.5001C39.9 39.4001 39.6 38.8001 39.8 38.3001L43 27.3001C43.1 26.8001 43.7 26.5001 44.2 26.7001C44.7 26.8001 45 27.4001 44.8 27.9001L41.5999 38.9001C41.4999 39.2001 41.1 39.5001 40.7 39.5001Z" fill="#E8A15B"/>
<path d="M54.3996 53.5001H5.59961C3.09961 53.5001 1.09961 51.5001 1.09961 49.0001V11.1001C1.09961 8.6001 3.09961 6.6001 5.59961 6.6001H54.4996C56.9996 6.6001 58.9996 8.6001 58.9996 11.1001V49.0001C58.9996 51.4001 56.8996 53.5001 54.3996 53.5001ZM5.59961 8.5001C4.09961 8.5001 2.99961 9.6001 2.99961 11.1001V49.0001C2.99961 50.4001 4.19961 51.6001 5.59961 51.6001H54.4996C55.8996 51.6001 57.0996 50.4001 57.0996 49.0001V11.1001C57.0996 9.7001 55.8996 8.5001 54.4996 8.5001H5.59961Z" fill="#3F496A"/>
<path d="M51.0996 39.5001H8.89961C7.59961 39.5001 6.59961 38.5001 6.59961 37.2001V28.9001C6.59961 27.6001 7.59961 26.6001 8.89961 26.6001H51.1996C52.4996 26.6001 53.4996 27.6001 53.4996 28.9001V37.2001C53.4996 38.4001 52.3996 39.5001 51.0996 39.5001ZM8.89961 28.5001C8.69961 28.5001 8.49961 28.7001 8.49961 28.9001V37.2001C8.49961 37.4001 8.69961 37.6001 8.89961 37.6001H51.1996C51.3996 37.6001 51.5996 37.4001 51.5996 37.2001V28.9001C51.5996 28.7001 51.3996 28.5001 51.1996 28.5001H8.89961Z" fill="#637EA8"/>
<path d="M9.8 14.2002H7C6.5 14.2002 6 13.8002 6 13.2002C6 12.6002 6.4 12.2002 7 12.2002H9.8C10.3 12.2002 10.8 12.6002 10.8 13.2002C10.8 13.8002 10.3 14.2002 9.8 14.2002Z" fill="#637EA8"/>
<path d="M16.3996 14.2002H13.5996C13.0996 14.2002 12.5996 13.8002 12.5996 13.2002C12.5996 12.6002 12.9996 12.2002 13.5996 12.2002H16.3996C16.8996 12.2002 17.3996 12.6002 17.3996 13.2002C17.3996 13.8002 16.8996 14.2002 16.3996 14.2002Z" fill="#637EA8"/>
<path d="M23.0002 14.2002H20.2002C19.7002 14.2002 19.2002 13.8002 19.2002 13.2002C19.2002 12.6002 19.6002 12.2002 20.2002 12.2002H23.0002C23.5002 12.2002 24.0002 12.6002 24.0002 13.2002C24.0002 13.8002 23.5002 14.2002 23.0002 14.2002Z" fill="#637EA8"/>
<path d="M52.8 14.2002H39C38.5 14.2002 38 13.8002 38 13.2002C38 12.6002 38.4 12.2002 39 12.2002H52.8C53.3 12.2002 53.8 12.6002 53.8 13.2002C53.8 13.8002 53.3 14.2002 52.8 14.2002Z" fill="#3F496A"/>
</g>
<defs>
<clipPath id="clip0_56_1426">
<rect width="60" height="60" fill="white"/>
</clipPath>
</defs>
</svg>
