<svg width="60" height="60" viewBox="0 0 60 60" fill="none" xmlns="http://www.w3.org/2000/svg">
<path d="M49.3 7.30005H45V9.20005H49.4C50.9 9.20005 52.1 10.4 52.1 11.9V53.6C52.1 55.1 50.9 56.3 49.4 56.3H10.7C9.2 56.3 8 55.1 8 53.6V11.9C8 10.4 9.2 9.20005 10.7 9.20005H15V7.30005H10.6C8.1 7.30005 6 9.40005 6 11.9V53.6C6 56.1 8.1 58.2001 10.6 58.2001H49.3C51.8 58.2001 53.9 56.1 53.9 53.6V11.9C54 9.40005 51.9 7.30005 49.3 7.30005Z" fill="#637EA8"/>
<path d="M39.1 7.30005H33V9.20005H39.1V7.30005Z" fill="#637EA8"/>
<path d="M27.1 7.30005H21V9.20005H27.1V7.30005Z" fill="#637EA8"/>
<path d="M18 1.80005C16.4 1.80005 15 3.10005 15 4.80005V8.30005V10.2V11.7C15 13.3 16.3 14.7 18 14.7C19.7 14.7 21 13.4 21 11.7V10.2V8.30005V4.80005C21 3.10005 19.6 1.80005 18 1.80005ZM19 8.30005V10.2V11.7C19 12.3 18.5 12.7 18 12.7C17.5 12.7 17 12.2 17 11.7V10.2V8.30005V4.80005C17 4.20005 17.5 3.80005 18 3.80005C18.5 3.80005 19 4.30005 19 4.80005V8.30005Z" fill="#3F496A"/>
<path d="M30 1.80005C28.4 1.80005 27 3.10005 27 4.80005V8.30005V10.2V11.7C27 13.3 28.3 14.7 30 14.7C31.7 14.7 33 13.4 33 11.7V10.2V8.30005V4.80005C33 3.10005 31.6 1.80005 30 1.80005ZM31 10.2V11.7C31 12.3 30.5 12.7 30 12.7C29.5 12.7 29 12.2 29 11.7V10.2V8.30005V4.80005C29 4.20005 29.5 3.80005 30 3.80005C30.5 3.80005 31 4.30005 31 4.80005V8.30005V10.2Z" fill="#3F496A"/>
<path d="M42 1.80005C40.4 1.80005 39 3.10005 39 4.80005V8.30005V10.2V11.7C39 13.3 40.3 14.7 42 14.7C43.7 14.7 45 13.4 45 11.7V10.2V8.30005V4.80005C45 3.10005 43.6 1.80005 42 1.80005ZM43 10.2V11.7C43 12.3 42.5 12.7 42 12.7C41.5 12.7 41 12.2 41 11.7V10.2V8.30005V4.80005C41 4.20005 41.5 3.80005 42 3.80005C42.5 3.80005 43 4.30005 43 4.80005V8.30005V10.2Z" fill="#3F496A"/>
<path d="M14 27.2002C13.6 27.2002 13.4 27.0002 13.2 26.8002L11.2 23.8002C10.9 23.4002 11 22.8002 11.5 22.5002C11.9 22.2002 12.5 22.3002 12.8 22.8002L14.1 24.8002L19.3 18.8002C19.6 18.4002 20.2 18.4002 20.6 18.7002C21 19.0002 21 19.6002 20.7 20.0002L14.7 27.0002C14.5 27.1002 14.3 27.2002 14 27.2002Z" fill="#3F496A"/>
<path d="M47 25.7002H25C24.5 25.7002 24 25.3002 24 24.7002V20.7002C24 20.2002 24.4 19.7002 25 19.7002H47C47.5 19.7002 48 20.1002 48 20.7002V24.7002C48 25.3002 47.5 25.7002 47 25.7002ZM26 23.8002H46V21.7002H26V23.8002Z" fill="#E8A15B"/>
<path d="M14 38.7002C13.6 38.7002 13.4 38.5002 13.2 38.3002L11.2 35.3002C10.9 34.9002 11 34.3002 11.5 34.0002C11.9 33.7002 12.5 33.8002 12.8 34.3002L14.1 36.3002L19.3 30.3002C19.6 29.9002 20.2 29.9002 20.6 30.2002C21 30.5002 21 31.1002 20.7 31.5002L14.7 38.5002C14.5 38.6002 14.3 38.7002 14 38.7002Z" fill="#3F496A"/>
<path d="M47 37.2002H25C24.5 37.2002 24 36.8002 24 36.2002V32.2002C24 31.7002 24.4 31.2002 25 31.2002H47C47.5 31.2002 48 31.6002 48 32.2002V36.2002C48 36.8002 47.5 37.2002 47 37.2002ZM26 35.3002H46V33.2002H26V35.3002Z" fill="#E8A15B"/>
<path d="M14 50.2002C13.6 50.2002 13.4 50.0002 13.2 49.8002L11.2 46.8002C10.9 46.4002 11 45.8002 11.5 45.5002C11.9 45.2002 12.5 45.3002 12.8 45.8002L14.1 47.8002L19.3 41.8002C19.6 41.4002 20.2 41.4002 20.6 41.7002C21 42.0002 21 42.6002 20.7 43.0002L14.7 50.0002C14.5 50.1002 14.3 50.2002 14 50.2002Z" fill="#3F496A"/>
<path d="M47 48.7002H25C24.5 48.7002 24 48.3002 24 47.7002V43.7002C24 43.2002 24.4 42.7002 25 42.7002H47C47.5 42.7002 48 43.1002 48 43.7002V47.7002C48 48.3002 47.5 48.7002 47 48.7002ZM26 46.8002H46V44.7002H26V46.8002Z" fill="#E8A15B"/>
</svg>
