<svg width="60" height="60" viewBox="0 0 60 60" fill="none" xmlns="http://www.w3.org/2000/svg">
<path d="M14.1 27.4H9.7C8.8 27.4 8 26.6 8 25.7V21.2C8 20.3 8.8 19.5 9.7 19.5H14.1C15 19.5 15.8 20.3 15.8 21.2V25.7C15.9 26.7 15.1 27.4 14.1 27.4ZM9.9 25.5H14V21.4H9.9V25.5Z" fill="#3F496A"/>
<path d="M28.9004 24.5H18.9004C18.4004 24.5 17.9004 24.1 17.9004 23.5C17.9004 22.9 18.3004 22.5 18.9004 22.5H28.9004C29.4004 22.5 29.9004 22.9 29.9004 23.5C29.9004 24.1 29.4004 24.5 28.9004 24.5Z" fill="#E8A15B"/>
<path d="M14.1 39.9H9.7C8.8 39.9 8 39.1 8 38.2V33.7C8 32.8 8.8 32 9.7 32H14.1C15 32 15.8 32.8 15.8 33.7V38.2C15.9 39.2 15.1 39.9 14.1 39.9ZM9.9 38H14V34H9.9V38Z" fill="#3F496A"/>
<path d="M24.8 36.0001C24.8 35.5001 24.4 35.1001 23.9 35.1001H23.8H22.8H21H20.9H19C18.5 35.1001 18 35.5001 18 36.1001C18 36.7001 18.4 37.1001 19 37.1001H20.9H21H22.9H23.9H24C24.4 36.9001 24.8 36.5001 24.8 36.0001Z" fill="#E8A15B"/>
<path d="M14.1 52.4H9.7C8.8 52.4 8 51.6 8 50.7V46.2C8 45.3 8.8 44.5 9.7 44.5H14.1C15 44.5 15.8 45.3 15.8 46.2V50.7C15.9 51.7 15.1 52.4 14.1 52.4ZM9.9 50.5H14V46.4H9.9V50.5Z" fill="#3F496A"/>
<path d="M28.9004 49.5H18.9004C18.4004 49.5 17.9004 49.1 17.9004 48.5C17.9004 47.9 18.3004 47.5 18.9004 47.5H28.9004C29.4004 47.5 29.9004 47.9 29.9004 48.5C29.9004 49.1 29.4004 49.5 28.9004 49.5Z" fill="#E8A15B"/>
<path d="M23.501 10.5C21.901 10.5 20.501 9.2 20.501 7.5C20.501 5.8 21.801 4.5 23.501 4.5C25.201 4.5 26.501 5.8 26.501 7.5C26.501 9.2 25.101 10.5 23.501 10.5ZM23.501 6.5C22.901 6.5 22.501 7 22.501 7.5C22.501 8 23.001 8.5 23.501 8.5C24.001 8.5 24.501 8 24.501 7.5C24.501 7 24.101 6.5 23.501 6.5Z" fill="#3F496A"/>
<path d="M33.6006 12.5001C33.4006 11.8001 33.1006 11.2001 32.8006 10.6001C32.0006 9.2001 30.8006 8.1001 29.4006 7.4001C29.3006 4.2001 26.7006 1.6001 23.5006 1.6001C20.3006 1.6001 17.6006 4.2001 17.6006 7.4001C16.2006 8.1001 15.0006 9.2001 14.2006 10.6001C13.9006 11.2001 13.6006 11.8001 13.4006 12.5001C13.2006 13.2001 13.1006 13.8001 13.1006 14.5001C13.1006 15.0001 13.5006 15.5001 14.1006 15.5001H33.1006C33.6006 15.5001 34.1006 15.1001 34.1006 14.5001C33.9006 13.8001 33.8006 13.1001 33.6006 12.5001ZM15.0006 13.5001C15.1006 13.1001 15.2006 12.8001 15.3006 12.4001C15.6006 11.7001 15.9006 11.1001 16.4006 10.5001C16.8006 10.0001 17.3006 9.6001 17.8006 9.3001C18.4006 9.0001 19.0006 8.8001 19.6006 8.6001C19.5006 8.2001 19.4006 7.9001 19.4006 7.5001C19.4006 7.2001 19.4006 7.0001 19.5006 6.7001C19.9006 4.9001 21.5006 3.5001 23.5006 3.5001C25.5006 3.5001 27.1006 4.9001 27.5006 6.7001C27.6006 7.0001 27.6006 7.2001 27.6006 7.5001C27.6006 7.9001 27.5006 8.3001 27.4006 8.6001C28.0006 8.8001 28.6006 9.0001 29.1006 9.3001C29.6006 9.6001 30.1006 10.0001 30.5006 10.5001C31.0006 11.1001 31.4006 11.7001 31.6006 12.4001C31.7006 12.8001 31.8006 13.1001 31.9006 13.5001H15.0006Z" fill="#3F496A"/>
<path d="M57.3004 31.2C57.3004 31.2 57.2004 31.2 57.3004 31.2C57.3004 31 57.2004 30.9 57.2004 30.8C57.1004 30.7 57.1004 30.6 57.0004 30.6C57.0004 30.6 57.0004 30.6 56.9004 30.5C56.9004 30.5 56.8004 30.5 56.8004 30.4L43.7004 23.3C43.4004 23.2 43.1004 23.1 42.8004 23.3L40.0004 24.7L42.0004 25.8L43.2004 25.2L54.3004 31.2L52.9004 32L53.5004 32.3C53.8004 32.5 54.0004 32.8 54.0004 33.1V33.5L55.4004 32.7V42.3L44.2004 48.7V38.9L47.8004 36.9V35.8L46.8004 35.2L43.3004 37.1L32.3004 30.3L35.6004 28.7L33.6004 27.6L29.9004 29.4C29.9004 29.4 29.8004 29.4 29.8004 29.5C29.8004 29.5 29.7004 29.5 29.7004 29.6C29.6004 29.7 29.5004 29.7 29.5004 29.8C29.4004 29.9 29.4004 30 29.4004 30.1V30.2V30.3V42.5C29.4004 42.8 29.6004 43.1 29.9004 43.3L42.9004 51.1H43.0004H43.1004C43.2004 51.1 43.3004 51.2 43.4004 51.2C43.5004 51.2 43.6004 51.2 43.7004 51.1H43.8004C43.8004 51.1 43.8004 51.1 43.9004 51.1L57.0004 43.6C57.3004 43.4 57.5004 43.1 57.5004 42.8L57.3004 31.2C57.3004 31.3 57.3004 31.2 57.3004 31.2ZM42.2004 48.8L31.1004 42.2V32.2L42.2004 39V48.8Z" fill="#3F496A"/>
<path d="M53.4004 32.4001L52.8004 32.1L42.0004 25.9L40.0004 24.8L37.9004 25.8L39.9004 26.9L50.9004 33.2001L52.0004 33.8V34.7001V37.9001L49.6004 39V36V35.4001C49.6004 35.1001 49.4004 34.7 49.1004 34.6L48.6004 34.3L37.5004 28L35.5004 26.9L33.4004 27.9L35.4004 29L46.7004 35.5L47.7004 36.1V37.2001V40.6C47.7004 40.9 47.9004 41.2001 48.1004 41.4001C48.3004 41.5001 48.4004 41.6 48.6004 41.6C48.7004 41.6 48.9004 41.6 49.0004 41.5L53.4004 39.5C53.7004 39.3 54.0004 39 54.0004 38.6V33.8V33.4001C53.9004 32.9001 53.7004 32.6001 53.4004 32.4001Z" fill="#E8A15B"/>
<path d="M42.3002 56.5001H4.6002V12.5001H13.3002C13.5002 11.8001 13.8002 11.2001 14.1002 10.6001H3.7002C3.2002 10.6001 2.7002 11.0001 2.7002 11.6001V57.6001C2.7002 58.1001 3.1002 58.6001 3.7002 58.6001H43.3002C43.8002 58.6001 44.3002 58.2001 44.3002 57.6001V54.5001C44.3002 54.0001 43.9002 53.5001 43.3002 53.5001C42.8002 53.5001 42.3002 53.9001 42.3002 54.5001V56.5001Z" fill="#637EA8"/>
<path d="M44.1998 11.5C44.1998 11 43.7998 10.5 43.1998 10.5H32.7998C33.0998 11.1 33.3998 11.7 33.5998 12.4H42.2998V20.5C42.2998 21 42.6998 21.5 43.2998 21.5C43.7998 21.5 44.2998 21.1 44.2998 20.5V11.5H44.1998Z" fill="#637EA8"/>
</svg>
