<svg width="60" height="60" viewBox="0 0 60 60" fill="none" xmlns="http://www.w3.org/2000/svg">
<path d="M21.1992 23.2999C18.2992 25.7999 13.8992 25.5999 11.3992 22.6999C8.8992 19.7999 9.0992 15.3999 11.9992 12.8999C14.8992 10.3999 19.2992 10.5999 21.7992 13.4999C24.2992 16.3999 23.9992 20.6999 21.1992 23.2999ZM13.1992 14.2999C11.0992 16.0999 10.8992 19.2999 12.7992 21.3999C14.6992 23.4999 17.7992 23.6999 19.8992 21.7999C21.9992 19.9999 22.1992 16.7999 20.2992 14.6999C18.4992 12.5999 15.2992 12.3999 13.1992 14.2999Z" fill="#3F496A"/>
<path d="M25.1996 6.5L22.7996 7.9C21.8996 7.3 20.9996 6.9 19.9996 6.6L19.3996 3.8C19.2996 3.4 18.8996 3 18.4996 3H14.4996C13.9996 3 13.6996 3.3 13.5996 3.8L12.9996 6.7C12.4996 6.9 11.9996 7 11.5996 7.2L9.29961 5.5C8.99961 5.2 8.49961 5.2 8.09961 5.5L5.09961 8.2C4.79961 8.5 4.69961 9 4.99961 9.4L6.39961 11.8C5.89961 12.7 5.39961 13.6 5.19961 14.6L2.39961 15.2C1.99961 15.3 1.59961 15.7 1.59961 16.1V20.1C1.59961 20.6 1.89961 20.9 2.39961 21L5.19961 21.5C5.39961 22 5.49961 22.5 5.69961 22.9L3.99961 25.3C3.69961 25.7 3.69961 26.2 3.99961 26.5L6.69961 29.5C6.99961 29.8 7.49961 29.9 7.89961 29.7L10.2996 28.3C11.1996 28.8 12.0996 29.2 13.0996 29.5L13.6996 32.3C13.7996 32.7 14.1996 33.1 14.5996 33.1H18.5996C18.7996 33.1 19.0996 33 19.1996 32.9C19.3996 32.8 19.4996 32.6 19.4996 32.4L19.9996 29.6C20.4996 29.4 20.9996 29.3 21.3996 29.1L23.5996 30.8C23.9996 31.1 24.4996 31.1 24.7996 30.8L27.7996 28.1C28.0996 27.8 28.1996 27.3 27.9996 26.9L26.5996 24.5C27.0996 23.6 27.5996 22.7 27.7996 21.7L30.5996 21.1C30.7996 21.1 30.8996 21 30.9996 20.9C31.1996 20.7 31.2996 20.5 31.2996 20.2V16.2C31.2996 15.7 30.9996 15.4 30.4996 15.3L27.9996 14.5C27.7996 14 27.6996 13.5 27.4996 13.1L29.1996 10.9C29.4996 10.5 29.4996 10 29.1996 9.7L26.4996 6.7C26.0996 6.3 25.5996 6.2 25.1996 6.5ZM27.0996 10.3L26.3996 11.3L25.1996 12.8C25.1996 12.8 25.4996 13.5 25.7996 14.1C25.8996 14.3 25.9996 14.6 26.0996 14.9C26.2996 15.5 26.4996 16.2 26.4996 16.2L28.3996 16.6L29.5996 16.8V19.2L28.3996 19.4L26.4996 19.8C26.4996 19.8 26.1996 21 25.7996 21.9C25.6996 22 25.6996 22.2 25.5996 22.3C25.1996 23.1 24.4996 24.2 24.4996 24.2L25.4996 25.9L26.0996 27L24.2996 28.6L23.2996 27.9L21.7996 26.7C21.7996 26.7 21.0996 27 20.4996 27.3C20.2996 27.4 19.9996 27.5 19.6996 27.6C19.0996 27.8 18.3996 28 18.3996 28L17.9996 29.9L17.7996 31.1H15.3996L15.1996 29.9L14.7996 28C14.7996 28 13.5996 27.6 12.6996 27.3C12.5996 27.2 12.3996 27.2 12.2996 27.1C11.4996 26.7 10.3996 26 10.3996 26L8.69961 27L7.59961 27.6L5.99961 25.8L6.69961 24.8L7.89961 23.3C7.89961 23.3 7.59961 22.6 7.29961 22C7.19961 21.8 7.09961 21.5 6.99961 21.2C6.79961 20.6 6.59961 19.9 6.59961 19.9L4.69961 19.5L3.49961 19.3V16.9L4.69961 16.7L6.59961 16.3C6.59961 16.3 6.89961 15.1 7.29961 14.2C7.39961 14.1 7.39961 13.9 7.49961 13.8C7.89961 13 8.59961 11.9 8.59961 11.9L7.59961 10.2L6.99961 9.1L8.79961 7.5L9.79961 8.2L11.2996 9.4C11.2996 9.4 11.9996 9.1 12.5996 8.8C12.7996 8.7 13.0996 8.6 13.3996 8.5C13.9996 8.3 14.6996 8.1 14.6996 8.1L14.9996 6.2L15.2996 5H17.6996L17.9996 6.2L18.3996 8.1C18.3996 8.1 19.5996 8.5 20.4996 8.8C20.5996 8.9 20.7996 8.9 20.8996 9C21.6996 9.4 22.7996 10.1 22.7996 10.1L24.4996 9.1L25.5996 8.5L27.0996 10.3Z" fill="#E8A15B"/>
<path d="M46.1991 49.4998C42.6991 50.9998 38.5991 49.2998 37.0991 45.6998C35.5991 42.0998 37.2991 38.0998 40.8991 36.5998C44.4991 35.0998 48.4991 36.7998 49.9991 40.3998C51.4991 43.9998 49.7991 47.9998 46.1991 49.4998ZM41.5991 38.3999C38.9991 39.4999 37.7991 42.3998 38.8991 44.9998C39.9991 47.5998 42.8991 48.7998 45.4991 47.6998C48.0991 46.5998 49.2991 43.6998 48.1991 41.0998C47.1991 38.4998 44.1991 37.2999 41.5991 38.3999Z" fill="#E8A15B"/>
<path d="M55.4992 34.8999L52.6992 35.3999C51.9992 34.5999 51.2992 33.8999 50.4992 33.2999L50.8992 30.4999C50.9992 30.0999 50.6992 29.5999 50.2992 29.4999L46.4992 28.1999C46.0992 28.0999 45.5992 28.1999 45.3992 28.5999L43.9992 30.9999C43.4992 30.9999 42.9992 30.9999 42.4992 30.9999L40.8992 28.6999C40.5992 28.2999 40.1992 28.1999 39.6992 28.3999L35.9992 29.9999C35.5992 30.1999 35.2992 30.5999 35.3992 31.0999L35.8992 33.8999C35.0992 34.5999 34.3992 35.2999 33.7992 36.0999L30.9992 35.6999C30.5992 35.5999 30.0992 35.8999 29.9992 36.2999L28.6992 40.0999C28.5992 40.4999 28.6992 40.9999 29.0992 41.1999L31.4992 42.5999C31.4992 43.0999 31.4992 43.5999 31.4992 44.0999L29.1992 45.6999C28.9992 45.9999 28.7992 46.4999 28.9992 46.8999L30.4992 50.5999C30.6992 50.9999 31.0992 51.2999 31.5992 51.1999L34.3992 50.6999C35.0992 51.4999 35.7992 52.1999 36.5992 52.7999L36.1992 55.5999C36.0992 55.9999 36.3992 56.4999 36.7992 56.5999L40.5992 57.8999C40.7992 57.9999 41.0992 57.9999 41.2992 57.8999C41.4992 57.7999 41.6992 57.6999 41.7992 57.4999L43.1992 55.0999C43.6992 55.0999 44.1992 55.0999 44.6992 55.0999L46.2992 57.3999C46.5992 57.7999 46.9992 57.8999 47.4992 57.6999L51.1992 56.1999C51.5992 55.9999 51.8992 55.5999 51.7992 55.0999L51.2992 52.2999C52.0992 51.5999 52.7992 50.8999 53.3992 50.0999L56.1992 50.4999C56.3992 50.4999 56.4992 50.4999 56.6992 50.3999C56.8992 50.2999 57.0992 50.0999 57.1992 49.7999L58.4992 45.9999C58.5992 45.5999 58.4992 45.0999 58.0992 44.8999L55.6992 43.4999C55.6992 42.9999 55.6992 42.4999 55.6992 41.9999L57.9992 40.3999C58.3992 40.0999 58.4992 39.6999 58.2992 39.1999L56.7992 35.4999C56.3992 35.0999 55.9992 34.7999 55.4992 34.8999ZM56.0992 39.1999L55.0992 39.8999L53.4992 40.9999C53.4992 40.9999 53.5992 41.7999 53.5992 42.3999C53.5992 42.6999 53.5992 42.8999 53.5992 43.1999C53.5992 43.7999 53.5992 44.5999 53.5992 44.5999L55.2992 45.5999L56.3992 46.1999L55.5992 48.4999L54.3992 48.2999L52.3992 47.9999C52.3992 47.9999 51.6992 49.0999 51.0992 49.6999C50.9992 49.7999 50.8992 49.8999 50.7992 50.0999C50.1992 50.6999 49.0992 51.4999 49.0992 51.4999L49.4992 53.3999L49.6992 54.5999L47.3992 55.4999L46.6992 54.4999L45.6992 52.9999C45.6992 52.9999 44.8992 53.0999 44.2992 53.0999C43.9992 53.0999 43.7992 53.0999 43.4992 53.0999C42.8992 53.0999 42.0992 53.0999 42.0992 53.0999L41.0992 54.7999L40.4992 55.8999L38.1992 54.9999L38.3992 53.7999L38.6992 51.8999C38.6992 51.8999 37.5992 51.1999 36.9992 50.5999C36.8992 50.4999 36.7992 50.3999 36.5992 50.2999C35.9992 49.6999 35.1992 48.5999 35.1992 48.5999L33.2992 48.9999L31.9992 49.1999L30.9992 46.8999L31.9992 46.1999L33.5992 45.0999C33.5992 45.0999 33.4992 44.2999 33.4992 43.6999C33.4992 43.3999 33.4992 43.1999 33.4992 42.8999C33.4992 42.2999 33.4992 41.4999 33.4992 41.4999L31.7992 40.4999L30.7992 39.9999L31.5992 37.6999L32.7992 37.8999L34.6992 38.1999C34.6992 38.1999 35.3992 37.0999 35.9992 36.4999C36.0992 36.3999 36.1992 36.2999 36.2992 36.0999C36.8992 35.4999 37.9992 34.6999 37.9992 34.6999L37.5992 32.7999L37.3992 31.5999L39.6992 30.6999L40.3992 31.6999L41.4992 33.2999C41.4992 33.2999 42.2992 33.1999 42.8992 33.1999C43.1992 33.1999 43.3992 33.1999 43.6992 33.1999C44.2992 33.1999 45.0992 33.1999 45.0992 33.1999L46.0992 31.4999L46.6992 30.3999L48.9992 31.1999L48.7992 32.3999L48.4992 34.2999C48.4992 34.2999 49.5992 34.9999 50.1992 35.5999C50.2992 35.6999 50.3992 35.7999 50.5992 35.8999C51.1992 36.4999 51.9992 37.5999 51.9992 37.5999L53.8992 37.1999L55.0992 36.9999L56.0992 39.1999Z" fill="#3F496A"/>
<path d="M8.29941 36.9C8.89941 36.9 9.29941 37.3 9.29941 37.9C9.29941 38.5 8.89941 38.9 8.29941 38.9C7.69941 38.9 7.29941 38.5 7.29941 37.9C7.29941 37.3 7.69941 36.9 8.29941 36.9ZM8.29941 35C6.69941 35 5.39941 36.3 5.39941 37.9C5.39941 39.5 6.69941 40.8 8.29941 40.8C9.89941 40.8 11.1994 39.5 11.1994 37.9C11.1994 36.3 9.89941 35 8.29941 35Z" fill="#637EA8"/>
<path d="M8.2998 40V53.1H28.2998" stroke="#637EA8" stroke-width="1.9" stroke-miterlimit="10" stroke-linecap="round" stroke-linejoin="round"/>
<path d="M56.2994 25.1C56.8994 25.1 57.2994 25.5 57.2994 26.1C57.2994 26.7 56.8994 27.1 56.2994 27.1C55.6994 27.1 55.2994 26.7 55.2994 26.1C55.2994 25.5 55.6994 25.1 56.2994 25.1ZM56.2994 23.2C54.6994 23.2 53.3994 24.5 53.3994 26.1C53.3994 27.7 54.6994 29 56.2994 29C57.8994 29 59.1994 27.7 59.1994 26.1C59.1994 24.5 57.8994 23.2 56.2994 23.2Z" fill="#637EA8"/>
<path d="M56.2998 23.9999V4.8999H33.2998" stroke="#637EA8" stroke-width="1.9" stroke-miterlimit="10" stroke-linecap="round" stroke-linejoin="round"/>
</svg>
