<svg width="614" height="588" viewBox="0 0 614 588" fill="none" xmlns="http://www.w3.org/2000/svg">
<path fill-rule="evenodd" clip-rule="evenodd" d="M443.331 585.743C388.228 598.638 340.563 544.594 285.447 531.8C239.49 521.131 183.318 547.2 147.104 516.979C110.558 486.48 130.175 423.953 106.641 382.583C79.6885 335.204 -6.30068 314.959 1.48626 261.001C9.45291 205.797 97.326 207.149 137.54 168.474C167.915 139.263 173.453 91.699 205.718 64.5883C243.459 32.876 287.512 -3.60355 336.564 1.24319C385.624 6.09064 410.184 63.5945 452.439 88.9663C499.408 117.168 568.739 112.306 598.317 158.41C627.602 204.059 606.62 264.564 599.595 318.349C592.771 370.599 584.471 422.539 557.878 468.043C529.78 516.124 497.563 573.051 443.331 585.743Z" fill="#34A3E4"/>
</svg>
