<svg width="60" height="60" viewBox="0 0 60 60" fill="none" xmlns="http://www.w3.org/2000/svg">
    <path d="M21.2002 23.3001C18.3002 25.8001 13.9002 25.6001 11.4002 22.7001C8.90017 19.8001 9.10017 15.4001 12.0002 12.9001C14.9002 10.4001 19.3002 10.6001 21.8002 13.5001C24.3002 16.4001 24.0002 20.7001 21.2002 23.3001ZM13.2002 14.3001C11.1002 16.1001 10.9002 19.3001 12.8002 21.4001C14.7002 23.5001 17.8002 23.7001 19.9002 21.8001C22.0002 20.0001 22.2002 16.8001 20.3002 14.7001C18.5002 12.6001 15.3002 12.4001 13.2002 14.3001Z" fill="#3F496A"/>
    <path d="M25.1996 6.5L22.7996 7.9C21.8996 7.3 20.9996 6.9 19.9996 6.6L19.3996 3.8C19.2996 3.4 18.8996 3 18.4996 3H14.4996C13.9996 3 13.6996 3.3 13.5996 3.8L12.9996 6.7C12.4996 6.9 11.9996 7 11.5996 7.2L9.29961 5.5C8.99961 5.2 8.49961 5.2 8.09961 5.5L5.09961 8.2C4.79961 8.5 4.69961 9 4.99961 9.4L6.39961 11.8C5.89961 12.7 5.39961 13.6 5.19961 14.6L2.39961 15.2C1.99961 15.3 1.59961 15.7 1.59961 16.1V20.1C1.59961 20.6 1.89961 20.9 2.39961 21L5.19961 21.5C5.39961 22 5.49961 22.5 5.69961 22.9L3.99961 25.3C3.69961 25.7 3.69961 26.2 3.99961 26.5L6.69961 29.5C6.99961 29.8 7.49961 29.9 7.89961 29.7L10.2996 28.3C11.1996 28.8 12.0996 29.2 13.0996 29.5L13.6996 32.3C13.7996 32.7 14.1996 33.1 14.5996 33.1H18.5996C18.7996 33.1 19.0996 33 19.1996 32.9C19.3996 32.8 19.4996 32.6 19.4996 32.4L19.9996 29.6C20.4996 29.4 20.9996 29.3 21.3996 29.1L23.5996 30.8C23.9996 31.1 24.4996 31.1 24.7996 30.8L27.7996 28.1C28.0996 27.8 28.1996 27.3 27.9996 26.9L26.5996 24.5C27.0996 23.6 27.5996 22.7 27.7996 21.7L30.5996 21.1C30.7996 21.1 30.8996 21 30.9996 20.9C31.1996 20.7 31.2996 20.5 31.2996 20.2V16.2C31.2996 15.7 30.9996 15.4 30.4996 15.3L27.9996 14.5C27.7996 14 27.6996 13.5 27.4996 13.1L29.1996 10.9C29.4996 10.5 29.4996 10 29.1996 9.7L26.4996 6.7C26.0996 6.3 25.5996 6.2 25.1996 6.5ZM27.0996 10.3L26.3996 11.3L25.1996 12.8C25.1996 12.8 25.4996 13.5 25.7996 14.1C25.8996 14.3 25.9996 14.6 26.0996 14.9C26.2996 15.5 26.4996 16.2 26.4996 16.2L28.3996 16.6L29.5996 16.8V19.2L28.3996 19.4L26.4996 19.8C26.4996 19.8 26.1996 21 25.7996 21.9C25.6996 22 25.6996 22.2 25.5996 22.3C25.1996 23.1 24.4996 24.2 24.4996 24.2L25.4996 25.9L26.0996 27L24.2996 28.6L23.2996 27.9L21.7996 26.7C21.7996 26.7 21.0996 27 20.4996 27.3C20.2996 27.4 19.9996 27.5 19.6996 27.6C19.0996 27.8 18.3996 28 18.3996 28L17.9996 29.9L17.7996 31.1H15.3996L15.1996 29.9L14.7996 28C14.7996 28 13.5996 27.6 12.6996 27.3C12.5996 27.2 12.3996 27.2 12.2996 27.1C11.4996 26.7 10.3996 26 10.3996 26L8.69961 27L7.59961 27.6L5.99961 25.8L6.69961 24.8L7.89961 23.3C7.89961 23.3 7.59961 22.6 7.29961 22C7.19961 21.8 7.09961 21.5 6.99961 21.2C6.79961 20.6 6.59961 19.9 6.59961 19.9L4.69961 19.5L3.49961 19.3V16.9L4.69961 16.7L6.59961 16.3C6.59961 16.3 6.89961 15.1 7.29961 14.2C7.39961 14.1 7.39961 13.9 7.49961 13.8C7.89961 13 8.59961 11.9 8.59961 11.9L7.59961 10.2L6.99961 9.1L8.79961 7.5L9.79961 8.2L11.2996 9.4C11.2996 9.4 11.9996 9.1 12.5996 8.8C12.7996 8.7 13.0996 8.6 13.3996 8.5C13.9996 8.3 14.6996 8.1 14.6996 8.1L14.9996 6.2L15.2996 5H17.6996L17.9996 6.2L18.3996 8.1C18.3996 8.1 19.5996 8.5 20.4996 8.8C20.5996 8.9 20.7996 8.9 20.8996 9C21.6996 9.4 22.7996 10.1 22.7996 10.1L24.4996 9.1L25.5996 8.5L27.0996 10.3Z" fill="#E8A15B"/>
    <path d="M46.2001 49.5C42.7001 51 38.6001 49.3 37.1001 45.7C35.6001 42.1 37.3001 38.1 40.9001 36.6C44.5001 35.1 48.5001 36.8 50.0001 40.4C51.5001 44 49.8001 48 46.2001 49.5ZM41.6001 38.4C39.0001 39.5 37.8001 42.4 38.9001 45C40.0001 47.6 42.9001 48.8 45.5001 47.7C48.1001 46.6 49.3001 43.7 48.2001 41.1C47.2001 38.5 44.2001 37.3 41.6001 38.4Z" fill="#E8A15B"/>
    <path d="M55.5001 34.9L52.7001 35.4C52.0001 34.6 51.3001 33.9 50.5001 33.3L50.9001 30.5C51.0001 30.1 50.7001 29.6 50.3001 29.5L46.5001 28.2C46.1001 28.1 45.6001 28.2 45.4001 28.6L44.0001 31C43.5001 31 43.0001 31 42.5001 31L40.9001 28.7C40.6001 28.3 40.2001 28.2 39.7001 28.4L36.0001 30C35.6001 30.2 35.3001 30.6 35.4001 31.1L35.9001 33.9C35.1001 34.6 34.4001 35.3 33.8001 36.1L31.0001 35.7C30.6001 35.6 30.1001 35.9 30.0001 36.3L28.7001 40.1C28.6001 40.5 28.7001 41 29.1001 41.2L31.5001 42.6C31.5001 43.1 31.5001 43.6 31.5001 44.1L29.2001 45.7C29.0001 46 28.8001 46.5 29.0001 46.9L30.5001 50.6C30.7001 51 31.1001 51.3 31.6001 51.2L34.4001 50.7C35.1001 51.5 35.8001 52.2 36.6001 52.8L36.2001 55.6C36.1001 56 36.4001 56.5 36.8001 56.6L40.6001 57.9C40.8001 58 41.1001 58 41.3001 57.9C41.5001 57.8 41.7001 57.7 41.8001 57.5L43.2001 55.1C43.7001 55.1 44.2001 55.1 44.7001 55.1L46.3001 57.4C46.6001 57.8 47.0001 57.9 47.5001 57.7L51.2001 56.2C51.6001 56 51.9001 55.6 51.8001 55.1L51.3001 52.3C52.1001 51.6 52.8001 50.9 53.4001 50.1L56.2001 50.5C56.4001 50.5 56.5001 50.5 56.7001 50.4C56.9001 50.3 57.1001 50.1 57.2001 49.8L58.5001 46C58.6001 45.6 58.5001 45.1 58.1001 44.9L55.7001 43.5C55.7001 43 55.7001 42.5 55.7001 42L58.0001 40.4C58.4001 40.1 58.5001 39.7 58.3001 39.2L56.8001 35.5C56.4001 35.1 56.0001 34.8 55.5001 34.9ZM56.1001 39.2L55.1001 39.9L53.5001 41C53.5001 41 53.6001 41.8 53.6001 42.4C53.6001 42.7 53.6001 42.9 53.6001 43.2C53.6001 43.8 53.6001 44.6 53.6001 44.6L55.3001 45.6L56.4001 46.2L55.6001 48.5L54.4001 48.3L52.4001 48C52.4001 48 51.7001 49.1 51.1001 49.7C51.0001 49.8 50.9001 49.9 50.8001 50.1C50.2001 50.7 49.1001 51.5 49.1001 51.5L49.5001 53.4L49.7001 54.6L47.4001 55.5L46.7001 54.5L45.7001 53C45.7001 53 44.9001 53.1 44.3001 53.1C44.0001 53.1 43.8001 53.1 43.5001 53.1C42.9001 53.1 42.1001 53.1 42.1001 53.1L41.1001 54.8L40.5001 55.9L38.2001 55L38.4001 53.8L38.7001 51.9C38.7001 51.9 37.6001 51.2 37.0001 50.6C36.9001 50.5 36.8001 50.4 36.6001 50.3C36.0001 49.7 35.2001 48.6 35.2001 48.6L33.3001 49L32.0001 49.2L31.0001 46.9L32.0001 46.2L33.6001 45.1C33.6001 45.1 33.5001 44.3 33.5001 43.7C33.5001 43.4 33.5001 43.2 33.5001 42.9C33.5001 42.3 33.5001 41.5 33.5001 41.5L31.8001 40.5L30.8001 40L31.6001 37.7L32.8001 37.9L34.7001 38.2C34.7001 38.2 35.4001 37.1 36.0001 36.5C36.1001 36.4 36.2001 36.3 36.3001 36.1C36.9001 35.5 38.0001 34.7 38.0001 34.7L37.6001 32.8L37.4001 31.6L39.7001 30.7L40.4001 31.7L41.5001 33.3C41.5001 33.3 42.3001 33.2 42.9001 33.2C43.2001 33.2 43.4001 33.2 43.7001 33.2C44.3001 33.2 45.1001 33.2 45.1001 33.2L46.1001 31.5L46.7001 30.4L49.0001 31.2L48.8001 32.4L48.5001 34.3C48.5001 34.3 49.6001 35 50.2001 35.6C50.3001 35.7 50.4001 35.8 50.6001 35.9C51.2001 36.5 52.0001 37.6 52.0001 37.6L53.9001 37.2L55.1001 37L56.1001 39.2Z" fill="#3F496A"/>
    <path d="M8.30039 36.9C8.90039 36.9 9.30039 37.3 9.30039 37.9C9.30039 38.5 8.90039 38.9 8.30039 38.9C7.70039 38.9 7.30039 38.5 7.30039 37.9C7.30039 37.3 7.70039 36.9 8.30039 36.9ZM8.30039 35C6.70039 35 5.40039 36.3 5.40039 37.9C5.40039 39.5 6.70039 40.8 8.30039 40.8C9.90039 40.8 11.2004 39.5 11.2004 37.9C11.2004 36.3 9.90039 35 8.30039 35Z" fill="#637EA8"/>
    <path d="M8.30078 40V53.1H28.3008" stroke="#637EA8" stroke-width="1.9" stroke-miterlimit="10" stroke-linecap="round" stroke-linejoin="round"/>
    <path d="M56.2984 25.1001C56.8984 25.1001 57.2984 25.5001 57.2984 26.1001C57.2984 26.7001 56.8984 27.1001 56.2984 27.1001C55.6984 27.1001 55.2984 26.7001 55.2984 26.1001C55.2984 25.5001 55.6984 25.1001 56.2984 25.1001ZM56.2984 23.2001C54.6984 23.2001 53.3984 24.5001 53.3984 26.1001C53.3984 27.7001 54.6984 29.0001 56.2984 29.0001C57.8984 29.0001 59.1984 27.7001 59.1984 26.1001C59.1984 24.5001 57.8984 23.2001 56.2984 23.2001Z" fill="#637EA8"/>
    <path d="M56.2988 24V4.90002H33.2988" stroke="#637EA8" stroke-width="1.9" stroke-miterlimit="10" stroke-linecap="round" stroke-linejoin="round"/>
</svg>
