<svg width="60" height="60" viewBox="0 0 60 60" fill="none" xmlns="http://www.w3.org/2000/svg">
    <path d="M59 44.7001H56.5H54.6H5.5H3.5H1C0.5 44.7001 0 45.1001 0 45.7001C0 48.4001 1.4 50.9001 3.5 52.3001C4.1 52.7001 4.7 53.0001 5.4 53.2001C6.2 53.5001 7.1 53.6001 7.9 53.6001H51.9C52.8 53.6001 53.6 53.4001 54.4 53.2001C55.1 53.0001 55.7 52.7001 56.3 52.3001C58.4 50.9001 59.8 48.5001 59.8 45.7001C60 45.1001 59.5 44.7001 59 44.7001ZM56.5 49.7001C56 50.3001 55.3 50.8001 54.6 51.1001C53.8 51.5001 53 51.7001 52.1 51.7001H8C7.1 51.7001 6.2 51.5001 5.5 51.1001C4.8 50.8001 4.1 50.3001 3.6 49.7001C2.8 48.8001 2.3 47.8001 2.1 46.6001H3.6H5.5H54.6H56.5H58C57.8 47.8001 57.2 48.8001 56.5 49.7001Z" fill="#3F496A"/>
    <path d="M33.5 50.1001H26.5C26 50.1001 25.5 49.7001 25.5 49.1001C25.5 48.5001 25.9 48.1001 26.5 48.1001H33.5C34 48.1001 34.5 48.5001 34.5 49.1001C34.5 49.7001 34 50.1001 33.5 50.1001Z" fill="#637EA8"/>
    <path d="M7 12.4C5.1 12.4 3.5 14 3.5 15.9V45.4001H5.4V15.9C5.4 15 6.1 14.3 7 14.3H9.1C9.6 14.3 10.1 13.9 10.1 13.3C10.1 12.8 9.7 12.3 9.1 12.3H7V12.4Z" fill="#3F496A"/>
    <path d="M53.0004 12.4H50.9004C50.4004 12.4 49.9004 12.8 49.9004 13.4C49.9004 13.9 50.3004 14.4 50.9004 14.4H53.0004C53.9004 14.4 54.6004 15.1 54.6004 16V45.5H56.5004V15.9C56.5004 14 54.9004 12.4 53.0004 12.4Z" fill="#3F496A"/>
    <path d="M25 33.5H17C16.5 33.5 16 33.1 16 32.5V26.1C16 25.6 16.4 25.1 17 25.1H25C25.5 25.1 26 25.5 26 26.1V32.5C26 33.1 25.5 33.5 25 33.5ZM18 31.6H24V27.1H18V31.6Z" fill="#E8A15B"/>
    <path d="M25 20.5H17C16.5 20.5 16 20.1 16 19.5V13.1C16 12.6 16.4 12.1 17 12.1H25C25.5 12.1 26 12.5 26 13.1V19.5C26 20.1 25.5 20.5 25 20.5ZM18 18.6H24V14.1H18V18.6Z" fill="#E8A15B"/>
    <path d="M46.4008 6.40002H35.6008C33.1008 6.40002 31.0008 7.70002 29.8008 9.70002C28.6008 7.70002 26.5008 6.40002 24.0008 6.40002H13.6008C12.3008 6.40002 11.3008 7.40002 11.3008 8.70002V36.1C11.3008 37.4 12.3008 38.4 13.6008 38.4H29.8008H46.5008C47.8008 38.4 48.8008 37.4 48.8008 36.1V8.70002C48.7008 7.50002 47.7008 6.40002 46.4008 6.40002ZM13.2008 36.1V8.70002C13.2008 8.50002 13.4008 8.30002 13.6008 8.30002H23.9008C26.6008 8.30002 28.8008 10.5 28.8008 13.2V36.6H13.6008C13.4008 36.5 13.2008 36.4 13.2008 36.1ZM46.8008 36.1C46.8008 36.3 46.6008 36.5 46.4008 36.5H30.7008V13.2C30.7008 10.5 32.9008 8.30002 35.6008 8.30002H46.4008C46.6008 8.30002 46.8008 8.50002 46.8008 8.70002V36.1Z" fill="#637EA8"/>
    <path d="M43 14.8H34.5C34 14.8 33.5 14.4 33.5 13.8C33.5 13.2 33.9 12.8 34.5 12.8H43C43.5 12.8 44 13.2 44 13.8C44 14.4 43.5 14.8 43 14.8Z" fill="#E8A15B"/>
    <path d="M43 20.1001H34.5C34 20.1001 33.5 19.7001 33.5 19.1001C33.5 18.5001 33.9 18.1001 34.5 18.1001H43C43.5 18.1001 44 18.5001 44 19.1001C44 19.7001 43.5 20.1001 43 20.1001Z" fill="#E8A15B"/>
    <path d="M43 25.4H34.5C34 25.4 33.5 25 33.5 24.4C33.5 23.8 33.9 23.4 34.5 23.4H43C43.5 23.4 44 23.8 44 24.4C44 25 43.5 25.4 43 25.4Z" fill="#E8A15B"/>
    <path d="M43 30.8H34.5C34 30.8 33.5 30.4 33.5 29.8C33.5 29.2 33.9 28.8 34.5 28.8H43C43.5 28.8 44 29.2 44 29.8C44 30.4 43.5 30.8 43 30.8Z" fill="#E8A15B"/>
</svg>
