<svg width="60" height="60" viewBox="0 0 60 60" fill="none" xmlns="http://www.w3.org/2000/svg">
    <path d="M23.2992 50.8H10.1992C10.0992 50.8 9.99922 50.7 9.99922 50.6V36.2H11.5992C11.8992 36.2 11.9992 35.9 11.8992 35.7L9.39922 31.3C9.29922 31.1 8.99922 31.1 8.79922 31.3L6.29922 35.7C6.19922 35.9 6.29922 36.2 6.59922 36.2H7.99922V51.6C7.99922 52.2 8.49922 52.7 9.09922 52.7H23.2992C23.7992 52.7 24.2992 52.3 24.2992 51.7C24.2992 51.1 23.8992 50.8 23.2992 50.8Z" fill="#3F496A"/>
    <path d="M37.0996 11.0001H50.2996C50.3996 11.0001 50.4996 11.1001 50.4996 11.2001V25.6001H48.8996C48.5996 25.6001 48.4996 25.9001 48.5996 26.1001L51.0996 30.5001C51.1996 30.7001 51.4996 30.7001 51.6996 30.5001L54.1996 26.1001C54.2996 25.9001 54.1996 25.6001 53.8996 25.6001H52.2996V10.2001C52.2996 9.6001 51.7996 9.1001 51.1996 9.1001H37.0996C36.5996 9.1001 36.0996 9.5001 36.0996 10.1001C36.0996 10.7001 36.4996 11.0001 37.0996 11.0001Z" fill="#3F496A"/>
    <path d="M29.7 11.8H3V13.7H29.7V11.8Z" fill="#637EA8"/>
    <path d="M28.3992 27.7001H5.59922C3.99922 27.7001 2.69922 26.4 2.69922 24.8V5.20005C2.69922 3.60005 3.99922 2.30005 5.59922 2.30005H10.7992C11.4992 2.30005 12.1992 2.60005 12.7992 3.00005L14.7992 4.80005C14.9992 5.00005 15.1992 5.10005 15.4992 5.10005L28.3992 5.20005C29.9992 5.20005 31.2992 6.50005 31.2992 8.10005V24.7001C31.2992 26.4001 29.9992 27.7001 28.3992 27.7001ZM5.59922 4.20005C4.99922 4.20005 4.59922 4.70005 4.59922 5.20005V24.7001C4.59922 25.3001 5.09922 25.7001 5.59922 25.7001H28.2992C28.8992 25.7001 29.2992 25.2001 29.2992 24.7001V8.10005C29.2992 7.50005 28.7992 7.10005 28.2992 7.10005L15.3992 7.00005C14.6992 7.00005 13.9992 6.70005 13.4992 6.30005L11.4992 4.50005C11.2992 4.30005 11.0992 4.20005 10.7992 4.20005H5.59922Z" fill="#E8A15B"/>
    <path d="M55.7 41.8H29V43.7001H55.7V41.8Z" fill="#E8A15B"/>
    <path d="M54.3992 57.7001H31.5992C29.9992 57.7001 28.6992 56.4 28.6992 54.8V35.2001C28.6992 33.6001 29.9992 32.3 31.5992 32.3H36.7992C37.4992 32.3 38.1992 32.6 38.7992 33L40.7992 34.8C40.9992 35 41.1992 35.1 41.4992 35.1L54.3992 35.2001C55.9992 35.2001 57.2992 36.5 57.2992 38.1V54.7001C57.2992 56.4001 55.9992 57.7001 54.3992 57.7001ZM31.5992 34.2001C30.9992 34.2001 30.5992 34.7001 30.5992 35.2001V54.7001C30.5992 55.3001 31.0992 55.7001 31.5992 55.7001H54.2992C54.8992 55.7001 55.2992 55.2001 55.2992 54.7001V38.1C55.2992 37.5 54.7992 37.1 54.2992 37.1L41.3992 37C40.6992 37 39.9992 36.7 39.4992 36.3L37.4992 34.5C37.2992 34.3 37.0992 34.2001 36.7992 34.2001H31.5992Z" fill="#637EA8"/>
</svg>
