<svg width="60" height="60" viewBox="0 0 60 60" fill="none" xmlns="http://www.w3.org/2000/svg">
    <path d="M25.9992 25.9H12.6992C12.1992 25.9 11.6992 25.5 11.6992 24.9C11.6992 24.3 12.0992 23.9 12.6992 23.9H25.9992C26.4992 23.9 26.9992 24.3 26.9992 24.9C26.9992 25.5 26.4992 25.9 25.9992 25.9Z" fill="#637EA8"/>
    <path d="M37.9008 34.5H30.3008C29.7008 34.5 29.3008 34.1 29.3008 33.5C29.3008 32.9 29.8008 32.5 30.3008 32.5H37.9008C38.5008 32.5 38.9008 32.9 38.9008 33.5C38.9008 34.1 38.5008 34.5 37.9008 34.5Z" fill="#637EA8"/>
    <path d="M43.9008 47.5001C43.7008 47.5001 43.4008 47.4001 43.2008 47.2001L39.1008 43.1001C38.7008 42.7001 38.7008 42.1001 39.1008 41.8001C39.5008 41.5001 40.1008 41.4001 40.4008 41.8001L44.5008 45.9001C44.9008 46.3001 44.9008 46.9001 44.5008 47.2001C44.4008 47.4001 44.1008 47.5001 43.9008 47.5001Z" fill="#637EA8"/>
    <path d="M45.9998 44.8001C45.6998 44.8001 45.4998 44.7001 45.2998 44.5001L42.0998 41.1001C41.6998 40.7001 41.7998 40.1001 42.0998 39.8001C42.4998 39.4001 43.0998 39.5001 43.3998 39.8001L46.5998 43.2001C46.9998 43.6001 46.8998 44.2001 46.5998 44.5001C46.3998 44.7001 46.1998 44.8001 45.9998 44.8001Z" fill="#637EA8"/>
    <path d="M25 48.8C11.8 48.8 1 38.1 1 24.8C1 11.5 11.7 0.800049 25 0.800049C38.3 0.800049 49 11.5 49 24.8C49 38.1 38.2 48.8 25 48.8ZM25 2.80005C12.8 2.80005 3 12.7 3 24.8C3 36.9 12.9 46.8 25 46.8C37.1 46.8 47 36.9 47 24.8C47 12.7 37.1 2.80005 25 2.80005Z" fill="#3F496A"/>
    <path d="M25 44.8C14 44.8 5 35.9 5 24.8C5 13.7 14 4.80005 25 4.80005C36 4.80005 45 13.7 45 24.8C45 35.9 36 44.8 25 44.8ZM25 6.80005C15 6.80005 7 14.9 7 24.8C7 34.7 15.1 42.8 25 42.8C34.9 42.8 43 34.7 43 24.8C43 14.9 34.9 6.80005 25 6.80005Z" fill="#E8A15B"/>
    <path d="M54.3008 59.1C53.2008 59.1 52.0008 58.7 51.2008 57.8L44.2008 50.8C42.5008 49.1 42.5008 46.2 44.2008 44.5L44.5008 44.2C46.2008 42.5 49.1008 42.5 50.8008 44.2L57.8008 51.2C59.5008 52.9 59.5008 55.8 57.8008 57.5L57.5008 57.8C56.5008 58.7 55.4008 59.1 54.3008 59.1ZM47.6008 44.9C46.9008 44.9 46.3008 45.1 45.8008 45.6L45.5008 45.9C44.5008 46.9 44.5008 48.5 45.5008 49.5L52.5008 56.5C53.5008 57.5 55.1008 57.5 56.1008 56.5L56.4008 56.2C57.4008 55.2 57.4008 53.6 56.4008 52.6L49.4008 45.6C48.9008 45.1 48.2008 44.9 47.6008 44.9Z" fill="#3F496A"/>
    <path d="M15.6992 17.2001H12.6992C12.1992 17.2001 11.6992 16.8001 11.6992 16.2001C11.6992 15.7001 12.0992 15.2001 12.6992 15.2001H15.6992C16.1992 15.2001 16.6992 15.6001 16.6992 16.2001C16.5992 16.8001 16.1992 17.2001 15.6992 17.2001Z" fill="#637EA8"/>
    <path d="M37.9992 17.2001H24.6992C24.0992 17.2001 23.6992 16.8001 23.6992 16.2001C23.6992 15.7001 24.1992 15.2001 24.6992 15.2001H37.9992C38.5992 15.2001 38.9992 15.6001 38.9992 16.2001C38.9992 16.8001 38.4992 17.2001 37.9992 17.2001Z" fill="#637EA8"/>
    <path d="M20.1992 34.5H12.6992C12.1992 34.5 11.6992 34.1 11.6992 33.5C11.6992 32.9 12.0992 32.5 12.6992 32.5H20.1992C20.6992 32.5 21.1992 32.9 21.1992 33.5C21.1992 34.1 20.6992 34.5 20.1992 34.5Z" fill="#637EA8"/>
    <path d="M38 25.9H35C34.5 25.9 34 25.5 34 24.9C34 24.3 34.4 23.9 35 23.9H38C38.5 23.9 39 24.3 39 24.9C39 25.5 38.5 25.9 38 25.9Z" fill="#637EA8"/>
    <path d="M22.4008 19.5H18.0008C16.2008 19.5 14.8008 18.1 14.8008 16.3C14.8008 14.5 16.2008 13 18.0008 13H22.5008C24.3008 13 25.7008 14.4 25.7008 16.2C25.7008 18 24.2008 19.5 22.4008 19.5ZM18.0008 14.9C17.3008 14.9 16.7008 15.5 16.7008 16.2C16.7008 16.9 17.3008 17.5 18.0008 17.5H22.5008C23.2008 17.5 23.8008 16.9 23.8008 16.2C23.8008 15.5 23.2008 14.9 22.5008 14.9H18.0008Z" fill="#E8A15B"/>
    <path d="M32.7 28.1001H28.2C26.4 28.1001 25 26.7001 25 24.9001C25 23.1001 26.4 21.7001 28.2 21.7001H32.7C34.5 21.7001 35.9 23.1001 35.9 24.9001C35.9 26.7001 34.5 28.1001 32.7 28.1001ZM28.2 23.6001C27.5 23.6001 26.9 24.2001 26.9 24.9001C26.9 25.6001 27.5 26.2001 28.2 26.2001H32.7C33.4 26.2001 34 25.6001 34 24.9001C34 24.2001 33.4 23.6001 32.7 23.6001H28.2Z" fill="#E8A15B"/>
    <path d="M27.4008 36.8H23.0008C21.2008 36.8 19.8008 35.4 19.8008 33.6C19.8008 31.8 21.2008 30.4 23.0008 30.4H27.5008C29.3008 30.4 30.7008 31.8 30.7008 33.6C30.6008 35.4 29.2008 36.8 27.4008 36.8ZM23.0008 32.3C22.3008 32.3 21.7008 32.9 21.7008 33.6C21.7008 34.3 22.3008 34.9 23.0008 34.9H27.5008C28.2008 34.9 28.8008 34.3 28.8008 33.6C28.8008 32.9 28.2008 32.3 27.5008 32.3H23.0008Z" fill="#E8A15B"/>
</svg>
