<svg width="154" height="80" viewBox="0 0 154 80" fill="none" xmlns="http://www.w3.org/2000/svg">
    <path d="M1.57812 40.1032C1.57812 60.6451 18.5484 77.5742 39.1404 77.5742C59.7323 77.5742 77.013 60.671 77.013 40.1032C77.013 19.5355 60.0428 2.63225 39.1404 2.63225C18.7295 2.4258 1.57812 19.2516 1.57812 40.1032ZM26.9559 69.4968V10.8387C30.9139 9.29031 34.8719 8.23225 39.4508 8.23225C43.9262 8.23225 48.1946 9.26451 51.9457 10.8387V69.4968C48.5051 71.0452 45.0903 71.5613 41.1323 71.8968V25.1871H37.8986V71.8968C33.8372 71.5613 30.3965 70.7355 26.9559 69.4968ZM7.29524 40.1032C7.29524 31.1742 11.0463 22.9677 17.0738 17.1613L23.4118 26.0903V67.8193C13.9437 62.3226 7.29524 51.7419 7.29524 40.1032ZM55.257 26.2193L61.5949 16.9806C67.726 22.7871 71.3735 30.6839 71.3735 39.9226C71.3735 51.7677 64.7251 62.1419 55.257 67.6387V26.2193Z" fill="#FF1240"/>
    <path d="M100.218 21.1099L108.419 29.626L116.645 21.1099H125.389V58.8905H117.163V29.626L112.377 34.297V58.8905H104.487V34.297L99.701 29.626V58.8905H91.4746V21.1099H100.218Z" fill="#201600"/>
    <path d="M139.127 21.1098C142.567 21.1098 145.775 21.1098 148.698 24.0259C150.25 25.5743 152.449 28.8001 152.449 34.0904C152.449 39.8969 150.044 42.813 148.181 44.1549C145.258 46.2195 141.843 46.5549 139.437 46.5549H138.402V58.4001H130.486V20.9033L139.127 21.1098ZM138.92 39.8969H139.954C140.989 39.8969 142.024 39.8969 143.188 38.3485C144.016 37.3162 144.223 35.4324 144.223 34.0904C144.223 33.5743 144.223 30.8646 143.395 29.6259C142.36 28.0775 141.326 28.0775 140.472 28.0775H139.127L138.92 39.8969Z" fill="#201600"/>
</svg>
